<svg width="120" height="36" viewBox="0 0 120 36" fill="none" xmlns="http://www.w3.org/2000/svg">
<g clip-path="url(#clip0_9114_74637)">
<mask id="mask0_9114_74637" style="mask-type:luminance" maskUnits="userSpaceOnUse" x="0" y="0" width="120" height="36">
<path d="M120 0H0V35.999H120V0Z" fill="white"/>
</mask>
<g mask="url(#mask0_9114_74637)">
<path d="M47.0348 17.4679C47.9375 16.9582 48.6603 16.323 49.1874 15.5748C49.787 14.7219 50.0921 13.7487 50.0921 12.6823C50.0921 10.6867 49.342 9.12847 47.8639 8.05164C46.4036 6.98633 44.3931 6.44739 41.8892 6.44739H32.8319V29.5673H42.2511C44.8886 29.5673 47.0012 28.9572 48.5288 27.7537C50.0679 26.5398 50.8496 24.8393 50.8496 22.6992C50.8496 21.3964 50.4825 20.2756 49.7586 19.3683C49.1085 18.5573 48.1953 17.9189 47.0369 17.47L47.0348 17.4679ZM37.7324 10.6145H41.4946C42.674 10.6145 43.5651 10.8416 44.1437 11.2895C44.715 11.7311 44.9928 12.3119 44.9928 13.0632C44.9928 13.8146 44.715 14.4247 44.1437 14.8684C43.5651 15.3153 42.674 15.5434 41.4946 15.5434H37.7324V10.6145ZM44.815 24.6164C44.1627 25.1365 43.1674 25.3992 41.8555 25.3992H37.7324V19.7408H41.8555C43.1664 19.7408 44.1627 19.9951 44.8181 20.4943C45.4673 20.9924 45.7829 21.6496 45.7829 22.5067C45.7829 23.4077 45.4662 24.0973 44.815 24.6164Z" fill="#939CB7"/>
<path d="M57.4692 12.2784H52.535V29.5662H57.4692V12.2784Z" fill="#939CB7"/>
<path d="M106.204 14.8788C105.424 13.9538 104.444 13.2296 103.294 12.7231C102.145 12.2176 100.854 11.9602 99.4573 11.9602C97.7445 11.9602 96.2001 12.3474 94.864 13.1092C93.5247 13.8742 92.4631 14.9364 91.7046 16.2686C90.9471 17.5997 90.5631 19.1443 90.5631 20.8584C90.5631 22.5726 90.9355 24.2187 91.6699 25.5707C92.4063 26.927 93.4647 27.9902 94.8156 28.7342C96.1643 29.4741 97.7477 29.8498 99.5225 29.8498C101.701 29.8498 103.551 29.3046 105.021 28.2298C106.437 27.1949 107.411 25.735 107.941 23.9079H102.973C102.712 24.5295 102.344 25.059 101.817 25.4326C101.194 25.8721 100.389 26.0961 99.4236 26.0961C98.5872 26.0961 97.8697 25.8941 97.2921 25.4954C96.7125 25.0967 96.2695 24.5075 95.9781 23.7415C95.8035 23.2863 95.6793 22.763 95.6067 22.1822H108.026L108.051 22.0284C108.273 20.6345 108.217 19.3128 107.882 18.102C107.548 16.8881 106.983 15.8039 106.202 14.8788H106.204ZM95.6877 18.981C95.7635 18.6294 95.8666 18.2632 95.996 17.9293C96.299 17.1539 96.7356 16.5574 97.2964 16.1587C97.8539 15.76 98.5483 15.5591 99.3605 15.5591C100.378 15.5591 101.212 15.8876 101.842 16.5323C102.439 17.1466 102.778 17.9858 102.85 18.981H95.6877Z" fill="#939CB7"/>
<path d="M57.5713 6.44635H52.4309V10.6134H57.5713V6.44635Z" fill="#939CB7"/>
<path d="M84.5926 14.2394C84.0087 13.5425 83.3249 13.0015 82.5537 12.6279C81.6321 12.1852 80.5548 11.9602 79.3512 11.9602C77.8762 11.9602 76.5548 12.3223 75.4238 13.0339C74.2939 13.7455 73.3986 14.7522 72.7621 16.0226C72.1288 17.2899 71.8058 18.778 71.8058 20.4472C71.8058 22.1163 72.1446 23.5165 72.8126 24.7932C73.4828 26.0741 74.4107 27.0934 75.5722 27.8259C76.7358 28.5605 78.0624 28.9331 79.5164 28.9331C80.6137 28.9331 81.6163 28.6966 82.4948 28.2298C83.1902 27.8604 83.7731 27.3717 84.2318 26.7752V28.6579C84.2318 29.8247 83.9235 30.7205 83.3175 31.317C82.7094 31.9135 81.7847 32.2148 80.5685 32.2148C79.5206 32.2148 78.6958 31.9783 78.1193 31.5116C77.6479 31.1296 77.2355 30.6284 77.1387 29.5673H72.3813C72.4255 31.0522 72.8642 32.0526 73.4828 32.9296C74.1771 33.9122 75.1535 34.6804 76.3875 35.2109C77.609 35.7352 79.0272 36.001 80.6011 36.001C83.2428 36.001 85.3459 35.3407 86.8514 34.0399C88.3653 32.7318 89.1334 30.8994 89.1334 28.5951V12.2783H84.5937V14.2394H84.5926ZM83.7236 22.7442C83.4112 23.3867 82.9693 23.8901 82.4096 24.2386C81.8499 24.587 81.1755 24.7649 80.4033 24.7649C79.286 24.7649 78.418 24.3872 77.7468 23.6086C77.0788 22.8342 76.74 21.771 76.74 20.4472C76.74 19.1234 77.0788 18.0601 77.7468 17.2847C78.4086 16.5166 79.3028 16.1283 80.4033 16.1283C81.5038 16.1283 82.4748 16.5229 83.1587 17.3025C83.8488 18.0884 84.1981 19.1579 84.1981 20.4786C84.1981 21.3346 84.0382 22.0954 83.7236 22.7442Z" fill="#939CB7"/>
<path d="M120 16.413V12.2784H116.439V6.44635H111.537V12.2784H108.496V16.413H111.537V23.1806C111.537 26.9427 112.282 29.7086 116.927 29.6228L119.842 29.5663V25.6901H118.396C116.331 25.6901 116.446 24.4929 116.446 22.2691L116.438 16.413H120Z" fill="#939CB7"/>
<path d="M70.6064 16.413V12.2784H67.0452V6.44635H62.1436V12.2784H59.1021V16.413H62.1436V23.1806C62.1436 26.9427 62.8884 29.7086 67.5333 29.6228L70.4486 29.5663V25.6901H69.002C66.9379 25.6901 67.0525 24.4929 67.0525 22.2691L67.0441 16.413H70.6064Z" fill="#939CB7"/>
<path d="M12.3017 10.6134H19.7031L27.2748 18.0968C27.7672 18.5834 27.7703 19.3756 27.28 19.8643L17.5705 29.5715H9.94617L12.2512 27.3425L20.7141 18.9779L12.3586 10.6134" fill="#939CB7"/>
<path d="M15.3434 18.9591H7.94205L0.371368 11.4757C-0.121 10.9891 -0.124156 10.1969 0.366108 9.70821L10.0756 0H17.7L15.3949 2.22901L6.93207 10.5935L15.2876 18.9581" fill="#939CB7"/>
</g>
</g>
<defs>
<clipPath id="clip0_9114_74637">
<rect width="120" height="36" fill="white"/>
</clipPath>
</defs>
</svg>
