<svg width="112" height="20" viewBox="0 0 112 20" fill="none" xmlns="http://www.w3.org/2000/svg">
<path d="M22.5114 5.58362C18.4791 5.58362 15.3283 8.67117 15.3283 12.8045C15.3283 16.9379 18.3995 19.999 22.5114 19.999C26.6234 19.999 29.7479 16.885 29.7479 12.7781C29.7479 8.6976 26.6768 5.58362 22.5114 5.58362ZM22.5386 17.0202C20.2423 17.0202 18.5597 15.2213 18.5597 12.8055C18.5597 10.3623 20.2151 8.56446 22.5114 8.56446C24.8349 8.56446 26.5166 10.3898 26.5166 12.8055C26.5166 15.2213 24.8349 17.0202 22.5386 17.0202ZM30.6286 8.72504H32.6317V19.7317H35.8358V5.85192H30.6286V8.72504ZM7.2646 8.56344C8.94727 8.56344 10.2823 9.61024 10.7891 11.1672H14.1807C13.5661 7.83881 10.8425 5.58362 7.2918 5.58362C3.25943 5.58362 0.108704 8.67117 0.108704 12.8055C0.108704 16.9399 3.17983 20 7.2918 20C10.7629 20 13.5399 17.7448 14.1545 14.3889H10.7891C10.3085 15.9459 8.97347 17.0202 7.2908 17.0202C4.9673 17.0202 3.33903 15.2213 3.33903 12.8055C3.34004 10.3623 4.94211 8.56344 7.2646 8.56344ZM91.5091 11.463L89.1594 11.1144C88.0379 10.9538 87.2369 10.5778 87.2369 9.69155C87.2369 8.72504 88.2788 8.24229 89.6934 8.24229C91.2421 8.24229 92.2305 8.91305 92.4441 10.0137H95.5415C95.1938 7.22191 93.0578 5.58463 89.774 5.58463C86.3825 5.58463 84.1396 7.32964 84.1396 9.79928C84.1396 12.1612 85.6086 13.5312 88.572 13.9601L90.9217 14.3087C92.0703 14.4692 92.7111 14.9266 92.7111 15.7854C92.7111 16.886 91.5897 17.3423 90.041 17.3423C88.1447 17.3423 87.0767 16.5639 86.9165 15.3829H83.7658C84.06 18.0944 86.1689 20 90.0138 20C93.5122 20 95.8347 18.3891 95.8347 15.6238C95.8347 13.1541 94.153 11.8654 91.5091 11.463ZM34.2337 0.134153C33.0589 0.134153 32.1772 0.992937 32.1772 2.17389C32.1772 3.35485 33.0579 4.21363 34.2337 4.21363C35.4086 4.21363 36.2902 3.35485 36.2902 2.17389C36.2902 0.992937 35.4086 0.134153 34.2337 0.134153ZM81.2559 10.6042C81.2559 7.59795 79.4402 5.58463 75.5952 5.58463C71.9639 5.58463 69.9346 7.43737 69.5336 10.283H72.7115C72.8717 9.18238 73.7262 8.26973 75.5418 8.26973C77.1711 8.26973 77.9721 8.99436 77.9721 9.88058C77.9721 11.0351 76.5031 11.3298 74.6874 11.5179C72.2309 11.7862 69.187 12.645 69.187 15.8667C69.187 18.3637 71.0298 19.9736 73.967 19.9736C76.2633 19.9736 77.7051 19.0071 78.4266 17.4765C78.5334 18.8455 79.548 19.7317 80.9637 19.7317H82.8327V16.8596H81.2569V10.6042H81.2559ZM78.1051 14.0942C78.1051 15.9469 76.5031 17.3159 74.5534 17.3159C73.3513 17.3159 72.3367 16.8057 72.3367 15.7325C72.3367 14.3635 73.966 13.9875 75.4612 13.8269C76.9031 13.6928 77.7041 13.3706 78.1051 12.7527V14.0942ZM61.096 5.58362C59.3066 5.58362 57.8113 6.33569 56.7432 7.59693V0H53.5391V19.7317H56.6898V17.9064C57.7579 19.2215 59.2804 20 61.096 20C64.941 20 67.8519 16.9399 67.8519 12.8055C67.8519 8.67117 64.8876 5.58362 61.096 5.58362ZM60.6154 17.0202C58.3191 17.0202 56.6364 15.2213 56.6364 12.8055C56.6364 10.3898 58.3453 8.56446 60.6416 8.56446C62.9651 8.56446 64.5934 10.3633 64.5934 12.8055C64.5934 15.2213 62.9117 17.0202 60.6154 17.0202ZM45.8754 5.58362C43.7927 5.58362 42.4305 6.4424 41.6294 7.6508V5.85192H38.4515V19.7307H41.6556V12.1876C41.6556 10.0666 42.9907 8.56344 44.9666 8.56344C46.8094 8.56344 47.9571 9.87855 47.9571 11.7852V19.7317H51.1612V11.5443C51.1622 8.05325 49.3737 5.58362 45.8754 5.58362ZM111.109 12.3492C111.109 8.37644 108.225 5.58463 104.353 5.58463C100.241 5.58463 97.2231 8.69861 97.2231 12.8055C97.2231 17.1279 100.454 20 104.406 20C107.744 20 110.361 18.0131 111.028 15.1949H107.69C107.209 16.4297 106.034 17.1279 104.459 17.1279C102.402 17.1279 100.853 15.8392 100.507 13.584H111.108V12.3492H111.109ZM100.694 11.275C101.202 9.34194 102.644 8.40287 104.299 8.40287C106.115 8.40287 107.504 9.44967 107.824 11.275H100.694Z" fill="#939CB7"/>
</svg>
