<svg width="141" height="26" viewBox="0 0 141 26" fill="none" xmlns="http://www.w3.org/2000/svg">
<g clip-path="url(#clip0_9114_74701)">
<path d="M27.6801 3.99542H31.1825L37.171 13.295L43.1832 3.99542H46.6857V21.433H43.2187V9.4757L38.2459 17.1864H36.1212L31.1484 9.4757V21.433H27.6814V3.99542H27.6801ZM53.9391 21.5631C53.339 21.421 52.757 21.208 52.2057 20.9286C51.687 20.6662 51.2059 20.333 50.7757 19.9382C50.3587 19.5548 49.9974 19.1134 49.7015 18.6274C49.4021 18.1322 49.1724 17.5974 49.0186 17.0379C48.6997 15.8537 48.6997 14.6044 49.0186 13.4202C49.1717 12.862 49.4015 12.3294 49.7015 11.8363C49.9988 11.3517 50.3608 10.911 50.7757 10.5255C51.2045 10.1279 51.6863 9.79261 52.2057 9.52875C52.757 9.24933 53.339 9.0364 53.9391 8.89421C55.2375 8.59356 56.586 8.59356 57.8851 8.89421C58.4817 9.03498 59.0602 9.24791 59.6067 9.52875C60.124 9.79615 60.605 10.1308 61.0367 10.5255C61.4578 10.9089 61.8254 11.3503 62.1283 11.8363C62.4318 12.328 62.6636 12.8613 62.8168 13.4202C63.1356 14.6044 63.1356 15.8537 62.8168 17.0379C62.6629 17.5981 62.4311 18.1336 62.1283 18.6274C61.8275 19.1148 61.4599 19.5562 61.0367 19.9382C60.6036 20.3294 60.1233 20.6619 59.6067 20.9286C59.0616 21.2087 58.4852 21.4217 57.8906 21.5631C56.5902 21.8638 55.2396 21.8638 53.9391 21.5631ZM56.9571 18.7816C57.2745 18.7038 57.5822 18.5885 57.8732 18.4378C58.1503 18.2942 58.4044 18.1082 58.6265 17.886C58.8465 17.6675 59.0365 17.4199 59.1925 17.1503C59.3519 16.873 59.4696 16.5731 59.5427 16.2604C59.622 15.9223 59.661 15.5757 59.6596 15.2283C59.6617 14.8831 59.6227 14.5379 59.5427 14.2026C59.3958 13.5836 59.0776 13.0198 58.6265 12.5777C58.4016 12.3577 58.1482 12.1702 57.8732 12.0202C57.5843 11.8625 57.2759 11.7451 56.9571 11.6701C56.6104 11.5894 56.256 11.5491 55.9003 11.5512C55.5487 11.5498 55.1978 11.5894 54.8553 11.6701C54.5378 11.7443 54.2315 11.8618 53.9447 12.0202C53.6725 12.1716 53.4212 12.3591 53.1977 12.5777C52.9777 12.7934 52.7904 13.041 52.6429 13.3134C52.4925 13.5928 52.3748 13.8899 52.2927 14.1969C52.2043 14.5336 52.1611 14.8803 52.1646 15.229C52.1625 15.5771 52.2057 15.9244 52.2927 16.2611C52.3727 16.571 52.4904 16.8702 52.6429 17.1511C52.7918 17.422 52.9791 17.6696 53.1977 17.8868C53.4184 18.1075 53.6704 18.2935 53.9447 18.4385C54.2336 18.5899 54.5392 18.7052 54.8553 18.7823C55.1971 18.8665 55.548 18.9082 55.9003 18.9068C56.256 18.909 56.6111 18.8672 56.9571 18.7823V18.7816ZM69.9394 21.5631C69.3393 21.421 68.7572 21.208 68.2059 20.9286C67.6872 20.6662 67.2062 20.333 66.7759 19.9382C66.3589 19.5548 65.9976 19.1134 65.7017 18.6274C65.4024 18.1322 65.1726 17.5974 65.0188 17.0379C64.6999 15.8537 64.6999 14.6044 65.0188 13.4202C65.1719 12.862 65.4017 12.3294 65.7017 11.8363C65.999 11.3517 66.3603 10.911 66.7759 10.5255C67.2048 10.1279 67.6865 9.79261 68.2059 9.52875C68.7572 9.24933 69.3393 9.0364 69.9394 8.89421C71.2377 8.59356 72.5862 8.59356 73.8853 8.89421C74.4819 9.03498 75.0604 9.24791 75.6069 9.52875C76.1242 9.79615 76.6052 10.1308 77.0369 10.5255C77.4581 10.9089 77.8256 11.3503 78.1285 11.8363C78.432 12.328 78.6638 12.8613 78.817 13.4202C79.1358 14.6044 79.1358 15.8537 78.817 17.0379C78.6631 17.5981 78.4313 18.1336 78.1285 18.6274C77.8277 19.1148 77.4601 19.5562 77.0369 19.9382C76.6039 20.3294 76.1235 20.6619 75.6069 20.9286C75.0618 21.2087 74.4854 21.4217 73.8909 21.5631C72.5904 21.8638 71.2398 21.8638 69.9394 21.5631ZM72.9573 18.7816C73.2747 18.7038 73.5824 18.5885 73.8735 18.4378C74.1505 18.2942 74.4046 18.1082 74.6267 17.886C74.8467 17.6675 75.0368 17.4199 75.1927 17.1503C75.3514 16.873 75.4698 16.5731 75.5429 16.2604C75.6222 15.9223 75.6612 15.5757 75.6598 15.2283C75.6619 14.8831 75.6229 14.5379 75.5429 14.2026C75.396 13.5836 75.0778 13.0198 74.6267 12.5777C74.4018 12.3577 74.1484 12.1702 73.8735 12.0202C73.5845 11.8625 73.2761 11.7451 72.9573 11.6701C72.6106 11.5894 72.2562 11.5491 71.9005 11.5512C71.5489 11.5498 71.198 11.5894 70.8555 11.6701C70.5381 11.7443 70.2317 11.8618 69.9449 12.0202C69.6727 12.1716 69.4214 12.3591 69.1979 12.5777C68.9779 12.7927 68.7907 13.041 68.6431 13.3134C68.4927 13.5928 68.375 13.8899 68.2929 14.1969C68.2045 14.5336 68.1613 14.881 68.1648 15.229C68.1627 15.5771 68.2059 15.9244 68.2929 16.2611C68.373 16.571 68.4906 16.8702 68.6431 17.1511C68.7921 17.422 68.9793 17.6696 69.1979 17.8868C69.4186 18.1075 69.6706 18.2935 69.9449 18.4385C70.2338 18.5899 70.5395 18.7052 70.8555 18.7823C71.1973 18.8665 71.5482 18.9082 71.9005 18.9068C72.2562 18.909 72.6113 18.8672 72.9573 18.7823V18.7816ZM81.1443 9.07248H84.4713V10.5552C84.6767 10.2673 84.9204 10.0098 85.1954 9.78978C85.4864 9.55776 85.8038 9.36251 86.1408 9.2083C86.5125 9.03923 86.9024 8.91614 87.302 8.84045C87.7469 8.75556 88.198 8.71382 88.6505 8.71594C89.355 8.70604 90.0554 8.8263 90.7167 9.07177C91.3064 9.29248 91.8404 9.64264 92.2811 10.0975C92.7238 10.5693 93.0587 11.1339 93.262 11.7521C93.4959 12.4631 93.6107 13.2087 93.6003 13.9585V21.4316H90.2733V14.8364C90.2809 14.354 90.2141 13.8736 90.0749 13.4131C89.9593 13.0325 89.7665 12.681 89.5089 12.381C89.261 12.1023 88.9505 11.8887 88.6038 11.7585C88.2112 11.6142 87.7956 11.5434 87.3779 11.5512C86.9581 11.5442 86.5411 11.6149 86.1463 11.7585C85.7976 11.888 85.485 12.1016 85.2357 12.381C84.9782 12.681 84.7853 13.0325 84.6698 13.4131C84.5305 13.8743 84.463 14.3547 84.4713 14.8364V21.4316H81.1443V9.07106V9.07248ZM96.0328 3.99542H103.118C104.232 3.99542 105.197 4.13407 106.014 4.41067C106.831 4.68727 107.504 5.07068 108.033 5.56162C108.56 6.04761 108.966 6.65315 109.218 7.32943C109.484 8.04178 109.616 8.798 109.61 9.55917C109.618 10.3189 109.485 11.0737 109.218 11.7833C108.961 12.4532 108.556 13.0545 108.033 13.539C107.504 14.0335 106.831 14.419 106.014 14.6956C105.197 14.9729 104.232 15.1109 103.118 15.1109H99.4997V21.4337H96.0328V3.99542ZM102.791 12.2042C103.271 12.2134 103.75 12.1575 104.216 12.0379C104.578 11.9445 104.917 11.7726 105.208 11.5335C105.47 11.3107 105.671 11.0228 105.791 10.6974C105.922 10.3288 105.985 9.93834 105.978 9.54644C105.985 9.15666 105.922 8.76829 105.791 8.40185C105.671 8.07998 105.469 7.79561 105.208 7.57773C104.915 7.34216 104.577 7.17238 104.216 7.07971C103.75 6.96087 103.272 6.90498 102.791 6.91347H99.499V12.2042H102.791ZM114.955 21.5688C114.415 21.4287 113.895 21.2179 113.408 20.9399C112.461 20.3988 111.679 19.6022 111.149 18.6387C110.876 18.1407 110.668 17.608 110.53 17.0548C110.242 15.8664 110.242 14.6249 110.53 13.4372C110.667 12.8861 110.875 12.3555 111.149 11.8597C111.681 10.899 112.463 10.1053 113.408 9.56412C113.894 9.28682 114.414 9.0753 114.955 8.93524C115.533 8.78598 116.127 8.7124 116.723 8.71594C117.045 8.71523 117.366 8.73504 117.686 8.77536C117.98 8.81215 118.271 8.87157 118.555 8.95363C118.82 9.03003 119.079 9.1227 119.332 9.23235C119.568 9.33492 119.797 9.45589 120.015 9.59383C120.22 9.724 120.411 9.87538 120.587 10.0445C120.751 10.2029 120.903 10.3734 121.042 10.5545V9.07177H124.393V21.4323H121.042V19.9495C120.828 20.2226 120.583 20.4695 120.313 20.6853C120.013 20.9236 119.686 21.1231 119.338 21.2781C118.951 21.4507 118.545 21.578 118.129 21.6579C117.666 21.7471 117.194 21.7909 116.722 21.7881C116.126 21.7916 115.532 21.7174 114.954 21.5688H114.955ZM118.51 18.817C118.821 18.7448 119.121 18.6317 119.403 18.4789C119.675 18.3317 119.928 18.1506 120.156 17.9391C120.384 17.7276 120.58 17.4835 120.739 17.2154C120.906 16.9339 121.036 16.6304 121.124 16.3142C121.22 15.969 121.267 15.611 121.264 15.2524C121.268 14.8895 121.22 14.528 121.124 14.1785C121.036 13.8623 120.906 13.5588 120.739 13.2773C120.579 13.0078 120.382 12.7623 120.156 12.548C119.931 12.335 119.678 12.1554 119.403 12.0139C119.119 11.8689 118.819 11.7592 118.51 11.6878C118.184 11.6121 117.851 11.5739 117.517 11.5753C117.185 11.5739 116.855 11.6121 116.531 11.6878C116.225 11.7592 115.929 11.8689 115.65 12.0139C115.376 12.1568 115.123 12.3364 114.896 12.548C114.667 12.7616 114.468 13.0071 114.307 13.2773C114.14 13.5581 114.012 13.8616 113.927 14.1785C113.835 14.5287 113.79 14.8895 113.793 15.2524C113.79 15.611 113.835 15.9683 113.927 16.3142C114.012 16.6311 114.14 16.9346 114.307 17.2154C114.468 17.4849 114.666 17.7283 114.896 17.9391C115.125 18.1485 115.378 18.3296 115.65 18.4789C115.927 18.6309 116.224 18.7448 116.531 18.817C116.855 18.8934 117.185 18.9309 117.517 18.9295C117.852 18.9309 118.184 18.8927 118.51 18.817ZM131.33 21.3615L126.064 9.07248H129.59L133.186 17.886L137.341 9.07248H140.808L132.613 26H129.087L131.329 21.3622L131.33 21.3615Z" fill="#939CB7"/>
<path d="M8.94519 23.1441C7.25696 23.1441 5.60633 22.6355 4.20283 21.6819C2.79934 20.729 1.70495 19.3743 1.0589 17.7891C0.412154 16.2045 0.242983 14.4607 0.57297 12.7778C0.902262 11.0949 1.7154 9.5499 2.90934 8.33669C4.10328 7.12349 5.62443 6.29724 7.27993 5.96264C8.93614 5.62804 10.6522 5.79994 12.2123 6.45641C13.7725 7.11288 15.1057 8.22492 16.0434 9.65105C16.9812 11.0772 17.4824 12.7544 17.4817 14.4699C17.4817 15.6088 17.261 16.7371 16.8322 17.7898C16.4033 18.8424 15.7747 19.7981 14.9817 20.6038C14.1888 21.4096 13.2483 22.0483 12.2123 22.4841C11.1764 22.9199 10.0667 23.1441 8.94519 23.1441ZM19.6837 7.11713C20.3764 7.11713 21.0538 6.90844 21.6295 6.51725C22.2053 6.12605 22.6543 5.57074 22.9195 4.91992C23.1848 4.26982 23.2537 3.55392 23.1186 2.86349C22.9836 2.17307 22.6501 1.53923 22.16 1.04122C21.6699 0.543203 21.0461 0.204355 20.3667 0.0671185C19.6872 -0.0701183 18.9834 0.000622313 18.3429 0.269437C17.7031 0.538958 17.1559 0.995235 16.7709 1.58026C16.3859 2.16528 16.1805 2.85359 16.1805 3.55746C16.1805 4.02505 16.2711 4.4877 16.4472 4.91922C16.6233 5.35073 16.8809 5.74334 17.206 6.0737C17.5311 6.40406 17.9175 6.66651 18.3422 6.84478C18.7668 7.02375 19.2228 7.11571 19.6823 7.11571L19.6837 7.11713Z" fill="#939CB7"/>
</g>
<defs>
<clipPath id="clip0_9114_74701">
<rect width="140.4" height="26" fill="white" transform="translate(0.408691)"/>
</clipPath>
</defs>
</svg>
