<svg width="93" height="36" viewBox="0 0 93 36" fill="none" xmlns="http://www.w3.org/2000/svg">
<g clip-path="url(#clip0_9114_74669)">
<path d="M66.5212 26.8488V3.17645H71.2734V26.8488H66.5212Z" fill="#939CB7"/>
<path d="M11.137 33.8806H0.949219V10.2083H10.7273C15.4795 10.2083 18.2485 12.8015 18.2485 16.858C18.2485 19.4837 16.4701 21.1806 15.2392 21.7456C16.7085 22.4102 18.5892 23.906 18.5892 27.0661C18.5892 31.4866 15.4795 33.8806 11.137 33.8806ZM10.3512 14.3317H5.70139V19.7843H10.3512C12.3679 19.7843 13.4963 18.687 13.4963 17.0571C13.4963 15.4291 12.3679 14.3317 10.3512 14.3317ZM10.6584 23.9404H5.70139V29.7589H10.6584C12.8129 29.7589 13.837 28.4297 13.837 26.8325C13.837 25.2371 12.811 23.9404 10.6584 23.9404Z" fill="#939CB7"/>
<path d="M33.0839 24.1722V33.8806H28.3653V24.1722L21.049 10.2083H26.2108L30.7581 19.7499L35.2366 10.2083H40.3985L33.0839 24.1722Z" fill="#939CB7"/>
<path d="M53.8711 33.8806H43.6833V10.2083H53.4615C58.2136 10.2083 60.9826 12.8015 60.9826 16.858C60.9826 19.4837 59.2043 21.1806 57.9734 21.7456C59.4426 22.4102 61.3235 23.906 61.3235 27.0661C61.3235 31.4866 58.2136 33.8806 53.8711 33.8806ZM53.0853 14.3317H48.4355V19.7843H53.0853C55.102 19.7843 56.2305 18.687 56.2305 17.0571C56.2305 15.4291 55.102 14.3317 53.0853 14.3317ZM53.3925 23.9404H48.4355V29.7589H53.3925C55.547 29.7589 56.5712 28.4297 56.5712 26.8325C56.5712 25.2371 55.547 23.9404 53.3925 23.9404Z" fill="#939CB7"/>
<path d="M86.5896 14.3317V33.8824H81.8375V14.3317H75.4783V10.2083H92.9489V14.3317H86.5896Z" fill="#939CB7"/>
</g>
<defs>
<clipPath id="clip0_9114_74669">
<rect width="92" height="36" fill="white" transform="translate(0.949219)"/>
</clipPath>
</defs>
</svg>
