<svg width="137" height="44" viewBox="0 0 137 44" fill="none" xmlns="http://www.w3.org/2000/svg">
<g clip-path="url(#clip0_9114_74707)">
<mask id="mask0_9114_74707" style="mask-type:luminance" maskUnits="userSpaceOnUse" x="0" y="0" width="137" height="44">
<path d="M136.642 0H0.641846V44H136.642V0Z" fill="white"/>
</mask>
<g mask="url(#mask0_9114_74707)">
<path d="M4.78123 24.5831C4.84521 24.5842 4.90869 24.5715 4.96754 24.5459C5.0264 24.5204 5.07932 24.4826 5.12286 24.4349C5.16677 24.3904 5.20158 24.3374 5.2253 24.2791C5.24901 24.2209 5.26116 24.1584 5.26103 24.0953C5.26154 24.0311 5.24948 23.9674 5.22554 23.908C5.20161 23.8486 5.16629 23.7946 5.12163 23.7492C5.07698 23.7038 5.02388 23.6679 4.96544 23.6436C4.907 23.6193 4.84438 23.607 4.78123 23.6075C4.7197 23.6071 4.65874 23.6195 4.60206 23.6438C4.54539 23.6681 4.49418 23.704 4.45156 23.7491C4.36263 23.8404 4.31274 23.9638 4.31274 24.0923C4.31274 24.2208 4.36263 24.3441 4.45156 24.4355C4.49338 24.4824 4.54444 24.5198 4.60143 24.5453C4.65841 24.5709 4.72004 24.5839 4.78231 24.5837" fill="#939CB7"/>
<path d="M3.71054 24.5831C3.80583 24.5834 3.89902 24.5546 3.97815 24.5006C4.05727 24.4466 4.11872 24.3698 4.15462 24.2801C4.19051 24.1903 4.19921 24.0917 4.1796 23.9969C4.15999 23.9021 4.11297 23.8154 4.04456 23.748C4.00072 23.7034 3.94865 23.668 3.89133 23.6439C3.83401 23.6198 3.77257 23.6074 3.71054 23.6075C3.64737 23.6069 3.58472 23.6191 3.52624 23.6434C3.46777 23.6677 3.41464 23.7036 3.36997 23.7491C3.3253 23.7945 3.28998 23.8485 3.26607 23.9079C3.24217 23.9674 3.23015 24.0311 3.23073 24.0953C3.23064 24.1584 3.2428 24.2209 3.26651 24.2791C3.29022 24.3374 3.32502 24.3903 3.36891 24.4349C3.41245 24.4826 3.46537 24.5204 3.52422 24.546C3.58308 24.5715 3.64656 24.5842 3.71054 24.5831Z" fill="#939CB7"/>
<path d="M6.75813 32.5696C6.696 32.5693 6.63444 32.5816 6.57701 32.6058C6.51958 32.6299 6.46743 32.6653 6.42357 32.7101C6.37775 32.7544 6.34127 32.8078 6.31634 32.8669C6.29142 32.9261 6.27856 32.9897 6.27856 33.0541C6.27856 33.1184 6.29142 33.1821 6.31634 33.2412C6.34127 33.3003 6.37775 33.3537 6.42357 33.3981C6.46668 33.4444 6.51863 33.4814 6.57624 33.5067C6.63385 33.532 6.69592 33.5451 6.75867 33.5452C6.82265 33.5462 6.88612 33.5335 6.94497 33.508C7.00382 33.4824 7.05674 33.4446 7.1003 33.397C7.14414 33.3524 7.17891 33.2994 7.20262 33.2412C7.22633 33.1829 7.23851 33.1204 7.23848 33.0574C7.23913 32.9931 7.22717 32.9294 7.20329 32.8699C7.17941 32.8104 7.14409 32.7564 7.09941 32.711C7.05472 32.6655 7.00157 32.6296 6.94306 32.6054C6.88455 32.5811 6.82132 32.5689 6.75813 32.5696Z" fill="#939CB7"/>
<path d="M7.83896 32.5696C7.77577 32.5689 7.71309 32.5811 7.65458 32.6054C7.59607 32.6296 7.54292 32.6655 7.49823 32.711C7.45354 32.7564 7.41823 32.8104 7.39435 32.8699C7.37046 32.9294 7.3585 32.9931 7.35916 33.0574C7.35906 33.1205 7.37122 33.1829 7.39493 33.2412C7.41865 33.2995 7.45345 33.3524 7.49733 33.397C7.5409 33.4446 7.59382 33.4824 7.65267 33.508C7.71152 33.5335 7.77499 33.5462 7.83896 33.5452C7.90123 33.5454 7.96285 33.5324 8.01983 33.5068C8.07681 33.4813 8.12788 33.4439 8.16972 33.397C8.2136 33.3524 8.2484 33.2995 8.27211 33.2412C8.29583 33.1829 8.30798 33.1205 8.30789 33.0574C8.30906 32.9931 8.29731 32.9292 8.27336 32.8697C8.24942 32.8102 8.21378 32.7562 8.16863 32.7112C8.12603 32.666 8.07483 32.6302 8.01814 32.6058C7.96146 32.5815 7.90049 32.5692 7.83896 32.5696Z" fill="#939CB7"/>
<path d="M15.5399 25.9177C14.7755 25.8966 14.02 26.0878 13.3546 26.4708C12.496 27.0676 11.8067 27.8833 11.356 28.8363V26.0505H10.6036V30.568H8.26767C8.29343 30.4813 8.30699 30.3914 8.30793 30.3008V26.0482H7.55612V30.1123C7.56306 30.2297 7.52571 30.3454 7.45167 30.4358C7.40767 30.4826 7.35389 30.5188 7.29429 30.5417C7.23469 30.5646 7.17079 30.5736 7.10732 30.568H5.70108C5.64218 30.5686 5.58379 30.5569 5.52958 30.5335C5.47537 30.5101 5.42652 30.4755 5.3861 30.4319C5.34695 30.3892 5.31681 30.3389 5.29754 30.2839C5.27826 30.2289 5.27027 30.1705 5.27404 30.1123V25.8375H4.86659L4.55107 26.1052C4.17042 25.9441 3.76225 25.8608 3.34991 25.8602C3.00827 25.8515 2.66829 25.9114 2.34949 26.0366C2.03069 26.1618 1.73934 26.3498 1.49215 26.5897C1.21008 26.8693 0.988692 27.2057 0.842251 27.5775C0.69581 27.9493 0.627556 28.3481 0.641881 28.7484C0.623162 29.3906 0.820645 30.02 1.20166 30.5326C1.42005 30.8215 1.70319 31.0531 2.02748 31.2082C2.35176 31.3633 2.70781 31.4373 3.06595 31.4241C3.64268 31.4149 4.2053 31.2413 4.68979 30.9231C4.78022 31.0388 4.89542 31.1321 5.02663 31.1959C5.15785 31.2596 5.30162 31.2921 5.44703 31.2909H7.35865C7.4899 31.2905 7.61952 31.2612 7.7386 31.2051C7.85767 31.149 7.96337 31.0673 8.04844 30.9657L8.27529 31.2909H17.2986C17.4198 31.2917 17.5399 31.2668 17.6511 31.2178C17.7623 31.1687 17.8622 31.0966 17.9443 31.006C18.0404 30.917 18.1172 30.8085 18.1695 30.6875C18.2219 30.5666 18.2488 30.4358 18.2484 30.3036V28.6709C18.2623 28.2966 18.1998 27.9234 18.0647 27.5749C17.9295 27.2264 17.7248 26.9101 17.4634 26.6461C16.9413 26.1561 16.2501 25.8945 15.5399 25.9177ZM3.16441 30.693C2.94204 30.7008 2.72037 30.6633 2.51249 30.5827C2.3046 30.502 2.11471 30.3799 1.95401 30.2234C1.77096 30.0273 1.62891 29.7954 1.53644 29.5419C1.44397 29.2884 1.403 29.0184 1.41599 28.7484C1.40498 28.2157 1.57825 27.696 1.90559 27.2799C2.08843 27.046 2.32208 26.8582 2.58823 26.7313C2.85438 26.6045 3.14581 26.542 3.43967 26.5488C3.80853 26.5506 4.17176 26.6408 4.49993 26.812L4.51081 30.2749C4.10201 30.5214 3.64107 30.6647 3.16659 30.693M17.4874 30.1145C17.4973 30.1767 17.4926 30.2404 17.4735 30.3004C17.4545 30.3603 17.4217 30.4149 17.3779 30.4594C17.3341 30.504 17.2804 30.5373 17.2214 30.5567C17.1624 30.576 17.0998 30.5809 17.0386 30.5708H11.4033C11.9761 28.8927 12.7546 27.723 13.7186 27.0941C14.2471 26.7559 14.8616 26.5829 15.486 26.5963C15.7602 26.5827 16.0343 26.624 16.2928 26.7181C16.5513 26.8121 16.789 26.957 16.9923 27.1444C17.1602 27.3173 17.2909 27.5238 17.3758 27.7508C17.4608 27.9778 17.4982 28.2204 17.4858 28.463L17.4874 30.1145Z" fill="#939CB7"/>
<path d="M14.8849 24.5831C14.9471 24.5834 15.0087 24.5703 15.0657 24.5448C15.1227 24.5192 15.1738 24.4818 15.2156 24.4349C15.2595 24.3903 15.2943 24.3374 15.318 24.2791C15.3417 24.2208 15.3538 24.1584 15.3538 24.0953C15.3549 24.031 15.3431 23.9672 15.3191 23.9077C15.2952 23.8481 15.2596 23.7942 15.2145 23.7491C15.1719 23.704 15.1207 23.6682 15.064 23.6439C15.0073 23.6196 14.9464 23.6072 14.8849 23.6075C14.8217 23.6069 14.759 23.6191 14.7006 23.6434C14.6421 23.6677 14.589 23.7036 14.5443 23.7491C14.4996 23.7945 14.4643 23.8485 14.4404 23.9079C14.4165 23.9674 14.4045 24.0311 14.405 24.0953C14.4049 24.1584 14.4169 24.2208 14.4405 24.2791C14.4642 24.3374 14.4989 24.3903 14.5427 24.4349C14.5863 24.4827 14.6393 24.5205 14.6982 24.5461C14.7572 24.5716 14.8208 24.5842 14.8849 24.5831Z" fill="#939CB7"/>
<path d="M20.2362 23.2076H19.4746V31.5685H19.8679L20.2378 31.2676L20.2362 23.2076Z" fill="#939CB7"/>
<path d="M26.3867 24.5831C26.482 24.5835 26.5753 24.5548 26.6545 24.5009C26.7337 24.4469 26.7952 24.3701 26.8312 24.2804C26.8672 24.1906 26.8759 24.0919 26.8563 23.9971C26.8367 23.9022 26.7897 23.8155 26.7212 23.748C26.6773 23.7033 26.6251 23.668 26.5677 23.6439C26.5103 23.6198 26.4488 23.6074 26.3867 23.6075C26.3235 23.6069 26.2609 23.6191 26.2024 23.6434C26.1439 23.6677 26.0908 23.7036 26.0461 23.7491C26.0014 23.7945 25.9661 23.8485 25.9422 23.9079C25.9183 23.9674 25.9063 24.0311 25.9069 24.0953C25.9068 24.1584 25.9189 24.2209 25.9427 24.2791C25.9664 24.3374 26.0012 24.3903 26.0451 24.4349C26.0886 24.4826 26.1415 24.5204 26.2004 24.546C26.2592 24.5715 26.3227 24.5842 26.3867 24.5831Z" fill="#939CB7"/>
<path d="M25.3052 24.5831C25.3692 24.5841 25.4326 24.5714 25.4915 24.5459C25.5503 24.5204 25.6033 24.4826 25.6468 24.4349C25.6907 24.3903 25.7254 24.3374 25.7491 24.2791C25.7728 24.2208 25.785 24.1584 25.785 24.0953C25.7856 24.0311 25.7737 23.9673 25.7498 23.9079C25.7259 23.8484 25.6906 23.7943 25.6459 23.7489C25.6012 23.7035 25.5481 23.6676 25.4896 23.6433C25.4311 23.619 25.3684 23.6068 25.3052 23.6075C25.2437 23.6071 25.1827 23.6195 25.126 23.6438C25.0693 23.6682 25.0181 23.704 24.9755 23.7491C24.9304 23.7941 24.8947 23.8481 24.8708 23.9076C24.8468 23.9671 24.8351 24.031 24.8363 24.0953C24.8362 24.1584 24.8483 24.2209 24.872 24.2791C24.8957 24.3374 24.9305 24.3903 24.9744 24.4349C25.0163 24.4818 25.0673 24.5193 25.1243 24.5448C25.1813 24.5703 25.2429 24.5834 25.3052 24.5831Z" fill="#939CB7"/>
<path d="M31.3126 25.9177C30.9635 25.9003 30.6147 25.9573 30.2887 26.0853C29.9626 26.2132 29.6665 26.4092 29.4195 26.6605C28.9675 27.1836 28.7333 27.8649 28.7667 28.5603C28.7613 28.9674 28.8216 29.3727 28.9451 29.7599C29.0512 30.0609 29.2161 30.3369 29.4298 30.5713H26.7147C26.7404 30.4846 26.7539 30.3947 26.755 30.3042V26.0482H26.0032V30.1123C26.0101 30.2297 25.9727 30.3454 25.8987 30.4358C25.8547 30.4826 25.8009 30.5188 25.7413 30.5417C25.6817 30.5646 25.6178 30.5736 25.5543 30.568H23.6661V26.0482H22.9138V31.2892C22.9367 31.5637 22.8976 31.8398 22.7996 32.0966C22.7015 32.3534 22.5471 32.584 22.348 32.7709C21.8332 33.1139 21.2207 33.2729 20.6072 33.2228C20.4277 33.2228 20.2378 33.2156 20.0436 33.2006L19.974 33.1951V33.4783L20.3227 33.9207H20.3504C20.4413 33.9285 20.5534 33.9318 20.6834 33.9318C22.6298 33.9318 23.6324 33.043 23.664 31.2886H25.8062C25.9375 31.2883 26.0671 31.259 26.1861 31.2028C26.3052 31.1467 26.4109 31.065 26.496 30.9634L26.7229 31.2886H32.4468C32.5679 31.2894 32.6879 31.2645 32.799 31.2154C32.9101 31.1664 33.0099 31.0943 33.092 31.0038C33.1881 30.9148 33.2648 30.8063 33.3171 30.6853C33.3695 30.5643 33.3964 30.4336 33.3961 30.3014V27.9691C33.4142 27.6755 33.3665 27.3816 33.2568 27.1094C33.147 26.8373 32.9779 26.594 32.7623 26.3978C32.3534 26.0604 31.8364 25.8885 31.3104 25.915M32.6438 30.1117C32.6537 30.1739 32.649 30.2376 32.6299 30.2976C32.6109 30.3576 32.5781 30.4121 32.5343 30.4567C32.4904 30.5012 32.4368 30.5346 32.3778 30.5539C32.3188 30.5733 32.2561 30.5781 32.195 30.568H31.1352C30.9119 30.5773 30.6894 30.5353 30.4843 30.4451C30.2792 30.3549 30.0967 30.2188 29.9504 30.047C29.6559 29.6685 29.5061 29.1945 29.5288 28.7124C29.4983 28.1687 29.6519 27.6307 29.964 27.1881C30.1317 26.9967 30.3405 26.8471 30.5744 26.7512C30.8082 26.6552 31.0606 26.6155 31.312 26.6351C31.4925 26.6241 31.6734 26.6502 31.8437 26.7118C32.0141 26.7734 32.1706 26.8691 32.3038 26.9935C32.4228 27.1262 32.5143 27.2819 32.573 27.4513C32.6317 27.6207 32.6563 27.8003 32.6454 27.9796L32.6438 30.1117Z" fill="#939CB7"/>
<path d="M31.4002 24.5831C31.4641 24.5842 31.5276 24.5715 31.5865 24.546C31.6453 24.5204 31.6983 24.4826 31.7418 24.4349C31.7857 24.3903 31.8205 24.3374 31.8442 24.2791C31.8679 24.2209 31.8801 24.1584 31.88 24.0953C31.8806 24.0311 31.8685 23.9674 31.8446 23.9079C31.8207 23.8485 31.7854 23.7945 31.7407 23.7491C31.6961 23.7036 31.6429 23.6677 31.5845 23.6434C31.526 23.6191 31.4633 23.6069 31.4002 23.6075C31.3386 23.6071 31.2777 23.6194 31.221 23.6438C31.1643 23.6681 31.1131 23.7039 31.0705 23.7491C31.0253 23.7941 30.9897 23.8481 30.9657 23.9076C30.9418 23.9671 30.93 24.031 30.9312 24.0953C30.9311 24.1584 30.9433 24.2209 30.967 24.2791C30.9907 24.3374 31.0255 24.3903 31.0694 24.4349C31.1112 24.4818 31.1623 24.5193 31.2193 24.5448C31.2763 24.5703 31.3379 24.5834 31.4002 24.5831Z" fill="#939CB7"/>
<path d="M39.8116 30.1145C39.8158 30.1783 39.8073 30.2423 39.7866 30.3026C39.7658 30.363 39.7332 30.4185 39.6908 30.4657C39.5987 30.5409 39.4822 30.5782 39.3644 30.5702H38.1877L36.2544 24.5732H35.4411L37.3853 30.5702H34.2644V30.9264L34.5609 31.2903H39.6636C39.8918 31.2776 40.1063 31.1755 40.262 31.0055C40.3581 30.9165 40.4349 30.808 40.4872 30.687C40.5396 30.566 40.5665 30.4352 40.5661 30.3031V23.2076H39.8143L39.8116 30.1145Z" fill="#939CB7"/>
<path d="M41.9418 31.568H42.3351L42.705 31.2671V23.2071H41.9434L41.9418 31.568Z" fill="#939CB7"/>
<path d="M52.275 31.2582C52.3053 31.5649 52.2553 31.8743 52.1302 32.1551C52.005 32.4359 51.8092 32.6781 51.5624 32.8572C50.9406 33.1584 50.2521 33.2888 49.5654 33.2355C48.8276 33.3026 48.0864 33.1527 47.4302 32.8035C47.22 32.6111 47.0582 32.3704 46.9583 32.1015C46.8584 31.8326 46.8232 31.5432 46.8557 31.2577V28.349H46.451L46.093 28.6505V31.2466C46.0684 31.6333 46.1304 32.0206 46.2744 32.3794C46.4184 32.7382 46.6406 33.0591 46.9243 33.3179C47.4914 33.7613 48.196 33.9834 48.9104 33.944H50.2214C50.9772 33.9902 51.7212 33.7371 52.2973 33.2377C52.5515 32.9774 52.7489 32.6655 52.8767 32.3224C53.0044 31.9794 53.0597 31.6128 53.0388 31.2466V23.2076H52.2772L52.275 31.2582Z" fill="#939CB7"/>
<path d="M65.9387 25.9177C65.1744 25.8966 64.4189 26.0878 63.7535 26.4708C62.8947 27.0674 62.2055 27.8832 61.7549 28.8363V26.0482H61.0025V30.568H58.8929V27.9685C58.911 27.6759 58.8644 27.3829 58.7565 27.111C58.6486 26.8391 58.4822 26.5952 58.2694 26.3972C57.8558 26.0612 57.336 25.8898 56.8072 25.915C56.4634 25.8949 56.1191 25.9464 55.7956 26.0664C55.472 26.1863 55.1759 26.3721 54.9255 26.6124C54.4576 27.1534 54.2193 27.8607 54.2629 28.5797C54.2298 29.2548 54.4278 29.9206 54.8232 30.464C55.0651 30.7464 55.3682 30.9679 55.7086 31.1109C56.049 31.2539 56.4174 31.3145 56.7849 31.2881H58.1367C58.1499 31.5584 58.1085 31.8285 58.0149 32.0819C57.9213 32.3352 57.7776 32.5663 57.5927 32.7609C57.0767 33.118 56.4544 33.2811 55.8329 33.2222C55.6533 33.2222 55.464 33.215 55.2698 33.2001L55.2002 33.1945V33.4777L55.5494 33.9202H55.5783C55.7132 33.9274 55.8612 33.9312 56.0189 33.9312C56.7164 33.9656 57.4057 33.7659 57.9806 33.3627C58.2818 33.1139 58.5211 32.7965 58.6791 32.4362C58.8372 32.0758 58.9095 31.6827 58.8901 31.2886H67.6953C67.8165 31.2895 67.9366 31.2646 68.0478 31.2156C68.159 31.1665 68.2589 31.0944 68.3411 31.0038C68.4372 30.9148 68.5139 30.8063 68.5662 30.6853C68.6186 30.5644 68.6455 30.4336 68.6451 30.3014V28.6687C68.659 28.2944 68.5965 27.9212 68.4614 27.5727C68.3263 27.2242 68.1215 26.9079 67.8602 26.6439C67.338 26.1539 66.6473 25.8923 65.9371 25.9155M58.1389 30.5685H56.6304C56.407 30.5809 56.1839 30.5404 55.9785 30.4503C55.7731 30.3602 55.591 30.2229 55.4466 30.0492C55.1449 29.6227 54.9958 29.1042 55.0239 28.5797C54.9901 28.0561 55.1559 27.5393 55.4869 27.1367C55.6596 26.9637 55.8663 26.8297 56.0934 26.7433C56.3205 26.657 56.563 26.6203 56.805 26.6356C56.9855 26.6246 57.1663 26.6507 57.3367 26.7123C57.5071 26.7738 57.6635 26.8696 57.7967 26.994C57.9157 27.1267 58.0073 27.2824 58.066 27.4518C58.1247 27.6212 58.1493 27.8009 58.1383 27.9801L58.1389 30.5685ZM67.8819 30.1123C67.8919 30.1745 67.8871 30.2382 67.8681 30.2982C67.849 30.3581 67.8163 30.4127 67.7724 30.4572C67.7286 30.5018 67.675 30.5351 67.616 30.5545C67.557 30.5738 67.4943 30.5786 67.4331 30.5685H61.8016C62.3745 28.8905 63.1529 27.7208 64.1169 27.0919C64.6454 26.7537 65.26 26.5806 65.8844 26.5941C66.1585 26.5804 66.4327 26.6218 66.6911 26.7158C66.9496 26.8099 67.1873 26.9548 67.3907 27.1422C67.5586 27.315 67.6892 27.5216 67.7741 27.7486C67.8591 27.9756 67.8966 28.2182 67.8841 28.4608L67.8819 30.1123Z" fill="#939CB7"/>
<path d="M75.5029 30.1145C75.5071 30.1783 75.4985 30.2423 75.4777 30.3027C75.4568 30.3631 75.4241 30.4185 75.3816 30.4657C75.2895 30.541 75.173 30.5783 75.0551 30.5702H73.4231L71.4898 24.5732H70.6738L72.618 30.5702H69.5004V30.9264L69.7969 31.2903H75.3533C75.5815 31.2776 75.7959 31.1755 75.9517 31.0055C76.0477 30.9164 76.1244 30.8079 76.1768 30.687C76.2292 30.566 76.2561 30.4352 76.2558 30.3031V23.2076H75.504L75.5029 30.1145Z" fill="#939CB7"/>
<path d="M71.9886 23.7297V23.5185H71.227C71.1385 23.5216 71.0504 23.5055 70.9685 23.4713C70.8866 23.437 70.8128 23.3854 70.7521 23.3199C70.6546 23.2052 70.6016 23.0583 70.603 22.9068C70.603 22.5124 70.7804 22.3288 71.1612 22.3288C71.2913 22.332 71.42 22.357 71.542 22.4029L71.6279 22.4333V21.9616L71.5855 21.9461C71.4071 21.879 71.2187 21.8438 71.0285 21.8421C70.9062 21.8402 70.7848 21.8638 70.6718 21.9113C70.5588 21.9589 70.4565 22.0294 70.3713 22.1186C70.2829 22.2071 70.2132 22.3129 70.1665 22.4297C70.1197 22.5465 70.0969 22.6717 70.0993 22.7978C70.0925 23.0533 70.1611 23.3051 70.2962 23.5207H69.8806V24.0074H71.7678L71.9886 23.7297Z" fill="#939CB7"/>
<path d="M77.6326 31.568H78.0259L78.3958 31.2671V23.2071H77.6342L77.6326 31.568Z" fill="#939CB7"/>
<path d="M88.9423 32.5696C88.8802 32.5693 88.8186 32.5816 88.7612 32.6057C88.7038 32.6299 88.6516 32.6653 88.6078 32.71C88.5619 32.7544 88.5254 32.8078 88.5005 32.8669C88.4756 32.926 88.4628 32.9897 88.4628 33.0541C88.4628 33.1184 88.4756 33.182 88.5005 33.2412C88.5254 33.3003 88.5619 33.3537 88.6078 33.3981C88.6509 33.4444 88.7028 33.4814 88.7604 33.5067C88.818 33.532 88.8801 33.5451 88.9429 33.5452C89.0068 33.5462 89.0703 33.5335 89.1292 33.5079C89.188 33.4824 89.2409 33.4446 89.2845 33.397C89.3283 33.3524 89.3631 33.2994 89.3868 33.2411C89.4105 33.1829 89.4227 33.1204 89.4227 33.0574C89.4234 32.9931 89.4115 32.9293 89.3876 32.8698C89.3638 32.8103 89.3284 32.7562 89.2837 32.7108C89.239 32.6653 89.1859 32.6294 89.1273 32.6052C89.0688 32.5809 89.0055 32.5688 88.9423 32.5696Z" fill="#939CB7"/>
<path d="M90.0238 32.5696C89.9606 32.5688 89.8979 32.5809 89.8393 32.6052C89.7808 32.6294 89.7276 32.6653 89.6829 32.7108C89.6382 32.7562 89.6029 32.8103 89.579 32.8698C89.5552 32.9293 89.5432 32.9931 89.544 33.0574C89.5438 33.1204 89.5558 33.1828 89.5794 33.2411C89.6031 33.2994 89.6378 33.3524 89.6816 33.397C89.7252 33.4446 89.7781 33.4824 89.8369 33.5079C89.8958 33.5335 89.9593 33.5462 90.0232 33.5452C90.0855 33.5454 90.1471 33.5323 90.2041 33.5068C90.2611 33.4813 90.3122 33.4438 90.354 33.397C90.3979 33.3524 90.4327 33.2994 90.4564 33.2412C90.4801 33.1829 90.4923 33.1204 90.4922 33.0574C90.4933 32.9931 90.4816 32.9292 90.4576 32.8697C90.4337 32.8101 90.3981 32.7562 90.3529 32.7111C90.3103 32.666 90.2591 32.6301 90.2024 32.6058C90.1457 32.5814 90.0853 32.5691 90.0238 32.5696Z" fill="#939CB7"/>
<path d="M97.0692 24.5831C97.1315 24.5833 97.1931 24.5702 97.25 24.5447C97.307 24.5192 97.3581 24.4818 97.3999 24.4349C97.4438 24.3903 97.4786 24.3374 97.5023 24.2791C97.526 24.2208 97.5382 24.1584 97.5381 24.0953C97.5392 24.031 97.5274 23.9672 97.5035 23.9077C97.4796 23.8481 97.4439 23.7942 97.3988 23.7491C97.3562 23.704 97.305 23.6682 97.2483 23.6439C97.1916 23.6196 97.1307 23.6072 97.0692 23.6075C97.006 23.6068 96.9433 23.619 96.8848 23.6433C96.8263 23.6676 96.7731 23.7035 96.7284 23.7489C96.6838 23.7943 96.6485 23.8484 96.6246 23.9079C96.6007 23.9673 96.5887 24.0311 96.5894 24.0953C96.5892 24.1584 96.6013 24.2208 96.6249 24.2791C96.6485 24.3373 96.6832 24.3903 96.727 24.4349C96.7706 24.4826 96.8235 24.5204 96.8823 24.546C96.9412 24.5715 97.0047 24.5842 97.0686 24.5831" fill="#939CB7"/>
<path d="M103.121 24.5831C103.216 24.5835 103.309 24.5548 103.388 24.5009C103.468 24.4469 103.529 24.3701 103.565 24.2804C103.601 24.1906 103.61 24.0919 103.59 23.9971C103.571 23.9022 103.524 23.8155 103.455 23.748C103.411 23.7033 103.359 23.668 103.302 23.6439C103.244 23.6198 103.183 23.6074 103.121 23.6075C103.057 23.6069 102.995 23.6191 102.936 23.6434C102.878 23.6677 102.825 23.7036 102.78 23.7491C102.735 23.7945 102.7 23.8485 102.676 23.9079C102.652 23.9674 102.64 24.0311 102.641 24.0953C102.641 24.1584 102.653 24.2209 102.677 24.2791C102.7 24.3374 102.735 24.3904 102.779 24.4349C102.823 24.4826 102.875 24.5204 102.934 24.546C102.993 24.5715 103.057 24.5842 103.121 24.5831Z" fill="#939CB7"/>
<path d="M106.19 23.6075C106.127 23.6068 106.064 23.619 106.005 23.6433C105.947 23.6676 105.894 23.7035 105.849 23.7489C105.804 23.7943 105.769 23.8484 105.745 23.9079C105.721 23.9673 105.709 24.0311 105.71 24.0953C105.71 24.1584 105.722 24.2208 105.745 24.2791C105.769 24.3374 105.804 24.3903 105.848 24.4349C105.891 24.4826 105.944 24.5204 106.003 24.546C106.062 24.5715 106.125 24.5842 106.189 24.5831C106.285 24.5835 106.378 24.5548 106.457 24.5009C106.536 24.4469 106.598 24.3701 106.634 24.2804C106.67 24.1906 106.678 24.0919 106.659 23.9971C106.639 23.9022 106.592 23.8155 106.524 23.748C106.48 23.7033 106.428 23.6679 106.37 23.6438C106.313 23.6197 106.252 23.6073 106.19 23.6075Z" fill="#939CB7"/>
<path d="M105.107 24.5831C105.171 24.5841 105.235 24.5714 105.294 24.5459C105.352 24.5204 105.405 24.4826 105.449 24.4349C105.493 24.3903 105.528 24.3374 105.551 24.2791C105.575 24.2208 105.587 24.1584 105.587 24.0953C105.588 24.0311 105.576 23.9673 105.552 23.9079C105.528 23.8484 105.493 23.7943 105.448 23.7489C105.403 23.7035 105.35 23.6676 105.292 23.6433C105.233 23.619 105.171 23.6068 105.107 23.6075C105.046 23.6071 104.985 23.6194 104.928 23.6438C104.871 23.6681 104.82 23.704 104.778 23.7491C104.733 23.7941 104.697 23.8481 104.673 23.9076C104.649 23.9671 104.637 24.031 104.638 24.0953C104.638 24.1584 104.65 24.2209 104.674 24.2791C104.698 24.3374 104.733 24.3903 104.777 24.4349C104.818 24.4818 104.869 24.5193 104.926 24.5448C104.983 24.5703 105.045 24.5834 105.107 24.5831Z" fill="#939CB7"/>
<path d="M105.797 30.1145C105.801 30.1783 105.793 30.2423 105.772 30.3026C105.751 30.363 105.719 30.4185 105.676 30.4657C105.584 30.5409 105.468 30.5782 105.35 30.5702H103.45C103.476 30.4835 103.49 30.3936 103.491 30.3031V26.0505H102.739V30.1145C102.746 30.2319 102.708 30.3476 102.634 30.438C102.59 30.4849 102.536 30.521 102.477 30.5439C102.417 30.5668 102.353 30.5758 102.29 30.5702H100.391C100.417 30.4835 100.431 30.3936 100.432 30.3031V28.672C100.446 28.2977 100.383 27.9245 100.248 27.576C100.113 27.2275 99.908 26.9112 99.6466 26.6472C99.1245 26.1572 98.4338 25.8956 97.7236 25.9188C96.9592 25.8977 96.2037 26.0889 95.5383 26.4719C94.6798 27.0689 93.9908 27.8848 93.5402 28.838V23.2076H92.7879V30.5702H90.4525C90.4782 30.4835 90.4918 30.3936 90.4927 30.3031V26.0505H89.7409V30.1145C89.7479 30.2319 89.7105 30.3476 89.6365 30.438C89.5925 30.4849 89.5387 30.521 89.4791 30.5439C89.4195 30.5668 89.3556 30.5758 89.2921 30.5702H87.8832C87.8243 30.5709 87.7659 30.5591 87.7117 30.5357C87.6575 30.5123 87.6086 30.4777 87.5682 30.4341C87.529 30.3915 87.4989 30.3411 87.4796 30.2861C87.4604 30.2311 87.4523 30.1727 87.4561 30.1145V27.9823C87.4766 27.6898 87.4334 27.3963 87.3293 27.1228C87.2253 26.8492 87.0632 26.6024 86.8545 26.4C86.4245 26.0641 85.89 25.8969 85.3487 25.9288C85.0237 25.9146 84.6993 25.9692 84.3962 26.0892C84.0931 26.2091 83.8178 26.3918 83.5878 26.6257C83.333 26.9082 83.1363 27.2397 83.0094 27.6006C82.8824 27.9615 82.8277 28.3446 82.8485 28.7273C82.8236 29.4047 83.0575 30.0655 83.5013 30.5713H82.9235C82.8023 30.5703 82.6823 30.5952 82.5711 30.6444C82.46 30.6935 82.3602 30.7659 82.2783 30.8567C82.1822 30.9457 82.1055 31.0541 82.0531 31.1751C82.0007 31.2961 81.9738 31.4269 81.9742 31.5591V35.4339H82.3675L82.7375 35.1331V31.7477C82.7375 31.4363 82.8767 31.2914 83.1727 31.2914H85.3683C85.6715 31.2987 85.9742 31.2614 86.2669 31.1808C86.472 31.1267 86.6693 31.0458 86.8539 30.9402L86.8795 30.9247C86.9629 31.0348 87.0701 31.124 87.1928 31.1852C87.326 31.2598 87.476 31.2979 87.628 31.2958H89.5396C89.6709 31.2954 89.8005 31.2662 89.9196 31.21C90.0386 31.1539 90.1443 31.0722 90.2294 30.9706L90.4563 31.2958H99.4791C99.6088 31.2955 99.737 31.2669 99.855 31.2119C99.9729 31.157 100.078 31.0769 100.163 30.9773L100.385 31.2958H102.537C102.669 31.2955 102.798 31.2663 102.918 31.2101C103.037 31.154 103.143 31.0723 103.228 30.9706L103.455 31.2958H105.607C105.728 31.2967 105.848 31.2718 105.959 31.2227C106.07 31.1737 106.17 31.1016 106.252 31.011C106.349 30.922 106.425 30.8135 106.478 30.6925C106.53 30.5715 106.557 30.4408 106.557 30.3086V26.0505H105.795L105.797 30.1145ZM86.6929 30.2428C86.3135 30.4639 85.8839 30.5807 85.4466 30.5818C84.2041 30.5818 83.5997 29.9734 83.5997 28.7152C83.5883 28.2294 83.7295 27.7526 84.0028 27.3541C84.1493 27.1296 84.3498 26.9469 84.5852 26.8235C84.8207 26.7001 85.0833 26.64 85.3481 26.6489C85.6829 26.6355 86.0114 26.7431 86.2756 26.9525C86.4124 27.0847 86.5202 27.2448 86.592 27.4222C86.6638 27.5997 86.698 27.7906 86.6923 27.9823L86.6929 30.2428ZM99.6695 30.1145C99.6794 30.1767 99.6747 30.2404 99.6556 30.3004C99.6366 30.3603 99.6038 30.4149 99.56 30.4594C99.5161 30.504 99.4625 30.5373 99.4035 30.5567C99.3445 30.576 99.2819 30.5808 99.2207 30.5707H93.5875C94.1604 28.8927 94.9389 27.723 95.9028 27.0941C96.4312 26.756 97.0455 26.583 97.6697 26.5963C97.9439 26.5826 98.2181 26.624 98.4765 26.718C98.735 26.812 98.9727 26.957 99.1761 27.1444C99.344 27.3173 99.4746 27.5238 99.5595 27.7508C99.6445 27.9778 99.6819 28.2204 99.6695 28.463V30.1145Z" fill="#939CB7"/>
<path d="M113.246 24.5831C113.31 24.5842 113.373 24.5715 113.432 24.546C113.491 24.5205 113.544 24.4826 113.587 24.4349C113.631 24.3904 113.666 24.3374 113.69 24.2791C113.713 24.2209 113.725 24.1584 113.725 24.0953C113.726 24.0311 113.714 23.9674 113.69 23.9079C113.666 23.8485 113.631 23.7945 113.586 23.7491C113.541 23.7036 113.488 23.6677 113.43 23.6434C113.371 23.6191 113.309 23.6069 113.246 23.6075C113.184 23.6071 113.123 23.6195 113.066 23.6438C113.01 23.6682 112.958 23.704 112.916 23.7491C112.827 23.8404 112.777 23.9637 112.777 24.0923C112.777 24.2208 112.827 24.3442 112.916 24.4355C112.958 24.4824 113.009 24.5198 113.066 24.5454C113.123 24.5709 113.184 24.5839 113.247 24.5837" fill="#939CB7"/>
<path d="M112.176 24.5831C112.271 24.5834 112.364 24.5546 112.443 24.5006C112.522 24.4467 112.584 24.3699 112.62 24.2801C112.655 24.1904 112.664 24.0917 112.645 23.9969C112.625 23.9021 112.578 23.8154 112.51 23.748C112.466 23.7034 112.414 23.668 112.356 23.6439C112.299 23.6198 112.238 23.6074 112.176 23.6075C112.112 23.6068 112.05 23.619 111.991 23.6433C111.933 23.6676 111.879 23.7035 111.835 23.7489C111.79 23.7943 111.755 23.8484 111.731 23.9079C111.707 23.9673 111.695 24.0311 111.696 24.0953C111.696 24.1584 111.708 24.2208 111.731 24.2791C111.755 24.3374 111.79 24.3903 111.833 24.4349C111.877 24.4826 111.93 24.5204 111.989 24.546C112.048 24.5715 112.111 24.5842 112.175 24.5831" fill="#939CB7"/>
<path d="M133.568 25.0245C133.814 24.9815 134.037 24.8512 134.197 24.6566C134.358 24.462 134.445 24.2159 134.444 23.962C134.451 23.7299 134.368 23.504 134.213 23.3338C134.139 23.2536 134.05 23.1901 133.951 23.1474C133.851 23.1047 133.744 23.0838 133.636 23.086C133.459 23.0928 133.288 23.1534 133.146 23.2599C133.003 23.3664 132.895 23.5139 132.836 23.6835C132.776 23.853 132.768 24.0368 132.812 24.2111C132.857 24.3853 132.951 24.5421 133.084 24.6611L131.996 24.9675V25.1888L132.192 25.4161L133.568 25.0245ZM133.625 23.5389C133.872 23.5389 133.987 23.6767 133.987 23.9731C133.986 24.0849 133.951 24.1938 133.887 24.2848C133.824 24.3758 133.734 24.4445 133.63 24.4814C133.521 24.4523 133.425 24.3861 133.358 24.2939C133.282 24.2003 133.241 24.0831 133.24 23.962C133.24 23.6733 133.362 23.5389 133.621 23.5389" fill="#939CB7"/>
<path d="M135.89 26.0505V30.1145C135.9 30.1767 135.895 30.2404 135.876 30.3004C135.857 30.3603 135.824 30.4149 135.781 30.4594C135.737 30.504 135.683 30.5373 135.624 30.5567C135.565 30.576 135.502 30.5808 135.441 30.5707H133.653C133.678 30.4841 133.692 30.3941 133.693 30.3036V26.6843H132.931V30.1133C132.941 30.1756 132.936 30.2393 132.917 30.2993C132.898 30.3592 132.866 30.4137 132.822 30.4583C132.778 30.5029 132.724 30.5362 132.665 30.5556C132.606 30.5749 132.544 30.5797 132.482 30.5696H130.706C130.731 30.483 130.745 30.393 130.745 30.3025V27.327H129.983V30.1133C129.993 30.1756 129.989 30.2393 129.969 30.2993C129.95 30.3592 129.918 30.4137 129.874 30.4583C129.83 30.5029 129.776 30.5362 129.717 30.5556C129.658 30.5749 129.596 30.5797 129.535 30.5696H126.664C126.69 30.483 126.704 30.393 126.705 30.3025V23.2076H125.953V30.1145C125.96 30.2319 125.922 30.3476 125.848 30.438C125.804 30.4849 125.751 30.521 125.691 30.5439C125.631 30.5668 125.567 30.5758 125.504 30.5702H123.605C123.631 30.4835 123.645 30.3936 123.646 30.3031V28.672C123.66 28.2977 123.597 27.9245 123.462 27.576C123.327 27.2275 123.122 26.9112 122.861 26.6472C122.339 26.1572 121.648 25.8956 120.938 25.9188C120.173 25.8977 119.418 26.0889 118.752 26.4719C117.893 27.0685 117.203 27.8845 116.752 28.838V23.2076H116V30.5702H114.164C114.106 30.5708 114.047 30.559 113.993 30.5356C113.939 30.5122 113.89 30.4776 113.85 30.4341C113.811 30.3914 113.781 30.3411 113.761 30.2861C113.742 30.2311 113.734 30.1727 113.738 30.1145V25.8397H113.333L113.018 26.1074C112.637 25.9462 112.229 25.863 111.816 25.8624C111.475 25.8537 111.135 25.9136 110.816 26.0388C110.497 26.164 110.206 26.352 109.959 26.5919C109.677 26.8713 109.456 27.2075 109.309 27.579C109.163 27.9504 109.094 28.349 109.108 28.7489C109.09 29.3911 109.287 30.0206 109.668 30.5331C109.887 30.822 110.17 31.0536 110.494 31.2087C110.818 31.3638 111.174 31.4379 111.532 31.4247C112.109 31.4155 112.672 31.2419 113.156 30.9236C113.247 31.0393 113.362 31.1326 113.493 31.1964C113.624 31.2601 113.768 31.2926 113.914 31.2914H122.695C122.825 31.2911 122.953 31.2624 123.071 31.2075C123.189 31.1525 123.294 31.0725 123.379 30.9728L123.601 31.2914H125.754C125.885 31.291 126.015 31.2618 126.134 31.2056C126.253 31.1495 126.358 31.0678 126.443 30.9662L126.67 31.2914H129.795C129.924 31.2912 130.053 31.2625 130.171 31.2075C130.289 31.1524 130.394 31.0722 130.479 30.9723L130.712 31.2914H132.746C132.876 31.2911 133.004 31.2625 133.122 31.2074C133.24 31.1524 133.346 31.0722 133.431 30.9723L133.663 31.2914H135.695C135.821 31.2921 135.945 31.266 136.061 31.2147C136.176 31.1635 136.279 31.0882 136.364 30.9938C136.454 30.9034 136.524 30.7958 136.572 30.6775C136.62 30.5591 136.645 30.4322 136.645 30.3042V26.0505H135.89ZM111.628 30.693C111.405 30.7008 111.184 30.6633 110.976 30.5827C110.768 30.502 110.578 30.3799 110.417 30.2234C110.234 30.0273 110.092 29.7954 110 29.5419C109.907 29.2884 109.866 29.0184 109.879 28.7484C109.868 28.2157 110.042 27.696 110.369 27.2799C110.552 27.0459 110.785 26.8582 111.051 26.7313C111.318 26.6045 111.609 26.542 111.903 26.5488C112.272 26.5506 112.635 26.6408 112.963 26.812L112.974 30.2749C112.565 30.5214 112.104 30.6647 111.63 30.693M122.881 30.1145C122.891 30.1767 122.887 30.2404 122.868 30.3004C122.848 30.3603 122.816 30.4149 122.772 30.4594C122.728 30.504 122.674 30.5373 122.615 30.5567C122.556 30.576 122.494 30.5808 122.433 30.5707H116.799C117.372 28.8927 118.15 27.723 119.114 27.0941C119.643 26.756 120.257 26.5829 120.881 26.5963C121.155 26.5826 121.429 26.624 121.688 26.718C121.946 26.8121 122.184 26.957 122.387 27.1444C122.555 27.3173 122.686 27.5238 122.771 27.7508C122.856 27.9778 122.893 28.2204 122.881 28.463L122.881 30.1145Z" fill="#939CB7"/>
<path d="M4.74205 38.686C4.74298 38.701 4.74057 38.7159 4.73498 38.7297L3.42285 43.4497C3.39644 43.5496 3.35157 43.6434 3.29066 43.7262C3.24099 43.7915 3.18063 43.8477 3.11222 43.8922C3.04914 43.9329 2.97897 43.9611 2.9055 43.9751C2.8362 43.9894 2.76569 43.9968 2.69498 43.9972C2.62551 43.9969 2.55626 43.9895 2.48826 43.9751C2.41504 43.9602 2.34503 43.9321 2.28154 43.8922C2.2115 43.8484 2.14977 43.7922 2.0993 43.7262C2.03863 43.6433 1.99396 43.5495 1.96765 43.4497L0.648992 38.7297C0.643402 38.7159 0.640984 38.701 0.64192 38.686C0.641066 38.6693 0.643837 38.6525 0.65004 38.6369C0.656243 38.6213 0.665727 38.6073 0.677824 38.5959C0.703379 38.5733 0.736498 38.5617 0.770304 38.5633H1.18592C1.21518 38.5635 1.24322 38.5752 1.26426 38.5959C1.28733 38.6163 1.3046 38.6427 1.3143 38.6722L2.55517 43.2899C2.58346 43.3913 2.63097 43.442 2.6977 43.442C2.75971 43.442 2.8065 43.3911 2.83315 43.2899L4.08109 38.6722C4.09026 38.6434 4.10612 38.6172 4.12733 38.5959C4.13693 38.5854 4.14856 38.5772 4.16148 38.5715C4.17441 38.5659 4.18834 38.5631 4.2024 38.5633H4.62291C4.63928 38.5612 4.65588 38.563 4.67148 38.5684C4.68708 38.5739 4.70125 38.5828 4.71294 38.5947C4.72462 38.6065 4.73351 38.6209 4.73893 38.6367C4.74435 38.6525 4.74616 38.6694 4.74422 38.686" fill="#939CB7"/>
<path d="M6.26033 43.8042C6.26093 43.8414 6.24838 43.8775 6.22497 43.906C6.2138 43.92 6.1996 43.9313 6.18347 43.9389C6.16734 43.9464 6.14971 43.9501 6.13195 43.9497H5.74027C5.7225 43.9502 5.70486 43.9465 5.68872 43.9389C5.67259 43.9313 5.65839 43.9201 5.64725 43.906C5.62375 43.8775 5.61119 43.8414 5.61188 43.8042V38.7004C5.61077 38.6644 5.62344 38.6293 5.64725 38.6025C5.65892 38.5894 5.6733 38.579 5.68938 38.5721C5.70546 38.5652 5.72284 38.562 5.74027 38.5627H6.13249C6.14992 38.562 6.16728 38.5652 6.18336 38.5721C6.19943 38.579 6.21382 38.5894 6.22552 38.6025C6.24922 38.6294 6.26188 38.6644 6.26088 38.7004L6.26033 43.8042Z" fill="#939CB7"/>
<path d="M11.066 43.8551C11.0678 43.868 11.0667 43.881 11.0626 43.8934C11.0586 43.9057 11.0518 43.9169 11.0428 43.9261C11.0338 43.9352 11.0227 43.9422 11.0106 43.9463C10.9985 43.9504 10.9856 43.9515 10.973 43.9497H10.5166C10.4818 43.9505 10.447 43.9468 10.4132 43.9386C10.3871 43.9312 10.3597 43.9034 10.3311 43.8551L9.05483 41.6948H8.86933C8.75019 41.6948 8.63759 41.6948 8.53096 41.6909C8.42434 41.687 8.27528 41.6826 8.08542 41.6727V43.8042C8.08597 43.8414 8.07321 43.8776 8.04952 43.906C8.03835 43.92 8.02415 43.9313 8.00802 43.9389C7.99189 43.9464 7.97426 43.9501 7.9565 43.9497H7.57135C7.55367 43.9501 7.53613 43.9464 7.5201 43.9388C7.50406 43.9312 7.48995 43.92 7.47886 43.906C7.45537 43.8775 7.44281 43.8414 7.4435 43.8042V38.7292C7.44166 38.7093 7.44385 38.6892 7.44993 38.6702C7.45601 38.6511 7.46586 38.6336 7.47886 38.6186C7.51908 38.5909 7.56585 38.5747 7.61432 38.5716C7.68994 38.5616 7.77752 38.5533 7.88142 38.5461C7.98533 38.5389 8.09086 38.5328 8.20238 38.5279C8.3139 38.5229 8.42706 38.5196 8.5413 38.5168C8.65554 38.514 8.76488 38.5129 8.8677 38.5129C9.13246 38.5115 9.39665 38.5382 9.65595 38.5926C9.88173 38.638 10.097 38.7266 10.2903 38.8536C10.4682 38.9741 10.613 39.1388 10.7108 39.332C10.82 39.5625 10.8727 39.8164 10.8642 40.0721V40.1224C10.8668 40.3083 10.8391 40.4933 10.782 40.6699C10.7314 40.8247 10.6528 40.9686 10.5503 41.0941C10.4496 41.2156 10.329 41.3185 10.194 41.3983C10.0533 41.4816 9.90212 41.5451 9.74462 41.5869L11.0426 43.7904C11.0552 43.8099 11.0625 43.8324 11.0638 43.8556M10.2223 40.0715C10.2377 39.9261 10.214 39.7792 10.1538 39.6464C10.0935 39.5137 9.99891 39.4 9.88008 39.3177C9.56661 39.1579 9.21716 39.0852 8.86715 39.1069H8.67784C8.60658 39.1069 8.53422 39.1069 8.46024 39.1108L8.24971 39.118C8.18334 39.118 8.12894 39.1241 8.08651 39.1285V41.1146C8.24318 41.1194 8.39297 41.1229 8.53586 41.1251C8.67838 41.1251 8.78991 41.129 8.87096 41.129C9.06582 41.131 9.26046 41.1151 9.4525 41.0814C9.60344 41.0572 9.74787 41.0017 9.87682 40.9183C9.99017 40.8422 10.0804 40.7355 10.1374 40.6102C10.202 40.4556 10.2324 40.2886 10.2266 40.1207L10.2223 40.0715Z" fill="#939CB7"/>
<path d="M14.9958 39.0074C14.9958 39.0837 14.9507 39.1218 14.8604 39.1218H13.4699V43.8048C13.4706 43.8419 13.458 43.878 13.4345 43.9065C13.4234 43.9206 13.4092 43.9318 13.393 43.9394C13.3769 43.9469 13.3593 43.9507 13.3415 43.9502H12.9493C12.9316 43.9506 12.9141 43.9469 12.898 43.9393C12.882 43.9317 12.8679 43.9205 12.8568 43.9065C12.8333 43.878 12.8208 43.8419 12.8215 43.8048V39.1218H11.4304C11.3951 39.1227 11.3602 39.1129 11.3303 39.0936C11.3164 39.0845 11.305 39.0717 11.2975 39.0567C11.2899 39.0416 11.2865 39.0248 11.2874 39.0079V38.6932C11.2869 38.6753 11.2906 38.6576 11.298 38.6413C11.3055 38.6251 11.3166 38.6109 11.3303 38.5997C11.3586 38.5764 11.394 38.5638 11.4304 38.5643H14.8576C14.948 38.5643 14.9931 38.6075 14.9931 38.6932L14.9958 39.0074Z" fill="#939CB7"/>
<path d="M19.4382 41.9923C19.4614 42.2659 19.4306 42.5415 19.3478 42.8028C19.2649 43.0642 19.1316 43.3061 18.9557 43.5144C18.5743 43.8288 18.0982 44.0004 17.6071 44.0004C17.1161 44.0004 16.6399 43.8288 16.2585 43.5144C16.0839 43.3054 15.9517 43.0633 15.8696 42.802C15.7875 42.5408 15.7572 42.2656 15.7804 41.9923V38.701C15.78 38.6828 15.7833 38.6647 15.7901 38.6478C15.7969 38.631 15.8071 38.6157 15.8201 38.6031C15.8328 38.5901 15.848 38.5798 15.8647 38.573C15.8815 38.5661 15.8994 38.5628 15.9174 38.5633H16.3064C16.3245 38.5628 16.3424 38.5661 16.3591 38.5729C16.3759 38.5798 16.3911 38.59 16.4038 38.6031C16.4167 38.6158 16.4269 38.6312 16.4338 38.6481C16.4406 38.665 16.4439 38.6832 16.4435 38.7015V41.9973C16.4404 42.2055 16.4587 42.4135 16.4979 42.6179C16.5285 42.7821 16.5952 42.9372 16.6932 43.0714C16.7871 43.1938 16.9109 43.2891 17.0522 43.3479C17.4104 43.4735 17.7995 43.4735 18.1576 43.3479C18.3005 43.29 18.4257 43.1946 18.5205 43.0714C18.6182 42.9382 18.685 42.7843 18.7158 42.6212C18.7554 42.4158 18.7736 42.2066 18.7702 41.9973V38.7015C18.7697 38.6832 18.773 38.665 18.7799 38.6481C18.7867 38.6311 18.7969 38.6158 18.8099 38.6031C18.8225 38.5901 18.8376 38.5798 18.8543 38.573C18.8709 38.5662 18.8888 38.5628 18.9067 38.5633H19.2962C19.3143 38.5628 19.3322 38.5661 19.349 38.573C19.3657 38.5798 19.3809 38.5901 19.3936 38.6031C19.4065 38.6157 19.4167 38.631 19.4235 38.6478C19.4304 38.6647 19.4337 38.6828 19.4333 38.701L19.4382 41.9923Z" fill="#939CB7"/>
<path d="M24.0872 43.8335C24.0872 43.911 24.0469 43.9497 23.9664 43.9497H23.5453C23.5307 43.9505 23.5161 43.9481 23.5025 43.9424C23.489 43.9368 23.4768 43.9281 23.467 43.917C23.4476 43.8949 23.433 43.8689 23.424 43.8407L22.9611 42.1732H21.1142L20.6578 43.8407C20.648 43.8702 20.6308 43.8965 20.6077 43.917C20.5867 43.9377 20.5587 43.9494 20.5294 43.9497H20.1089C20.0278 43.9497 19.9876 43.911 19.9876 43.8335C19.9864 43.8164 19.9888 43.7993 19.9947 43.7832L21.3139 39.0632C21.3364 38.9649 21.3788 38.8725 21.4384 38.7917C21.4887 38.7258 21.5503 38.6696 21.6201 38.6258C21.6852 38.5855 21.7563 38.5562 21.8307 38.5389C21.8997 38.5227 21.9703 38.5142 22.0412 38.5135C22.1106 38.5138 22.1799 38.5212 22.2479 38.5356C22.3211 38.5506 22.3911 38.5787 22.4546 38.6186C22.5243 38.6626 22.5858 38.7188 22.6363 38.7845C22.6959 38.8652 22.7384 38.9577 22.7609 39.0561L24.0801 43.7832C24.0858 43.7993 24.0882 43.8164 24.0872 43.8335ZM22.1761 39.2159C22.1525 39.1289 22.1074 39.0854 22.0406 39.0854C21.9739 39.0854 21.9264 39.1289 21.8981 39.2159L21.2497 41.6013H22.8273L22.1761 39.2159Z" fill="#939CB7"/>
<path d="M27.7026 43.8335C27.7029 43.8566 27.6966 43.8792 27.6846 43.8988C27.6787 43.9085 27.6708 43.9168 27.6614 43.923C27.652 43.9292 27.6414 43.9332 27.6302 43.9348C27.5352 43.9495 27.3642 43.9641 27.1173 43.9785C26.8703 43.9928 26.578 44.0002 26.2403 44.0006C26.0529 44.0006 25.8658 43.986 25.6805 43.9569C25.5062 43.9312 25.3393 43.8681 25.1909 43.7716C25.0426 43.6705 24.9243 43.5301 24.8488 43.3656C24.7538 43.1404 24.7099 42.8964 24.7204 42.6516V38.7104C24.7212 38.6722 24.7365 38.6359 24.7631 38.6089C24.7896 38.5819 24.8254 38.5663 24.8629 38.5655H25.2268C25.2643 38.5665 25.3 38.582 25.3266 38.609C25.3531 38.636 25.3684 38.6723 25.3694 38.7104V42.6538C25.3673 42.7719 25.378 42.8899 25.4015 43.0056C25.4195 43.0939 25.4628 43.1747 25.5261 43.2379C25.6006 43.3051 25.6918 43.3503 25.7899 43.3684C25.9401 43.3985 26.0932 43.4119 26.2463 43.4082H27.6221C27.6747 43.4082 27.7008 43.4372 27.7004 43.4951L27.7026 43.8335Z" fill="#939CB7"/>
<path d="M33.8988 43.8335C33.8988 43.911 33.8586 43.9497 33.778 43.9497H33.357C33.3424 43.9505 33.3277 43.9481 33.3142 43.9424C33.3006 43.9368 33.2885 43.9281 33.2787 43.917C33.2593 43.8949 33.2447 43.8689 33.2357 43.8407L32.7727 42.1732H30.9259L30.4694 43.8407C30.4597 43.8702 30.4424 43.8965 30.4194 43.917C30.3984 43.9377 30.3703 43.9494 30.3411 43.9497H29.9205C29.8395 43.9497 29.7992 43.911 29.7992 43.8335C29.7981 43.8164 29.8005 43.7993 29.8063 43.7832L31.1255 39.0632C31.1481 38.9649 31.1905 38.8725 31.2501 38.7917C31.3004 38.7258 31.3619 38.6696 31.4318 38.6258C31.4969 38.5855 31.568 38.5562 31.6423 38.5389C31.7114 38.5227 31.782 38.5142 31.8528 38.5135C31.9223 38.5138 31.9915 38.5212 32.0596 38.5356C32.1327 38.5506 32.2027 38.5787 32.2663 38.6186C32.3359 38.6626 32.3974 38.7188 32.448 38.7845C32.5076 38.8652 32.55 38.9577 32.5725 39.0561L33.8917 43.7832C33.8975 43.7993 33.8999 43.8164 33.8988 43.8335ZM31.9877 39.2159C31.9638 39.1289 31.9187 39.0854 31.8523 39.0854C31.7859 39.0854 31.7384 39.1289 31.7098 39.2159L31.0613 41.6013H32.6389L31.9877 39.2159Z" fill="#939CB7"/>
<path d="M37.5566 42.5504C37.5563 42.7274 37.5299 42.9034 37.4783 43.0725C37.4255 43.2481 37.3323 43.4083 37.2063 43.5399C37.054 43.6905 36.87 43.804 36.6683 43.8717C36.3874 43.9645 36.093 44.0075 35.7979 43.9989C35.5764 44.0005 35.355 43.9896 35.1347 43.9663C34.9447 43.9445 34.7713 43.9215 34.6147 43.8972C34.5728 43.8962 34.5325 43.8808 34.5004 43.8535C34.4843 43.8276 34.4769 43.7971 34.4792 43.7666V43.4763C34.478 43.46 34.4806 43.4437 34.4867 43.4286C34.4929 43.4135 34.5024 43.4001 34.5146 43.3894C34.5389 43.3701 34.5691 43.3599 34.6 43.3607H34.6217C34.7022 43.3706 34.7936 43.3773 34.8937 43.3822C34.9938 43.3872 35.1005 43.3911 35.2076 43.3928L35.5215 43.3999C35.6234 43.4025 35.7141 43.4038 35.7935 43.4038C35.9726 43.4081 36.1514 43.3875 36.325 43.3424C36.4471 43.311 36.5605 43.2513 36.6563 43.1682C36.7362 43.0948 36.7954 43.0011 36.8276 42.8966C36.8619 42.7838 36.8788 42.6663 36.8777 42.5482C36.8788 42.4629 36.8642 42.3781 36.8347 42.2982C36.8016 42.2159 36.7532 42.1408 36.6922 42.077C36.6116 41.9926 36.5233 41.9163 36.4284 41.8491C36.3196 41.7691 36.1841 41.6784 36.022 41.577L35.33 41.1495C35.052 40.989 34.8027 40.782 34.5924 40.5372C34.4264 40.3268 34.3391 40.0635 34.3459 39.7939C34.3324 39.6067 34.3663 39.4192 34.4444 39.2491C34.5225 39.0791 34.6422 38.9323 34.792 38.8227C35.1737 38.5926 35.6144 38.4841 36.0573 38.5113C36.1623 38.5113 36.2749 38.5113 36.3892 38.5185C36.5034 38.5257 36.6198 38.529 36.7314 38.5367C36.8429 38.5445 36.949 38.5539 37.0485 38.5655C37.1481 38.5771 37.2318 38.5893 37.2982 38.5981C37.3787 38.6125 37.4195 38.6534 37.4195 38.7215V39.0328C37.4195 39.1097 37.3787 39.1484 37.2982 39.1484H37.2841C37.127 39.1392 36.9357 39.1296 36.7101 39.1197C36.4846 39.1097 36.267 39.1047 36.0573 39.1047C35.7824 39.0854 35.507 39.1352 35.2555 39.2497C35.1692 39.3085 35.1005 39.3903 35.0571 39.4863C35.0136 39.5822 34.997 39.6884 35.0091 39.7933C35.0087 39.876 35.0249 39.9578 35.0567 40.0339C35.0885 40.11 35.1352 40.1787 35.194 40.2358C35.3736 40.4036 35.5716 40.5497 35.7843 40.6711L36.4371 41.0693C36.6175 41.1787 36.7908 41.2997 36.956 41.4315C37.0846 41.534 37.2014 41.6509 37.3042 41.78C37.3899 41.8875 37.455 42.0104 37.4962 42.1422C37.5341 42.2741 37.5524 42.4109 37.5506 42.5482" fill="#939CB7"/>
<path d="M41.4784 42.5504C41.478 42.7274 41.4516 42.9034 41.4 43.0725C41.3473 43.2481 41.254 43.4083 41.128 43.5399C40.9758 43.6905 40.7918 43.804 40.59 43.8717C40.3092 43.9645 40.0148 44.0075 39.7196 43.9989C39.4981 44.0006 39.2767 43.9896 39.0565 43.9663C38.8664 43.9445 38.6929 43.9215 38.5359 43.8972C38.494 43.8962 38.4537 43.8808 38.4216 43.8535C38.4055 43.8276 38.3981 43.7971 38.4004 43.7666V43.4763C38.3992 43.46 38.4018 43.4437 38.4079 43.4286C38.4141 43.4135 38.4236 43.4001 38.4358 43.3894C38.4601 43.3701 38.4903 43.3599 38.5212 43.3607H38.5429C38.6234 43.3706 38.7154 43.3773 38.8149 43.3822C38.9145 43.3872 39.0217 43.3911 39.1288 43.3928L39.4427 43.3999C39.5446 43.4025 39.6353 43.4038 39.7147 43.4038C39.8938 43.4081 40.0726 43.3875 40.2462 43.3424C40.3683 43.3109 40.4817 43.2513 40.5775 43.1682C40.6574 43.0948 40.7165 43.0011 40.7489 42.8966C40.7829 42.7838 40.7996 42.6662 40.7984 42.5482C40.7994 42.4629 40.7848 42.3781 40.7554 42.2982C40.7222 42.2159 40.6738 42.1408 40.6129 42.077C40.5323 41.9926 40.4439 41.9163 40.349 41.8491C40.2402 41.7691 40.1048 41.6784 39.9426 41.577L39.2507 41.1495C38.9727 40.989 38.7233 40.782 38.513 40.5372C38.347 40.3268 38.2597 40.0635 38.2666 39.7939C38.253 39.6067 38.2869 39.4192 38.365 39.2491C38.4431 39.0791 38.5628 38.9323 38.7127 38.8227C39.0943 38.5926 39.5351 38.4841 39.978 38.5113C40.0828 38.5113 40.1934 38.5137 40.3098 38.5185C40.4263 38.5235 40.5405 38.529 40.652 38.5367C40.7635 38.5445 40.8696 38.5539 40.9692 38.5655C41.0687 38.5771 41.1525 38.5893 41.2189 38.5981C41.2994 38.6125 41.3402 38.6534 41.3402 38.7215V39.0328C41.3402 39.1097 41.2994 39.1484 41.2189 39.1484H41.2047C41.048 39.1392 40.8567 39.1296 40.6308 39.1197C40.4049 39.1097 40.1873 39.1047 39.978 39.1047C39.7031 39.0854 39.4277 39.1352 39.1761 39.2497C39.0899 39.3085 39.0212 39.3903 38.9777 39.4863C38.9342 39.5822 38.9176 39.6884 38.9297 39.7933C38.9294 39.876 38.9456 39.9578 38.9774 40.0339C39.0092 40.11 39.0559 40.1787 39.1147 40.2358C39.2942 40.4036 39.4923 40.5497 39.7049 40.6711L40.3577 41.0693C40.5381 41.1786 40.7115 41.2996 40.8767 41.4315C41.0054 41.5341 41.1224 41.6509 41.2254 41.78C41.311 41.8875 41.3762 42.0104 41.4174 42.1422C41.4553 42.2741 41.4736 42.4109 41.4718 42.5482" fill="#939CB7"/>
<path d="M45.3717 43.8628C45.372 43.8857 45.3657 43.9082 45.3538 43.9275C45.3478 43.9372 45.3399 43.9455 45.3305 43.9518C45.3211 43.9581 45.3105 43.9623 45.2994 43.964C45.2091 43.9752 45.1183 43.9813 45.0274 43.9823C44.9131 43.9849 44.7907 43.9885 44.6602 43.9933C44.5296 43.9981 44.3976 44.0005 44.2641 44.0005H43.9078C43.5049 44.0302 43.104 43.9205 42.7703 43.6891C42.6331 43.5574 42.5274 43.3954 42.4614 43.2156C42.3954 43.0358 42.3708 42.8431 42.3895 42.6521V39.8607C42.3708 39.6698 42.3955 39.4771 42.4615 39.2973C42.5275 39.1175 42.6331 38.9555 42.7703 38.8237C43.104 38.5924 43.5049 38.4826 43.9078 38.5123C44.0122 38.5123 44.1298 38.5123 44.2609 38.5162L44.6493 38.5228C44.7777 38.5256 44.899 38.53 45.0132 38.5372L45.2983 38.5555C45.3093 38.5573 45.3198 38.5614 45.3292 38.5676C45.3386 38.5738 45.3466 38.5819 45.3527 38.5914C45.3645 38.6111 45.3708 38.6337 45.3706 38.6567V39.019C45.3706 39.0768 45.3445 39.1058 45.2923 39.1058H43.9165C43.7634 39.1023 43.6104 39.1157 43.4601 39.1456C43.3621 39.1641 43.271 39.2092 43.1963 39.2761C43.1325 39.3405 43.0891 39.4227 43.0717 39.5123C43.0485 39.6267 43.0378 39.7434 43.0396 39.8602V40.8679H45.2286C45.2473 40.8679 45.2658 40.8717 45.283 40.8791C45.3002 40.8865 45.3158 40.8974 45.3287 40.911C45.3424 40.9239 45.3532 40.9395 45.3606 40.9568C45.368 40.9741 45.3718 40.9928 45.3717 41.0117V41.2833C45.3718 41.3021 45.368 41.3207 45.3606 41.3379C45.3532 41.3552 45.3424 41.3706 45.3287 41.3834C45.3158 41.3971 45.3003 41.408 45.283 41.4154C45.2658 41.4228 45.2473 41.4266 45.2286 41.4265H43.0423V42.6488C43.0402 42.7673 43.051 42.8856 43.0744 43.0017C43.0923 43.0901 43.1357 43.1712 43.199 43.2345C43.2736 43.3017 43.3648 43.347 43.4628 43.3656C43.6131 43.3957 43.7661 43.4091 43.9192 43.4054H45.295C45.3494 43.4054 45.3733 43.4342 45.3733 43.4922L45.3717 43.8628Z" fill="#939CB7"/>
<path d="M49.7216 39.0074C49.7216 39.0837 49.6764 39.1218 49.5861 39.1218H48.1957V43.8048C48.1964 43.8419 48.1838 43.878 48.1603 43.9065C48.1491 43.9206 48.1349 43.9318 48.1188 43.9394C48.1027 43.9469 48.0851 43.9507 48.0673 43.9502H47.6751C47.6574 43.9506 47.6399 43.9469 47.6238 43.9393C47.6078 43.9317 47.5937 43.9205 47.5826 43.9065C47.5591 43.878 47.5465 43.8419 47.5472 43.8048V39.1218H46.1568C46.1214 39.1227 46.0865 39.1129 46.0567 39.0936C46.0427 39.0844 46.0314 39.0717 46.0239 39.0566C46.0163 39.0416 46.0128 39.0248 46.0137 39.0079V38.6932C46.0132 38.6753 46.0169 38.6576 46.0243 38.6413C46.0318 38.6251 46.0429 38.6109 46.0567 38.5997C46.0849 38.5764 46.1203 38.5638 46.1568 38.5643H49.584C49.6743 38.5643 49.7194 38.6075 49.7194 38.6932L49.7216 39.0074Z" fill="#939CB7"/>
<path d="M53.5361 42.5504C53.5358 42.7274 53.5094 42.9034 53.4578 43.0725C53.405 43.248 53.3117 43.4083 53.1858 43.5398C53.0335 43.6905 52.8495 43.804 52.6478 43.8717C52.3669 43.9645 52.0725 44.0075 51.7774 43.9989C51.5559 44.0005 51.3345 43.9896 51.1142 43.9662C50.9242 43.9445 50.7506 43.9214 50.5936 43.8971C50.5518 43.8961 50.5115 43.8807 50.4794 43.8534C50.4633 43.8275 50.4559 43.7971 50.4581 43.7666V43.4762C50.457 43.4599 50.4596 43.4436 50.4657 43.4285C50.4718 43.4135 50.4814 43.4 50.4935 43.3894C50.5179 43.3701 50.548 43.3599 50.5789 43.3606H50.6007C50.6812 43.3706 50.7726 43.3772 50.8727 43.3822C50.9728 43.3872 51.0794 43.391 51.1866 43.3927L51.5005 43.3999C51.6024 43.4025 51.693 43.4038 51.7725 43.4038C51.9515 43.4081 52.1304 43.3874 52.3039 43.3424C52.4261 43.3109 52.5394 43.2513 52.6352 43.1681C52.7151 43.0947 52.7742 43.001 52.8066 42.8966C52.8406 42.7837 52.8573 42.6662 52.8561 42.5481C52.8586 42.4609 52.8434 42.3741 52.8116 42.2931C52.7798 42.212 52.732 42.1385 52.6712 42.0769C52.5906 41.9926 52.5022 41.9163 52.4073 41.8491C52.2985 41.769 52.1631 41.6784 52.0009 41.577L51.3095 41.1494C51.0315 40.989 50.7821 40.782 50.5718 40.5372C50.4058 40.3268 50.3185 40.0634 50.3254 39.7938C50.3119 39.6067 50.3458 39.4191 50.4239 39.2491C50.502 39.079 50.6217 38.9322 50.7715 38.8226C51.1532 38.5925 51.5939 38.484 52.0368 38.5112C52.1413 38.5112 52.2519 38.5136 52.3687 38.5184C52.4851 38.5234 52.5993 38.5289 52.7109 38.5367C52.8224 38.5444 52.9284 38.5538 53.028 38.5655C53.1276 38.5771 53.2113 38.5892 53.2777 38.5981C53.3582 38.6125 53.399 38.6534 53.399 38.7214V39.0328C53.399 39.1099 53.3586 39.1484 53.2777 39.1484H53.2636C53.1065 39.1392 52.9152 39.1296 52.6896 39.1196C52.4641 39.1097 52.2465 39.1047 52.0368 39.1047C51.7619 39.0854 51.4865 39.1351 51.235 39.2496C51.1486 39.3084 51.0799 39.3902 51.0365 39.4862C50.993 39.5821 50.9764 39.6884 50.9885 39.7933C50.988 39.876 51.0041 39.9579 51.0359 40.034C51.0678 40.1101 51.1146 40.1787 51.1735 40.2357C51.353 40.4036 51.5511 40.5496 51.7638 40.671L52.4165 41.0692C52.597 41.1786 52.7703 41.2996 52.9355 41.4315C53.0642 41.534 53.1812 41.6509 53.2842 41.7799C53.3699 41.8875 53.435 42.0103 53.4763 42.1422C53.5142 42.274 53.5325 42.4108 53.5307 42.5481" fill="#939CB7"/>
<path d="M59.8318 43.8551C59.8337 43.868 59.8325 43.8811 59.8285 43.8934C59.8244 43.9057 59.8177 43.9169 59.8086 43.9261C59.7996 43.9352 59.7886 43.9422 59.7765 43.9463C59.7643 43.9504 59.7515 43.9515 59.7388 43.9497H59.2824C59.2476 43.9506 59.2129 43.9468 59.179 43.9386C59.1529 43.9312 59.1255 43.9034 59.0969 43.8551L57.8207 41.6948H57.6352C57.516 41.6948 57.4034 41.6948 57.2968 41.6909C57.1902 41.687 57.0411 41.6826 56.8513 41.6727V43.8042C56.8518 43.8414 56.839 43.8776 56.8154 43.906C56.8042 43.92 56.79 43.9313 56.7739 43.9389C56.7577 43.9464 56.7401 43.9501 56.7223 43.9497H56.3372C56.3195 43.95 56.302 43.9463 56.286 43.9387C56.2699 43.9311 56.2558 43.92 56.2447 43.906C56.2212 43.8775 56.2087 43.8414 56.2094 43.8042V38.7292C56.2075 38.7093 56.2097 38.6892 56.2158 38.6702C56.2219 38.6512 56.2317 38.6336 56.2447 38.6186C56.2849 38.5909 56.3317 38.5747 56.3802 38.5716C56.4558 38.5616 56.5434 38.5533 56.6473 38.5461C56.7512 38.5389 56.8567 38.5328 56.9682 38.5279C57.0798 38.5229 57.1929 38.5196 57.3071 38.5168C57.4214 38.514 57.5307 38.5129 57.6335 38.5129C57.8983 38.5115 58.1625 38.5382 58.4218 38.5926C58.6476 38.638 58.8628 38.7266 59.0561 38.8536C59.2341 38.9741 59.3788 39.1388 59.4766 39.332C59.5859 39.5625 59.6385 39.8164 59.63 40.0721V40.1224C59.6327 40.3083 59.6049 40.4933 59.5479 40.6699C59.4972 40.8247 59.4186 40.9686 59.3161 41.0941C59.2154 41.2156 59.0949 41.3185 58.9598 41.3983C58.8191 41.4816 58.668 41.5451 58.5105 41.5869L59.8085 43.7904C59.821 43.8099 59.8284 43.8324 59.8297 43.8556M58.9881 40.0715C59.0035 39.9261 58.9799 39.7792 58.9196 39.6464C58.8593 39.5137 58.7647 39.4 58.6459 39.3177C58.3324 39.1579 57.983 39.0852 57.633 39.1069H57.4404C57.3692 39.1069 57.2968 39.1069 57.2228 39.1108L57.0123 39.118C56.9459 39.118 56.8915 39.1241 56.8491 39.1285V41.1146C57.0058 41.1194 57.1555 41.1229 57.2984 41.1251C57.4413 41.1273 57.553 41.1286 57.6335 41.129C57.8284 41.131 58.023 41.1151 58.2151 41.0814C58.366 41.0572 58.5105 41.0017 58.6394 40.9183C58.7527 40.8422 58.843 40.7355 58.9 40.6102C58.9645 40.4556 58.995 40.2886 58.9892 40.1207L58.9881 40.0715Z" fill="#939CB7"/>
<path d="M63.6475 43.8628C63.6477 43.8857 63.6415 43.9081 63.6295 43.9275C63.6236 43.9372 63.6156 43.9455 63.6062 43.9518C63.5968 43.9581 63.5862 43.9623 63.5751 43.964C63.4848 43.9752 63.394 43.9813 63.3031 43.9823C63.1889 43.9849 63.0665 43.9885 62.9359 43.9933C62.8053 43.9981 62.6733 44.0005 62.5399 44.0005H62.1835C61.7807 44.0302 61.3798 43.9205 61.046 43.6891C60.9088 43.5574 60.8032 43.3954 60.7372 43.2156C60.6712 43.0358 60.6466 42.8431 60.6653 42.6521V39.8607C60.6466 39.6698 60.6712 39.4771 60.7372 39.2973C60.8032 39.1175 60.9089 38.9555 61.046 38.8237C61.3798 38.5924 61.7807 38.4826 62.1835 38.5123C62.288 38.5123 62.4055 38.5123 62.5366 38.5162L62.925 38.5228C63.0534 38.5256 63.1747 38.53 63.289 38.5372L63.574 38.5555C63.585 38.5573 63.5956 38.5614 63.605 38.5676C63.6143 38.5738 63.6223 38.5819 63.6284 38.5914C63.6403 38.6111 63.6465 38.6337 63.6464 38.6567V39.019C63.6464 39.0768 63.6203 39.1058 63.568 39.1058H62.1923C62.0392 39.1023 61.8861 39.1157 61.7358 39.1456C61.6379 39.1641 61.5467 39.2092 61.472 39.2761C61.4082 39.3405 61.3649 39.4227 61.3474 39.5123C61.3243 39.6267 61.3135 39.7434 61.3153 39.8602V40.8679H63.5044C63.5231 40.8679 63.5415 40.8717 63.5587 40.8791C63.5759 40.8865 63.5915 40.8974 63.6045 40.911C63.6181 40.9239 63.629 40.9395 63.6364 40.9568C63.6437 40.9741 63.6475 40.9928 63.6475 41.0117V41.2833C63.6476 41.3021 63.6438 41.3207 63.6364 41.3379C63.629 41.3552 63.6181 41.3706 63.6045 41.3834C63.5915 41.3971 63.576 41.408 63.5588 41.4154C63.5416 41.4228 63.5231 41.4266 63.5044 41.4265H61.3153V42.6488C61.3132 42.7673 61.324 42.8856 61.3474 43.0017C61.3653 43.0901 61.4087 43.1712 61.472 43.2345C61.5467 43.3017 61.6378 43.347 61.7358 43.3656C61.8861 43.3957 62.0392 43.4091 62.1923 43.4054H63.568C63.6224 43.4054 63.6464 43.4342 63.6464 43.4922L63.6475 43.8628Z" fill="#939CB7"/>
<path d="M67.8471 43.729C67.8494 43.7482 67.8479 43.7677 67.8426 43.7863C67.8373 43.8049 67.8284 43.8223 67.8165 43.8373C67.8045 43.8524 67.7897 43.8648 67.7729 43.874C67.7561 43.8831 67.7377 43.8887 67.7188 43.8905C67.5429 43.92 67.3468 43.9456 67.1307 43.9674C66.9145 43.9892 66.6376 44.0002 66.3 44.0006C66.0728 43.9998 65.8474 43.9594 65.6336 43.8811C65.41 43.7994 65.2076 43.667 65.0417 43.494C64.8538 43.2949 64.7093 43.0578 64.6174 42.7982C64.5 42.4597 64.4446 42.1022 64.4542 41.7435V40.7723C64.4432 40.3998 64.5011 40.0285 64.625 39.6777C64.7211 39.4159 64.872 39.1785 65.0673 38.982C65.2405 38.8126 65.4505 38.6871 65.6804 38.6158C65.9022 38.5469 66.1328 38.5115 66.3647 38.5107C66.6973 38.5107 66.9718 38.5216 67.1884 38.5434C67.406 38.5649 67.5817 38.5882 67.7198 38.612C67.7499 38.6159 67.7789 38.6256 67.8052 38.6407C67.8178 38.6496 67.8277 38.6617 67.834 38.6758C67.8403 38.6899 67.8428 38.7055 67.8411 38.7209V39.0832C67.8411 39.1313 67.8101 39.1556 67.7487 39.1556H67.7166C67.6121 39.1462 67.5109 39.1374 67.4136 39.1302C67.3162 39.123 67.215 39.1186 67.1106 39.1158L66.7722 39.1086C66.6511 39.106 66.5143 39.1047 66.362 39.1047C66.1998 39.1041 66.0386 39.1299 65.8844 39.1811C65.7298 39.2336 65.5911 39.3258 65.4818 39.4488C65.3539 39.5977 65.2591 39.773 65.2038 39.9626C65.1285 40.2247 65.0936 40.4971 65.1005 40.7701V41.7396C65.0952 41.9974 65.1264 42.2546 65.193 42.5034C65.2438 42.6915 65.3311 42.8673 65.4497 43.0205C65.5504 43.1493 65.6814 43.2503 65.8305 43.3142C65.979 43.375 66.1378 43.4056 66.2978 43.4044C66.5154 43.4044 66.6984 43.3996 66.8467 43.39C66.9941 43.38 67.1105 43.3706 67.1965 43.3612V41.2877C67.1958 41.2508 67.2084 41.2148 67.2319 41.1865C67.2429 41.1725 67.257 41.1612 67.2731 41.1536C67.2891 41.146 67.3067 41.1423 67.3244 41.1428H67.7095C67.7277 41.1426 67.7458 41.1463 67.7624 41.1539C67.779 41.1614 67.7938 41.1726 67.8058 41.1865C67.8313 41.2138 67.8453 41.2501 67.845 41.2877L67.8471 43.729Z" fill="#939CB7"/>
<path d="M72.5963 41.9923C72.6194 42.2659 72.5887 42.5415 72.5058 42.8028C72.423 43.0642 72.2897 43.3061 72.1138 43.5144C71.7323 43.8288 71.2562 44.0004 70.7652 44.0004C70.2741 44.0004 69.798 43.8288 69.4166 43.5144C69.242 43.3054 69.1098 43.0633 69.0277 42.802C68.9457 42.5408 68.9153 42.2656 68.9384 41.9923V38.701C68.938 38.6828 68.9413 38.6647 68.9482 38.6478C68.955 38.6309 68.9652 38.6157 68.9781 38.6031C68.9908 38.5901 69.006 38.5798 69.0228 38.573C69.0395 38.5661 69.0575 38.5628 69.0755 38.5633H69.4645C69.4825 38.5628 69.5005 38.5661 69.5172 38.573C69.5339 38.5798 69.5491 38.5901 69.5618 38.6031C69.5748 38.6158 69.585 38.6312 69.5918 38.6481C69.5987 38.665 69.602 38.6832 69.6016 38.7015V41.9973C69.5985 42.2055 69.6167 42.4135 69.656 42.6179C69.6865 42.7821 69.7533 42.9372 69.8513 43.0714C69.9452 43.1938 70.069 43.2891 70.2103 43.3479C70.5684 43.4735 70.9576 43.4735 71.3157 43.3479C71.4586 43.29 71.5838 43.1945 71.6786 43.0714C71.7763 42.9382 71.843 42.7843 71.8738 42.6212C71.9134 42.4157 71.9317 42.2066 71.9282 41.9973V38.7015C71.9278 38.6832 71.9311 38.665 71.9379 38.6481C71.9448 38.6311 71.955 38.6158 71.968 38.6031C71.9806 38.5901 71.9957 38.5799 72.0124 38.573C72.029 38.5662 72.0468 38.5629 72.0648 38.5633H72.4543C72.4723 38.5628 72.4903 38.5661 72.507 38.573C72.5238 38.5798 72.539 38.5901 72.5517 38.6031C72.5646 38.6157 72.5748 38.631 72.5816 38.6478C72.5884 38.6647 72.5918 38.6828 72.5914 38.701L72.5963 41.9923Z" fill="#939CB7"/>
<path d="M76.6605 43.8335C76.6607 43.8566 76.6545 43.8792 76.6425 43.8988C76.6367 43.9085 76.6287 43.9168 76.6193 43.923C76.6099 43.9292 76.5992 43.9332 76.5881 43.9348C76.4931 43.9495 76.3221 43.9641 76.0751 43.9785C75.8282 43.9928 75.5358 44.0002 75.1982 44.0006C75.0108 44.0006 74.8236 43.986 74.6384 43.9569C74.4641 43.9312 74.2972 43.8681 74.1488 43.7716C74.0005 43.6705 73.8822 43.5301 73.8066 43.3656C73.7117 43.1404 73.6678 42.8964 73.6783 42.6516V38.7104C73.6791 38.6722 73.6944 38.6359 73.7209 38.6089C73.7475 38.5819 73.7833 38.5663 73.8208 38.5655H74.1847C74.2222 38.5665 74.2579 38.582 74.2844 38.609C74.311 38.636 74.3263 38.6723 74.3273 38.7104V42.6538C74.3251 42.7719 74.3359 42.8899 74.3593 43.0056C74.3773 43.0939 74.4207 43.1747 74.4839 43.2379C74.5585 43.3051 74.6497 43.3503 74.7478 43.3684C74.898 43.3985 75.0511 43.4119 75.2042 43.4082H76.58C76.6325 43.4082 76.6587 43.4372 76.6583 43.4951L76.6605 43.8335Z" fill="#939CB7"/>
<path d="M81.0957 43.8335C81.0957 43.911 81.0555 43.9497 80.9744 43.9497H80.5539C80.5393 43.9505 80.5247 43.9481 80.5111 43.9424C80.4975 43.9368 80.4854 43.9281 80.4756 43.917C80.4562 43.8949 80.4416 43.8689 80.4326 43.8407L79.9697 42.1732H78.1228L77.6664 43.8407C77.6566 43.8702 77.6393 43.8966 77.6163 43.917C77.5952 43.9377 77.5672 43.9494 77.538 43.9497H77.1175C77.0364 43.9497 76.9961 43.911 76.9961 43.8335C76.995 43.8164 76.9974 43.7993 77.0032 43.7832L78.3224 39.0632C78.3449 38.9649 78.3873 38.8724 78.447 38.7917C78.4973 38.7258 78.5588 38.6696 78.6287 38.6258C78.6938 38.5855 78.7649 38.5562 78.8392 38.5389C78.9083 38.5227 78.9789 38.5142 79.0497 38.5135C79.1192 38.5138 79.1884 38.5212 79.2565 38.5356C79.3296 38.5506 79.3996 38.5787 79.4632 38.6186C79.5328 38.6626 79.5943 38.7188 79.6449 38.7845C79.7044 38.8653 79.7468 38.9578 79.7694 39.0561L81.0886 43.7832C81.0944 43.7993 81.0969 43.8164 81.0957 43.8335ZM79.1846 39.2159C79.1611 39.1289 79.1159 39.0854 79.0492 39.0854C78.9825 39.0854 78.9349 39.1289 78.9067 39.2159L78.2577 41.6013H79.8353L79.1846 39.2159Z" fill="#939CB7"/>
<path d="M84.6181 39.0074C84.6181 39.0837 84.573 39.1218 84.4827 39.1218H83.0922V43.8048C83.0929 43.8419 83.0803 43.878 83.0568 43.9065C83.0457 43.9206 83.0315 43.9318 83.0153 43.9394C82.9992 43.9469 82.9816 43.9507 82.9638 43.9502H82.5716C82.5539 43.9506 82.5364 43.9469 82.5203 43.9393C82.5043 43.9317 82.4902 43.9205 82.4791 43.9065C82.4556 43.8781 82.443 43.8419 82.4438 43.8048V39.1218H81.0528C81.0174 39.1227 80.9825 39.1129 80.9527 39.0936C80.9387 39.0845 80.9273 39.0717 80.9198 39.0567C80.9122 39.0416 80.9088 39.0248 80.9097 39.0079V38.6932C80.9092 38.6753 80.9129 38.6576 80.9203 38.6413C80.9278 38.6251 80.9389 38.6109 80.9527 38.5997C80.9809 38.5764 81.0163 38.5638 81.0528 38.5643H84.48C84.5703 38.5643 84.6154 38.6075 84.6154 38.6932L84.6181 39.0074Z" fill="#939CB7"/>
<path d="M88.839 41.7241C88.8463 42.0739 88.798 42.4225 88.6959 42.7567C88.615 43.0192 88.4786 43.2604 88.2961 43.4635C88.1268 43.646 87.9175 43.7853 87.6852 43.87C87.1825 44.0438 86.6375 44.0438 86.1348 43.87C85.9025 43.7853 85.6932 43.646 85.5239 43.4635C85.3408 43.2602 85.2031 43.0191 85.1202 42.7567C85.0157 42.4231 84.9663 42.0741 84.9739 41.7241V40.7888C84.9663 40.4386 85.0157 40.0895 85.1202 39.7557C85.2032 39.4933 85.3409 39.2522 85.5239 39.0489C85.6933 38.8665 85.9026 38.7272 86.1348 38.6423C86.6374 38.4684 87.1826 38.4684 87.6852 38.6423C87.9174 38.7272 88.1267 38.8665 88.2961 39.0489C88.4786 39.252 88.615 39.4932 88.6959 39.7557C88.798 40.09 88.8463 40.4389 88.839 40.7888V41.7241ZM88.1759 40.7888C88.181 40.5278 88.1512 40.2673 88.0872 40.0145C88.0391 39.8248 87.9532 39.6471 87.8348 39.4924C87.7301 39.3603 87.5926 39.2589 87.4366 39.1987C87.096 39.0777 86.7251 39.0777 86.3845 39.1987C86.2277 39.2594 86.0891 39.3606 85.9825 39.4924C85.8618 39.6461 85.7745 39.8241 85.7263 40.0145C85.6624 40.2674 85.6326 40.5278 85.6376 40.7888V41.7241C85.6326 41.9851 85.6624 42.2455 85.7263 42.4984C85.7742 42.6882 85.8601 42.866 85.9787 43.0205C86.0841 43.1535 86.2231 43.255 86.3807 43.3142C86.5505 43.3767 86.73 43.4074 86.9105 43.4049C87.0899 43.4076 87.2682 43.3768 87.4366 43.3142C87.5927 43.2542 87.7303 43.1528 87.8348 43.0205C87.9532 42.8659 88.0392 42.6882 88.0872 42.4984C88.1512 42.2456 88.181 41.9851 88.1759 41.7241V40.7888Z" fill="#939CB7"/>
<path d="M93.4386 43.8551C93.4404 43.868 93.4392 43.8811 93.4352 43.8934C93.4312 43.9057 93.4244 43.9169 93.4154 43.9261C93.4063 43.9352 93.3953 43.9422 93.3832 43.9463C93.3711 43.9504 93.3582 43.9515 93.3455 43.9497H92.8891C92.8543 43.9505 92.8196 43.9468 92.7858 43.9386C92.7596 43.9312 92.7323 43.9034 92.7036 43.8551L91.4274 41.6948H91.2419C91.1227 41.6948 91.0101 41.6948 90.9035 41.6909C90.7969 41.687 90.6478 41.6826 90.458 41.6727V43.8042C90.4585 43.8414 90.4458 43.8776 90.4221 43.906C90.4109 43.92 90.3967 43.9313 90.3806 43.9389C90.3645 43.9464 90.3468 43.9501 90.3291 43.9497H89.9439C89.9262 43.9501 89.9087 43.9464 89.8927 43.9388C89.8766 43.9312 89.8625 43.92 89.8514 43.906C89.8279 43.8775 89.8154 43.8414 89.8161 43.8042V38.7292C89.8142 38.7093 89.8164 38.6892 89.8225 38.6702C89.8286 38.6511 89.8384 38.6336 89.8514 38.6186C89.8916 38.5909 89.9384 38.5747 89.9869 38.5716C90.0625 38.5616 90.1501 38.5533 90.254 38.5461C90.3579 38.5389 90.4634 38.5328 90.5749 38.5279C90.6864 38.5229 90.7996 38.5196 90.9139 38.5168C91.0281 38.514 91.1374 38.5129 91.2402 38.5129C91.505 38.5115 91.7692 38.5382 92.0285 38.5926C92.2543 38.638 92.4695 38.7266 92.6628 38.8536C92.8408 38.9741 92.9855 39.1388 93.0833 39.332C93.1926 39.5625 93.2452 39.8164 93.2367 40.0721V40.1224C93.2393 40.3083 93.2116 40.4933 93.1546 40.6699C93.1039 40.8247 93.0253 40.9686 92.9228 41.0941C92.8221 41.2156 92.7016 41.3185 92.5665 41.3983C92.4258 41.4816 92.2747 41.5451 92.1172 41.5869L93.4152 43.7904C93.4277 43.8099 93.435 43.8324 93.4364 43.8556M92.5948 40.0715C92.6102 39.9261 92.5866 39.7792 92.5263 39.6464C92.466 39.5137 92.3715 39.4 92.2526 39.3177C91.9392 39.1579 91.5897 39.0852 91.2397 39.1069H91.0471C90.9759 39.1069 90.9035 39.1069 90.8295 39.1108L90.619 39.118C90.5526 39.118 90.4982 39.1241 90.4558 39.1285V41.1146C90.6128 41.1194 90.7626 41.1229 90.9052 41.1251C91.0477 41.1251 91.1592 41.129 91.2402 41.129C91.4351 41.131 91.6298 41.1151 91.8218 41.0814C91.9727 41.0572 92.1172 41.0017 92.2461 40.9183C92.3595 40.8422 92.4497 40.7355 92.5067 40.6102C92.5713 40.4556 92.6017 40.2886 92.5959 40.1207L92.5948 40.0715Z" fill="#939CB7"/>
<path d="M97.3319 38.665C97.3309 38.6929 97.3234 38.7202 97.3101 38.7447L96.2052 41.2678C96.1554 41.3847 96.0906 41.4944 96.0126 41.5941C95.9607 41.6591 95.8948 41.7111 95.8201 41.7462V43.8053C95.8206 43.8425 95.8078 43.8787 95.7842 43.9071C95.7731 43.9211 95.759 43.9323 95.7429 43.9399C95.7269 43.9474 95.7094 43.9512 95.6917 43.9508H95.2995C95.2818 43.9512 95.2642 43.9474 95.2482 43.9399C95.2322 43.9323 95.2181 43.9211 95.207 43.9071C95.1832 43.8788 95.1704 43.8425 95.1711 43.8053V41.7462C95.0949 41.7153 95.0284 41.6641 94.9785 41.598C94.9007 41.4962 94.8359 41.3847 94.7859 41.2661L93.6876 38.743C93.6746 38.7185 93.6673 38.6912 93.6664 38.6634C93.6664 38.5953 93.7067 38.5616 93.7877 38.5616H94.2229C94.2507 38.5633 94.2771 38.5748 94.2974 38.5942C94.3212 38.6118 94.3399 38.6355 94.3518 38.6628L95.3359 41.0117C95.3579 41.0685 95.3891 41.121 95.4284 41.1671C95.4373 41.1774 95.4483 41.1856 95.4606 41.1912C95.4729 41.1968 95.4862 41.1997 95.4997 41.1997C95.5131 41.1997 95.5265 41.1968 95.5387 41.1912C95.551 41.1856 95.562 41.1774 95.5709 41.1671C95.61 41.1209 95.6412 41.0683 95.6634 41.0117L96.6546 38.6628C96.6651 38.6369 96.6809 38.6136 96.7008 38.5942C96.7104 38.5838 96.7221 38.5755 96.735 38.5699C96.7479 38.5643 96.7618 38.5615 96.7759 38.5616H97.2111C97.2916 38.5616 97.3324 38.5953 97.3324 38.6634" fill="#939CB7"/>
<path d="M103.642 43.8335C103.642 43.911 103.601 43.9497 103.52 43.9497H103.1C103.086 43.9505 103.071 43.9481 103.057 43.9424C103.044 43.9368 103.031 43.9281 103.022 43.917C103.002 43.895 102.988 43.8689 102.979 43.8407L102.516 42.1732H100.669L100.213 43.8407C100.203 43.8701 100.186 43.8964 100.163 43.917C100.142 43.9379 100.113 43.9495 100.084 43.9497H99.6634C99.5824 43.9497 99.5421 43.911 99.5421 43.8335C99.541 43.8164 99.5434 43.7993 99.5492 43.7832L100.868 39.0632C100.89 38.9649 100.933 38.8724 100.992 38.7917C101.043 38.7255 101.105 38.6693 101.175 38.6258C101.24 38.5854 101.311 38.5561 101.386 38.5389C101.454 38.5227 101.525 38.5142 101.595 38.5135C101.665 38.5138 101.734 38.5212 101.802 38.5356C101.876 38.5506 101.946 38.5787 102.009 38.6186C102.079 38.6626 102.14 38.7188 102.191 38.7845C102.251 38.8652 102.293 38.9577 102.316 39.0561L103.635 43.7832C103.641 43.7992 103.643 43.8164 103.642 43.8335ZM101.732 39.2159C101.708 39.1291 101.663 39.0854 101.595 39.0854C101.528 39.0854 101.477 39.1291 101.453 39.2159L100.805 41.6013H102.382L101.732 39.2159Z" fill="#939CB7"/>
<path d="M107.863 41.9923C107.886 42.2659 107.856 42.5414 107.773 42.8028C107.69 43.0641 107.557 43.306 107.381 43.5144C106.999 43.8288 106.523 44.0004 106.032 44.0004C105.541 44.0004 105.065 43.8288 104.684 43.5144C104.509 43.3055 104.377 43.0634 104.295 42.8021C104.212 42.5409 104.182 42.2656 104.205 41.9923V38.701C104.205 38.6828 104.208 38.6647 104.215 38.6478C104.222 38.631 104.232 38.6157 104.245 38.6031C104.258 38.5901 104.273 38.5799 104.289 38.573C104.306 38.5662 104.324 38.5629 104.342 38.5633H104.731C104.749 38.5628 104.767 38.5661 104.784 38.573C104.801 38.5798 104.816 38.5901 104.829 38.6031C104.842 38.6158 104.852 38.6312 104.859 38.6481C104.866 38.665 104.869 38.6832 104.868 38.7015V41.9973C104.865 42.2055 104.884 42.4135 104.923 42.6179C104.954 42.7821 105.02 42.9371 105.118 43.0714C105.212 43.1939 105.336 43.2892 105.477 43.3479C105.835 43.4735 106.225 43.4735 106.583 43.3479C106.726 43.2899 106.851 43.1945 106.945 43.0714C107.043 42.9383 107.11 42.7844 107.141 42.6212C107.181 42.4158 107.2 42.2067 107.198 41.9973V38.7015C107.197 38.6832 107.201 38.665 107.208 38.6481C107.214 38.6311 107.225 38.6158 107.238 38.6031C107.25 38.5901 107.265 38.5798 107.282 38.573C107.299 38.5661 107.317 38.5628 107.335 38.5633H107.724C107.742 38.5629 107.76 38.5662 107.777 38.5731C107.793 38.5799 107.809 38.5901 107.821 38.6031C107.834 38.6158 107.844 38.631 107.851 38.6479C107.858 38.6647 107.861 38.6828 107.86 38.701L107.863 41.9923Z" fill="#939CB7"/>
<path d="M112.348 39.0074C112.348 39.0837 112.303 39.1218 112.213 39.1218H110.823V43.8048C110.823 43.8419 110.811 43.878 110.787 43.9065C110.776 43.9206 110.762 43.9318 110.746 43.9394C110.73 43.947 110.712 43.9507 110.694 43.9502H110.302C110.284 43.9506 110.267 43.9468 110.251 43.9393C110.235 43.9317 110.221 43.9205 110.21 43.9065C110.186 43.878 110.174 43.8419 110.174 43.8048V39.1218H108.784C108.748 39.1227 108.714 39.1129 108.684 39.0936C108.67 39.0845 108.659 39.0718 108.651 39.0567C108.644 39.0416 108.64 39.0248 108.641 39.0079V38.6932C108.641 38.6753 108.644 38.6575 108.652 38.6413C108.659 38.625 108.67 38.6108 108.684 38.5997C108.712 38.5764 108.747 38.5638 108.784 38.5643H112.211C112.301 38.5643 112.346 38.6073 112.346 38.6932L112.348 39.0074Z" fill="#939CB7"/>
<path d="M116.89 43.8042C116.889 43.8424 116.874 43.8788 116.848 43.9058C116.821 43.9328 116.785 43.9483 116.748 43.9491H116.384C116.346 43.9483 116.311 43.9328 116.284 43.906C116.258 43.8791 116.242 43.8429 116.241 43.8048V41.405H113.803V43.8048C113.802 43.8429 113.787 43.8791 113.76 43.906C113.734 43.9328 113.698 43.9483 113.661 43.9491H113.297C113.278 43.9492 113.259 43.9454 113.242 43.9379C113.225 43.9304 113.209 43.9193 113.197 43.9054C113.183 43.8923 113.172 43.8765 113.165 43.8591C113.157 43.8416 113.154 43.8227 113.154 43.8037V38.7104C113.155 38.6723 113.17 38.636 113.196 38.609C113.223 38.582 113.259 38.5665 113.296 38.5655H113.66C113.698 38.5665 113.733 38.582 113.76 38.609C113.786 38.636 113.802 38.6723 113.803 38.7104V40.8121H116.241V38.7104C116.242 38.6723 116.257 38.636 116.284 38.609C116.31 38.582 116.346 38.5665 116.383 38.5655H116.747C116.785 38.5665 116.82 38.582 116.847 38.609C116.873 38.636 116.889 38.6723 116.89 38.7104L116.89 43.8042Z" fill="#939CB7"/>
<path d="M121.74 41.7241C121.747 42.0739 121.699 42.4226 121.597 42.7567C121.516 43.0192 121.379 43.2605 121.197 43.4635C121.027 43.6461 120.818 43.7854 120.586 43.87C120.083 44.0438 119.538 44.0438 119.035 43.87C118.803 43.7855 118.594 43.6462 118.425 43.4635C118.242 43.2601 118.104 43.019 118.021 42.7567C117.917 42.423 117.867 42.0741 117.875 41.7241V40.7888C117.867 40.4386 117.917 40.0896 118.021 39.7557C118.104 39.4933 118.242 39.2523 118.425 39.0489C118.594 38.8663 118.803 38.727 119.035 38.6423C119.538 38.4683 120.083 38.4683 120.586 38.6423C120.818 38.7272 121.027 38.8664 121.197 39.0489C121.379 39.2519 121.516 39.4932 121.597 39.7557C121.699 40.09 121.747 40.4389 121.74 40.7888V41.7241ZM121.076 40.7888C121.082 40.5278 121.052 40.2673 120.987 40.0145C120.939 39.8247 120.853 39.647 120.735 39.4924C120.63 39.3603 120.493 39.259 120.337 39.1987C119.996 39.0776 119.625 39.0776 119.284 39.1987C119.127 39.2596 118.989 39.3608 118.883 39.4924C118.762 39.6462 118.675 39.8241 118.626 40.0145C118.562 40.2674 118.533 40.5278 118.538 40.7888V41.7241C118.533 41.9851 118.562 42.2456 118.626 42.4984C118.674 42.6882 118.76 42.8659 118.879 43.0205C118.984 43.1536 119.123 43.2552 119.28 43.3142C119.45 43.3767 119.629 43.4074 119.81 43.4049C119.989 43.4076 120.168 43.3768 120.336 43.3142C120.492 43.2542 120.63 43.1528 120.734 43.0205C120.853 42.866 120.939 42.6882 120.987 42.4984C121.051 42.2456 121.081 41.9851 121.076 41.7241L121.076 40.7888Z" fill="#939CB7"/>
<path d="M126.339 43.8551C126.34 43.8679 126.339 43.881 126.335 43.8933C126.331 43.9057 126.325 43.9169 126.316 43.9261C126.307 43.9353 126.296 43.9422 126.284 43.9463C126.272 43.9504 126.259 43.9515 126.246 43.9497H125.79C125.755 43.9505 125.72 43.9468 125.686 43.9386C125.66 43.9312 125.632 43.9034 125.604 43.8551L124.328 41.6948H124.142C124.023 41.6948 123.911 41.6948 123.803 41.6909C123.696 41.687 123.548 41.6826 123.358 41.6727V43.8042C123.359 43.8414 123.346 43.8775 123.323 43.906C123.311 43.9199 123.297 43.9311 123.281 43.9387C123.265 43.9463 123.248 43.95 123.23 43.9497H122.846C122.828 43.9501 122.811 43.9464 122.795 43.9388C122.779 43.9312 122.765 43.92 122.754 43.906C122.73 43.8776 122.717 43.8414 122.718 43.8042V38.7292C122.716 38.7093 122.718 38.6892 122.725 38.6701C122.731 38.6511 122.741 38.6335 122.754 38.6186C122.794 38.5909 122.841 38.5747 122.889 38.5716C122.965 38.562 123.054 38.5535 123.157 38.5461C123.259 38.5387 123.366 38.5327 123.478 38.5279C123.589 38.5231 123.702 38.5194 123.817 38.5168C123.931 38.5142 124.04 38.5129 124.143 38.5129C124.408 38.5115 124.672 38.5382 124.931 38.5926C125.156 38.6381 125.372 38.7267 125.565 38.8536C125.743 38.9741 125.888 39.1388 125.986 39.332C126.095 39.5625 126.148 39.8164 126.139 40.0721V40.1224C126.142 40.3083 126.114 40.4933 126.057 40.6699C126.006 40.8247 125.928 40.9685 125.826 41.0941C125.725 41.2154 125.604 41.3183 125.469 41.3983C125.328 41.4817 125.177 41.5451 125.019 41.5869L126.317 43.7904C126.33 43.8098 126.337 43.8318 126.339 43.8551ZM125.498 40.0715C125.513 39.9261 125.489 39.7791 125.429 39.6464C125.368 39.5136 125.274 39.4 125.155 39.3177C124.842 39.1579 124.492 39.0852 124.142 39.1069H123.95C123.879 39.1069 123.806 39.1069 123.732 39.1108L123.522 39.118C123.455 39.118 123.401 39.1241 123.358 39.1285V41.1146C123.515 41.1194 123.665 41.1229 123.808 41.1251C123.951 41.1273 124.062 41.1286 124.143 41.129C124.338 41.131 124.532 41.1151 124.724 41.0814C124.875 41.0572 125.02 41.0017 125.149 40.9183C125.262 40.8422 125.352 40.7355 125.409 40.6102C125.473 40.4557 125.504 40.2886 125.498 40.1207L125.498 40.0715Z" fill="#939CB7"/>
<path d="M127.893 43.8042C127.893 43.8414 127.881 43.8775 127.857 43.906C127.846 43.92 127.832 43.9313 127.816 43.9389C127.8 43.9464 127.782 43.9501 127.764 43.9497H127.372C127.354 43.9501 127.337 43.9463 127.321 43.9387C127.305 43.9312 127.291 43.92 127.28 43.906C127.256 43.8774 127.244 43.8414 127.244 43.8042V38.7004C127.243 38.6644 127.256 38.6293 127.28 38.6025C127.291 38.5895 127.306 38.5791 127.322 38.5722C127.338 38.5654 127.355 38.5621 127.372 38.5627H127.764C127.782 38.562 127.799 38.5652 127.815 38.5721C127.831 38.579 127.846 38.5894 127.857 38.6025C127.881 38.6293 127.894 38.6644 127.893 38.7004V43.8042Z" fill="#939CB7"/>
<path d="M132.475 39.0074C132.475 39.0837 132.43 39.1218 132.34 39.1218H130.952V43.8047C130.953 43.8419 130.94 43.878 130.917 43.9065C130.906 43.9205 130.891 43.9317 130.875 43.9393C130.859 43.9469 130.842 43.9506 130.824 43.9502H130.432C130.414 43.9507 130.396 43.9469 130.38 43.9394C130.364 43.9318 130.35 43.9206 130.339 43.9065C130.315 43.878 130.303 43.8419 130.303 43.8047V39.1218H128.912C128.877 39.1227 128.842 39.1129 128.813 39.0936C128.799 39.0845 128.787 39.0717 128.78 39.0566C128.773 39.0415 128.769 39.0247 128.77 39.0079V38.6932C128.77 38.6754 128.773 38.6576 128.781 38.6414C128.788 38.6252 128.799 38.6109 128.813 38.5997C128.841 38.5764 128.876 38.5639 128.912 38.5643H132.339C132.43 38.5643 132.475 38.6073 132.475 38.6932L132.475 39.0074Z" fill="#939CB7"/>
<path d="M136.642 38.665C136.641 38.6928 136.634 38.7201 136.621 38.7447L135.515 41.2678C135.466 41.3847 135.401 41.4944 135.323 41.5941C135.271 41.659 135.205 41.711 135.13 41.7462V43.8053C135.131 43.8425 135.118 43.8787 135.095 43.9071C135.084 43.9211 135.07 43.9323 135.054 43.9399C135.037 43.9474 135.02 43.9512 135.002 43.9508H134.61C134.592 43.9512 134.575 43.9475 134.559 43.9399C134.543 43.9324 134.529 43.9211 134.518 43.9071C134.494 43.8787 134.481 43.8425 134.482 43.8053V41.7462C134.406 41.7154 134.34 41.6641 134.29 41.598C134.212 41.4962 134.147 41.3847 134.097 41.2661L132.999 38.743C132.986 38.7185 132.978 38.6912 132.978 38.6634C132.978 38.5953 133.017 38.5616 133.099 38.5616H133.534C133.562 38.5631 133.589 38.5747 133.609 38.5942C133.633 38.6119 133.651 38.6356 133.664 38.6628L134.647 41.0117C134.669 41.0685 134.7 41.121 134.74 41.1671C134.748 41.1774 134.759 41.1856 134.772 41.1912C134.784 41.1968 134.797 41.1997 134.811 41.1997C134.824 41.1997 134.838 41.1968 134.85 41.1912C134.862 41.1856 134.873 41.1774 134.882 41.1671C134.921 41.1209 134.953 41.0684 134.975 41.0117L135.966 38.6628C135.977 38.6369 135.993 38.6135 136.013 38.5942C136.022 38.5838 136.034 38.5756 136.046 38.57C136.059 38.5644 136.073 38.5615 136.087 38.5616H136.522C136.603 38.5616 136.643 38.5953 136.643 38.6634" fill="#939CB7"/>
<path d="M56.0929 1.8235C54.9873 0.701673 53.489 0.0716248 51.927 0.0716248C50.3649 0.0716248 48.8667 0.701673 47.761 1.8235L35.2572 14.536C35.1838 14.6105 35.1338 14.7056 35.1135 14.809C35.0932 14.9125 35.1036 15.0198 35.1433 15.1173C35.1831 15.2147 35.2503 15.298 35.3366 15.3566C35.423 15.4152 35.5244 15.4464 35.6282 15.4463H38.4521C38.7778 15.4472 39.1003 15.3823 39.4012 15.2556C39.7021 15.1289 39.9752 14.9427 40.2049 14.708L50.3195 4.42407C50.7462 3.99112 51.3244 3.74797 51.9272 3.74797C52.5301 3.74797 53.1083 3.99112 53.535 4.42407L63.6496 14.7074C63.8793 14.9423 64.1526 15.1285 64.4535 15.2552C64.7545 15.3819 65.0772 15.4467 65.4029 15.4458H68.2274C68.3312 15.4459 68.4326 15.4146 68.5189 15.356C68.6052 15.2975 68.6725 15.2142 68.7122 15.1167C68.752 15.0192 68.7624 14.912 68.7421 14.8085C68.7218 14.705 68.6718 14.61 68.5984 14.5354L56.0929 1.8235Z" fill="#939CB7"/>
<path d="M136.49 14.536L123.984 1.8235C122.878 0.701673 121.38 0.0716248 119.818 0.0716248C118.256 0.0716248 116.758 0.701673 115.652 1.8235L103.148 14.536C103.075 14.6105 103.025 14.7056 103.005 14.809C102.984 14.9125 102.995 15.0198 103.034 15.1173C103.074 15.2147 103.141 15.298 103.228 15.3566C103.314 15.4152 103.416 15.4464 103.519 15.4463H106.343C106.669 15.4472 106.992 15.3825 107.293 15.2557C107.594 15.129 107.867 14.9428 108.097 14.708L118.212 4.42407C118.638 3.99112 119.217 3.74797 119.819 3.74797C120.422 3.74797 121.001 3.99112 121.427 4.42407L131.54 14.708C131.769 14.9427 132.042 15.1288 132.343 15.2556C132.644 15.3823 132.967 15.4471 133.292 15.4463H136.116C136.22 15.4464 136.322 15.4152 136.408 15.3566C136.494 15.298 136.561 15.2147 136.601 15.1173C136.641 15.0198 136.651 14.9125 136.631 14.809C136.611 14.7056 136.561 14.6105 136.487 14.536" fill="#939CB7"/>
<path d="M33.777 0.0713381H30.9531C30.6275 0.0700653 30.3049 0.13442 30.004 0.26068C29.703 0.386941 29.4297 0.572602 29.1997 0.80693L19.0852 11.0942C18.6584 11.527 18.0802 11.77 17.4774 11.77C16.8746 11.77 16.2964 11.527 15.8696 11.0942L5.75552 0.80693C5.52559 0.572602 5.25224 0.386941 4.9513 0.26068C4.65035 0.13442 4.32777 0.0700653 4.00221 0.0713381H1.1783C1.07458 0.0713711 0.973187 0.102678 0.886961 0.1613C0.800735 0.219922 0.733545 0.303225 0.693889 0.400673C0.654233 0.498122 0.643893 0.605338 0.664177 0.708761C0.68446 0.812184 0.734456 0.907169 0.807841 0.981702L13.3117 13.6936C14.4173 14.8154 15.9156 15.4455 17.4776 15.4455C19.0397 15.4455 20.5379 14.8154 21.6436 13.6936L34.1474 0.981702C34.2208 0.907169 34.2708 0.812184 34.2911 0.708761C34.3114 0.605338 34.301 0.498122 34.2614 0.400673C34.2217 0.303225 34.1545 0.219922 34.0683 0.1613C33.9821 0.102678 33.8807 0.0713711 33.777 0.0713381Z" fill="#939CB7"/>
<path d="M99.5808 4.08627e-07H82.2272C81.4534 -0.000290184 80.6872 0.154412 79.9722 0.455271C79.2572 0.75613 78.6075 1.19725 78.0603 1.75343C77.513 2.30962 77.0789 2.96997 76.7827 3.69676C76.4865 4.42356 76.3341 5.20256 76.3341 5.98927L76.3058 14.5426C76.3054 14.661 76.3281 14.7783 76.3724 14.8878C76.4167 14.9973 76.4818 15.0968 76.5641 15.1807C76.6463 15.2645 76.744 15.3311 76.8515 15.3765C76.9591 15.4218 77.0744 15.4452 77.1909 15.4452H78.973C79.2072 15.4448 79.4316 15.3502 79.5974 15.1821C79.7632 15.0141 79.857 14.7862 79.8581 14.5481L79.8869 5.85155C79.9014 5.24342 80.1453 4.66423 80.5682 4.23388C80.9911 3.80353 81.5605 3.55499 82.1587 3.53969H99.5808C99.8155 3.5394 100.04 3.4445 100.206 3.27581C100.372 3.10711 100.466 2.8784 100.466 2.63983V0.900409C100.466 0.661746 100.372 0.432893 100.207 0.264081C100.041 0.0952693 99.8156 0.000293381 99.5808 4.08627e-07Z" fill="#939CB7"/>
</g>
</g>
<defs>
<clipPath id="clip0_9114_74707">
<rect width="136" height="44" fill="white" transform="translate(0.641846)"/>
</clipPath>
</defs>
</svg>
