<svg width="122" height="38" viewBox="0 0 122 38" fill="none" xmlns="http://www.w3.org/2000/svg">
<g clip-path="url(#clip0_9114_74777)">
<path d="M9.97311 19L5.61522 23.3795C5.31279 23.6858 4.9528 23.9285 4.55618 24.0938C4.15956 24.259 3.73422 24.3433 3.30488 24.3418C2.42857 24.3418 1.61182 24.0017 0.993587 23.3804L0.949158 23.3358L5.26262 19L0.949158 14.6642L0.993587 14.6195C1.60722 14.0047 2.43838 13.6595 3.30488 13.6595C4.17138 13.6595 5.00253 14.0047 5.61617 14.6195L9.97406 19H9.97311ZM17.1575 3.2851V38H17.2237C18.0903 37.9992 18.9212 37.6529 19.534 37.0369C20.1467 36.421 20.4911 35.5858 20.4916 34.7149V0H20.4254C19.5588 0.000755008 18.7279 0.347136 18.1151 0.963075C17.5024 1.57901 17.158 2.41416 17.1575 3.2851ZM6.72029 5.26775L6.66074 5.29055L12.1738 19L6.66074 32.7094L6.72029 32.7323C7.11853 32.8935 7.54447 32.9743 7.97379 32.9701C8.40311 32.9659 8.8274 32.8767 9.22242 32.7077C9.61745 32.5387 9.97547 32.2931 10.276 31.985C10.5766 31.6769 10.8138 31.3123 10.9742 30.9121L15.766 19L10.9742 7.08035C10.6489 6.27338 10.0182 5.6292 9.22052 5.28932C8.42288 4.94945 7.52361 4.94169 6.72029 5.26775ZM36.6924 14.6566L36.6479 14.6129C36.0343 13.9981 35.2032 13.6528 34.3367 13.6528C33.4702 13.6528 32.639 13.9981 32.0254 14.6129L27.6675 18.9924L32.0254 23.3719C32.3282 23.6779 32.6884 23.9205 33.0851 24.0857C33.4818 24.2509 33.9072 24.3354 34.3367 24.3342C35.1761 24.3342 36.007 24.016 36.6479 23.3729L36.6924 23.3282L32.3789 18.9924L36.6924 14.6566ZM30.9874 5.2896L30.9288 5.26775C30.1255 4.94195 29.2263 4.94984 28.4287 5.28969C27.6312 5.62953 27.0004 6.27355 26.6749 7.08035L21.8812 19L26.6739 30.9197C26.8327 31.3202 27.0694 31.6849 27.3702 31.9924C27.671 32.2999 28.0298 32.544 28.4256 32.7104C28.8378 32.8871 29.2717 32.9764 29.698 32.9764C30.1253 32.9764 30.5299 32.8947 30.9203 32.7323L30.9789 32.7104L25.4668 19L30.9798 5.29055L30.9874 5.2896Z" fill="#939CB7"/>
<path d="M64.7294 9.92178C63.9193 9.92178 63.2566 10.5868 63.2566 11.4019V26.5762C63.2566 27.3904 63.9183 28.0563 64.7285 28.0563H71.0148C75.99 28.0563 80.0388 23.9865 80.0388 18.9848C80.0388 13.984 75.99 9.91418 71.0148 9.91418H64.7285L64.7294 9.92178ZM71.0148 24.719H66.5822V13.2658H71.0139C72.5247 13.267 73.9733 13.8708 75.0415 14.9445C76.1097 16.0182 76.7102 17.4741 76.7113 18.9924C76.7102 20.5107 76.1097 21.9666 75.0415 23.0403C73.9733 24.114 72.5247 24.7177 71.0139 24.719H71.0148ZM57.9355 28.063H61.6165L54.1599 10.8832C54.0326 10.5955 53.8252 10.3509 53.5627 10.179C53.3002 10.007 52.9938 9.91507 52.6805 9.91418H51.5234C50.8834 9.91418 50.3021 10.2989 50.0374 10.8908L42.5807 28.0706H46.2608L47.8291 24.4226H56.3596L56.3747 24.453L57.9345 28.0706V28.0639L57.9355 28.063ZM55.0059 21.2562H49.2074L52.1076 14.5236L55.0069 21.2562H55.0059ZM118.623 28.0782H121.949V9.93698H118.372L112.079 20.1172L105.793 9.93698H102.216V28.0782H105.542V15.4489L110.709 23.7139C110.989 24.1718 111.498 24.4378 112.079 24.4378C112.661 24.4378 113.183 24.1566 113.448 23.7129L118.615 15.4479V28.0782H118.623ZM96.2839 21.4709V27.7457L96.438 27.701C98.2417 27.1975 99.4489 25.8067 99.4489 24.2383V18.2894H93.3469C92.5366 18.2923 91.7599 18.6151 91.1843 19.1883C90.6087 19.7614 90.2803 20.5389 90.2699 21.3531V21.4785H96.2764L96.2839 21.4709Z" fill="#939CB7"/>
<path d="M91.4089 9.61877C86.2645 9.61877 82.0759 13.8282 82.0759 19C82.0759 24.4378 86.1095 28.3813 91.667 28.3813C92.859 28.3813 93.8459 28.2863 94.7506 28.0858V24.6525C93.9849 24.9413 93.0283 25.0667 91.667 25.0667C88.0087 25.0667 85.4469 22.5739 85.4469 19C85.4469 15.6997 88.1193 13.0074 91.4089 13.0074C92.2565 13.0093 93.094 13.1924 93.8657 13.5446C94.6374 13.8967 95.3258 14.4099 95.885 15.0499L95.9653 15.1449L98.4317 12.8364L98.3504 12.7481C97.4753 11.7683 96.4052 10.9841 95.2095 10.4462C94.0138 9.90829 92.719 9.62867 91.4089 9.62542V9.61877Z" fill="#939CB7"/>
</g>
<defs>
<clipPath id="clip0_9114_74777">
<rect width="121" height="38" fill="white" transform="translate(0.949158)"/>
</clipPath>
</defs>
</svg>
