<svg width="120" height="30" viewBox="0 0 120 30" fill="none" xmlns="http://www.w3.org/2000/svg">
<g clip-path="url(#clip0_9114_74705)">
<path d="M25.1868 0H5.23501C2.46912 0 0.227478 2.24164 0.227478 5.00753V24.9593C0.227478 27.7252 2.46912 29.9669 5.23501 29.9669H25.1868C27.9527 29.9669 30.1943 27.7252 30.1943 24.9593V5.00753C30.1943 2.24164 27.9527 0 25.1868 0ZM24.7469 22.9376C24.7469 23.8114 24.0389 24.5194 23.1651 24.5194H7.2567C6.38295 24.5194 5.6749 23.8114 5.6749 22.9376V7.02923C5.6749 6.15547 6.38295 5.44742 7.2567 5.44742H23.1651C24.0389 5.44742 24.7469 6.15547 24.7469 7.02923V22.9376ZM12.0322 19.0509C11.5291 19.0509 11.1253 18.6442 11.1253 18.141V11.7897C11.1253 11.2865 11.5291 10.8768 12.0322 10.8768H18.3926C18.8927 10.8768 19.2995 11.2835 19.2995 11.7897V18.138C19.2995 18.6412 18.8927 19.0479 18.3926 19.0479H12.0322V19.0509ZM38.1395 18.6171H41.4116C41.5743 20.47 42.8307 21.9162 45.3646 21.9162C47.6273 21.9162 49.0193 20.7984 49.0193 19.1082C49.0193 17.5264 47.9286 16.8183 45.9641 16.3543L43.4272 15.809C40.6734 15.2094 38.6005 13.4378 38.6005 10.5453C38.6005 7.35462 41.4357 5.17324 45.1175 5.17324C49.0163 5.17324 51.5261 7.21904 51.743 10.244H48.5794C48.2028 8.82796 47.0277 7.98433 45.1205 7.98433C43.1018 7.98433 41.7129 9.07502 41.7129 10.467C41.7129 11.859 42.912 12.7026 44.9849 13.1666L47.4947 13.712C50.2486 14.3115 52.1286 15.9747 52.1286 18.8912C52.1286 22.6002 49.3477 24.8087 45.3676 24.8087C40.8933 24.8057 38.4137 22.3802 38.1395 18.6171ZM63.834 29.9669V24.5405L64.0479 22.1603H63.834C63.0838 23.8716 61.508 24.8087 59.3688 24.8087C55.9189 24.8087 53.3519 22.0006 53.3519 17.6951C53.3519 13.3896 55.9189 10.5815 59.3688 10.5815C61.4809 10.5815 62.9783 11.5697 63.834 13.1214H64.0479V10.8466H66.8831V29.9669H63.834ZM63.9394 17.6921C63.9394 14.9382 62.2552 13.3323 60.1943 13.3323C58.1335 13.3323 56.4492 14.9382 56.4492 17.6921C56.4492 20.4459 58.1335 22.0518 60.1943 22.0518C62.2552 22.0518 63.9394 20.4489 63.9394 17.6921ZM69.1458 19.1112V10.8466H72.1949V18.843C72.1949 21.0093 73.2374 22.0518 74.9759 22.0518C77.1151 22.0518 78.5071 20.5273 78.5071 18.147V10.8466H81.5562V24.5375H78.721V21.7023H78.5071C77.8382 23.5221 76.3679 24.8057 74.0961 24.8057C70.8301 24.8057 69.1458 22.7207 69.1458 19.1112ZM83.4122 20.7141C83.4122 18.147 85.2049 16.6496 88.3866 16.4628L92.1558 16.2218V15.1522C92.1558 13.8686 91.2187 13.0943 89.5616 13.0943C88.037 13.0943 87.1271 13.8686 86.8861 14.9654H83.837C84.1594 12.1844 86.4583 10.5785 89.5586 10.5785C93.0627 10.5785 95.2019 12.0759 95.2019 14.9654V24.5375H92.3667V21.9976H92.1527C91.511 23.6818 90.1732 24.8057 87.6062 24.8057C85.1506 24.8057 83.4122 23.1485 83.4122 20.7141ZM92.1588 19.0298V18.3067L89.0825 18.5206C87.4254 18.6261 86.6752 19.2437 86.6752 20.473C86.6752 21.5155 87.5309 22.2657 88.733 22.2657C90.9024 22.2657 92.1588 20.8768 92.1588 19.0298ZM97.4766 24.5405V10.8466H100.312V13.4679H100.526C100.926 11.6752 102.291 10.8466 104.322 10.8466H105.714V13.6005H103.976C101.996 13.6005 100.526 14.884 100.526 17.3185V24.5375H97.4766V24.5405ZM119.664 18.2555H109.26C109.42 20.7683 111.186 22.1874 113.138 22.1874C114.795 22.1874 115.838 21.5185 116.428 20.3947H119.45C118.622 23.1757 116.187 24.8057 113.111 24.8057C109.074 24.8057 106.238 21.7837 106.238 17.6921C106.238 13.6005 109.152 10.5785 113.138 10.5785C117.148 10.5785 119.769 13.3323 119.769 16.755C119.773 17.4269 119.718 17.7734 119.664 18.2555ZM116.751 16.1434C116.645 14.2453 115.066 12.9617 113.141 12.9617C111.321 12.9617 109.8 14.1127 109.423 16.1434H116.751Z" fill="#939CB7"/>
</g>
<defs>
<clipPath id="clip0_9114_74705">
<rect width="120" height="30" fill="white"/>
</clipPath>
</defs>
</svg>
