<svg width="628" height="420" viewBox="0 0 628 420" fill="none" xmlns="http://www.w3.org/2000/svg">
<g filter="url(#filter0_i_8936_2380)">
<g clip-path="url(#clip0_8936_2380)">
<rect width="628" height="420" rx="6" fill="white"/>
<path d="M433.461 82.1491L324.951 186.955" stroke="#E7ECEE" stroke-width="2"/>
<path d="M611.041 164.731L552.495 -15.4116" stroke="#E7ECEE" stroke-width="2"/>
<path d="M611.042 164.731L446.661 241.292" stroke="#E7ECEE" stroke-width="2"/>
<path d="M581.768 310.347L491.697 401.169" stroke="#E7ECEE" stroke-width="2"/>
<path d="M581.768 310.347L674.091 426.689" stroke="#E7ECEE" stroke-width="2"/>
<path d="M581.768 310.347L611.042 171.487" stroke="#E7ECEE" stroke-width="2"/>
<path d="M765.507 210.997L611 165.215" stroke="#E7ECEE" stroke-width="2"/>
<path d="M556.998 -18.4139L439.906 78.4128" stroke="#E7ECEE" stroke-width="2"/>
<path d="M444.361 236.501L324.952 186.955" stroke="#E7ECEE" stroke-width="2"/>
<path d="M435.648 82.1489L263.835 35.3206" stroke="#E7ECEE" stroke-width="2"/>
<path d="M411.383 -66.4521L263.835 35.3205" stroke="#E7ECEE" stroke-width="2"/>
<path d="M217.265 258.325L78.3464 269.483" stroke="#E7ECEE" stroke-width="2"/>
<path d="M173.444 382.404L78.3467 271.524" stroke="#E7ECEE" stroke-width="2"/>
<path d="M-97.7118 220.776L74.9446 269.483" stroke="#E7ECEE" stroke-width="2"/>
<path d="M199.715 140.712L78.3467 272.204" stroke="#E7ECEE" stroke-width="2"/>
<path d="M60.2234 80.1865L81.7485 269.483" stroke="#E7ECEE" stroke-width="2"/>
<path d="M173.444 382.404L-18.7087 348.627" stroke="#E7ECEE" stroke-width="2"/>
<path d="M173.444 382.404L84.1233 463.468" stroke="#E7ECEE" stroke-width="2"/>
<path d="M173.444 382.404L334.822 332.865" stroke="#E7ECEE" stroke-width="2"/>
<path d="M481.939 399.668L334.822 332.865" stroke="#E7ECEE" stroke-width="2"/>
<path d="M218.48 260.057L334.822 332.865" stroke="#E7ECEE" stroke-width="2"/>
<path d="M324.064 186.673L262.815 38.7969" stroke="#E7ECEE" stroke-width="2"/>
<path d="M58.603 81.4154L262.815 38.7969" stroke="#E7ECEE" stroke-width="2"/>
<path d="M119.401 -43.9341L262.815 38.7968" stroke="#E7ECEE" stroke-width="2"/>
<path d="M58.6028 81.4152L-14.6279 10.9097" stroke="#E7ECEE" stroke-width="2"/>
<path d="M60.2234 -71.3582L-17.3748 8.06582" stroke="#E7ECEE" stroke-width="2"/>
<path d="M58.603 81.4152L-76.7144 186.085" stroke="#E7ECEE" stroke-width="2"/>
<path d="M340.911 329.59L324.953 186.955" stroke="#E7ECEE" stroke-width="2"/>
<path d="M218.505 258.325L324.953 186.955" stroke="#E7ECEE" stroke-width="2"/>
<path d="M199.898 135.171L324.951 186.955" stroke="#E7ECEE" stroke-width="2"/>
<circle cx="445" cy="237.215" r="30.2133" fill="white" stroke="#E7ECEE" stroke-width="1.57342"/>
<path d="M288.213 35.7146C288.213 50.4816 276.464 62.4279 262 62.4279C247.536 62.4279 235.787 50.4816 235.787 35.7146C235.787 20.9476 247.536 9.00131 262 9.00131C276.464 9.00131 288.213 20.9476 288.213 35.7146Z" fill="white" stroke="#E7ECEE" stroke-width="1.57342"/>
<circle cx="60.0165" cy="80.621" r="13.7865" fill="white" stroke="#E7ECEE" stroke-width="1.57342"/>
<circle cx="172.84" cy="383.459" r="13.7865" fill="white" stroke="#E7ECEE" stroke-width="1.57342"/>
<circle cx="611.155" cy="164.586" r="13.7865" fill="white" stroke="#E7ECEE" stroke-width="1.57342"/>
<circle cx="488.058" cy="403.038" r="13.7865" fill="white" stroke="#E7ECEE" stroke-width="1.57342"/>
<circle cx="435.389" cy="81.8717" r="13.7865" fill="white" stroke="#E7ECEE" stroke-width="1.57342"/>
<circle cx="339.527" cy="329.104" r="13.7865" fill="white" stroke="#E7ECEE" stroke-width="1.57342"/>
<path d="M99.2133 269.215C99.2133 281.499 89.4757 291.428 77.5 291.428C65.5243 291.428 55.7867 281.499 55.7867 269.215C55.7867 256.93 65.5243 247.001 77.5 247.001C89.4757 247.001 99.2133 256.93 99.2133 269.215Z" fill="white" stroke="#E7ECEE" stroke-width="1.57342"/>
<circle cx="201.986" cy="134.552" r="13.7865" fill="white" stroke="#E7ECEE" stroke-width="1.57342"/>
<circle cx="582.009" cy="308.53" r="13.7865" fill="white" stroke="#E7ECEE" stroke-width="1.57342"/>
<circle cx="216.559" cy="256.873" r="13.7865" fill="white" stroke="#E7ECEE" stroke-width="1.57342"/>
<circle cx="322.887" cy="186.319" r="13.7865" fill="white" stroke="#E7ECEE" stroke-width="1.57342"/>
<g filter="url(#filter1_d_8936_2380)">
<path fill-rule="evenodd" clip-rule="evenodd" d="M263.546 94.2146C261.035 94.2146 259 96.2495 259 98.7597V124.141L245 134.097L259 144.053V262.669C259 265.18 261.035 267.215 263.546 267.215H507.455C509.966 267.215 512 265.18 512 262.669V98.7597C512 96.2495 509.966 94.2146 507.455 94.2146H263.546Z" fill="white"/>
</g>
<g clip-path="url(#clip1_8936_2380)">
<path fill-rule="evenodd" clip-rule="evenodd" d="M355 235.621V241.385L352.702 239.088L345.941 245.841L344.78 244.679L351.533 237.918L349.235 235.621H355ZM352.529 249.621H341V238.091H347.588V239.738H342.647V247.974H350.882V243.032H352.529V249.621Z" fill="#7F7F7F"/>
</g>
<path d="M273 223.215H498" stroke="#E7ECEE"/>
<path d="M278.039 124.215V112.23H282.391C283.762 112.23 284.918 112.468 285.859 112.944C286.811 113.408 287.53 114.088 288.018 114.984C288.505 115.868 288.749 116.944 288.749 118.214C288.749 119.472 288.505 120.548 288.018 121.444C287.53 122.339 286.811 123.025 285.859 123.501C284.918 123.977 283.762 124.215 282.391 124.215H278.039ZM280.232 122.396H282.255C283.705 122.396 284.782 122.05 285.485 121.359C286.187 120.667 286.539 119.619 286.539 118.214C286.539 116.797 286.187 115.749 285.485 115.069C284.782 114.377 283.705 114.032 282.255 114.032H280.232V122.396ZM294.133 124.385C293.385 124.385 292.728 124.209 292.161 123.858C291.594 123.495 291.152 122.979 290.835 122.311C290.518 121.642 290.359 120.843 290.359 119.914C290.359 118.984 290.518 118.191 290.835 117.534C291.152 116.865 291.594 116.355 292.161 116.004C292.728 115.641 293.385 115.46 294.133 115.46C294.858 115.46 295.493 115.641 296.037 116.004C296.592 116.355 296.961 116.831 297.142 117.432H296.955L297.142 115.63H299.182C299.148 115.981 299.114 116.338 299.08 116.701C299.057 117.063 299.046 117.42 299.046 117.772V124.215H296.938L296.921 122.447H297.125C296.944 123.036 296.575 123.506 296.02 123.858C295.465 124.209 294.836 124.385 294.133 124.385ZM294.728 122.753C295.397 122.753 295.935 122.52 296.343 122.056C296.751 121.58 296.955 120.866 296.955 119.914C296.955 118.962 296.751 118.253 296.343 117.789C295.935 117.324 295.397 117.092 294.728 117.092C294.059 117.092 293.521 117.324 293.113 117.789C292.705 118.253 292.501 118.962 292.501 119.914C292.501 120.866 292.699 121.58 293.096 122.056C293.504 122.52 294.048 122.753 294.728 122.753ZM301.343 124.215V117.823C301.343 117.46 301.332 117.092 301.309 116.718C301.298 116.344 301.269 115.981 301.224 115.63H303.281L303.519 117.976H303.179C303.292 117.409 303.479 116.939 303.74 116.565C304.012 116.191 304.341 115.913 304.726 115.732C305.111 115.55 305.531 115.46 305.984 115.46C306.188 115.46 306.352 115.471 306.477 115.494C306.602 115.505 306.726 115.533 306.851 115.579L306.834 117.449C306.619 117.358 306.432 117.301 306.273 117.279C306.126 117.256 305.939 117.245 305.712 117.245C305.225 117.245 304.811 117.347 304.471 117.551C304.142 117.755 303.893 118.038 303.723 118.401C303.564 118.763 303.485 119.177 303.485 119.642V124.215H301.343ZM308.034 124.215V111.703H310.159V119.285H310.193L313.678 115.63H316.245L311.91 120.169L311.927 119.319L316.551 124.215H313.916L310.193 120.373H310.159V124.215H308.034ZM317.414 124.215V117.772C317.414 117.42 317.402 117.063 317.38 116.701C317.357 116.338 317.323 115.981 317.278 115.63H319.335L319.505 117.33H319.301C319.573 116.729 319.975 116.27 320.508 115.953C321.04 115.624 321.658 115.46 322.361 115.46C323.369 115.46 324.129 115.743 324.639 116.31C325.149 116.876 325.404 117.76 325.404 118.962V124.215H323.279V119.064C323.279 118.372 323.143 117.879 322.871 117.585C322.61 117.279 322.213 117.126 321.681 117.126C321.023 117.126 320.502 117.33 320.117 117.738C319.731 118.146 319.539 118.69 319.539 119.37V124.215H317.414ZM331.805 124.385C330.366 124.385 329.238 123.988 328.422 123.195C327.606 122.401 327.198 121.313 327.198 119.931C327.198 119.035 327.374 118.253 327.725 117.585C328.076 116.916 328.564 116.395 329.187 116.021C329.822 115.647 330.558 115.46 331.397 115.46C332.224 115.46 332.916 115.635 333.471 115.987C334.026 116.338 334.446 116.831 334.729 117.466C335.024 118.1 335.171 118.843 335.171 119.693V120.254H328.915V119.132H333.658L333.369 119.37C333.369 118.576 333.199 117.97 332.859 117.551C332.53 117.131 332.049 116.922 331.414 116.922C330.711 116.922 330.167 117.171 329.782 117.67C329.408 118.168 329.221 118.865 329.221 119.761V119.982C329.221 120.911 329.448 121.608 329.901 122.073C330.366 122.526 331.017 122.753 331.856 122.753C332.343 122.753 332.797 122.69 333.216 122.566C333.647 122.43 334.055 122.214 334.44 121.92L335.069 123.348C334.661 123.676 334.174 123.931 333.607 124.113C333.04 124.294 332.44 124.385 331.805 124.385ZM340.609 124.385C339.589 124.385 338.818 124.118 338.297 123.586C337.776 123.053 337.515 122.254 337.515 121.189V117.228H335.866V115.63H337.515V113.437L339.64 112.893V115.63H341.935V117.228H339.64V121.053C339.64 121.642 339.753 122.056 339.98 122.294C340.207 122.532 340.518 122.651 340.915 122.651C341.13 122.651 341.312 122.634 341.459 122.6C341.618 122.566 341.771 122.52 341.918 122.464V124.147C341.725 124.226 341.51 124.283 341.272 124.317C341.045 124.362 340.824 124.385 340.609 124.385ZM348.231 124.215V112.23H350.152L354.555 122.141H354.028L358.431 112.23H360.335V124.215H358.346V115.324H358.958L354.929 124.215H353.62L349.591 115.324H350.22V124.215H348.231ZM366.151 124.385C365.403 124.385 364.745 124.209 364.179 123.858C363.612 123.495 363.17 122.979 362.853 122.311C362.535 121.642 362.377 120.843 362.377 119.914C362.377 118.984 362.535 118.191 362.853 117.534C363.17 116.865 363.612 116.355 364.179 116.004C364.745 115.641 365.403 115.46 366.151 115.46C366.876 115.46 367.511 115.641 368.055 116.004C368.61 116.355 368.978 116.831 369.16 117.432H368.973L369.16 115.63H371.2C371.166 115.981 371.132 116.338 371.098 116.701C371.075 117.063 371.064 117.42 371.064 117.772V124.215H368.956L368.939 122.447H369.143C368.961 123.036 368.593 123.506 368.038 123.858C367.482 124.209 366.853 124.385 366.151 124.385ZM366.746 122.753C367.414 122.753 367.953 122.52 368.361 122.056C368.769 121.58 368.973 120.866 368.973 119.914C368.973 118.962 368.769 118.253 368.361 117.789C367.953 117.324 367.414 117.092 366.746 117.092C366.077 117.092 365.539 117.324 365.131 117.789C364.723 118.253 364.519 118.962 364.519 119.914C364.519 120.866 364.717 121.58 365.114 122.056C365.522 122.52 366.066 122.753 366.746 122.753ZM373.361 124.215V117.823C373.361 117.46 373.349 117.092 373.327 116.718C373.315 116.344 373.287 115.981 373.242 115.63H375.299L375.537 117.976H375.197C375.31 117.409 375.497 116.939 375.758 116.565C376.03 116.191 376.358 115.913 376.744 115.732C377.129 115.55 377.548 115.46 378.002 115.46C378.206 115.46 378.37 115.471 378.495 115.494C378.619 115.505 378.744 115.533 378.869 115.579L378.852 117.449C378.636 117.358 378.449 117.301 378.291 117.279C378.143 117.256 377.956 117.245 377.73 117.245C377.242 117.245 376.829 117.347 376.489 117.551C376.16 117.755 375.911 118.038 375.741 118.401C375.582 118.763 375.503 119.177 375.503 119.642V124.215H373.361ZM380.051 124.215V111.703H382.176V119.285H382.21L385.695 115.63H388.262L383.927 120.169L383.944 119.319L388.568 124.215H385.933L382.21 120.373H382.176V124.215H380.051ZM393.413 124.385C391.974 124.385 390.846 123.988 390.03 123.195C389.214 122.401 388.806 121.313 388.806 119.931C388.806 119.035 388.982 118.253 389.333 117.585C389.685 116.916 390.172 116.395 390.795 116.021C391.43 115.647 392.167 115.46 393.005 115.46C393.833 115.46 394.524 115.635 395.079 115.987C395.635 116.338 396.054 116.831 396.337 117.466C396.632 118.1 396.779 118.843 396.779 119.693V120.254H390.523V119.132H395.266L394.977 119.37C394.977 118.576 394.807 117.97 394.467 117.551C394.139 117.131 393.657 116.922 393.022 116.922C392.32 116.922 391.776 117.171 391.39 117.67C391.016 118.168 390.829 118.865 390.829 119.761V119.982C390.829 120.911 391.056 121.608 391.509 122.073C391.974 122.526 392.626 122.753 393.464 122.753C393.952 122.753 394.405 122.69 394.824 122.566C395.255 122.43 395.663 122.214 396.048 121.92L396.677 123.348C396.269 123.676 395.782 123.931 395.215 124.113C394.649 124.294 394.048 124.385 393.413 124.385ZM402.218 124.385C401.198 124.385 400.427 124.118 399.906 123.586C399.384 123.053 399.124 122.254 399.124 121.189V117.228H397.475V115.63H399.124V113.437L401.249 112.893V115.63H403.544V117.228H401.249V121.053C401.249 121.642 401.362 122.056 401.589 122.294C401.815 122.532 402.127 122.651 402.524 122.651C402.739 122.651 402.92 122.634 403.068 122.6C403.226 122.566 403.379 122.52 403.527 122.464V124.147C403.334 124.226 403.119 124.283 402.881 124.317C402.654 124.362 402.433 124.385 402.218 124.385Z" fill="#282828"/>
<path d="M277.805 152.329V142.459H282.131C283.204 142.459 284.03 142.688 284.609 143.145C285.187 143.593 285.477 144.218 285.477 145.021C285.477 145.618 285.299 146.122 284.945 146.533C284.59 146.944 284.1 147.219 283.475 147.359V147.149C284.193 147.252 284.749 147.513 285.141 147.933C285.542 148.344 285.743 148.89 285.743 149.571C285.743 150.448 285.439 151.13 284.833 151.615C284.226 152.091 283.381 152.329 282.299 152.329H277.805ZM279.541 150.957H282.089C282.695 150.957 283.167 150.845 283.503 150.621C283.839 150.388 284.007 150.01 284.007 149.487C284.007 148.955 283.839 148.577 283.503 148.353C283.167 148.12 282.695 148.003 282.089 148.003H279.541V150.957ZM279.541 146.645H281.823C282.467 146.645 282.943 146.528 283.251 146.295C283.568 146.052 283.727 145.698 283.727 145.231C283.727 144.764 283.568 144.414 283.251 144.181C282.943 143.938 282.467 143.817 281.823 143.817H279.541V146.645ZM290.061 152.469C289.445 152.469 288.903 152.324 288.437 152.035C287.97 151.736 287.606 151.312 287.345 150.761C287.083 150.21 286.953 149.552 286.953 148.787C286.953 148.022 287.083 147.368 287.345 146.827C287.606 146.276 287.97 145.856 288.437 145.567C288.903 145.268 289.445 145.119 290.061 145.119C290.658 145.119 291.181 145.268 291.629 145.567C292.086 145.856 292.389 146.248 292.539 146.743H292.385L292.539 145.259H294.219C294.191 145.548 294.163 145.842 294.135 146.141C294.116 146.44 294.107 146.734 294.107 147.023V152.329H292.371L292.357 150.873H292.525C292.375 151.358 292.072 151.746 291.615 152.035C291.157 152.324 290.639 152.469 290.061 152.469ZM290.551 151.125C291.101 151.125 291.545 150.934 291.881 150.551C292.217 150.159 292.385 149.571 292.385 148.787C292.385 148.003 292.217 147.42 291.881 147.037C291.545 146.654 291.101 146.463 290.551 146.463C290 146.463 289.557 146.654 289.221 147.037C288.885 147.42 288.717 148.003 288.717 148.787C288.717 149.571 288.88 150.159 289.207 150.551C289.543 150.934 289.991 151.125 290.551 151.125ZM296.012 152.329V142.025H297.762V152.329H296.012ZM302.393 152.469C301.777 152.469 301.235 152.324 300.769 152.035C300.302 151.736 299.938 151.312 299.677 150.761C299.415 150.21 299.285 149.552 299.285 148.787C299.285 148.022 299.415 147.368 299.677 146.827C299.938 146.276 300.302 145.856 300.769 145.567C301.235 145.268 301.777 145.119 302.393 145.119C302.99 145.119 303.513 145.268 303.961 145.567C304.418 145.856 304.721 146.248 304.871 146.743H304.717L304.871 145.259H306.551C306.523 145.548 306.495 145.842 306.467 146.141C306.448 146.44 306.439 146.734 306.439 147.023V152.329H304.703L304.689 150.873H304.857C304.707 151.358 304.404 151.746 303.947 152.035C303.489 152.324 302.971 152.469 302.393 152.469ZM302.883 151.125C303.433 151.125 303.877 150.934 304.213 150.551C304.549 150.159 304.717 149.571 304.717 148.787C304.717 148.003 304.549 147.42 304.213 147.037C303.877 146.654 303.433 146.463 302.883 146.463C302.332 146.463 301.889 146.654 301.553 147.037C301.217 147.42 301.049 148.003 301.049 148.787C301.049 149.571 301.212 150.159 301.539 150.551C301.875 150.934 302.323 151.125 302.883 151.125ZM308.344 152.329V147.023C308.344 146.734 308.335 146.44 308.316 146.141C308.298 145.842 308.27 145.548 308.232 145.259H309.926L310.066 146.659H309.898C310.122 146.164 310.454 145.786 310.892 145.525C311.331 145.254 311.84 145.119 312.418 145.119C313.249 145.119 313.874 145.352 314.294 145.819C314.714 146.286 314.924 147.014 314.924 148.003V152.329H313.174V148.087C313.174 147.518 313.062 147.112 312.838 146.869C312.624 146.617 312.297 146.491 311.858 146.491C311.317 146.491 310.888 146.659 310.57 146.995C310.253 147.331 310.094 147.779 310.094 148.339V152.329H308.344ZM320.028 152.469C319.3 152.469 318.661 152.32 318.11 152.021C317.569 151.722 317.149 151.298 316.85 150.747C316.551 150.187 316.402 149.524 316.402 148.759C316.402 147.994 316.551 147.34 316.85 146.799C317.158 146.258 317.583 145.842 318.124 145.553C318.665 145.264 319.3 145.119 320.028 145.119C320.495 145.119 320.947 145.194 321.386 145.343C321.834 145.483 322.198 145.688 322.478 145.959L321.946 147.177C321.694 146.944 321.409 146.771 321.092 146.659C320.784 146.538 320.481 146.477 320.182 146.477C319.557 146.477 319.067 146.673 318.712 147.065C318.367 147.457 318.194 148.026 318.194 148.773C318.194 149.52 318.367 150.094 318.712 150.495C319.067 150.896 319.557 151.097 320.182 151.097C320.471 151.097 320.77 151.041 321.078 150.929C321.395 150.817 321.685 150.644 321.946 150.411L322.478 151.615C322.189 151.886 321.82 152.096 321.372 152.245C320.933 152.394 320.485 152.469 320.028 152.469ZM327.114 152.469C325.929 152.469 325 152.142 324.328 151.489C323.656 150.836 323.32 149.94 323.32 148.801C323.32 148.064 323.465 147.42 323.754 146.869C324.043 146.318 324.445 145.889 324.958 145.581C325.481 145.273 326.087 145.119 326.778 145.119C327.459 145.119 328.029 145.264 328.486 145.553C328.943 145.842 329.289 146.248 329.522 146.771C329.765 147.294 329.886 147.905 329.886 148.605V149.067H324.734V148.143H328.64L328.402 148.339C328.402 147.686 328.262 147.186 327.982 146.841C327.711 146.496 327.315 146.323 326.792 146.323C326.213 146.323 325.765 146.528 325.448 146.939C325.14 147.35 324.986 147.924 324.986 148.661V148.843C324.986 149.608 325.173 150.182 325.546 150.565C325.929 150.938 326.465 151.125 327.156 151.125C327.557 151.125 327.931 151.074 328.276 150.971C328.631 150.859 328.967 150.682 329.284 150.439L329.802 151.615C329.466 151.886 329.065 152.096 328.598 152.245C328.131 152.394 327.637 152.469 327.114 152.469ZM331.172 147.191V145.259H333.132V147.191H331.172ZM331.172 152.329V150.383H333.132V152.329H331.172ZM276.713 178.329L281.179 168.459H282.691L287.213 178.329H285.379L284.175 175.557L284.903 176.047H278.981L279.737 175.557L278.533 178.329H276.713ZM281.921 170.391L279.947 175.067L279.583 174.633H284.287L283.993 175.067L281.977 170.391H281.921ZM290.84 178.469C290.224 178.469 289.678 178.324 289.202 178.035C288.736 177.736 288.372 177.312 288.11 176.761C287.849 176.21 287.718 175.552 287.718 174.787C287.718 174.022 287.849 173.368 288.11 172.827C288.372 172.276 288.736 171.856 289.202 171.567C289.678 171.268 290.224 171.119 290.84 171.119C291.428 171.119 291.946 171.264 292.394 171.553C292.852 171.833 293.155 172.216 293.304 172.701H293.122V168.025H294.872V178.329H293.15V176.831H293.318C293.169 177.335 292.866 177.736 292.408 178.035C291.96 178.324 291.438 178.469 290.84 178.469ZM291.33 177.125C291.881 177.125 292.324 176.934 292.66 176.551C292.996 176.159 293.164 175.571 293.164 174.787C293.164 174.003 292.996 173.42 292.66 173.037C292.324 172.654 291.881 172.463 291.33 172.463C290.78 172.463 290.332 172.654 289.986 173.037C289.65 173.42 289.482 174.003 289.482 174.787C289.482 175.571 289.65 176.159 289.986 176.551C290.332 176.934 290.78 177.125 291.33 177.125ZM299.522 178.469C298.906 178.469 298.36 178.324 297.884 178.035C297.417 177.736 297.053 177.312 296.792 176.761C296.531 176.21 296.4 175.552 296.4 174.787C296.4 174.022 296.531 173.368 296.792 172.827C297.053 172.276 297.417 171.856 297.884 171.567C298.36 171.268 298.906 171.119 299.522 171.119C300.11 171.119 300.628 171.264 301.076 171.553C301.533 171.833 301.837 172.216 301.986 172.701H301.804V168.025H303.554V178.329H301.832V176.831H302C301.851 177.335 301.547 177.736 301.09 178.035C300.642 178.324 300.119 178.469 299.522 178.469ZM300.012 177.125C300.563 177.125 301.006 176.934 301.342 176.551C301.678 176.159 301.846 175.571 301.846 174.787C301.846 174.003 301.678 173.42 301.342 173.037C301.006 172.654 300.563 172.463 300.012 172.463C299.461 172.463 299.013 172.654 298.668 173.037C298.332 173.42 298.164 174.003 298.164 174.787C298.164 175.571 298.332 176.159 298.668 176.551C299.013 176.934 299.461 177.125 300.012 177.125ZM305.446 178.329V173.065C305.446 172.766 305.436 172.463 305.418 172.155C305.408 171.847 305.385 171.548 305.348 171.259H307.042L307.238 173.191H306.958C307.051 172.724 307.205 172.337 307.42 172.029C307.644 171.721 307.914 171.492 308.232 171.343C308.549 171.194 308.894 171.119 309.268 171.119C309.436 171.119 309.571 171.128 309.674 171.147C309.776 171.156 309.879 171.18 309.982 171.217L309.968 172.757C309.79 172.682 309.636 172.636 309.506 172.617C309.384 172.598 309.23 172.589 309.044 172.589C308.642 172.589 308.302 172.673 308.022 172.841C307.751 173.009 307.546 173.242 307.406 173.541C307.275 173.84 307.21 174.18 307.21 174.563V178.329H305.446ZM314.262 178.469C313.077 178.469 312.148 178.142 311.476 177.489C310.804 176.836 310.468 175.94 310.468 174.801C310.468 174.064 310.613 173.42 310.902 172.869C311.192 172.318 311.593 171.889 312.106 171.581C312.629 171.273 313.236 171.119 313.926 171.119C314.608 171.119 315.177 171.264 315.634 171.553C316.092 171.842 316.437 172.248 316.67 172.771C316.913 173.294 317.034 173.905 317.034 174.605V175.067H311.882V174.143H315.788L315.55 174.339C315.55 173.686 315.41 173.186 315.13 172.841C314.86 172.496 314.463 172.323 313.94 172.323C313.362 172.323 312.914 172.528 312.596 172.939C312.288 173.35 312.134 173.924 312.134 174.661V174.843C312.134 175.608 312.321 176.182 312.694 176.565C313.077 176.938 313.614 177.125 314.304 177.125C314.706 177.125 315.079 177.074 315.424 176.971C315.779 176.859 316.115 176.682 316.432 176.439L316.95 177.615C316.614 177.886 316.213 178.096 315.746 178.245C315.28 178.394 314.785 178.469 314.262 178.469ZM321.036 178.469C320.43 178.469 319.87 178.399 319.356 178.259C318.852 178.11 318.428 177.904 318.082 177.643L318.572 176.467C318.927 176.71 319.319 176.896 319.748 177.027C320.178 177.158 320.612 177.223 321.05 177.223C321.517 177.223 321.862 177.144 322.086 176.985C322.32 176.826 322.436 176.612 322.436 176.341C322.436 176.126 322.362 175.958 322.212 175.837C322.072 175.706 321.844 175.608 321.526 175.543L320.126 175.277C319.529 175.146 319.072 174.922 318.754 174.605C318.446 174.288 318.292 173.872 318.292 173.359C318.292 172.92 318.409 172.533 318.642 172.197C318.885 171.861 319.226 171.6 319.664 171.413C320.112 171.217 320.635 171.119 321.232 171.119C321.755 171.119 322.245 171.189 322.702 171.329C323.169 171.469 323.561 171.679 323.878 171.959L323.374 173.093C323.085 172.86 322.754 172.678 322.38 172.547C322.007 172.416 321.643 172.351 321.288 172.351C320.803 172.351 320.448 172.44 320.224 172.617C320 172.785 319.888 173.004 319.888 173.275C319.888 173.48 319.954 173.653 320.084 173.793C320.224 173.924 320.439 174.022 320.728 174.087L322.128 174.353C322.754 174.474 323.225 174.689 323.542 174.997C323.869 175.296 324.032 175.706 324.032 176.229C324.032 176.696 323.906 177.097 323.654 177.433C323.402 177.769 323.052 178.026 322.604 178.203C322.156 178.38 321.634 178.469 321.036 178.469ZM328.05 178.469C327.443 178.469 326.883 178.399 326.37 178.259C325.866 178.11 325.441 177.904 325.096 177.643L325.586 176.467C325.941 176.71 326.333 176.896 326.762 177.027C327.191 177.158 327.625 177.223 328.064 177.223C328.531 177.223 328.876 177.144 329.1 176.985C329.333 176.826 329.45 176.612 329.45 176.341C329.45 176.126 329.375 175.958 329.226 175.837C329.086 175.706 328.857 175.608 328.54 175.543L327.14 175.277C326.543 175.146 326.085 174.922 325.768 174.605C325.46 174.288 325.306 173.872 325.306 173.359C325.306 172.92 325.423 172.533 325.656 172.197C325.899 171.861 326.239 171.6 326.678 171.413C327.126 171.217 327.649 171.119 328.246 171.119C328.769 171.119 329.259 171.189 329.716 171.329C330.183 171.469 330.575 171.679 330.892 171.959L330.388 173.093C330.099 172.86 329.767 172.678 329.394 172.547C329.021 172.416 328.657 172.351 328.302 172.351C327.817 172.351 327.462 172.44 327.238 172.617C327.014 172.785 326.902 173.004 326.902 173.275C326.902 173.48 326.967 173.653 327.098 173.793C327.238 173.924 327.453 174.022 327.742 174.087L329.142 174.353C329.767 174.474 330.239 174.689 330.556 174.997C330.883 175.296 331.046 175.706 331.046 176.229C331.046 176.696 330.92 177.097 330.668 177.433C330.416 177.769 330.066 178.026 329.618 178.203C329.17 178.38 328.647 178.469 328.05 178.469ZM335.96 178.469C334.774 178.469 333.846 178.142 333.174 177.489C332.502 176.836 332.166 175.94 332.166 174.801C332.166 174.064 332.31 173.42 332.6 172.869C332.889 172.318 333.29 171.889 333.804 171.581C334.326 171.273 334.933 171.119 335.624 171.119C336.305 171.119 336.874 171.264 337.332 171.553C337.789 171.842 338.134 172.248 338.368 172.771C338.61 173.294 338.732 173.905 338.732 174.605V175.067H333.58V174.143H337.486L337.248 174.339C337.248 173.686 337.108 173.186 336.828 172.841C336.557 172.496 336.16 172.323 335.638 172.323C335.059 172.323 334.611 172.528 334.294 172.939C333.986 173.35 333.832 173.924 333.832 174.661V174.843C333.832 175.608 334.018 176.182 334.392 176.565C334.774 176.938 335.311 177.125 336.002 177.125C336.403 177.125 336.776 177.074 337.122 176.971C337.476 176.859 337.812 176.682 338.13 176.439L338.648 177.615C338.312 177.886 337.91 178.096 337.444 178.245C336.977 178.394 336.482 178.469 335.96 178.469ZM342.734 178.469C342.127 178.469 341.567 178.399 341.054 178.259C340.55 178.11 340.125 177.904 339.78 177.643L340.27 176.467C340.624 176.71 341.016 176.896 341.446 177.027C341.875 177.158 342.309 177.223 342.748 177.223C343.214 177.223 343.56 177.144 343.784 176.985C344.017 176.826 344.134 176.612 344.134 176.341C344.134 176.126 344.059 175.958 343.91 175.837C343.77 175.706 343.541 175.608 343.224 175.543L341.824 175.277C341.226 175.146 340.769 174.922 340.452 174.605C340.144 174.288 339.99 173.872 339.99 173.359C339.99 172.92 340.106 172.533 340.34 172.197C340.582 171.861 340.923 171.6 341.362 171.413C341.81 171.217 342.332 171.119 342.93 171.119C343.452 171.119 343.942 171.189 344.4 171.329C344.866 171.469 345.258 171.679 345.576 171.959L345.072 173.093C344.782 172.86 344.451 172.678 344.078 172.547C343.704 172.416 343.34 172.351 342.986 172.351C342.5 172.351 342.146 172.44 341.922 172.617C341.698 172.785 341.586 173.004 341.586 173.275C341.586 173.48 341.651 173.653 341.782 173.793C341.922 173.924 342.136 174.022 342.426 174.087L343.826 174.353C344.451 174.474 344.922 174.689 345.24 174.997C345.566 175.296 345.73 175.706 345.73 176.229C345.73 176.696 345.604 177.097 345.352 177.433C345.1 177.769 344.75 178.026 344.302 178.203C343.854 178.38 343.331 178.469 342.734 178.469ZM347.031 173.191V171.259H348.991V173.191H347.031ZM347.031 178.329V176.383H348.991V178.329H347.031ZM280.129 204.329V195.943H276.867V194.459H285.197V195.943H281.935V204.329H280.129ZM285.225 204.329V199.065C285.225 198.766 285.216 198.463 285.197 198.155C285.188 197.847 285.164 197.548 285.127 197.259H286.821L287.017 199.191H286.737C286.83 198.724 286.984 198.337 287.199 198.029C287.423 197.721 287.694 197.492 288.011 197.343C288.328 197.194 288.674 197.119 289.047 197.119C289.215 197.119 289.35 197.128 289.453 197.147C289.556 197.156 289.658 197.18 289.761 197.217L289.747 198.757C289.57 198.682 289.416 198.636 289.285 198.617C289.164 198.598 289.01 198.589 288.823 198.589C288.422 198.589 288.081 198.673 287.801 198.841C287.53 199.009 287.325 199.242 287.185 199.541C287.054 199.84 286.989 200.18 286.989 200.563V204.329H285.225ZM293.397 204.469C292.781 204.469 292.239 204.324 291.773 204.035C291.306 203.736 290.942 203.312 290.681 202.761C290.419 202.21 290.289 201.552 290.289 200.787C290.289 200.022 290.419 199.368 290.681 198.827C290.942 198.276 291.306 197.856 291.773 197.567C292.239 197.268 292.781 197.119 293.397 197.119C293.994 197.119 294.517 197.268 294.965 197.567C295.422 197.856 295.725 198.248 295.875 198.743H295.721L295.875 197.259H297.555C297.527 197.548 297.499 197.842 297.471 198.141C297.452 198.44 297.443 198.734 297.443 199.023V204.329H295.707L295.693 202.873H295.861C295.711 203.358 295.408 203.746 294.951 204.035C294.493 204.324 293.975 204.469 293.397 204.469ZM293.887 203.125C294.437 203.125 294.881 202.934 295.217 202.551C295.553 202.159 295.721 201.571 295.721 200.787C295.721 200.003 295.553 199.42 295.217 199.037C294.881 198.654 294.437 198.463 293.887 198.463C293.336 198.463 292.893 198.654 292.557 199.037C292.221 199.42 292.053 200.003 292.053 200.787C292.053 201.571 292.216 202.159 292.543 202.551C292.879 202.934 293.327 203.125 293.887 203.125ZM299.348 204.329V199.023C299.348 198.734 299.339 198.44 299.32 198.141C299.302 197.842 299.274 197.548 299.236 197.259H300.93L301.07 198.659H300.902C301.126 198.164 301.458 197.786 301.896 197.525C302.335 197.254 302.844 197.119 303.422 197.119C304.253 197.119 304.878 197.352 305.298 197.819C305.718 198.286 305.928 199.014 305.928 200.003V204.329H304.178V200.087C304.178 199.518 304.066 199.112 303.842 198.869C303.628 198.617 303.301 198.491 302.862 198.491C302.321 198.491 301.892 198.659 301.574 198.995C301.257 199.331 301.098 199.779 301.098 200.339V204.329H299.348ZM310.304 204.469C309.697 204.469 309.137 204.399 308.624 204.259C308.12 204.11 307.695 203.904 307.35 203.643L307.84 202.467C308.195 202.71 308.587 202.896 309.016 203.027C309.445 203.158 309.879 203.223 310.318 203.223C310.785 203.223 311.13 203.144 311.354 202.985C311.587 202.826 311.704 202.612 311.704 202.341C311.704 202.126 311.629 201.958 311.48 201.837C311.34 201.706 311.111 201.608 310.794 201.543L309.394 201.277C308.797 201.146 308.339 200.922 308.022 200.605C307.714 200.288 307.56 199.872 307.56 199.359C307.56 198.92 307.677 198.533 307.91 198.197C308.153 197.861 308.493 197.6 308.932 197.413C309.38 197.217 309.903 197.119 310.5 197.119C311.023 197.119 311.513 197.189 311.97 197.329C312.437 197.469 312.829 197.679 313.146 197.959L312.642 199.093C312.353 198.86 312.021 198.678 311.648 198.547C311.275 198.416 310.911 198.351 310.556 198.351C310.071 198.351 309.716 198.44 309.492 198.617C309.268 198.785 309.156 199.004 309.156 199.275C309.156 199.48 309.221 199.653 309.352 199.793C309.492 199.924 309.707 200.022 309.996 200.087L311.396 200.353C312.021 200.474 312.493 200.689 312.81 200.997C313.137 201.296 313.3 201.706 313.3 202.229C313.3 202.696 313.174 203.097 312.922 203.433C312.67 203.769 312.32 204.026 311.872 204.203C311.424 204.38 310.901 204.469 310.304 204.469ZM315.274 204.329V198.575H313.916V197.259H315.764L315.274 197.707V196.629C315.274 195.752 315.498 195.089 315.946 194.641C316.403 194.193 317.07 193.969 317.948 193.969C318.153 193.969 318.368 193.983 318.592 194.011C318.825 194.039 319.026 194.09 319.194 194.165V195.537C319.072 195.49 318.928 195.453 318.76 195.425C318.592 195.397 318.428 195.383 318.27 195.383C318.027 195.383 317.808 195.43 317.612 195.523C317.425 195.616 317.276 195.761 317.164 195.957C317.061 196.144 317.01 196.396 317.01 196.713V197.567L316.758 197.259H318.872V198.575H317.024V204.329H315.274ZM323.19 204.469C322.005 204.469 321.076 204.142 320.404 203.489C319.732 202.836 319.396 201.94 319.396 200.801C319.396 200.064 319.541 199.42 319.83 198.869C320.119 198.318 320.521 197.889 321.034 197.581C321.557 197.273 322.163 197.119 322.854 197.119C323.535 197.119 324.105 197.264 324.562 197.553C325.019 197.842 325.365 198.248 325.598 198.771C325.841 199.294 325.962 199.905 325.962 200.605V201.067H320.81V200.143H324.716L324.478 200.339C324.478 199.686 324.338 199.186 324.058 198.841C323.787 198.496 323.391 198.323 322.868 198.323C322.289 198.323 321.841 198.528 321.524 198.939C321.216 199.35 321.062 199.924 321.062 200.661V200.843C321.062 201.608 321.249 202.182 321.622 202.565C322.005 202.938 322.541 203.125 323.232 203.125C323.633 203.125 324.007 203.074 324.352 202.971C324.707 202.859 325.043 202.682 325.36 202.439L325.878 203.615C325.542 203.886 325.141 204.096 324.674 204.245C324.207 204.394 323.713 204.469 323.19 204.469ZM327.43 204.329V199.065C327.43 198.766 327.421 198.463 327.402 198.155C327.393 197.847 327.369 197.548 327.332 197.259H329.026L329.222 199.191H328.942C329.035 198.724 329.189 198.337 329.404 198.029C329.628 197.721 329.899 197.492 330.216 197.343C330.533 197.194 330.879 197.119 331.252 197.119C331.42 197.119 331.555 197.128 331.658 197.147C331.761 197.156 331.863 197.18 331.966 197.217L331.952 198.757C331.775 198.682 331.621 198.636 331.49 198.617C331.369 198.598 331.215 198.589 331.028 198.589C330.627 198.589 330.286 198.673 330.006 198.841C329.735 199.009 329.53 199.242 329.39 199.541C329.259 199.84 329.194 200.18 329.194 200.563V204.329H327.43ZM335.392 204.469C334.785 204.469 334.225 204.399 333.712 204.259C333.208 204.11 332.783 203.904 332.438 203.643L332.928 202.467C333.282 202.71 333.674 202.896 334.104 203.027C334.533 203.158 334.967 203.223 335.406 203.223C335.872 203.223 336.218 203.144 336.442 202.985C336.675 202.826 336.792 202.612 336.792 202.341C336.792 202.126 336.717 201.958 336.568 201.837C336.428 201.706 336.199 201.608 335.882 201.543L334.482 201.277C333.884 201.146 333.427 200.922 333.11 200.605C332.802 200.288 332.648 199.872 332.648 199.359C332.648 198.92 332.764 198.533 332.998 198.197C333.24 197.861 333.581 197.6 334.02 197.413C334.468 197.217 334.99 197.119 335.588 197.119C336.11 197.119 336.6 197.189 337.058 197.329C337.524 197.469 337.916 197.679 338.234 197.959L337.73 199.093C337.44 198.86 337.109 198.678 336.736 198.547C336.362 198.416 335.998 198.351 335.644 198.351C335.158 198.351 334.804 198.44 334.58 198.617C334.356 198.785 334.244 199.004 334.244 199.275C334.244 199.48 334.309 199.653 334.44 199.793C334.58 199.924 334.794 200.022 335.084 200.087L336.484 200.353C337.109 200.474 337.58 200.689 337.898 200.997C338.224 201.296 338.388 201.706 338.388 202.229C338.388 202.696 338.262 203.097 338.01 203.433C337.758 203.769 337.408 204.026 336.96 204.203C336.512 204.38 335.989 204.469 335.392 204.469ZM339.689 199.191V197.259H341.649V199.191H339.689ZM339.689 204.329V202.383H341.649V204.329H339.689Z" fill="#282828"/>
<path d="M385.629 152.329V150.187H380.925V149.347L385.811 142.459H386.763V149.249H388.275V150.187H386.763V152.329H385.629ZM385.629 149.249V143.831H385.937L381.877 149.543V149.249H385.629ZM392.82 152.455C391.7 152.455 390.841 152.021 390.244 151.153C389.646 150.285 389.348 149.03 389.348 147.387C389.348 145.735 389.646 144.48 390.244 143.621C390.841 142.762 391.7 142.333 392.82 142.333C393.949 142.333 394.808 142.762 395.396 143.621C395.993 144.48 396.292 145.73 396.292 147.373C396.292 149.025 395.993 150.285 395.396 151.153C394.798 152.021 393.94 152.455 392.82 152.455ZM392.82 151.447C393.604 151.447 394.187 151.116 394.57 150.453C394.952 149.79 395.144 148.764 395.144 147.373C395.144 145.973 394.952 144.951 394.57 144.307C394.187 143.654 393.604 143.327 392.82 143.327C392.045 143.327 391.462 143.654 391.07 144.307C390.687 144.96 390.496 145.982 390.496 147.373C390.496 148.764 390.687 149.79 391.07 150.453C391.462 151.116 392.045 151.447 392.82 151.447ZM397.896 152.329V150.901H399.324V152.329H397.896ZM401.978 152.329V151.335H404.302V143.453H404.918L402.202 145.147V143.985L404.624 142.459H405.464V151.335H407.648V152.329H401.978ZM410.372 152.329V151.335H412.696V143.453H413.312L410.596 145.147V143.985L413.018 142.459H413.858V151.335H416.042V152.329H410.372ZM421.511 152.455C420.316 152.455 419.392 152.035 418.739 151.195C418.095 150.346 417.773 149.16 417.773 147.639C417.773 146.5 417.936 145.539 418.263 144.755C418.589 143.962 419.056 143.36 419.663 142.949C420.269 142.538 421.002 142.333 421.861 142.333C422.374 142.333 422.892 142.44 423.415 142.655C423.937 142.86 424.367 143.15 424.703 143.523L424.283 144.419C423.928 144.055 423.541 143.789 423.121 143.621C422.701 143.444 422.276 143.355 421.847 143.355C420.895 143.355 420.162 143.696 419.649 144.377C419.145 145.049 418.893 146.062 418.893 147.415V148.717H418.767C418.832 148.185 418.991 147.728 419.243 147.345C419.504 146.953 419.845 146.654 420.265 146.449C420.685 146.244 421.151 146.141 421.665 146.141C422.262 146.141 422.789 146.272 423.247 146.533C423.704 146.794 424.063 147.163 424.325 147.639C424.586 148.106 424.717 148.642 424.717 149.249C424.717 149.865 424.581 150.416 424.311 150.901C424.04 151.386 423.662 151.769 423.177 152.049C422.691 152.32 422.136 152.455 421.511 152.455ZM421.427 151.475C421.856 151.475 422.234 151.386 422.561 151.209C422.897 151.022 423.153 150.766 423.331 150.439C423.517 150.103 423.611 149.72 423.611 149.291C423.611 148.862 423.517 148.484 423.331 148.157C423.153 147.83 422.897 147.574 422.561 147.387C422.234 147.2 421.856 147.107 421.427 147.107C420.997 147.107 420.619 147.2 420.293 147.387C419.966 147.574 419.709 147.83 419.523 148.157C419.345 148.484 419.257 148.862 419.257 149.291C419.257 149.72 419.345 150.103 419.523 150.439C419.709 150.766 419.966 151.022 420.293 151.209C420.619 151.386 420.997 151.475 421.427 151.475ZM429.583 152.455C428.454 152.455 427.581 152.217 426.965 151.741C426.349 151.256 426.041 150.579 426.041 149.711C426.041 149.03 426.251 148.465 426.671 148.017C427.091 147.56 427.647 147.284 428.337 147.191V147.401C427.712 147.27 427.213 146.986 426.839 146.547C426.466 146.099 426.279 145.572 426.279 144.965C426.279 144.134 426.573 143.49 427.161 143.033C427.749 142.566 428.557 142.333 429.583 142.333C430.619 142.333 431.431 142.566 432.019 143.033C432.607 143.49 432.901 144.134 432.901 144.965C432.901 145.572 432.724 146.099 432.369 146.547C432.024 146.995 431.539 147.275 430.913 147.387V147.191C431.595 147.284 432.136 147.56 432.537 148.017C432.939 148.465 433.139 149.03 433.139 149.711C433.139 150.579 432.831 151.256 432.215 151.741C431.599 152.217 430.722 152.455 429.583 152.455ZM429.583 151.503C430.405 151.503 431.016 151.349 431.417 151.041C431.828 150.733 432.033 150.266 432.033 149.641C432.033 149.025 431.828 148.568 431.417 148.269C431.016 147.961 430.405 147.807 429.583 147.807C428.762 147.807 428.146 147.961 427.735 148.269C427.334 148.568 427.133 149.025 427.133 149.641C427.133 150.266 427.339 150.733 427.749 151.041C428.16 151.349 428.771 151.503 429.583 151.503ZM429.583 146.855C430.293 146.855 430.834 146.696 431.207 146.379C431.59 146.062 431.781 145.623 431.781 145.063C431.781 144.503 431.59 144.069 431.207 143.761C430.834 143.444 430.293 143.285 429.583 143.285C428.874 143.285 428.328 143.444 427.945 143.761C427.572 144.069 427.385 144.503 427.385 145.063C427.385 145.623 427.572 146.062 427.945 146.379C428.328 146.696 428.874 146.855 429.583 146.855ZM435.556 152.329V151.335H437.88V143.453H438.496L435.78 145.147V143.985L438.202 142.459H439.042V151.335H441.226V152.329H435.556ZM443.754 152.329L448.612 142.949V143.453H443.096V142.459H449.662V143.327L445.028 152.329H443.754ZM455.449 152.329V142.459H459.397C460.443 142.459 461.25 142.683 461.819 143.131C462.389 143.579 462.673 144.214 462.673 145.035C462.673 145.651 462.487 146.164 462.113 146.575C461.749 146.986 461.241 147.256 460.587 147.387V147.191C461.315 147.275 461.885 147.527 462.295 147.947C462.715 148.358 462.925 148.913 462.925 149.613C462.925 150.49 462.631 151.162 462.043 151.629C461.465 152.096 460.643 152.329 459.579 152.329H455.449ZM456.583 151.391H459.467C460.177 151.391 460.737 151.256 461.147 150.985C461.567 150.705 461.777 150.243 461.777 149.599C461.777 148.946 461.567 148.484 461.147 148.213C460.737 147.933 460.177 147.793 459.467 147.793H456.583V151.391ZM456.583 146.869H459.229C459.995 146.869 460.569 146.72 460.951 146.421C461.334 146.122 461.525 145.693 461.525 145.133C461.525 144.554 461.334 144.12 460.951 143.831C460.569 143.532 459.995 143.383 459.229 143.383H456.583V146.869ZM467.222 152.329V143.439H463.736V142.459H471.856V143.439H468.384V152.329H467.222ZM476.96 152.455C475.971 152.455 475.131 152.25 474.44 151.839C473.75 151.428 473.218 150.845 472.844 150.089C472.48 149.333 472.298 148.432 472.298 147.387C472.298 146.342 472.48 145.446 472.844 144.699C473.218 143.943 473.75 143.36 474.44 142.949C475.131 142.538 475.971 142.333 476.96 142.333C477.66 142.333 478.286 142.44 478.836 142.655C479.387 142.87 479.868 143.182 480.278 143.593L479.844 144.517C479.396 144.125 478.953 143.84 478.514 143.663C478.076 143.476 477.562 143.383 476.974 143.383C475.845 143.383 474.986 143.733 474.398 144.433C473.81 145.133 473.516 146.118 473.516 147.387C473.516 148.656 473.81 149.646 474.398 150.355C474.986 151.055 475.845 151.405 476.974 151.405C477.562 151.405 478.076 151.316 478.514 151.139C478.953 150.952 479.396 150.658 479.844 150.257L480.278 151.195C479.868 151.596 479.387 151.909 478.836 152.133C478.286 152.348 477.66 152.455 476.96 152.455ZM417.072 178.329V177.461L420.572 173.807C421.029 173.331 421.37 172.878 421.594 172.449C421.827 172.01 421.944 171.558 421.944 171.091C421.944 170.522 421.766 170.092 421.412 169.803C421.057 169.504 420.544 169.355 419.872 169.355C419.349 169.355 418.864 169.448 418.416 169.635C417.977 169.812 417.552 170.097 417.142 170.489L416.722 169.579C417.095 169.206 417.571 168.907 418.15 168.683C418.728 168.45 419.34 168.333 419.984 168.333C420.982 168.333 421.752 168.566 422.294 169.033C422.835 169.49 423.106 170.144 423.106 170.993C423.106 171.618 422.952 172.216 422.644 172.785C422.345 173.345 421.906 173.924 421.328 174.521L418.234 177.657V177.335H423.526V178.329H417.072ZM425.732 179.925L425.2 179.519C425.452 179.258 425.616 179.01 425.69 178.777C425.774 178.553 425.816 178.324 425.816 178.091L426.068 178.329H425.144V176.901H426.572V177.909C426.572 178.282 426.512 178.632 426.39 178.959C426.269 179.295 426.05 179.617 425.732 179.925ZM429.03 178.329L433.888 168.949V169.453H428.372V168.459H434.938V169.327L430.304 178.329H429.03ZM437.046 178.329V177.461L440.546 173.807C441.004 173.331 441.344 172.878 441.568 172.449C441.802 172.01 441.918 171.558 441.918 171.091C441.918 170.522 441.741 170.092 441.386 169.803C441.032 169.504 440.518 169.355 439.846 169.355C439.324 169.355 438.838 169.448 438.39 169.635C437.952 169.812 437.527 170.097 437.116 170.489L436.696 169.579C437.07 169.206 437.546 168.907 438.124 168.683C438.703 168.45 439.314 168.333 439.958 168.333C440.957 168.333 441.727 168.566 442.268 169.033C442.81 169.49 443.08 170.144 443.08 170.993C443.08 171.618 442.926 172.216 442.618 172.785C442.32 173.345 441.881 173.924 441.302 174.521L438.208 177.657V177.335H443.5V178.329H437.046ZM448.759 178.455C447.564 178.455 446.64 178.035 445.987 177.195C445.343 176.346 445.021 175.16 445.021 173.639C445.021 172.5 445.184 171.539 445.511 170.755C445.837 169.962 446.304 169.36 446.911 168.949C447.517 168.538 448.25 168.333 449.109 168.333C449.622 168.333 450.14 168.44 450.663 168.655C451.185 168.86 451.615 169.15 451.951 169.523L451.531 170.419C451.176 170.055 450.789 169.789 450.369 169.621C449.949 169.444 449.524 169.355 449.095 169.355C448.143 169.355 447.41 169.696 446.897 170.377C446.393 171.049 446.141 172.062 446.141 173.415V174.717H446.015C446.08 174.185 446.239 173.728 446.491 173.345C446.752 172.953 447.093 172.654 447.513 172.449C447.933 172.244 448.399 172.141 448.913 172.141C449.51 172.141 450.037 172.272 450.495 172.533C450.952 172.794 451.311 173.163 451.573 173.639C451.834 174.106 451.965 174.642 451.965 175.249C451.965 175.865 451.829 176.416 451.559 176.901C451.288 177.386 450.91 177.769 450.425 178.049C449.939 178.32 449.384 178.455 448.759 178.455ZM448.675 177.475C449.104 177.475 449.482 177.386 449.809 177.209C450.145 177.022 450.401 176.766 450.579 176.439C450.765 176.103 450.859 175.72 450.859 175.291C450.859 174.862 450.765 174.484 450.579 174.157C450.401 173.83 450.145 173.574 449.809 173.387C449.482 173.2 449.104 173.107 448.675 173.107C448.245 173.107 447.867 173.2 447.541 173.387C447.214 173.574 446.957 173.83 446.771 174.157C446.593 174.484 446.505 174.862 446.505 175.291C446.505 175.72 446.593 176.103 446.771 176.439C446.957 176.766 447.214 177.022 447.541 177.209C447.867 177.386 448.245 177.475 448.675 177.475ZM454.101 179.925L453.569 179.519C453.821 179.258 453.985 179.01 454.059 178.777C454.143 178.553 454.185 178.324 454.185 178.091L454.437 178.329H453.513V176.901H454.941V177.909C454.941 178.282 454.881 178.632 454.759 178.959C454.638 179.295 454.419 179.617 454.101 179.925ZM457.595 178.329V177.335H459.919V169.453H460.535L457.819 171.147V169.985L460.241 168.459H461.081V177.335H463.265V178.329H457.595ZM468.355 178.455C467.693 178.455 467.058 178.352 466.451 178.147C465.845 177.942 465.336 177.648 464.925 177.265L465.359 176.369C465.817 176.742 466.288 177.013 466.773 177.181C467.259 177.349 467.781 177.433 468.341 177.433C469.079 177.433 469.639 177.279 470.021 176.971C470.404 176.654 470.595 176.192 470.595 175.585C470.595 175.006 470.399 174.568 470.007 174.269C469.615 173.961 469.041 173.807 468.285 173.807H466.801V172.841H468.187C468.841 172.841 469.359 172.673 469.741 172.337C470.124 172.001 470.315 171.544 470.315 170.965C470.315 170.442 470.138 170.046 469.783 169.775C469.438 169.495 468.939 169.355 468.285 169.355C467.221 169.355 466.302 169.733 465.527 170.489L465.093 169.579C465.476 169.187 465.957 168.884 466.535 168.669C467.114 168.445 467.721 168.333 468.355 168.333C469.326 168.333 470.087 168.557 470.637 169.005C471.188 169.453 471.463 170.074 471.463 170.867C471.463 171.474 471.291 171.996 470.945 172.435C470.6 172.864 470.133 173.158 469.545 173.317V173.163C470.245 173.275 470.787 173.555 471.169 174.003C471.552 174.442 471.743 174.997 471.743 175.669C471.743 176.528 471.44 177.209 470.833 177.713C470.236 178.208 469.41 178.455 468.355 178.455ZM477.128 178.455C475.933 178.455 475.009 178.035 474.356 177.195C473.712 176.346 473.39 175.16 473.39 173.639C473.39 172.5 473.553 171.539 473.88 170.755C474.207 169.962 474.673 169.36 475.28 168.949C475.887 168.538 476.619 168.333 477.478 168.333C477.991 168.333 478.509 168.44 479.032 168.655C479.555 168.86 479.984 169.15 480.32 169.523L479.9 170.419C479.545 170.055 479.158 169.789 478.738 169.621C478.318 169.444 477.893 169.355 477.464 169.355C476.512 169.355 475.779 169.696 475.266 170.377C474.762 171.049 474.51 172.062 474.51 173.415V174.717H474.384C474.449 174.185 474.608 173.728 474.86 173.345C475.121 172.953 475.462 172.654 475.882 172.449C476.302 172.244 476.769 172.141 477.282 172.141C477.879 172.141 478.407 172.272 478.864 172.533C479.321 172.794 479.681 173.163 479.942 173.639C480.203 174.106 480.334 174.642 480.334 175.249C480.334 175.865 480.199 176.416 479.928 176.901C479.657 177.386 479.279 177.769 478.794 178.049C478.309 178.32 477.753 178.455 477.128 178.455ZM477.044 177.475C477.473 177.475 477.851 177.386 478.178 177.209C478.514 177.022 478.771 176.766 478.948 176.439C479.135 176.103 479.228 175.72 479.228 175.291C479.228 174.862 479.135 174.484 478.948 174.157C478.771 173.83 478.514 173.574 478.178 173.387C477.851 173.2 477.473 173.107 477.044 173.107C476.615 173.107 476.237 173.2 475.91 173.387C475.583 173.574 475.327 173.83 475.14 174.157C474.963 174.484 474.874 174.862 474.874 175.291C474.874 175.72 474.963 176.103 475.14 176.439C475.327 176.766 475.583 177.022 475.91 177.209C476.237 177.386 476.615 177.475 477.044 177.475ZM420.25 204.455C419.82 204.455 419.4 204.408 418.99 204.315C418.579 204.222 418.192 204.086 417.828 203.909C417.473 203.732 417.16 203.517 416.89 203.265L417.324 202.369C417.781 202.733 418.248 203.004 418.724 203.181C419.2 203.349 419.708 203.433 420.25 203.433C420.959 203.433 421.514 203.242 421.916 202.859C422.317 202.476 422.518 201.972 422.518 201.347C422.518 200.703 422.326 200.176 421.944 199.765C421.561 199.354 421.029 199.149 420.348 199.149C419.862 199.149 419.428 199.247 419.046 199.443C418.663 199.63 418.332 199.924 418.052 200.325H417.212V194.459H423.064V195.439H418.332V199.373H418.024C418.276 198.981 418.621 198.682 419.06 198.477C419.508 198.262 420.012 198.155 420.572 198.155C421.206 198.155 421.752 198.286 422.21 198.547C422.676 198.808 423.036 199.172 423.288 199.639C423.54 200.106 423.666 200.652 423.666 201.277C423.666 201.902 423.526 202.458 423.246 202.943C422.975 203.419 422.583 203.792 422.07 204.063C421.566 204.324 420.959 204.455 420.25 204.455ZM425.732 205.925L425.2 205.519C425.452 205.258 425.616 205.01 425.69 204.777C425.774 204.553 425.816 204.324 425.816 204.091L426.068 204.329H425.144V202.901H426.572V203.909C426.572 204.282 426.512 204.632 426.39 204.959C426.269 205.295 426.05 205.617 425.732 205.925ZM430.99 204.455C430.476 204.455 429.958 204.348 429.436 204.133C428.913 203.909 428.479 203.62 428.134 203.265L428.568 202.355C428.922 202.719 429.31 202.99 429.73 203.167C430.15 203.344 430.574 203.433 431.004 203.433C431.946 203.433 432.67 203.097 433.174 202.425C433.687 201.744 433.944 200.726 433.944 199.373V198.071H434.084C434.028 198.594 433.864 199.051 433.594 199.443C433.332 199.835 432.992 200.134 432.572 200.339C432.161 200.544 431.699 200.647 431.186 200.647C430.588 200.647 430.056 200.516 429.59 200.255C429.132 199.994 428.773 199.625 428.512 199.149C428.25 198.673 428.12 198.136 428.12 197.539C428.12 196.914 428.255 196.363 428.526 195.887C428.806 195.402 429.184 195.024 429.66 194.753C430.145 194.473 430.7 194.333 431.326 194.333C432.53 194.333 433.454 194.753 434.098 195.593C434.751 196.433 435.078 197.618 435.078 199.149C435.078 200.278 434.914 201.24 434.588 202.033C434.261 202.826 433.794 203.428 433.188 203.839C432.581 204.25 431.848 204.455 430.99 204.455ZM431.424 199.681C431.853 199.681 432.231 199.588 432.558 199.401C432.884 199.214 433.136 198.958 433.314 198.631C433.5 198.304 433.594 197.926 433.594 197.497C433.594 197.058 433.5 196.676 433.314 196.349C433.136 196.022 432.884 195.766 432.558 195.579C432.231 195.392 431.853 195.299 431.424 195.299C430.994 195.299 430.612 195.392 430.276 195.579C429.949 195.766 429.692 196.022 429.506 196.349C429.328 196.676 429.24 197.058 429.24 197.497C429.24 197.926 429.328 198.304 429.506 198.631C429.692 198.958 429.949 199.214 430.276 199.401C430.612 199.588 430.994 199.681 431.424 199.681ZM437.046 204.329V203.461L440.546 199.807C441.004 199.331 441.344 198.878 441.568 198.449C441.802 198.01 441.918 197.558 441.918 197.091C441.918 196.522 441.741 196.092 441.386 195.803C441.032 195.504 440.518 195.355 439.846 195.355C439.324 195.355 438.838 195.448 438.39 195.635C437.952 195.812 437.527 196.097 437.116 196.489L436.696 195.579C437.07 195.206 437.546 194.907 438.124 194.683C438.703 194.45 439.314 194.333 439.958 194.333C440.957 194.333 441.727 194.566 442.268 195.033C442.81 195.49 443.08 196.144 443.08 196.993C443.08 197.618 442.926 198.216 442.618 198.785C442.32 199.345 441.881 199.924 441.302 200.521L438.208 203.657V203.335H443.5V204.329H437.046ZM448.759 204.455C447.564 204.455 446.64 204.035 445.987 203.195C445.343 202.346 445.021 201.16 445.021 199.639C445.021 198.5 445.184 197.539 445.511 196.755C445.837 195.962 446.304 195.36 446.911 194.949C447.517 194.538 448.25 194.333 449.109 194.333C449.622 194.333 450.14 194.44 450.663 194.655C451.185 194.86 451.615 195.15 451.951 195.523L451.531 196.419C451.176 196.055 450.789 195.789 450.369 195.621C449.949 195.444 449.524 195.355 449.095 195.355C448.143 195.355 447.41 195.696 446.897 196.377C446.393 197.049 446.141 198.062 446.141 199.415V200.717H446.015C446.08 200.185 446.239 199.728 446.491 199.345C446.752 198.953 447.093 198.654 447.513 198.449C447.933 198.244 448.399 198.141 448.913 198.141C449.51 198.141 450.037 198.272 450.495 198.533C450.952 198.794 451.311 199.163 451.573 199.639C451.834 200.106 451.965 200.642 451.965 201.249C451.965 201.865 451.829 202.416 451.559 202.901C451.288 203.386 450.91 203.769 450.425 204.049C449.939 204.32 449.384 204.455 448.759 204.455ZM448.675 203.475C449.104 203.475 449.482 203.386 449.809 203.209C450.145 203.022 450.401 202.766 450.579 202.439C450.765 202.103 450.859 201.72 450.859 201.291C450.859 200.862 450.765 200.484 450.579 200.157C450.401 199.83 450.145 199.574 449.809 199.387C449.482 199.2 449.104 199.107 448.675 199.107C448.245 199.107 447.867 199.2 447.541 199.387C447.214 199.574 446.957 199.83 446.771 200.157C446.593 200.484 446.505 200.862 446.505 201.291C446.505 201.72 446.593 202.103 446.771 202.439C446.957 202.766 447.214 203.022 447.541 203.209C447.867 203.386 448.245 203.475 448.675 203.475ZM454.101 205.925L453.569 205.519C453.821 205.258 453.985 205.01 454.059 204.777C454.143 204.553 454.185 204.324 454.185 204.091L454.437 204.329H453.513V202.901H454.941V203.909C454.941 204.282 454.881 204.632 454.759 204.959C454.638 205.295 454.419 205.617 454.101 205.925ZM460.339 204.455C459.144 204.455 458.22 204.035 457.567 203.195C456.923 202.346 456.601 201.16 456.601 199.639C456.601 198.5 456.764 197.539 457.091 196.755C457.418 195.962 457.884 195.36 458.491 194.949C459.098 194.538 459.83 194.333 460.689 194.333C461.202 194.333 461.72 194.44 462.243 194.655C462.766 194.86 463.195 195.15 463.531 195.523L463.111 196.419C462.756 196.055 462.369 195.789 461.949 195.621C461.529 195.444 461.104 195.355 460.675 195.355C459.723 195.355 458.99 195.696 458.477 196.377C457.973 197.049 457.721 198.062 457.721 199.415V200.717H457.595C457.66 200.185 457.819 199.728 458.071 199.345C458.332 198.953 458.673 198.654 459.093 198.449C459.513 198.244 459.98 198.141 460.493 198.141C461.09 198.141 461.618 198.272 462.075 198.533C462.532 198.794 462.892 199.163 463.153 199.639C463.414 200.106 463.545 200.642 463.545 201.249C463.545 201.865 463.41 202.416 463.139 202.901C462.868 203.386 462.49 203.769 462.005 204.049C461.52 204.32 460.964 204.455 460.339 204.455ZM460.255 203.475C460.684 203.475 461.062 203.386 461.389 203.209C461.725 203.022 461.982 202.766 462.159 202.439C462.346 202.103 462.439 201.72 462.439 201.291C462.439 200.862 462.346 200.484 462.159 200.157C461.982 199.83 461.725 199.574 461.389 199.387C461.062 199.2 460.684 199.107 460.255 199.107C459.826 199.107 459.448 199.2 459.121 199.387C458.794 199.574 458.538 199.83 458.351 200.157C458.174 200.484 458.085 200.862 458.085 201.291C458.085 201.72 458.174 202.103 458.351 202.439C458.538 202.766 458.794 203.022 459.121 203.209C459.448 203.386 459.826 203.475 460.255 203.475ZM468.411 204.455C467.282 204.455 466.409 204.217 465.793 203.741C465.177 203.256 464.869 202.579 464.869 201.711C464.869 201.03 465.079 200.465 465.499 200.017C465.919 199.56 466.475 199.284 467.165 199.191V199.401C466.54 199.27 466.041 198.986 465.667 198.547C465.294 198.099 465.107 197.572 465.107 196.965C465.107 196.134 465.401 195.49 465.989 195.033C466.577 194.566 467.385 194.333 468.411 194.333C469.447 194.333 470.259 194.566 470.847 195.033C471.435 195.49 471.729 196.134 471.729 196.965C471.729 197.572 471.552 198.099 471.197 198.547C470.852 198.995 470.367 199.275 469.741 199.387V199.191C470.423 199.284 470.964 199.56 471.365 200.017C471.767 200.465 471.967 201.03 471.967 201.711C471.967 202.579 471.659 203.256 471.043 203.741C470.427 204.217 469.55 204.455 468.411 204.455ZM468.411 203.503C469.233 203.503 469.844 203.349 470.245 203.041C470.656 202.733 470.861 202.266 470.861 201.641C470.861 201.025 470.656 200.568 470.245 200.269C469.844 199.961 469.233 199.807 468.411 199.807C467.59 199.807 466.974 199.961 466.563 200.269C466.162 200.568 465.961 201.025 465.961 201.641C465.961 202.266 466.167 202.733 466.577 203.041C466.988 203.349 467.599 203.503 468.411 203.503ZM468.411 198.855C469.121 198.855 469.662 198.696 470.035 198.379C470.418 198.062 470.609 197.623 470.609 197.063C470.609 196.503 470.418 196.069 470.035 195.761C469.662 195.444 469.121 195.285 468.411 195.285C467.702 195.285 467.156 195.444 466.773 195.761C466.4 196.069 466.213 196.503 466.213 197.063C466.213 197.623 466.4 198.062 466.773 198.379C467.156 198.696 467.702 198.855 468.411 198.855ZM476.75 204.455C476.087 204.455 475.453 204.352 474.846 204.147C474.239 203.942 473.731 203.648 473.32 203.265L473.754 202.369C474.211 202.742 474.683 203.013 475.168 203.181C475.653 203.349 476.176 203.433 476.736 203.433C477.473 203.433 478.033 203.279 478.416 202.971C478.799 202.654 478.99 202.192 478.99 201.585C478.99 201.006 478.794 200.568 478.402 200.269C478.01 199.961 477.436 199.807 476.68 199.807H475.196V198.841H476.582C477.235 198.841 477.753 198.673 478.136 198.337C478.519 198.001 478.71 197.544 478.71 196.965C478.71 196.442 478.533 196.046 478.178 195.775C477.833 195.495 477.333 195.355 476.68 195.355C475.616 195.355 474.697 195.733 473.922 196.489L473.488 195.579C473.871 195.187 474.351 194.884 474.93 194.669C475.509 194.445 476.115 194.333 476.75 194.333C477.721 194.333 478.481 194.557 479.032 195.005C479.583 195.453 479.858 196.074 479.858 196.867C479.858 197.474 479.685 197.996 479.34 198.435C478.995 198.864 478.528 199.158 477.94 199.317V199.163C478.64 199.275 479.181 199.555 479.564 200.003C479.947 200.442 480.138 200.997 480.138 201.669C480.138 202.528 479.835 203.209 479.228 203.713C478.631 204.208 477.805 204.455 476.75 204.455Z" fill="#282828"/>
<path d="M278.003 247.215V236.64H279.398V247.215H278.003ZM281.808 247.215V241.455C281.808 241.165 281.798 240.87 281.778 240.57C281.758 240.27 281.728 239.97 281.688 239.67H283.008L283.158 241.29H282.978C283.208 240.72 283.563 240.285 284.043 239.985C284.523 239.685 285.083 239.535 285.723 239.535C286.613 239.535 287.283 239.78 287.733 240.27C288.183 240.75 288.408 241.5 288.408 242.52V247.215H287.043V242.595C287.043 241.905 286.908 241.41 286.638 241.11C286.368 240.8 285.948 240.645 285.378 240.645C284.698 240.645 284.158 240.85 283.758 241.26C283.368 241.67 283.173 242.225 283.173 242.925V247.215H281.808ZM293.191 247.35C292.581 247.35 292.011 247.27 291.481 247.11C290.961 246.95 290.531 246.72 290.191 246.42L290.626 245.475C290.996 245.755 291.401 245.97 291.841 246.12C292.291 246.26 292.751 246.33 293.221 246.33C293.791 246.33 294.221 246.225 294.511 246.015C294.811 245.805 294.961 245.525 294.961 245.175C294.961 244.895 294.866 244.67 294.676 244.5C294.486 244.33 294.186 244.205 293.776 244.125L292.351 243.84C291.711 243.69 291.226 243.45 290.896 243.12C290.576 242.78 290.416 242.345 290.416 241.815C290.416 241.375 290.536 240.985 290.776 240.645C291.016 240.295 291.356 240.025 291.796 239.835C292.246 239.635 292.771 239.535 293.371 239.535C293.921 239.535 294.431 239.615 294.901 239.775C295.381 239.935 295.776 240.17 296.086 240.48L295.636 241.395C295.326 241.125 294.976 240.92 294.586 240.78C294.206 240.63 293.816 240.555 293.416 240.555C292.836 240.555 292.406 240.67 292.126 240.9C291.846 241.12 291.706 241.41 291.706 241.77C291.706 242.04 291.791 242.265 291.961 242.445C292.131 242.615 292.406 242.745 292.786 242.835L294.211 243.12C294.881 243.26 295.386 243.49 295.726 243.81C296.066 244.13 296.236 244.555 296.236 245.085C296.236 245.555 296.106 245.96 295.846 246.3C295.596 246.64 295.241 246.9 294.781 247.08C294.331 247.26 293.801 247.35 293.191 247.35ZM298.097 247.215V239.67H299.462V247.215H298.097ZM297.977 238.02V236.55H299.597V238.02H297.977ZM305.104 250.575C304.444 250.575 303.839 250.495 303.289 250.335C302.739 250.175 302.244 249.93 301.804 249.6L302.164 248.595C302.474 248.805 302.779 248.975 303.079 249.105C303.379 249.235 303.689 249.33 304.009 249.39C304.339 249.45 304.679 249.48 305.029 249.48C305.769 249.48 306.324 249.29 306.694 248.91C307.064 248.53 307.249 247.99 307.249 247.29V245.175H307.399C307.239 245.745 306.909 246.2 306.409 246.54C305.919 246.87 305.339 247.035 304.669 247.035C303.989 247.035 303.394 246.885 302.884 246.585C302.384 246.275 301.994 245.84 301.714 245.28C301.434 244.71 301.294 244.045 301.294 243.285C301.294 242.515 301.434 241.85 301.714 241.29C301.994 240.73 302.384 240.3 302.884 240C303.394 239.69 303.989 239.535 304.669 239.535C305.339 239.535 305.919 239.7 306.409 240.03C306.899 240.36 307.224 240.815 307.384 241.395L307.249 241.26L307.384 239.67H308.704C308.674 239.97 308.644 240.27 308.614 240.57C308.594 240.87 308.584 241.165 308.584 241.455V247.125C308.584 248.245 308.289 249.1 307.699 249.69C307.119 250.28 306.254 250.575 305.104 250.575ZM304.969 245.955C305.659 245.955 306.209 245.72 306.619 245.25C307.029 244.78 307.234 244.125 307.234 243.285C307.234 242.435 307.029 241.78 306.619 241.32C306.209 240.86 305.659 240.63 304.969 240.63C304.269 240.63 303.709 240.86 303.289 241.32C302.879 241.78 302.674 242.435 302.674 243.285C302.674 244.125 302.879 244.78 303.289 245.25C303.709 245.72 304.269 245.955 304.969 245.955ZM310.87 247.215V236.175H312.235V241.305H312.04C312.26 240.725 312.615 240.285 313.105 239.985C313.595 239.685 314.16 239.535 314.8 239.535C315.71 239.535 316.38 239.78 316.81 240.27C317.25 240.76 317.47 241.5 317.47 242.49V247.215H316.105V242.565C316.105 241.895 315.975 241.41 315.715 241.11C315.455 240.8 315.03 240.645 314.44 240.645C313.78 240.645 313.245 240.85 312.835 241.26C312.435 241.67 312.235 242.215 312.235 242.895V247.215H310.87ZM322.523 247.35C321.733 247.35 321.133 247.135 320.723 246.705C320.323 246.265 320.123 245.605 320.123 244.725V240.72H318.653V239.67H320.123V237.645L321.488 237.27V239.67H323.618V240.72H321.488V244.605C321.488 245.185 321.588 245.6 321.788 245.85C321.998 246.09 322.298 246.21 322.688 246.21C322.888 246.21 323.058 246.195 323.198 246.165C323.348 246.125 323.483 246.08 323.603 246.03V247.155C323.453 247.215 323.278 247.26 323.078 247.29C322.888 247.33 322.703 247.35 322.523 247.35ZM327.6 247.35C326.99 247.35 326.42 247.27 325.89 247.11C325.37 246.95 324.94 246.72 324.6 246.42L325.035 245.475C325.405 245.755 325.81 245.97 326.25 246.12C326.7 246.26 327.16 246.33 327.63 246.33C328.2 246.33 328.63 246.225 328.92 246.015C329.22 245.805 329.37 245.525 329.37 245.175C329.37 244.895 329.275 244.67 329.085 244.5C328.895 244.33 328.595 244.205 328.185 244.125L326.76 243.84C326.12 243.69 325.635 243.45 325.305 243.12C324.985 242.78 324.825 242.345 324.825 241.815C324.825 241.375 324.945 240.985 325.185 240.645C325.425 240.295 325.765 240.025 326.205 239.835C326.655 239.635 327.18 239.535 327.78 239.535C328.33 239.535 328.84 239.615 329.31 239.775C329.79 239.935 330.185 240.17 330.495 240.48L330.045 241.395C329.735 241.125 329.385 240.92 328.995 240.78C328.615 240.63 328.225 240.555 327.825 240.555C327.245 240.555 326.815 240.67 326.535 240.9C326.255 241.12 326.115 241.41 326.115 241.77C326.115 242.04 326.2 242.265 326.37 242.445C326.54 242.615 326.815 242.745 327.195 242.835L328.62 243.12C329.29 243.26 329.795 243.49 330.135 243.81C330.475 244.13 330.645 244.555 330.645 245.085C330.645 245.555 330.515 245.96 330.255 246.3C330.005 246.64 329.65 246.9 329.19 247.08C328.74 247.26 328.21 247.35 327.6 247.35Z" fill="#294DCD"/>
<rect x="219.542" y="118.975" width="31.5" height="31.5" rx="15.75" transform="rotate(90 219.542 118.975)" fill="white"/>
<rect x="219.542" y="118.975" width="31.5" height="31.5" rx="15.75" transform="rotate(90 219.542 118.975)" fill="#E43B38" fill-opacity="0.2"/>
<rect x="219.542" y="118.975" width="31.5" height="31.5" rx="15.75" transform="rotate(90 219.542 118.975)" stroke="#E43B38" stroke-width="4"/>
<path d="M244.262 174.216L244.287 174.242C244.289 174.247 244.289 174.25 244.289 174.252C244.291 174.262 244.291 174.28 244.282 174.302C244.273 174.324 244.26 174.339 244.249 174.347C244.242 174.352 244.229 174.36 244.2 174.362C244.199 174.362 244.198 174.362 244.197 174.362L227.526 175.081L226.146 175.141L226.634 176.433L232.427 191.799L232.428 191.801C232.868 192.959 232.283 194.252 231.11 194.695L227.707 195.98C226.547 196.418 225.25 195.831 224.804 194.657C224.804 194.657 224.804 194.657 224.804 194.657L219.011 179.294L218.525 178.005L217.45 178.866L204.436 189.281C204.435 189.281 204.435 189.281 204.435 189.282C204.412 189.299 204.4 189.3 204.394 189.301C204.384 189.302 204.366 189.3 204.345 189.289C204.325 189.279 204.311 189.265 204.304 189.253C204.299 189.246 204.292 189.231 204.292 189.199C204.292 189.199 204.292 189.198 204.292 189.197L206.343 134.378C206.343 134.378 206.343 134.377 206.343 134.377C206.344 134.36 206.347 134.35 206.349 134.345C206.35 134.341 206.352 134.337 206.355 134.333C206.362 134.325 206.376 134.312 206.398 134.304C206.42 134.296 206.437 134.296 206.446 134.298C206.45 134.299 206.454 134.3 206.459 134.303C206.463 134.305 206.472 134.311 206.485 134.325L206.485 134.325L206.489 134.329L244.262 174.216Z" fill="#282828" stroke="white" stroke-width="2"/>
</g>
</g>
<defs>
<filter id="filter0_i_8936_2380" x="0" y="0" width="628" height="420" filterUnits="userSpaceOnUse" color-interpolation-filters="sRGB">
<feFlood flood-opacity="0" result="BackgroundImageFix"/>
<feBlend mode="normal" in="SourceGraphic" in2="BackgroundImageFix" result="shape"/>
<feColorMatrix in="SourceAlpha" type="matrix" values="0 0 0 0 0 0 0 0 0 0 0 0 0 0 0 0 0 0 127 0" result="hardAlpha"/>
<feMorphology radius="15" operator="erode" in="SourceAlpha" result="effect1_innerShadow_8936_2380"/>
<feOffset/>
<feGaussianBlur stdDeviation="12"/>
<feComposite in2="hardAlpha" operator="arithmetic" k2="-1" k3="1"/>
<feColorMatrix type="matrix" values="0 0 0 0 1 0 0 0 0 1 0 0 0 0 1 0 0 0 1 0"/>
<feBlend mode="normal" in2="shape" result="effect1_innerShadow_8936_2380"/>
</filter>
<filter id="filter1_d_8936_2380" x="223" y="72.2146" width="311" height="217" filterUnits="userSpaceOnUse" color-interpolation-filters="sRGB">
<feFlood flood-opacity="0" result="BackgroundImageFix"/>
<feColorMatrix in="SourceAlpha" type="matrix" values="0 0 0 0 0 0 0 0 0 0 0 0 0 0 0 0 0 0 127 0" result="hardAlpha"/>
<feMorphology radius="2" operator="dilate" in="SourceAlpha" result="effect1_dropShadow_8936_2380"/>
<feOffset/>
<feGaussianBlur stdDeviation="10"/>
<feColorMatrix type="matrix" values="0 0 0 0 0.160784 0 0 0 0 0.223529 0 0 0 0 0.447059 0 0 0 0.2 0"/>
<feBlend mode="normal" in2="BackgroundImageFix" result="effect1_dropShadow_8936_2380"/>
<feBlend mode="normal" in="SourceGraphic" in2="effect1_dropShadow_8936_2380" result="shape"/>
</filter>
<clipPath id="clip0_8936_2380">
<rect width="628" height="420" rx="6" fill="white"/>
</clipPath>
<clipPath id="clip1_8936_2380">
<rect width="14" height="14" fill="white" transform="translate(341 235.621)"/>
</clipPath>
</defs>
</svg>
