<svg width="246" height="139" viewBox="0 0 246 139" fill="none" xmlns="http://www.w3.org/2000/svg">
<path d="M49.902 18.17C48.6553 18.17 47.5843 17.9207 46.689 17.422C45.805 16.912 45.125 16.198 44.649 15.28C44.173 14.3507 43.935 13.257 43.935 11.999C43.935 10.741 44.173 9.653 44.649 8.735C45.125 7.817 45.805 7.10867 46.689 6.61C47.5843 6.1 48.6553 5.845 49.902 5.845C50.7407 5.845 51.4943 5.964 52.163 6.202C52.843 6.44 53.4267 6.79133 53.914 7.256L53.2 8.99C52.6673 8.55933 52.1517 8.25333 51.653 8.072C51.1657 7.87933 50.6047 7.783 49.97 7.783C48.7573 7.783 47.828 8.15133 47.182 8.888C46.5473 9.61333 46.23 10.6503 46.23 11.999C46.23 13.3477 46.5473 14.3903 47.182 15.127C47.828 15.8637 48.7573 16.232 49.97 16.232C50.6047 16.232 51.1657 16.1413 51.653 15.96C52.1517 15.7673 52.6673 15.45 53.2 15.008L53.914 16.742C53.4267 17.1953 52.843 17.5467 52.163 17.796C51.4943 18.0453 50.7407 18.17 49.902 18.17ZM55.7937 18V5.488H57.9187V11.132H57.6807C57.9414 10.52 58.3437 10.0553 58.8877 9.738C59.4317 9.40933 60.055 9.245 60.7577 9.245C61.7777 9.245 62.537 9.534 63.0357 10.112C63.5344 10.6787 63.7837 11.5457 63.7837 12.713V18H61.6587V12.815C61.6587 12.1463 61.5284 11.6647 61.2677 11.37C61.0184 11.064 60.616 10.911 60.0607 10.911C59.4147 10.911 58.8934 11.115 58.4967 11.523C58.1114 11.9197 57.9187 12.4523 57.9187 13.121V18H55.7937ZM69.3519 18.17C68.6039 18.17 67.9465 17.9943 67.3799 17.643C66.8132 17.2803 66.3712 16.7647 66.0539 16.096C65.7365 15.4273 65.5779 14.6283 65.5779 13.699C65.5779 12.7697 65.7365 11.9763 66.0539 11.319C66.3712 10.6503 66.8132 10.1403 67.3799 9.789C67.9465 9.42633 68.6039 9.245 69.3519 9.245C70.0772 9.245 70.7119 9.42633 71.2559 9.789C71.8112 10.1403 72.1795 10.6163 72.3609 11.217H72.1739L72.3609 9.415H74.4009C74.3669 9.76633 74.3329 10.1233 74.2989 10.486C74.2762 10.8487 74.2649 11.2057 74.2649 11.557V18H72.1569L72.1399 16.232H72.3439C72.1625 16.8213 71.7942 17.2917 71.2389 17.643C70.6835 17.9943 70.0545 18.17 69.3519 18.17ZM69.9469 16.538C70.6155 16.538 71.1539 16.3057 71.5619 15.841C71.9699 15.365 72.1739 14.651 72.1739 13.699C72.1739 12.747 71.9699 12.0387 71.5619 11.574C71.1539 11.1093 70.6155 10.877 69.9469 10.877C69.2782 10.877 68.7399 11.1093 68.3319 11.574C67.9239 12.0387 67.7199 12.747 67.7199 13.699C67.7199 14.651 67.9182 15.365 68.3149 15.841C68.7229 16.3057 69.2669 16.538 69.9469 16.538ZM76.5789 18V9.415H78.7039V18H76.5789ZM76.4599 7.8V5.726H78.8229V7.8H76.4599ZM81.0115 18V11.557C81.0115 11.2057 81.0001 10.8487 80.9775 10.486C80.9548 10.1233 80.9208 9.76633 80.8755 9.415H82.9325L83.1025 11.115H82.8985C83.1705 10.5143 83.5728 10.0553 84.1055 9.738C84.6381 9.40933 85.2558 9.245 85.9585 9.245C86.9671 9.245 87.7265 9.52833 88.2365 10.095C88.7465 10.6617 89.0015 11.5457 89.0015 12.747V18H86.8765V12.849C86.8765 12.1577 86.7405 11.6647 86.4685 11.37C86.2078 11.064 85.8111 10.911 85.2785 10.911C84.6211 10.911 84.0998 11.115 83.7145 11.523C83.3291 11.931 83.1365 12.475 83.1365 13.155V18H81.0115ZM94.5696 18.17C93.8216 18.17 93.1643 17.9943 92.5976 17.643C92.031 17.2803 91.589 16.7647 91.2716 16.096C90.9543 15.4273 90.7956 14.6283 90.7956 13.699C90.7956 12.7697 90.9543 11.9763 91.2716 11.319C91.589 10.6503 92.031 10.1403 92.5976 9.789C93.1643 9.42633 93.8216 9.245 94.5696 9.245C95.295 9.245 95.9296 9.42633 96.4736 9.789C97.029 10.1403 97.3973 10.6163 97.5786 11.217H97.3916L97.5786 9.415H99.6186C99.5846 9.76633 99.5506 10.1233 99.5166 10.486C99.494 10.8487 99.4826 11.2057 99.4826 11.557V18H97.3746L97.3576 16.232H97.5616C97.3803 16.8213 97.012 17.2917 96.4566 17.643C95.9013 17.9943 95.2723 18.17 94.5696 18.17ZM95.1646 16.538C95.8333 16.538 96.3716 16.3057 96.7796 15.841C97.1876 15.365 97.3916 14.651 97.3916 13.699C97.3916 12.747 97.1876 12.0387 96.7796 11.574C96.3716 11.1093 95.8333 10.877 95.1646 10.877C94.496 10.877 93.9576 11.1093 93.5496 11.574C93.1416 12.0387 92.9376 12.747 92.9376 13.699C92.9376 14.651 93.136 15.365 93.5326 15.841C93.9406 16.3057 94.4846 16.538 95.1646 16.538ZM101.797 18V5.488H103.922V18H101.797ZM106.059 21.859L105.566 20.176C106.099 20.0627 106.547 19.9323 106.909 19.785C107.272 19.6377 107.572 19.445 107.81 19.207C108.048 18.969 108.247 18.663 108.405 18.289L108.83 17.286L108.779 18.119L105.039 9.415H107.3L109.986 16.113H109.493L112.196 9.415H114.338L110.428 18.476C110.168 19.088 109.884 19.5923 109.578 19.989C109.272 20.397 108.944 20.72 108.592 20.958C108.241 21.2073 107.856 21.4 107.436 21.536C107.017 21.672 106.558 21.7797 106.059 21.859ZM118.354 18.17C117.617 18.17 116.937 18.085 116.314 17.915C115.702 17.7337 115.186 17.4843 114.767 17.167L115.362 15.739C115.792 16.0337 116.268 16.2603 116.79 16.419C117.311 16.5777 117.838 16.657 118.371 16.657C118.937 16.657 119.357 16.5607 119.629 16.368C119.912 16.1753 120.054 15.9147 120.054 15.586C120.054 15.3253 119.963 15.1213 119.782 14.974C119.612 14.8153 119.334 14.6963 118.949 14.617L117.249 14.294C116.523 14.1353 115.968 13.8633 115.583 13.478C115.209 13.0927 115.022 12.5883 115.022 11.965C115.022 11.4323 115.163 10.962 115.447 10.554C115.741 10.146 116.155 9.82867 116.688 9.602C117.232 9.364 117.866 9.245 118.592 9.245C119.226 9.245 119.821 9.33 120.377 9.5C120.943 9.67 121.419 9.925 121.805 10.265L121.193 11.642C120.841 11.3587 120.439 11.1377 119.986 10.979C119.532 10.8203 119.09 10.741 118.66 10.741C118.07 10.741 117.64 10.8487 117.368 11.064C117.096 11.268 116.96 11.5343 116.96 11.863C116.96 12.1123 117.039 12.322 117.198 12.492C117.368 12.6507 117.628 12.7697 117.98 12.849L119.68 13.172C120.439 13.3193 121.011 13.58 121.397 13.954C121.793 14.3167 121.992 14.8153 121.992 15.45C121.992 16.0167 121.839 16.504 121.533 16.912C121.227 17.32 120.802 17.6317 120.258 17.847C119.714 18.0623 119.079 18.17 118.354 18.17ZM123.81 18V9.415H125.935V18H123.81ZM123.691 7.8V5.726H126.054V7.8H123.691ZM131.303 18.17C130.566 18.17 129.886 18.085 129.263 17.915C128.651 17.7337 128.135 17.4843 127.716 17.167L128.311 15.739C128.742 16.0337 129.218 16.2603 129.739 16.419C130.26 16.5777 130.787 16.657 131.32 16.657C131.887 16.657 132.306 16.5607 132.578 16.368C132.861 16.1753 133.003 15.9147 133.003 15.586C133.003 15.3253 132.912 15.1213 132.731 14.974C132.561 14.8153 132.283 14.6963 131.898 14.617L130.198 14.294C129.473 14.1353 128.917 13.8633 128.532 13.478C128.158 13.0927 127.971 12.5883 127.971 11.965C127.971 11.4323 128.113 10.962 128.396 10.554C128.691 10.146 129.104 9.82867 129.637 9.602C130.181 9.364 130.816 9.245 131.541 9.245C132.176 9.245 132.771 9.33 133.326 9.5C133.893 9.67 134.369 9.925 134.754 10.265L134.142 11.642C133.791 11.3587 133.388 11.1377 132.935 10.979C132.482 10.8203 132.04 10.741 131.609 10.741C131.02 10.741 130.589 10.8487 130.317 11.064C130.045 11.268 129.909 11.5343 129.909 11.863C129.909 12.1123 129.988 12.322 130.147 12.492C130.317 12.6507 130.578 12.7697 130.929 12.849L132.629 13.172C133.388 13.3193 133.961 13.58 134.346 13.954C134.743 14.3167 134.941 14.8153 134.941 15.45C134.941 16.0167 134.788 16.504 134.482 16.912C134.176 17.32 133.751 17.6317 133.207 17.847C132.663 18.0623 132.028 18.17 131.303 18.17ZM141.595 18V6.015H146.831C148.145 6.015 149.16 6.32667 149.874 6.95C150.599 7.57333 150.962 8.44033 150.962 9.551C150.962 10.2877 150.797 10.9167 150.469 11.438C150.151 11.9593 149.692 12.3617 149.092 12.645C148.491 12.917 147.783 13.053 146.967 13.053L147.205 12.73H147.783C148.259 12.73 148.684 12.8547 149.058 13.104C149.432 13.3533 149.738 13.733 149.976 14.243L151.727 18H149.313L147.545 14.107C147.386 13.7103 147.142 13.4497 146.814 13.325C146.496 13.2003 146.111 13.138 145.658 13.138H143.788V18H141.595ZM143.788 11.523H146.474C147.244 11.523 147.828 11.3643 148.225 11.047C148.633 10.7183 148.837 10.2423 148.837 9.619C148.837 8.99567 148.633 8.52533 148.225 8.208C147.828 7.89067 147.244 7.732 146.474 7.732H143.788V11.523ZM157.293 18.17C155.854 18.17 154.726 17.7733 153.91 16.98C153.094 16.1867 152.686 15.0987 152.686 13.716C152.686 12.8207 152.862 12.0387 153.213 11.37C153.565 10.7013 154.052 10.18 154.675 9.806C155.31 9.432 156.047 9.245 156.885 9.245C157.713 9.245 158.404 9.42067 158.959 9.772C159.515 10.1233 159.934 10.6163 160.217 11.251C160.512 11.8857 160.659 12.628 160.659 13.478V14.039H154.403V12.917H159.146L158.857 13.155C158.857 12.3617 158.687 11.7553 158.347 11.336C158.019 10.9167 157.537 10.707 156.902 10.707C156.2 10.707 155.656 10.9563 155.27 11.455C154.896 11.9537 154.709 12.6507 154.709 13.546V13.767C154.709 14.6963 154.936 15.3933 155.389 15.858C155.854 16.3113 156.506 16.538 157.344 16.538C157.832 16.538 158.285 16.4757 158.704 16.351C159.135 16.215 159.543 15.9997 159.928 15.705L160.557 17.133C160.149 17.4617 159.662 17.7167 159.095 17.898C158.529 18.0793 157.928 18.17 157.293 18.17ZM165.774 18.17C165.026 18.17 164.368 17.9943 163.802 17.643C163.235 17.2803 162.793 16.7647 162.476 16.096C162.158 15.4273 162 14.6283 162 13.699C162 12.7697 162.158 11.9763 162.476 11.319C162.793 10.6503 163.235 10.1403 163.802 9.789C164.368 9.42633 165.026 9.245 165.774 9.245C166.499 9.245 167.134 9.42633 167.678 9.789C168.233 10.1403 168.601 10.6163 168.783 11.217H168.596L168.783 9.415H170.823C170.789 9.76633 170.755 10.1233 170.721 10.486C170.698 10.8487 170.687 11.2057 170.687 11.557V18H168.579L168.562 16.232H168.766C168.584 16.8213 168.216 17.2917 167.661 17.643C167.105 17.9943 166.476 18.17 165.774 18.17ZM166.369 16.538C167.037 16.538 167.576 16.3057 167.984 15.841C168.392 15.365 168.596 14.651 168.596 13.699C168.596 12.747 168.392 12.0387 167.984 11.574C167.576 11.1093 167.037 10.877 166.369 10.877C165.7 10.877 165.162 11.1093 164.754 11.574C164.346 12.0387 164.142 12.747 164.142 13.699C164.142 14.651 164.34 15.365 164.737 15.841C165.145 16.3057 165.689 16.538 166.369 16.538ZM176.945 18.17C176.061 18.17 175.284 17.9887 174.616 17.626C173.958 17.2633 173.448 16.7477 173.086 16.079C172.723 15.399 172.542 14.5943 172.542 13.665C172.542 12.7357 172.723 11.9423 173.086 11.285C173.46 10.6277 173.975 10.1233 174.633 9.772C175.29 9.42067 176.061 9.245 176.945 9.245C177.511 9.245 178.061 9.33567 178.594 9.517C179.138 9.687 179.58 9.93633 179.92 10.265L179.274 11.744C178.968 11.4607 178.622 11.251 178.237 11.115C177.863 10.9677 177.494 10.894 177.132 10.894C176.372 10.894 175.777 11.132 175.347 11.608C174.927 12.084 174.718 12.7753 174.718 13.682C174.718 14.5887 174.927 15.2857 175.347 15.773C175.777 16.2603 176.372 16.504 177.132 16.504C177.483 16.504 177.846 16.436 178.22 16.3C178.605 16.164 178.956 15.9543 179.274 15.671L179.92 17.133C179.568 17.4617 179.121 17.7167 178.577 17.898C178.044 18.0793 177.5 18.17 176.945 18.17ZM185.272 18.17C184.252 18.17 183.482 17.9037 182.96 17.371C182.439 16.8383 182.178 16.0393 182.178 14.974V11.013H180.529V9.415H182.178V7.222L184.303 6.678V9.415H186.598V11.013H184.303V14.838C184.303 15.4273 184.417 15.841 184.643 16.079C184.87 16.317 185.182 16.436 185.578 16.436C185.794 16.436 185.975 16.419 186.122 16.385C186.281 16.351 186.434 16.3057 186.581 16.249V17.932C186.389 18.0113 186.173 18.068 185.935 18.102C185.709 18.1473 185.488 18.17 185.272 18.17ZM191.835 18.17C190.951 18.17 190.186 17.9887 189.54 17.626C188.894 17.2633 188.389 16.7477 188.027 16.079C187.675 15.4103 187.5 14.617 187.5 13.699C187.5 12.781 187.675 11.9933 188.027 11.336C188.389 10.6673 188.894 10.1517 189.54 9.789C190.186 9.42633 190.951 9.245 191.835 9.245C192.719 9.245 193.484 9.42633 194.13 9.789C194.787 10.1517 195.291 10.6673 195.643 11.336C196.005 11.9933 196.187 12.781 196.187 13.699C196.187 14.617 196.005 15.4103 195.643 16.079C195.291 16.7477 194.787 17.2633 194.13 17.626C193.484 17.9887 192.719 18.17 191.835 18.17ZM191.835 16.538C192.503 16.538 193.036 16.3057 193.433 15.841C193.829 15.365 194.028 14.651 194.028 13.699C194.028 12.747 193.829 12.0387 193.433 11.574C193.036 11.1093 192.503 10.877 191.835 10.877C191.166 10.877 190.633 11.1093 190.237 11.574C189.84 12.0387 189.642 12.747 189.642 13.699C189.642 14.651 189.84 15.365 190.237 15.841C190.633 16.3057 191.166 16.538 191.835 16.538ZM198.002 18V11.608C198.002 11.2453 197.991 10.877 197.968 10.503C197.957 10.129 197.929 9.76633 197.883 9.415H199.94L200.178 11.761H199.838C199.952 11.1943 200.139 10.724 200.399 10.35C200.671 9.976 201 9.69833 201.385 9.517C201.771 9.33567 202.19 9.245 202.643 9.245C202.847 9.245 203.012 9.25633 203.136 9.279C203.261 9.29033 203.386 9.31867 203.51 9.364L203.493 11.234C203.278 11.1433 203.091 11.0867 202.932 11.064C202.785 11.0413 202.598 11.03 202.371 11.03C201.884 11.03 201.47 11.132 201.13 11.336C200.802 11.54 200.552 11.8233 200.382 12.186C200.224 12.5487 200.144 12.9623 200.144 13.427V18H198.002Z" fill="#293972"/>
<path d="M59.4785 40.0852C59.4391 39.9618 59.3624 39.8542 59.2593 39.7779C59.1561 39.7016 59.032 39.6605 58.9045 39.6605H53.4972L51.827 34.4255C51.7875 34.3023 51.7108 34.1948 51.6078 34.1187C51.5047 34.0425 51.3807 34.0015 51.2533 34.0015C51.126 34.0015 51.0019 34.0425 50.8989 34.1187C50.7958 34.1948 50.7191 34.3023 50.6797 34.4255L49.0091 39.6605H43.6032C43.4758 39.6605 43.3517 39.7016 43.2486 39.7779C43.1455 39.8542 43.0688 39.9617 43.0295 40.0851C42.9901 40.2085 42.9902 40.3414 43.0296 40.4647C43.069 40.5881 43.1457 40.6956 43.2488 40.7718L47.6222 44.0071L45.9516 49.2421C45.9122 49.3654 45.9123 49.4983 45.9517 49.6216C45.9911 49.745 46.0678 49.8524 46.1709 49.9286C46.2739 50.0049 46.398 50.0459 46.5254 50.0459C46.6528 50.0459 46.7769 50.0049 46.8799 49.9286L51.2533 46.6934L55.6267 49.9286C55.7298 50.0049 55.8539 50.0459 55.9812 50.0459C56.1086 50.0459 56.2327 50.0049 56.3358 49.9286C56.4388 49.8524 56.5156 49.745 56.555 49.6216C56.5943 49.4983 56.5944 49.3654 56.5551 49.2421L54.8845 44.0071L59.2579 40.7718C59.3611 40.6958 59.4381 40.5884 59.4778 40.465C59.5174 40.3417 59.5177 40.2087 59.4785 40.0852V40.0852Z" fill="url(#paint0_linear_9325_95563)"/>
<path d="M82.5893 40.0848C82.5499 39.9613 82.4732 39.8538 82.3701 39.7775C82.267 39.7012 82.1428 39.6601 82.0153 39.66H76.6081L74.9378 34.425C74.8984 34.3018 74.8217 34.1943 74.7186 34.1182C74.6156 34.042 74.4915 34.001 74.3642 34.001C74.2368 34.001 74.1128 34.042 74.0097 34.1182C73.9067 34.1943 73.8299 34.3018 73.7905 34.425L72.1199 39.66H66.714C66.5866 39.6601 66.4625 39.7011 66.3594 39.7774C66.2564 39.8537 66.1797 39.9612 66.1403 40.0846C66.101 40.208 66.101 40.3409 66.1404 40.4642C66.1798 40.5876 66.2565 40.6951 66.3596 40.7713L70.733 44.0066L69.0624 49.2416C69.0231 49.3649 69.0231 49.4978 69.0625 49.6211C69.1019 49.7445 69.1786 49.8519 69.2817 49.9282C69.3848 50.0044 69.5089 50.0454 69.6362 50.0454C69.7636 50.0454 69.8877 50.0044 69.9908 49.9282L74.3642 46.6929L78.7375 49.9282C78.8406 50.0044 78.9647 50.0454 79.0921 50.0454C79.2195 50.0454 79.3436 50.0044 79.4466 49.9282C79.5497 49.8519 79.6264 49.7445 79.6658 49.6211C79.7052 49.4978 79.7052 49.3649 79.6659 49.2416L77.9953 44.0066L82.3687 40.7713C82.472 40.6953 82.549 40.5879 82.5886 40.4646C82.6282 40.3412 82.6285 40.2083 82.5893 40.0848V40.0848Z" fill="url(#paint1_linear_9325_95563)"/>
<path d="M106.525 40.0848C106.486 39.9613 106.409 39.8538 106.306 39.7775C106.203 39.7012 106.079 39.6601 105.951 39.66H100.544L98.8738 34.425C98.8344 34.3018 98.7577 34.1943 98.6546 34.1182C98.5516 34.042 98.4275 34.001 98.3002 34.001C98.1729 34.001 98.0488 34.042 97.9457 34.1182C97.8427 34.1943 97.766 34.3018 97.7265 34.425L96.0559 39.66H90.6501C90.5227 39.6601 90.3985 39.7011 90.2955 39.7774C90.1924 39.8537 90.1157 39.9612 90.0764 40.0846C90.037 40.208 90.037 40.3409 90.0764 40.4642C90.1158 40.5876 90.1926 40.6951 90.2957 40.7713L94.669 44.0066L92.9984 49.2416C92.9591 49.3649 92.9592 49.4978 92.9986 49.6211C93.038 49.7445 93.1147 49.8519 93.2177 49.9282C93.3208 50.0044 93.4449 50.0454 93.5723 50.0454C93.6997 50.0454 93.8238 50.0044 93.9268 49.9282L98.3002 46.6929L102.674 49.9282C102.777 50.0044 102.901 50.0454 103.028 50.0454C103.155 50.0454 103.28 50.0044 103.383 49.9282C103.486 49.8519 103.562 49.7445 103.602 49.6211C103.641 49.4978 103.641 49.3649 103.602 49.2416L101.931 44.0066L106.305 40.7713C106.408 40.6953 106.485 40.5879 106.525 40.4646C106.564 40.3412 106.565 40.2083 106.525 40.0848V40.0848Z" fill="url(#paint2_linear_9325_95563)"/>
<path d="M130.462 40.0848C130.422 39.9613 130.345 39.8538 130.242 39.7775C130.139 39.7012 130.015 39.6601 129.888 39.66H124.48L122.81 34.425C122.771 34.3018 122.694 34.1943 122.591 34.1182C122.488 34.042 122.364 34.001 122.236 34.001C122.109 34.001 121.985 34.042 121.882 34.1182C121.779 34.1943 121.702 34.3018 121.663 34.425L119.992 39.66H114.586C114.459 39.6601 114.335 39.7011 114.232 39.7774C114.129 39.8537 114.052 39.9612 114.013 40.0846C113.973 40.208 113.973 40.3409 114.013 40.4642C114.052 40.5876 114.129 40.6951 114.232 40.7713L118.605 44.0066L116.935 49.2416C116.895 49.3649 116.895 49.4978 116.935 49.6211C116.974 49.7445 117.051 49.8519 117.154 49.9282C117.257 50.0044 117.381 50.0454 117.508 50.0454C117.636 50.0454 117.76 50.0044 117.863 49.9282L122.236 46.6929L126.61 49.9282C126.713 50.0044 126.837 50.0454 126.964 50.0454C127.092 50.0454 127.216 50.0044 127.319 49.9282C127.422 49.8519 127.499 49.7445 127.538 49.6211C127.577 49.4978 127.577 49.3649 127.538 49.2416L125.868 44.0066L130.241 40.7713C130.344 40.6953 130.421 40.5879 130.461 40.4646C130.5 40.3412 130.501 40.2083 130.462 40.0848V40.0848Z" fill="url(#paint3_linear_9325_95563)"/>
<path d="M154.398 40.0848C154.358 39.9613 154.282 39.8538 154.178 39.7775C154.075 39.7012 153.951 39.6601 153.824 39.66H148.416L146.746 34.425C146.707 34.3018 146.63 34.1943 146.527 34.1182C146.424 34.042 146.3 34.001 146.173 34.001C146.045 34.001 145.921 34.042 145.818 34.1182C145.715 34.1943 145.638 34.3018 145.599 34.425L143.928 39.66H138.522C138.395 39.6601 138.271 39.7011 138.168 39.7774C138.065 39.8537 137.988 39.9612 137.949 40.0846C137.909 40.208 137.909 40.3409 137.949 40.4642C137.988 40.5876 138.065 40.6951 138.168 40.7713L142.541 44.0066L140.871 49.2416C140.831 49.3649 140.831 49.4978 140.871 49.6211C140.91 49.7445 140.987 49.8519 141.09 49.9282C141.193 50.0044 141.317 50.0454 141.445 50.0454C141.572 50.0454 141.696 50.0044 141.799 49.9282L146.173 46.6929L150.546 49.9282C150.649 50.0044 150.773 50.0454 150.9 50.0454C151.028 50.0454 151.152 50.0044 151.255 49.9282C151.358 49.8519 151.435 49.7445 151.474 49.6211C151.514 49.4978 151.514 49.3649 151.474 49.2416L149.804 44.0066L154.177 40.7713C154.28 40.6953 154.357 40.5879 154.397 40.4646C154.437 40.3412 154.437 40.2083 154.398 40.0848V40.0848Z" fill="#DDD6C8"/>
<mask id="mask0_9325_95563" style="mask-type:alpha" maskUnits="userSpaceOnUse" x="137" y="34" width="12" height="18">
<rect x="137.75" y="34" width="11" height="18" fill="#D9D9D9"/>
</mask>
<g mask="url(#mask0_9325_95563)">
<path d="M154.398 40.0848C154.359 39.9613 154.282 39.8538 154.179 39.7775C154.076 39.7012 153.951 39.6601 153.824 39.66H148.417L146.746 34.425C146.707 34.3018 146.63 34.1943 146.527 34.1182C146.424 34.042 146.3 34.001 146.173 34.001C146.045 34.001 145.921 34.042 145.818 34.1182C145.715 34.1943 145.639 34.3018 145.599 34.425L143.928 39.66H138.523C138.395 39.6601 138.271 39.7011 138.168 39.7774C138.065 39.8537 137.988 39.9612 137.949 40.0846C137.91 40.208 137.91 40.3409 137.949 40.4642C137.988 40.5876 138.065 40.6951 138.168 40.7713L142.542 44.0066L140.871 49.2416C140.832 49.3649 140.832 49.4978 140.871 49.6211C140.911 49.7445 140.987 49.8519 141.09 49.9282C141.193 50.0044 141.317 50.0454 141.445 50.0454C141.572 50.0454 141.696 50.0044 141.799 49.9282L146.173 46.6929L150.546 49.9282C150.649 50.0044 150.773 50.0454 150.901 50.0454C151.028 50.0454 151.152 50.0044 151.255 49.9282C151.358 49.8519 151.435 49.7445 151.474 49.6211C151.514 49.4978 151.514 49.3649 151.475 49.2416L149.804 44.0066L154.177 40.7713C154.281 40.6953 154.358 40.5879 154.397 40.4646C154.437 40.3412 154.437 40.2083 154.398 40.0848V40.0848Z" fill="url(#paint4_linear_9325_95563)"/>
</g>
<path d="M167.278 46.7856V45.7916H169.602V37.9096H170.218L167.502 39.6036V38.4416L169.924 36.9156H170.764V45.7916H172.948V46.7856H167.278ZM175.673 46.7856V45.7916H177.997V37.9096H178.613L175.897 39.6036V38.4416L178.319 36.9156H179.159V45.7916H181.343V46.7856H175.673ZM183.493 46.7856V45.9176L186.993 42.2636C187.45 41.7876 187.791 41.335 188.015 40.9056C188.248 40.467 188.365 40.0143 188.365 39.5476C188.365 38.9783 188.188 38.549 187.833 38.2596C187.478 37.961 186.965 37.8116 186.293 37.8116C185.77 37.8116 185.285 37.905 184.837 38.0916C184.398 38.269 183.974 38.5536 183.563 38.9456L183.143 38.0356C183.516 37.6623 183.992 37.3636 184.571 37.1396C185.15 36.9063 185.761 36.7896 186.405 36.7896C187.404 36.7896 188.174 37.023 188.715 37.4896C189.256 37.947 189.527 38.6003 189.527 39.4496C189.527 40.075 189.373 40.6723 189.065 41.2416C188.766 41.8016 188.328 42.3803 187.749 42.9776L184.655 46.1136V45.7916H189.947V46.7856H183.493ZM195.412 46.7856V41.4516C195.412 41.1716 195.403 40.887 195.384 40.5976C195.375 40.3083 195.356 40.0283 195.328 39.7576H196.42L196.56 41.4656L196.364 41.4796C196.457 41.0596 196.621 40.7143 196.854 40.4436C197.087 40.173 197.363 39.9723 197.68 39.8416C197.997 39.7016 198.329 39.6316 198.674 39.6316C198.814 39.6316 198.935 39.6363 199.038 39.6456C199.15 39.655 199.253 39.6783 199.346 39.7156L199.332 40.7236C199.192 40.677 199.061 40.649 198.94 40.6396C198.828 40.621 198.697 40.6116 198.548 40.6116C198.137 40.6116 197.778 40.7096 197.47 40.9056C197.171 41.1016 196.943 41.3536 196.784 41.6616C196.635 41.9696 196.56 42.2963 196.56 42.6416V46.7856H195.412ZM203.132 46.9116C202.506 46.9116 201.96 46.767 201.494 46.4776C201.027 46.179 200.663 45.759 200.402 45.2176C200.15 44.6763 200.024 44.0276 200.024 43.2716C200.024 42.5063 200.15 41.853 200.402 41.3116C200.663 40.7703 201.027 40.355 201.494 40.0656C201.96 39.7763 202.506 39.6316 203.132 39.6316C203.766 39.6316 204.312 39.795 204.77 40.1216C205.236 40.439 205.544 40.873 205.694 41.4236H205.526L205.68 39.7576H206.772C206.744 40.0283 206.716 40.3036 206.688 40.5836C206.669 40.8543 206.66 41.1203 206.66 41.3816V46.7856H205.526V45.1336H205.68C205.53 45.6843 205.222 46.1183 204.756 46.4356C204.289 46.753 203.748 46.9116 203.132 46.9116ZM203.356 45.9876C204.028 45.9876 204.56 45.759 204.952 45.3016C205.344 44.835 205.54 44.1583 205.54 43.2716C205.54 42.3756 205.344 41.699 204.952 41.2416C204.56 40.775 204.028 40.5416 203.356 40.5416C202.693 40.5416 202.161 40.775 201.76 41.2416C201.368 41.699 201.172 42.3756 201.172 43.2716C201.172 44.1583 201.368 44.835 201.76 45.3016C202.161 45.759 202.693 45.9876 203.356 45.9876ZM211.344 46.9116C210.653 46.9116 210.126 46.7156 209.762 46.3236C209.398 45.9223 209.216 45.3203 209.216 44.5176V40.6396H207.844V39.7576H209.216V37.8396L210.35 37.5176V39.7576H212.366V40.6396H210.35V44.3916C210.35 44.9516 210.443 45.353 210.63 45.5956C210.826 45.829 211.115 45.9456 211.498 45.9456C211.675 45.9456 211.834 45.9316 211.974 45.9036C212.114 45.8663 212.24 45.8243 212.352 45.7776V46.7296C212.221 46.7856 212.063 46.8276 211.876 46.8556C211.699 46.893 211.521 46.9116 211.344 46.9116ZM213.747 46.7856V39.7576H214.881V46.7856H213.747ZM213.607 38.1616V36.8876H215.007V38.1616H213.607ZM217.083 46.7856V41.3816C217.083 41.1203 217.069 40.8543 217.041 40.5836C217.022 40.3036 216.999 40.0283 216.971 39.7576H218.063L218.203 41.2976H218.035C218.24 40.7563 218.567 40.3456 219.015 40.0656C219.472 39.7763 219.999 39.6316 220.597 39.6316C221.427 39.6316 222.053 39.8556 222.473 40.3036C222.902 40.7423 223.117 41.4376 223.117 42.3896V46.7856H221.983V42.4596C221.983 41.797 221.847 41.3163 221.577 41.0176C221.315 40.7096 220.905 40.5556 220.345 40.5556C219.691 40.5556 219.173 40.7563 218.791 41.1576C218.408 41.559 218.217 42.0956 218.217 42.7676V46.7856H217.083ZM228.38 49.9076C227.773 49.9076 227.213 49.833 226.7 49.6836C226.186 49.5343 225.724 49.3056 225.314 48.9976L225.65 48.1436C225.939 48.349 226.224 48.5123 226.504 48.6336C226.784 48.755 227.073 48.8436 227.372 48.8996C227.67 48.965 227.988 48.9976 228.324 48.9976C229.014 48.9976 229.537 48.8156 229.892 48.4516C230.246 48.0876 230.424 47.5696 230.424 46.8976V44.8396H230.564C230.414 45.3903 230.106 45.829 229.64 46.1556C229.173 46.473 228.627 46.6316 228.002 46.6316C227.358 46.6316 226.798 46.4916 226.322 46.2116C225.855 45.9223 225.491 45.5163 225.23 44.9936C224.978 44.4616 224.852 43.8363 224.852 43.1176C224.852 42.4083 224.978 41.7923 225.23 41.2696C225.491 40.747 225.855 40.3456 226.322 40.0656C226.798 39.7763 227.358 39.6316 228.002 39.6316C228.636 39.6316 229.182 39.7903 229.64 40.1076C230.106 40.425 230.414 40.8636 230.564 41.4236L230.424 41.2836L230.55 39.7576H231.656C231.618 40.0283 231.59 40.3036 231.572 40.5836C231.553 40.8543 231.544 41.1203 231.544 41.3816V46.7436C231.544 47.789 231.273 48.5776 230.732 49.1096C230.2 49.6416 229.416 49.9076 228.38 49.9076ZM228.212 45.7076C228.893 45.7076 229.43 45.4836 229.822 45.0356C230.214 44.5783 230.41 43.939 230.41 43.1176C230.41 42.2963 230.214 41.6616 229.822 41.2136C229.43 40.7656 228.893 40.5416 228.212 40.5416C227.54 40.5416 227.003 40.7656 226.602 41.2136C226.2 41.6616 226 42.2963 226 43.1176C226 43.939 226.2 44.5783 226.602 45.0356C227.003 45.4836 227.54 45.7076 228.212 45.7076ZM236.059 46.9116C235.499 46.9116 234.977 46.837 234.491 46.6876C234.006 46.529 233.605 46.3096 233.287 46.0296L233.679 45.2316C234.025 45.5023 234.398 45.703 234.799 45.8336C235.21 45.9643 235.635 46.0296 236.073 46.0296C236.633 46.0296 237.053 45.9316 237.333 45.7356C237.623 45.5303 237.767 45.2503 237.767 44.8956C237.767 44.625 237.674 44.4103 237.487 44.2516C237.31 44.0836 237.016 43.953 236.605 43.8596L235.303 43.5936C234.706 43.463 234.258 43.2436 233.959 42.9356C233.661 42.6183 233.511 42.217 233.511 41.7316C233.511 41.321 233.619 40.9616 233.833 40.6536C234.048 40.3363 234.361 40.089 234.771 39.9116C235.182 39.725 235.663 39.6316 236.213 39.6316C236.727 39.6316 237.198 39.711 237.627 39.8696C238.066 40.019 238.43 40.2383 238.719 40.5276L238.313 41.3116C238.033 41.041 237.711 40.8403 237.347 40.7096C236.993 40.5696 236.624 40.4996 236.241 40.4996C235.691 40.4996 235.275 40.6116 234.995 40.8356C234.725 41.0503 234.589 41.335 234.589 41.6896C234.589 41.9603 234.673 42.1843 234.841 42.3616C235.019 42.5296 235.289 42.6556 235.653 42.7396L236.955 43.0056C237.59 43.1456 238.061 43.365 238.369 43.6636C238.687 43.953 238.845 44.345 238.845 44.8396C238.845 45.2596 238.729 45.6283 238.495 45.9456C238.262 46.2536 237.935 46.4916 237.515 46.6596C237.105 46.8276 236.619 46.9116 236.059 46.9116Z" fill="#293972" fill-opacity="0.5"/>
<path d="M12.12 49.0938V46.3337H5.82V44.5337L12.52 34.9937H14.6V44.3737H16.62V46.3337H14.6V49.0938H12.12ZM12.12 44.3737V38.0337H12.6L7.74 44.9737V44.3737H12.12ZM18.0722 49.0938V46.3137H20.8722V49.0938H18.0722ZM23.6731 49.0938L30.5131 36.2537V37.1537H23.0331V34.9937H32.8931V36.9137L26.4931 49.0938H23.6731Z" fill="#293972"/>
<path d="M69.652 103.264C68.4053 103.264 67.3343 103.014 66.439 102.516C65.555 102.006 64.875 101.292 64.399 100.374C63.923 99.4444 63.685 98.3507 63.685 97.0927C63.685 95.8347 63.923 94.7467 64.399 93.8287C64.875 92.9107 65.555 92.2024 66.439 91.7037C67.3343 91.1937 68.4053 90.9387 69.652 90.9387C70.4907 90.9387 71.2443 91.0577 71.913 91.2957C72.593 91.5337 73.1767 91.8851 73.664 92.3497L72.95 94.0837C72.4173 93.6531 71.9017 93.3471 71.403 93.1657C70.9157 92.9731 70.3547 92.8767 69.72 92.8767C68.5073 92.8767 67.578 93.2451 66.932 93.9817C66.2973 94.7071 65.98 95.7441 65.98 97.0927C65.98 98.4414 66.2973 99.4841 66.932 100.221C67.578 100.957 68.5073 101.326 69.72 101.326C70.3547 101.326 70.9157 101.235 71.403 101.054C71.9017 100.861 72.4173 100.544 72.95 100.102L73.664 101.836C73.1767 102.289 72.593 102.64 71.913 102.89C71.2443 103.139 70.4907 103.264 69.652 103.264ZM75.5437 103.094V90.5817H77.6687V96.2257H77.4307C77.6914 95.6137 78.0937 95.1491 78.6377 94.8317C79.1817 94.5031 79.805 94.3387 80.5077 94.3387C81.5277 94.3387 82.287 94.6277 82.7857 95.2057C83.2844 95.7724 83.5337 96.6394 83.5337 97.8067V103.094H81.4087V97.9087C81.4087 97.2401 81.2784 96.7584 81.0177 96.4637C80.7684 96.1577 80.366 96.0047 79.8107 96.0047C79.1647 96.0047 78.6434 96.2087 78.2467 96.6167C77.8614 97.0134 77.6687 97.5461 77.6687 98.2147V103.094H75.5437ZM89.1019 103.264C88.3539 103.264 87.6965 103.088 87.1299 102.737C86.5632 102.374 86.1212 101.858 85.8039 101.19C85.4865 100.521 85.3279 99.7221 85.3279 98.7927C85.3279 97.8634 85.4865 97.0701 85.8039 96.4127C86.1212 95.7441 86.5632 95.2341 87.1299 94.8827C87.6965 94.5201 88.3539 94.3387 89.1019 94.3387C89.8272 94.3387 90.4619 94.5201 91.0059 94.8827C91.5612 95.2341 91.9295 95.7101 92.1109 96.3107H91.9239L92.1109 94.5088H94.1509C94.1169 94.8601 94.0829 95.2171 94.0489 95.5797C94.0262 95.9424 94.0149 96.2994 94.0149 96.6507V103.094H91.9069L91.8899 101.326H92.0939C91.9125 101.915 91.5442 102.385 90.9889 102.737C90.4335 103.088 89.8045 103.264 89.1019 103.264ZM89.6969 101.632C90.3655 101.632 90.9039 101.399 91.3119 100.935C91.7199 100.459 91.9239 99.7447 91.9239 98.7927C91.9239 97.8407 91.7199 97.1324 91.3119 96.6677C90.9039 96.2031 90.3655 95.9707 89.6969 95.9707C89.0282 95.9707 88.4899 96.2031 88.0819 96.6677C87.6739 97.1324 87.4699 97.8407 87.4699 98.7927C87.4699 99.7447 87.6682 100.459 88.0649 100.935C88.4729 101.399 89.0169 101.632 89.6969 101.632ZM96.3289 103.094V94.5088H98.4539V103.094H96.3289ZM96.2099 92.8937V90.8197H98.5729V92.8937H96.2099ZM100.761 103.094V96.6507C100.761 96.2994 100.75 95.9424 100.727 95.5797C100.705 95.2171 100.671 94.8601 100.625 94.5088H102.682L102.852 96.2087H102.648C102.92 95.6081 103.323 95.1491 103.855 94.8317C104.388 94.5031 105.006 94.3387 105.708 94.3387C106.717 94.3387 107.476 94.6221 107.986 95.1887C108.496 95.7554 108.751 96.6394 108.751 97.8407V103.094H106.626V97.9427C106.626 97.2514 106.49 96.7584 106.218 96.4637C105.958 96.1577 105.561 96.0047 105.028 96.0047C104.371 96.0047 103.85 96.2087 103.464 96.6167C103.079 97.0247 102.886 97.5687 102.886 98.2487V103.094H100.761ZM114.32 103.264C113.572 103.264 112.914 103.088 112.348 102.737C111.781 102.374 111.339 101.858 111.022 101.19C110.704 100.521 110.546 99.7221 110.546 98.7927C110.546 97.8634 110.704 97.0701 111.022 96.4127C111.339 95.7441 111.781 95.2341 112.348 94.8827C112.914 94.5201 113.572 94.3387 114.32 94.3387C115.045 94.3387 115.68 94.5201 116.224 94.8827C116.779 95.2341 117.147 95.7101 117.329 96.3107H117.142L117.329 94.5088H119.369C119.335 94.8601 119.301 95.2171 119.267 95.5797C119.244 95.9424 119.233 96.2994 119.233 96.6507V103.094H117.125L117.108 101.326H117.312C117.13 101.915 116.762 102.385 116.207 102.737C115.651 103.088 115.022 103.264 114.32 103.264ZM114.915 101.632C115.583 101.632 116.122 101.399 116.53 100.935C116.938 100.459 117.142 99.7447 117.142 98.7927C117.142 97.8407 116.938 97.1324 116.53 96.6677C116.122 96.2031 115.583 95.9707 114.915 95.9707C114.246 95.9707 113.708 96.2031 113.3 96.6677C112.892 97.1324 112.688 97.8407 112.688 98.7927C112.688 99.7447 112.886 100.459 113.283 100.935C113.691 101.399 114.235 101.632 114.915 101.632ZM121.547 103.094V90.5817H123.672V103.094H121.547ZM125.809 106.953L125.316 105.27C125.849 105.156 126.297 105.026 126.659 104.879C127.022 104.731 127.322 104.539 127.56 104.301C127.798 104.063 127.997 103.757 128.155 103.383L128.58 102.38L128.529 103.213L124.789 94.5088H127.05L129.736 101.207H129.243L131.946 94.5088H134.088L130.178 103.57C129.918 104.182 129.634 104.686 129.328 105.083C129.022 105.491 128.694 105.814 128.342 106.052C127.991 106.301 127.606 106.494 127.186 106.63C126.767 106.766 126.308 106.873 125.809 106.953ZM138.104 103.264C137.367 103.264 136.687 103.179 136.064 103.009C135.452 102.827 134.936 102.578 134.517 102.261L135.112 100.833C135.542 101.127 136.018 101.354 136.54 101.513C137.061 101.671 137.588 101.751 138.121 101.751C138.687 101.751 139.107 101.654 139.379 101.462C139.662 101.269 139.804 101.008 139.804 100.68C139.804 100.419 139.713 100.215 139.532 100.068C139.362 99.9091 139.084 99.7901 138.699 99.7107L136.999 99.3877C136.273 99.2291 135.718 98.9571 135.333 98.5717C134.959 98.1864 134.772 97.6821 134.772 97.0587C134.772 96.5261 134.913 96.0557 135.197 95.6477C135.491 95.2397 135.905 94.9224 136.438 94.6957C136.982 94.4577 137.616 94.3387 138.342 94.3387C138.976 94.3387 139.571 94.4237 140.127 94.5938C140.693 94.7637 141.169 95.0187 141.555 95.3587L140.943 96.7357C140.591 96.4524 140.189 96.2314 139.736 96.0727C139.282 95.9141 138.84 95.8347 138.41 95.8347C137.82 95.8347 137.39 95.9424 137.118 96.1577C136.846 96.3617 136.71 96.6281 136.71 96.9567C136.71 97.2061 136.789 97.4157 136.948 97.5857C137.118 97.7444 137.378 97.8634 137.73 97.9427L139.43 98.2657C140.189 98.4131 140.761 98.6737 141.147 99.0477C141.543 99.4104 141.742 99.9091 141.742 100.544C141.742 101.11 141.589 101.598 141.283 102.006C140.977 102.414 140.552 102.725 140.008 102.941C139.464 103.156 138.829 103.264 138.104 103.264ZM143.56 103.094V94.5088H145.685V103.094H143.56ZM143.441 92.8937V90.8197H145.804V92.8937H143.441ZM151.053 103.264C150.316 103.264 149.636 103.179 149.013 103.009C148.401 102.827 147.885 102.578 147.466 102.261L148.061 100.833C148.492 101.127 148.968 101.354 149.489 101.513C150.01 101.671 150.537 101.751 151.07 101.751C151.637 101.751 152.056 101.654 152.328 101.462C152.611 101.269 152.753 101.008 152.753 100.68C152.753 100.419 152.662 100.215 152.481 100.068C152.311 99.9091 152.033 99.7901 151.648 99.7107L149.948 99.3877C149.223 99.2291 148.667 98.9571 148.282 98.5717C147.908 98.1864 147.721 97.6821 147.721 97.0587C147.721 96.5261 147.863 96.0557 148.146 95.6477C148.441 95.2397 148.854 94.9224 149.387 94.6957C149.931 94.4577 150.566 94.3387 151.291 94.3387C151.926 94.3387 152.521 94.4237 153.076 94.5938C153.643 94.7637 154.119 95.0187 154.504 95.3587L153.892 96.7357C153.541 96.4524 153.138 96.2314 152.685 96.0727C152.232 95.9141 151.79 95.8347 151.359 95.8347C150.77 95.8347 150.339 95.9424 150.067 96.1577C149.795 96.3617 149.659 96.6281 149.659 96.9567C149.659 97.2061 149.738 97.4157 149.897 97.5857C150.067 97.7444 150.328 97.8634 150.679 97.9427L152.379 98.2657C153.138 98.4131 153.711 98.6737 154.096 99.0477C154.493 99.4104 154.691 99.9091 154.691 100.544C154.691 101.11 154.538 101.598 154.232 102.006C153.926 102.414 153.501 102.725 152.957 102.941C152.413 103.156 151.778 103.264 151.053 103.264ZM161.345 103.094V91.1087H163.538V96.4127H163.572L168.791 91.1087H171.443L165.187 97.3477L165.204 96.3957L171.851 103.094H169.114L163.572 97.5517H163.538V103.094H161.345ZM175.192 103.094V97.4327L175.651 98.7417L170.5 91.1087H173.033L176.569 96.5487H176.093L179.629 91.1087H182.077L176.943 98.7417L177.385 97.4327V103.094H175.192ZM186.081 103.094V92.9107H182.12V91.1087H192.235V92.9107H188.274V103.094H186.081Z" fill="#293972"/>
<path d="M64.4785 125.179C64.4391 125.056 64.3624 124.948 64.2593 124.872C64.1561 124.795 64.032 124.754 63.9045 124.754H58.4972L56.827 119.519C56.7875 119.396 56.7108 119.289 56.6078 119.212C56.5047 119.136 56.3807 119.095 56.2533 119.095C56.126 119.095 56.0019 119.136 55.8989 119.212C55.7958 119.289 55.7191 119.396 55.6797 119.519L54.0091 124.754H48.6032C48.4758 124.754 48.3517 124.795 48.2486 124.872C48.1455 124.948 48.0688 125.055 48.0295 125.179C47.9901 125.302 47.9902 125.435 48.0296 125.558C48.069 125.682 48.1457 125.789 48.2488 125.866L52.6222 129.101L50.9516 134.336C50.9122 134.459 50.9123 134.592 50.9517 134.715C50.9911 134.839 51.0678 134.946 51.1709 135.022C51.2739 135.099 51.398 135.14 51.5254 135.14C51.6528 135.14 51.7769 135.099 51.8799 135.022L56.2533 131.787L60.6267 135.022C60.7298 135.099 60.8539 135.14 60.9812 135.14C61.1086 135.14 61.2327 135.099 61.3358 135.022C61.4388 134.946 61.5156 134.839 61.555 134.715C61.5943 134.592 61.5944 134.459 61.5551 134.336L59.8845 129.101L64.2579 125.866C64.3611 125.79 64.4381 125.682 64.4778 125.559C64.5174 125.435 64.5177 125.302 64.4785 125.179V125.179Z" fill="url(#paint5_linear_9325_95563)"/>
<path d="M87.5893 125.179C87.5499 125.055 87.4732 124.948 87.3701 124.871C87.267 124.795 87.1428 124.754 87.0153 124.754H81.6081L79.9378 119.519C79.8984 119.396 79.8217 119.288 79.7186 119.212C79.6156 119.136 79.4915 119.095 79.3642 119.095C79.2368 119.095 79.1128 119.136 79.0097 119.212C78.9067 119.288 78.8299 119.396 78.7905 119.519L77.1199 124.754H71.714C71.5866 124.754 71.4625 124.795 71.3594 124.871C71.2564 124.947 71.1797 125.055 71.1403 125.178C71.101 125.302 71.101 125.435 71.1404 125.558C71.1798 125.681 71.2565 125.789 71.3596 125.865L75.733 129.1L74.0624 134.335C74.0231 134.459 74.0231 134.592 74.0625 134.715C74.1019 134.838 74.1786 134.946 74.2817 135.022C74.3848 135.098 74.5089 135.139 74.6362 135.139C74.7636 135.139 74.8877 135.098 74.9908 135.022L79.3642 131.787L83.7375 135.022C83.8406 135.098 83.9647 135.139 84.0921 135.139C84.2195 135.139 84.3436 135.098 84.4466 135.022C84.5497 134.946 84.6264 134.838 84.6658 134.715C84.7052 134.592 84.7052 134.459 84.6659 134.335L82.9953 129.1L87.3687 125.865C87.472 125.789 87.549 125.682 87.5886 125.558C87.6282 125.435 87.6285 125.302 87.5893 125.179V125.179Z" fill="url(#paint6_linear_9325_95563)"/>
<path d="M111.525 125.179C111.486 125.055 111.409 124.948 111.306 124.871C111.203 124.795 111.079 124.754 110.951 124.754H105.544L103.874 119.519C103.834 119.396 103.758 119.288 103.655 119.212C103.552 119.136 103.428 119.095 103.3 119.095C103.173 119.095 103.049 119.136 102.946 119.212C102.843 119.288 102.766 119.396 102.727 119.519L101.056 124.754H95.6501C95.5227 124.754 95.3985 124.795 95.2955 124.871C95.1924 124.947 95.1157 125.055 95.0764 125.178C95.037 125.302 95.037 125.435 95.0764 125.558C95.1158 125.681 95.1926 125.789 95.2957 125.865L99.669 129.1L97.9984 134.335C97.9591 134.459 97.9592 134.592 97.9986 134.715C98.038 134.838 98.1147 134.946 98.2177 135.022C98.3208 135.098 98.4449 135.139 98.5723 135.139C98.6997 135.139 98.8238 135.098 98.9268 135.022L103.3 131.787L107.674 135.022C107.777 135.098 107.901 135.139 108.028 135.139C108.155 135.139 108.28 135.098 108.383 135.022C108.486 134.946 108.562 134.838 108.602 134.715C108.641 134.592 108.641 134.459 108.602 134.335L106.931 129.1L111.305 125.865C111.408 125.789 111.485 125.682 111.525 125.558C111.564 125.435 111.565 125.302 111.525 125.179V125.179Z" fill="url(#paint7_linear_9325_95563)"/>
<path d="M135.462 125.179C135.422 125.055 135.345 124.948 135.242 124.871C135.139 124.795 135.015 124.754 134.888 124.754H129.48L127.81 119.519C127.771 119.396 127.694 119.288 127.591 119.212C127.488 119.136 127.364 119.095 127.236 119.095C127.109 119.095 126.985 119.136 126.882 119.212C126.779 119.288 126.702 119.396 126.663 119.519L124.992 124.754H119.586C119.459 124.754 119.335 124.795 119.232 124.871C119.129 124.947 119.052 125.055 119.013 125.178C118.973 125.302 118.973 125.435 119.013 125.558C119.052 125.681 119.129 125.789 119.232 125.865L123.605 129.1L121.935 134.335C121.895 134.459 121.895 134.592 121.935 134.715C121.974 134.838 122.051 134.946 122.154 135.022C122.257 135.098 122.381 135.139 122.508 135.139C122.636 135.139 122.76 135.098 122.863 135.022L127.236 131.787L131.61 135.022C131.713 135.098 131.837 135.139 131.964 135.139C132.092 135.139 132.216 135.098 132.319 135.022C132.422 134.946 132.499 134.838 132.538 134.715C132.577 134.592 132.577 134.459 132.538 134.335L130.868 129.1L135.241 125.865C135.344 125.789 135.421 125.682 135.461 125.558C135.5 125.435 135.501 125.302 135.462 125.179V125.179Z" fill="url(#paint8_linear_9325_95563)"/>
<path d="M159.398 125.179C159.358 125.055 159.282 124.948 159.178 124.871C159.075 124.795 158.951 124.754 158.824 124.754H153.416L151.746 119.519C151.707 119.396 151.63 119.288 151.527 119.212C151.424 119.136 151.3 119.095 151.173 119.095C151.045 119.095 150.921 119.136 150.818 119.212C150.715 119.288 150.638 119.396 150.599 119.519L148.928 124.754H143.522C143.395 124.754 143.271 124.795 143.168 124.871C143.065 124.947 142.988 125.055 142.949 125.178C142.909 125.302 142.909 125.435 142.949 125.558C142.988 125.681 143.065 125.789 143.168 125.865L147.541 129.1L145.871 134.335C145.831 134.459 145.831 134.592 145.871 134.715C145.91 134.838 145.987 134.946 146.09 135.022C146.193 135.098 146.317 135.139 146.445 135.139C146.572 135.139 146.696 135.098 146.799 135.022L151.173 131.787L155.546 135.022C155.649 135.098 155.773 135.139 155.9 135.139C156.028 135.139 156.152 135.098 156.255 135.022C156.358 134.946 156.435 134.838 156.474 134.715C156.514 134.592 156.514 134.459 156.474 134.335L154.804 129.1L159.177 125.865C159.28 125.789 159.357 125.682 159.397 125.558C159.437 125.435 159.437 125.302 159.398 125.179V125.179Z" fill="#DDD6C8"/>
<mask id="mask1_9325_95563" style="mask-type:alpha" maskUnits="userSpaceOnUse" x="142" y="119" width="12" height="19">
<rect x="142.75" y="119.094" width="11" height="18" fill="#D9D9D9"/>
</mask>
<g mask="url(#mask1_9325_95563)">
<path d="M159.398 125.179C159.359 125.055 159.282 124.948 159.179 124.871C159.076 124.795 158.951 124.754 158.824 124.754H153.417L151.746 119.519C151.707 119.396 151.63 119.288 151.527 119.212C151.424 119.136 151.3 119.095 151.173 119.095C151.045 119.095 150.921 119.136 150.818 119.212C150.715 119.288 150.639 119.396 150.599 119.519L148.928 124.754H143.523C143.395 124.754 143.271 124.795 143.168 124.871C143.065 124.947 142.988 125.055 142.949 125.178C142.91 125.302 142.91 125.435 142.949 125.558C142.988 125.681 143.065 125.789 143.168 125.865L147.542 129.1L145.871 134.335C145.832 134.459 145.832 134.592 145.871 134.715C145.911 134.838 145.987 134.946 146.09 135.022C146.193 135.098 146.317 135.139 146.445 135.139C146.572 135.139 146.696 135.098 146.799 135.022L151.173 131.787L155.546 135.022C155.649 135.098 155.773 135.139 155.901 135.139C156.028 135.139 156.152 135.098 156.255 135.022C156.358 134.946 156.435 134.838 156.474 134.715C156.514 134.592 156.514 134.459 156.475 134.335L154.804 129.1L159.177 125.865C159.281 125.789 159.358 125.682 159.397 125.558C159.437 125.435 159.437 125.302 159.398 125.179V125.179Z" fill="url(#paint9_linear_9325_95563)"/>
</g>
<path d="M174.644 132.005C173.981 132.005 173.347 131.903 172.74 131.697C172.133 131.492 171.625 131.198 171.214 130.815L171.648 129.919C172.105 130.293 172.577 130.563 173.062 130.731C173.547 130.899 174.07 130.983 174.63 130.983C175.367 130.983 175.927 130.829 176.31 130.521C176.693 130.204 176.884 129.742 176.884 129.135C176.884 128.557 176.688 128.118 176.296 127.819C175.904 127.511 175.33 127.357 174.574 127.357H173.09V126.391H174.476C175.129 126.391 175.647 126.223 176.03 125.887C176.413 125.551 176.604 125.094 176.604 124.515C176.604 123.993 176.427 123.596 176.072 123.325C175.727 123.045 175.227 122.905 174.574 122.905C173.51 122.905 172.591 123.283 171.816 124.039L171.382 123.129C171.765 122.737 172.245 122.434 172.824 122.219C173.403 121.995 174.009 121.883 174.644 121.883C175.615 121.883 176.375 122.107 176.926 122.555C177.477 123.003 177.752 123.624 177.752 124.417C177.752 125.024 177.579 125.547 177.234 125.985C176.889 126.415 176.422 126.709 175.834 126.867V126.713C176.534 126.825 177.075 127.105 177.458 127.553C177.841 127.992 178.032 128.547 178.032 129.219C178.032 130.078 177.729 130.759 177.122 131.263C176.525 131.758 175.699 132.005 174.644 132.005ZM180.477 131.879L185.335 122.499V123.003H179.819V122.009H186.385V122.877L181.751 131.879H180.477ZM192.017 131.879V126.545C192.017 126.265 192.008 125.981 191.989 125.691C191.98 125.402 191.961 125.122 191.933 124.851H193.025L193.165 126.559L192.969 126.573C193.063 126.153 193.226 125.808 193.459 125.537C193.693 125.267 193.968 125.066 194.285 124.935C194.603 124.795 194.934 124.725 195.279 124.725C195.419 124.725 195.541 124.73 195.643 124.739C195.755 124.749 195.858 124.772 195.951 124.809L195.937 125.817C195.797 125.771 195.667 125.743 195.545 125.733C195.433 125.715 195.303 125.705 195.153 125.705C194.743 125.705 194.383 125.803 194.075 125.999C193.777 126.195 193.548 126.447 193.389 126.755C193.24 127.063 193.165 127.39 193.165 127.735V131.879H192.017ZM199.737 132.005C199.112 132.005 198.566 131.861 198.099 131.571C197.632 131.273 197.268 130.853 197.007 130.311C196.755 129.77 196.629 129.121 196.629 128.365C196.629 127.6 196.755 126.947 197.007 126.405C197.268 125.864 197.632 125.449 198.099 125.159C198.566 124.87 199.112 124.725 199.737 124.725C200.372 124.725 200.918 124.889 201.375 125.215C201.842 125.533 202.15 125.967 202.299 126.517H202.131L202.285 124.851H203.377C203.349 125.122 203.321 125.397 203.293 125.677C203.274 125.948 203.265 126.214 203.265 126.475V131.879H202.131V130.227H202.285C202.136 130.778 201.828 131.212 201.361 131.529C200.894 131.847 200.353 132.005 199.737 132.005ZM199.961 131.081C200.633 131.081 201.165 130.853 201.557 130.395C201.949 129.929 202.145 129.252 202.145 128.365C202.145 127.469 201.949 126.793 201.557 126.335C201.165 125.869 200.633 125.635 199.961 125.635C199.298 125.635 198.766 125.869 198.365 126.335C197.973 126.793 197.777 127.469 197.777 128.365C197.777 129.252 197.973 129.929 198.365 130.395C198.766 130.853 199.298 131.081 199.961 131.081ZM207.95 132.005C207.259 132.005 206.732 131.809 206.368 131.417C206.004 131.016 205.822 130.414 205.822 129.611V125.733H204.45V124.851H205.822V122.933L206.956 122.611V124.851H208.972V125.733H206.956V129.485C206.956 130.045 207.049 130.447 207.236 130.689C207.432 130.923 207.721 131.039 208.104 131.039C208.281 131.039 208.44 131.025 208.58 130.997C208.72 130.96 208.846 130.918 208.958 130.871V131.823C208.827 131.879 208.668 131.921 208.482 131.949C208.304 131.987 208.127 132.005 207.95 132.005ZM210.352 131.879V124.851H211.486V131.879H210.352ZM210.212 123.255V121.981H211.612V123.255H210.212ZM213.688 131.879V126.475C213.688 126.214 213.674 125.948 213.646 125.677C213.627 125.397 213.604 125.122 213.576 124.851H214.668L214.808 126.391H214.64C214.845 125.85 215.172 125.439 215.62 125.159C216.077 124.87 216.605 124.725 217.202 124.725C218.033 124.725 218.658 124.949 219.078 125.397C219.507 125.836 219.722 126.531 219.722 127.483V131.879H218.588V127.553C218.588 126.891 218.453 126.41 218.182 126.111C217.921 125.803 217.51 125.649 216.95 125.649C216.297 125.649 215.779 125.85 215.396 126.251C215.013 126.653 214.822 127.189 214.822 127.861V131.879H213.688ZM224.985 135.001C224.378 135.001 223.818 134.927 223.305 134.777C222.792 134.628 222.33 134.399 221.919 134.091L222.255 133.237C222.544 133.443 222.829 133.606 223.109 133.727C223.389 133.849 223.678 133.937 223.977 133.993C224.276 134.059 224.593 134.091 224.929 134.091C225.62 134.091 226.142 133.909 226.497 133.545C226.852 133.181 227.029 132.663 227.029 131.991V129.933H227.169C227.02 130.484 226.712 130.923 226.245 131.249C225.778 131.567 225.232 131.725 224.607 131.725C223.963 131.725 223.403 131.585 222.927 131.305C222.46 131.016 222.096 130.61 221.835 130.087C221.583 129.555 221.457 128.93 221.457 128.211C221.457 127.502 221.583 126.886 221.835 126.363C222.096 125.841 222.46 125.439 222.927 125.159C223.403 124.87 223.963 124.725 224.607 124.725C225.242 124.725 225.788 124.884 226.245 125.201C226.712 125.519 227.02 125.957 227.169 126.517L227.029 126.377L227.155 124.851H228.261C228.224 125.122 228.196 125.397 228.177 125.677C228.158 125.948 228.149 126.214 228.149 126.475V131.837C228.149 132.883 227.878 133.671 227.337 134.203C226.805 134.735 226.021 135.001 224.985 135.001ZM224.817 130.801C225.498 130.801 226.035 130.577 226.427 130.129C226.819 129.672 227.015 129.033 227.015 128.211C227.015 127.39 226.819 126.755 226.427 126.307C226.035 125.859 225.498 125.635 224.817 125.635C224.145 125.635 223.608 125.859 223.207 126.307C222.806 126.755 222.605 127.39 222.605 128.211C222.605 129.033 222.806 129.672 223.207 130.129C223.608 130.577 224.145 130.801 224.817 130.801ZM232.665 132.005C232.105 132.005 231.582 131.931 231.097 131.781C230.611 131.623 230.21 131.403 229.893 131.123L230.285 130.325C230.63 130.596 231.003 130.797 231.405 130.927C231.815 131.058 232.24 131.123 232.679 131.123C233.239 131.123 233.659 131.025 233.939 130.829C234.228 130.624 234.373 130.344 234.373 129.989C234.373 129.719 234.279 129.504 234.093 129.345C233.915 129.177 233.621 129.047 233.211 128.953L231.909 128.687C231.311 128.557 230.863 128.337 230.565 128.029C230.266 127.712 230.117 127.311 230.117 126.825C230.117 126.415 230.224 126.055 230.439 125.747C230.653 125.43 230.966 125.183 231.377 125.005C231.787 124.819 232.268 124.725 232.819 124.725C233.332 124.725 233.803 124.805 234.233 124.963C234.671 125.113 235.035 125.332 235.325 125.621L234.919 126.405C234.639 126.135 234.317 125.934 233.953 125.803C233.598 125.663 233.229 125.593 232.847 125.593C232.296 125.593 231.881 125.705 231.601 125.929C231.33 126.144 231.195 126.429 231.195 126.783C231.195 127.054 231.279 127.278 231.447 127.455C231.624 127.623 231.895 127.749 232.259 127.833L233.561 128.099C234.195 128.239 234.667 128.459 234.975 128.757C235.292 129.047 235.451 129.439 235.451 129.933C235.451 130.353 235.334 130.722 235.101 131.039C234.867 131.347 234.541 131.585 234.121 131.753C233.71 131.921 233.225 132.005 232.665 132.005Z" fill="#293972" fill-opacity="0.5"/>
<path d="M17.12 134.188V131.427H10.82V129.627L17.52 120.087H19.6V129.467H21.62V131.427H19.6V134.188H17.12ZM17.12 129.467V123.127H17.6L12.74 130.067V129.467H17.12ZM23.0722 134.188V131.407H25.8722V134.188H23.0722ZM28.6731 134.188L35.5131 121.347V122.247H28.0331V120.087H37.8931V122.007L31.4931 134.188H28.6731Z" fill="#293972"/>
<defs>
<linearGradient id="paint0_linear_9325_95563" x1="51.2538" y1="34.0015" x2="51.2538" y2="50.0459" gradientUnits="userSpaceOnUse">
<stop offset="0.18" stop-color="#FFD034"/>
<stop offset="1" stop-color="#FC8600"/>
</linearGradient>
<linearGradient id="paint1_linear_9325_95563" x1="74.3647" y1="34.001" x2="74.3647" y2="50.0454" gradientUnits="userSpaceOnUse">
<stop offset="0.18" stop-color="#FFD034"/>
<stop offset="1" stop-color="#FC8600"/>
</linearGradient>
<linearGradient id="paint2_linear_9325_95563" x1="98.3007" y1="34.001" x2="98.3007" y2="50.0454" gradientUnits="userSpaceOnUse">
<stop offset="0.18" stop-color="#FFD034"/>
<stop offset="1" stop-color="#FC8600"/>
</linearGradient>
<linearGradient id="paint3_linear_9325_95563" x1="122.237" y1="34.001" x2="122.237" y2="50.0454" gradientUnits="userSpaceOnUse">
<stop offset="0.18" stop-color="#FFD034"/>
<stop offset="1" stop-color="#FC8600"/>
</linearGradient>
<linearGradient id="paint4_linear_9325_95563" x1="146.173" y1="34.001" x2="146.173" y2="50.0454" gradientUnits="userSpaceOnUse">
<stop offset="0.18" stop-color="#FFD034"/>
<stop offset="1" stop-color="#FC8600"/>
</linearGradient>
<linearGradient id="paint5_linear_9325_95563" x1="56.2538" y1="119.095" x2="56.2538" y2="135.14" gradientUnits="userSpaceOnUse">
<stop offset="0.18" stop-color="#FFD034"/>
<stop offset="1" stop-color="#FC8600"/>
</linearGradient>
<linearGradient id="paint6_linear_9325_95563" x1="79.3647" y1="119.095" x2="79.3647" y2="135.139" gradientUnits="userSpaceOnUse">
<stop offset="0.18" stop-color="#FFD034"/>
<stop offset="1" stop-color="#FC8600"/>
</linearGradient>
<linearGradient id="paint7_linear_9325_95563" x1="103.301" y1="119.095" x2="103.301" y2="135.139" gradientUnits="userSpaceOnUse">
<stop offset="0.18" stop-color="#FFD034"/>
<stop offset="1" stop-color="#FC8600"/>
</linearGradient>
<linearGradient id="paint8_linear_9325_95563" x1="127.237" y1="119.095" x2="127.237" y2="135.139" gradientUnits="userSpaceOnUse">
<stop offset="0.18" stop-color="#FFD034"/>
<stop offset="1" stop-color="#FC8600"/>
</linearGradient>
<linearGradient id="paint9_linear_9325_95563" x1="151.173" y1="119.095" x2="151.173" y2="135.139" gradientUnits="userSpaceOnUse">
<stop offset="0.18" stop-color="#FFD034"/>
<stop offset="1" stop-color="#FC8600"/>
</linearGradient>
</defs>
</svg>
