<svg width="163" height="32" viewBox="0 0 163 32" fill="none" xmlns="http://www.w3.org/2000/svg">
<path d="M13.5547 0L0 7.83924V23.4865L13.5547 31.3257L27.1094 23.4865V7.83924L13.5547 0ZM13.5547 0L0 7.83924V23.4865L13.5547 31.3257L27.1094 23.4865V7.83924L13.5547 0Z" fill="white"/>
<path d="M18.8954 25.173H16.959L14.6478 23.0492V21.9561L17.0527 19.6762V16.0533L20.1759 14.0232L23.7363 16.7091L18.8954 25.173ZM10.9 19.4888L11.2435 16.0845L10.0879 13.055H16.9902L15.8346 16.0845L16.147 19.4888H13.4922H10.9ZM12.4928 23.0492L10.1816 25.2042H8.21402L3.34183 16.7404L6.93351 14.0856L10.0879 16.0845V19.7074L12.4928 21.9873V23.0492ZM8.18279 6.77735H18.8641L20.1447 12.2117H6.93351L8.18279 6.77735ZM13.5547 0L0 7.83924V23.4865L13.5547 31.3257L27.1094 23.4865V7.83924L13.5547 0Z" fill="#293972" fill-opacity="0.5"/>
<path d="M42.3197 22.893C38.728 22.893 36.1045 20.0821 36.1045 16.6466C36.1045 13.2111 38.7592 10.3065 42.3509 10.3065C44.6308 10.3065 46.0363 11.1498 47.1606 12.3678L45.4429 14.2105C44.5996 13.3048 43.6939 12.7114 42.3197 12.7114C40.3208 12.7114 38.8529 14.4604 38.8529 16.5842C38.8529 18.7704 40.3521 20.4882 42.4758 20.4882C43.7876 20.4882 44.7245 19.8635 45.599 18.989L47.2543 20.6443C46.0363 21.9561 44.6621 22.893 42.3197 22.893Z" fill="#293972" fill-opacity="0.5"/>
<path d="M52.4701 22.8931H49.6904V10.3378H52.4701V13.2736C53.2197 11.4934 54.6251 10.2441 56.7489 10.3378V13.2736H56.5927C54.1878 13.2736 52.5013 14.8352 52.5013 18.0521L52.4701 22.8931Z" fill="#293972" fill-opacity="0.5"/>
<path d="M71.2094 10.3065L65.1192 26.2661H62.3083L63.6513 22.893L58.4043 10.3065H61.3401L64.9006 19.6137L68.3361 10.3065H71.2094Z" fill="#293972" fill-opacity="0.5"/>
<path d="M79.3607 12.7114C77.4868 12.7114 75.8627 14.2418 75.8627 16.5842C75.8627 18.9578 77.518 20.4569 79.3607 20.4569C81.2658 20.4569 82.7962 18.9578 82.7962 16.5842C82.7962 14.2105 81.2346 12.7114 79.3607 12.7114ZM79.9853 22.8618C78.0177 22.8618 76.7372 21.8624 75.9252 20.738V26.2661H73.1455V10.3065H75.9252V12.5552C76.8309 11.3059 78.0802 10.3065 79.9853 10.3065C82.8274 10.3065 85.6071 12.5552 85.6071 16.5842C85.6071 20.5819 82.8587 22.8618 79.9853 22.8618Z" fill="#293972" fill-opacity="0.5"/>
<path d="M91.6655 12.9301V18.8642C91.6655 19.9261 92.1965 20.3633 93.1646 20.3633H94.2578V22.8306H92.3526C90.3538 22.8306 88.9171 21.9249 88.9171 19.3014V12.9301H87.3867V10.5564H88.9171V7.24585H91.6967V10.5564H94.289V12.9301H91.6655Z" fill="#293972" fill-opacity="0.5"/>
<path d="M102.972 12.7114C100.754 12.7114 99.3178 14.4604 99.3178 16.5842C99.3178 18.7392 100.848 20.4882 102.972 20.4882C105.189 20.4882 106.626 18.7392 106.626 16.6154C106.689 14.4916 105.158 12.7114 102.972 12.7114ZM102.972 22.893C99.3178 22.893 96.6006 20.0821 96.6006 16.6466C96.6006 13.1799 99.349 10.3065 103.034 10.3065C106.72 10.3065 109.437 13.1174 109.437 16.5842C109.437 20.0197 106.72 22.893 102.972 22.893Z" fill="#293972" fill-opacity="0.5"/>
<path d="M135.86 12.7114C133.642 12.7114 132.205 14.4604 132.205 16.5842C132.205 18.7392 133.736 20.4882 135.86 20.4882C138.077 20.4882 139.514 18.7392 139.514 16.6154C139.576 14.4916 138.046 12.7114 135.86 12.7114ZM135.86 22.893C132.205 22.893 129.488 20.0821 129.488 16.6466C129.488 13.1799 132.237 10.3065 135.922 10.3065C139.607 10.3065 142.325 13.1174 142.325 16.5842C142.325 20.0197 139.576 22.893 135.86 22.893Z" fill="#293972" fill-opacity="0.5"/>
<path d="M158.753 10.3065C161.376 10.3065 163 11.9618 163 14.9289V22.8618H160.221V15.7409C160.221 13.8045 159.315 12.8051 157.784 12.8051C156.285 12.8051 155.192 13.867 155.192 15.8034V22.893H152.412V15.7409C152.412 13.867 151.476 12.8051 149.976 12.8051C148.446 12.8051 147.384 13.9607 147.384 15.8346V22.893H144.604V10.3065H147.384V12.3678C148.165 11.3059 149.196 10.3065 151.038 10.3065C152.787 10.3065 153.974 11.1498 154.63 12.4303C155.661 11.1498 156.91 10.3065 158.753 10.3065Z" fill="#293972" fill-opacity="0.5"/>
<path d="M114.528 20.332V21.7687L114.434 21.8937L113.216 22.5808H113.06L111.842 21.8937L111.779 21.7687V20.332L111.842 20.2071L113.06 19.52H113.216L114.434 20.2071L114.528 20.332Z" fill="#293972" fill-opacity="0.5"/>
<path d="M122.898 22.8617C119.306 22.768 116.745 19.9259 116.777 16.4904C116.839 13.0549 119.556 10.2128 123.148 10.3065C125.428 10.3689 126.833 11.2434 127.926 12.4927L126.177 14.3042C125.365 13.3984 124.46 12.7426 123.086 12.7426C121.087 12.7113 119.588 14.3978 119.556 16.5529C119.494 18.7391 120.962 20.4881 123.086 20.5193C124.397 20.5506 125.365 19.9571 126.24 19.0826L127.864 20.7692C126.677 22.0185 125.272 22.9242 122.898 22.8617Z" fill="#293972" fill-opacity="0.5"/>
</svg>
