<svg width="33" height="33" viewBox="0 0 33 33" fill="none" xmlns="http://www.w3.org/2000/svg">
<g clip-path="url(#clip0_5972_4713)">
<path d="M16.78 31.0503C25.0643 31.0503 31.78 24.3346 31.78 16.0503C31.78 7.76605 25.0643 1.05032 16.78 1.05032C8.49576 1.05032 1.78003 7.76605 1.78003 16.0503C1.78003 24.3346 8.49576 31.0503 16.78 31.0503Z" stroke="#293972" stroke-width="2" stroke-miterlimit="10"/>
<path d="M16.78 31.0503C20.646 31.0503 23.78 24.3346 23.78 16.0503C23.78 7.76605 20.646 1.05032 16.78 1.05032C12.914 1.05032 9.78003 7.76605 9.78003 16.0503C9.78003 24.3346 12.914 31.0503 16.78 31.0503Z" stroke="#293972" stroke-width="2" stroke-miterlimit="10"/>
<path d="M31.78 16.0503H0.780029" stroke="#293972" stroke-width="2" stroke-miterlimit="10"/>
<path d="M28.1402 25.8303C25.3902 24.1303 21.3302 23.0503 16.7802 23.0503C12.2302 23.0503 8.18017 24.1303 5.42017 25.8303" stroke="#293972" stroke-width="2" stroke-miterlimit="10"/>
<path d="M4.90015 6.92032C7.64015 8.82032 11.9401 10.0503 16.7801 10.0503C21.6201 10.0503 25.9201 8.82032 28.6601 6.92032" stroke="#293972" stroke-width="2" stroke-miterlimit="10"/>
</g>
<defs>
<clipPath id="clip0_5972_4713">
<rect width="32" height="32" fill="white" transform="translate(0.780029 0.0503235)"/>
</clipPath>
</defs>
</svg>
