<svg width="297" height="149" viewBox="0 0 297 149" fill="none" xmlns="http://www.w3.org/2000/svg">
<rect width="297" height="148.5" transform="translate(0 0.5)" fill="white"/>
<g clip-path="url(#clip0_13132_2071)">
<path d="M197.443 74.8458H197.445H197.342C192.193 74.8458 187.785 79.2188 187.785 84.6092C187.785 89.9996 192.16 94.3021 197.375 94.3021H197.408C197.529 94.3021 204.103 94.3742 206.427 87.7951H204.006C203.825 88.1979 201.926 92.168 197.342 92.168C193.776 92.168 190.411 89.15 190.209 85.4559H206.963L206.967 85.4165C206.982 85.1476 206.993 84.8784 207 84.6092C207 79.2188 202.59 74.8458 197.443 74.8458ZM190.209 83.3202C190.847 79.4909 193.909 76.9816 197.342 76.9816C197.36 76.9816 197.375 76.9816 197.392 76.9833C197.409 76.9818 197.426 76.9812 197.443 76.9816C197.973 76.9816 198.494 77.0418 198.998 77.1573C201.763 77.7872 204.037 80.0813 204.577 83.3202H190.209ZM174.077 92.5258C175.957 94.1511 178.895 94.732 181.388 93.9692C183.45 93.3376 184.881 91.9157 185.418 89.9675C185.613 89.2778 185.638 88.5511 185.49 87.8497C185.319 86.9994 184.93 86.2082 184.362 85.5534C184.011 85.1461 183.592 84.8033 183.123 84.5404C181.739 83.7427 180.279 83.465 178.733 83.1714C178.525 83.1327 178.317 83.0928 178.11 83.052C177.401 82.8802 176.66 82.6745 176.025 82.3207C175.596 82.0819 175.26 81.8041 174.996 81.474C174.66 81.0177 174.5 80.4548 174.547 79.8897C174.577 79.5449 174.686 79.2115 174.865 78.9157C175.605 77.6306 177.454 77.0971 178.949 77.1337C180.178 77.1185 181.316 77.4976 182.071 78.1686C182.551 78.5833 182.955 79.1309 183.269 79.7996H185.583C184.995 78.1117 183.492 75.3816 179.892 75.0278C177.766 74.7652 175.561 75.3483 174.132 76.5472C173.103 77.4114 172.516 78.5731 172.439 79.9033C172.419 80.7444 172.596 81.5128 172.965 82.1895C173.735 83.6058 175.394 84.6599 177.632 85.1568C177.961 85.2289 178.297 85.2914 178.634 85.3562L178.856 85.3973C179.84 85.5827 181.065 85.812 182.063 86.3709C182.679 86.7444 183.098 87.2238 183.316 87.7968C183.582 88.4931 183.519 89.2869 183.141 90.0306C182.663 90.963 181.75 91.683 180.696 91.9568C179.902 92.1855 178.97 92.2069 177.925 92.0233C175.839 91.6847 174.328 90.1162 173.726 87.8142H171.534C171.92 89.7427 172.798 91.4052 174.079 92.5297L174.077 92.5258ZM166.332 93.8599V83.5219C166.332 79.3517 163.843 76.9793 160.612 76.9793C157.045 76.9793 154.857 79.7252 154.857 83.3517V93.8599H152.502V75.319H154.857V77.6914H154.925C156.103 75.8942 158.189 74.8441 160.579 74.8441C165.66 74.8441 168.689 78.368 168.689 83.5219V93.8599H166.332ZM139.634 74.8458H139.636H139.534C134.384 74.8458 129.977 79.2188 129.977 84.6092C129.977 89.9996 134.351 94.3021 139.566 94.3021H139.599C139.72 94.3021 146.294 94.3742 148.619 87.7951H146.197C146.016 88.1979 144.117 92.168 139.534 92.168C135.967 92.168 132.601 89.15 132.4 85.4559H149.154L149.158 85.4165C149.173 85.1476 149.184 84.8784 149.191 84.6092C149.191 79.2188 144.782 74.8458 139.634 74.8458ZM132.4 83.3202C133.038 79.4909 136.101 76.9816 139.534 76.9816C139.551 76.9816 139.567 76.9821 139.584 76.9833C139.601 76.9818 139.617 76.9812 139.634 76.9816C140.164 76.9816 140.685 77.0418 141.19 77.1573C143.954 77.7872 146.228 80.0813 146.768 83.3202H132.4ZM115.999 91.959C110.152 91.959 105.397 87.1692 105.397 81.2824C105.397 75.3957 110.152 70.6058 115.999 70.6058C119.432 70.6058 122.489 72.2582 124.425 74.8182H127.21C124.983 70.9066 120.789 68.2627 115.999 68.2627C108.871 68.2627 103.073 74.1027 103.073 81.2824C103.073 88.4621 108.871 94.3021 115.999 94.3021C120.764 94.3021 124.936 91.6909 127.175 87.8109H124.377C122.435 90.3337 119.402 91.959 115.999 91.959Z" fill="black"/>
<path d="M100.699 81.03H90V54.75H116.09V65.8706H113.754V57.101H92.3338V78.6768H100.699V81.03Z" fill="black"/>
</g>
<defs>
<clipPath id="clip0_13132_2071">
<rect width="117" height="40" fill="white" transform="translate(90 54.75)"/>
</clipPath>
</defs>
</svg>
