<svg width="115" height="46" viewBox="0 0 115 46" fill="none" xmlns="http://www.w3.org/2000/svg">
<g clip-path="url(#clip0_7422_4576)">
<path d="M24.8467 22.9996L11.0142 28.235L0.123169 32.4075L7.11888 22.9996L0.123169 13.5918L11.0142 17.7643L24.8467 22.9996Z" fill="#939BB8"/>
<path d="M28.6228 10.7578H46.5095C53.4257 10.7578 55.1349 13.7494 55.1349 16.4261V16.7804C55.1349 19.772 52.5115 21.5827 50.6831 21.8189C53.4257 22.2125 56.3274 24.2201 56.3274 28.0383V28.3926C56.3274 31.6204 54.34 35.2812 46.589 35.2812H28.583V10.7578H28.6228ZM36.2147 15.7963V20.0082H44.6413C46.6685 20.0082 47.2647 19.0241 47.2647 17.9219C47.2647 16.7804 46.6288 15.7963 44.6413 15.7963H36.2147ZM36.2147 25.0073V29.6129H45.1581C47.5032 29.6129 48.179 28.432 48.179 27.2117C48.179 25.9914 47.543 25.0073 45.1581 25.0073H36.2147Z" fill="#939BB8"/>
<path d="M67.775 10.7578L77.9506 24.4169V10.7578H85.5425V35.2418H76.5991L66.5825 21.7402V35.2418H58.9906V10.7578H67.775Z" fill="#939BB8"/>
<path d="M96.0758 25.0467L85.463 10.7578H94.8436L100.17 17.9219L105.496 10.7578H114.877L104.264 25.0467V35.2418H96.0758V25.0467Z" fill="#939BB8"/>
</g>
<defs>
<clipPath id="clip0_7422_4576">
<rect width="115" height="46" fill="white"/>
</clipPath>
</defs>
</svg>
