<svg width="32" height="32" viewBox="0 0 32 32" fill="none" xmlns="http://www.w3.org/2000/svg">
<g clip-path="url(#clip0_5926_5261)">
<path d="M1 16V1H31V16" stroke="white" stroke-width="2" stroke-miterlimit="10"/>
<path d="M6 7H26" stroke="white" stroke-width="2" stroke-miterlimit="10"/>
<path d="M6 11H26" stroke="white" stroke-width="2" stroke-miterlimit="10"/>
<path d="M6 15H26" stroke="white" stroke-width="2" stroke-miterlimit="10"/>
<path d="M1 20V22" stroke="white" stroke-width="2" stroke-miterlimit="10"/>
<path d="M5 18V20" stroke="white" stroke-width="2" stroke-miterlimit="10"/>
<path d="M5 22V24" stroke="white" stroke-width="2" stroke-miterlimit="10"/>
<path d="M3 26V28" stroke="white" stroke-width="2" stroke-miterlimit="10"/>
<path d="M1 30V32" stroke="white" stroke-width="2" stroke-miterlimit="10"/>
<path d="M7 24V26" stroke="white" stroke-width="2" stroke-miterlimit="10"/>
<path d="M9 20V22" stroke="white" stroke-width="2" stroke-miterlimit="10"/>
<path d="M13 18V20" stroke="white" stroke-width="2" stroke-miterlimit="10"/>
<path d="M13 22V24" stroke="white" stroke-width="2" stroke-miterlimit="10"/>
<path d="M11 26V28" stroke="white" stroke-width="2" stroke-miterlimit="10"/>
<path d="M9 28V30" stroke="white" stroke-width="2" stroke-miterlimit="10"/>
<path d="M13 30V32" stroke="white" stroke-width="2" stroke-miterlimit="10"/>
<path d="M15 24V26" stroke="white" stroke-width="2" stroke-miterlimit="10"/>
<path d="M17 20V22" stroke="white" stroke-width="2" stroke-miterlimit="10"/>
<path d="M21 18V20" stroke="white" stroke-width="2" stroke-miterlimit="10"/>
<path d="M21 22V24" stroke="white" stroke-width="2" stroke-miterlimit="10"/>
<path d="M19 26V28" stroke="white" stroke-width="2" stroke-miterlimit="10"/>
<path d="M17 30V32" stroke="white" stroke-width="2" stroke-miterlimit="10"/>
<path d="M23 24V26" stroke="white" stroke-width="2" stroke-miterlimit="10"/>
<path d="M25 20V22" stroke="white" stroke-width="2" stroke-miterlimit="10"/>
<path d="M29 18V20" stroke="white" stroke-width="2" stroke-miterlimit="10"/>
<path d="M29 22V24" stroke="white" stroke-width="2" stroke-miterlimit="10"/>
<path d="M27 26V28" stroke="white" stroke-width="2" stroke-miterlimit="10"/>
<path d="M25 28V30" stroke="white" stroke-width="2" stroke-miterlimit="10"/>
<path d="M29 30V32" stroke="white" stroke-width="2" stroke-miterlimit="10"/>
<path d="M31 24V26" stroke="white" stroke-width="2" stroke-miterlimit="10"/>
</g>
<defs>
<clipPath id="clip0_5926_5261">
<rect width="32" height="32" fill="white"/>
</clipPath>
</defs>
</svg>
