<svg width="32" height="32" viewBox="0 0 32 32" fill="none" xmlns="http://www.w3.org/2000/svg">
<path d="M29 3H3C1.89543 3 1 3.89543 1 5V23C1 24.1046 1.89543 25 3 25H29C30.1046 25 31 24.1046 31 23V5C31 3.89543 30.1046 3 29 3Z" stroke="white" stroke-width="2" stroke-miterlimit="10"/>
<path d="M12 29V25" stroke="white" stroke-width="2" stroke-miterlimit="10"/>
<path d="M20 29V25" stroke="white" stroke-width="2" stroke-miterlimit="10"/>
<path d="M8 29H24" stroke="white" stroke-width="2" stroke-miterlimit="10"/>
<path d="M21.22 13.9497H11.22V19.9497H21.22V13.9497Z" stroke="white" stroke-width="2" stroke-miterlimit="10"/>
<path d="M16.22 6.94971C14.56 6.94971 13.22 8.28971 13.22 9.94971V13.9497H19.22V9.94971C19.22 8.28971 17.88 6.94971 16.22 6.94971Z" stroke="white" stroke-width="2" stroke-miterlimit="10"/>
</svg>
