<svg width="603" height="127" viewBox="0 0 603 127" fill="none" xmlns="http://www.w3.org/2000/svg">
<g clip-path="url(#clip0_5599_4119)">
<path d="M250.858 25.9853V101.585H237.484V42.2603H237.306L213.411 101.585H204.495L180.066 42.2603H179.887V101.585H167.583V25.9853H186.842L208.953 81.9853H209.31L232.669 25.9853H250.858ZM261.913 31.7603C261.913 29.6603 262.627 27.9103 264.232 26.5103C265.836 25.1103 267.62 24.4103 269.759 24.4103C272.078 24.4103 274.039 25.1103 275.466 26.5103C276.892 27.9103 277.784 29.6603 277.784 31.7603C277.784 33.8603 277.07 35.6103 275.466 37.0103C273.861 38.4103 272.078 39.1103 269.759 39.1103C267.441 39.1103 265.658 38.4103 264.232 37.0103C262.805 35.4353 261.913 33.6853 261.913 31.7603ZM276.357 47.3353V101.585H263.34V47.3353H276.357ZM315.765 92.3103C317.727 92.3103 319.867 91.9603 322.185 90.9103C324.503 90.0353 326.643 88.8103 328.604 87.4103V99.3103C326.464 100.535 324.146 101.41 321.472 101.935C318.797 102.46 315.944 102.81 312.734 102.81C304.531 102.81 297.934 100.36 292.941 95.2853C287.77 90.2103 285.273 83.7353 285.273 76.0353C285.273 67.2853 287.948 60.1103 293.119 54.5103C298.29 48.9103 305.601 46.1103 315.23 46.1103C317.727 46.1103 320.223 46.4603 322.541 46.9853C325.038 47.5103 326.999 48.3853 328.426 49.0853V61.3353C326.464 59.9353 324.325 58.7103 322.363 58.0103C320.223 57.3103 318.083 56.7853 315.944 56.7853C310.772 56.7853 306.671 58.3603 303.461 61.6853C300.252 65.0103 298.825 69.3853 298.825 74.9853C298.825 80.4103 300.43 84.7853 303.461 87.7603C306.493 90.7353 310.594 92.3103 315.765 92.3103ZM365.516 46.4603C366.586 46.4603 367.477 46.4603 368.369 46.6353C369.261 46.8103 369.974 46.9853 370.509 47.1603V60.1103C369.796 59.5853 368.904 59.0603 367.477 58.7103C366.051 58.3603 364.624 58.0103 362.663 58.0103C359.453 58.0103 356.778 59.4103 354.639 62.0353C352.499 64.6603 351.251 68.6853 351.251 74.2853V101.585H338.233V47.3353H351.251V55.9103H351.429C352.677 52.9353 354.46 50.6603 356.778 48.9103C359.275 47.3353 362.128 46.4603 365.516 46.4603ZM371.222 75.3353C371.222 66.4103 373.897 59.2353 378.89 53.9853C384.061 48.7353 391.194 46.1103 400.288 46.1103C408.847 46.1103 415.623 48.5603 420.438 53.6353C425.252 58.7103 427.749 65.5353 427.749 74.1103C427.749 82.8603 425.074 89.8603 420.081 95.1103C414.91 100.36 407.956 102.985 399.04 102.985C390.48 102.985 383.704 100.535 378.711 95.6353C373.719 90.5603 371.222 83.7353 371.222 75.3353ZM384.774 74.8103C384.774 80.4103 386.022 84.7853 388.697 87.7603C391.372 90.7353 395.117 92.3103 399.931 92.3103C404.568 92.3103 408.312 90.9103 410.809 87.7603C413.305 84.7853 414.553 80.4103 414.553 74.4603C414.553 68.6853 413.305 64.3103 410.809 61.1603C408.312 58.1853 404.568 56.6103 400.11 56.6103C395.295 56.6103 391.729 58.1853 389.054 61.3353C386.022 64.6603 384.774 69.0353 384.774 74.8103ZM447.185 61.6853C447.185 63.4353 447.72 65.0103 448.969 66.0603C450.217 67.1103 452.713 68.3353 456.815 69.9103C461.986 72.0103 465.73 74.2853 467.692 76.7353C469.832 79.3603 470.902 82.3353 470.902 86.0103C470.902 91.0853 468.94 95.1103 464.839 98.2603C460.916 101.41 455.388 102.81 448.612 102.81C446.294 102.81 443.797 102.46 440.944 101.935C438.091 101.41 435.773 100.71 433.812 99.8353V87.2353C436.13 88.8103 438.804 90.2103 441.479 91.0853C444.154 91.9603 446.65 92.4853 448.969 92.4853C451.822 92.4853 454.14 92.1353 455.388 91.2603C456.815 90.3853 457.528 89.1603 457.528 87.2353C457.528 85.4853 456.815 84.0853 455.388 82.6853C453.961 81.4603 451.108 80.0603 447.185 78.4853C442.371 76.5603 438.983 74.2853 437.021 71.8353C435.06 69.3853 433.99 66.2353 433.99 62.3853C433.99 57.4853 435.951 53.4603 439.874 50.3103C443.797 47.1603 448.969 45.5853 455.21 45.5853C457.171 45.5853 459.311 45.7603 461.629 46.2853C463.947 46.8103 466.087 47.3353 467.692 47.8603V60.2853C465.909 59.2353 463.947 58.1853 461.629 57.3103C459.311 56.4353 456.993 56.0853 454.853 56.0853C452.357 56.0853 450.395 56.6103 449.147 57.4853C447.899 58.7103 447.185 59.9353 447.185 61.6853ZM476.429 75.3353C476.429 66.4103 479.104 59.2353 484.097 53.9853C489.268 48.7353 496.401 46.1103 505.495 46.1103C514.054 46.1103 520.831 48.5603 525.645 53.6353C530.46 58.7103 532.956 65.5353 532.956 74.1103C532.956 82.8603 530.281 89.8603 525.288 95.1103C520.117 100.36 513.163 102.985 504.247 102.985C495.688 102.985 488.912 100.535 483.919 95.6353C479.104 90.5603 476.429 83.7353 476.429 75.3353ZM489.982 74.8103C489.982 80.4103 491.23 84.7853 493.905 87.7603C496.579 90.7353 500.324 92.3103 505.139 92.3103C509.775 92.3103 513.52 90.9103 516.016 87.7603C518.512 84.7853 519.761 80.4103 519.761 74.4603C519.761 68.6853 518.512 64.3103 516.016 61.1603C513.52 58.1853 509.775 56.6103 505.317 56.6103C500.502 56.6103 496.936 58.1853 494.261 61.3353C491.408 64.6603 489.982 69.0353 489.982 74.8103ZM576.287 57.8353H556.851V101.585H543.655V57.8353H534.383V47.3353H543.655V39.8103C543.655 34.2103 545.617 29.4853 549.361 25.8103C553.106 22.1353 557.921 20.3853 563.805 20.3853C565.41 20.3853 566.836 20.5603 568.085 20.5603C569.333 20.5603 570.403 20.9103 571.294 21.2603V32.2853C570.938 32.1103 570.046 31.7603 568.976 31.4103C567.906 31.0603 566.658 30.8853 565.232 30.8853C562.557 30.8853 560.417 31.7603 558.991 33.3353C557.564 34.9103 556.851 37.5353 556.851 40.6853V47.1603H576.287V34.9103L589.304 31.0603V47.1603H602.5V57.6603H589.304V83.0353C589.304 86.3603 590.018 88.6353 591.088 90.0353C592.336 91.4353 594.297 92.1353 596.972 92.1353C597.685 92.1353 598.577 91.9603 599.647 91.6103C600.717 91.2603 601.608 90.9103 602.322 90.3853V100.885C601.43 101.41 600.182 101.76 598.22 102.11C596.259 102.46 594.476 102.635 592.514 102.635C586.986 102.635 582.885 101.235 580.21 98.4353C577.536 95.6353 576.109 91.2603 576.109 85.4853L576.287 57.8353Z" fill="#939CB7"/>
<path d="M61.4846 0.785339H0.5V60.6353H61.4846V0.785339Z" fill="#939CB7"/>
<path d="M128.888 0.785339H67.9038V60.6353H128.888V0.785339Z" fill="#939CB7"/>
<path d="M61.4846 66.9353H0.5V126.785H61.4846V66.9353Z" fill="#939CB7"/>
<path d="M128.888 66.9353H67.9038V126.785H128.888V66.9353Z" fill="#939CB7"/>
</g>
<defs>
<clipPath id="clip0_5599_4119">
<rect width="602" height="126" fill="white" transform="translate(0.5 0.785339)"/>
</clipPath>
</defs>
</svg>
