<?xml version="1.0" standalone="no"?>
<!DOCTYPE svg PUBLIC "-//W3C//DTD SVG 20010904//EN"
 "http://www.w3.org/TR/2001/REC-SVG-20010904/DTD/svg10.dtd">
<svg version="1.0" xmlns="http://www.w3.org/2000/svg"
 width="700.000000pt" height="700.000000pt" viewBox="0 0 700.000000 700.000000"
 preserveAspectRatio="xMidYMid meet">
<metadata>
Created by potrace 1.11, written by Peter Selinger 2001-2013
</metadata>
<g transform="translate(0.000000,700.000000) scale(0.100000,-0.100000)"
fill="#000000" stroke="none">
<path d="M3237 6994 c-1 -1 -38 -4 -82 -8 -44 -4 -109 -11 -145 -16 -36 -5
-85 -12 -110 -15 -25 -3 -52 -7 -60 -10 -8 -3 -32 -7 -53 -9 -21 -3 -41 -7
-45 -10 -4 -2 -23 -7 -42 -10 -123 -20 -398 -108 -605 -194 -104 -43 -373
-185 -483 -256 -243 -155 -402 -283 -615 -498 -382 -385 -654 -831 -823 -1346
-41 -123 -80 -263 -90 -322 -3 -14 -11 -52 -19 -85 -7 -33 -16 -85 -20 -115
-4 -30 -8 -57 -10 -60 -2 -3 -6 -39 -10 -80 -4 -41 -9 -84 -11 -94 -2 -11 -6
-84 -10 -163 l-6 -144 64 42 c90 58 305 161 428 204 142 49 427 115 462 107 6
-1 10 17 24 113 3 17 20 88 39 158 58 213 131 394 234 582 36 64 173 275 193
297 7 7 33 40 58 72 63 84 269 289 370 369 352 281 756 464 1175 534 17 3 30
6 31 6 0 1 13 58 27 127 34 159 31 145 67 258 57 176 144 371 237 530 l25 42
-97 -2 c-53 -2 -97 -4 -98 -4z"/>
<path d="M4259 6798 c-148 -170 -274 -393 -348 -615 -44 -133 -48 -149 -28
-150 23 -1 182 -15 212 -19 17 -2 48 -6 70 -9 22 -3 52 -8 68 -10 15 -3 42 -7
60 -10 33 -6 120 -21 170 -30 164 -31 427 -116 568 -184 l64 -31 -1 -407 c-1
-225 -2 -411 -3 -416 0 -4 -9 -3 -18 3 -27 15 -141 64 -208 89 -33 12 -67 26
-75 30 -54 28 -469 145 -586 165 -146 26 -281 46 -339 52 -38 3 -83 8 -100 11
-16 2 -122 5 -235 7 -217 4 -317 -5 -485 -44 -408 -95 -798 -368 -1036 -724
-102 -151 -220 -417 -243 -547 l-6 -37 133 -31 c335 -79 601 -192 862 -366
218 -145 442 -354 594 -555 22 -30 46 -60 51 -67 38 -46 135 -209 195 -327 67
-132 152 -343 175 -435 5 -23 15 -60 21 -84 15 -59 18 -74 30 -137 16 -92 19
-99 32 -95 6 2 36 6 65 9 204 23 486 93 712 178 124 46 139 53 293 128 66 33
117 53 118 47 2 -18 6 -163 14 -457 4 -146 8 -287 9 -314 1 -31 -3 -54 -12
-63 -22 -22 -227 -118 -337 -157 -474 -169 -1103 -238 -1590 -175 -278 36
-576 131 -834 265 -131 68 -153 81 -270 162 -457 315 -808 787 -972 1305 -30
96 -31 92 36 102 153 25 353 28 470 6 33 -6 75 -13 93 -16 55 -9 221 -65 233
-78 5 -7 33 -52 62 -100 147 -248 356 -462 594 -610 153 -95 330 -171 471
-204 21 -5 22 -3 16 23 -4 16 -22 74 -41 129 -143 416 -457 771 -864 975 -93
47 -299 123 -369 136 -211 39 -239 41 -425 38 -178 -2 -223 -5 -285 -19 -14
-3 -36 -7 -50 -10 -162 -31 -367 -108 -521 -196 -91 -51 -256 -172 -323 -234
l-38 -36 17 -62 c98 -349 250 -683 448 -982 285 -431 643 -773 1112 -1062 173
-107 450 -232 684 -310 230 -76 218 -77 308 27 97 112 199 267 254 385 l44 95
45 -5 c25 -3 52 -8 60 -10 16 -4 120 -15 205 -21 83 -7 424 -5 461 2 30 5 34
4 34 -14 0 -66 -182 -481 -256 -584 -33 -47 -33 -48 -11 -49 63 -3 240 6 330
16 97 12 121 15 146 19 174 29 227 39 234 43 4 2 20 7 35 9 84 15 439 124 467
144 6 4 21 11 35 15 44 12 121 47 275 125 805 407 1411 1103 1711 1965 33 94
101 337 110 394 3 14 11 60 19 101 20 107 24 137 31 205 3 33 7 66 10 73 2 7
7 83 10 168 l7 156 -54 -34 c-231 -146 -620 -287 -895 -324 -27 -3 -58 -8 -69
-10 -115 -23 -602 -22 -668 1 -6 2 -30 7 -52 9 -156 20 -427 95 -595 166 -88
37 -288 143 -370 195 -249 159 -468 357 -648 588 -118 152 -249 373 -325 553
-41 95 -112 303 -106 309 2 2 56 11 119 21 91 13 156 15 310 11 107 -3 202 -8
210 -10 8 -3 38 -8 65 -11 132 -13 124 -7 183 -125 157 -317 448 -599 782
-759 164 -78 304 -122 509 -159 51 -9 407 -11 456 -3 28 5 68 12 90 15 284 45
612 200 839 395 39 34 91 91 90 99 -8 42 -88 277 -131 386 -287 729 -820 1343
-1503 1731 -114 65 -274 144 -354 176 -28 11 -64 26 -81 33 -79 35 -357 125
-388 125 -9 0 -48 -37 -88 -82z"/>
</g>
</svg>
