<svg width="20" height="20" viewBox="0 0 20 20" fill="none" xmlns="http://www.w3.org/2000/svg">
<path d="M17.0408 17.0419H14.0775V12.4009C14.0775 11.2947 14.0573 9.86967 12.5365 9.86967C11.0157 9.86967 10.7563 11.0758 10.7563 12.3198V17.0405H7.79308V7.49785H10.6375V8.80262H10.678C11.2574 7.81256 12.3379 7.21825 13.4846 7.26148C16.4884 7.26148 17.0421 9.23755 17.0421 11.8079V17.0432L17.0408 17.0419ZM4.4503 6.19308C3.50756 6.19308 2.73096 5.41643 2.73096 4.47364C2.73096 3.53085 3.50756 2.7542 4.4503 2.7542C5.39303 2.7542 6.16964 3.53085 6.16964 4.47364C6.16964 5.41778 5.39303 6.19308 4.4503 6.19308V6.19308ZM5.93193 17.0419H2.96461V7.49785H5.93058V17.0419H5.93193ZM18.5184 0.00148329H1.47623C0.675311 -0.00797159 0.00945435 0.643064 0 1.44268V18.5574C0.00945435 19.3583 0.675311 20.0094 1.47623 19.9999H18.5184C19.3206 20.0094 19.9892 19.3583 20 18.5574V1.44133C19.9892 0.640363 19.3206 -0.010673 18.5184 0.000132593" fill="#768AAC"/>
</svg>
