<svg width="30" height="20" viewBox="0 0 30 20" fill="none" xmlns="http://www.w3.org/2000/svg">
<path d="M29.3828 3.12922C29.037 1.9055 28.0231 0.941097 26.739 0.611858C24.391 0 14.9999 0 14.9999 0C14.9999 0 5.60891 0 3.26192 0.588549C2.00122 0.917788 0.963888 1.90647 0.618113 3.13019C0 5.36493 0 10.0005 0 10.0005C0 10.0005 0 14.6594 0.618113 16.8708C0.963888 18.0945 1.97776 19.0589 3.26192 19.3881C5.63441 20 14.9999 20 14.9999 20C14.9999 20 24.391 20 26.738 19.4114C28.0231 19.0822 29.036 18.1168 29.3818 16.8941C29.9999 14.6584 29.9999 10.0238 29.9999 10.0238C29.9999 10.0238 30.0244 5.36493 29.3818 3.12922H29.3828ZM12.0104 14.2825V5.71748L19.8194 9.99951L12.0104 14.2816V14.2825Z" fill="#768AAC"/>
</svg>
