<svg width="32" height="26" viewBox="0 0 32 26" fill="none" xmlns="http://www.w3.org/2000/svg">
<path d="M9 13C9 13.64 8.8 14.35 8.53 14.76C8.27 15.16 5 20 5 20L1.47 14.76C1.17 14.24 1 13.64 1 13C1 10.79 2.79 9 5 9C7.21 9 9 10.79 9 13Z" stroke="#293972" stroke-width="2" stroke-miterlimit="10"/>
<path d="M5 14C5.55228 14 6 13.5523 6 13C6 12.4477 5.55228 12 5 12C4.44772 12 4 12.4477 4 13C4 13.5523 4.44772 14 5 14Z" fill="#293972"/>
<path d="M31 5C31 5.64 30.8 6.35 30.53 6.76C30.27 7.16 27 12 27 12L23.47 6.76C23.17 6.24 23 5.64 23 5C23 2.79 24.79 1 27 1C29.21 1 31 2.79 31 5Z" stroke="#293972" stroke-width="2" stroke-miterlimit="10"/>
<path d="M27 6C27.5523 6 28 5.55228 28 5C28 4.44772 27.5523 4 27 4C26.4477 4 26 4.44772 26 5C26 5.55228 26.4477 6 27 6Z" fill="#293972"/>
<path d="M8 25H29" stroke="#293972" stroke-width="2" stroke-miterlimit="10"/>
<path d="M29 21C30.1 21 31 21.9 31 23C31 24.1 30.1 25 29 25" stroke="#293972" stroke-width="2" stroke-miterlimit="10"/>
<path d="M14 21H29" stroke="#293972" stroke-width="2" stroke-miterlimit="10"/>
<path d="M14 21C12.9 21 12 20.1 12 19C12 17.9 12.9 17 14 17" stroke="#293972" stroke-width="2" stroke-miterlimit="10"/>
<path d="M24 17H14" stroke="#293972" stroke-width="2" stroke-miterlimit="10"/>
<path d="M27 18C27.5523 18 28 17.5523 28 17C28 16.4477 27.5523 16 27 16C26.4477 16 26 16.4477 26 17C26 17.5523 26.4477 18 27 18Z" fill="#293972"/>
<path d="M5 26C5.55228 26 6 25.5523 6 25C6 24.4477 5.55228 24 5 24C4.44772 24 4 24.4477 4 25C4 25.5523 4.44772 26 5 26Z" fill="#293972"/>
</svg>
