<svg width="32" height="32" viewBox="0 0 32 32" fill="none" xmlns="http://www.w3.org/2000/svg">
<g clip-path="url(#clip0_10344_13724)">
<path d="M13.5 26C20.4036 26 26 20.4036 26 13.5C26 6.59644 20.4036 1 13.5 1C6.59644 1 1 6.59644 1 13.5C1 20.4036 6.59644 26 13.5 26Z" stroke="#293972" stroke-width="2" stroke-miterlimit="10"/>
<path d="M22.1621 22.1623L31.222 31.2222" stroke="#293972" stroke-width="2" stroke-miterlimit="10"/>
<path d="M13.5 18C16.6585 18 19.4265 16.4023 21 14C19.4265 11.5977 16.6585 10 13.5 10C10.3415 10 7.57351 11.5977 6 14C7.57351 16.4023 10.3415 18 13.5 18Z" stroke="#293972" stroke-width="2" stroke-miterlimit="10"/>
<path d="M13.486 15.7316C14.4904 15.7316 15.3046 14.9174 15.3046 13.913C15.3046 12.9087 14.4904 12.0945 13.486 12.0945C12.4817 12.0945 11.6675 12.9087 11.6675 13.913C11.6675 14.9174 12.4817 15.7316 13.486 15.7316Z" fill="#293972"/>
</g>
<defs>
<clipPath id="clip0_10344_13724">
<rect width="32" height="32" fill="white"/>
</clipPath>
</defs>
</svg>
