<svg width="31" height="32" viewBox="0 0 31 32" fill="none" xmlns="http://www.w3.org/2000/svg">
<g clip-path="url(#clip0_10332_13593)">
<path d="M15.5001 2.37743L28.8426 29.3016C28.9918 29.6025 29.0116 29.8031 29.0116 29.8834C28.9421 29.9235 28.7531 29.9937 28.4251 29.9937H2.57515C2.23711 29.9937 2.05815 29.9235 1.98856 29.8834C1.98856 29.8031 2.00844 29.6025 2.15758 29.3016L15.5001 2.37743ZM15.5001 0C14.8539 0 14.2076 0.491536 13.7204 1.48464L0.37791 28.4088C-0.596433 30.385 0.387852 32 2.57515 32H28.4251C30.6124 32 31.6066 30.385 30.6223 28.4088L17.2798 1.48464C16.7926 0.501567 16.1464 0 15.5001 0Z" fill="#293972"/>
<path d="M15.5 9.93103V21.9686" stroke="#293972" stroke-width="2" stroke-miterlimit="10"/>
<path d="M15.5 23.9749V25.9812" stroke="#293972" stroke-width="2" stroke-miterlimit="10"/>
</g>
<defs>
<clipPath id="clip0_10332_13593">
<rect width="31" height="32" fill="white"/>
</clipPath>
</defs>
</svg>
