<svg width="24" height="32" viewBox="0 0 24 32" fill="none" xmlns="http://www.w3.org/2000/svg">
<g clip-path="url(#clip0_10332_13564)">
<path d="M8 19C9.65685 19 11 17.6569 11 16C11 14.3431 9.65685 13 8 13C6.34315 13 5 14.3431 5 16C5 17.6569 6.34315 19 8 19Z" stroke="#293972" stroke-width="2" stroke-miterlimit="10"/>
<path d="M20 31C21.6569 31 23 29.6569 23 28C23 26.3431 21.6569 25 20 25C18.3431 25 17 26.3431 17 28C17 29.6569 18.3431 31 20 31Z" stroke="#293972" stroke-width="2" stroke-miterlimit="10"/>
<path d="M20 7C21.6569 7 23 5.65685 23 4C23 2.34315 21.6569 1 20 1C18.3431 1 17 2.34315 17 4C17 5.65685 18.3431 7 20 7Z" stroke="#293972" stroke-width="2" stroke-miterlimit="10"/>
<path d="M8 23C11.866 23 15 19.866 15 16C15 12.134 11.866 9 8 9C4.13401 9 1 12.134 1 16C1 19.866 4.13401 23 8 23Z" stroke="#293972" stroke-width="2" stroke-miterlimit="10"/>
<path d="M18 26L13 21" stroke="#293972" stroke-width="2" stroke-miterlimit="10"/>
<path d="M18 6L13 11" stroke="#293972" stroke-width="2" stroke-miterlimit="10"/>
</g>
<defs>
<clipPath id="clip0_10332_13564">
<rect width="24" height="32" fill="white"/>
</clipPath>
</defs>
</svg>
