<svg width="33" height="32" viewBox="0 0 33 32" fill="none" xmlns="http://www.w3.org/2000/svg">
<g clip-path="url(#clip0_10332_13597)">
<path d="M16.2 31C21.2 31 27.2 30 31.2 24C27.2 18 21.2 17 16.2 17C11.2 17 5.19995 18 1.19995 24C5.19995 30 11.2 31 16.2 31Z" stroke="#293972" stroke-width="2" stroke-miterlimit="10"/>
<path d="M16.2 27C17.8568 27 19.2 25.6569 19.2 24C19.2 22.3431 17.8568 21 16.2 21C14.5431 21 13.2 22.3431 13.2 24C13.2 25.6569 14.5431 27 16.2 27Z" stroke="#293972" stroke-width="2" stroke-miterlimit="10"/>
<path d="M19.2 1H13.2V5H19.2V1Z" stroke="#293972" stroke-width="2" stroke-miterlimit="10"/>
<path d="M10.2 9C10.7522 9 11.2 8.55228 11.2 8C11.2 7.44772 10.7522 7 10.2 7C9.64767 7 9.19995 7.44772 9.19995 8C9.19995 8.55228 9.64767 9 10.2 9Z" fill="#293972"/>
<path d="M7.19995 12C7.75224 12 8.19995 11.5523 8.19995 11C8.19995 10.4477 7.75224 10 7.19995 10C6.64767 10 6.19995 10.4477 6.19995 11C6.19995 11.5523 6.64767 12 7.19995 12Z" fill="#293972"/>
<path d="M4.19995 15C4.75224 15 5.19995 14.5523 5.19995 14C5.19995 13.4477 4.75224 13 4.19995 13C3.64767 13 3.19995 13.4477 3.19995 14C3.19995 14.5523 3.64767 15 4.19995 15Z" fill="#293972"/>
<path d="M1.19995 18C1.75224 18 2.19995 17.5523 2.19995 17C2.19995 16.4477 1.75224 16 1.19995 16C0.647666 16 0.199951 16.4477 0.199951 17C0.199951 17.5523 0.647666 18 1.19995 18Z" fill="#293972"/>
<path d="M22.2 9C22.7522 9 23.2 8.55228 23.2 8C23.2 7.44772 22.7522 7 22.2 7C21.6477 7 21.2 7.44772 21.2 8C21.2 8.55228 21.6477 9 22.2 9Z" fill="#293972"/>
<path d="M25.2 12C25.7522 12 26.2 11.5523 26.2 11C26.2 10.4477 25.7522 10 25.2 10C24.6477 10 24.2 10.4477 24.2 11C24.2 11.5523 24.6477 12 25.2 12Z" fill="#293972"/>
<path d="M28.2 15C28.7522 15 29.2 14.5523 29.2 14C29.2 13.4477 28.7522 13 28.2 13C27.6477 13 27.2 13.4477 27.2 14C27.2 14.5523 27.6477 15 28.2 15Z" fill="#293972"/>
<path d="M31.2 18C31.7522 18 32.2 17.5523 32.2 17C32.2 16.4477 31.7522 16 31.2 16C30.6477 16 30.2 16.4477 30.2 17C30.2 17.5523 30.6477 18 31.2 18Z" fill="#293972"/>
</g>
<defs>
<clipPath id="clip0_10332_13597">
<rect width="32.4" height="32" fill="white"/>
</clipPath>
</defs>
</svg>
