<svg width="32" height="32" viewBox="0 0 32 32" fill="none" xmlns="http://www.w3.org/2000/svg">
<g clip-path="url(#clip0_10332_13694)">
<path d="M32 31H2H1V0" stroke="#293972" stroke-width="2" stroke-miterlimit="10"/>
<path d="M22 12C23.1046 12 24 11.1046 24 10C24 8.89543 23.1046 8 22 8C20.8954 8 20 8.89543 20 10C20 11.1046 20.8954 12 22 12Z" stroke="#293972" stroke-width="2" stroke-miterlimit="10"/>
<path d="M29 5C30.1046 5 31 4.10457 31 3C31 1.89543 30.1046 1 29 1C27.8954 1 27 1.89543 27 3C27 4.10457 27.8954 5 29 5Z" stroke="#293972" stroke-width="2" stroke-miterlimit="10"/>
<path d="M13 12C14.1046 12 15 11.1046 15 10C15 8.89543 14.1046 8 13 8C11.8954 8 11 8.89543 11 10C11 11.1046 11.8954 12 13 12Z" stroke="#293972" stroke-width="2" stroke-miterlimit="10"/>
<path d="M7 18C8.10457 18 9 17.1046 9 16C9 14.8954 8.10457 14 7 14C5.89543 14 5 14.8954 5 16C5 17.1046 5.89543 18 7 18Z" stroke="#293972" stroke-width="2" stroke-miterlimit="10"/>
<path d="M8 15L12 11" stroke="#293972" stroke-width="2" stroke-miterlimit="10"/>
<path d="M24 8L27 5" stroke="#293972" stroke-width="2" stroke-miterlimit="10"/>
<path d="M20 10H15" stroke="#293972" stroke-width="2" stroke-miterlimit="10"/>
<path d="M5 21V28" stroke="#293972" stroke-width="2" stroke-miterlimit="10"/>
<path d="M9 21V28" stroke="#293972" stroke-width="2" stroke-miterlimit="10"/>
<path d="M13 15V28" stroke="#293972" stroke-width="2" stroke-miterlimit="10"/>
<path d="M17 15V28" stroke="#293972" stroke-width="2" stroke-miterlimit="10"/>
<path d="M21 15V28" stroke="#293972" stroke-width="2" stroke-miterlimit="10"/>
<path d="M25 15V28" stroke="#293972" stroke-width="2" stroke-miterlimit="10"/>
<path d="M29 28V8" stroke="#293972" stroke-width="2" stroke-miterlimit="10"/>
</g>
<defs>
<clipPath id="clip0_10332_13694">
<rect width="32" height="32" fill="white"/>
</clipPath>
</defs>
</svg>
