<svg width="149" height="29" viewBox="0 0 149 29" fill="none" xmlns="http://www.w3.org/2000/svg">
<path d="M12.3717 0.000244141L0.00012207 7.17303V21.49L12.3717 28.6628L24.7432 21.49V7.17303L12.3717 0.000244141ZM12.3717 0.000244141L0.00012207 7.17303V21.49L12.3717 28.6628L24.7432 21.49V7.17303L12.3717 0.000244141Z" fill="#F7F7F7"/>
<path d="M17.2462 23.0332H15.4788L13.3694 21.0899V20.0898L15.5643 18.0036V14.6887L18.4149 12.8312L21.6646 15.2888L17.2462 23.0332ZM9.94868 17.8322L10.2622 14.7173L9.20753 11.9454H15.5073L14.4526 14.7173L14.7377 17.8322H12.3147H9.94868ZM11.4025 21.0899L9.29305 23.0617H7.49717L3.05025 15.3174L6.32843 12.8884L9.20753 14.7173V18.0322L11.4025 20.1183V21.0899ZM7.46867 6.20142H17.2177L18.3864 11.1738H6.32843L7.46867 6.20142ZM12.3717 0.000244141L0.00012207 7.17303V21.49L12.3717 28.6628L24.7432 21.49V7.17303L12.3717 0.000244141Z" fill="#939CB7"/>
<path d="M38.626 20.9464C35.3479 20.9464 32.9534 18.3745 32.9534 15.231C32.9534 12.0876 35.3764 9.42993 38.6545 9.42993C40.7355 9.42993 42.0182 10.2015 43.0445 11.316L41.4766 13.002C40.707 12.1733 39.8803 11.6303 38.626 11.6303C36.8017 11.6303 35.4619 13.2306 35.4619 15.1739C35.4619 17.1743 36.8302 18.746 38.7686 18.746C39.9658 18.746 40.821 18.1744 41.6192 17.3743L43.13 18.8889C42.0182 20.0891 40.764 20.9464 38.626 20.9464Z" fill="#939CB7"/>
<path d="M47.8943 20.9472H45.3573V9.45935H47.8943V12.1456C48.5785 10.5167 49.8612 9.37362 51.7996 9.45935V12.1456H51.6571C49.4622 12.1456 47.9228 13.5744 47.9228 16.5178L47.8943 20.9472Z" fill="#939CB7"/>
<path d="M64.9959 9.42993L59.4372 24.0327H56.8717L58.0975 20.9464L53.3085 9.42993H55.988L59.2377 17.9458L62.3733 9.42993H64.9959Z" fill="#939CB7"/>
<path d="M72.4343 11.6303C70.7239 11.6303 69.2416 13.0306 69.2416 15.1739C69.2416 17.3457 70.7524 18.7174 72.4343 18.7174C74.1731 18.7174 75.5699 17.3457 75.5699 15.1739C75.5699 13.002 74.1446 11.6303 72.4343 11.6303ZM73.0044 20.9178C71.2085 20.9178 70.0398 20.0034 69.2986 18.9746V24.0327H66.7616V9.42993H69.2986V11.4875C70.1253 10.3444 71.2655 9.42993 73.0044 9.42993C75.5984 9.42993 78.1354 11.4875 78.1354 15.1739C78.1354 18.8317 75.6269 20.9178 73.0044 20.9178Z" fill="#939CB7"/>
<path d="M83.667 11.8318V17.2614C83.667 18.2331 84.1516 18.6331 85.0353 18.6331H86.033V20.8907H84.2942C82.4698 20.8907 81.1585 20.062 81.1585 17.6615V11.8318H79.7617V9.66001H81.1585V6.63086H83.6955V9.66001H86.0615V11.8318H83.667Z" fill="#939CB7"/>
<path d="M93.979 11.6303C91.9551 11.6303 90.6438 13.2306 90.6438 15.1739C90.6438 17.1457 92.0406 18.746 93.979 18.746C96.0029 18.746 97.3142 17.1457 97.3142 15.2025C97.3712 13.2592 95.9744 11.6303 93.979 11.6303ZM93.979 20.9464C90.6438 20.9464 88.1638 18.3745 88.1638 15.231C88.1638 12.059 90.6723 9.42993 94.036 9.42993C97.3997 9.42993 99.8797 12.0018 99.8797 15.1739C99.8797 18.3173 97.3997 20.9464 93.979 20.9464Z" fill="#939CB7"/>
<path d="M124 11.6303C121.976 11.6303 120.665 13.2306 120.665 15.1739C120.665 17.1457 122.062 18.746 124 18.746C126.024 18.746 127.335 17.1457 127.335 15.2025C127.392 13.2592 125.996 11.6303 124 11.6303ZM124 20.9464C120.665 20.9464 118.185 18.3745 118.185 15.231C118.185 12.059 120.694 9.42993 124.057 9.42993C127.421 9.42993 129.901 12.0018 129.901 15.1739C129.901 18.3173 127.392 20.9464 124 20.9464Z" fill="#939CB7"/>
<path d="M144.896 9.42993C147.291 9.42993 148.773 10.9445 148.773 13.6593V20.9178H146.236V14.4023C146.236 12.6305 145.409 11.7161 144.013 11.7161C142.644 11.7161 141.647 12.6877 141.647 14.4595V20.9464H139.11V14.4023C139.11 12.6877 138.254 11.7161 136.886 11.7161C135.489 11.7161 134.52 12.7734 134.52 14.488V20.9464H131.983V9.42993H134.52V11.316C135.233 10.3444 136.174 9.42993 137.855 9.42993C139.452 9.42993 140.535 10.2015 141.134 11.3732C142.074 10.2015 143.214 9.42993 144.896 9.42993Z" fill="#939CB7"/>
<path d="M104.529 18.6033V19.9179L104.444 20.0322L103.332 20.6609H103.189L102.078 20.0322L102.021 19.9179V18.6033L102.078 18.489L103.189 17.8604H103.332L104.444 18.489L104.529 18.6033Z" fill="#939CB7"/>
<path d="M112.174 20.9184C108.896 20.8327 106.558 18.2322 106.587 15.0887C106.644 11.9453 109.124 9.3448 112.402 9.43053C114.483 9.48768 115.766 10.2878 116.764 11.4309L115.167 13.0884C114.426 12.2596 113.599 11.6595 112.345 11.6595C110.521 11.6309 109.152 13.1741 109.124 15.1459C109.067 17.1463 110.407 18.7466 112.345 18.7751C113.542 18.8037 114.426 18.2608 115.224 17.4606L116.707 19.0038C115.623 20.1468 114.341 20.9756 112.174 20.9184Z" fill="#939CB7"/>
</svg>
