<svg width="132" height="17" viewBox="0 0 132 17" fill="none" xmlns="http://www.w3.org/2000/svg">
<path d="M112.818 16.6319C112.839 16.6558 112.854 16.6859 112.859 16.7184C112.865 16.7509 112.861 16.7845 112.849 16.8149C112.837 16.8453 112.817 16.8713 112.791 16.8896C112.765 16.9078 112.735 16.9177 112.704 16.9178H109.228C109.206 16.9178 109.185 16.9131 109.165 16.9039C109.145 16.8947 109.127 16.8813 109.113 16.8645L104.492 11.6487L99.8207 16.8653C99.806 16.8819 99.7883 16.8951 99.7687 16.9041C99.7491 16.9131 99.7279 16.9178 99.7066 16.9178H96.2295C96.1986 16.9177 96.1683 16.9078 96.1425 16.8896C96.1167 16.8713 96.0965 16.8453 96.0843 16.8149C96.0722 16.7845 96.0686 16.7509 96.0742 16.7184C96.0797 16.6859 96.094 16.6558 96.1154 16.6319L102.485 9.50862L96.331 2.58669C96.3096 2.56271 96.2952 2.53254 96.2897 2.49993C96.2842 2.46733 96.2878 2.43371 96.3 2.40326C96.3123 2.37281 96.3326 2.34687 96.3586 2.32865C96.3845 2.31043 96.4149 2.30074 96.4459 2.30078H99.9229C99.9665 2.30078 100.009 2.32024 100.039 2.35407L104.458 7.36852L108.895 2.35407C108.91 2.3373 108.928 2.32392 108.948 2.31476C108.967 2.3056 108.989 2.30085 109.011 2.30078H112.488C112.519 2.30074 112.549 2.31043 112.575 2.32865C112.601 2.34687 112.621 2.37281 112.633 2.40326C112.646 2.43371 112.649 2.46733 112.644 2.49993C112.638 2.53254 112.624 2.56271 112.602 2.58669L106.449 9.50862L112.818 16.631V16.6319ZM79.8621 16.9178C79.8037 16.9178 79.7477 16.893 79.7063 16.8489C79.665 16.8048 79.6418 16.745 79.6418 16.6826V2.53594C79.6418 2.40652 79.7409 2.30163 79.8621 2.30163H92.9958C93.1171 2.30163 93.2154 2.40652 93.2154 2.53594V4.55931C93.2154 4.62145 93.1923 4.68105 93.1511 4.72499C93.1099 4.76894 93.0541 4.79362 92.9958 4.79362H82.8271V8.05115H88.9236C89.0449 8.05115 89.1439 8.15688 89.1439 8.28631V10.3097C89.1437 10.3719 89.1204 10.4315 89.0791 10.4754C89.0378 10.5193 88.9819 10.544 88.9236 10.544H82.8271V14.1703H93.1282C93.2495 14.1703 93.3485 14.2752 93.3485 14.4046V16.6826C93.3485 16.745 93.3253 16.8048 93.284 16.8489C93.2427 16.893 93.1866 16.9178 93.1282 16.9178H79.8621ZM56.6065 16.9178C56.5482 16.9176 56.4923 16.8927 56.4512 16.8486C56.41 16.8045 56.3869 16.7448 56.3869 16.6826V2.53594C56.3869 2.40652 56.4852 2.30163 56.6065 2.30163H59.3512C59.4732 2.30163 59.5715 2.40652 59.5715 2.53594V16.6826C59.5715 16.745 59.5483 16.8048 59.507 16.8489C59.4656 16.893 59.4096 16.9178 59.3512 16.9178H56.6065ZM40.992 16.9178C40.9337 16.9176 40.8779 16.8927 40.8367 16.8486C40.7956 16.8045 40.7725 16.7448 40.7725 16.6826V2.53594C40.7725 2.40652 40.8708 2.30163 40.992 2.30163H53.9664C54.0877 2.30163 54.186 2.40652 54.186 2.53594V4.61599C54.1858 4.67806 54.1626 4.73753 54.1214 4.78142C54.0803 4.82532 54.0246 4.85007 53.9664 4.8503H43.957V8.70333H49.4963C49.6176 8.70333 49.7167 8.80822 49.7167 8.93764V11.131C49.7164 11.1933 49.6931 11.2529 49.6518 11.2968C49.6105 11.3407 49.5546 11.3653 49.4963 11.3653H43.957V16.6826C43.957 16.745 43.9338 16.8048 43.8925 16.8489C43.8512 16.893 43.7951 16.9178 43.7367 16.9178H40.992ZM32.475 4.90697V16.6826C32.475 16.7448 32.4519 16.8045 32.4108 16.8486C32.3696 16.8927 32.3138 16.9176 32.2555 16.9178H29.5108C29.4524 16.9178 29.3963 16.893 29.355 16.8489C29.3137 16.8048 29.2905 16.745 29.2905 16.6826V4.90782H23.4405C23.3821 4.90782 23.326 4.88304 23.2847 4.83894C23.2434 4.79484 23.2202 4.73503 23.2202 4.67266V2.53594C23.2202 2.40652 23.3185 2.30163 23.4405 2.30163H38.352C38.4732 2.30163 38.5715 2.40652 38.5715 2.53594V4.67266C38.5713 4.73473 38.5481 4.7942 38.507 4.8381C38.4659 4.88199 38.4101 4.90675 38.352 4.90697H32.475ZM18.055 16.9178C17.9967 16.9176 17.9409 16.8927 17.8997 16.8486C17.8586 16.8045 17.8354 16.7448 17.8354 16.6826V2.53594C17.8354 2.40652 17.9337 2.30163 18.055 2.30163H20.7997C20.9217 2.30163 21.02 2.40652 21.02 2.53594V16.6826C21.02 16.745 20.9968 16.8048 20.9555 16.8489C20.9141 16.893 20.8581 16.9178 20.7997 16.9178H18.055Z" fill="#939CB7"/>
<path fill-rule="evenodd" clip-rule="evenodd" d="M0.718994 2.53607C0.718994 2.40665 0.817273 2.30176 0.939329 2.30176H12.6678C13.4263 2.30198 14.1536 2.62372 14.6899 3.19621C15.2262 3.7687 15.5274 4.54507 15.5274 5.35458V6.32989C15.5275 6.73086 15.4536 7.12793 15.3099 7.49841C15.1662 7.8689 14.9555 8.20554 14.6899 8.48911C14.4243 8.77268 14.1089 8.99762 13.7618 9.15109C13.4147 9.30457 13.0427 9.38356 12.667 9.38356H12.774C13.5326 9.38356 14.2601 9.70505 14.7966 10.2774C15.3331 10.8497 15.6348 11.6259 15.6352 12.4355V13.8651C15.6352 14.2661 15.5612 14.6631 15.4174 15.0335C15.2736 15.404 15.0628 15.7406 14.7971 16.0241C14.5314 16.3075 14.216 16.5324 13.8689 16.6858C13.5218 16.8391 13.1497 16.918 12.774 16.9179H0.939329C0.880893 16.9179 0.82485 16.8931 0.783529 16.849C0.742208 16.8049 0.718994 16.7451 0.718994 16.6827V2.53607ZM3.84886 4.68125H11.2618C11.991 4.68125 12.5822 5.31228 12.5822 6.0905V6.75622C12.5822 7.53444 11.991 8.16463 11.2618 8.16463H3.84886V4.68125ZM3.84886 10.5712H11.341C12.0702 10.5712 12.6615 11.2022 12.6615 11.9804V12.8745C12.6615 13.6528 12.0702 14.283 11.341 14.283H3.84965V10.5712H3.84886Z" fill="#939CB7"/>
<path d="M61.7721 16.6827V2.53607C61.7721 2.40665 61.8704 2.30176 61.9924 2.30176H63.8653C63.9192 2.30176 63.9707 2.32206 64.0111 2.36097L74.5761 12.3408V2.53692C74.5761 2.40665 74.6744 2.30176 74.7956 2.30176H77.2225C77.3438 2.30176 77.442 2.40665 77.442 2.53607V16.6827C77.442 16.745 77.4189 16.8047 77.3778 16.8487C77.3366 16.8928 77.2808 16.9177 77.2225 16.9179H75.3496C75.2959 16.9178 75.244 16.8968 75.2038 16.8587L64.6388 6.85181V16.6827C64.6388 16.7451 64.6156 16.8049 64.5743 16.849C64.533 16.8931 64.4769 16.9179 64.4185 16.9179H61.9932C61.9348 16.9179 61.8787 16.8931 61.8374 16.849C61.7961 16.8049 61.7721 16.7451 61.7721 16.6827Z" fill="#939CB7"/>
<path d="M115.465 11.0326C115.326 8.63709 116.27 5.97422 118.211 3.90264C122.432 -0.60258 131.223 0.0284547 131.273 0.0326841C131.249 0.0699033 124.822 10.0142 117.206 10.9447C116.618 11.0166 116.037 11.0453 115.465 11.0326Z" fill="#939CB7"/>
<path d="M116.358 14.0943C116.576 14.4648 116.833 14.8108 117.13 15.128C119.736 17.9093 124.445 17.3925 127.648 13.9742C131.882 9.45545 131.274 0.0322266 131.274 0.0322266C131.251 0.0880554 126.644 11.1092 119.322 13.5132C118.328 13.8397 117.332 14.0292 116.358 14.0943Z" fill="#939CB7"/>
</svg>
