<svg width="96" height="28" viewBox="0 0 96 28" fill="none" xmlns="http://www.w3.org/2000/svg">
<path d="M17.4107 14.8417C17.725 14.9448 18.0908 15.0981 18.508 15.3016C19.2396 15.7112 19.8654 16.2714 20.3911 16.985C21.0196 18.0051 21.3312 19.2287 21.3312 20.6558C21.3312 25.5528 18.2967 28 12.233 28H0.471438C0.157146 28 0 27.8467 0 27.5402V3.97735C0 3.67079 0.157146 3.51751 0.471438 3.51751H12.8643C15.0616 3.51751 16.8363 4.10684 18.1964 5.27758C19.5538 6.45097 20.2366 8.00755 20.2366 9.94469C20.2366 11.0679 19.9738 12.0615 19.4536 12.9284C18.928 13.7978 18.2479 14.4347 17.4107 14.8417ZM12.0786 24.4798C13.8559 24.4798 15.1619 24.1997 15.9991 23.6395C16.8336 23.0792 17.2536 22.1093 17.2536 20.7324C17.2536 19.3555 16.8336 18.3883 15.9991 17.8254C15.1619 17.2651 13.8532 16.985 12.0786 16.985H4.70625C4.28629 16.985 4.07767 17.1383 4.07767 17.4448V24.0253C4.07767 24.3319 4.28629 24.4851 4.70625 24.4851H12.0786V24.4798ZM4.70625 7.03766C4.39196 7.03766 4.23482 7.19094 4.23482 7.4975V13.005C4.23482 13.3116 4.39196 13.4648 4.70625 13.4648H11.9214C14.639 13.4648 15.9991 12.3945 15.9991 10.2513C15.9991 8.10798 14.639 7.03766 11.9214 7.03766H4.70625ZM42.825 14.8417C43.1393 14.9448 43.4536 15.0981 43.7652 15.3016C44.5997 15.7112 45.2283 16.2714 45.6482 16.985C46.3798 18.0051 46.7455 19.2287 46.7455 20.6558C46.7455 25.5528 43.711 28 37.6473 28H25.883C25.5688 28 25.4116 27.8467 25.4116 27.5402V3.97735C25.4116 3.67079 25.5688 3.51751 25.883 3.51751H38.2759C40.3676 3.51751 42.1179 4.10684 43.5322 5.27758C44.9438 6.45097 45.6509 8.00755 45.6509 9.94469C45.6509 11.0679 45.3881 12.0615 44.8679 12.9284C44.3396 13.7978 43.6595 14.4347 42.825 14.8417ZM29.9607 7.03766C29.6464 7.03766 29.4893 7.19094 29.4893 7.4975V13.005C29.4893 13.3116 29.6464 13.4648 29.9607 13.4648H37.333C40.0506 13.4648 41.4107 12.3945 41.4107 10.2513C41.4107 8.10798 40.0506 7.03766 37.333 7.03766H29.9607ZM37.4902 24.4798C39.2676 24.4798 40.5735 24.1997 41.4107 23.6395C42.2452 23.0792 42.6652 22.1093 42.6652 20.7324C42.6652 19.3555 42.2452 18.3883 41.4107 17.8254C40.5735 17.2651 39.2648 16.985 37.4902 16.985H29.9607C29.6464 16.985 29.4893 17.1383 29.4893 17.4448V24.0253C29.4893 24.3319 29.6464 24.4851 29.9607 24.4851H37.4902V24.4798ZM69.1768 3.82407C69.2797 3.62058 69.3854 3.51751 69.4911 3.51751H73.5687C73.6717 3.51751 73.7774 3.57036 73.883 3.67079C73.986 3.77386 73.986 3.87692 73.883 3.97735L60.8643 27.8467C60.7586 27.9498 60.6286 28 60.4714 28C60.3143 28 60.1815 27.9498 60.0786 27.8467L47.0598 3.97735C46.9542 3.87692 46.9271 3.77386 46.9813 3.67079C47.0327 3.57036 47.1628 3.51751 47.3741 3.51751H51.2946C51.5033 3.51751 51.6604 3.62058 51.7661 3.82407L60.0786 19.1256C60.0786 19.2287 60.1815 19.2789 60.3929 19.2789C60.6015 19.2789 60.7586 19.2287 60.8643 19.1256L69.1768 3.82407ZM73.883 24.1759C73.7774 24.3821 73.6202 24.4825 73.4116 24.4825H69.3339C69.2283 24.4825 69.1497 24.4323 69.0982 24.3292C69.044 24.2288 69.0196 24.1257 69.0196 24.0227L82.0411 0.15328C82.144 0.0528551 82.3012 0 82.5125 0C82.7212 0 82.8783 0.0528551 82.984 0.15328L96 24.0227C96 24.1257 95.9729 24.2288 95.9214 24.3292C95.8672 24.4323 95.7887 24.4825 95.6857 24.4825H91.608C91.3967 24.4825 91.2396 24.3821 91.1366 24.1759L82.9786 8.87437C82.8729 8.67088 82.7157 8.56781 82.5071 8.56781C82.2958 8.56781 82.1386 8.67088 82.0357 8.87437L73.883 24.1759Z" fill="#9098B4"/>
</svg>
