<svg width="628" height="461" viewBox="0 0 628 461" fill="none" xmlns="http://www.w3.org/2000/svg">
<g clip-path="url(#clip0_12549_224829)">
<rect width="628" height="460" transform="translate(0 0.5)" fill="#293972"/>
<path d="M70.1167 279.292L223.629 176.732L377.141 279.292L223.629 381.852L70.1167 279.292Z" stroke="#6178BA" stroke-width="2" stroke-linecap="round" stroke-linejoin="round"/>
<path d="M70.1167 125.778L223.629 23.2175L377.141 125.778L223.629 228.338L70.1167 125.778Z" stroke="#6178BA" stroke-width="2" stroke-linecap="round" stroke-linejoin="round"/>
<path d="M70.1171 125.778L70.1167 279.271" stroke="#6178BA" stroke-width="2" stroke-linecap="round" stroke-linejoin="round"/>
<path d="M377.142 125.778L377.141 279.271" stroke="#6178BA" stroke-width="2" stroke-linecap="round" stroke-linejoin="round"/>
<path d="M223.629 228.416L223.629 378.416" stroke="#6178BA" stroke-width="2" stroke-linecap="round" stroke-linejoin="round"/>
<path d="M377 433.026L530.512 330.466L684.025 433.026L530.512 535.586L377 433.026Z" stroke="#6178BA" stroke-width="2" stroke-linecap="round" stroke-linejoin="round"/>
<path d="M377 279.512L530.512 176.952L684.025 279.512L530.512 382.072L377 279.512Z" stroke="#6178BA" stroke-width="2" stroke-linecap="round" stroke-linejoin="round"/>
<path d="M377 279.512L377 433.006" stroke="#6178BA" stroke-width="2" stroke-linecap="round" stroke-linejoin="round"/>
<path d="M530.512 382.15L530.512 532.151" stroke="#6178BA" stroke-width="2" stroke-linecap="round" stroke-linejoin="round"/>
<path d="M-237 433.026L-83.4877 330.466L70.0246 433.026L-83.4877 535.586L-237 433.026Z" stroke="#6178BA" stroke-width="2" stroke-linecap="round" stroke-linejoin="round"/>
<path d="M-237 279.512L-83.4877 176.952L70.0246 279.512L-83.4877 382.072L-237 279.512Z" stroke="#6178BA" stroke-width="2" stroke-linecap="round" stroke-linejoin="round"/>
<path d="M70.0248 279.512L70.0244 433.006" stroke="#6178BA" stroke-width="2" stroke-linecap="round" stroke-linejoin="round"/>
<path d="M377 126.026L530.512 23.4662L684.025 126.026L530.512 228.586L377 126.026Z" stroke="#6178BA" stroke-width="2" stroke-linecap="round" stroke-linejoin="round"/>
<path d="M377 -27.4877L530.512 -130.048L684.025 -27.4877L530.512 75.0723L377 -27.4877Z" stroke="#6178BA" stroke-width="2" stroke-linecap="round" stroke-linejoin="round"/>
<path d="M377 -27.4877L377 126.006" stroke="#6178BA" stroke-width="2" stroke-linecap="round" stroke-linejoin="round"/>
<path d="M530.512 75.1503L530.512 227.5" stroke="#6178BA" stroke-width="2" stroke-linecap="round" stroke-linejoin="round"/>
<path d="M-237 126.026L-83.4877 23.4662L70.0246 126.026L-83.4877 228.586L-237 126.026Z" stroke="#6178BA" stroke-width="2" stroke-linecap="round" stroke-linejoin="round"/>
<path d="M-237 -27.4877L-83.4877 -130.048L70.0246 -27.4877L-83.4877 75.0723L-237 -27.4877Z" stroke="#6178BA" stroke-width="2" stroke-linecap="round" stroke-linejoin="round"/>
<path d="M70.0248 -27.4877L70.0244 126.006" stroke="#6178BA" stroke-width="2" stroke-linecap="round" stroke-linejoin="round"/>
<path d="M168.73 176.92L223.63 140.545L278.53 176.92L278.529 348.548H168.73L168.73 176.92Z" fill="url(#paint0_linear_12549_224829)"/>
<path d="M168.671 231.931L223.629 195.214L278.588 231.931L223.629 268.649L168.671 231.931Z" fill="url(#paint1_linear_12549_224829)" fill-opacity="0.62" stroke="white" stroke-width="2" stroke-linecap="round" stroke-linejoin="round"/>
<path d="M168.671 176.972L223.629 140.254L278.588 176.972L223.629 213.689L168.671 176.972Z" fill="url(#paint2_linear_12549_224829)" fill-opacity="0.62" stroke="white" stroke-width="2" stroke-linecap="round" stroke-linejoin="round"/>
<path d="M168.671 176.972L168.671 231.924" stroke="white" stroke-width="2" stroke-linecap="round" stroke-linejoin="round"/>
<path d="M278.588 176.972L278.588 231.924" stroke="white" stroke-width="2" stroke-linecap="round" stroke-linejoin="round"/>
<path d="M223.629 213.717L223.629 267.419" stroke="white" stroke-width="2" stroke-linecap="round" stroke-linejoin="round"/>
<path d="M476.059 328.907L530.959 292.532L585.859 328.907L585.859 500.535H476.059L476.059 328.907Z" fill="url(#paint3_linear_12549_224829)"/>
<path d="M476 383.918L530.959 347.201L585.918 383.918L530.959 420.636L476 383.918Z" fill="url(#paint4_linear_12549_224829)" fill-opacity="0.62" stroke="white" stroke-width="2" stroke-linecap="round" stroke-linejoin="round"/>
<path d="M476 328.959L530.959 292.241L585.918 328.959L530.959 365.676L476 328.959Z" fill="url(#paint5_linear_12549_224829)" fill-opacity="0.62" stroke="white" stroke-width="2" stroke-linecap="round" stroke-linejoin="round"/>
<path d="M476 328.959L476 383.911" stroke="white" stroke-width="2" stroke-linecap="round" stroke-linejoin="round"/>
<path d="M585.918 328.959L585.917 383.911" stroke="white" stroke-width="2" stroke-linecap="round" stroke-linejoin="round"/>
<path d="M530.959 365.704L530.959 419.406" stroke="white" stroke-width="2" stroke-linecap="round" stroke-linejoin="round"/>
<path d="M224 132L224 -12" stroke="#27FFBE" stroke-width="2" stroke-linecap="round" stroke-linejoin="round" stroke-dasharray="8.29 11.06"/>
<path d="M163.222 173.814L-48.9998 33" stroke="#27FFBE" stroke-width="2" stroke-linecap="round" stroke-linejoin="round" stroke-dasharray="8.29 11.06"/>
<path d="M163.806 234.349L-83 404" stroke="#27FFBE" stroke-width="2" stroke-linecap="round" stroke-linejoin="round" stroke-dasharray="8.29 11.06"/>
<path d="M567.267 -20.0412L282.367 175.796" stroke="#27FFBE" stroke-width="2" stroke-linecap="round" stroke-linejoin="round" stroke-dasharray="8.29 11.06"/>
<path d="M283.681 234.183L631.655 473.774" stroke="#27FFBE" stroke-width="2" stroke-linecap="round" stroke-linejoin="round" stroke-dasharray="8.29 11.06"/>
</g>
<defs>
<linearGradient id="paint0_linear_12549_224829" x1="223.63" y1="180.419" x2="223.63" y2="303.919" gradientUnits="userSpaceOnUse">
<stop stop-color="#FFF7F0" stop-opacity="0.39"/>
<stop offset="1" stop-color="#D9D9D9" stop-opacity="0"/>
</linearGradient>
<linearGradient id="paint1_linear_12549_224829" x1="196.15" y1="204.452" x2="251.109" y2="259.411" gradientUnits="userSpaceOnUse">
<stop stop-color="#FFF7F0" stop-opacity="0.52"/>
<stop offset="1" stop-color="#FFF7F0"/>
</linearGradient>
<linearGradient id="paint2_linear_12549_224829" x1="196.15" y1="149.492" x2="251.109" y2="204.451" gradientUnits="userSpaceOnUse">
<stop stop-color="#FFF7F0" stop-opacity="0.41"/>
<stop offset="1" stop-color="#FFF7F0"/>
</linearGradient>
<linearGradient id="paint3_linear_12549_224829" x1="530.959" y1="332.406" x2="530.959" y2="455.906" gradientUnits="userSpaceOnUse">
<stop stop-color="#FFF7F0" stop-opacity="0.39"/>
<stop offset="1" stop-color="#D9D9D9" stop-opacity="0"/>
</linearGradient>
<linearGradient id="paint4_linear_12549_224829" x1="503.479" y1="356.439" x2="558.438" y2="411.398" gradientUnits="userSpaceOnUse">
<stop stop-color="#FFF7F0" stop-opacity="0.52"/>
<stop offset="1" stop-color="#FFF7F0"/>
</linearGradient>
<linearGradient id="paint5_linear_12549_224829" x1="503.479" y1="301.479" x2="558.438" y2="356.438" gradientUnits="userSpaceOnUse">
<stop stop-color="#FFF7F0" stop-opacity="0.41"/>
<stop offset="1" stop-color="#FFF7F0"/>
</linearGradient>
<clipPath id="clip0_12549_224829">
<rect width="628" height="460" fill="white" transform="translate(0 0.5)"/>
</clipPath>
</defs>
</svg>
