<svg width="80" height="80" viewBox="0 0 80 80" fill="none" xmlns="http://www.w3.org/2000/svg">
<rect width="80" height="80" rx="6" fill="#FFF7F0"/>
<path d="M41.2119 14.6797L63.3115 26.5791L64.1006 27.0039V53.2549H61.1006V30.0381L54.3281 34.2715L53.5332 33L52.7383 31.7275L59.1279 27.7324L40.5 17.7031L21.8711 27.7334L28.2617 31.7275L27.4668 33L26.6719 34.2715L19.9004 30.0391V54.2041L39 64.4883V56.9531H42V69.5117L39.7891 68.3203L17.6895 56.4209L16.9004 55.9961V27.0039L17.6895 26.5791L39.7891 14.6797L40.5 14.2959L41.2119 14.6797ZM40 29.5C45.799 29.5 50.5 34.201 50.5 40C50.5 43.4636 48.8217 46.5338 46.2354 48.4463L55.1885 60.085L52.8115 61.915L43.5547 49.8818C42.4444 50.2813 41.2478 50.5 40 50.5C34.201 50.5 29.5 45.799 29.5 40C29.5 34.201 34.201 29.5 40 29.5ZM40 32.5C35.8579 32.5 32.5 35.8579 32.5 40C32.5 44.1421 35.8579 47.5 40 47.5C44.1421 47.5 47.5 44.1421 47.5 40C47.5 35.8579 44.1421 32.5 40 32.5ZM42 42H38V38H42V42Z" fill="url(#paint0_radial_12517_225333)"/>
<defs>
<radialGradient id="paint0_radial_12517_225333" cx="0" cy="0" r="1" gradientUnits="userSpaceOnUse" gradientTransform="translate(42 68.5) rotate(-93.4166) scale(33.5596 28.9697)">
<stop stop-color="#FCAA00"/>
<stop offset="1" stop-color="#FF5300"/>
</radialGradient>
</defs>
</svg>
