<svg width="80" height="80" viewBox="0 0 80 80" fill="none" xmlns="http://www.w3.org/2000/svg">
<rect width="80" height="80" rx="6" fill="#FFF7F0"/>
<path d="M39.917 10.5C42.4525 10.5002 44.583 12.5285 44.583 15.0908V18.2266H58.833V61.4082H21V18.2266H35.25V15.0908C35.25 12.5285 37.3815 10.5002 39.917 10.5ZM24 58.4082H55.833V21.2266H49.333V27.4082H30.5V21.2266H24V58.4082ZM49.417 52.1357H43.084V49.1357H49.417V52.1357ZM49.417 45.9541H43.084V42.9541H49.417V45.9541ZM40.9648 34.709L33.0479 42.4365L32 43.459L30.9521 42.4365L26.2021 37.7998L28.2979 35.6533L32 39.2666L38.8691 32.5625L40.9648 34.709ZM49.417 39.7725H43.084V36.7725H49.417V39.7725ZM49.417 33.5908H43.084V30.5908H49.417V33.5908ZM33.5 24.4082H46.333V21.2266H33.5V24.4082ZM39.917 13.5C38.9695 13.5002 38.2501 14.2534 38.25 15.0908V18.2266H41.583V15.0908C41.583 14.2534 40.8645 13.5002 39.917 13.5Z" fill="url(#paint0_radial_12517_225503)"/>
<defs>
<radialGradient id="paint0_radial_12517_225503" cx="0" cy="0" r="1" gradientUnits="userSpaceOnUse" gradientTransform="translate(40 72) rotate(-90) scale(36 26.6686)">
<stop stop-color="#FCAA00"/>
<stop offset="1" stop-color="#FF5300"/>
</radialGradient>
</defs>
</svg>
