<svg width="80" height="80" viewBox="0 0 80 80" fill="none" xmlns="http://www.w3.org/2000/svg">
<rect width="80" height="80" rx="6" fill="#FFF7F0"/>
<path d="M40.1777 16.9824C51.9071 17.2552 61.505 26.0806 63.0254 37.4678L61.5391 37.666L60.0518 37.8652C59.7648 35.7162 59.1474 33.672 58.2539 31.7852H50.6104C50.968 33.6171 51.2185 35.5585 51.3447 37.5723L48.3506 37.7598C48.2179 35.6423 47.9405 33.636 47.5488 31.7852H41.1182V37.666H38.1182V31.7852H31.6758C31.1998 34.0321 30.8958 36.5033 30.8115 39.1182H36.666V42.1182H30.8115C30.8959 44.7299 31.1984 47.2019 31.6758 49.4512H36.666V52.4512H32.4551C32.5629 52.7965 32.6735 53.1352 32.79 53.4648C34.055 57.0423 35.7504 59.4695 37.4717 60.5654L36.7861 61.6406L36.666 62.5391L36.4678 64.0254C24.9002 62.4809 15.9768 52.6005 15.9766 40.6182C15.9768 27.5677 26.5677 16.9768 39.6182 16.9766L40.1777 16.9824ZM47.5156 40.5938C52.0124 40.5939 55.6579 44.2396 55.6582 48.7363C55.6582 50.4426 55.1314 52.0255 54.2344 53.334L62.5996 61.6992L60.4785 63.8203L52.1133 55.4551C50.8047 56.3524 49.2221 56.8789 47.5156 56.8789C43.0186 56.8789 39.373 53.2334 39.373 48.7363C39.3733 44.2395 43.0188 40.5938 47.5156 40.5938ZM22.7129 52.4512C25.1687 55.9439 28.6828 58.6402 32.791 60.0781C31.6633 58.5125 30.7143 56.5928 29.9619 54.4648C29.7333 53.8181 29.523 53.1453 29.3271 52.4512H22.7129ZM47.5156 43.5938C44.6756 43.5938 42.3733 45.8964 42.373 48.7363C42.373 51.5765 44.6755 53.8789 47.5156 53.8789C50.3557 53.8788 52.6582 51.5764 52.6582 48.7363C52.6579 45.8965 50.3555 43.5939 47.5156 43.5938ZM19.0312 42.1182C19.2191 44.7274 19.893 47.2012 20.9629 49.4512H28.6143C28.1658 47.16 27.8887 44.6923 27.8105 42.1182H19.0312ZM20.96 31.7852C19.8916 34.0361 19.2179 36.51 19.0303 39.1182H27.8105C27.8884 36.5468 28.1633 34.0787 28.6113 31.7852H20.96ZM32.8008 21.1309C28.6865 22.5716 25.1668 25.2793 22.708 28.7852H29.3213C29.7762 27.1696 30.3234 25.6741 30.9502 24.3301C31.488 23.1769 32.1059 22.0929 32.8008 21.1309ZM38.1182 20.3135C36.603 20.9869 35.0257 22.6896 33.6689 25.5986C33.2185 26.5645 32.8113 27.6321 32.4521 28.7852H38.1182V20.3135ZM41.1182 28.7852H46.7734C46.3002 27.2631 45.742 25.8928 45.1172 24.709C43.8576 22.3228 42.4613 20.9108 41.1182 20.3135V28.7852ZM46.4258 21.1289C46.913 21.8036 47.3619 22.5364 47.7695 23.3086C48.6113 24.9034 49.3291 26.7504 49.9014 28.7852H56.5098C54.0544 25.2765 50.5382 22.5687 46.4258 21.1289Z" fill="url(#paint0_radial_12517_225387)"/>
<defs>
<radialGradient id="paint0_radial_12517_225387" cx="0" cy="0" r="1" gradientUnits="userSpaceOnUse" gradientTransform="translate(45.5 64) rotate(-90) scale(29.5 29.8404)">
<stop stop-color="#FCAA00"/>
<stop offset="1" stop-color="#FF5300"/>
</radialGradient>
</defs>
</svg>
