<svg width="80" height="80" viewBox="0 0 80 80" fill="none" xmlns="http://www.w3.org/2000/svg">
<rect x="0.5" y="0.5" width="79" height="79" rx="5.5" fill="url(#paint0_linear_12522_225623)"/>
<rect x="0.5" y="0.5" width="79" height="79" rx="5.5" stroke="#293972"/>
<rect x="0.5" y="0.5" width="79" height="79" rx="5.5" fill="url(#paint1_linear_12522_225623)" stroke="#293972"/>
<path d="M42 25H38V29H42V25Z" fill="#FF5300"/>
<path d="M52.4355 50.0087C55.2847 47.3155 58.5753 46.8746 61.084 47.1044C62.3694 47.2221 63.4712 47.5144 64.251 47.7762C64.6429 47.9079 64.9598 48.0338 65.1846 48.1298C65.2968 48.1777 65.3868 48.2184 65.4521 48.2489C65.4848 48.2642 65.512 48.2771 65.5322 48.287C65.5422 48.2918 65.5507 48.2963 65.5576 48.2997C65.5609 48.3013 65.5638 48.3033 65.5664 48.3046C65.5677 48.3052 65.5692 48.306 65.5703 48.3065H65.5723C65.573 48.3069 65.5694 48.3159 64.7861 49.871L65.5732 48.3075L67.7266 49.3925L66.0283 51.1034L48.1396 69.1249L47.627 69.6415H14.25V60.6171L14.7578 60.1053L24.5156 50.2762L25.0283 49.7587H42.1436V51.5087C42.1436 53.2969 41.5786 54.9549 40.6201 56.3124H46.1689L52.1611 50.2762L52.4355 50.0087ZM60.7646 50.5897C58.8823 50.4173 56.6127 50.7594 54.6445 52.7421L48.1396 59.2948L47.627 59.8124H32.2617V56.3124H33.8887C35.8969 56.3122 37.6237 55.0511 38.3174 53.2587H26.4863L17.75 62.0594V66.1415H46.1699L61.5098 50.6864C61.2719 50.6463 61.0227 50.6134 60.7646 50.5897ZM46.3467 11.8954L45.4014 15.452C46.3314 15.8859 47.1901 16.4254 47.9688 17.0497L50.5957 14.3954L51.8398 15.6268L53.083 16.8583L50.3721 19.5956C50.9479 20.4031 51.4286 21.275 51.8037 22.1942L55.5449 21.1854L56 22.8749L56.4561 24.5643L52.668 25.5858C52.7759 26.5512 52.7761 27.5388 52.6543 28.5331L56.4561 29.5575L56 31.2469L55.5449 32.9364L51.7607 31.9169C51.3769 32.8378 50.893 33.6948 50.3252 34.4784L53.083 37.2635L51.8398 38.494L50.5957 39.7255L47.9004 37.0038C47.1204 37.6189 46.2707 38.1398 45.3711 38.5585L46.3467 42.2264L44.6553 42.6766L42.9639 43.1259L42.0234 39.5887C41.0197 39.7506 39.9869 39.7938 38.9443 39.7059L38.0361 43.1259L36.3447 42.6766L34.6533 42.2264L35.5273 38.9374C34.4958 38.552 33.539 38.0432 32.6699 37.4325L30.3926 39.7274L29.1504 38.494L27.9082 37.2616L30.1123 35.0419C29.3981 34.1625 28.8034 33.1925 28.3447 32.1581L25.4561 32.9364L24.5439 29.5575L27.376 28.7948C27.2147 27.6639 27.2053 26.4982 27.3623 25.3251L24.5439 24.5643L25.4561 21.1854L28.2939 21.951C28.7537 20.882 29.3497 19.9013 30.0547 19.0233L27.9082 16.8593L30.3926 14.3944L32.6025 16.6219C33.4966 15.9853 34.4698 15.4653 35.498 15.076L34.6533 11.8954L38.0361 10.9969L38.9121 14.2968C39.9424 14.2085 40.9962 14.2458 42.0537 14.4198L42.9639 10.9969L46.3467 11.8954ZM42.3955 18.0673C37.4585 16.744 32.3927 19.6746 31.0684 24.6044C29.7449 29.5415 32.6746 34.6072 37.6045 35.9315H37.6035C42.541 37.2556 47.6072 34.3256 48.9316 29.3954C50.255 24.4582 47.3254 19.3926 42.3955 18.0682V18.0673Z" fill="url(#paint2_linear_12522_225623)"/>
<defs>
<linearGradient id="paint0_linear_12522_225623" x1="40" y1="0" x2="40" y2="80" gradientUnits="userSpaceOnUse">
<stop stop-color="#1B295C"/>
<stop offset="1" stop-color="#293972"/>
</linearGradient>
<linearGradient id="paint1_linear_12522_225623" x1="40" y1="0" x2="40" y2="80" gradientUnits="userSpaceOnUse">
<stop stop-color="#1B295C"/>
<stop offset="1" stop-color="#293972"/>
</linearGradient>
<linearGradient id="paint2_linear_12522_225623" x1="36.9126" y1="18.5" x2="37.2465" y2="75.9981" gradientUnits="userSpaceOnUse">
<stop stop-color="white"/>
<stop offset="1" stop-color="#D1DAFB"/>
</linearGradient>
</defs>
</svg>
