<svg width="297" height="149" viewBox="0 0 297 149" fill="none" xmlns="http://www.w3.org/2000/svg">
<rect width="297" height="148.5" fill="white"/>
<g clip-path="url(#clip0_12258_35461)">
<path d="M90.427 65.9751H78V70.0471H86.266V86.3651H90.427V65.9751Z" fill="#2D2832"/>
<path d="M98.693 61.9021H90.427V65.9751H98.693V61.9021Z" fill="#FA64FF"/>
<path d="M117.007 86.3651L115.309 82.2931H104.382L102.684 86.3651H98.2959L106.788 65.9751H112.988L121.48 86.3651H117.007ZM110.044 69.6571H109.619L105.91 78.6101H113.78L110.043 69.6561L110.044 69.6571Z" fill="#2D2832"/>
<path d="M128.275 76.5741C128.275 78.4151 128.812 79.9491 129.916 81.1211C130.992 82.2931 132.379 82.9061 134.078 82.9061C135.776 82.9061 137.135 82.3201 138.238 81.1211C139.315 79.9491 139.881 78.4151 139.881 76.5741V65.9741H144.013V76.5741C144.013 78.0531 143.759 79.3921 143.277 80.6471C142.768 81.9021 142.089 82.9621 141.211 83.8551C140.318 84.7674 139.249 85.4887 138.069 85.9751C136.812 86.4931 135.465 86.7582 134.106 86.7551C132.69 86.7551 131.36 86.5051 130.143 85.9751C128.926 85.4451 127.878 84.7471 127.001 83.8551C126.103 82.9361 125.4 81.8449 124.934 80.6471C124.453 79.4201 124.198 78.0251 124.198 76.5741V65.9741H128.331V76.5741H128.275Z" fill="#2D2832"/>
<path d="M164.904 77.9691C165.244 78.3591 165.471 78.6661 165.64 78.9451L170.311 86.3651H165.641L160.375 77.9971H153.893V86.3651H149.76V65.9751H164.083C165.952 65.9751 167.452 66.5331 168.584 67.6481C169.717 68.7641 170.283 70.2431 170.283 72.0841C170.283 73.7011 169.802 75.0681 168.811 76.1281C167.877 77.1881 166.546 77.8021 164.904 77.9691ZM164.112 69.6571H153.92V74.3431H164.11C164.733 74.3431 165.243 74.1481 165.611 73.7851C165.979 73.4221 166.177 72.9201 166.177 72.3071V71.6931C166.177 71.0791 165.979 70.5771 165.611 70.2151C165.243 69.8521 164.735 69.6571 164.112 69.6571Z" fill="#2D2832"/>
<path d="M179.114 76.5741C179.114 78.4151 179.652 79.9491 180.756 81.1211C181.832 82.2931 183.219 82.9061 184.917 82.9061C186.616 82.9061 187.975 82.3201 189.079 81.1211C190.154 79.9491 190.72 78.4151 190.72 76.5741V65.9741H194.853V76.5741C194.853 78.0531 194.599 79.3921 194.117 80.6471C193.608 81.9021 192.928 82.9621 192.051 83.8551C191.158 84.7673 190.089 85.4885 188.909 85.9751C187.652 86.4931 186.306 86.7582 184.946 86.7551C183.53 86.7551 182.2 86.5051 180.983 85.9751C179.765 85.4451 178.718 84.7471 177.841 83.8551C176.943 82.9361 176.24 81.8449 175.774 80.6471C175.293 79.4201 175.038 78.0251 175.038 76.5741V65.9741H179.171V76.5741H179.114Z" fill="#2D2832"/>
<path d="M199.411 80.256H203.487C203.487 81.121 204.025 81.818 205.073 82.348C206.12 82.878 207.507 83.129 209.206 83.129C211.074 83.129 212.489 82.879 213.48 82.349C214.442 81.819 214.924 81.093 214.924 80.145C214.924 79.335 214.442 78.75 213.508 78.359C212.574 77.997 211.074 77.801 209.036 77.801C205.809 77.801 203.459 77.355 201.987 76.435C200.543 75.515 199.807 74.035 199.807 71.972C199.807 69.88 200.6 68.29 202.185 67.202C203.771 66.114 206.12 65.584 209.177 65.584C210.593 65.584 211.866 65.752 213.027 66.058C214.188 66.365 215.178 66.812 215.971 67.398C216.757 67.9269 217.407 68.6337 217.868 69.461C218.321 70.271 218.547 71.163 218.547 72.139H214.471C214.471 71.275 213.99 70.577 213.027 70.047C212.065 69.545 210.762 69.267 209.177 69.267C205.639 69.267 203.884 70.187 203.884 72C203.884 72.78 204.308 73.339 205.158 73.673C206.007 74.008 207.422 74.175 209.375 74.175C212.744 74.175 215.178 74.65 216.707 75.598C218.207 76.546 218.972 78.08 218.972 80.172C218.972 82.348 218.151 83.994 216.481 85.137C214.81 86.253 212.376 86.839 209.177 86.839C207.705 86.839 206.375 86.672 205.186 86.365C203.997 86.058 202.95 85.612 202.1 85.025C201.251 84.468 200.572 83.771 200.091 82.962C199.638 82.1323 199.404 81.2011 199.411 80.256Z" fill="#2D2832"/>
</g>
<defs>
<clipPath id="clip0_12258_35461">
<rect width="141" height="26" fill="white" transform="translate(78 61.25)"/>
</clipPath>
</defs>
</svg>
