<svg width="297" height="149" viewBox="0 0 297 149" fill="none" xmlns="http://www.w3.org/2000/svg">
<rect width="297" height="148.5" transform="translate(0 0.5)" fill="white"/>
<g clip-path="url(#clip0_12258_34969)">
<path d="M132.572 76.9485H117.139C116.904 76.9485 116.717 77.1357 116.717 77.3713V81.7927C116.717 82.0283 116.904 82.2155 117.139 82.2155H125.324C125.137 87.2953 122.122 90.0738 117.417 90.0738C111.582 90.0738 108.381 85.604 108.381 78.4525C108.381 71.3009 111.437 66.6439 117.182 66.6439C121.229 66.6439 123.814 68.5285 124.895 72.1465C124.943 72.3821 125.179 72.5693 125.414 72.5693H131.956C132.191 72.5693 132.33 72.3821 132.282 72.1465C130.543 65.2305 125.318 61.1836 117.133 61.1836C107.59 61.1896 101 67.9667 101 78.3619C101 88.757 107.632 95.5341 117.375 95.5341C127.118 95.5341 133.091 89.5604 132.995 77.3713C132.995 77.1357 132.808 76.9485 132.572 76.9485Z" fill="black"/>
<path d="M150.451 75.3054L161.13 62.2284C161.269 62.0895 161.178 61.8962 160.991 61.8962H153.368C153.133 61.8962 152.849 62.0352 152.71 62.2284L143.064 75.6376L143.203 62.3251C143.203 62.0895 143.016 61.9023 142.78 61.9023H136.383C136.148 61.9023 135.961 62.0895 135.961 62.3251L136.148 78.3678L135.912 94.4105C135.912 94.6461 136.1 94.8333 136.335 94.8333H142.78C143.016 94.8333 143.203 94.6461 143.203 94.4105L143.106 84.2932L145.836 80.9047L151.103 88.8535L154.866 94.5011C155.005 94.6883 155.289 94.8333 155.525 94.8333H163.522C163.709 94.8333 163.806 94.6461 163.709 94.5011L150.439 75.3054H150.451Z" fill="black"/>
<path d="M183.708 77.3113C185.925 75.6442 187.085 73.3489 187.085 70.5704C187.085 65.0135 182.452 61.1477 175.699 61.1477C168.946 61.1477 164.265 65.0618 164.265 70.5704C164.265 73.2945 165.419 75.5717 167.647 77.3052C164.778 79.1233 163.371 81.636 163.371 84.8796C163.371 91.107 168.408 95.4318 175.663 95.4318C182.917 95.4318 188.003 91.0406 188.003 84.8796C188.003 81.6542 186.559 79.1354 183.714 77.3113H183.708ZM175.699 89.3494C172.558 89.3494 170.432 87.4648 170.432 84.7769C170.432 82.0891 172.558 80.1985 175.699 80.1985C178.84 80.1985 180.936 82.077 180.936 84.7769C180.936 87.4769 178.852 89.3494 175.699 89.3494Z" fill="black"/>
<path d="M192.086 53.9658C189.779 53.9658 188.13 55.639 188.13 57.898C188.13 60.157 189.779 61.8362 192.086 61.8362C194.393 61.8362 196 60.1631 196 57.898C196 55.6329 194.381 53.9658 192.086 53.9658Z" fill="black"/>
</g>
<defs>
<clipPath id="clip0_12258_34969">
<rect width="95" height="42" fill="white" transform="translate(101 53.75)"/>
</clipPath>
</defs>
</svg>
