<svg width="297" height="149" viewBox="0 0 297 149" fill="none" xmlns="http://www.w3.org/2000/svg">
<rect width="297" height="148.5" fill="white"/>
<g clip-path="url(#clip0_12258_35176)">
<path d="M228 48.25H69V100.25H228V48.25Z" fill="white"/>
<path fill-rule="evenodd" clip-rule="evenodd" d="M216.746 88.7282C216.746 88.8856 216.622 89.0128 216.466 89.0128H151.699C151.523 89.0128 151.428 88.805 151.542 88.6678L153.418 86.4153C153.712 86.0615 154.146 85.8575 154.602 85.8575H213.117C213.403 85.8575 213.634 85.6233 213.634 85.3337V64.7088C213.634 64.5929 213.726 64.4998 213.84 64.4998H216.54C216.654 64.4998 216.746 64.5929 216.746 64.7088V88.727V88.7282Z" fill="black"/>
<path d="M152.884 59.4558H210.514C210.514 59.4558 210.514 79.5671 210.514 82.4793C210.514 82.5952 210.421 82.6833 210.306 82.6833C191.201 82.6141 171.997 82.6821 152.891 82.6833C152.429 82.6833 151.991 82.8923 151.696 83.2549L147.464 88.4575C147.17 88.8188 146.731 89.0291 146.269 89.0291H86.6093C86.495 89.0291 86.4031 88.9359 86.4031 88.8201V65.959C86.4031 65.8431 86.4813 65.75 86.5956 65.75C90.0315 65.75 138.328 65.75 146.253 65.75C146.711 65.75 147.134 65.5447 147.428 65.1884L151.697 60.0199C151.992 59.6636 152.427 59.4571 152.885 59.4571L152.884 59.4558Z" fill="black"/>
<path d="M103.17 70.6982C103.227 70.6982 103.273 70.7448 103.273 70.8027V83.9652C103.273 84.0231 103.227 84.0697 103.17 84.0697H100.821C100.79 84.0697 100.761 84.0558 100.742 84.0319L94.2114 75.9511V83.9652C94.2114 84.0231 94.1655 84.0697 94.1083 84.0697H91.3072C91.2501 84.0697 91.2041 84.0231 91.2041 83.9652V70.8027C91.2041 70.7448 91.2501 70.6982 91.3072 70.6982H93.6748C93.7059 70.6982 93.7357 70.7121 93.7543 70.7373L100.266 78.818V70.804C100.266 70.7461 100.312 70.6995 100.369 70.6995H103.17V70.6982Z" fill="white"/>
<path d="M112.761 84.2987C111.395 84.2987 110.16 83.9991 109.057 83.401C107.966 82.8029 107.108 81.9808 106.481 80.937C105.866 79.8794 105.559 78.6958 105.559 77.3839C105.559 76.0719 105.866 74.8947 106.481 73.8496C107.108 72.792 107.966 71.9648 109.057 71.3667C110.16 70.7687 111.395 70.469 112.761 70.469C114.127 70.469 115.356 70.7687 116.447 71.3667C117.537 71.9648 118.396 72.7933 119.023 73.8496C119.65 74.8934 119.963 76.0719 119.963 77.3839C119.963 78.6958 119.65 79.8806 119.023 80.937C118.397 81.9808 117.537 82.8029 116.447 83.401C115.356 83.9991 114.127 84.2987 112.761 84.2987ZM112.761 81.6622C113.539 81.6622 114.24 81.4834 114.867 81.1271C115.493 80.7582 115.982 80.2483 116.334 79.5986C116.698 78.9489 116.879 78.2098 116.879 77.3826C116.879 76.5554 116.698 75.8163 116.334 75.1666C115.982 74.5169 115.494 74.0146 114.867 73.657C114.239 73.2881 113.537 73.103 112.761 73.103C111.985 73.103 111.282 73.2881 110.656 73.657C110.028 74.0133 109.534 74.5169 109.17 75.1666C108.818 75.8163 108.643 76.5541 108.643 77.3826C108.643 78.2111 108.818 78.9489 109.17 79.5986C109.534 80.2483 110.028 80.7569 110.656 81.1271C111.283 81.4834 111.985 81.6622 112.761 81.6622Z" fill="white"/>
<path d="M124.793 73.2189H120.685C120.628 73.2189 120.582 73.1723 120.582 73.1144V70.8027C120.582 70.7448 120.628 70.6982 120.685 70.6982H131.948C132.005 70.6982 132.051 70.7448 132.051 70.8027V73.1144C132.051 73.1723 132.005 73.2189 131.948 73.2189H127.84V83.9652C127.84 84.0231 127.794 84.0697 127.737 84.0697H124.897C124.84 84.0697 124.794 84.0231 124.794 83.9652V73.2189H124.793Z" fill="white"/>
<path d="M141.723 81.2694C141.706 81.2304 141.669 81.2052 141.627 81.2052H135.655C135.612 81.2052 135.575 81.2304 135.559 81.2694L134.446 84.0054C134.43 84.0445 134.392 84.0709 134.35 84.0709H131.457C131.383 84.0709 131.333 83.9928 131.363 83.9236L137.138 70.7612C137.154 70.7234 137.191 70.6995 137.232 70.6995H140.107C140.148 70.6995 140.185 70.7234 140.201 70.7612L145.993 83.9236C146.023 83.9928 145.973 84.0709 145.899 84.0709H142.931C142.889 84.0709 142.852 84.0457 142.836 84.0054L141.723 81.2694ZM140.738 78.8545L138.651 73.7351L136.564 78.8545H140.738Z" fill="white"/>
<path d="M162.993 70.7069C162.914 70.756 162.926 70.8807 163.011 70.9134C163.653 71.1602 164.166 71.5392 164.548 72.0491C164.975 72.6081 165.189 73.2994 165.189 74.1253C165.189 75.2938 164.737 76.1953 163.832 76.8298C162.94 77.4518 161.634 77.7628 159.912 77.7628H153.192C153.135 77.7628 153.089 77.7162 153.089 77.6583V64.5349C153.089 64.477 153.135 64.4304 153.192 64.4304H159.534C161.143 64.4304 162.374 64.7414 163.229 65.3634C164.096 65.9854 164.529 66.8302 164.529 67.8967C164.529 68.5438 164.373 69.1218 164.058 69.6304C163.798 70.0698 163.442 70.4287 162.994 70.7057L162.993 70.7069ZM156.225 66.7547C156.168 66.7547 156.122 66.8013 156.122 66.8592V69.7928C156.122 69.8508 156.168 69.8973 156.225 69.8973H159.157C159.911 69.8973 160.482 69.7639 160.872 69.497C161.262 69.23 161.456 68.8372 161.456 68.3159C161.456 67.7947 161.261 67.4081 160.872 67.1538C160.482 66.8869 159.911 66.7534 159.157 66.7534H156.225V66.7547ZM159.685 75.4398C160.488 75.4398 161.092 75.3064 161.495 75.0394C161.909 74.7725 162.117 74.3595 162.117 73.8018C162.117 72.6975 161.306 72.1448 159.686 72.1448H156.226C156.169 72.1448 156.123 72.1914 156.123 72.2493V75.3353C156.123 75.3932 156.169 75.4398 156.226 75.4398H159.686H159.685Z" fill="white"/>
<path d="M177.613 75.2875C177.67 75.2875 177.716 75.3341 177.716 75.392V77.6583C177.716 77.7162 177.67 77.7628 177.613 77.7628H167.604C167.546 77.7628 167.5 77.7162 167.5 77.6583V64.5349C167.5 64.477 167.546 64.4304 167.604 64.4304H177.368C177.426 64.4304 177.472 64.477 177.472 64.5349V66.8013C177.472 66.8592 177.426 66.9058 177.368 66.9058H170.638C170.581 66.9058 170.535 66.9524 170.535 67.0103V69.6959C170.535 69.7538 170.581 69.8004 170.638 69.8004H176.557C176.614 69.8004 176.66 69.847 176.66 69.9049V72.0957C176.66 72.1536 176.614 72.2002 176.557 72.2002H170.638C170.581 72.2002 170.535 72.2468 170.535 72.3047V75.1817C170.535 75.2396 170.581 75.2862 170.638 75.2862H177.613V75.2875Z" fill="white"/>
<path d="M192.143 64.4304C192.2 64.4304 192.246 64.477 192.246 64.5349V77.6583C192.246 77.7162 192.2 77.7628 192.143 77.7628H189.788C189.757 77.7628 189.728 77.749 189.708 77.725L183.161 69.6682V77.6583C183.161 77.7162 183.115 77.7628 183.058 77.7628H180.249C180.192 77.7628 180.146 77.7162 180.146 77.6583V64.5349C180.146 64.477 180.192 64.4304 180.249 64.4304H182.623C182.654 64.4304 182.683 64.4443 182.702 64.4682L189.23 72.525V64.5349C189.23 64.477 189.276 64.4304 189.333 64.4304H192.142H192.143Z" fill="white"/>
<path d="M205.48 75.2875C205.537 75.2875 205.583 75.3341 205.583 75.392V77.6583C205.583 77.7162 205.537 77.7628 205.48 77.7628H195.471C195.415 77.7628 195.368 77.7162 195.368 77.6583V64.5349C195.368 64.477 195.415 64.4304 195.471 64.4304H205.236C205.293 64.4304 205.339 64.477 205.339 64.5349V66.8013C205.339 66.8592 205.293 66.9058 205.236 66.9058H198.505C198.448 66.9058 198.402 66.9524 198.402 67.0103V69.6959C198.402 69.7538 198.448 69.8004 198.505 69.8004H204.426C204.482 69.8004 204.529 69.847 204.529 69.9049V72.0957C204.529 72.1536 204.482 72.2002 204.426 72.2002H198.505C198.448 72.2002 198.402 72.2468 198.402 72.3047V75.1817C198.402 75.2396 198.448 75.2862 198.505 75.2862H205.48V75.2875Z" fill="white"/>
<path fill-rule="evenodd" clip-rule="evenodd" d="M80.1797 59.8449C80.1797 59.6875 80.3039 59.5603 80.4592 59.5603H147.398C147.573 59.5603 147.668 59.7681 147.553 59.9053L145.678 62.1578C145.383 62.5116 144.95 62.7156 144.494 62.7156H83.8081C83.5224 62.7156 83.2914 62.9497 83.2914 63.2393V83.8643C83.2914 83.9802 83.1982 84.0733 83.0852 84.0733H80.3859C80.2716 84.0733 80.1797 83.9802 80.1797 83.8643V59.8449Z" fill="black"/>
</g>
<defs>
<clipPath id="clip0_12258_35176">
<rect width="159" height="52" fill="white" transform="translate(69 48.25)"/>
</clipPath>
</defs>
</svg>
