<svg width="297" height="149" viewBox="0 0 297 149" fill="none" xmlns="http://www.w3.org/2000/svg">
<rect width="297" height="148.5" transform="translate(0 0.5)" fill="white"/>
<g clip-path="url(#clip0_12258_35052)">
<path d="M180 43.25H117V106.25H180V43.25Z" fill="#13254D"/>
<path d="M134.98 70.7393H140.088V88.5251H134.98V70.7393Z" fill="white"/>
<path d="M154.418 79.8593C157.214 78.9362 162.916 77.6432 164.613 72.7915C164.922 72.0095 165.101 71.0522 165.101 69.7439C165.101 64.2132 160.711 60.9673 155.154 60.9673C149.597 60.9673 145.206 64.6595 145.206 69.7439V70.7394H150.314V69.7439C150.314 66.7115 152.568 65.3537 155.154 65.3537C157.74 65.3537 159.994 66.7115 159.994 69.7439C159.994 71.3077 159.727 73.0699 155.802 74.4812L152.831 75.5644C149.272 76.8422 145.187 78.5739 145.187 84.7758V88.5138H164.827V84.1274H150.31C150.55 81.4536 151.332 80.9654 154.414 79.8593H154.418Z" fill="white"/>
<path d="M142.601 63.0499L136.556 59.5598C135.858 59.1555 134.984 59.659 134.984 60.4676V67.4515C134.984 68.2601 135.858 68.7636 136.556 68.3593L142.601 64.8693C143.299 64.4649 143.299 63.458 142.601 63.0537V63.0499Z" fill="#FF5544"/>
<path d="M132.406 63.3587L128.428 61.0625C127.966 60.7955 127.39 61.1274 127.39 61.6614V66.2575C127.39 66.7877 127.966 67.1195 128.428 66.8564L132.406 64.5602C132.867 64.2932 132.867 63.6295 132.406 63.3625V63.3587Z" fill="#FF5544"/>
</g>
<defs>
<clipPath id="clip0_12258_35052">
<rect width="63" height="63" fill="white" transform="translate(117 43.25)"/>
</clipPath>
</defs>
</svg>
