<svg width="297" height="149" viewBox="0 0 297 149" fill="none" xmlns="http://www.w3.org/2000/svg">
<rect width="297" height="148.5" transform="translate(0 0.5)" fill="white"/>
<g clip-path="url(#clip0_12258_35199)">
<path d="M103.09 81.8045V83.2046C103.09 83.884 102.717 84.2651 102.044 84.2651H85.046C84.3759 84.2651 84 83.8869 84 83.2046V81.8045C84 81.1252 84.3729 80.7441 85.046 80.7441H102.047C102.717 80.7441 103.093 81.1222 103.093 81.8045H103.09ZM101.931 71.2121L97.499 68.6187C97.3533 68.533 97.3533 68.3233 97.499 68.2377L101.931 65.6442C102.432 65.3518 102.601 64.7019 102.312 64.1968L101.622 62.9858C101.333 62.4777 100.695 62.3064 100.194 62.5988L95.7624 65.1923C95.6168 65.2779 95.4361 65.1716 95.4361 65.0032V59.8104C95.4361 59.2256 94.967 58.75 94.3901 58.75H93.0091C92.4321 58.75 91.963 59.2256 91.963 59.8104V65.0003C91.963 65.1686 91.7824 65.275 91.6367 65.1893L87.205 62.5959C86.7039 62.3034 86.0658 62.4777 85.7773 62.9828L85.0868 64.1939C84.7983 64.7019 84.9703 65.3488 85.4685 65.6412L89.9002 68.2347C90.0459 68.3204 90.0459 68.5301 89.9002 68.6157L85.4685 71.2091C84.9673 71.5016 84.7983 72.1485 85.0868 72.6566L85.7773 73.8676C86.0658 74.3757 86.7039 74.547 87.205 74.2546L91.6367 71.6611C91.7824 71.5754 91.963 71.6818 91.963 71.8501V77.04C91.963 77.6249 92.4321 78.1005 93.0091 78.1005H94.3901C94.967 78.1005 95.4361 77.6249 95.4361 77.04V71.8501C95.4361 71.6818 95.6168 71.5754 95.7624 71.6611L100.194 74.2546C100.695 74.547 101.333 74.3727 101.622 73.8676L102.312 72.6566C102.601 72.1485 102.429 71.5016 101.931 71.2091V71.2121Z" fill="#7379FD"/>
<path d="M113.507 71.8734C114.419 70.4113 116.302 69.3982 118.245 69.3982C122.216 69.3982 125.366 72.739 125.366 77.0043C125.366 81.2696 122.219 84.6103 118.245 84.6103C116.302 84.6103 114.419 83.5972 113.507 82.1351V90.2846C113.507 90.4057 113.411 90.5032 113.292 90.5032H110.253C110.133 90.5032 110.037 90.4057 110.037 90.2846V69.9742C110.037 69.853 110.133 69.7556 110.253 69.7556H113.292C113.411 69.7556 113.507 69.853 113.507 69.9742V71.8734ZM117.627 72.4996C115.215 72.4996 113.362 74.4404 113.362 77.0043C113.362 79.5711 115.215 81.5089 117.627 81.5089C120.069 81.5089 121.922 79.5711 121.922 77.0043C121.922 74.4374 120.069 72.4996 117.627 72.4996Z" fill="black"/>
<path d="M138.669 79.1849C139.147 79.4981 140.403 80.3162 140.866 80.6176C140.965 80.6825 140.995 80.8125 140.936 80.9158C139.538 83.3055 137.175 84.6082 134.479 84.6082C130.447 84.6082 127.064 81.2969 127.064 77.002C127.064 72.7072 130.447 69.396 134.421 69.396C138.596 69.396 141.545 72.6717 141.487 77.6489C141.487 77.77 141.388 77.8675 141.268 77.8675H130.33C130.683 80.1656 132.42 81.5953 134.479 81.5953C136.397 81.5953 137.478 80.7446 138.366 79.2558C138.43 79.1495 138.567 79.114 138.669 79.182V79.1849ZM130.476 75.4514H138.037C137.801 73.8119 136.537 72.3794 134.418 72.3794C132.565 72.3794 131.033 73.5726 130.476 75.4514Z" fill="black"/>
<path d="M152.528 69.9664C152.559 69.857 152.504 69.7448 152.402 69.7004C152.093 69.5705 151.732 69.4849 151.167 69.4849C149.372 69.4849 147.93 70.5867 147.225 72.0192V69.9723C147.225 69.8511 147.128 69.7537 147.009 69.7537H143.97C143.851 69.7537 143.754 69.8511 143.754 69.9723V84.0294C143.754 84.1506 143.851 84.248 143.97 84.248H147.009C147.128 84.248 147.225 84.1506 147.225 84.0294V76.8517C147.225 74.4945 148.667 72.9438 150.756 72.9438C151.001 72.9438 151.234 72.9615 151.458 72.9969C151.569 73.0147 151.674 72.9497 151.703 72.8433C151.869 72.2674 152.364 70.5334 152.528 69.9664Z" fill="black"/>
<path d="M153.061 80.5702L155.663 79.6132C155.777 79.5719 155.899 79.6339 155.94 79.7461C156.409 81.0045 157.353 81.8641 158.693 81.8641C159.751 81.8641 160.724 81.2083 160.724 80.0149C160.724 77.3004 153.72 79.1199 153.72 73.9301C153.72 71.4252 155.809 69.396 158.752 69.396C161.164 69.396 162.973 70.7281 163.655 72.6423C163.696 72.7574 163.629 72.8874 163.513 72.9229L160.893 73.747C160.782 73.7824 160.669 73.7203 160.628 73.6081C160.281 72.6363 159.599 72.1371 158.635 72.1371C157.723 72.1371 156.957 72.7338 156.957 73.6879C156.957 76.2814 164.019 74.4942 164.019 79.8022C164.019 82.6054 161.487 84.6052 158.606 84.6052C156.004 84.6052 153.679 83.1401 152.93 80.8391C152.895 80.7268 152.956 80.6057 153.064 80.5673L153.061 80.5702Z" fill="black"/>
<path d="M173.056 69.396C177.176 69.396 180.649 72.7072 180.649 77.002C180.649 81.2969 177.176 84.6082 173.056 84.6082C168.936 84.6082 165.492 81.2969 165.492 77.002C165.492 72.7072 168.936 69.396 173.056 69.396ZM173.056 81.5096C175.498 81.5096 177.351 79.5719 177.351 77.005C177.351 74.4381 175.498 72.5005 173.056 72.5005C170.643 72.5005 168.79 74.4411 168.79 77.005C168.79 79.5719 170.643 81.5096 173.056 81.5096Z" fill="black"/>
<path d="M189.185 72.5388C187.271 72.5388 186.006 74.0304 186.006 76.3255V84.0409C186.006 84.162 185.91 84.2595 185.791 84.2595H182.752C182.632 84.2595 182.536 84.162 182.536 84.0409V69.9837C182.536 69.8627 182.632 69.7651 182.752 69.7651H185.791C185.91 69.7651 186.006 69.8627 186.006 69.9837V71.7028C186.947 70.3619 188.419 69.4048 190.421 69.4048C193.658 69.4048 195.54 71.6733 195.54 74.6537V84.038C195.54 84.1591 195.444 84.2566 195.324 84.2566H192.285C192.166 84.2566 192.07 84.1591 192.07 84.038V75.6078C192.07 73.7292 191.012 72.5359 189.185 72.5359V72.5388Z" fill="black"/>
<path d="M212.726 69.975V84.0322C212.726 84.1532 212.63 84.2508 212.511 84.2508H209.472C209.352 84.2508 209.256 84.1532 209.256 84.0322V82.1328C208.373 83.595 206.491 84.6082 204.548 84.6082C200.577 84.6082 197.427 81.2673 197.427 77.002C197.427 72.7367 200.577 69.396 204.548 69.396C206.491 69.396 208.373 70.4121 209.256 71.8713V69.972C209.256 69.8509 209.352 69.7534 209.472 69.7534H212.511C212.63 69.7534 212.726 69.8509 212.726 69.972V69.975ZM205.133 81.5096C207.575 81.5096 209.428 79.5719 209.428 77.005C209.428 74.4381 207.575 72.5005 205.133 72.5005C202.72 72.5005 200.867 74.4411 200.867 77.005C200.867 79.5719 202.72 81.5096 205.133 81.5096Z" fill="black"/>
</g>
<defs>
<clipPath id="clip0_12258_35199">
<rect width="129" height="33" fill="white" transform="translate(84 58.25)"/>
</clipPath>
</defs>
</svg>
