<svg width="297" height="149" viewBox="0 0 297 149" fill="none" xmlns="http://www.w3.org/2000/svg">
<rect width="297" height="148.5" fill="white"/>
<g clip-path="url(#clip0_12258_34713)">
<path d="M191.326 83.3128C186.353 83.3128 182.996 79.6641 182.996 74.3599C182.996 69.0557 186.353 65.407 191.326 65.407C196.301 65.407 199.657 69.0557 199.657 74.3599C199.657 79.6641 196.284 83.3128 191.326 83.3128ZM191.326 60.2041C183.372 60.2041 176.932 66.5387 176.932 74.3599C176.932 82.181 183.372 88.5157 191.326 88.5157C199.282 88.5157 205.79 82.181 205.79 74.3599C205.79 66.5387 199.265 60.2041 191.326 60.2041Z" fill="#191919"/>
<path d="M143.389 60.7784H137.325V86.2521C137.325 87.1643 138.075 87.9244 139.011 87.9244H154.479V82.9749H143.389V60.7784Z" fill="#191919"/>
<path d="M164.343 60.7784H158.278V86.2521C158.278 87.1643 159.028 87.9244 159.965 87.9244H176.983V82.9749H164.343V60.7784Z" fill="#191919"/>
<path d="M113.952 78.9546L118.62 68.4644L123.305 78.9546H113.952ZM120.341 60.7784H116.916C116.252 60.7784 115.656 61.167 115.383 61.7582L103.493 87.9244H109.949L111.823 83.7351H125.434L127.308 87.9244H133.764L121.873 61.7582C121.601 61.167 121.005 60.7784 120.341 60.7784Z" fill="#191919"/>
<path d="M226.947 60.7784L219.401 73.0929L211.854 60.7784H204.819L215.892 77.9917C216.232 78.5323 216.419 79.1404 216.419 79.7823V87.9244H222.399V79.7823C222.399 79.1404 222.586 78.5323 222.927 77.9917L234 60.7784H226.947Z" fill="#191919"/>
<path d="M65.9641 57.1973C66.867 56.6736 67.9573 56.6736 68.8772 57.1973L70.257 57.9912C69.4393 58.4136 68.8601 59.1568 68.6387 60.069L64.6524 77.2992L64.5161 77.5357V59.6805C64.4991 58.65 65.0442 57.721 65.9641 57.1973ZM64.5672 80.8634C64.5332 80.7959 64.448 80.6101 64.5672 80.4074L67.9402 74.6133L75.3676 61.8427L75.5379 61.5556C75.6572 61.3528 75.8617 61.319 75.9468 61.319C76.032 61.319 76.2364 61.3359 76.3557 61.5556L77.8548 64.1232L87.173 80.1202L87.3434 80.4074C87.3945 80.4918 87.4116 80.5594 87.4116 80.6439C87.4116 80.7452 87.3775 80.8297 87.3434 80.8803C87.3093 80.9479 87.1901 81.1168 86.9345 81.1168H83.9363H65.3168H64.9761C64.7376 81.0999 64.6183 80.931 64.5672 80.8634ZM88.6381 79.6641L81.6025 67.5861L91.0571 76.3025C91.5 76.708 91.6874 77.3161 91.5511 77.9073C91.4148 78.4985 90.9889 78.9546 90.4098 79.1404L88.6381 79.6641ZM93.1013 77.637C93.1354 76.7249 92.7777 75.8465 92.0962 75.2045L79.0472 63.1772L78.9109 62.9238L94.4812 71.8599C95.384 72.3835 95.9292 73.3126 95.9292 74.3599C95.9292 75.4072 95.384 76.3363 94.4812 76.86L93.1013 77.637ZM74.2432 60.7954L67.2077 72.8903L70.0867 60.4069C70.2229 59.8156 70.6488 59.3595 71.228 59.1906C71.8072 59.0048 72.4205 59.1568 72.8634 59.5622L74.2432 60.7954ZM64.9591 82.5865C64.9761 82.5865 64.9761 82.5865 64.9591 82.5865H79.0302L66.6796 86.3535C66.1004 86.5393 65.4871 86.3873 65.0272 85.9818C64.5843 85.5765 64.3969 84.9683 64.5332 84.3771L64.9591 82.5865ZM64.4991 87.4346C65.2827 87.9245 66.2197 88.0596 67.1225 87.7724L84.1578 82.5865H84.4474L68.8601 91.5056C67.9573 92.0293 66.867 92.0293 65.9471 91.5056C65.0442 90.982 64.4991 90.0529 64.4991 89.0056V87.4346ZM69.6267 55.8966C68.2469 55.1027 66.5944 55.1027 65.2146 55.8966C63.8177 56.6905 63 58.1095 63 59.6805V80.6101V80.627V80.6439V89.0056C63 90.5934 63.8177 91.9955 65.2146 92.7895C66.5944 93.5834 68.2469 93.5834 69.6267 92.7895L87.8885 82.3331C87.9056 82.3162 87.9226 82.3162 87.9396 82.2993L95.2307 78.1269C96.6106 77.333 97.4283 75.914 97.4283 74.343C97.4283 72.7552 96.6106 71.3362 95.2307 70.5591L76.9519 60.0859C76.9348 60.0859 76.9348 60.069 76.9178 60.069L69.6267 55.8966Z" fill="#191919"/>
</g>
<defs>
<clipPath id="clip0_12258_34713">
<rect width="171" height="39" fill="white" transform="translate(63 54.75)"/>
</clipPath>
</defs>
</svg>
