<svg width="297" height="149" viewBox="0 0 297 149" fill="none" xmlns="http://www.w3.org/2000/svg">
<rect width="297" height="148.5" transform="translate(0 0.5)" fill="white"/>
<g clip-path="url(#clip0_12258_35222)">
<path d="M124.158 64.75L116.145 83.4336C115.978 83.8245 115.699 84.1576 115.344 84.3916C114.988 84.6256 114.572 84.7502 114.146 84.75H102.211L110.685 64.75H124.158ZM97.1043 64.75L88.6328 84.75H98.5277L107.001 64.75H97.1043ZM85.9133 66.0768L78.0007 84.75H84.7372L93.211 64.75H87.9128C87.4853 64.7499 87.0673 64.8757 86.711 65.1117C86.3546 65.3476 86.0759 65.6833 85.9095 66.0768H85.9133Z" fill="url(#paint0_linear_12258_35222)"/>
<path d="M138.374 68.3572C139.156 68.3329 139.935 68.4739 140.659 68.7712C141.384 69.0685 142.037 69.5153 142.576 70.0823L143.08 70.5908L145.591 68.0408L145.109 67.5457C144.313 66.712 143.345 66.0619 142.272 65.641C141.199 65.2201 140.047 65.0384 138.896 65.1088C135.191 65.1088 131.979 67.3722 131.258 70.4903C131.091 71.0427 131.039 71.6234 131.105 72.1967C131.171 72.77 131.354 73.3237 131.642 73.8237C132.413 75.047 133.953 75.86 136.642 76.4638C138.501 76.8622 139.572 77.3186 139.917 77.8606C140.005 78.0358 140.057 78.2271 140.068 78.4228C140.08 78.6185 140.052 78.8145 139.986 78.999C139.647 80.4643 138.043 81.4493 135.997 81.4493C135.042 81.4822 134.092 81.2937 133.222 80.8987C132.352 80.5037 131.585 79.9129 130.982 79.1725L130.508 78.6394L127.85 81.051L128.338 81.5722C129.241 82.5639 130.349 83.3481 131.584 83.8709C132.82 84.3936 134.155 84.6425 135.496 84.6002C139.495 84.6002 142.7 82.3599 143.47 79.0251C143.681 78.3655 143.712 77.662 143.562 76.9863C143.411 76.3107 143.084 75.687 142.613 75.1787C141.756 74.2801 140.378 73.6368 138.276 73.1536C134.352 72.2266 134.489 71.4151 134.605 70.7122C134.926 69.3274 136.478 68.3587 138.377 68.3587L138.374 68.3572Z" fill="#1D3A6E"/>
<path d="M170.174 84.4074H173.666L178.082 65.2041H174.592L170.174 84.4074Z" fill="#1D3A6E"/>
<path d="M162.453 73.1328H153.602L155.434 65.2041H151.942L147.504 84.4074H150.995L152.85 76.382H161.703L159.848 84.4074H163.339L167.775 65.2041H164.284L162.453 73.1328Z" fill="#1D3A6E"/>
<path d="M183.992 69.5173L180.552 84.4082H184.043L185.832 76.6731H194.495L195.892 73.4246H186.581L187.335 70.1598C187.445 69.6743 187.718 69.2409 188.108 68.9309C188.498 68.621 188.982 68.4531 189.481 68.4548H199.972L201.365 65.2063H189.42C188.159 65.2016 186.935 65.6263 185.948 66.4104C184.961 67.1945 184.271 68.2911 183.992 69.5195V69.5173Z" fill="#1D3A6E"/>
<path d="M205.296 65.2041L203.903 68.454H208.829L205.142 84.4074H208.537L212.224 68.454H218.25L219.001 65.2041H205.296Z" fill="#1D3A6E"/>
</g>
<defs>
<linearGradient id="paint0_linear_12258_35222" x1="101.079" y1="74.75" x2="101.079" y2="83.07" gradientUnits="userSpaceOnUse">
<stop stop-color="#3DEFB2"/>
<stop offset="1" stop-color="#6BB0FF"/>
</linearGradient>
<clipPath id="clip0_12258_35222">
<rect width="141" height="20" fill="white" transform="translate(78 64.75)"/>
</clipPath>
</defs>
</svg>
