<svg width="297" height="149" viewBox="0 0 297 149" fill="none" xmlns="http://www.w3.org/2000/svg">
<rect width="297" height="148.5" fill="white"/>
<g clip-path="url(#clip0_12258_35438)">
<path fill-rule="evenodd" clip-rule="evenodd" d="M83.818 78.13C83.818 78.4021 84.038 78.6221 84.31 78.6221H89.145C89.416 78.6221 89.636 78.4021 89.636 78.1311V75.7151H92.054C92.325 75.7151 92.545 75.4951 92.545 75.2241V73.3001C92.545 73.1697 92.4933 73.0447 92.4012 72.9525C92.3092 72.8603 92.1843 72.8083 92.054 72.8081H84.31C84.1795 72.8081 84.0544 72.8599 83.9621 72.9522C83.8698 73.0444 83.818 73.1696 83.818 73.3001V78.13ZM83.818 67.4691C83.8177 67.3387 83.7658 67.2139 83.6735 67.1218C83.5813 67.0297 83.4563 66.978 83.326 66.9781H78.492C78.3617 66.978 78.2367 67.0297 78.1445 67.1218C78.0522 67.2139 78.0003 67.3387 78 67.4691V72.3001C78 72.5711 78.22 72.7911 78.492 72.7911H80.417C80.689 72.7911 80.909 72.5711 80.909 72.3011V69.8841H83.326C83.598 69.8841 83.818 69.6641 83.818 69.3941V67.4691ZM86.728 84.9111C86.728 84.8464 86.7152 84.7823 86.6905 84.7225C86.6657 84.6628 86.6293 84.6085 86.5835 84.5628C86.5378 84.5171 86.4834 84.4809 86.4236 84.4562C86.3638 84.4315 86.2997 84.4189 86.235 84.4191H84.31C84.1795 84.4191 84.0544 84.4709 83.9621 84.5632C83.8698 84.6554 83.818 84.7806 83.818 84.9111V86.8351C83.818 87.1061 84.038 87.3261 84.31 87.3261H86.235C86.507 87.3261 86.727 87.1061 86.727 86.8351L86.728 84.9111ZM121.143 66.9781H116.31C116.18 66.978 116.055 67.0297 115.962 67.1218C115.87 67.2139 115.818 67.3387 115.818 67.4691V69.3931C115.818 69.6641 116.038 69.8841 116.31 69.8841H118.727V72.3001C118.727 72.5711 118.947 72.7911 119.219 72.7911H121.144C121.416 72.7911 121.636 72.5711 121.636 72.3011V67.4681C121.636 67.3377 121.584 67.2129 121.492 67.1208C121.399 67.0287 121.274 66.9771 121.144 66.9771L121.143 66.9781ZM115.325 72.7911H107.581C107.451 72.7913 107.326 72.8433 107.234 72.9355C107.142 73.0277 107.09 73.1527 107.09 73.2831V75.2071C107.09 75.4781 107.31 75.6981 107.581 75.6981H110V78.1141C110 78.3851 110.22 78.6051 110.492 78.6051H115.326C115.598 78.6051 115.818 78.3851 115.818 78.1151V73.2831C115.818 73.1526 115.766 73.0274 115.674 72.9352C115.582 72.8429 115.455 72.7911 115.325 72.7911ZM112.416 87.3431H110V84.9281C110 84.7976 109.948 84.6724 109.856 84.5802C109.764 84.4879 109.638 84.4361 109.508 84.4361H107.091V79.1141C107.091 78.9836 107.039 78.8584 106.947 78.7662C106.855 78.6739 106.729 78.6221 106.599 78.6221H104.182V73.3001C104.182 73.1696 104.13 73.0444 104.038 72.9522C103.946 72.8599 103.82 72.8081 103.69 72.8081H95.946C95.8155 72.8081 95.6904 72.8599 95.5981 72.9522C95.5058 73.0444 95.454 73.1696 95.454 73.3001V78.6221H93.037C92.9065 78.6221 92.7814 78.6739 92.6891 78.7662C92.5968 78.8584 92.545 78.9836 92.545 79.1141V84.4361H90.128C89.9975 84.4361 89.8724 84.4879 89.7801 84.5802C89.6878 84.6724 89.636 84.7976 89.636 84.9281V87.3431H87.22C87.0895 87.3431 86.9644 87.3949 86.8721 87.4872C86.7798 87.5794 86.728 87.7046 86.728 87.8351V89.7591C86.728 90.0301 86.948 90.2501 87.22 90.2501H92.055C92.326 90.2501 92.546 90.0301 92.546 89.7591V87.3431H94.964C95.235 87.3431 95.455 87.1231 95.455 86.8521V81.529H104.183V86.8521C104.183 87.1231 104.403 87.3431 104.674 87.3431H107.092V89.7591C107.092 90.0301 107.312 90.2501 107.583 90.2501H112.418C112.69 90.2501 112.91 90.0301 112.91 89.7591V87.8351C112.91 87.7046 112.858 87.5794 112.766 87.4872C112.674 87.3949 112.548 87.3431 112.418 87.3431H112.416ZM115.326 84.4191H113.4C113.27 84.4191 113.144 84.4709 113.052 84.5632C112.96 84.6554 112.908 84.7806 112.908 84.9111V86.8351C112.908 87.1061 113.128 87.3261 113.4 87.3261H115.325C115.597 87.3261 115.817 87.1061 115.817 86.8351V84.9111C115.817 84.7806 115.765 84.6554 115.673 84.5632C115.581 84.4709 115.456 84.4191 115.326 84.4191Z" fill="#001133"/>
<path fill-rule="evenodd" clip-rule="evenodd" d="M90.127 66.977H109.507C109.779 66.977 109.999 66.757 109.999 66.485V64.56C109.999 64.4297 109.947 64.3047 109.855 64.2125C109.763 64.1202 109.638 64.0683 109.508 64.068H107.09V61.651C107.09 61.5205 107.038 61.3954 106.946 61.3031C106.854 61.2108 106.728 61.159 106.598 61.159H104.181V58.742C104.181 58.6117 104.129 58.4867 104.037 58.3945C103.945 58.3022 103.82 58.2503 103.69 58.25H95.947C95.8165 58.25 95.6913 58.3018 95.5991 58.3941C95.5068 58.4864 95.455 58.6115 95.455 58.742V61.159H93.038C92.9075 61.159 92.7823 61.2108 92.6901 61.3031C92.5978 61.3954 92.546 61.5205 92.546 61.651V64.068H90.128C89.9976 64.0683 89.8728 64.1202 89.7807 64.2125C89.6887 64.3047 89.637 64.4297 89.637 64.56V66.485C89.637 66.757 89.857 66.977 90.129 66.977H90.127Z" fill="#1BEDBA"/>
<path fill-rule="evenodd" clip-rule="evenodd" d="M171.852 72.5021C170.322 72.5021 168.939 73.1321 167.967 74.1421C167.48 73.6212 166.89 73.2061 166.236 72.9226C165.581 72.6391 164.875 72.4932 164.162 72.4941C163.32 72.4941 162.462 72.8031 161.799 73.2481V73.1001C161.799 73.0505 161.788 73.0014 161.769 72.9557C161.749 72.9101 161.721 72.8687 161.686 72.834C161.65 72.7992 161.608 72.7718 161.562 72.7533C161.516 72.7348 161.467 72.7256 161.417 72.7261H159.283C159.183 72.7253 159.086 72.7642 159.015 72.8342C158.943 72.9043 158.902 72.9998 158.9 73.1001V83.7331C158.9 83.9451 159.077 84.1071 159.283 84.1071H161.423C161.523 84.1074 161.619 84.0683 161.69 83.9983C161.762 83.9283 161.803 83.833 161.804 83.7331V77.6951C161.804 76.3951 162.861 75.3421 164.162 75.3421C164.471 75.3418 164.778 75.4025 165.064 75.5207C165.35 75.6388 165.61 75.8122 165.829 76.0307C166.048 76.2493 166.221 76.5089 166.34 76.7946C166.459 77.0804 166.52 77.3867 166.52 77.6961V83.7331C166.52 83.9451 166.697 84.1071 166.902 84.1071H169.051C169.151 84.1076 169.247 84.0687 169.319 83.9986C169.391 83.9286 169.432 83.8332 169.433 83.7331V77.6991C169.433 76.4051 170.512 75.3471 171.853 75.3471C173.193 75.3471 174.272 76.4051 174.272 77.6991V83.7311C174.272 83.9441 174.448 84.1061 174.654 84.1061H176.801C176.851 84.1066 176.9 84.0973 176.946 84.0788C176.992 84.0602 177.034 84.0327 177.07 83.9979C177.105 83.963 177.134 83.9215 177.153 83.8758C177.173 83.83 177.183 83.7808 177.183 83.7311V77.7001C177.182 74.8261 174.791 72.5031 171.853 72.5031L171.852 72.5021ZM187.858 78.2121C187.043 77.7181 185.997 77.4801 185.085 77.2741L185.067 77.2701C184.405 77.1201 183.823 76.9861 183.404 76.7901C182.989 76.5971 182.801 76.3751 182.801 76.0701C182.801 75.8051 182.9 75.5721 183.136 75.3871C183.378 75.1981 183.779 75.0521 184.398 75.0151C185.453 75.0151 186.27 75.0401 186.823 75.0651C187.1 75.0771 187.311 75.0901 187.451 75.0991L187.611 75.1091L187.65 75.1121L187.659 75.1131H187.662L187.671 75.1151H187.68C187.844 75.1151 187.993 75.0831 188.095 74.9771C188.162 74.9008 188.203 74.8052 188.212 74.7041L188.213 74.6941L188.223 74.6341L188.229 74.6121V73.3021C188.229 73.1421 188.218 72.9961 188.157 72.8841C188.081 72.7441 187.954 72.6991 187.852 72.6771L187.842 72.6761L187.833 72.6751H187.829L187.819 72.6731C186.678 72.5836 185.534 72.5389 184.39 72.5391H184.382C182.877 72.5951 181.735 73.0131 180.967 73.6741C180.601 73.9836 180.308 74.3702 180.109 74.8062C179.91 75.2422 179.81 75.7169 179.816 76.1961C179.816 76.8321 179.963 77.3531 180.222 77.7831C180.48 78.2111 180.842 78.5371 181.256 78.7911C182.072 79.2911 183.116 79.5331 184.026 79.7441L184.045 79.7471C184.708 79.9001 185.291 80.0371 185.71 80.2351C186.124 80.4311 186.316 80.6571 186.316 80.9711C186.316 81.2341 186.194 81.4681 185.9 81.6471C185.593 81.8321 185.097 81.9571 184.367 81.9571C183.537 81.9571 182.631 81.8671 181.929 81.7771C181.578 81.7331 181.281 81.6871 181.07 81.6531L180.825 81.6131L180.785 81.6061L180.76 81.6021L180.744 81.6001L180.739 81.5981L180.721 81.5941H180.702C180.553 81.5941 180.412 81.6221 180.312 81.7221C180.247 81.7934 180.206 81.8839 180.197 81.9801L180.196 81.9901L180.182 82.0561L180.177 82.0761L180.095 83.5551V83.5601C180.095 83.6571 180.109 83.7721 180.162 83.8751C180.191 83.9355 180.232 83.9888 180.284 84.0312C180.335 84.0735 180.395 84.1039 180.46 84.1201L180.465 84.1221L180.471 84.1231L180.476 84.1241C180.478 84.1261 180.484 84.1261 180.49 84.1271L180.544 84.1371C180.591 84.1471 180.659 84.1581 180.749 84.1731C180.93 84.2021 181.193 84.2391 181.534 84.2791C182.212 84.3561 183.191 84.4311 184.395 84.4311H184.405C184.553 84.4331 185.756 84.4411 186.93 84.0011C187.519 83.7811 188.113 83.4431 188.561 82.9231C189.013 82.3991 189.305 81.7001 189.305 80.7831C189.305 80.1531 189.157 79.6371 188.898 79.2111C188.636 78.7851 188.273 78.4631 187.858 78.2121ZM211.985 72.7321C210.837 72.7289 209.712 73.0465 208.735 73.6491V68.7781C208.735 68.7283 208.724 68.6791 208.705 68.6334C208.685 68.5876 208.657 68.5461 208.621 68.5113C208.586 68.4764 208.544 68.449 208.497 68.4304C208.451 68.4119 208.402 68.4026 208.352 68.4031H206.21C206.11 68.4026 206.013 68.4417 205.942 68.5119C205.87 68.5822 205.829 68.6778 205.828 68.7781V83.7351C205.828 83.9481 206.005 84.1101 206.21 84.1101H208.352C208.453 84.1109 208.549 84.0719 208.621 84.0016C208.693 83.9314 208.734 83.8355 208.735 83.7351V83.2381C209.62 83.9281 210.793 84.4301 211.985 84.4301C215.318 84.4301 218.031 81.8181 218.031 78.5811C218.031 75.3441 215.318 72.7321 211.985 72.7321ZM211.985 81.6061C210.257 81.6061 208.855 80.2521 208.855 78.5811C208.855 76.9111 210.256 75.5561 211.985 75.5561C213.713 75.5561 215.115 76.9101 215.115 78.5811C215.115 80.2511 213.715 81.6061 211.985 81.6061ZM202.533 72.7321H200.386C200.336 72.7316 200.287 72.7409 200.241 72.7594C200.195 72.778 200.152 72.8054 200.117 72.8403C200.081 72.8751 200.053 72.9166 200.033 72.9624C200.014 73.0081 200.004 73.0573 200.003 73.1071V79.2901C200.003 80.5661 198.927 81.6131 197.584 81.6131H197.547C196.204 81.6131 195.128 80.5661 195.128 79.2901V73.1071C195.127 73.0068 195.086 72.9109 195.015 72.8406C194.943 72.7703 194.846 72.7313 194.746 72.7321H192.599C192.549 72.7316 192.5 72.7409 192.454 72.7594C192.408 72.778 192.365 72.8054 192.33 72.8403C192.294 72.8751 192.266 72.9166 192.246 72.9624C192.227 73.0081 192.217 73.0573 192.216 73.1071V79.2901C192.216 82.1351 194.61 84.4291 197.547 84.4291H197.584C200.521 84.4291 202.915 82.1351 202.915 79.2901V73.1071C202.914 73.0068 202.873 72.9109 202.802 72.8406C202.73 72.7703 202.633 72.7313 202.533 72.7321ZM140.943 78.2121C140.128 77.7181 139.082 77.4801 138.17 77.2741L138.152 77.2701C137.49 77.1201 136.908 76.9861 136.489 76.7901C136.075 76.5971 135.886 76.3751 135.886 76.0701C135.886 75.8051 135.986 75.5721 136.221 75.3871C136.463 75.1981 136.864 75.0521 137.483 75.0151C138.538 75.0151 139.355 75.0401 139.908 75.0651C140.185 75.0771 140.396 75.0901 140.536 75.0991L140.696 75.1091L140.736 75.1121L140.744 75.1131H140.747L140.757 75.1151H140.765C140.929 75.1151 141.078 75.0831 141.18 74.9771C141.247 74.901 141.288 74.8053 141.297 74.7041L141.298 74.6941L141.308 74.6341L141.314 74.6121V73.3021C141.314 73.1421 141.304 72.9961 141.242 72.8841C141.166 72.7441 141.039 72.6991 140.937 72.6771L140.927 72.6761L140.918 72.6751H140.914L140.904 72.6731C139.763 72.5836 138.619 72.5389 137.475 72.5391H137.467C135.962 72.5951 134.82 73.0131 134.052 73.6741C133.687 73.9838 133.394 74.3705 133.195 74.8065C132.996 75.2425 132.896 75.717 132.902 76.1961C132.902 76.8321 133.049 77.3531 133.308 77.7831C133.566 78.2111 133.928 78.5371 134.342 78.7911C135.158 79.2911 136.202 79.5331 137.112 79.7441L137.131 79.7471C137.795 79.9001 138.377 80.0371 138.796 80.2351C139.21 80.4311 139.402 80.6571 139.402 80.9711C139.402 81.2341 139.281 81.4681 138.986 81.6471C138.68 81.8321 138.184 81.9571 137.453 81.9571C136.623 81.9571 135.717 81.8671 135.015 81.7771C134.665 81.7331 134.367 81.6871 134.157 81.6531L133.912 81.6131L133.872 81.6061L133.846 81.6021L133.831 81.6001L133.825 81.5981L133.807 81.5941H133.787C133.638 81.5941 133.497 81.6221 133.397 81.7221C133.332 81.7934 133.292 81.8839 133.282 81.9801L133.281 81.9901L133.268 82.0561L133.262 82.0761L133.177 83.5541V83.5591C133.175 83.6679 133.198 83.7757 133.244 83.8741C133.298 83.9841 133.394 84.0811 133.542 84.1191L133.548 84.1211H133.553L133.554 84.1221L133.558 84.1231L133.573 84.1261L133.626 84.1361C133.955 84.1921 134.285 84.2391 134.616 84.2771C135.294 84.3541 136.273 84.4301 137.478 84.4301H137.488C137.635 84.4311 138.838 84.4401 140.013 84.0001C140.602 83.7801 141.196 83.4411 141.643 82.9221C142.095 82.3981 142.387 81.6991 142.387 80.7821C142.387 80.1521 142.239 79.6351 141.98 79.2091C141.72 78.7851 141.358 78.4631 140.943 78.2121ZM155.609 72.7321H153.463C153.413 72.7314 153.364 72.7406 153.318 72.7591C153.271 72.7777 153.229 72.8051 153.194 72.84C153.158 72.8748 153.13 72.9164 153.11 72.9622C153.091 73.008 153.08 73.0573 153.08 73.1071V79.2901C153.08 80.5661 152.004 81.6131 150.66 81.6131H150.625C149.282 81.6131 148.205 80.5661 148.205 79.2901V73.1071C148.205 73.0575 148.195 73.0084 148.175 72.9627C148.156 72.917 148.128 72.8755 148.092 72.8407C148.057 72.8059 148.015 72.7784 147.969 72.7597C147.923 72.7411 147.874 72.7317 147.824 72.7321H145.677C145.627 72.7314 145.578 72.7406 145.532 72.7591C145.485 72.7777 145.443 72.8051 145.408 72.84C145.372 72.8748 145.344 72.9164 145.324 72.9622C145.305 73.008 145.294 73.0573 145.294 73.1071V79.2901C145.294 82.1351 147.687 84.4291 150.625 84.4291H150.662C153.598 84.4291 155.992 82.1351 155.992 79.2901V73.1071C155.992 73.0574 155.982 73.0082 155.962 72.9624C155.943 72.9167 155.914 72.8752 155.879 72.8403C155.843 72.8055 155.801 72.778 155.755 72.7594C155.709 72.7409 155.659 72.7316 155.609 72.7321Z" fill="#001133"/>
</g>
<defs>
<clipPath id="clip0_12258_35438">
<rect width="141" height="32" fill="white" transform="translate(78 58.25)"/>
</clipPath>
</defs>
</svg>
