<svg width="297" height="149" viewBox="0 0 297 149" fill="none" xmlns="http://www.w3.org/2000/svg">
<rect width="297" height="148.5" fill="white"/>
<g clip-path="url(#clip0_12258_35105)">
<path d="M188.555 90.8572V93.2494H204.873V82.46H202.495V90.8572H188.555ZM188.555 55.25V57.6423H202.495V66.04H204.873V55.25H188.555ZM180.14 73.7575V68.1984H183.87C185.689 68.1984 186.341 68.8082 186.341 70.4738V71.4588C186.341 73.1711 185.712 73.7575 183.87 73.7575H180.14ZM186.061 74.7425C187.762 74.2968 188.951 72.7016 188.951 70.802C188.951 69.6058 188.485 68.5266 187.599 67.6585C186.48 66.5793 184.988 66.04 183.054 66.04H177.809V82.4595H180.14V75.9154H183.637C185.432 75.9154 186.154 76.6659 186.154 78.5428V82.46H188.532V78.918C188.532 76.3378 187.926 75.3528 186.061 75.0712V74.7425ZM166.433 75.2818H173.613V73.124H166.433V68.1979H174.312V66.04H164.055V82.4595H174.662V80.3016H166.433V75.2818ZM158.623 76.1499V77.2756C158.623 79.6447 157.761 80.4191 155.593 80.4191H155.08C152.912 80.4191 151.863 79.7151 151.863 76.4547V72.0447C151.863 68.761 152.959 68.0804 155.127 68.0804H155.592C157.714 68.0804 158.39 68.878 158.413 71.083H160.978C160.744 67.8459 158.6 65.8055 155.383 65.8055C153.821 65.8055 152.515 66.2983 151.537 67.2362C150.068 68.6203 149.252 70.9661 149.252 74.2497C149.252 77.4164 149.952 79.7622 151.397 81.2161C152.376 82.1779 153.728 82.6939 155.057 82.6939C156.455 82.6939 157.738 82.1307 158.39 80.9113H158.716V82.4595H160.861V73.992H154.543V76.1499H158.623ZM138.063 68.1979H140.604C143.006 68.1979 144.311 68.8076 144.311 72.0918V76.4076C144.311 79.6913 143.006 80.3016 140.604 80.3016H138.063V68.1979ZM140.814 82.46C145.267 82.46 146.921 79.0588 146.921 74.2503C146.921 69.3713 145.15 66.0405 140.767 66.0405H135.732V82.46H140.814ZM124.473 75.2818H131.653V73.124H124.473V68.1979H132.352V66.04H122.095V82.4595H132.702V80.3016H124.473V75.2818ZM110.719 66.04H108.342V82.4595H119.065V80.3016H110.719V66.04ZM92 82.46V93.25H108.318V90.8572H94.3776V82.46H92ZM92 55.25V66.04H94.3776V57.6423H108.318V55.25H92Z" fill="black"/>
</g>
<defs>
<clipPath id="clip0_12258_35105">
<rect width="113" height="38" fill="white" transform="translate(92 55.25)"/>
</clipPath>
</defs>
</svg>
