<svg width="297" height="149" viewBox="0 0 297 149" fill="none" xmlns="http://www.w3.org/2000/svg">
<rect width="297" height="148.5" transform="translate(0 0.5)" fill="white"/>
<g clip-path="url(#clip0_12258_34515)">
<path fill-rule="evenodd" clip-rule="evenodd" d="M59.2299 62.1438L64.3759 59.2317L69.6558 62.2225L80.7518 53.4336V87.002L64.3759 96.25L48.0134 86.9889V71.2213H48V53.25L59.2299 62.1438ZM50.8678 72.7561V85.3754L64.3759 93.0099L77.884 85.3754V72.9529L64.3625 80.7317L50.8678 72.7561ZM51.4172 69.8046L64.3893 77.4785L77.5356 69.9095L64.3893 62.4718L51.4172 69.8046ZM72.604 63.495L77.884 66.5252V59.3104C76.1285 60.7009 74.373 62.0914 72.604 63.495ZM50.8678 66.3415L56.1477 63.3113L50.8678 59.1268V66.3415Z" fill="black"/>
<path fill-rule="evenodd" clip-rule="evenodd" d="M96.8864 74.9599H97.1678C98.0523 74.9599 99.3924 74.8418 99.3924 76.0749C99.3924 77.203 98.0389 77.1637 97.2348 77.1637H96.8864V74.9599ZM98.3471 79.1838C100.263 79.1838 102.126 78.4755 102.126 76.3373C102.126 74.9074 101.483 73.9236 99.9954 73.74V73.7137C100.84 73.2939 101.148 72.5462 101.148 71.628C101.148 69.6734 99.9016 68.9651 98.0523 68.9651H94.1794V79.1838H98.3471ZM96.8864 70.9983H97.074C97.8111 70.9983 98.6553 71.0508 98.6553 71.9822C98.6553 72.8479 97.9049 72.966 97.1812 72.966H96.873V70.9983H96.8864Z" fill="black"/>
<path fill-rule="evenodd" clip-rule="evenodd" d="M110.408 68.9651H107.688V79.1838H113.664V76.9276H110.408V68.9651Z" fill="black"/>
<path fill-rule="evenodd" clip-rule="evenodd" d="M123.956 68.624C120.954 68.624 118.18 70.7885 118.18 73.8842C118.18 77.1899 120.606 79.5249 123.956 79.5249C127.306 79.5249 129.732 77.1899 129.732 73.8842C129.732 70.8016 126.958 68.624 123.956 68.624ZM123.956 71.2082C125.578 71.2082 126.904 72.4938 126.904 73.9105C126.904 75.6683 125.578 76.9538 123.956 76.9538C122.335 76.9538 121.008 75.6683 121.008 73.9105C121.008 72.4938 122.335 71.2082 123.956 71.2082Z" fill="black"/>
<path fill-rule="evenodd" clip-rule="evenodd" d="M142.597 69.2142C141.793 68.8863 140.989 68.7026 140.118 68.7026C138.644 68.7026 137.17 69.3323 136.138 70.3555C135.146 71.3524 134.597 72.7036 134.597 74.094C134.597 75.6157 135.119 76.9406 136.272 77.9507C137.357 78.9083 138.738 79.4592 140.185 79.4592C141.029 79.4592 141.686 79.2493 142.584 78.987V75.7993C142.021 76.4683 141.123 76.8881 140.238 76.8881C138.55 76.8881 137.411 75.7206 137.411 74.1072C137.411 72.4937 138.537 71.2737 140.198 71.2737C141.123 71.2737 142.021 71.6672 142.584 72.4018V69.2142H142.597Z" fill="black"/>
<path fill-rule="evenodd" clip-rule="evenodd" d="M151.173 73.1891H151.147V68.9783H148.426V79.197H151.147V74.7632H151.173L154.671 79.197H158.182L153.653 73.8187L157.807 68.9783H154.443L151.173 73.1891Z" fill="black"/>
<path fill-rule="evenodd" clip-rule="evenodd" d="M163.087 79.1838H166.933C169.828 79.1838 172.24 76.9537 172.24 74.0678C172.24 71.1819 169.841 68.9519 166.933 68.9519H163.087V79.1838ZM165.794 71.2213H166.437C168.179 71.2213 169.412 72.2576 169.412 74.0809C169.412 76.0748 168.032 76.9406 166.41 76.9406H165.794V71.2213Z" fill="black"/>
<path fill-rule="evenodd" clip-rule="evenodd" d="M184.046 77.4129L184.729 79.1838H187.624L183.697 68.9651H180.736L176.716 79.1838H179.597L180.32 77.4129H184.046ZM183.309 75.3797H181.057L182.183 72.1265H182.21L183.309 75.3797Z" fill="black"/>
<path fill-rule="evenodd" clip-rule="evenodd" d="M198.559 71.2213V68.9651H192.623V79.1838H198.559V76.9276H195.33V75.1698H198.385V72.9266H195.33V71.2213H198.559Z" fill="black"/>
<path fill-rule="evenodd" clip-rule="evenodd" d="M203.759 79.1838H206.452L207.323 73.3071H207.35L209.749 79.1838H210.834L213.34 73.3071H213.367L214.131 79.1838H216.851L215.27 68.9651H212.576L210.338 74.4221L208.221 68.9651H205.554L203.759 79.1838Z" fill="black"/>
<path fill-rule="evenodd" clip-rule="evenodd" d="M227.398 68.624C224.396 68.624 221.622 70.7885 221.622 73.8842C221.622 77.1899 224.048 79.5249 227.398 79.5249C230.748 79.5249 233.174 77.1899 233.174 73.8842C233.174 70.8016 230.4 68.624 227.398 68.624ZM227.398 71.2082C229.019 71.2082 230.346 72.4938 230.346 73.9105C230.346 75.6683 229.019 76.9538 227.398 76.9538C225.776 76.9538 224.45 75.6683 224.45 73.9105C224.45 72.4938 225.776 71.2082 227.398 71.2082Z" fill="black"/>
<path fill-rule="evenodd" clip-rule="evenodd" d="M238.587 79.1838H241.294V72.9266H241.321L246.293 79.1838H249V68.9651H246.293V75.2091H246.266L241.294 68.9651H238.587V79.1838Z" fill="black"/>
</g>
<defs>
<clipPath id="clip0_12258_34515">
<rect width="201" height="43" fill="white" transform="translate(48 53.25)"/>
</clipPath>
</defs>
</svg>
