<svg width="297" height="149" viewBox="0 0 297 149" fill="none" xmlns="http://www.w3.org/2000/svg">
<rect width="297" height="148.5" fill="white"/>
<g clip-path="url(#clip0_12258_34558)">
<path d="M188.37 83.5672C185.18 83.5672 183.763 82.155 183.763 78.9775V69.8669L187.09 71.7786V78.9258C187.09 80.1056 187.428 80.4586 188.534 80.4586H191.714V83.5242L188.37 83.5672Z" fill="#0A0F38"/>
<path d="M180.712 69.867L181.611 66.8101H183.763V63.357L187.09 61.4368V66.8101H191.222V69.867H180.712Z" fill="#0A0F38"/>
<path d="M176.52 66.8101L171.749 83.5759L166.961 66.8101H163.564L168.508 83.5759H171.749L171.058 85.9612C170.965 86.2565 170.78 86.5146 170.53 86.6975C170.28 86.8803 169.977 86.9784 169.666 86.9773H163.884V89.7501H169.71C170.676 89.77 171.625 89.4851 172.419 88.9362C173.214 88.3872 173.814 87.6022 174.135 86.6931L179.951 66.8876L176.52 66.8101Z" fill="#0A0F38"/>
<path d="M99.9444 80.6481C95.1649 80.6481 91.3016 76.3942 91.3016 71.3481C91.3016 66.3019 95.1909 61.9964 99.9444 61.9964C101.168 62.0121 102.373 62.2948 103.475 62.8244C104.577 63.354 105.549 64.1178 106.323 65.0619L109.27 63.3397C108.166 61.9208 106.753 60.7703 105.138 59.9752C103.522 59.1801 101.746 58.7612 99.9444 58.75C97.0415 58.8083 94.2537 59.8924 92.0786 61.8087C89.9035 63.7251 88.4825 66.3491 88.0691 69.2125L91.2929 71.0725L88 72.9583C88.3276 75.9103 89.7186 78.6438 91.9151 80.6517C94.1115 82.6595 96.9644 83.8056 99.9444 83.8772C101.824 83.8602 103.673 83.4004 105.341 82.5353C107.008 81.6703 108.446 80.4246 109.538 78.9L106.608 77.1778C105.839 78.2288 104.835 79.0871 103.675 79.6849C102.516 80.2827 101.233 80.6036 99.9271 80.6222" fill="#0A0F38"/>
<path d="M160.807 67.826C159.524 66.8876 157.955 66.4192 156.365 66.4999C155.212 66.4865 154.07 66.7159 153.012 67.1729C151.955 67.63 151.006 68.3044 150.228 69.1521L147.774 67.7743V83.5671H150.851V74.3704C150.851 71.4427 152.579 69.1521 155.673 69.1521C156.425 69.0755 157.183 69.2168 157.856 69.5589C158.529 69.9011 159.089 70.4296 159.468 71.081C160.004 72.4134 160.211 73.8544 160.073 75.2832V83.5241H163.193V76.1271C163.141 73.2338 163.245 69.8324 160.807 67.826Z" fill="#0A0F38"/>
<path d="M140.41 80.071L142.666 81.4143C141.693 82.5944 140.346 83.4085 138.846 83.7221C135.536 84.2732 131.56 83.1021 129.901 79.7954C129.172 78.2413 128.827 76.5357 128.896 74.8217C128.966 73.1076 129.446 71.4351 130.298 69.9443C132.269 66.8788 136.452 65.854 139.805 66.9563C141.118 67.3865 142.291 68.1596 143.202 69.1952L145.648 67.7829V85.2721C145.648 88.3377 144.291 89.7068 141.214 89.7068H134.671V86.9599H141.015C142.191 86.9599 142.631 86.5207 142.631 85.341V74.3446C142.631 72.9743 142.085 71.6602 141.113 70.6912C140.14 69.7223 138.821 69.1779 137.446 69.1779C135.078 69.1779 132.174 70.9002 132.174 75.309C132.174 78.9343 134.473 81.199 137.307 81.199C138.437 81.17 139.527 80.7739 140.41 80.071Z" fill="#0A0F38"/>
<path d="M120.713 66.5L119.114 69.3244L117.429 66.5C114.637 66.9392 110.696 69.0317 110.696 75.1111C110.696 81.1906 114.603 83.8858 119.114 83.8858C123.626 83.8858 127.446 81.2508 127.446 75.1111C127.446 68.9714 123.505 66.9133 120.713 66.5ZM124.17 75.3092C124.084 78.8139 122.243 81.0356 119.036 81.0872C115.83 81.1389 114.032 78.7881 113.928 75.2833C113.825 71.7786 115.882 69.2556 119.054 69.2556C122.226 69.2556 124.3 71.8217 124.17 75.2833V75.3092Z" fill="#0A0F38"/>
<path d="M195.673 73.5266L197.401 76.4888H208.948C209.064 75.3614 209.032 74.2238 208.853 73.1046C208.326 69.7205 205.647 66.543 200.651 66.543C194.826 66.543 192.276 70.5299 192.276 75.2057C192.276 79.8816 194.869 83.8771 200.651 83.8771C203.348 83.8771 205.638 83.3432 207.704 80.3724L204.86 78.7363C204.419 79.4424 203.798 80.0192 203.06 80.408C202.322 80.7968 201.494 80.9836 200.66 80.9494C198.611 80.9494 195.534 79.718 195.534 75.2057C195.534 71.4169 197.712 69.2813 200.66 69.2813C201.864 69.2586 203.034 69.6791 203.946 70.4625C204.858 71.2458 205.448 72.3368 205.603 73.5266H195.673Z" fill="#0A0F38"/>
</g>
<defs>
<clipPath id="clip0_12258_34558">
<rect width="121" height="31" fill="white" transform="translate(88 58.75)"/>
</clipPath>
</defs>
</svg>
