<svg width="297" height="149" viewBox="0 0 297 149" fill="none" xmlns="http://www.w3.org/2000/svg">
<rect width="297" height="148.5" fill="white"/>
<g clip-path="url(#clip0_12227_34124)">
<path fill-rule="evenodd" clip-rule="evenodd" d="M228.4 69.05C228.4 69.25 228.2 69.35 228.1 69.45H227.8C227.605 69.5114 227.395 69.5114 227.2 69.45C226.72 69.1171 226.219 68.8165 225.7 68.55L224.5 68.45L223.4 68.55L222.6 68.95L222.1 69.65C222.013 69.9071 221.979 70.1793 222 70.45C222 70.85 222 71.15 222.3 71.45L223.1 72.05L224.3 72.55C225.245 72.85 226.179 73.1835 227.1 73.55L228.3 74.35C228.698 74.7391 229.01 75.2068 229.216 75.7234C229.423 76.24 229.52 76.7939 229.5 77.35C229.5 78.05 229.3 78.65 229.1 79.35C228.8 79.95 228.5 80.55 228 81.05C227.5 81.45 227 81.85 226.2 82.05C225.5 82.45 224.7 82.55 223.8 82.55C222.769 82.5611 221.747 82.3567 220.8 81.95C219.952 81.5881 219.173 81.0804 218.5 80.45L219.4 78.95C219.4 78.85 219.5 78.75 219.7 78.75L220.1 78.55L220.7 78.85C221.287 79.2056 221.888 79.5391 222.5 79.85L223.9 80.05C224.617 80.0959 225.327 79.883 225.9 79.45C226.4 79.05 226.6 78.45 226.6 77.75C226.6 77.25 226.6 76.95 226.3 76.75C226.1 76.35 225.8 76.15 225.5 75.95C224.143 75.5539 222.808 75.0866 221.5 74.55L220.3 73.75L219.5 72.45C219.053 71.2916 219.053 70.0083 219.5 68.85C219.7 68.35 220.1 67.85 220.5 67.35L222.2 66.35C223.819 65.786 225.581 65.786 227.2 66.35C227.947 66.6451 228.627 67.0871 229.2 67.65L228.4 69.05ZM215.8 78.55C216 78.55 216.2 78.55 216.3 78.75L217.5 80.05C216.8 80.85 216 81.45 215 81.85C214 82.35 213 82.55 211.6 82.55C210.4 82.55 209.3 82.35 208.3 81.95C207.358 81.5437 206.514 80.941 205.825 80.1822C205.135 79.4234 204.615 78.5259 204.3 77.55C203.553 75.4134 203.553 73.0866 204.3 70.95C204.687 69.9508 205.278 69.0433 206.036 68.2857C206.793 67.528 207.701 66.9369 208.7 66.55C210.791 65.7402 213.109 65.7402 215.2 66.55C216.2 66.95 216.9 67.45 217.6 68.05L216.6 69.45L216.3 69.65L215.9 69.85L215.4 69.55C214.875 69.2024 214.302 68.9329 213.7 68.75C213.2 68.55 212.7 68.55 212.1 68.55C211.3 68.55 210.6 68.65 209.9 68.95C209.255 69.2181 208.679 69.6264 208.212 70.1454C207.745 70.6643 207.399 71.2808 207.2 71.95C206.939 72.6888 206.804 73.4663 206.8 74.25C206.8 75.25 207 75.95 207.2 76.65C207.5 77.35 207.8 77.95 208.2 78.45C208.649 78.954 209.206 79.3506 209.829 79.6102C210.452 79.8699 211.126 79.986 211.8 79.95C212.472 79.9646 213.144 79.8974 213.8 79.75C214.368 79.532 214.88 79.1904 215.3 78.75L215.6 78.65L215.8 78.55ZM201 82.35H198V66.25H201V82.25V82.35ZM195.7 66.15V68.65H190.8V82.25H187.8V68.65H182.8V66.15H195.7ZM176.8 76.05V82.35H173.8V76.05L167.8 66.05H170.5C170.8 66.05 171 66.15 171.1 66.35L171.5 66.85L174.5 72.25C174.808 72.7963 175.075 73.3645 175.3 73.95C175.527 73.3654 175.794 72.7974 176.1 72.25L179.1 66.85C179.1 66.65 179.2 66.45 179.4 66.35L180 66.15H182.7L176.7 76.05H176.8ZM163.5 79.85H170V82.35H160.5V66.25H163.5V79.95V79.85ZM158.8 82.35H156.5C156.25 82.3736 156 82.3022 155.8 82.15C155.704 82.1085 155.623 82.0379 155.57 81.9482C155.516 81.8585 155.491 81.7542 155.5 81.65L154.2 78.35H147.5L146.3 81.65C146.3 81.85 146.1 82.05 145.9 82.15C145.727 82.2798 145.516 82.35 145.3 82.35H143L149.3 66.25H152.4L158.8 82.25V82.35ZM148.3 76.25H153.5L151.5 70.85C151.282 70.1888 151.082 69.5219 150.9 68.85C150.725 69.5239 150.525 70.191 150.3 70.85L148.3 76.25ZM129.1 66.15H129.7L129.9 66.35L130.2 66.65L138.7 77.45C138.641 76.952 138.607 76.4514 138.6 75.95V66.25H141.3V82.25H139.7L139.1 82.15C138.9 82.15 138.8 81.95 138.6 81.75L130.2 70.95C130.225 71.3829 130.225 71.817 130.2 72.25V82.25H127.6V66.25H129L129.1 66.15ZM125.9 82.35H123.5C123.284 82.35 123.073 82.2798 122.9 82.15L122.5 81.65L121.3 78.35H114.6L113.4 81.65C113.4 81.85 113.2 82.05 113 82.15C112.827 82.2798 112.616 82.35 112.4 82.35H110L116.4 66.25H119.5L125.9 82.25V82.35ZM115.4 76.25H120.5L118.5 70.85C118.282 70.1887 118.082 69.5218 117.9 68.85C117.725 69.5239 117.525 70.191 117.3 70.85L115.3 76.25H115.4Z" fill="#060666"/>
<path d="M71.4 59.25H99.4C101.9 59.25 103.8 61.25 103.8 63.55V84.95C103.8 87.35 101.8 89.25 99.5 89.25H71.4C68.9 89.25 67 87.25 67 84.95V63.55C67 61.25 69 59.25 71.4 59.25Z" fill="#060666"/>
<path fill-rule="evenodd" clip-rule="evenodd" d="M87.4999 69.7499L90.4999 66.9499H93.1999V81.5499H90.2999V70.4499L86.6999 74.0499L86.4999 74.3499L85.5999 75.1499L80.8999 78.8499H87.8999V81.5499H76.8999V78.2499L82.9999 73.2499L83.9999 72.3499C84.1999 72.0499 84.3999 71.6499 84.3999 71.2499C84.3999 70.7499 84.1999 70.3499 83.7999 70.0499C83.4266 69.7688 82.9667 69.6273 82.4999 69.6499C82.229 69.627 81.9563 69.6595 81.6984 69.7454C81.4405 69.8314 81.2028 69.969 80.9999 70.1499C80.6829 70.5094 80.5054 70.9707 80.4999 71.4499L77.1999 71.2499C77.1999 70.5499 77.3999 69.8499 77.6999 69.2499C77.9999 68.7499 78.3999 68.2499 78.7999 67.9499C79.3109 67.5782 79.8878 67.3068 80.4999 67.1499C81.8421 66.7843 83.2577 66.7843 84.5999 67.1499C85.2999 67.3499 85.7999 67.5499 86.1999 67.9499C86.7912 68.3762 87.2435 68.9676 87.4999 69.6499V69.7499Z" fill="#07F49E"/>
</g>
<defs>
<clipPath id="clip0_12227_34124">
<rect width="163" height="30" fill="white" transform="translate(67 59.25)"/>
</clipPath>
</defs>
</svg>
