<svg width="297" height="149" viewBox="0 0 297 149" fill="none" xmlns="http://www.w3.org/2000/svg">
<rect width="297" height="148.5" transform="translate(0 0.5)" fill="white"/>
<g clip-path="url(#clip0_12258_35025)">
<mask id="mask0_12258_35025" style="mask-type:luminance" maskUnits="userSpaceOnUse" x="48" y="58" width="201" height="33">
<path d="M248.915 58.75H48.085V90.75H248.915V58.75Z" fill="white"/>
</mask>
<g mask="url(#mask0_12258_35025)">
<path d="M87.2149 62.2301L86.7849 61.6101L78.7849 66.6601C77.9249 66.3901 76.1749 65.9801 74.4149 66.3501C72.8349 66.6901 71.6749 67.6101 70.8449 69.1601C70.4049 69.9901 70.1049 70.9301 69.7649 72.0101C69.6049 72.5301 69.4349 73.0501 69.2549 73.5701C69.1349 73.9301 69.0049 74.2701 68.8749 74.6101C62.3049 73.3201 58.8149 67.9501 59.5349 60.1601L59.6349 59.1001L58.6049 59.3501C58.5249 59.3701 56.6149 59.8501 54.5149 61.4701C50.6749 64.4501 48.4749 68.9001 48.4749 73.6901C48.4749 77.2501 49.6949 80.5201 51.7349 83.1301H51.7149C51.8549 83.3201 52.0049 83.4901 52.1549 83.6501C54.9649 86.9401 59.1449 89.0301 63.7949 89.0301C67.7849 89.0301 71.3749 87.6401 73.9249 85.1001C75.9849 83.0501 77.5149 80.3601 78.4549 77.1001C79.2149 74.5001 79.6149 71.4701 79.6649 68.0901C79.6649 68.0901 87.2049 62.2501 87.2049 62.2401L87.2149 62.2301ZM53.2349 82.5801C52.1349 81.2701 51.2849 79.7701 50.7249 78.1601C53.1849 80.0201 56.5749 81.0701 60.3049 81.0701C60.4949 81.0701 60.6849 81.0701 60.8649 81.0701C62.8249 81.0101 64.6349 80.6701 66.0749 80.1201C64.4449 82.4201 62.5649 83.7501 60.3449 84.1901C56.2849 85.0101 54.1049 83.4801 53.2149 82.5801H53.2349ZM55.4449 62.6901C56.3949 61.9601 57.3049 61.4901 57.9549 61.2101C57.7849 65.2301 58.7049 68.7001 60.6449 71.3101C62.3949 73.6501 64.9049 75.2501 67.9549 75.9801C64.8749 76.7301 61.0249 76.0301 57.8949 74.0901C54.8149 72.1901 52.8249 69.3801 52.2349 66.1301C53.1049 64.8101 54.1749 63.6501 55.4249 62.6901H55.4449ZM51.1749 68.0801C52.1449 71.0301 54.1949 73.5701 57.1049 75.3701C59.6449 76.9401 62.6349 77.7701 65.4149 77.7701C66.1049 77.7701 66.7749 77.7201 67.4249 77.6101C66.3249 78.6801 63.7149 79.4601 60.8249 79.5501C56.3249 79.6801 52.3249 78.1601 50.0949 75.5001C49.7549 72.9701 50.1249 70.4001 51.1649 68.0701L51.1749 68.0801ZM72.8649 84.0201C70.6049 86.2701 67.3849 87.5101 63.7949 87.5101C61.5349 87.5101 59.3149 86.9601 57.3249 85.9001C57.6049 85.9201 57.8849 85.9401 58.1749 85.9401C59.0049 85.9401 59.8449 85.8501 60.6549 85.6801C65.0349 84.7901 68.2149 81.1101 70.6749 74.1001C70.8749 73.5401 71.0349 73.0101 71.2049 72.5001C71.5249 71.4801 71.8049 70.6001 72.1849 69.8901C72.7949 68.7401 73.6049 68.0901 74.7349 67.8501C76.0549 67.5701 77.4149 67.8501 78.1649 68.0701C78.1149 71.3101 77.7349 74.2101 77.0149 76.6801C76.1449 79.6901 74.7549 82.1601 72.8649 84.0301V84.0201ZM106.865 83.9301H103.775V76.2001H95.7149V83.9301H92.6449V65.9001H95.7149V73.3701H103.775V65.9001H106.865V83.9301ZM110.855 82.9801C109.925 82.0501 109.565 80.6901 109.565 79.0601V70.7901H112.605V78.6701C112.605 79.5701 112.785 80.2901 113.225 80.8101C113.665 81.3501 114.335 81.6601 115.285 81.6601C116.145 81.6701 116.965 81.3001 117.525 80.6601C118.015 80.1201 118.295 79.3001 118.295 78.0301V70.7901H121.305V83.9301H118.905V81.3501H118.575C117.885 83.2301 116.175 84.2601 114.275 84.2601C112.815 84.2601 111.655 83.7701 110.855 82.9701V82.9801ZM144.085 75.6601V83.9301H141.045V76.0501C141.045 75.1501 140.865 74.4301 140.425 73.9101C139.985 73.3701 139.365 73.0601 138.495 73.0601C137.625 73.0601 136.815 73.4201 136.255 74.1201C135.815 74.6601 135.615 75.4101 135.615 76.3901V83.9401H132.605V76.0601C132.605 75.1601 132.425 74.4401 131.985 73.9201C131.545 73.3801 130.925 73.0701 130.055 73.0701C129.185 73.0701 128.375 73.4301 127.815 74.1301C127.375 74.6701 127.175 75.4201 127.175 76.4001V83.9501H124.165V70.8101H126.565V73.3901H126.895C127.405 71.7101 128.745 70.4801 130.965 70.4801C132.925 70.4801 134.495 71.5101 135.115 73.3101C135.755 71.6901 137.405 70.4801 139.395 70.4801C140.865 70.4801 142.025 70.9701 142.825 71.7701C143.755 72.7001 144.115 74.0601 144.115 75.6901L144.085 75.6601ZM166.725 75.6601V83.9301H163.685V76.0501C163.685 75.1501 163.505 74.4301 163.065 73.9101C162.625 73.3701 162.005 73.0601 161.135 73.0601C160.265 73.0601 159.455 73.4201 158.895 74.1201C158.455 74.6601 158.255 75.4101 158.255 76.3901V83.9401H155.245V76.0601C155.245 75.1601 155.065 74.4401 154.625 73.9201C154.185 73.3801 153.565 73.0701 152.695 73.0701C151.825 73.0701 151.015 73.4301 150.455 74.1301C150.015 74.6701 149.815 75.4201 149.815 76.4001V83.9501H146.805V70.8101H149.205V73.3901H149.535C150.045 71.7101 151.395 70.4801 153.605 70.4801C155.565 70.4801 157.135 71.5101 157.755 73.3101C158.395 71.6901 160.045 70.4801 162.035 70.4801C163.505 70.4801 164.665 70.9701 165.465 71.7701C166.395 72.7001 166.755 74.0601 166.755 75.6801L166.725 75.6601ZM169.305 66.7001C169.305 65.5701 170.105 64.8001 171.215 64.8001C172.325 64.8001 173.095 65.5701 173.095 66.7001C173.095 67.8301 172.325 68.5501 171.215 68.5501C170.105 68.5501 169.305 67.7801 169.305 66.7001ZM169.685 70.7901H172.725V83.9301H169.685V70.7901ZM186.245 71.7501C187.175 72.6801 187.535 74.0401 187.535 75.6701V83.9401H184.495V76.0601C184.495 75.1601 184.315 74.4401 183.875 73.9201C183.435 73.3801 182.765 73.0701 181.815 73.0701C180.955 73.0601 180.135 73.4301 179.575 74.0801C179.085 74.6201 178.805 75.4401 178.805 76.7101V83.9501H175.795V70.8101H178.195V73.3901H178.535C179.225 71.5101 180.935 70.4801 182.835 70.4801C184.295 70.4801 185.455 70.9701 186.255 71.7701L186.245 71.7501ZM203.405 71.8201H200.365C201.395 72.6701 201.965 73.8301 201.965 75.1701C201.965 76.7401 201.265 78.0001 199.745 78.8001C198.735 79.3101 197.455 79.5501 195.905 79.6501C194.925 79.7301 194.155 79.7501 193.665 79.8601C193.025 79.9901 192.705 80.2201 192.705 80.6101C192.705 80.8201 192.805 81.0201 192.995 81.1501C193.255 81.3301 193.585 81.3301 194.045 81.3301H198.635C200.105 81.3301 201.005 81.5401 201.835 82.1301C202.525 82.6401 203.075 83.5701 203.075 84.8601C203.075 87.6701 200.885 89.8801 195.915 89.8801C193.395 89.8801 191.615 89.2901 190.555 88.3601C189.675 87.5901 189.345 86.7901 189.345 85.8401C189.345 84.8901 190.015 83.9301 191.405 83.7001C190.225 83.2101 189.705 82.4401 189.705 81.4601C189.705 79.2701 193.075 79.0101 193.075 79.0101V78.6801C190.675 78.2201 189.835 76.5401 189.835 75.1001C189.835 72.4701 192.235 70.4401 195.885 70.4401C197.325 70.4401 198.565 70.7501 199.515 71.2701C199.695 70.8601 200.005 70.2601 200.595 69.7801C201.835 68.7501 203.405 68.9301 203.405 68.9301V71.8401V71.8201ZM192.015 83.8301C191.965 83.9301 191.915 84.1401 191.915 84.5001C191.915 86.1201 192.995 87.1501 196.185 87.1501C198.785 87.1501 200.155 86.3801 200.155 85.1701C200.155 84.4001 199.695 83.9301 198.425 83.9301H193.665C192.815 83.9301 192.375 83.8801 192.015 83.8301ZM198.975 75.2201C198.975 73.9301 197.735 72.9301 195.885 72.9301C194.035 72.9301 192.795 73.9401 192.795 75.2201C192.795 76.5001 194.055 77.4901 195.885 77.4901C197.715 77.4901 198.975 76.4901 198.975 75.2201ZM207.915 73.6001C208.605 71.3901 210.615 70.4601 212.375 70.4601C216.085 70.4601 218.245 73.5801 218.245 77.3601C218.245 81.1401 216.085 84.2401 212.375 84.2401C209.795 84.2401 208.205 82.6201 207.615 81.2801H207.305V83.9301H204.885V64.9001H207.925V73.6001H207.915ZM211.515 81.5901C213.785 81.5901 215.195 79.7401 215.195 77.3701C215.195 75.0001 213.775 73.1201 211.515 73.1201C209.255 73.1201 207.805 74.9501 207.805 77.3701C207.805 79.7901 209.195 81.5901 211.515 81.5901ZM220.295 66.7001C220.295 65.5701 221.095 64.8001 222.205 64.8001C223.315 64.8001 224.085 65.5701 224.085 66.7001C224.085 67.8301 223.315 68.5601 222.205 68.5601C221.095 68.5601 220.295 67.7901 220.295 66.7001ZM220.685 70.7901H223.725V83.9301H220.685V70.7901ZM233.895 73.4701C233.895 73.4701 233.555 73.4201 233.225 73.4201C232.165 73.4201 231.295 73.7001 230.705 74.3001C230.115 74.8901 229.825 75.7901 229.825 77.0801V83.9301H226.785V70.7901H229.595V73.3901H229.935C230.275 71.1801 231.455 70.6301 233.255 70.6301C233.535 70.6301 233.895 70.6601 233.895 70.6601V73.4701ZM245.125 73.6001V64.9001H248.165V83.9301H245.745V81.2801H245.435C244.845 82.6201 243.245 84.2401 240.665 84.2401C236.955 84.2401 234.795 81.1201 234.795 77.3601C234.795 73.6001 236.955 70.4601 240.665 70.4601C242.415 70.4601 244.425 71.3901 245.125 73.6001ZM241.525 81.5901C243.845 81.5901 245.235 79.7401 245.235 77.3701C245.235 75.0001 243.845 73.1201 241.525 73.1201C239.205 73.1201 237.845 74.9501 237.845 77.3701C237.845 79.7401 239.255 81.5901 241.525 81.5901Z" fill="black"/>
</g>
</g>
<defs>
<clipPath id="clip0_12258_35025">
<rect width="200.83" height="32" fill="white" transform="translate(48.085 58.75)"/>
</clipPath>
</defs>
</svg>
