<svg width="297" height="149" viewBox="0 0 297 149" fill="none" xmlns="http://www.w3.org/2000/svg">
<rect width="297" height="148.5" fill="white"/>
<g clip-path="url(#clip0_12258_34682)">
<path d="M154.973 66.483V72.001H155.023C155.935 70.803 157.238 70.203 158.932 70.203C159.688 70.203 160.402 70.327 161.076 70.573C161.745 70.8161 162.356 71.1954 162.871 71.687C163.392 72.183 163.801 72.803 164.096 73.547C164.392 74.291 164.539 75.15 164.539 76.125C164.539 77.223 164.338 78.244 163.933 79.187C163.542 80.113 162.884 80.9018 162.043 81.453C161.187 82.021 160.126 82.306 158.858 82.306C157.028 82.306 155.724 81.723 154.948 80.559H154.898V82.004H151.422V66.483H154.973ZM141.633 69.879C148.389 69.879 147.811 77.129 147.811 77.129H138.564C138.938 78.572 140.181 79.52 141.894 79.52C143.957 79.52 145.069 78.275 145.069 78.275L147.033 80.279C146.022 81.282 144.665 82.198 141.864 82.198C137.534 82.198 135.224 79.334 135.224 76.298C135.224 73.263 136.956 69.879 141.633 69.879ZM225.75 69.874C228.657 69.874 230.504 70.981 230.504 70.981L229.311 73.539C225.443 71.535 223.691 72.948 223.691 73.654C223.691 74.361 224.384 74.418 227.078 74.914C229.773 75.411 231.024 76.537 231.024 78.351C231.024 80.164 229.464 82.169 225.654 82.169C221.842 82.169 220.111 80.947 220.111 80.947L221.266 78.407C224.249 80.298 227.636 79.687 227.636 78.561C227.636 77.716 226.51 77.537 225.298 77.396L224.776 77.336C224.548 77.3098 224.321 77.2788 224.095 77.243C222.555 76.995 220.265 76.174 220.265 73.807C220.265 71.439 222.845 69.874 225.75 69.874ZM208.735 65.674V75.048L213.787 70.198H217.915L212.908 75.005L218.406 82.17H214.306L210.547 77.272L208.735 79.012V82.17H205.357V65.674H208.735ZM196.628 69.798C199.024 69.798 201.122 70.99 202.281 72.776L199.426 74.454C199.16 73.9413 198.758 73.5111 198.265 73.2102C197.772 72.9094 197.206 72.7492 196.628 72.747C194.874 72.747 193.452 74.197 193.452 75.984C193.452 77.77 194.874 79.22 196.628 79.22C197.178 79.2179 197.719 79.072 198.196 78.7968C198.672 78.5216 199.069 78.1266 199.346 77.651L202.214 79.291C201.042 81.021 198.979 82.17 196.628 82.17C192.976 82.17 190.017 79.4 190.017 75.984C190.017 72.567 192.977 69.798 196.627 69.798H196.628ZM180.93 69.798C184.58 69.798 187.541 72.568 187.541 75.983C187.541 79.4 184.581 82.169 180.93 82.169C177.277 82.169 174.319 79.399 174.319 75.983C174.319 72.567 177.277 69.797 180.929 69.797L180.93 69.798ZM120.902 70.141V82.055H117.235V70.141H120.902ZM113.942 66.533V69.51H105.743V73.462H112.99V76.412H105.743V82.054H102.076V66.533H113.942ZM128.728 71.63C128.728 71.63 130.028 69.597 132.712 69.912V73.234C132.712 73.234 129.796 72.49 128.728 75.497V82.055H125.235V70.14H128.575L128.728 71.544V71.63ZM170.824 65.616V81.97H167.129V65.616H170.824ZM157.864 72.821C155.838 72.821 154.825 74.053 154.825 76.519C154.825 77.453 155.086 78.237 155.608 78.87C156.13 79.503 156.917 79.82 157.969 79.82C158.671 79.82 159.241 79.637 159.679 79.272C160.116 78.905 160.426 78.458 160.609 77.929C160.79 77.42 160.883 76.8841 160.885 76.344C160.885 75.331 160.645 74.492 160.164 73.824C159.684 73.154 158.917 72.821 157.864 72.821ZM180.931 72.747C179.176 72.747 177.754 74.196 177.754 75.983C177.754 77.771 179.176 79.22 180.931 79.22C182.684 79.22 184.106 77.77 184.106 75.983C184.106 74.196 182.684 72.747 180.931 72.747ZM141.692 72.475C139.906 72.475 138.912 73.575 138.577 75.01H144.565C144.535 74.637 143.945 72.475 141.692 72.475ZM119.07 64.528C120.26 64.528 121.225 65.413 121.225 66.504C121.225 67.595 120.259 68.48 119.07 68.48C117.88 68.48 116.914 67.595 116.914 66.504C116.914 65.413 117.879 64.528 119.07 64.528ZM89.822 61.75C90.0872 61.75 90.3416 61.8554 90.5291 62.0429C90.7166 62.2304 90.822 62.4848 90.822 62.75V85.75C90.822 86.0152 90.7166 86.2696 90.5291 86.4571C90.3416 86.6446 90.0872 86.75 89.822 86.75H66.5C66.2348 86.75 65.9804 86.6446 65.7929 86.4571C65.6054 86.2696 65.5 86.0152 65.5 85.75V62.75C65.5 62.4848 65.6054 62.2304 65.7929 62.0429C65.9804 61.8554 66.2348 61.75 66.5 61.75H89.822ZM78.161 68.694L71.127 79.806H85.195L78.16 68.694H78.161Z" fill="#14223D"/>
</g>
<defs>
<clipPath id="clip0_12258_34682">
<rect width="166" height="25" fill="white" transform="translate(65.5 61.75)"/>
</clipPath>
</defs>
</svg>
