<svg width="297" height="149" viewBox="0 0 297 149" fill="none" xmlns="http://www.w3.org/2000/svg">
<rect width="297" height="148.5" fill="white"/>
<g clip-path="url(#clip0_12258_34761)">
<path d="M113.304 64.551H110.163L102.912 83.7531H105.953L107.892 78.7438H115.445L117.384 83.7531H120.506L113.37 64.7593L113.304 64.551ZM114.53 76.0013H108.83L111.669 68.3181L114.53 76.0013Z" fill="black"/>
<path d="M131.062 76.6709C131.062 79.553 129.722 81.2757 127.479 81.2757C124.864 81.2757 124.317 79.1176 124.317 77.3075V69.5864H121.524V77.4376C121.524 83.0716 125.032 83.914 127.112 83.914C128.775 83.914 130.136 83.3888 131.175 82.3523L131.397 83.7531H133.853V69.5864H131.062V76.6709Z" fill="black"/>
<path d="M141.01 79.877V72.2246H144.467V69.5863H141.01V65.8003H138.217V69.5863H135.808V72.2246H138.217V79.9031C138.217 82.5675 139.387 83.753 142.023 83.753H144.678V81.117H142.24C141.272 81.117 141.01 80.8496 141.01 79.877Z" fill="black"/>
<path d="M153.449 69.4278C151.461 69.4278 150.175 70.256 149.37 71.167V64.5415H146.577V83.7531H149.37V76.6709C149.37 73.7865 150.757 72.0662 153.082 72.0662C155.828 72.0662 156.403 74.2242 156.403 76.0343V83.7531H159.193V75.9019C159.193 71.7869 157.1 69.4278 153.449 69.4278Z" fill="black"/>
<path d="M167.544 75.2344C165.527 74.9979 164.473 74.8014 164.473 73.6491C164.473 72.6055 165.572 71.9335 167.28 71.9335C168.887 71.9335 170.066 72.7854 170.211 74.0632L170.243 74.3519H173.076L173.05 74.0016C172.84 71.1621 170.683 69.4632 167.282 69.4348C165.474 69.4348 163.897 69.9719 162.877 70.9941C162.504 71.3599 162.208 71.7984 162.008 72.2833C161.806 72.7681 161.705 73.289 161.708 73.8147C161.708 76.9618 164.501 77.5723 167.364 77.9272L167.511 77.9438C169.555 78.1804 170.538 78.365 170.538 79.6711C170.538 80.6981 169.345 81.4151 167.638 81.4151C165.661 81.4151 164.337 80.4544 164.264 78.966L164.248 78.6584H161.42V78.9897C161.474 82.0303 163.857 83.9209 167.638 83.9209C170.973 83.9209 173.302 82.1084 173.302 79.5126C173.302 76.2093 170.58 75.6036 167.544 75.2344Z" fill="black"/>
<path d="M177.137 64.4967C176.911 64.4914 176.686 64.5327 176.476 64.6178C176.266 64.7029 176.076 64.8301 175.916 64.9917C175.757 65.1534 175.63 65.3462 175.546 65.5584C175.462 65.7706 175.421 65.9978 175.427 66.2264C175.421 66.4552 175.462 66.6826 175.545 66.8951C175.63 67.1076 175.755 67.3006 175.916 67.4625C176.075 67.6245 176.266 67.7519 176.475 67.8371C176.686 67.9223 176.91 67.9636 177.137 67.9585C177.363 67.9633 177.587 67.9218 177.797 67.8365C178.007 67.7511 178.197 67.6237 178.357 67.4618C178.517 67.3 178.643 67.107 178.727 66.8947C178.811 66.6824 178.852 66.455 178.846 66.2264C178.851 65.9978 178.81 65.7708 178.726 65.5588C178.642 65.3467 178.516 65.1541 178.357 64.9925C178.196 64.8309 178.006 64.7037 177.797 64.6184C177.587 64.5332 177.363 64.4918 177.137 64.4967Z" fill="black"/>
<path d="M178.504 69.5864H175.714V83.7532H178.504V69.5864Z" fill="black"/>
<path d="M192.106 71.3442C191.108 70.0854 189.613 69.4276 187.735 69.4276C183.758 69.4276 180.993 72.4067 180.993 76.6707C180.993 81.0695 183.639 83.9138 187.735 83.9138C189.552 83.9138 190.981 83.3079 191.998 82.1131V83.1115C191.998 85.802 190.726 87.0537 187.997 87.0537C185.926 87.0537 184.553 86.1806 184.224 84.6591L184.168 84.4035H181.347L181.389 84.7656C181.74 87.8181 184.151 89.6401 187.84 89.6401C192.45 89.6401 194.789 87.4702 194.789 83.192V69.5861H192.324L192.106 71.3442ZM192.024 76.7227C192.024 79.4345 190.348 81.3274 187.945 81.3274C185.487 81.3274 183.838 79.4558 183.838 76.6707C183.838 73.8856 185.475 72.0115 187.945 72.0115C190.415 72.0115 192.024 73.9045 192.024 76.7227Z" fill="black"/>
<path d="M204.271 69.4276C202.206 69.4276 200.891 70.199 200.08 71.0106L199.846 69.5909H197.392V83.7529H200.183V76.6707C200.183 73.7863 201.57 72.066 203.897 72.066C206.62 72.066 207.191 74.224 207.191 76.0341V83.7529H209.981V75.9016C209.99 70.2653 206.407 69.4276 204.271 69.4276Z" fill="black"/>
<path d="M224.051 80.5394V74.6238C224.051 71.3111 221.976 69.4181 218.36 69.4181C214.949 69.4181 212.716 71.1005 212.381 73.9139L212.336 74.2783H215.113L215.165 74.0133C215.398 72.7521 216.568 71.9973 218.254 71.9973C220.165 71.9973 221.26 72.9035 221.26 74.4818V75.0853H217.65C213.981 75.0853 211.96 76.6967 211.96 79.6237C211.96 82.2265 214.018 83.8995 217.206 83.8995C218.977 83.8995 220.406 83.3008 221.465 82.1224C221.748 83.2086 222.617 83.7386 224.097 83.7386H225.597V81.1026H224.595C224.153 81.1168 224.051 81.0623 224.051 80.5394ZM221.26 77.5792V77.9153C221.26 80.0685 219.768 81.4079 217.363 81.4079C215.791 81.4079 214.776 80.6601 214.776 79.5149C214.776 79.0416 214.776 77.5887 217.443 77.5887L221.26 77.5792Z" fill="black"/>
<path d="M230.422 64.5487H227.631V83.7531H230.422V64.5487Z" fill="black"/>
<path d="M80.7243 55.8762C77.0023 55.8762 73.4326 57.372 70.8007 60.0346C68.1688 62.6971 66.6902 66.3083 66.6902 70.0737H69.5461C69.5474 67.0747 70.7254 64.1989 72.8214 62.0781C74.9173 59.9572 77.7599 58.7649 80.7243 58.763C83.6868 58.7662 86.527 59.9581 88.6218 62.0772C90.7166 64.1964 91.8948 67.0697 91.8979 70.0666V85.5442L80.7243 90.0637L69.5508 85.5442V75.8425H86.2V81.6233L80.7243 83.8357L75.2463 81.6233V78.7436H72.3927V83.5731L80.7243 86.9473L89.0536 83.5778V72.9558H66.6902V87.4916L80.7243 93.1706L94.7585 87.4916V70.0571C94.7541 66.2946 93.2736 62.6877 90.6422 60.0287C88.0107 57.3697 84.4436 55.8762 80.7243 55.8762Z" fill="black"/>
<path d="M80.7242 64.5344C82.1753 64.5362 83.5664 65.1202 84.5924 66.1582C85.6185 67.1962 86.1957 68.6035 86.1975 70.0714H89.0535C89.0516 67.8369 88.1736 65.6946 86.612 64.1144C85.0504 62.5342 82.9329 61.6453 80.7242 61.6428C78.5153 61.6453 76.3975 62.5342 74.8356 64.1142C73.2736 65.6944 72.3951 67.8368 72.3926 70.0714H75.2509C75.2522 68.6033 75.8292 67.1956 76.8553 66.1575C77.8815 65.1194 79.273 64.5356 80.7242 64.5344Z" fill="black"/>
</g>
<defs>
<clipPath id="clip0_12258_34761">
<rect width="165" height="39" fill="white" transform="translate(66 54.75)"/>
</clipPath>
</defs>
</svg>
