<svg width="297" height="149" viewBox="0 0 297 149" fill="none" xmlns="http://www.w3.org/2000/svg">
<rect width="297" height="148.5" fill="white"/>
<g clip-path="url(#clip0_12258_34606)">
<path fill-rule="evenodd" clip-rule="evenodd" d="M133.905 79.6402C135.095 80.6602 136.515 81.1802 138.155 81.1902C140.095 81.1602 141.085 80.4402 141.115 79.0202C141.125 77.8602 140.485 77.1602 139.165 76.9302C138.565 76.8402 137.905 76.7502 137.185 76.6402C135.895 76.4202 134.925 75.9202 134.255 75.1502C133.565 74.3602 133.225 73.4002 133.225 72.2602C133.225 70.9002 133.655 69.8002 134.525 68.9702C135.365 68.1402 136.555 67.7202 138.095 67.7102C139.955 67.7502 141.565 68.2902 142.935 69.3202L141.675 71.2602C140.555 70.4902 139.315 70.0902 137.975 70.0602C137.275 70.0602 136.695 70.2402 136.235 70.6102C135.745 70.9902 135.495 71.5502 135.485 72.3002C135.485 72.7502 135.655 73.1602 135.985 73.5202C136.325 73.8902 136.855 74.1502 137.595 74.2902C138.005 74.3602 138.565 74.4402 139.275 74.5402C140.675 74.7402 141.715 75.2602 142.385 76.1102C143.045 76.9402 143.375 77.9102 143.375 79.0202C143.295 82.0002 141.555 83.5102 138.135 83.5502C135.925 83.5502 134.025 82.8402 132.425 81.4202L133.915 79.6402H133.905Z" fill="black"/>
<path fill-rule="evenodd" clip-rule="evenodd" d="M179.675 75.63C179.675 77.17 179.725 78.2 179.835 78.74C179.935 79.28 180.125 79.72 180.425 80.06C180.665 80.38 180.975 80.64 181.365 80.84C181.745 81.08 182.205 81.19 182.745 81.19C183.285 81.19 183.755 81.07 184.155 80.84C184.535 80.64 184.835 80.38 185.055 80.06C185.345 79.72 185.555 79.29 185.665 78.74C185.765 78.2 185.815 77.16 185.815 75.63C185.815 74.1 185.765 73.05 185.665 72.49C185.555 71.96 185.355 71.53 185.055 71.2C184.825 70.88 184.525 70.61 184.155 70.4C183.755 70.19 183.285 70.08 182.745 70.07C182.215 70.08 181.755 70.19 181.365 70.4C180.975 70.61 180.655 70.88 180.425 71.2C180.125 71.54 179.935 71.97 179.835 72.49C179.725 73.05 179.675 74.09 179.675 75.63ZM177.415 75.63C177.415 73.82 177.465 72.6 177.565 71.99C177.675 71.38 177.845 70.88 178.065 70.5C178.425 69.78 179.005 69.14 179.805 68.59C180.595 68.02 181.575 67.73 182.745 67.72C183.935 67.73 184.925 68.03 185.715 68.6C186.505 69.16 187.065 69.8 187.415 70.52C187.665 70.9 187.845 71.39 187.935 72.01C188.025 72.62 188.065 73.83 188.065 75.64C188.065 77.45 188.025 78.62 187.935 79.25C187.845 79.88 187.665 80.38 187.415 80.76C187.065 81.48 186.495 82.11 185.715 82.66C184.925 83.23 183.935 83.53 182.745 83.56C181.565 83.53 180.585 83.23 179.805 82.66C179.005 82.11 178.425 81.48 178.065 80.76C177.955 80.52 177.855 80.3 177.765 80.09C177.685 79.87 177.615 79.59 177.555 79.26C177.455 78.63 177.405 77.43 177.405 75.65" fill="black"/>
<path fill-rule="evenodd" clip-rule="evenodd" d="M192.765 83.4101H195.035V67.8401H192.765V83.4101Z" fill="black"/>
<path fill-rule="evenodd" clip-rule="evenodd" d="M199.985 67.8401H202.115L208.885 78.9101H208.925V67.8401H211.185V83.4201H209.045L202.285 72.3401H202.245V83.4201H199.985V67.8401Z" fill="black"/>
<path fill-rule="evenodd" clip-rule="evenodd" d="M124.645 67.8401H122.745L117.315 83.4201H119.715L120.865 79.9301L121.515 77.8401L123.675 71.0201H123.715L125.875 77.8401H123.765C121.675 77.8401 120.855 79.9301 120.855 79.9301H126.515L127.675 83.4201H130.065L124.635 67.8401H124.645Z" fill="black"/>
<path fill-rule="evenodd" clip-rule="evenodd" d="M173.375 70.4201C173.085 69.7701 172.695 69.2701 172.225 68.9201C171.665 68.4601 171.115 68.1501 170.565 68.0001C170.015 67.8901 169.455 67.8301 168.865 67.8301H163.445V83.4101H165.705V70.0501H168.985C169.605 70.0401 170.145 70.1801 170.605 70.4901C170.915 70.6801 171.155 70.9301 171.325 71.2501C171.485 71.6101 171.575 72.0501 171.575 72.5701C171.575 73.2001 171.375 73.7701 170.965 74.2901C170.545 74.8201 169.905 75.0901 169.065 75.1101H169.275C167.145 75.1101 165.705 77.3301 165.705 77.3301H169.155C170.695 77.3001 171.865 76.7901 172.665 75.7901C173.445 74.8401 173.835 73.7901 173.835 72.6401C173.835 71.7901 173.685 71.0501 173.375 70.4201Z" fill="black"/>
<path fill-rule="evenodd" clip-rule="evenodd" d="M214.875 67.8401V69.9301H218.965H221.205C221.205 69.9301 218.965 71.3601 218.965 73.5001V83.4101H221.225V69.9201H224.535L225.325 67.8301H214.865L214.875 67.8401Z" fill="black"/>
<path fill-rule="evenodd" clip-rule="evenodd" d="M94.2651 76.7602H99.6151L100.405 74.6702H97.4851C95.7751 74.8202 94.5651 76.3402 94.2551 76.7602" fill="black"/>
<path fill-rule="evenodd" clip-rule="evenodd" d="M91.925 67.8401V83.4201H94.185V76.8701V74.6501V70.0601H99.965H100.675L101.475 67.8401H91.925Z" fill="black"/>
<path fill-rule="evenodd" clip-rule="evenodd" d="M150.045 74.5201V67.8401H147.775V83.4201H150.045V76.6101V74.5201Z" fill="black"/>
<path fill-rule="evenodd" clip-rule="evenodd" d="M155.965 67.8401V74.5201H153.585C151.465 74.5201 150.035 76.6101 150.035 76.6101H155.965V83.4201H158.225V67.8401H155.965Z" fill="black"/>
<path fill-rule="evenodd" clip-rule="evenodd" d="M80.065 69.8801C78.435 73.2701 77.655 77.0201 77.335 78.8801C77.745 80.2701 78.155 82.0101 78.155 83.4701C78.155 86.4201 76.485 87.5101 76.485 87.5101C76.485 87.5101 74.815 86.4101 74.815 83.4701C74.815 82.0101 75.195 80.2401 75.645 78.8601C76.385 76.2701 79.785 68.8001 79.785 68.8001C79.785 68.8001 79.085 66.3001 78.405 64.3401C78.365 64.2201 78.325 64.1001 78.275 63.9801C78.175 65.1301 77.905 66.0301 77.905 66.0301C77.795 63.3101 76.495 59.3401 76.495 59.3401C76.495 59.3401 76.495 60.9701 74.085 68.2601C73.025 71.4601 71.675 75.1501 71.675 78.3001C71.675 86.2101 76.505 89.1601 76.505 89.1601C76.505 89.1601 81.325 86.2101 81.325 78.3001C81.325 75.6601 80.795 72.6801 80.075 69.8801" fill="#FB8521"/>
<path fill-rule="evenodd" clip-rule="evenodd" d="M105.195 67.8401H107.455V81.2001H114.735L113.945 83.4201H105.195V67.8401Z" fill="black"/>
</g>
<defs>
<clipPath id="clip0_12258_34606">
<rect width="153.67" height="29.82" fill="white" transform="translate(71.665 59.3401)"/>
</clipPath>
</defs>
</svg>
