<svg width="297" height="149" viewBox="0 0 297 149" fill="none" xmlns="http://www.w3.org/2000/svg">
<rect width="297" height="148.5" transform="translate(0 0.5)" fill="white"/>
<g clip-path="url(#clip0_12258_34822)">
<path d="M119.526 91.5581C117.266 91.622 115.131 90.7196 113.517 89.1102C111.258 86.8578 111.322 84.5378 111.322 80.7399C111.322 76.942 111.258 74.3627 113.517 72.1102C115.067 70.5008 117.263 69.6624 119.526 69.6624C123.66 69.6624 126.956 72.0463 127.73 76.6826H123.339C122.886 74.8778 121.789 73.5278 119.593 73.5278C118.56 73.4638 117.526 73.915 116.817 74.686C115.976 75.6523 115.72 76.4233 115.72 80.7399C115.72 85.0565 115.98 85.5681 116.817 86.5345C117.526 87.309 118.56 87.7566 119.593 87.6927C121.789 87.6927 122.886 86.3391 123.339 84.5378H127.733C126.956 89.1742 123.66 91.5581 119.526 91.5581Z" fill="#16222D"/>
<path d="M189.035 90.0765C187.938 91.0429 186.516 91.558 185.094 91.558C183.544 91.622 182.057 91.0429 181.024 89.8207V91.3662H177.082V70.1135H181.152V76.5547C182.122 75.4604 183.608 74.8174 185.094 74.9453C186.58 74.8813 188.002 75.4604 189.1 76.4268C190.714 78.0362 190.778 80.8074 190.778 83.2517C190.782 85.696 190.718 88.4671 189.035 90.0765ZM183.868 78.6153C181.412 78.6153 181.092 80.612 181.092 83.2517C181.092 85.8914 181.416 87.888 183.868 87.888C186.32 87.888 186.58 85.8914 186.58 83.2517C186.58 80.6084 186.323 78.6153 183.868 78.6153Z" fill="#16222D"/>
<path d="M204.67 73.7198V69.9858H208.804V73.7198H204.67ZM204.734 91.3664V75.1374H208.804V91.3664H204.734Z" fill="#16222D"/>
<path d="M217.589 91.3664C214.296 91.3664 212.874 89.0464 212.874 86.73V78.2283H211.131V75.1374H212.874V69.9858H216.944V75.1374H219.852V78.2283H216.944V86.4707C216.944 87.437 217.397 87.9522 218.366 87.9522H219.852V91.3664H217.589Z" fill="#16222D"/>
<path d="M141.622 84.474H143.689C143.689 84.0868 143.753 83.6356 143.753 83.1844C143.753 80.2853 143.365 78.4201 141.878 76.8747C140.456 75.5211 138.585 74.8141 136.647 74.878C134.708 74.8141 132.837 75.5211 131.479 76.8747C129.993 78.4201 129.604 80.2249 129.604 83.1844C129.604 86.1438 129.993 87.9486 131.479 89.4941C132.837 90.8477 134.708 91.5547 136.647 91.4908C138.585 91.5547 140.456 90.8477 141.878 89.4941C142.655 88.7196 143.172 87.7568 143.429 86.659H139.295C139.166 86.9183 138.97 87.1102 138.778 87.302C138.197 87.8172 137.42 88.0765 136.647 88.0765C135.87 88.1405 135.161 87.8847 134.58 87.3695C133.87 86.7265 133.61 85.6962 133.546 84.4705H141.622V84.474ZM136.647 78.3562C137.424 78.2922 138.197 78.6155 138.778 79.1307C139.423 79.8377 139.811 80.804 139.811 81.7704H133.482C133.482 80.804 133.87 79.8377 134.515 79.1307C135.096 78.6155 135.87 78.2922 136.647 78.3562Z" fill="#16222D"/>
<path d="M172.499 84.474H174.566V83.1844C174.566 80.2853 174.178 78.4201 172.691 76.8747C171.334 75.5211 169.398 74.8141 167.46 74.878C165.521 74.8141 163.65 75.5211 162.292 76.8747C160.806 78.4201 160.417 80.2249 160.417 83.1844C160.417 86.1438 160.806 87.9486 162.292 89.4941C163.65 90.8477 165.521 91.5547 167.46 91.4908C169.398 91.5547 171.269 90.8477 172.691 89.4941C173.468 88.7196 173.985 87.7568 174.242 86.659H170.172C170.043 86.9183 169.847 87.1102 169.655 87.302C169.074 87.8172 168.297 88.0765 167.524 88.0765C166.747 88.1405 165.974 87.8847 165.393 87.3695C164.683 86.7265 164.423 85.6962 164.359 84.4705H172.499V84.474ZM167.524 78.3562C168.301 78.2922 169.074 78.6155 169.655 79.1307C170.3 79.8377 170.689 80.804 170.689 81.7704H164.359C164.359 80.804 164.683 79.8377 165.393 79.1307C165.974 78.6155 166.686 78.2922 167.524 78.3562Z" fill="#16222D"/>
<path d="M233.869 84.474H235.936C235.936 84.0868 236 83.6356 236 83.1844C236 80.2853 235.612 78.4201 234.126 76.8747C232.704 75.5211 230.833 74.8141 228.894 74.878C226.955 74.8141 225.084 75.5211 223.726 76.8747C222.24 78.4201 221.852 80.2249 221.852 83.1844C221.852 86.1438 222.24 87.9486 223.726 89.4941C225.084 90.8477 226.955 91.5547 228.894 91.4908C230.833 91.5547 232.704 90.8477 234.126 89.4941C234.902 88.7196 235.419 87.7568 235.676 86.659H231.542C231.413 86.9183 231.217 87.1102 231.025 87.302C230.444 87.8172 229.667 88.0765 228.894 88.0765C228.117 88.1405 227.343 87.8172 226.827 87.302C226.118 86.659 225.857 85.6287 225.793 84.403L233.869 84.474ZM228.894 78.3562C229.671 78.2922 230.444 78.6155 231.025 79.1307C231.67 79.8377 232.058 80.804 232.058 81.7704H225.729C225.729 80.804 226.118 79.8377 226.763 79.1307C227.343 78.6155 228.12 78.2922 228.894 78.3562Z" fill="#16222D"/>
<path d="M150.407 70.1135H146.337V91.3662H150.407V70.1135Z" fill="#16222D"/>
<path d="M157.966 70.1135H153.896V91.3662H157.966V70.1135Z" fill="#16222D"/>
<path d="M202.475 74.75C201.249 74.6861 200.148 75.0733 199.246 75.7803C198.537 76.4234 197.952 77.1979 197.503 78.0328V75.1337H193.369V91.3628H197.763V83.4401C197.699 82.5377 197.892 81.6353 198.28 80.8643C198.861 79.7061 200.023 79.191 201.769 79.191H202.478V74.75H202.475Z" fill="#16222D"/>
<path d="M87.9392 79.0666C89.01 79.0666 89.878 78.2013 89.878 77.1339C89.878 76.0665 89.01 75.2012 87.9392 75.2012C86.8685 75.2012 86.0005 76.0665 86.0005 77.1339C86.0005 78.2013 86.8685 79.0666 87.9392 79.0666Z" fill="#16222D"/>
<path d="M75.7936 91.7499C77.5414 91.7499 78.9583 90.3374 78.9583 88.595C78.9583 86.8527 77.5414 85.4402 75.7936 85.4402C74.0458 85.4402 72.6289 86.8527 72.6289 88.595C72.6289 90.3374 74.0458 91.7499 75.7936 91.7499Z" fill="#16222D"/>
<path d="M64.1647 79.7736C65.9125 79.7736 67.3294 78.3611 67.3294 76.6187C67.3294 74.8763 65.9125 73.4639 64.1647 73.4639C62.4169 73.4639 61 74.8763 61 76.6187C61 78.3611 62.4169 79.7736 64.1647 79.7736Z" fill="#16222D"/>
<path d="M75.6652 66.7633C76.7714 66.7633 77.6681 65.8694 77.6681 64.7667C77.6681 63.664 76.7714 62.77 75.6652 62.77C74.5591 62.77 73.6624 63.664 73.6624 64.7667C73.6624 65.8694 74.5591 66.7633 75.6652 66.7633Z" fill="#16222D"/>
<path d="M84.4503 69.9822C85.4127 69.9822 86.193 69.2044 86.193 68.2449C86.193 67.2854 85.4127 66.5076 84.4503 66.5076C83.4878 66.5076 82.7075 67.2854 82.7075 68.2449C82.7075 69.2044 83.4878 69.9822 84.4503 69.9822Z" fill="#16222D"/>
<path d="M67.137 71.2079C68.564 71.2079 69.7208 70.0547 69.7208 68.6322C69.7208 67.2096 68.564 66.0564 67.137 66.0564C65.71 66.0564 64.5532 67.2096 64.5532 68.6322C64.5532 70.0547 65.71 71.2079 67.137 71.2079Z" fill="#16222D"/>
<path d="M67.5255 88.4034C69.3816 88.4034 70.8862 86.9034 70.8862 85.0531C70.8862 83.2028 69.3816 81.7029 67.5255 81.7029C65.6694 81.7029 64.1648 83.2028 64.1648 85.0531C64.1648 86.9034 65.6694 88.4034 67.5255 88.4034Z" fill="#16222D"/>
<path d="M83.9976 88.1439C85.4246 88.1439 86.5814 86.9907 86.5814 85.5682C86.5814 84.1456 85.4246 82.9924 83.9976 82.9924C82.5706 82.9924 81.4138 84.1456 81.4138 85.5682C81.4138 86.9907 82.5706 88.1439 83.9976 88.1439Z" fill="#16222D"/>
<path d="M95.4946 64.1876L99.0478 62.8376L95.5587 61.5479L94.1403 57.75L92.7825 61.484L89.0369 62.8376L92.8466 64.2516L94.1403 67.7937L95.4946 64.1876Z" fill="#E75300"/>
</g>
<defs>
<clipPath id="clip0_12258_34822">
<rect width="175" height="34" fill="white" transform="translate(61 57.75)"/>
</clipPath>
</defs>
</svg>
