<svg width="400" height="300" viewBox="0 0 400 300" fill="none" xmlns="http://www.w3.org/2000/svg">
<path d="M208.964 216.401C241.95 216.401 268.69 189.636 268.69 156.621C268.69 123.605 241.95 96.8408 208.964 96.8408C175.978 96.8408 149.238 123.605 149.238 156.621C149.238 189.636 175.978 216.401 208.964 216.401Z" fill="#D4D7E2"/>
<path d="M209.002 174.349C218.684 174.349 226.533 166.5 226.533 156.818C226.533 147.136 218.684 139.287 209.002 139.287C199.32 139.287 191.471 147.136 191.471 156.818C191.471 166.5 199.32 174.349 209.002 174.349Z" fill="white"/>
<path d="M213.592 111.141C213.16 111.486 213.09 112.115 213.435 112.547L219.052 119.579C219.396 120.01 220.025 120.081 220.457 119.736C220.888 119.391 220.959 118.762 220.614 118.331L215.621 112.08L221.872 107.087C222.304 106.742 222.374 106.113 222.029 105.682C221.685 105.25 221.055 105.18 220.624 105.524L213.592 111.141ZM209.188 200.283C208.636 200.283 208.188 200.731 208.188 201.283C208.188 201.836 208.636 202.283 209.188 202.283V200.283ZM214.105 112.916C235.967 115.362 252.965 133.928 252.965 156.466H254.965C254.965 132.9 237.192 113.487 214.327 110.929L214.105 112.916ZM252.965 156.466C252.965 180.667 233.366 200.283 209.188 200.283V202.283C234.472 202.283 254.965 181.77 254.965 156.466H252.965Z" fill="#293972"/>
<path d="M163.897 152.044C164.241 152.475 164.871 152.546 165.302 152.201L172.334 146.584C172.766 146.24 172.836 145.61 172.492 145.179C172.147 144.747 171.518 144.677 171.086 145.022L164.835 150.014L159.843 143.764C159.498 143.332 158.869 143.262 158.437 143.606C158.006 143.951 157.935 144.58 158.28 145.012L163.897 152.044ZM184.702 120.123C185.16 119.814 185.28 119.192 184.971 118.735C184.661 118.277 184.04 118.157 183.582 118.466L184.702 120.123ZM165.672 151.531C167.134 138.464 174.334 127.133 184.702 120.123L183.582 118.466C172.745 125.794 165.214 137.641 163.684 151.309L165.672 151.531Z" fill="#293972"/>
<path d="M310.468 156.62C310.468 212.732 265.024 258.217 208.964 258.217" stroke="#FF5300" stroke-width="2" stroke-miterlimit="10" stroke-linecap="round" stroke-linejoin="round"/>
<path d="M158.295 206.562C130.574 178.386 130.918 133.653 159.061 105.907C187.204 78.1604 231.903 78.5048 259.625 106.673C286.16 133.639 286.981 175.772 262.328 203.666" stroke="#293972" stroke-width="2" stroke-miterlimit="10" stroke-linecap="round" stroke-linejoin="round"/>
<path d="M197.45 7.29289C197.06 7.68342 197.06 8.31658 197.45 8.70711L203.814 15.0711C204.205 15.4616 204.838 15.4616 205.228 15.0711C205.619 14.6805 205.619 14.0474 205.228 13.6569L199.572 8L205.228 2.34315C205.619 1.95262 205.619 1.31946 205.228 0.928932C204.838 0.538408 204.205 0.538408 203.814 0.928932L197.45 7.29289ZM243.805 24.1152L244.786 23.9192L244.786 23.9191L243.805 24.1152ZM248.369 46.9561L247.389 47.152C247.455 47.4861 247.688 47.7633 248.005 47.8874L248.369 46.9561ZM256.514 50.3857L256.096 51.2938C256.407 51.4374 256.77 51.4115 257.058 51.2253L256.514 50.3857ZM275.055 39.5784C275.518 39.2784 275.651 38.6593 275.351 38.1956C275.051 37.7319 274.432 37.5993 273.968 37.8994L275.055 39.5784ZM198.157 9H224.798V7H198.157V9ZM224.798 9C233.442 9 241.045 15.4103 242.825 24.3112L244.786 23.9191C242.83 14.1397 234.452 7 224.798 7V9ZM242.825 24.3111L247.389 47.152L249.35 46.7601L244.786 23.9192L242.825 24.3111ZM248.005 47.8874C250.726 48.9516 253.438 50.0682 256.096 51.2938L256.933 49.4776C254.226 48.2295 251.475 47.0971 248.733 46.0248L248.005 47.8874ZM257.058 51.2253L275.055 39.5784L273.968 37.8994L255.971 49.5462L257.058 51.2253Z" fill="#293972"/>
<path d="M173.259 278.816L169.579 259.89C167.311 259.011 165.156 258.055 163.035 257.114C162.691 256.959 162.354 256.811 162.017 256.664L142.42 270.193L141.682 270.558C133.151 274.831 123.489 273.074 117.774 266.341L95.6274 244.99C88.7953 238.152 87.9106 227.681 93.4717 219.95L106.195 200.848C104.959 198.163 103.836 195.429 102.768 192.695L79.948 188.127C70.6163 186.258 63.8474 178.26 63.8474 169.102V137.392" stroke="#FF5300" stroke-width="2" stroke-miterlimit="10" stroke-linecap="round" stroke-linejoin="round"/>
<path d="M286.621 65.1705C286.729 64.6289 286.377 64.1022 285.836 63.9942L277.01 62.2334C276.468 62.1253 275.941 62.4768 275.833 63.0184C275.725 63.56 276.077 64.0867 276.618 64.1947L284.464 65.7599L282.899 73.6053C282.791 74.1469 283.142 74.6735 283.684 74.7816C284.225 74.8896 284.752 74.5382 284.86 73.9966L286.621 65.1705ZM261.345 81.1884L260.791 82.0204C261.127 82.2445 261.564 82.2444 261.9 82.0202L261.345 81.1884ZM251.554 74.6611L252.109 73.8291C252.083 73.8117 252.056 73.7955 252.028 73.7806L251.554 74.6611ZM234.39 65.6914C233.873 65.4971 233.296 65.7587 233.102 66.2757C232.907 66.7927 233.169 67.3693 233.686 67.5636L234.39 65.6914ZM285.085 64.1431L260.79 80.3566L261.9 82.0202L286.195 65.8066L285.085 64.1431ZM261.9 80.3563L252.109 73.8291L251 75.4932L260.791 82.0204L261.9 80.3563ZM252.028 73.7806C244.92 69.9531 240.831 68.1116 234.39 65.6914L233.686 67.5636C240.038 69.9504 244.046 71.754 251.08 75.5416L252.028 73.7806Z" fill="#FF5300"/>
<path d="M334.442 113.961C333.945 113.719 333.347 113.927 333.106 114.424L329.175 122.52C328.934 123.017 329.141 123.615 329.638 123.856C330.134 124.097 330.733 123.89 330.974 123.393L334.468 116.197L341.665 119.691C342.161 119.932 342.76 119.725 343.001 119.228C343.242 118.731 343.035 118.133 342.538 117.891L334.442 113.961ZM212.123 285.758C211.571 285.758 211.123 286.205 211.123 286.758C211.123 287.31 211.571 287.758 212.123 287.758V285.758ZM193.13 287.758C193.682 287.758 194.13 287.31 194.13 286.758C194.13 286.205 193.682 285.758 193.13 285.758V287.758ZM185.624 280.917L184.642 281.108C184.646 281.125 184.649 281.143 184.654 281.16L185.624 280.917ZM179.789 250.88L180.77 250.689C180.696 250.308 180.408 250.004 180.031 249.91L179.789 250.88ZM160.613 243.367L160.965 242.431C160.658 242.315 160.314 242.358 160.045 242.544L160.613 243.367ZM136.437 260.058L136.884 260.953C136.926 260.932 136.967 260.908 137.005 260.881L136.437 260.058ZM126.431 258.393L127.231 257.792C127.199 257.75 127.164 257.71 127.125 257.673L126.431 258.393ZM103.92 236.697L103.212 237.404C103.217 237.409 103.221 237.413 103.226 237.417L103.92 236.697ZM103.084 226.682L103.885 227.282C103.896 227.267 103.906 227.252 103.917 227.237L103.084 226.682ZM119.761 201.649L120.593 202.203C120.803 201.888 120.817 201.482 120.629 201.153L119.761 201.649ZM111.426 182.455L112.363 182.105C112.241 181.781 111.961 181.543 111.622 181.475L111.426 182.455ZM82.2511 176.615L82.0545 177.596L82.0548 177.596L82.2511 176.615ZM82.2511 129.879L82.0548 128.899L82.0545 128.899L82.2511 129.879ZM111.426 124.039L111.622 125.019C111.961 124.951 112.241 124.713 112.363 124.389L111.426 124.039ZM119.761 104.845L120.655 105.292C120.818 104.966 120.791 104.578 120.584 104.278L119.761 104.845ZM103.084 80.6481L103.908 80.0806C103.9 80.0698 103.893 80.0592 103.885 80.0487L103.084 80.6481ZM103.92 70.6332L104.627 71.34L104.627 71.34L103.92 70.6332ZM126.431 48.1015L125.724 47.3947L125.724 47.3947L126.431 48.1015ZM136.437 47.2652L135.837 48.0651C135.848 48.073 135.858 48.0806 135.869 48.0881L136.437 47.2652ZM160.613 63.9566L160.045 64.7795C160.345 64.9868 160.734 65.0141 161.06 64.8509L160.613 63.9566ZM179.789 55.6144L180.14 56.5507C180.464 56.4293 180.702 56.1493 180.769 55.8103L179.789 55.6144ZM185.624 26.4132L184.643 26.2169L184.643 26.2172L185.624 26.4132ZM232.318 26.4132L233.298 26.2172L233.298 26.2169L232.318 26.4132ZM238.153 55.6144L237.172 55.8103C237.24 56.1493 237.478 56.4293 237.802 56.5507L238.153 55.6144ZM257.329 63.9566L256.832 64.8246C257.161 65.0129 257.569 64.9989 257.884 64.7884L257.329 63.9566ZM282.34 47.2652L282.895 48.0969C282.91 48.0867 282.925 48.0761 282.94 48.0651L282.34 47.2652ZM292.346 48.1015L293.066 47.4082C293.062 47.4037 293.058 47.3992 293.053 47.3947L292.346 48.1015ZM313.301 71.3265C313.684 71.7245 314.317 71.7367 314.715 71.3539C315.113 70.971 315.125 70.3379 314.742 69.9399L313.301 71.3265ZM315.589 233.446C315.264 233.892 315.361 234.517 315.807 234.843C316.253 235.169 316.879 235.071 317.205 234.625L315.589 233.446ZM303.934 250.085C304.325 249.695 304.327 249.062 303.938 248.67C303.548 248.279 302.915 248.277 302.523 248.667L303.934 250.085ZM333.06 115.188C337.651 128.443 340.146 142.719 340.146 157.618H342.146C342.146 142.494 339.613 127.998 334.95 114.533L333.06 115.188ZM193.13 285.758C190.242 285.758 187.315 283.556 186.594 280.675L184.654 281.16C185.603 284.955 189.348 287.758 193.13 287.758V285.758ZM186.605 280.727L180.77 250.689L178.807 251.07L184.642 281.108L186.605 280.727ZM180.031 249.91C176.778 249.097 173.712 247.873 170.599 246.522C167.506 245.18 164.331 243.697 160.965 242.431L160.261 244.303C163.565 245.546 166.643 246.986 169.803 248.357C172.942 249.719 176.129 250.997 179.547 251.85L180.031 249.91ZM160.045 242.544L135.869 259.235L137.005 260.881L161.181 244.19L160.045 242.544ZM135.99 259.164C132.897 260.709 129.33 260.589 127.231 257.792L125.631 258.993C128.532 262.859 133.307 262.739 136.884 260.953L135.99 259.164ZM127.125 257.673L104.614 235.977L103.226 237.417L125.737 259.113L127.125 257.673ZM104.627 235.99C102.42 233.781 101.731 230.159 103.885 227.282L102.284 226.083C99.4387 229.883 100.42 234.609 103.212 237.404L104.627 235.99ZM103.917 227.237L120.593 202.203L118.929 201.094L102.252 226.128L103.917 227.237ZM120.629 201.153C117.341 195.395 114.868 188.797 112.363 182.105L110.49 182.806C112.983 189.466 115.51 196.222 118.892 202.145L120.629 201.153ZM111.622 181.475L82.4474 175.635L82.0548 177.596L111.23 183.436L111.622 181.475ZM82.4477 175.635C78.7182 174.887 76.5806 171.938 76.5806 169.102H74.5806C74.5806 172.943 77.4424 176.671 82.0545 177.596L82.4477 175.635ZM76.5806 169.102V137.392H74.5806V169.102H76.5806ZM76.5806 137.392C76.5806 134.556 78.7182 131.607 82.4477 130.86L82.0545 128.899C77.4424 129.823 74.5806 133.551 74.5806 137.392H76.5806ZM82.4474 130.86L111.622 125.019L111.23 123.058L82.0548 128.899L82.4474 130.86ZM112.363 124.389C114.851 117.743 117.337 111.935 120.655 105.292L118.866 104.398C115.514 111.109 113 116.982 110.49 123.688L112.363 124.389ZM120.584 104.278L103.908 80.0806L102.261 81.2155L118.937 105.413L120.584 104.278ZM103.885 80.0487C101.731 77.1717 102.42 73.5493 104.627 71.34L103.212 69.9264C100.42 72.721 99.4387 77.4478 102.284 81.2474L103.885 80.0487ZM104.627 71.34L127.139 48.8083L125.724 47.3947L103.212 69.9264L104.627 71.34ZM127.139 48.8083C129.346 46.5991 132.964 45.9096 135.837 48.0651L137.037 46.4652C133.24 43.6168 128.516 44.5999 125.724 47.3947L127.139 48.8083ZM135.869 48.0881L160.045 64.7795L161.181 63.1337L137.005 46.4422L135.869 48.0881ZM161.06 64.8509C167.697 61.5296 173.499 59.0415 180.14 56.5507L179.438 54.6781C172.737 57.1913 166.87 59.707 160.165 63.0623L161.06 64.8509ZM180.769 55.8103L186.604 26.6091L184.643 26.2172L178.808 55.4185L180.769 55.8103ZM186.604 26.6094C187.352 22.875 190.298 20.7366 193.13 20.7366V18.7366C189.291 18.7366 185.567 21.6021 184.643 26.2169L186.604 26.6094ZM193.13 20.7366H224.812V18.7366H193.13V20.7366ZM224.812 20.7366C227.643 20.7366 230.59 22.875 231.337 26.6094L233.298 26.2169C232.375 21.6021 228.651 18.7366 224.812 18.7366V20.7366ZM231.337 26.6091L237.172 55.8103L239.133 55.4185L233.298 26.2172L231.337 26.6091ZM237.802 56.5507C244.488 59.0587 251.08 61.5336 256.832 64.8246L257.825 63.0886C251.908 59.7031 245.158 57.174 238.504 54.6781L237.802 56.5507ZM257.884 64.7884L282.895 48.0969L281.785 46.4334L256.774 63.1248L257.884 64.7884ZM282.94 48.0651C285.813 45.9096 289.431 46.5991 291.638 48.8083L293.053 47.3947C290.261 44.5999 285.537 43.6168 281.74 46.4652L282.94 48.0651ZM291.625 48.7948L313.301 71.3265L314.742 69.9399L293.066 47.4082L291.625 48.7948ZM340.146 157.618C340.146 186.084 331.05 212.268 315.589 233.446L317.205 234.625C332.91 213.112 342.146 186.517 342.146 157.618H340.146ZM302.523 248.667C279.432 271.635 247.544 285.758 212.123 285.758V287.758C248.088 287.758 280.478 273.415 303.934 250.085L302.523 248.667Z" fill="#293972"/>
<path d="M320.091 82.8202C323.095 82.8202 325.53 80.3849 325.53 77.3808C325.53 74.3767 323.095 71.9414 320.091 71.9414C317.087 71.9414 314.651 74.3767 314.651 77.3808C314.651 80.3849 317.087 82.8202 320.091 82.8202Z" stroke="#293972" stroke-width="2" stroke-miterlimit="10" stroke-linecap="round" stroke-linejoin="round"/>
<path d="M166.7 219.893C169.704 219.893 172.139 217.458 172.139 214.454C172.139 211.449 169.704 209.014 166.7 209.014C163.696 209.014 161.261 211.449 161.261 214.454C161.261 217.458 163.696 219.893 166.7 219.893Z" stroke="#293972" stroke-width="2" stroke-miterlimit="10" stroke-linecap="round" stroke-linejoin="round"/>
<path d="M64.4394 131.775C67.4435 131.775 69.8788 129.339 69.8788 126.335C69.8788 123.331 67.4435 120.896 64.4394 120.896C61.4353 120.896 59 123.331 59 126.335C59 129.339 61.4353 131.775 64.4394 131.775Z" stroke="#FF5300" stroke-width="2" stroke-miterlimit="10" stroke-linecap="round" stroke-linejoin="round"/>
<path d="M310.3 152.444C313.304 152.444 315.739 150.009 315.739 147.005C315.739 144.001 313.304 141.565 310.3 141.565C307.296 141.565 304.86 144.001 304.86 147.005C304.86 150.009 307.296 152.444 310.3 152.444Z" stroke="#FF5300" stroke-width="2" stroke-miterlimit="10" stroke-linecap="round" stroke-linejoin="round"/>
<path d="M224.358 68.6779C227.362 68.6779 229.797 66.2426 229.797 63.2385C229.797 60.2344 227.362 57.7991 224.358 57.7991C221.353 57.7991 218.918 60.2344 218.918 63.2385C218.918 66.2426 221.353 68.6779 224.358 68.6779Z" stroke="#FF5300" stroke-width="2" stroke-miterlimit="10" stroke-linecap="round" stroke-linejoin="round"/>
<path d="M202.6 291.693C205.604 291.693 208.039 289.257 208.039 286.253C208.039 283.249 205.604 280.814 202.6 280.814C199.596 280.814 197.161 283.249 197.161 286.253C197.161 289.257 199.596 291.693 202.6 291.693Z" stroke="#293972" stroke-width="2" stroke-miterlimit="10" stroke-linecap="round" stroke-linejoin="round"/>
<path d="M310.3 247.09C313.304 247.09 315.739 244.654 315.739 241.65C315.739 238.646 313.304 236.211 310.3 236.211C307.296 236.211 304.86 238.646 304.86 241.65C304.86 244.654 307.296 247.09 310.3 247.09Z" stroke="#293972" stroke-width="2" stroke-miterlimit="10" stroke-linecap="round" stroke-linejoin="round"/>
<path d="M283.103 39.305C286.107 39.305 288.542 36.8697 288.542 33.8657C288.542 30.8616 286.107 28.4263 283.103 28.4263C280.099 28.4263 277.664 30.8616 277.664 33.8657C277.664 36.8697 280.099 39.305 283.103 39.305Z" stroke="#293972" stroke-width="2" stroke-miterlimit="10" stroke-linecap="round" stroke-linejoin="round"/>
</svg>
