<svg width="400" height="300" viewBox="0 0 400 300" fill="none" xmlns="http://www.w3.org/2000/svg">
<path d="M127 102.647L200 65L273 102.647V196.353L200 234L127 196.353V102.647Z" fill="#D4D7E2"/>
<path d="M200 70C202.761 70 205 67.7614 205 65C205 62.2386 202.761 60 200 60C197.239 60 195 62.2386 195 65C195 67.7614 197.239 70 200 70Z" stroke="#293972" stroke-width="2"/>
<path d="M200 44C202.761 44 205 41.7614 205 39C205 36.2386 202.761 34 200 34C197.239 34 195 36.2386 195 39C195 41.7614 197.239 44 200 44Z" stroke="#293972" stroke-width="2"/>
<path d="M200 16C202.761 16 205 13.7614 205 11C205 8.23859 202.761 6 200 6C197.239 6 195 8.23859 195 11C195 13.7614 197.239 16 200 16Z" stroke="#293972" stroke-width="2"/>
<path d="M200 96C202.761 96 205 93.7614 205 91C205 88.2386 202.761 86 200 86C197.239 86 195 88.2386 195 91C195 93.7614 197.239 96 200 96Z" fill="#293972" stroke="#293972" stroke-width="2"/>
<path d="M200 213C202.761 213 205 210.761 205 208C205 205.239 202.761 203 200 203C197.239 203 195 205.239 195 208C195 210.761 197.239 213 200 213Z" fill="#293972" stroke="#293972" stroke-width="2"/>
<path d="M200 265C202.761 265 205 262.761 205 260C205 257.239 202.761 255 200 255C197.239 255 195 257.239 195 260C195 262.761 197.239 265 200 265Z" stroke="#293972" stroke-width="2"/>
<path d="M200 294C202.761 294 205 291.761 205 289C205 286.239 202.761 284 200 284C197.239 284 195 286.239 195 289C195 291.761 197.239 294 200 294Z" stroke="#293972" stroke-width="2"/>
<path d="M127 108C129.761 108 132 105.761 132 103C132 100.239 129.761 98 127 98C124.239 98 122 100.239 122 103C122 105.761 124.239 108 127 108Z" stroke="#293972" stroke-width="2"/>
<path d="M149 126C151.761 126 154 123.761 154 121C154 118.239 151.761 116 149 116C146.239 116 144 118.239 144 121C144 123.761 146.239 126 149 126Z" fill="#293972" stroke="#293972" stroke-width="2"/>
<path d="M103 126C105.761 126 108 123.761 108 121C108 118.239 105.761 116 103 116C100.239 116 98 118.239 98 121C98 123.761 100.239 126 103 126Z" stroke="#293972" stroke-width="2"/>
<path d="M103 95C105.761 95 108 92.7614 108 90C108 87.2386 105.761 85 103 85C100.239 85 98 87.2386 98 90C98 92.7614 100.239 95 103 95Z" stroke="#293972" stroke-width="2"/>
<path d="M297 126C299.761 126 302 123.761 302 121C302 118.239 299.761 116 297 116C294.239 116 292 118.239 292 121C292 123.761 294.239 126 297 126Z" stroke="#293972" stroke-width="2"/>
<path d="M297 95C299.761 95 302 92.7614 302 90C302 87.2386 299.761 85 297 85C294.239 85 292 87.2386 292 90C292 92.7614 294.239 95 297 95Z" stroke="#293972" stroke-width="2"/>
<path d="M149 184C151.761 184 154 181.761 154 179C154 176.239 151.761 174 149 174C146.239 174 144 176.239 144 179C144 181.761 146.239 184 149 184Z" fill="#293972" stroke="#293972" stroke-width="2"/>
<path d="M149 240C151.761 240 154 237.761 154 235C154 232.239 151.761 230 149 230C146.239 230 144 232.239 144 235C144 237.761 146.239 240 149 240Z" stroke="#293972" stroke-width="2"/>
<path d="M149 269C151.761 269 154 266.761 154 264C154 261.239 151.761 259 149 259C146.239 259 144 261.239 144 264C144 266.761 146.239 269 149 269Z" stroke="#293972" stroke-width="2"/>
<path d="M149 36C151.761 36 154 33.7614 154 31C154 28.2386 151.761 26 149 26C146.239 26 144 28.2386 144 31C144 33.7614 146.239 36 149 36Z" stroke="#293972" stroke-width="2"/>
<path d="M149 67C151.761 67 154 64.7614 154 62C154 59.2386 151.761 57 149 57C146.239 57 144 59.2386 144 62C144 64.7614 146.239 67 149 67Z" stroke="#293972" stroke-width="2"/>
<path d="M103 184C105.761 184 108 181.761 108 179C108 176.239 105.761 174 103 174C100.239 174 98 176.239 98 179C98 181.761 100.239 184 103 184Z" stroke="#293972" stroke-width="2"/>
<path d="M297 184C299.761 184 302 181.761 302 179C302 176.239 299.761 174 297 174C294.239 174 292 176.239 292 179C292 181.761 294.239 184 297 184Z" stroke="#293972" stroke-width="2"/>
<path d="M149 155C151.761 155 154 152.761 154 150C154 147.239 151.761 145 149 145C146.239 145 144 147.239 144 150C144 152.761 146.239 155 149 155Z" fill="#293972" stroke="#293972" stroke-width="2"/>
<path d="M103 155C105.761 155 108 152.761 108 150C108 147.239 105.761 145 103 145C100.239 145 98 147.239 98 150C98 152.761 100.239 155 103 155Z" stroke="#293972" stroke-width="2"/>
<path d="M103 213C105.761 213 108 210.761 108 208C108 205.239 105.761 203 103 203C100.239 203 98 205.239 98 208C98 210.761 100.239 213 103 213Z" stroke="#293972" stroke-width="2"/>
<path d="M103 242C105.761 242 108 239.761 108 237C108 234.239 105.761 232 103 232C100.239 232 98 234.239 98 237C98 239.761 100.239 242 103 242Z" stroke="#293972" stroke-width="2"/>
<path d="M103 63C105.761 63 108 60.7614 108 58C108 55.2386 105.761 53 103 53C100.239 53 98 55.2386 98 58C98 60.7614 100.239 63 103 63Z" stroke="#293972" stroke-width="2"/>
<path d="M297 155C299.761 155 302 152.761 302 150C302 147.239 299.761 145 297 145C294.239 145 292 147.239 292 150C292 152.761 294.239 155 297 155Z" stroke="#293972" stroke-width="2"/>
<path d="M297 213C299.761 213 302 210.761 302 208C302 205.239 299.761 203 297 203C294.239 203 292 205.239 292 208C292 210.761 294.239 213 297 213Z" stroke="#293972" stroke-width="2"/>
<path d="M297 242C299.761 242 302 239.761 302 237C302 234.239 299.761 232 297 232C294.239 232 292 234.239 292 237C292 239.761 294.239 242 297 242Z" stroke="#293972" stroke-width="2"/>
<path d="M297 63C299.761 63 302 60.7614 302 58C302 55.2386 299.761 53 297 53C294.239 53 292 55.2386 292 58C292 60.7614 294.239 63 297 63Z" stroke="#293972" stroke-width="2"/>
<path d="M251 126C253.761 126 256 123.761 256 121C256 118.239 253.761 116 251 116C248.239 116 246 118.239 246 121C246 123.761 248.239 126 251 126Z" fill="#293972" stroke="#293972" stroke-width="2"/>
<path d="M251 184C253.761 184 256 181.761 256 179C256 176.239 253.761 174 251 174C248.239 174 246 176.239 246 179C246 181.761 248.239 184 251 184Z" fill="#293972" stroke="#293972" stroke-width="2"/>
<path d="M251 240C253.761 240 256 237.761 256 235C256 232.239 253.761 230 251 230C248.239 230 246 232.239 246 235C246 237.761 248.239 240 251 240Z" stroke="#293972" stroke-width="2"/>
<path d="M251 269C253.761 269 256 266.761 256 264C256 261.239 253.761 259 251 259C248.239 259 246 261.239 246 264C246 266.761 248.239 269 251 269Z" stroke="#293972" stroke-width="2"/>
<path d="M251 36C253.761 36 256 33.7614 256 31C256 28.2386 253.761 26 251 26C248.239 26 246 28.2386 246 31C246 33.7614 248.239 36 251 36Z" stroke="#293972" stroke-width="2"/>
<path d="M251 67C253.761 67 256 64.7614 256 62C256 59.2386 253.761 57 251 57C248.239 57 246 59.2386 246 62C246 64.7614 248.239 67 251 67Z" stroke="#293972" stroke-width="2"/>
<path d="M251 155C253.761 155 256 152.761 256 150C256 147.239 253.761 145 251 145C248.239 145 246 147.239 246 150C246 152.761 248.239 155 251 155Z" fill="#293972" stroke="#293972" stroke-width="2"/>
<path d="M127 200C129.761 200 132 197.761 132 195C132 192.239 129.761 190 127 190C124.239 190 122 192.239 122 195C122 197.761 124.239 200 127 200Z" stroke="#293972" stroke-width="2"/>
<path d="M149 213C151.761 213 154 210.761 154 208C154 205.239 151.761 203 149 203C146.239 203 144 205.239 144 208C144 210.761 146.239 213 149 213Z" stroke="#293972" stroke-width="2"/>
<path d="M149 96C151.761 96 154 93.7614 154 91C154 88.2386 151.761 86 149 86C146.239 86 144 88.2386 144 91C144 93.7614 146.239 96 149 96Z" stroke="#293972" stroke-width="2"/>
<path d="M251 213C253.761 213 256 210.761 256 208C256 205.239 253.761 203 251 203C248.239 203 246 205.239 246 208C246 210.761 248.239 213 251 213Z" stroke="#293972" stroke-width="2"/>
<path d="M251 96C253.761 96 256 93.7614 256 91C256 88.2386 253.761 86 251 86C248.239 86 246 88.2386 246 91C246 93.7614 248.239 96 251 96Z" stroke="#293972" stroke-width="2"/>
<path d="M174 225C176.761 225 179 222.761 179 220C179 217.239 176.761 215 174 215C171.239 215 169 217.239 169 220C169 222.761 171.239 225 174 225Z" stroke="#293972" stroke-width="2"/>
<path d="M173 84C175.761 84 178 81.7614 178 79C178 76.2386 175.761 74 173 74C170.239 74 168 76.2386 168 79C168 81.7614 170.239 84 173 84Z" stroke="#293972" stroke-width="2"/>
<path d="M173 109C175.761 109 178 106.761 178 104C178 101.239 175.761 99 173 99C170.239 99 168 101.239 168 104C168 106.761 170.239 109 173 109Z" fill="#293972" stroke="#293972" stroke-width="2"/>
<path d="M200 177C214.912 177 227 164.912 227 150C227 135.088 214.912 123 200 123C185.088 123 173 135.088 173 150C173 164.912 185.088 177 200 177Z" fill="#293972"/>
<path d="M173 197C175.761 197 178 194.761 178 192C178 189.239 175.761 187 173 187C170.239 187 168 189.239 168 192C168 194.761 170.239 197 173 197Z" fill="#293972" stroke="#293972" stroke-width="2"/>
<path d="M173 252C175.761 252 178 249.761 178 247C178 244.239 175.761 242 173 242C170.239 242 168 244.239 168 247C168 249.761 170.239 252 173 252Z" stroke="#293972" stroke-width="2"/>
<path d="M173 281C175.761 281 178 278.761 178 276C178 273.239 175.761 271 173 271C170.239 271 168 273.239 168 276C168 278.761 170.239 281 173 281Z" stroke="#293972" stroke-width="2"/>
<path d="M173 26C175.761 26 178 23.7614 178 21C178 18.2386 175.761 16 173 16C170.239 16 168 18.2386 168 21C168 23.7614 170.239 26 173 26Z" stroke="#293972" stroke-width="2"/>
<path d="M173 55C175.761 55 178 52.7614 178 50C178 47.2386 175.761 45 173 45C170.239 45 168 47.2386 168 50C168 52.7614 170.239 55 173 55Z" stroke="#293972" stroke-width="2"/>
<path d="M227 109C229.761 109 232 106.761 232 104C232 101.239 229.761 99 227 99C224.239 99 222 101.239 222 104C222 106.761 224.239 109 227 109Z" fill="#293972" stroke="#293972" stroke-width="2"/>
<path d="M227 197C229.761 197 232 194.761 232 192C232 189.239 229.761 187 227 187C224.239 187 222 189.239 222 192C222 194.761 224.239 197 227 197Z" fill="#293972" stroke="#293972" stroke-width="2"/>
<path d="M227 252C229.761 252 232 249.761 232 247C232 244.239 229.761 242 227 242C224.239 242 222 244.239 222 247C222 249.761 224.239 252 227 252Z" stroke="#293972" stroke-width="2"/>
<path d="M227 281C229.761 281 232 278.761 232 276C232 273.239 229.761 271 227 271C224.239 271 222 273.239 222 276C222 278.761 224.239 281 227 281Z" stroke="#293972" stroke-width="2"/>
<path d="M227 26C229.761 26 232 23.7614 232 21C232 18.2386 229.761 16 227 16C224.239 16 222 18.2386 222 21C222 23.7614 224.239 26 227 26Z" stroke="#293972" stroke-width="2"/>
<path d="M227 55C229.761 55 232 52.7614 232 50C232 47.2386 229.761 45 227 45C224.239 45 222 47.2386 222 50C222 52.7614 224.239 55 227 55Z" stroke="#293972" stroke-width="2"/>
<path d="M227 225C229.761 225 232 222.761 232 220C232 217.239 229.761 215 227 215C224.239 215 222 217.239 222 220C222 222.761 224.239 225 227 225Z" stroke="#293972" stroke-width="2"/>
<path d="M227 84C229.761 84 232 81.7614 232 79C232 76.2386 229.761 74 227 74C224.239 74 222 76.2386 222 79C222 81.7614 224.239 84 227 84Z" stroke="#293972" stroke-width="2"/>
<path d="M127 169C129.761 169 132 166.761 132 164C132 161.239 129.761 159 127 159C124.239 159 122 161.239 122 164C122 166.761 124.239 169 127 169Z" stroke="#293972" stroke-width="2"/>
<path d="M127 227C129.761 227 132 224.761 132 222C132 219.239 129.761 217 127 217C124.239 217 122 219.239 122 222C122 224.761 124.239 227 127 227Z" stroke="#293972" stroke-width="2"/>
<path d="M80 227C82.7615 227 85 224.761 85 222C85 219.239 82.7615 217 80 217C77.2385 217 75 219.239 75 222C75 224.761 77.2385 227 80 227Z" stroke="#293972" stroke-width="2"/>
<path d="M80 79C82.7615 79 85 76.7614 85 74C85 71.2386 82.7615 69 80 69C77.2385 69 75 71.2386 75 74C75 76.7614 77.2385 79 80 79Z" stroke="#293972" stroke-width="2"/>
<path d="M320 227C322.761 227 325 224.761 325 222C325 219.239 322.761 217 320 217C317.239 217 315 219.239 315 222C315 224.761 317.239 227 320 227Z" stroke="#293972" stroke-width="2"/>
<path d="M320 79C322.761 79 325 76.7614 325 74C325 71.2386 322.761 69 320 69C317.239 69 315 71.2386 315 74C315 76.7614 317.239 79 320 79Z" stroke="#293972" stroke-width="2"/>
<path d="M127 256C129.761 256 132 253.761 132 251C132 248.239 129.761 246 127 246C124.239 246 122 248.239 122 251C122 253.761 124.239 256 127 256Z" stroke="#293972" stroke-width="2"/>
<path d="M127 49C129.761 49 132 46.7614 132 44C132 41.2386 129.761 39 127 39C124.239 39 122 41.2386 122 44C122 46.7614 124.239 49 127 49Z" stroke="#293972" stroke-width="2"/>
<path d="M127 79C129.761 79 132 76.7614 132 74C132 71.2386 129.761 69 127 69C124.239 69 122 71.2386 122 74C122 76.7614 124.239 79 127 79Z" stroke="#293972" stroke-width="2"/>
<path d="M127 138C129.761 138 132 135.761 132 133C132 130.239 129.761 128 127 128C124.239 128 122 130.239 122 133C122 135.761 124.239 138 127 138Z" stroke="#293972" stroke-width="2"/>
<path d="M273 108C275.761 108 278 105.761 278 103C278 100.239 275.761 98 273 98C270.239 98 268 100.239 268 103C268 105.761 270.239 108 273 108Z" stroke="#293972" stroke-width="2"/>
<path d="M321 108C323.761 108 326 105.761 326 103C326 100.239 323.761 98 321 98C318.239 98 316 100.239 316 103C316 105.761 318.239 108 321 108Z" stroke="#293972" stroke-width="2"/>
<path d="M80 108C82.7615 108 85 105.761 85 103C85 100.239 82.7615 98 80 98C77.2385 98 75 100.239 75 103C75 105.761 77.2385 108 80 108Z" stroke="#293972" stroke-width="2"/>
<path d="M273 200C275.761 200 278 197.761 278 195C278 192.239 275.761 190 273 190C270.239 190 268 192.239 268 195C268 197.761 270.239 200 273 200Z" stroke="#293972" stroke-width="2"/>
<path d="M321 200C323.761 200 326 197.761 326 195C326 192.239 323.761 190 321 190C318.239 190 316 192.239 316 195C316 197.761 318.239 200 321 200Z" stroke="#293972" stroke-width="2"/>
<path d="M80 200C82.7615 200 85 197.761 85 195C85 192.239 82.7615 190 80 190C77.2385 190 75 192.239 75 195C75 197.761 77.2385 200 80 200Z" stroke="#293972" stroke-width="2"/>
<path d="M273 169C275.761 169 278 166.761 278 164C278 161.239 275.761 159 273 159C270.239 159 268 161.239 268 164C268 166.761 270.239 169 273 169Z" stroke="#293972" stroke-width="2"/>
<path d="M321 169C323.761 169 326 166.761 326 164C326 161.239 323.761 159 321 159C318.239 159 316 161.239 316 164C316 166.761 318.239 169 321 169Z" stroke="#293972" stroke-width="2"/>
<path d="M80 169C82.7615 169 85 166.761 85 164C85 161.239 82.7615 159 80 159C77.2385 159 75 161.239 75 164C75 166.761 77.2385 169 80 169Z" stroke="#293972" stroke-width="2"/>
<path d="M273 227C275.761 227 278 224.761 278 222C278 219.239 275.761 217 273 217C270.239 217 268 219.239 268 222C268 224.761 270.239 227 273 227Z" stroke="#293972" stroke-width="2"/>
<path d="M273 256C275.761 256 278 253.761 278 251C278 248.239 275.761 246 273 246C270.239 246 268 248.239 268 251C268 253.761 270.239 256 273 256Z" stroke="#293972" stroke-width="2"/>
<path d="M273 49C275.761 49 278 46.7614 278 44C278 41.2386 275.761 39 273 39C270.239 39 268 41.2386 268 44C268 46.7614 270.239 49 273 49Z" stroke="#293972" stroke-width="2"/>
<path d="M273 79C275.761 79 278 76.7614 278 74C278 71.2386 275.761 69 273 69C270.239 69 268 71.2386 268 74C268 76.7614 270.239 79 273 79Z" stroke="#293972" stroke-width="2"/>
<path d="M273 138C275.761 138 278 135.761 278 133C278 130.239 275.761 128 273 128C270.239 128 268 130.239 268 133C268 135.761 270.239 138 273 138Z" stroke="#293972" stroke-width="2"/>
<path d="M321 138C323.761 138 326 135.761 326 133C326 130.239 323.761 128 321 128C318.239 128 316 130.239 316 133C316 135.761 318.239 138 321 138Z" stroke="#293972" stroke-width="2"/>
<path d="M80 138C82.7615 138 85 135.761 85 133C85 130.239 82.7615 128 80 128C77.2385 128 75 130.239 75 133C75 135.761 77.2385 138 80 138Z" stroke="#293972" stroke-width="2"/>
<path d="M200 239C202.761 239 205 236.761 205 234C205 231.239 202.761 229 200 229C197.239 229 195 231.239 195 234C195 236.761 197.239 239 200 239Z" stroke="#293972" stroke-width="2"/>
</svg>
