<svg width="400" height="216" viewBox="0 0 400 216" fill="none" xmlns="http://www.w3.org/2000/svg">
<path d="M367.906 188.286L374.047 195.193L389.398 177.924" stroke="#FF5300" stroke-width="3.8377" stroke-miterlimit="10" stroke-linecap="square"/>
<path d="M290.193 109.629L296.333 116.537L311.684 99.2671" stroke="#FF5300" stroke-width="3.8377" stroke-miterlimit="10" stroke-linecap="square"/>
<path d="M349.677 33.8345L355.818 40.7423L371.168 23.4727" stroke="#FF5300" stroke-width="3.8377" stroke-miterlimit="10" stroke-linecap="square"/>
<rect x="11" y="14.8376" width="236.849" height="41.4326" fill="#F7F7F7"/>
<path d="M30.1464 39.5846V41.0813H25.12V39.5846H26.9036V35.2192H25.12V33.7724H26.6167C26.8329 33.7724 26.941 33.6768 26.941 33.4855V32.4752H28.5001V39.5846H30.1464ZM33.033 32.4752H34.6794V35.98H38.1218V32.4752H39.7682V41.0813H38.1218V37.4767H34.6794V41.0813H33.033V32.4752ZM44.6349 33.972V36.1172H47.9277V37.6139H44.6349V41.0813H43.0135V32.4752H48.3019V33.972H44.6349ZM52.8493 33.972V36.1172H56.142V37.6139H52.8493V41.0813H51.2278V32.4752H56.5162V33.972H52.8493ZM61.4752 37.0651C61.9658 36.508 62.2901 36.0923 62.4481 35.8179C62.6144 35.5352 62.6975 35.2234 62.6975 34.8824C62.6975 34.5997 62.5728 34.3711 62.3233 34.1965C62.0739 34.0135 61.7454 33.9221 61.338 33.9221C60.9472 33.9221 60.5606 34.0135 60.1781 34.1965C59.8039 34.3711 59.5129 34.5665 59.305 34.7827V33.0739C59.4879 32.891 59.7789 32.7247 60.1781 32.575C60.5772 32.4254 61.0345 32.3505 61.55 32.3505C62.3982 32.3505 63.0842 32.5626 63.608 32.9866C64.1319 33.4107 64.3938 33.9886 64.3938 34.7203C64.3938 35.161 64.3231 35.556 64.1817 35.9052C64.0487 36.2544 63.8699 36.5787 63.6454 36.8781C63.4209 37.1691 63.0925 37.5516 62.6601 38.0255L61.2507 39.5846H64.4561V41.0813H59.2676V39.5846L61.4752 37.0651ZM69.7453 41.206C69.1799 41.206 68.6976 41.1478 68.2985 41.0314C67.9077 40.915 67.5335 40.7487 67.1759 40.5325V38.8362C67.5168 39.0774 67.916 39.2811 68.3733 39.4474C68.8306 39.6054 69.2796 39.6844 69.7203 39.6844C70.1444 39.6844 70.4728 39.5971 70.7057 39.4225C70.9385 39.2478 71.0549 38.9901 71.0549 38.6492C71.0549 38.3914 70.9842 38.1835 70.8429 38.0255C70.7098 37.8592 70.5394 37.7345 70.3315 37.6514C70.1236 37.5599 69.8326 37.4601 69.4584 37.352C68.9512 37.2023 68.5438 37.0527 68.2361 36.903C67.9284 36.7533 67.6624 36.5122 67.4379 36.1796C67.2134 35.847 67.1011 35.3938 67.1011 34.8201C67.1011 34.3212 67.2217 33.8846 67.4628 33.5105C67.7123 33.1363 68.0573 32.8494 68.498 32.6499C68.9387 32.4503 69.4418 32.3505 70.0072 32.3505C70.9302 32.3505 71.7118 32.521 72.352 32.8619V34.5083C71.9945 34.2921 71.6078 34.1216 71.1921 33.9969C70.7847 33.8722 70.4229 33.8098 70.107 33.8098C69.6746 33.8098 69.342 33.8971 69.1092 34.0717C68.8764 34.2463 68.7599 34.475 68.7599 34.7577C68.7599 35.0155 68.8265 35.2234 68.9595 35.3814C69.1009 35.5393 69.2713 35.6641 69.4709 35.7555C69.6704 35.8387 69.9615 35.9385 70.344 36.0549C70.8429 36.2045 71.2503 36.3584 71.5663 36.5164C71.8822 36.666 72.1525 36.9072 72.377 37.2398C72.6015 37.5724 72.7137 38.0172 72.7137 38.5743C72.7137 39.3975 72.4518 40.0419 71.928 40.5076C71.4124 40.9732 70.6849 41.206 69.7453 41.206ZM77.1025 35.4687V41.0813H75.4811V32.4752H76.8905L80.6821 38.1752V32.4752H82.3036V41.0813H80.8692L77.1025 35.4687ZM87.2431 39.2104V41.0813H85.2974V39.2104H87.2431ZM91.9373 39.2104V41.0813H89.9916V39.2104H91.9373ZM96.6316 39.2104V41.0813H94.6859V39.2104H96.6316ZM104.668 41.0813L102.76 37.3894H101.251V41.0813H99.6296V32.4752H101.251V35.8927H102.66L104.444 32.4752H106.477L104.07 36.5662L106.627 41.0813H104.668ZM114.312 32.4752H116.096L113.239 41.0813H111.107L108.35 32.4752H110.134L112.204 39.385L114.312 32.4752ZM123.481 39.5846V41.0813H118.455V39.5846H120.238V35.2192H118.455V33.7724H119.951C120.167 33.7724 120.276 33.6768 120.276 33.4855V32.4752H121.835V39.5846H123.481Z" fill="#293972"/>
<rect x="11.1691" y="87.7542" width="236.849" height="41.4326" fill="#F7F7F7"/>
<path d="M30.3156 112.501V113.998H25.2892V112.501H27.0728V108.136H25.2892V106.689H26.7859C27.0021 106.689 27.1102 106.593 27.1102 106.402V105.392H28.6693V112.501H30.3156ZM41.247 110.555H40.4737V113.312C40.1578 113.52 39.7254 113.707 39.1766 113.873C38.6278 114.039 38.0624 114.123 37.4803 114.123C36.5989 114.123 35.8007 113.948 35.0856 113.599C34.3705 113.241 33.8051 112.73 33.3893 112.065C32.9736 111.391 32.7657 110.605 32.7657 109.707C32.7657 108.793 32.9736 108.003 33.3893 107.337C33.8051 106.664 34.3747 106.153 35.0981 105.803C35.8215 105.446 36.6322 105.267 37.5302 105.267C38.5363 105.267 39.3886 105.421 40.0871 105.729V107.288C39.4551 106.955 38.6527 106.789 37.6799 106.789C36.6987 106.789 35.9171 107.046 35.335 107.562C34.7613 108.069 34.4744 108.78 34.4744 109.695C34.4744 110.293 34.6075 110.821 34.8736 111.279C35.1396 111.728 35.5013 112.077 35.9587 112.326C36.416 112.568 36.9232 112.688 37.4803 112.688C37.7547 112.688 38.0166 112.663 38.2661 112.613C38.5239 112.563 38.7234 112.509 38.8648 112.451V110.555H37.7422V109.183H41.247V110.555ZM45.7995 110.343L42.9308 105.392H44.8266L46.6102 108.759L48.3938 105.392H50.2896L47.4583 110.318V113.998H45.7995V110.343ZM57.8773 105.392H59.6609L56.8047 113.998H54.6719L51.9154 105.392H53.699L55.7694 112.302L57.8773 105.392ZM63.8159 112.501H67.7198V113.998H62.157V105.392H63.8159V112.501ZM75.26 109.545C75.6758 109.686 76.0208 109.919 76.2952 110.244C76.5779 110.568 76.7193 111.004 76.7193 111.553C76.7193 112.36 76.4449 112.971 75.8961 113.387C75.3556 113.794 74.6697 113.998 73.8381 113.998H70.3957V105.392H73.9629C74.7029 105.392 75.3099 105.587 75.7839 105.978C76.2661 106.36 76.5073 106.909 76.5073 107.624C76.5073 108.115 76.3825 108.527 76.1331 108.859C75.892 109.183 75.6009 109.412 75.26 109.545ZM72.0172 106.789V108.934H73.6261C74.4244 108.934 74.8235 108.568 74.8235 107.836C74.8235 107.138 74.441 106.789 73.676 106.789H72.0172ZM73.8007 112.601C74.1832 112.601 74.4826 112.505 74.6988 112.314C74.9233 112.114 75.0355 111.819 75.0355 111.428C75.0355 111.046 74.9233 110.759 74.6988 110.568C74.4742 110.368 74.1791 110.269 73.8132 110.269H72.0172V112.601H73.8007ZM82.305 114.123C81.3072 114.123 80.5422 113.744 80.01 112.988C79.4778 112.231 79.2118 111.133 79.2118 109.695C79.2118 108.256 79.4778 107.159 80.01 106.402C80.5422 105.645 81.3072 105.267 82.305 105.267C83.3028 105.267 84.0677 105.645 84.5999 106.402C85.1321 107.159 85.3981 108.256 85.3981 109.695C85.3981 111.133 85.1321 112.231 84.5999 112.988C84.0677 113.744 83.3028 114.123 82.305 114.123ZM82.305 112.626C82.7706 112.626 83.1198 112.372 83.3526 111.865C83.5938 111.349 83.7144 110.626 83.7144 109.695C83.7144 108.763 83.5938 108.044 83.3526 107.537C83.1198 107.021 82.7706 106.764 82.305 106.764C81.8393 106.764 81.4859 107.021 81.2448 107.537C81.012 108.044 80.8956 108.763 80.8956 109.695C80.8956 110.626 81.012 111.349 81.2448 111.865C81.4859 112.372 81.8393 112.626 82.305 112.626ZM89.6534 112.127V113.998H87.7077V112.127H89.6534ZM94.3477 112.127V113.998H92.402V112.127H94.3477ZM99.0419 112.127V113.998H97.0962V112.127H99.0419ZM106.904 109.545C107.32 109.686 107.665 109.919 107.939 110.244C108.222 110.568 108.363 111.004 108.363 111.553C108.363 112.36 108.089 112.971 107.54 113.387C107 113.794 106.314 113.998 105.482 113.998H102.04V105.392H105.607C106.347 105.392 106.954 105.587 107.428 105.978C107.91 106.36 108.151 106.909 108.151 107.624C108.151 108.115 108.027 108.527 107.777 108.859C107.536 109.183 107.245 109.412 106.904 109.545ZM103.661 106.789V108.934H105.27C106.069 108.934 106.468 108.568 106.468 107.836C106.468 107.138 106.085 106.789 105.32 106.789H103.661ZM105.445 112.601C105.827 112.601 106.127 112.505 106.343 112.314C106.567 112.114 106.68 111.819 106.68 111.428C106.68 111.046 106.567 110.759 106.343 110.568C106.118 110.368 105.823 110.269 105.457 110.269H103.661V112.601H105.445ZM112.83 109.632L110.298 105.392H112.194L114.165 108.859L116.085 105.392H117.969L115.512 109.632L118.006 113.998H116.073L114.14 110.443L112.182 113.998H110.273L112.83 109.632ZM125.367 109.545C125.783 109.686 126.128 109.919 126.402 110.244C126.685 110.568 126.826 111.004 126.826 111.553C126.826 112.36 126.552 112.971 126.003 113.387C125.463 113.794 124.777 113.998 123.945 113.998H120.503V105.392H124.07C124.81 105.392 125.417 105.587 125.891 105.978C126.373 106.36 126.614 106.909 126.614 107.624C126.614 108.115 126.489 108.527 126.24 108.859C125.999 109.183 125.708 109.412 125.367 109.545ZM122.124 106.789V108.934H123.733C124.531 108.934 124.93 108.568 124.93 107.836C124.93 107.138 124.548 106.789 123.783 106.789H122.124ZM123.908 112.601C124.29 112.601 124.59 112.505 124.806 112.314C125.03 112.114 125.142 111.819 125.142 111.428C125.142 111.046 125.03 110.759 124.806 110.568C124.581 110.368 124.286 110.269 123.92 110.269H122.124V112.601H123.908Z" fill="#293972"/>
<rect x="11" y="161.49" width="236.849" height="41.4326" fill="#F7F7F7"/>
<path d="M30.1464 186.236V187.733H25.12V186.236H26.9036V181.871H25.12V180.424H26.6167C26.8329 180.424 26.941 180.329 26.941 180.137V179.127H28.5001V186.236H30.1464ZM36.2385 179.127C37.1448 179.127 37.8724 179.372 38.4212 179.863C38.97 180.354 39.2444 181.048 39.2444 181.946C39.2444 182.836 38.97 183.526 38.4212 184.016C37.8724 184.507 37.1448 184.752 36.2385 184.752H34.6919V187.733H33.033V179.127H36.2385ZM36.1138 183.28C36.5794 183.28 36.937 183.168 37.1864 182.944C37.4359 182.711 37.5606 182.378 37.5606 181.946C37.5606 181.505 37.4359 181.173 37.1864 180.948C36.9453 180.715 36.5877 180.599 36.1138 180.599H34.6919V183.28H36.1138ZM48.7534 186.361V187.733H46.8077C46.683 187.733 46.5957 187.712 46.5458 187.671C46.4959 187.629 46.4418 187.55 46.3836 187.434L44.8121 184.415H43.5274V187.733H41.8686V179.127H45.3235C46.1633 179.127 46.8451 179.36 47.369 179.826C47.9011 180.283 48.1672 180.931 48.1672 181.771C48.1672 182.395 48.0134 182.919 47.7057 183.343C47.3981 183.767 46.9865 184.066 46.4709 184.241L47.6309 186.361H48.7534ZM43.5274 182.981H45.2237C45.6228 182.981 45.9305 182.89 46.1467 182.707C46.3712 182.515 46.4834 182.204 46.4834 181.771C46.4834 180.965 46.0552 180.561 45.1987 180.561H43.5274V182.981ZM59.6955 183.43C59.6955 184.278 59.5043 185.039 59.1218 185.713C58.7393 186.378 58.2196 186.897 57.5627 187.272L58.7975 189.479H56.9516L56.0535 187.796C55.7792 187.837 55.5297 187.858 55.3052 187.858H55.2054C54.3989 187.858 53.663 187.671 52.9978 187.297C52.3326 186.922 51.8046 186.399 51.4138 185.725C51.0313 185.052 50.84 184.287 50.84 183.43C50.84 182.574 51.0313 181.809 51.4138 181.135C51.8046 180.462 52.3326 179.938 52.9978 179.564C53.663 179.189 54.3989 179.002 55.2054 179.002H55.3052C56.1201 179.002 56.8601 179.189 57.5253 179.564C58.1988 179.938 58.7268 180.462 59.1093 181.135C59.5001 181.809 59.6955 182.574 59.6955 183.43ZM55.2803 186.299C55.7792 186.299 56.2365 186.191 56.6522 185.975C57.068 185.758 57.3964 185.434 57.6376 185.002C57.887 184.569 58.0117 184.045 58.0117 183.43C58.0117 182.815 57.887 182.291 57.6376 181.859C57.3964 181.426 57.068 181.102 56.6522 180.886C56.2365 180.67 55.7792 180.561 55.2803 180.561H55.2179C54.7273 180.561 54.2741 180.674 53.8584 180.898C53.4509 181.114 53.1267 181.439 52.8855 181.871C52.6444 182.303 52.5238 182.823 52.5238 183.43C52.5238 184.045 52.6444 184.569 52.8855 185.002C53.1267 185.434 53.4509 185.758 53.8584 185.975C54.2658 186.191 54.719 186.299 55.2179 186.299H55.2803ZM68.5112 185.526H67.2889V187.733H65.8171V185.526H62.0629V184.316L65.4679 179.127H67.2889V184.203H68.5112V185.526ZM65.8171 184.203V180.898L63.6843 184.203H65.8171ZM78.0736 186.361V187.733H76.1279C76.0032 187.733 75.9159 187.712 75.866 187.671C75.8161 187.629 75.762 187.55 75.7038 187.434L74.1323 184.415H72.8476V187.733H71.1888V179.127H74.6437C75.4835 179.127 76.1653 179.36 76.6892 179.826C77.2213 180.283 77.4874 180.931 77.4874 181.771C77.4874 182.395 77.3336 182.919 77.0259 183.343C76.7183 183.767 76.3067 184.066 75.7911 184.241L76.9511 186.361H78.0736ZM72.8476 182.981H74.5439C74.943 182.981 75.2507 182.89 75.4669 182.707C75.6914 182.515 75.8036 182.204 75.8036 181.771C75.8036 180.965 75.3754 180.561 74.5189 180.561H72.8476V182.981ZM82.7516 183.717C83.2422 183.16 83.5665 182.744 83.7245 182.47C83.8908 182.187 83.9739 181.875 83.9739 181.534C83.9739 181.252 83.8492 181.023 83.5997 180.848C83.3503 180.665 83.0218 180.574 82.6144 180.574C82.2236 180.574 81.8369 180.665 81.4545 180.848C81.0803 181.023 80.7892 181.218 80.5814 181.435V179.726C80.7643 179.543 81.0553 179.377 81.4545 179.227C81.8536 179.077 82.3109 179.002 82.8264 179.002C83.6746 179.002 84.3606 179.214 84.8844 179.638C85.4082 180.063 85.6702 180.64 85.6702 181.372C85.6702 181.813 85.5995 182.208 85.4581 182.557C85.3251 182.906 85.1463 183.231 84.9218 183.53C84.6973 183.821 84.3689 184.203 83.9365 184.677L82.5271 186.236H85.7325V187.733H80.544V186.236L82.7516 183.717ZM90.3856 185.862V187.733H88.4398V185.862H90.3856ZM95.0798 185.862V187.733H93.1341V185.862H95.0798ZM99.7741 185.862V187.733H97.8284V185.862H99.7741ZM103.522 180.624H101.028V179.127H107.638V180.624H105.144V187.733H103.522V180.624ZM111.877 182.121V187.733H110.256V179.127H111.665L115.457 184.827V179.127H117.078V187.733H115.644L111.877 182.121ZM121.943 180.624V182.769H125.235V184.266H121.943V187.733H120.321V179.127H125.61V180.624H121.943Z" fill="#293972"/>
<path d="M301.8 57.0524H175.928C162.312 57.0524 151.076 46.6416 151.076 34.0262C151.076 21.4108 162.312 11 175.928 11L301.8 11C315.415 11 326.651 21.4108 326.651 34.0262C326.651 46.6416 315.547 57.0524 301.8 57.0524Z" fill="#293972" stroke="#293972" stroke-width="1.91885" stroke-miterlimit="10"/>
<path d="M207.889 36.1817V37.5537H205.944C205.819 37.5537 205.732 37.5329 205.682 37.4913C205.632 37.4498 205.578 37.3708 205.52 37.2544L203.948 34.236H202.663V37.5537H201.005V28.9477H204.46C205.299 28.9477 205.981 29.1805 206.505 29.6461C207.037 30.1034 207.303 30.752 207.303 31.5918C207.303 32.2155 207.149 32.7393 206.842 33.1634C206.534 33.5874 206.123 33.8868 205.607 34.0614L206.767 36.1817H207.889ZM202.663 32.8017H204.36C204.759 32.8017 205.067 32.7102 205.283 32.5273C205.507 32.336 205.619 32.0242 205.619 31.5918C205.619 30.7853 205.191 30.382 204.335 30.382H202.663V32.8017ZM212.402 35.6205L211.766 37.5537H210.07L212.752 30.2448H211.754V28.9477H214.672C214.814 28.9477 214.909 28.9643 214.959 28.9976C215.017 29.0308 215.063 29.0973 215.096 29.1971L218.09 37.5537H216.369L215.72 35.6205H212.402ZM215.234 34.1487L214.061 30.7063L212.914 34.1487H215.234ZM222.234 31.9411V37.5537H220.612V28.9477H222.022L225.813 34.6476V28.9477H227.435V37.5537H226L222.234 31.9411ZM233.01 37.6784C232.445 37.6784 231.963 37.6202 231.564 37.5038C231.173 37.3874 230.799 37.2211 230.441 37.0049V35.3087C230.782 35.5498 231.181 35.7535 231.638 35.9198C232.096 36.0778 232.545 36.1568 232.985 36.1568C233.41 36.1568 233.738 36.0695 233.971 35.8949C234.204 35.7202 234.32 35.4625 234.32 35.1216C234.32 34.8638 234.249 34.6559 234.108 34.4979C233.975 34.3316 233.805 34.2069 233.597 34.1238C233.389 34.0323 233.098 33.9325 232.724 33.8244C232.216 33.6748 231.809 33.5251 231.501 33.3754C231.194 33.2257 230.928 32.9846 230.703 32.652C230.479 32.3194 230.366 31.8662 230.366 31.2925C230.366 30.7936 230.487 30.3571 230.728 29.9829C230.977 29.6087 231.322 29.3218 231.763 29.1223C232.204 28.9227 232.707 28.8229 233.272 28.8229C234.195 28.8229 234.977 28.9934 235.617 29.3343V30.9807C235.26 30.7645 234.873 30.594 234.457 30.4693C234.05 30.3446 233.688 30.2822 233.372 30.2822C232.94 30.2822 232.607 30.3695 232.374 30.5441C232.142 30.7188 232.025 30.9474 232.025 31.2301C232.025 31.4879 232.092 31.6958 232.225 31.8538C232.366 32.0117 232.536 32.1365 232.736 32.2279C232.936 32.3111 233.227 32.4109 233.609 32.5273C234.108 32.6769 234.515 32.8308 234.831 32.9888C235.147 33.1384 235.418 33.3796 235.642 33.7122C235.867 34.0448 235.979 34.4896 235.979 35.0467C235.979 35.8699 235.717 36.5143 235.193 36.98C234.678 37.4456 233.95 37.6784 233.01 37.6784ZM242.775 28.8229C243.59 28.8229 244.33 29.01 244.995 29.3842C245.668 29.7584 246.197 30.2822 246.579 30.9557C246.97 31.6293 247.165 32.3942 247.165 33.2507C247.165 34.1071 246.97 34.8721 246.579 35.5456C246.197 36.2191 245.668 36.743 244.995 37.1172C244.33 37.4913 243.59 37.6784 242.775 37.6784H242.675C241.869 37.6784 241.133 37.4913 240.467 37.1172C239.802 36.743 239.274 36.2191 238.883 35.5456C238.501 34.8721 238.31 34.1071 238.31 33.2507C238.31 32.3942 238.501 31.6293 238.883 30.9557C239.274 30.2822 239.802 29.7584 240.467 29.3842C241.133 29.01 241.869 28.8229 242.675 28.8229H242.775ZM242.75 36.1194C243.249 36.1194 243.706 36.0113 244.122 35.7951C244.538 35.5789 244.866 35.2546 245.107 34.8222C245.357 34.3898 245.481 33.866 245.481 33.2507C245.481 32.6354 245.357 32.1115 245.107 31.6791C244.866 31.2468 244.538 30.9225 244.122 30.7063C243.706 30.4901 243.249 30.382 242.75 30.382H242.688C242.197 30.382 241.744 30.4943 241.328 30.7188C240.921 30.935 240.596 31.2592 240.355 31.6916C240.114 32.124 239.993 32.6437 239.993 33.2507C239.993 33.866 240.114 34.3898 240.355 34.8222C240.596 35.2546 240.921 35.5789 241.328 35.7951C241.735 36.0113 242.189 36.1194 242.688 36.1194H242.75ZM249.969 28.9477H251.902L254.472 33.5126L257.016 28.9477H258.974V37.5537H257.353V31.2052L255.158 35.3336H253.823L251.591 31.1927V37.5537H249.969V28.9477ZM261.654 28.9477H263.375L264.971 35.8699L266.718 28.9477H268.975L270.771 35.8699L272.343 28.9477H274.039L271.881 37.5537H269.574L267.853 30.8435L266.119 37.5537H263.812L261.654 28.9477ZM277.912 35.6205L277.276 37.5537H275.58L278.262 30.2448H277.264V28.9477H280.182C280.324 28.9477 280.419 28.9643 280.469 28.9976C280.528 29.0308 280.573 29.0973 280.606 29.1971L283.6 37.5537H281.879L281.23 35.6205H277.912ZM280.744 34.1487L279.571 30.7063L278.424 34.1487H280.744ZM293.007 36.1817V37.5537H291.062C290.937 37.5537 290.849 37.5329 290.8 37.4913C290.75 37.4498 290.696 37.3708 290.637 37.2544L289.066 34.236H287.781V37.5537H286.122V28.9477H289.577C290.417 28.9477 291.099 29.1805 291.623 29.6461C292.155 30.1034 292.421 30.752 292.421 31.5918C292.421 32.2155 292.267 32.7393 291.96 33.1634C291.652 33.5874 291.24 33.8868 290.725 34.0614L291.885 36.1817H293.007ZM287.781 32.8017H289.477C289.877 32.8017 290.184 32.7102 290.4 32.5273C290.625 32.336 290.737 32.0242 290.737 31.5918C290.737 30.7853 290.309 30.382 289.453 30.382H287.781V32.8017ZM301.115 30.4444H297.274V32.4524H300.604V33.9491H297.274V36.057H301.115V37.5537H295.652V28.9477H301.115V30.4444Z" fill="white"/>
<circle cx="179.494" cy="34.2911" r="6.23784" fill="#FCAA00" stroke="#293972" stroke-width="1.91885"/>
<path d="M324.685 205.763H176.068C162.376 205.763 151.076 195.136 151.076 182.257C151.076 169.379 162.376 158.751 176.068 158.751L324.685 158.751C338.378 158.751 349.677 169.379 349.677 182.257C349.677 195.136 338.511 205.763 324.685 205.763Z" fill="#293972" stroke="#293972" stroke-width="1.91885" stroke-miterlimit="10"/>
<path d="M203.424 178.699C204.389 178.699 205.229 178.87 205.944 179.21C206.667 179.543 207.22 180.03 207.603 180.67C207.993 181.31 208.189 182.071 208.189 182.952C208.189 183.867 207.993 184.653 207.603 185.31C207.22 185.958 206.667 186.453 205.944 186.794C205.229 187.135 204.389 187.305 203.424 187.305H201.005V178.699H203.424ZM203.686 185.796C204.501 185.796 205.17 185.559 205.694 185.085C206.218 184.603 206.48 183.892 206.48 182.952C206.48 182.345 206.355 181.838 206.106 181.431C205.856 181.015 205.52 180.707 205.096 180.508C204.68 180.3 204.21 180.196 203.686 180.196H202.663V185.796H203.686ZM212.305 185.372L211.669 187.305H209.973L212.654 179.996H211.656V178.699H214.575C214.716 178.699 214.812 178.716 214.862 178.749C214.92 178.782 214.966 178.849 214.999 178.949L217.992 187.305H216.271L215.623 185.372H212.305ZM215.136 183.9L213.964 180.458L212.816 183.9H215.136ZM227.4 185.933V187.305H225.454C225.329 187.305 225.242 187.284 225.192 187.243C225.142 187.201 225.088 187.122 225.03 187.006L223.458 183.987H222.174V187.305H220.515V178.699H223.97C224.81 178.699 225.491 178.932 226.015 179.398C226.547 179.855 226.814 180.503 226.814 181.343C226.814 181.967 226.66 182.491 226.352 182.915C226.044 183.339 225.633 183.638 225.117 183.813L226.277 185.933H227.4ZM222.174 182.553H223.87C224.269 182.553 224.577 182.462 224.793 182.279C225.017 182.087 225.13 181.776 225.13 181.343C225.13 180.537 224.702 180.133 223.845 180.133H222.174V182.553ZM235.084 187.305L233.175 183.613H231.666V187.305H230.045V178.699H231.666V182.117H233.076L234.859 178.699H236.892L234.485 182.79L237.042 187.305H235.084ZM241.135 181.693V187.305H239.514V178.699H240.923L244.715 184.399V178.699H246.336V187.305H244.902L241.135 181.693ZM255.042 180.196H251.201V182.204H254.531V183.701H251.201V185.808H255.042V187.305H249.579V178.699H255.042V180.196ZM259.92 180.196H257.426V178.699H264.036V180.196H261.542V187.305H259.92V180.196ZM270.52 178.699H272.453L275.022 183.264L277.567 178.699H279.525V187.305H277.903V180.957L275.708 185.085H274.374L272.141 180.944V187.305H270.52V178.699ZM284.512 185.372L283.876 187.305H282.179L284.861 179.996H283.863V178.699H286.782C286.923 178.699 287.019 178.716 287.069 178.749C287.127 178.782 287.172 178.849 287.206 178.949L290.199 187.305H288.478L287.829 185.372H284.512ZM287.343 183.9L286.171 180.458L285.023 183.9H287.343ZM299.606 185.933V187.305H297.661C297.536 187.305 297.449 187.284 297.399 187.243C297.349 187.201 297.295 187.122 297.237 187.006L295.665 183.987H294.38V187.305H292.722V178.699H296.177C297.016 178.699 297.698 178.932 298.222 179.398C298.754 179.855 299.02 180.503 299.02 181.343C299.02 181.967 298.866 182.491 298.559 182.915C298.251 183.339 297.84 183.638 297.324 183.813L298.484 185.933H299.606ZM294.38 182.553H296.077C296.476 182.553 296.784 182.462 297 182.279C297.224 182.087 297.336 181.776 297.336 181.343C297.336 180.537 296.908 180.133 296.052 180.133H294.38V182.553ZM307.29 187.305L305.382 183.613H303.873V187.305H302.251V178.699H303.873V182.117H305.282L307.066 178.699H309.099L306.692 182.79L309.249 187.305H307.29ZM317.183 180.196H313.342V182.204H316.672V183.701H313.342V185.808H317.183V187.305H311.72V178.699H317.183V180.196ZM322.061 180.196H319.567V178.699H326.177V180.196H323.683V187.305H322.061V180.196Z" fill="white"/>
<circle cx="177.147" cy="182.721" r="6.23784" fill="#F0858A"/>
<path d="M252.339 131.231H174.696C161.846 131.231 151.241 120.627 151.241 107.777C151.241 94.9271 161.846 84.3228 174.696 84.3228L252.339 84.3228C265.189 84.3228 275.793 94.9271 275.793 107.777C275.793 120.627 265.313 131.231 252.339 131.231Z" fill="#293972" stroke="#293972" stroke-width="1.91885" stroke-miterlimit="10"/>
<path d="M203.502 113.596C202.937 113.596 202.454 113.537 202.055 113.421C201.665 113.305 201.29 113.138 200.933 112.922V111.226C201.274 111.467 201.673 111.671 202.13 111.837C202.588 111.995 203.037 112.074 203.477 112.074C203.901 112.074 204.23 111.987 204.463 111.812C204.695 111.637 204.812 111.38 204.812 111.039C204.812 110.781 204.741 110.573 204.6 110.415C204.467 110.249 204.296 110.124 204.088 110.041C203.88 109.95 203.589 109.85 203.215 109.742C202.708 109.592 202.301 109.442 201.993 109.293C201.685 109.143 201.419 108.902 201.195 108.569C200.97 108.237 200.858 107.783 200.858 107.21C200.858 106.711 200.979 106.274 201.22 105.9C201.469 105.526 201.814 105.239 202.255 105.04C202.696 104.84 203.199 104.74 203.764 104.74C204.687 104.74 205.469 104.911 206.109 105.252V106.898C205.751 106.682 205.365 106.511 204.949 106.387C204.542 106.262 204.18 106.199 203.864 106.199C203.431 106.199 203.099 106.287 202.866 106.461C202.633 106.636 202.517 106.865 202.517 107.147C202.517 107.405 202.583 107.613 202.716 107.771C202.858 107.929 203.028 108.054 203.228 108.145C203.427 108.228 203.718 108.328 204.101 108.445C204.6 108.594 205.007 108.748 205.323 108.906C205.639 109.056 205.909 109.297 206.134 109.629C206.358 109.962 206.471 110.407 206.471 110.964C206.471 111.787 206.209 112.432 205.685 112.897C205.169 113.363 204.442 113.596 203.502 113.596ZM213.341 113.596C212.51 113.596 211.745 113.4 211.046 113.009C210.356 112.619 209.808 112.086 209.4 111.413C209.001 110.739 208.801 109.991 208.801 109.168C208.801 108.345 209.001 107.596 209.4 106.923C209.808 106.249 210.356 105.717 211.046 105.326C211.745 104.936 212.51 104.74 213.341 104.74C213.824 104.74 214.289 104.803 214.738 104.927C215.187 105.052 215.516 105.177 215.724 105.301V106.973C215.383 106.782 215.025 106.624 214.651 106.499C214.285 106.366 213.844 106.299 213.329 106.299C212.813 106.299 212.335 106.42 211.895 106.661C211.462 106.902 211.117 107.243 210.859 107.684C210.61 108.116 210.485 108.611 210.485 109.168C210.485 109.725 210.61 110.224 210.859 110.665C211.117 111.097 211.462 111.434 211.895 111.675C212.335 111.916 212.813 112.037 213.329 112.037C213.844 112.037 214.285 111.974 214.651 111.85C215.025 111.716 215.383 111.554 215.724 111.363V113.034C215.516 113.159 215.187 113.284 214.738 113.409C214.289 113.533 213.824 113.596 213.341 113.596ZM220.465 111.538L219.829 113.471H218.133L220.814 106.162H219.817V104.865H222.735C222.877 104.865 222.972 104.882 223.022 104.915C223.08 104.948 223.126 105.015 223.159 105.114L226.153 113.471H224.431L223.783 111.538H220.465ZM223.296 110.066L222.124 106.624L220.977 110.066H223.296ZM228.675 104.865H230.608L233.178 109.43L235.722 104.865H237.68V113.471H236.059V107.122L233.864 111.251H232.529L230.297 107.11V113.471H228.675V104.865Z" fill="white"/>
<circle cx="178.783" cy="108.027" r="6.23784" fill="#FF5300"/>
</svg>
