<svg width="408" height="340" viewBox="0 0 408 340" fill="none" xmlns="http://www.w3.org/2000/svg">
<circle cx="204" cy="167" r="99" fill="#EAEBF1"/>
<mask id="mask0_5201_26962" style="mask-type:alpha" maskUnits="userSpaceOnUse" x="105" y="68" width="198" height="198">
<circle cx="204" cy="167" r="99" fill="white"/>
</mask>
<g mask="url(#mask0_5201_26962)">
<path d="M122.716 191.618C122.502 191.833 122.438 192.155 122.554 192.436C122.67 192.716 122.943 192.899 123.247 192.899H127.872C128.286 192.899 128.622 192.563 128.622 192.149V187.526C128.622 187.222 128.44 186.949 128.159 186.833C127.879 186.717 127.557 186.781 127.342 186.995L122.716 191.618Z" fill="#293972" stroke="#EAEBF1" stroke-width="1.5" stroke-linejoin="round"/>
<path d="M122.716 191.618C122.502 191.833 122.438 192.155 122.554 192.436C122.67 192.716 122.943 192.899 123.247 192.899H127.872C128.286 192.899 128.622 192.563 128.622 192.149V187.526C128.622 187.222 128.44 186.949 128.159 186.833C127.879 186.717 127.557 186.781 127.342 186.995L122.716 191.618Z" fill="#293972" stroke="#EAEBF1" stroke-width="1.5" stroke-linejoin="round"/>
<path d="M150.465 274.856C150.324 274.997 150.245 275.187 150.245 275.386V284.634C150.245 285.049 150.581 285.384 150.995 285.384H155.621C155.82 285.384 156.011 285.305 156.151 285.165L160.775 280.542C160.915 280.401 160.994 280.21 160.994 280.012V266.138C160.994 265.835 160.812 265.561 160.531 265.445C160.251 265.329 159.928 265.393 159.714 265.608L155.091 270.233L155.091 270.233L150.465 274.856Z" fill="#293972" stroke="#EAEBF1" stroke-width="1.5" stroke-linejoin="round"/>
<path d="M123.247 205.272C123.048 205.272 122.857 205.351 122.716 205.492L118.623 209.586L110.125 201.086V196.774C110.125 196.36 109.789 196.024 109.375 196.024H100.123C99.9245 196.024 99.7337 196.103 99.5931 196.244L95.1894 200.647H86.2512C86.0522 200.647 85.8615 200.726 85.7208 200.866L81.0953 205.492L71.8464 214.74C71.7057 214.88 71.6267 215.071 71.6267 215.27V228.833L67.2208 233.238C67.0801 233.379 67.0011 233.57 67.0011 233.769C67.0011 233.968 67.0802 234.159 67.2209 234.299L71.8462 238.922L71.8465 238.922L76.4696 243.547L76.4697 243.547L81.0953 248.172C81.3882 248.465 81.863 248.465 82.1559 248.172L86.5618 243.767H90.8745H103.999V252.265C103.999 252.464 104.078 252.655 104.219 252.795L108.625 257.201V261.513C108.625 261.712 108.704 261.903 108.844 262.043L112.937 266.138L108.844 270.233C108.704 270.374 108.625 270.565 108.625 270.764V280.012C108.625 280.211 108.704 280.401 108.844 280.542L113.248 284.945V293.885C113.248 294.084 113.327 294.275 113.468 294.416L117.873 298.819V303.133C117.873 303.547 118.209 303.883 118.623 303.883H127.872C128.071 303.883 128.262 303.804 128.403 303.664L137.652 294.415C137.792 294.275 137.871 294.084 137.871 293.885V289.571L142.277 285.165C142.418 285.024 142.497 284.834 142.497 284.635V280.322L146.9 275.917L146.901 275.917L151.526 271.294C151.667 271.153 151.746 270.963 151.746 270.764C151.746 270.565 151.667 270.374 151.526 270.233L147.12 265.828V257.201L151.526 252.795L151.526 252.795L156.151 248.173L156.152 248.172L160.775 243.547C160.916 243.406 160.995 243.216 160.995 243.017V238.392V233.769C160.995 233.355 160.659 233.019 160.245 233.019H151.306L146.9 228.613L142.497 224.21V219.895C142.497 219.696 142.418 219.506 142.277 219.365L137.871 214.96V210.647V206.022C137.871 205.608 137.535 205.272 137.121 205.272H127.872H123.247Z" fill="#293972" stroke="#EAEBF1" stroke-width="1.5" stroke-linejoin="round"/>
<path d="M151.525 186.995C151.232 186.702 150.758 186.702 150.465 186.995L146.37 191.088L142.276 186.995C142.136 186.854 141.945 186.775 141.746 186.775H137.12H133.247V183.21L137.431 179.025H146.369C146.784 179.025 147.119 178.689 147.119 178.275V173.652C147.119 173.453 147.04 173.262 146.9 173.121L142.277 168.496C142.136 168.356 141.945 168.277 141.746 168.277H137.87V164.404C137.87 164.205 137.792 164.014 137.651 163.873L133.247 159.468V150.53C133.247 150.116 132.911 149.78 132.497 149.78H127.872C127.673 149.78 127.482 149.859 127.341 150L122.716 154.623C122.575 154.763 122.496 154.954 122.496 155.153V159.028H118.623C118.424 159.028 118.233 159.107 118.092 159.248L113.686 163.654H104.748C104.549 163.654 104.359 163.733 104.218 163.873L95.1887 172.902H90.8737C90.4595 172.902 90.1237 173.237 90.1237 173.652V178.275V186.775H81.6248C81.426 186.775 81.2353 186.854 81.0947 186.995L76.4691 191.618C76.3284 191.758 76.2493 191.949 76.2493 192.148C76.2492 192.347 76.3283 192.538 76.469 192.678L81.0945 197.304C81.2352 197.444 81.4259 197.523 81.6248 197.523H90.8737C91.0726 197.523 91.2634 197.444 91.404 197.304L96.0296 192.678C96.1703 192.538 96.2493 192.347 96.2493 192.148V188.275H100.123C100.322 188.275 100.512 188.196 100.653 188.055L104.748 183.96L108.843 188.055L113.247 192.459V196.773C113.247 197.077 113.43 197.35 113.71 197.466C113.99 197.582 114.313 197.518 114.527 197.304L118.623 193.209L122.716 197.303C122.856 197.444 123.047 197.523 123.246 197.523C123.445 197.523 123.636 197.444 123.776 197.304L127.872 193.209L131.967 197.304C132.108 197.444 132.298 197.523 132.497 197.523H136.81L141.216 201.927C141.357 202.067 141.547 202.146 141.746 202.146H146.369C146.568 202.146 146.759 202.067 146.9 201.927L151.525 197.304L151.525 197.304L156.151 192.678C156.292 192.538 156.371 192.347 156.371 192.148C156.371 191.949 156.291 191.758 156.151 191.618L151.525 186.995ZM130.686 188.275L128.622 190.338V188.275H130.686ZM117.873 187.836V190.338L114.528 186.995L114.527 186.995L111.184 183.65H113.686L117.873 187.836Z" fill="#293972" stroke="#EAEBF1" stroke-width="1.5" stroke-linejoin="round"/>
<path d="M113.467 86.32C113.76 86.6128 114.234 86.6128 114.527 86.3201L119.153 81.6972C119.293 81.5565 119.373 81.3657 119.373 81.1667V76.8521L123.776 72.4465C124.069 72.1536 124.069 71.6788 123.776 71.3859L120.433 68.0433H127.871C128.07 68.0433 128.261 67.9643 128.402 67.8237L133.027 63.1985C133.168 63.0578 133.247 62.867 133.247 62.668C133.247 62.4691 133.168 62.2783 133.027 62.1377L128.402 57.5147C128.261 57.3742 128.07 57.2952 127.871 57.2952H118.623C118.424 57.2952 118.233 57.3742 118.092 57.5147L113.686 61.9181H109.374C108.959 61.9181 108.624 62.2539 108.624 62.6681V71.9163V81.1667C108.624 81.3656 108.703 81.5564 108.843 81.697L113.467 86.32Z" fill="#293972" stroke="#EAEBF1" stroke-width="1.5" stroke-linejoin="round"/>
<path d="M122.497 81.1658C122.497 81.4691 122.679 81.7426 122.96 81.8587C123.24 81.9747 123.562 81.9106 123.777 81.6961L128.403 77.0709C128.617 76.8564 128.681 76.5338 128.565 76.2536C128.449 75.9733 128.176 75.7906 127.872 75.7906H123.247C122.832 75.7906 122.497 76.1263 122.497 76.5406V81.1658Z" fill="#293972" stroke="#EAEBF1" stroke-width="1.5" stroke-linejoin="round"/>
<path d="M104.013 191.905C104.012 191.962 104.01 192.003 104.009 192.029C103.981 192.203 104.015 192.385 104.11 192.54C104.246 192.763 104.488 192.898 104.75 192.898H109.375C109.678 192.898 109.952 192.716 110.068 192.435C110.184 192.155 110.12 191.833 109.905 191.618L105.28 186.993C105.064 186.777 104.74 186.714 104.459 186.832C104.178 186.95 103.996 187.226 104 187.531L104.75 187.523L104 187.531L104 187.531L104 187.532L104 187.534L104 187.544L104 187.582L104.002 187.725C104.003 187.849 104.004 188.027 104.006 188.239C104.01 188.665 104.014 189.234 104.017 189.805C104.02 190.377 104.022 190.949 104.02 191.383C104.018 191.601 104.016 191.779 104.013 191.905Z" fill="#293972" stroke="#EAEBF1" stroke-width="1.5" stroke-linejoin="round"/>
<path d="M104.749 155.904H108.625V159.779C108.625 160.193 108.961 160.529 109.375 160.529H113.998C114.413 160.529 114.748 160.193 114.748 159.779V155.464L119.154 151.061C119.295 150.921 119.374 150.73 119.374 150.531V141.593L123.778 137.188C123.918 137.047 123.997 136.856 123.997 136.657V132.782H127.123V136.347L122.717 140.752C122.576 140.893 122.497 141.084 122.497 141.283V145.906C122.497 146.105 122.576 146.295 122.717 146.436L127.343 151.061C127.635 151.354 128.11 151.354 128.403 151.061L133.029 146.436L137.652 141.813C137.945 141.52 137.945 141.045 137.652 140.752L133.248 136.347V123.095L137.652 118.689C137.945 118.396 137.945 117.921 137.652 117.629L133.029 113.006C132.888 112.865 132.697 112.786 132.498 112.786H127.873C127.674 112.786 127.483 112.865 127.343 113.006L122.937 117.411H118.624C118.425 117.411 118.234 117.49 118.094 117.631L113.468 122.254C113.327 122.394 113.248 122.585 113.248 122.784V127.099L108.845 131.502C108.704 131.643 108.625 131.833 108.625 132.032V136.347L104.439 140.533H100.124C99.7097 140.533 99.3739 140.868 99.3739 141.283V150.531C99.3739 150.73 99.453 150.921 99.5937 151.061L104.219 155.684C104.36 155.825 104.551 155.904 104.749 155.904Z" fill="#293972" stroke="#EAEBF1" stroke-width="1.5" stroke-linejoin="round"/>
<path d="M284.362 178.275C284.362 178.578 284.545 178.852 284.825 178.968C285.106 179.084 285.428 179.02 285.643 178.805L290.266 174.182C290.407 174.042 290.486 173.851 290.486 173.652V169.027C290.486 168.828 290.407 168.637 290.266 168.496L285.643 163.873C285.428 163.659 285.106 163.595 284.825 163.711C284.545 163.827 284.362 164.1 284.362 164.404V178.275Z" fill="#293972" stroke="#EAEBF1" stroke-width="1.5" stroke-linejoin="round"/>
<path d="M279.958 95.5696C280.098 95.7102 280.289 95.7892 280.488 95.7892H285.113C285.312 95.7892 285.503 95.7101 285.644 95.5694L289.737 91.4748L293.832 95.5696C294.047 95.784 294.369 95.8482 294.649 95.7321C294.93 95.616 295.112 95.3425 295.112 95.0392V90.414C295.112 89.9998 294.777 89.664 294.362 89.664H289.737C289.737 89.664 289.737 89.664 289.737 89.664H285.424L281.018 85.2585C280.725 84.9656 280.25 84.9656 279.958 85.2585L275.332 89.8837C275.191 90.0243 275.112 90.2151 275.112 90.414C275.112 90.6129 275.191 90.8037 275.332 90.9444L279.958 95.5696Z" fill="#293972" stroke="#EAEBF1" stroke-width="1.5" stroke-linejoin="round"/>
<path d="M228.865 76.5414C228.865 76.9556 229.201 77.2914 229.615 77.2914H234.241C234.655 77.2914 234.991 76.9556 234.991 76.5414V71.9162C234.991 71.7172 234.911 71.5264 234.771 71.3857L230.365 66.9824V62.668C230.365 62.2538 230.029 61.918 229.615 61.918H225.742V53.4199C225.742 53.0057 225.406 52.6699 224.992 52.6699H220.366C219.952 52.6699 219.616 53.0057 219.616 53.4199V57.7344L215.212 62.1377C215.072 62.2783 214.993 62.4691 214.993 62.668C214.993 62.8669 215.072 63.0577 215.212 63.1984L224.461 72.4465C224.602 72.5872 224.793 72.6662 224.992 72.6662H228.865V76.5414Z" fill="#293972" stroke="#EAEBF1" stroke-width="1.5" stroke-linejoin="round"/>
<path d="M169.494 114.285C169.908 114.285 170.244 113.95 170.244 113.535V104.598L174.65 100.193C174.79 100.052 174.869 99.8611 174.869 99.6621V95.3499L179.056 91.164H183.368C183.567 91.164 183.758 91.085 183.899 90.9444L188.524 86.3192C188.739 86.1047 188.803 85.7821 188.687 85.5018C188.571 85.2215 188.297 85.0388 187.994 85.0388H183.368H178.745C178.546 85.0388 178.355 85.1178 178.215 85.2585L173.809 89.664H169.494C169.08 89.664 168.744 89.9998 168.744 90.414V94.7285L164.34 99.1318C164.199 99.2725 164.12 99.4632 164.12 99.6621V103.977L159.715 108.38C159.574 108.52 159.495 108.711 159.495 108.91C159.495 109.109 159.574 109.3 159.715 109.441L164.34 114.066C164.481 114.206 164.671 114.285 164.87 114.285H169.494Z" fill="#293972" stroke="#EAEBF1" stroke-width="1.5" stroke-linejoin="round"/>
<mask id="path-16-outside-1_5201_26962" maskUnits="userSpaceOnUse" x="130.499" y="74.5406" width="221" height="124" fill="black">
<rect fill="white" x="130.499" y="74.5406" width="221" height="124"/>
<path d="M345.235 127.409L340.609 122.784H335.984L331.36 118.161H312.86L308.237 113.535H298.986L289.737 104.287H285.114L280.488 108.91H275.862L271.239 113.535L266.614 108.91V104.287L261.99 99.662L257.365 104.287H252.739L248.116 99.662H238.867L248.116 90.4139V85.7887H238.867V81.1658L234.241 76.5406L229.616 81.1658V85.7887L224.992 90.4139H215.743L211.118 95.0391V99.662H206.492L201.869 104.287V108.91H197.243L192.62 104.287H187.994V108.91L183.369 113.535V122.784L178.746 118.161H174.12L169.494 122.784H160.245L146.371 136.657H141.748V132.032H146.371L150.997 127.409L141.748 118.161H137.122V118.158L132.499 122.784V136.657L137.122 141.282L132.499 145.905V159.778L137.122 164.404V169.026H141.748L146.371 173.652V178.275V182.9L150.997 187.525L155.622 192.148L160.245 196.773V187.525L155.622 182.9L160.245 178.275L155.622 173.652L160.245 169.026H174.12V164.404H178.746L183.369 159.778H187.994L192.62 164.404H197.243L206.492 173.652H220.367L224.992 169.026H229.616L234.241 173.652H238.867H252.739V169.026L257.365 164.404H261.99V169.026L271.239 178.275V182.9V187.525H275.862V182.9L280.488 178.275V173.652L285.114 169.026L275.862 159.778L285.114 150.53H298.986L308.237 141.282L312.86 145.905L308.237 150.53V155.153L303.611 159.778V173.652L308.237 169.026V164.404L312.86 159.778V150.53H322.111L331.36 141.282H335.984V136.657V132.032H340.609L345.235 136.657L349.858 132.032V127.409H345.235Z"/>
</mask>
<path d="M345.235 127.409L340.609 122.784H335.984L331.36 118.161H312.86L308.237 113.535H298.986L289.737 104.287H285.114L280.488 108.91H275.862L271.239 113.535L266.614 108.91V104.287L261.99 99.662L257.365 104.287H252.739L248.116 99.662H238.867L248.116 90.4139V85.7887H238.867V81.1658L234.241 76.5406L229.616 81.1658V85.7887L224.992 90.4139H215.743L211.118 95.0391V99.662H206.492L201.869 104.287V108.91H197.243L192.62 104.287H187.994V108.91L183.369 113.535V122.784L178.746 118.161H174.12L169.494 122.784H160.245L146.371 136.657H141.748V132.032H146.371L150.997 127.409L141.748 118.161H137.122V118.158L132.499 122.784V136.657L137.122 141.282L132.499 145.905V159.778L137.122 164.404V169.026H141.748L146.371 173.652V178.275V182.9L150.997 187.525L155.622 192.148L160.245 196.773V187.525L155.622 182.9L160.245 178.275L155.622 173.652L160.245 169.026H174.12V164.404H178.746L183.369 159.778H187.994L192.62 164.404H197.243L206.492 173.652H220.367L224.992 169.026H229.616L234.241 173.652H238.867H252.739V169.026L257.365 164.404H261.99V169.026L271.239 178.275V182.9V187.525H275.862V182.9L280.488 178.275V173.652L285.114 169.026L275.862 159.778L285.114 150.53H298.986L308.237 141.282L312.86 145.905L308.237 150.53V155.153L303.611 159.778V173.652L308.237 169.026V164.404L312.86 159.778V150.53H322.111L331.36 141.282H335.984V136.657V132.032H340.609L345.235 136.657L349.858 132.032V127.409H345.235Z" fill="#293972"/>
<path d="M345.235 127.409L340.609 122.784H335.984L331.36 118.161H312.86L308.237 113.535H298.986L289.737 104.287H285.114L280.488 108.91H275.862L271.239 113.535L266.614 108.91V104.287L261.99 99.662L257.365 104.287H252.739L248.116 99.662H238.867L248.116 90.4139V85.7887H238.867V81.1658L234.241 76.5406L229.616 81.1658V85.7887L224.992 90.4139H215.743L211.118 95.0391V99.662H206.492L201.869 104.287V108.91H197.243L192.62 104.287H187.994V108.91L183.369 113.535V122.784L178.746 118.161H174.12L169.494 122.784H160.245L146.371 136.657H141.748V132.032H146.371L150.997 127.409L141.748 118.161H137.122V118.158L132.499 122.784V136.657L137.122 141.282L132.499 145.905V159.778L137.122 164.404V169.026H141.748L146.371 173.652V178.275V182.9L150.997 187.525L155.622 192.148L160.245 196.773V187.525L155.622 182.9L160.245 178.275L155.622 173.652L160.245 169.026H174.12V164.404H178.746L183.369 159.778H187.994L192.62 164.404H197.243L206.492 173.652H220.367L224.992 169.026H229.616L234.241 173.652H238.867H252.739V169.026L257.365 164.404H261.99V169.026L271.239 178.275V182.9V187.525H275.862V182.9L280.488 178.275V173.652L285.114 169.026L275.862 159.778L285.114 150.53H298.986L308.237 141.282L312.86 145.905L308.237 150.53V155.153L303.611 159.778V173.652L308.237 169.026V164.404L312.86 159.778V150.53H322.111L331.36 141.282H335.984V136.657V132.032H340.609L345.235 136.657L349.858 132.032V127.409H345.235Z" stroke="#EAEBF1" stroke-width="3" stroke-linejoin="round" mask="url(#path-16-outside-1_5201_26962)"/>
<path d="M202.398 237.861C202.184 237.646 201.861 237.582 201.581 237.698C201.301 237.814 201.118 238.088 201.118 238.391V243.016C201.118 243.431 201.454 243.766 201.868 243.766H206.491C206.795 243.766 207.068 243.584 207.184 243.303C207.3 243.023 207.236 242.701 207.022 242.486L202.398 237.861Z" fill="#293972" stroke="#EAEBF1" stroke-width="1.5" stroke-linejoin="round"/>
<path d="M220.896 242.486C220.681 242.272 220.359 242.207 220.078 242.323C219.798 242.44 219.615 242.713 219.615 243.016V247.642C219.615 247.841 219.695 248.031 219.835 248.172L224.241 252.575V256.89C224.241 257.089 224.32 257.279 224.461 257.42L229.084 262.043C229.225 262.184 229.415 262.263 229.614 262.263H234.24C234.654 262.263 234.99 261.927 234.99 261.513V256.89C234.99 256.691 234.911 256.5 234.77 256.359L230.145 251.734L220.896 242.486Z" fill="#293972" stroke="#EAEBF1" stroke-width="1.5" stroke-linejoin="round"/>
<path d="M238.866 246.892C238.452 246.892 238.116 247.227 238.116 247.642V252.265C238.116 252.463 238.195 252.654 238.336 252.795L242.959 257.42C243.1 257.561 243.291 257.64 243.49 257.64H248.115C248.314 257.64 248.505 257.561 248.646 257.42L253.269 252.795C253.41 252.654 253.489 252.463 253.489 252.265V243.016C253.489 242.602 253.153 242.266 252.739 242.266H248.115C247.916 242.266 247.726 242.345 247.585 242.486L243.179 246.892H238.866Z" fill="#293972" stroke="#EAEBF1" stroke-width="1.5" stroke-linejoin="round"/>
<path d="M238.866 223.77C238.563 223.77 238.289 223.953 238.173 224.233C238.057 224.513 238.122 224.836 238.336 225.05L242.959 229.673C243.174 229.888 243.496 229.952 243.777 229.836C244.057 229.72 244.24 229.446 244.24 229.143V224.52C244.24 224.106 243.904 223.77 243.49 223.77H238.866Z" fill="#293972" stroke="#EAEBF1" stroke-width="1.5" stroke-linejoin="round"/>
<path d="M257.651 223.827C257.932 223.943 258.114 224.217 258.114 224.52V228.832L262.52 233.238C262.735 233.452 262.799 233.775 262.683 234.055C262.567 234.335 262.293 234.518 261.99 234.518H259.176L262.516 237.857C262.58 237.919 262.633 237.994 262.672 238.078C262.675 238.087 262.679 238.095 262.683 238.104C262.689 238.119 262.695 238.134 262.7 238.149C262.727 238.23 262.741 238.314 262.74 238.396M257.651 223.827L257.895 228.612C257.759 228.477 257.571 228.393 257.364 228.393V225.58L257.895 225.05L257.364 224.52H256.614V225.269L253.489 228.393H252.739V229.143L253.269 229.673L253.8 229.143H256.614V229.893M257.651 223.827C257.371 223.711 257.049 223.775 256.834 223.989L252.209 228.612C251.994 228.827 251.93 229.149 252.046 229.43C252.162 229.71 252.435 229.893 252.739 229.893H256.614M257.651 223.827L256.614 229.893M262.74 238.396C262.738 238.59 262.662 238.779 262.52 238.921L261.99 239.452V242.266V243.016H261.24H258.425L257.895 243.546L257.364 243.016V242.266H258.114L261.24 239.141H260.179M262.74 238.396V243.016C262.74 243.43 262.404 243.766 261.99 243.766H257.364C257.061 243.766 256.788 243.583 256.671 243.303C256.555 243.023 256.62 242.7 256.834 242.486L260.179 239.141M262.74 238.396L256.614 229.893M260.179 239.141L260.929 238.391L260.929 238.391H258.114H257.364V237.641V234.828L256.834 234.298C256.692 234.156 256.616 233.967 256.614 233.774M260.179 239.141H257.364C256.95 239.141 256.614 238.805 256.614 238.391V233.774M256.614 233.774V233.768V233.762M256.614 233.774C256.614 233.77 256.614 233.766 256.614 233.762M256.614 233.762C256.615 233.667 256.634 233.572 256.671 233.481C256.787 233.201 257.061 233.018 257.364 233.018V230.203L257.054 229.893H256.614M256.614 233.762V229.893" fill="#293972" stroke="#EAEBF1" stroke-width="1.5" stroke-linejoin="round"/>
<path d="M252.208 219.365C251.994 219.58 251.93 219.902 252.046 220.183C252.162 220.463 252.435 220.646 252.739 220.646H257.364C257.779 220.646 258.114 220.31 258.114 219.896V215.27C258.114 214.967 257.932 214.694 257.651 214.578C257.371 214.461 257.049 214.526 256.834 214.74L252.208 219.365Z" fill="#293972" stroke="#EAEBF1" stroke-width="1.5" stroke-linejoin="round"/>
<path d="M266.083 205.491C265.868 205.706 265.804 206.029 265.92 206.309C266.036 206.589 266.31 206.772 266.613 206.772H271.239C271.653 206.772 271.989 206.436 271.989 206.022V202.147H280.488C280.686 202.147 280.877 202.068 281.018 201.927L285.643 197.304C285.784 197.163 285.863 196.973 285.863 196.774V192.149C285.863 192.149 285.863 192.148 285.863 192.148V187.836L290.267 183.431C290.481 183.216 290.545 182.893 290.429 182.613C290.313 182.333 290.04 182.15 289.736 182.15H285.113C284.914 182.15 284.724 182.229 284.583 182.37L279.957 186.995C279.817 187.136 279.738 187.327 279.738 187.526C279.738 187.725 279.817 187.915 279.957 188.056L284.052 192.149L280.177 196.024H275.862C275.663 196.024 275.472 196.103 275.332 196.243L270.709 200.866C270.709 200.866 270.708 200.866 270.708 200.867L266.083 205.491Z" fill="#293972" stroke="#EAEBF1" stroke-width="1.5" stroke-linejoin="round"/>
<path d="M234.241 260.763C233.937 260.763 233.664 260.946 233.548 261.226C233.432 261.506 233.496 261.829 233.711 262.043L238.336 266.668C238.477 266.809 238.668 266.888 238.866 266.888H243.49H248.115C248.419 266.888 248.692 266.705 248.808 266.425C248.924 266.145 248.86 265.822 248.646 265.608L244.02 260.983C243.879 260.842 243.689 260.763 243.49 260.763H234.241Z" fill="#293972" stroke="#EAEBF1" stroke-width="1.5" stroke-linejoin="round"/>
<path d="M252.208 256.36C252.068 256.5 251.989 256.691 251.989 256.89C251.989 257.089 252.068 257.28 252.209 257.42L256.834 262.043C257.049 262.258 257.371 262.322 257.651 262.206C257.932 262.09 258.114 261.816 258.114 261.513V256.89V252.265C258.114 251.961 257.932 251.688 257.651 251.572C257.371 251.456 257.049 251.52 256.834 251.734L252.208 256.36Z" fill="#293972" stroke="#EAEBF1" stroke-width="1.5" stroke-linejoin="round"/>
<path d="M229.085 248.172L229.085 248.172L233.711 252.795C233.925 253.009 234.248 253.073 234.528 252.957C234.808 252.841 234.991 252.568 234.991 252.264V247.641C234.991 247.443 234.912 247.252 234.771 247.111L230.146 242.486L230.146 242.486L225.522 237.861C225.308 237.646 224.985 237.582 224.705 237.698C224.425 237.814 224.242 238.088 224.242 238.391V243.016C224.242 243.215 224.321 243.406 224.462 243.547L229.085 248.172Z" fill="#293972" stroke="#EAEBF1" stroke-width="1.5" stroke-linejoin="round"/>
<path d="M271.987 178.275C271.987 178.076 271.908 177.885 271.767 177.744L262.738 168.716V164.404C262.738 163.989 262.402 163.654 261.988 163.654H257.363C257.164 163.654 256.973 163.733 256.833 163.873L252.207 168.496C252.066 168.637 251.987 168.828 251.987 169.027V172.902H238.865H234.55L230.144 168.496C230.003 168.356 229.813 168.277 229.614 168.277H224.99C224.791 168.277 224.601 168.356 224.46 168.496L220.054 172.902H206.801L197.772 163.873C197.631 163.733 197.44 163.654 197.241 163.654H192.929L188.523 159.248C188.382 159.107 188.191 159.028 187.993 159.028H183.367C183.168 159.028 182.977 159.108 182.837 159.248L178.433 163.654H174.118C173.704 163.654 173.368 163.989 173.368 164.404V168.277H160.244C160.045 168.277 159.854 168.356 159.713 168.496L155.09 173.122C154.797 173.415 154.797 173.889 155.09 174.182L159.713 178.805C159.854 178.946 160.045 179.025 160.244 179.025H163.058L159.713 182.37C159.573 182.51 159.494 182.701 159.494 182.9C159.494 183.099 159.573 183.29 159.713 183.43L164.119 187.836V196.023H160.554L156.151 191.618C156.01 191.477 155.819 191.398 155.62 191.398C155.421 191.398 155.231 191.477 155.09 191.618L146.058 200.646H141.746C141.332 200.646 140.996 200.982 140.996 201.396V205.271H137.12C136.706 205.271 136.37 205.607 136.37 206.021V210.647C136.37 210.846 136.449 211.036 136.59 211.177L141.215 215.8L141.216 215.8L145.619 220.205V224.52C145.619 224.719 145.698 224.91 145.839 225.05L150.464 229.673L150.464 229.673L155.09 234.298C155.231 234.439 155.421 234.518 155.62 234.518C155.819 234.518 156.01 234.439 156.151 234.298L160.554 229.893H164.869H169.492C169.691 229.893 169.882 229.814 170.023 229.673L174.648 225.05C174.789 224.91 174.868 224.719 174.868 224.52V219.895C174.868 219.696 174.789 219.505 174.648 219.364L171.303 216.02H183.056L187.243 220.205V224.52C187.243 224.934 187.578 225.27 187.993 225.27H191.868V229.143V233.768C191.868 233.967 191.947 234.158 192.088 234.298L196.711 238.921C196.852 239.062 197.043 239.141 197.241 239.141H201.867C202.281 239.141 202.617 238.805 202.617 238.391V233.768V229.893H206.49C206.905 229.893 207.24 229.557 207.24 229.143V225.27H211.116C211.315 225.27 211.506 225.191 211.646 225.05L215.741 220.956L219.615 224.831V229.143C219.615 229.557 219.951 229.893 220.365 229.893H224.24V233.768V238.391C224.24 238.694 224.423 238.968 224.703 239.084C224.984 239.2 225.306 239.136 225.521 238.921L229.614 234.829L233.709 238.922C233.85 239.062 234.04 239.141 234.239 239.141H238.865C239.064 239.141 239.255 239.062 239.395 238.921L244.019 234.298C244.311 234.006 244.311 233.531 244.019 233.238L239.395 228.613L239.395 228.612L235.3 224.52L239.176 220.645H248.114C248.313 220.645 248.503 220.566 248.644 220.425L257.893 211.177C258.034 211.036 258.113 210.846 258.113 210.647V201.396C258.113 201.197 258.034 201.006 257.893 200.866L253.798 196.773L257.363 193.209L261.238 197.084V201.396C261.238 201.81 261.574 202.146 261.988 202.146H266.612C267.026 202.146 267.362 201.81 267.362 201.396V196.773V192.459L271.767 188.056C271.908 187.915 271.987 187.724 271.987 187.525V182.9V178.275ZM164.559 211.397L167.682 214.52H164.869H160.554L157.431 211.397H164.559Z" fill="#293972" stroke="#EAEBF1" stroke-width="1.5" stroke-linejoin="round"/>
<path d="M247.365 298.508C247.365 298.707 247.444 298.897 247.585 299.038L252.208 303.663C252.349 303.804 252.54 303.883 252.739 303.883H257.364C257.563 303.883 257.754 303.804 257.894 303.663L262.3 299.258H266.613C266.812 299.258 267.003 299.179 267.143 299.038L271.238 294.945L275.112 298.819V303.133C275.112 303.547 275.448 303.883 275.862 303.883H280.177L284.583 308.286C284.724 308.427 284.914 308.506 285.113 308.506H294.362C294.776 308.506 295.112 308.17 295.112 307.756V303.444L299.516 299.038C299.656 298.897 299.735 298.707 299.735 298.508V284.634C299.735 284.436 299.656 284.245 299.516 284.104L290.486 275.076V270.763C290.486 270.565 290.407 270.374 290.267 270.233L285.644 265.608C285.429 265.393 285.106 265.329 284.826 265.445C284.546 265.561 284.363 265.835 284.363 266.138V274.636H280.798L276.612 270.453V266.138C276.612 265.724 276.276 265.388 275.862 265.388H271.239C271.04 265.388 270.849 265.467 270.708 265.608L266.302 270.013H261.99C261.791 270.013 261.6 270.092 261.46 270.233L256.834 274.856L256.834 274.856L252.208 279.481L247.585 284.104C247.444 284.245 247.365 284.436 247.365 284.634V289.26V298.508Z" fill="#293972" stroke="#EAEBF1" stroke-width="1.5" stroke-linejoin="round"/>
<path d="M271.238 251.515C270.935 251.515 270.661 251.697 270.545 251.978C270.429 252.258 270.493 252.58 270.708 252.795L275.331 257.42L275.331 257.42L279.957 262.043C280.097 262.184 280.288 262.263 280.487 262.263H289.425L293.831 266.668C294.046 266.883 294.368 266.947 294.648 266.831C294.929 266.715 295.111 266.441 295.111 266.138V261.513C295.111 261.314 295.032 261.123 294.892 260.982L290.266 256.359C290.125 256.219 289.935 256.14 289.736 256.14H285.423L281.017 251.734C280.877 251.594 280.686 251.515 280.487 251.515H275.861H271.238Z" fill="#293972" stroke="#EAEBF1" stroke-width="1.5" stroke-linejoin="round"/>
<path d="M204.333 206.66L229.24 171.143C232.04 166.626 233.667 161.302 233.667 155.575C233.667 139.228 220.547 126 204.333 126C188.12 126 175 139.228 175 155.575C175 161.302 176.627 166.626 179.427 171.143L204.333 206.66Z" fill="#FF5300" stroke="#293972" stroke-width="2" stroke-miterlimit="10" stroke-linejoin="round"/>
<path d="M204.333 166.33C210.224 166.33 215 161.515 215 155.575C215 149.636 210.224 144.821 204.333 144.821C198.442 144.821 193.667 149.636 193.667 155.575C193.667 161.515 198.442 166.33 204.333 166.33Z" fill="#293972" stroke="#293972" stroke-width="2" stroke-miterlimit="10" stroke-linejoin="round"/>
</g>
<path d="M299.048 60.0391C298.497 60.0723 298.077 60.5462 298.11 61.0974L298.652 70.0811C298.685 70.6324 299.159 71.0524 299.71 71.0191C300.262 70.9859 300.682 70.512 300.648 69.9607L300.167 61.9752L308.152 61.4937C308.704 61.4605 309.124 60.9866 309.09 60.4353C309.057 59.8841 308.583 59.4641 308.032 59.4974L299.048 60.0391ZM61.3511 152.877C60.8681 157.651 60.6232 162.5 60.6232 167.402H62.6232C62.6232 162.566 62.8647 157.785 63.3409 153.078L61.3511 152.877ZM60.6232 167.402C60.6232 246.584 124.893 310.652 204.312 310.652V308.652C125.992 308.652 62.6232 245.473 62.6232 167.402H60.6232ZM204.312 310.652C283.73 310.652 348 246.584 348 167.402H346C346 245.473 282.631 308.652 204.312 308.652V310.652ZM348 167.402C348 124.773 329.367 86.5179 299.772 60.2889L298.445 61.7856C327.63 87.6512 346 125.369 346 167.402H348Z" fill="#293972"/>
<path d="M65.1253 132.581C65.4076 133.056 66.0212 133.212 66.4959 132.929L74.2318 128.33C74.7065 128.048 74.8625 127.434 74.5802 126.959C74.2979 126.484 73.6843 126.328 73.2096 126.611L66.3333 130.699L62.2447 123.823C61.9624 123.348 61.3488 123.192 60.8741 123.475C60.3994 123.757 60.2434 124.37 60.5256 124.845L65.1253 132.581ZM266.433 38.1171C247.573 29.0039 226.405 23.8978 204.045 23.8978V25.8978C226.098 25.8978 246.969 30.9331 265.563 39.9179L266.433 38.1171ZM204.045 23.8978C137.012 23.8978 80.7978 69.7466 65.0157 131.824L66.954 132.316C82.5159 71.1055 137.948 25.8978 204.045 25.8978V23.8978Z" fill="#293972"/>
<path d="M313.378 140.28C312.907 139.993 312.292 140.143 312.004 140.614L307.324 148.301C307.036 148.773 307.186 149.388 307.658 149.676C308.129 149.963 308.745 149.813 309.032 149.341L313.192 142.508L320.025 146.669C320.497 146.956 321.112 146.807 321.4 146.335C321.687 145.863 321.537 145.248 321.066 144.961L313.378 140.28ZM311.887 141.371C313.923 149.746 315 158.495 315 167.5H317C317 158.334 315.903 149.427 313.83 140.898L311.887 141.371ZM315 167.5C315 228.576 265.359 278 203.997 278V280C266.455 280 317 229.689 317 167.5H315ZM203.997 278C142.634 278 93 228.569 93 167.5H91C91 229.682 141.538 280 203.997 280V278ZM93 167.5C93 106.431 142.641 57 204.003 57V55C141.545 55 91 105.318 91 167.5H93ZM204.003 57C243.752 57 278.585 77.7415 298.193 108.96L299.886 107.896C279.926 76.1163 244.464 55 204.003 55V57Z" fill="#293972"/>
<path d="M61.6232 160.646C64.9369 160.646 67.6232 157.96 67.6232 154.646C67.6232 151.332 64.9369 148.646 61.6232 148.646C58.3095 148.646 55.6232 151.332 55.6232 154.646C55.6232 157.96 58.3095 160.646 61.6232 160.646Z" fill="#FCAA00" stroke="white" stroke-width="2" stroke-miterlimit="10"/>
<path d="M301 119C304.314 119 307 116.314 307 113C307 109.686 304.314 107 301 107C297.686 107 295 109.686 295 113C295 116.314 297.686 119 301 119Z" fill="#FCAA00" stroke="white" stroke-width="2" stroke-miterlimit="10"/>
<path d="M271 48C274.314 48 277 45.3137 277 42C277 38.6863 274.314 36 271 36C267.686 36 265 38.6863 265 42C265 45.3137 267.686 48 271 48Z" fill="#FCAA00" stroke="white" stroke-width="2" stroke-miterlimit="10"/>
<circle cx="127" cy="48" r="22" fill="#C1E2D2" stroke="white" stroke-width="2"/>
<g clip-path="url(#clip0_5201_26962)">
<path d="M135.337 59.4906L136.922 58.6981L137.714 57.1132L136.922 48.3962L136.129 46.8113L128.997 45.2264V42.8491H129.789L131.374 41.2642V37.3019L129.789 35.717H125.035L123.45 37.3019V41.2642L125.035 42.8491H125.827V45.2264L118.695 46.8113L117.903 48.3962L117.11 57.1132L117.903 58.6981L119.488 59.4906" stroke="#293972" stroke-width="2" stroke-miterlimit="10"/>
<path d="M121.073 59.4906H133.752" stroke="#293972" stroke-width="2" stroke-miterlimit="10"/>
<path d="M121.073 50.7736L121.865 57.1132V57.9057" stroke="#293972" stroke-width="2" stroke-miterlimit="10"/>
<path d="M133.752 50.7736L132.959 57.1132V57.9057" stroke="#293972" stroke-width="2" stroke-miterlimit="10"/>
<path d="M121.865 49.9811H132.959" stroke="#293972" stroke-width="2" stroke-miterlimit="10"/>
<path d="M121.073 50.7736C121.073 50.3378 121.429 49.9811 121.865 49.9811" stroke="#293972" stroke-width="2" stroke-miterlimit="10"/>
<path d="M133.752 50.7736C133.752 50.3378 133.395 49.9811 132.959 49.9811" stroke="#293972" stroke-width="2" stroke-miterlimit="10"/>
</g>
<circle cx="346" cy="188" r="22" fill="#C1E2D2" stroke="white" stroke-width="2"/>
<g clip-path="url(#clip1_5201_26962)">
<path d="M354.337 199.491L355.922 198.698L356.714 197.113L355.922 188.396L355.129 186.811L347.997 185.226V182.849H348.789L350.374 181.264V177.302L348.789 175.717H344.035L342.45 177.302V181.264L344.035 182.849H344.827V185.226L337.695 186.811L336.903 188.396L336.11 197.113L336.903 198.698L338.488 199.491" stroke="#293972" stroke-width="2" stroke-miterlimit="10"/>
<path d="M340.073 199.491H352.752" stroke="#293972" stroke-width="2" stroke-miterlimit="10"/>
<path d="M340.073 190.774L340.865 197.113V197.906" stroke="#293972" stroke-width="2" stroke-miterlimit="10"/>
<path d="M352.752 190.774L351.959 197.113V197.906" stroke="#293972" stroke-width="2" stroke-miterlimit="10"/>
<path d="M340.865 189.981H351.959" stroke="#293972" stroke-width="2" stroke-miterlimit="10"/>
<path d="M340.073 190.774C340.073 190.338 340.429 189.981 340.865 189.981" stroke="#293972" stroke-width="2" stroke-miterlimit="10"/>
<path d="M352.752 190.774C352.752 190.338 352.395 189.981 351.959 189.981" stroke="#293972" stroke-width="2" stroke-miterlimit="10"/>
</g>
<circle cx="126" cy="287" r="22" fill="#C1E2D2" stroke="white" stroke-width="2"/>
<g clip-path="url(#clip2_5201_26962)">
<path d="M134.337 298.491L135.922 297.698L136.714 296.113L135.922 287.396L135.129 285.811L127.997 284.226V281.849H128.789L130.374 280.264V276.302L128.789 274.717H124.035L122.45 276.302V280.264L124.035 281.849H124.827V284.226L117.695 285.811L116.903 287.396L116.11 296.113L116.903 297.698L118.488 298.491" stroke="#293972" stroke-width="2" stroke-miterlimit="10"/>
<path d="M120.073 298.491H132.752" stroke="#293972" stroke-width="2" stroke-miterlimit="10"/>
<path d="M120.073 289.774L120.865 296.113V296.906" stroke="#293972" stroke-width="2" stroke-miterlimit="10"/>
<path d="M132.752 289.774L131.959 296.113V296.906" stroke="#293972" stroke-width="2" stroke-miterlimit="10"/>
<path d="M120.865 288.981H131.959" stroke="#293972" stroke-width="2" stroke-miterlimit="10"/>
<path d="M120.073 289.774C120.073 289.338 120.429 288.981 120.865 288.981" stroke="#293972" stroke-width="2" stroke-miterlimit="10"/>
<path d="M132.752 289.774C132.752 289.338 132.395 288.981 131.959 288.981" stroke="#293972" stroke-width="2" stroke-miterlimit="10"/>
</g>
<defs>
<clipPath id="clip0_5201_26962">
<rect width="22.2204" height="25.3585" fill="white" transform="translate(116.302 34.9245)"/>
</clipPath>
<clipPath id="clip1_5201_26962">
<rect width="22.2204" height="25.3585" fill="white" transform="translate(335.302 174.925)"/>
</clipPath>
<clipPath id="clip2_5201_26962">
<rect width="22.2204" height="25.3585" fill="white" transform="translate(115.302 273.925)"/>
</clipPath>
</defs>
</svg>
