<svg width="404" height="330" viewBox="0 0 404 330" fill="none" xmlns="http://www.w3.org/2000/svg">
<g clip-path="url(#clip0_5373_12945)">
<path d="M104.163 63H332.837C339.002 63 344 67.9997 344 74.1682V257.832C344 264 339.002 269 332.837 269H104.163C97.9981 269 93 264 93 257.832V74.1682C93 67.9997 97.9981 63 104.163 63Z" fill="#293972" stroke="#293972" stroke-width="2"/>
<path d="M297.054 54.4157V28.5189H147.9V80.3126" fill="#293972"/>
<path d="M297.054 54.4157V28.5189H147.9V80.3126" stroke="white" stroke-width="2" stroke-miterlimit="10"/>
<path d="M318.895 80.3125V52.5475H173.796V80.3125" fill="#293972"/>
<path d="M318.895 80.3125V52.5475H173.796V80.3125" stroke="white" stroke-width="2" stroke-miterlimit="10"/>
<path d="M346 151V103.261C346 96.5176 340.553 91 333.896 91H111" stroke="white" stroke-width="2" stroke-miterlimit="10"/>
<path d="M281.455 152.398H344.382C350.64 152.398 355.713 157.472 355.713 163.729V198.466C355.713 204.724 350.64 209.797 344.382 209.797H281.455C265.613 209.797 252.748 196.932 252.748 181.09C252.748 165.248 265.613 152.383 281.455 152.383V152.398Z" fill="#293972" stroke="white" stroke-width="2" stroke-miterlimit="10"/>
<path d="M287.196 195.778C295.299 195.778 301.868 189.209 301.868 181.105C301.868 173.002 295.299 166.433 287.196 166.433C279.092 166.433 272.523 173.002 272.523 181.105C272.523 189.209 279.092 195.778 287.196 195.778Z" stroke="white" stroke-width="2" stroke-miterlimit="10"/>
<path d="M173.797 120.328L217.972 207.554C218.465 208.529 218.531 209.179 218.531 209.439C218.301 209.569 217.675 209.797 216.589 209.797H131.004C129.885 209.797 129.292 209.569 129.062 209.439C129.062 209.179 129.128 208.529 129.622 207.554L173.797 120.328Z" fill="#FF5300" stroke="#FF5300" stroke-width="2.62504" stroke-linecap="round" stroke-linejoin="round"/>
<path d="M173.796 156.115L173.796 178.483" stroke="white" stroke-width="5" stroke-miterlimit="10" stroke-linecap="round" stroke-linejoin="round"/>
<ellipse cx="173.796" cy="190.625" rx="3.83439" ry="3.83439" fill="white"/>
</g>
<path d="M72.5529 303.233H146.857C162.726 303.233 175.537 290.267 175.537 274.553C175.537 258.835 162.575 245.873 146.857 245.873H72.5529C56.835 245.873 43.8729 258.835 43.8729 274.553C43.8729 290.271 56.835 303.233 72.5529 303.233Z" fill="#EAEBF1" stroke="white" stroke-width="2.25416" stroke-miterlimit="10"/>
<path d="M103.838 279.135C103.225 279.135 102.702 279.072 102.269 278.946C101.846 278.82 101.44 278.639 101.052 278.405V276.566C101.422 276.827 101.855 277.048 102.35 277.228C102.846 277.4 103.333 277.485 103.811 277.485C104.271 277.485 104.627 277.391 104.88 277.201C105.132 277.012 105.258 276.732 105.258 276.363C105.258 276.083 105.182 275.858 105.028 275.686C104.884 275.506 104.699 275.371 104.474 275.281C104.248 275.181 103.933 275.073 103.527 274.956C102.977 274.794 102.535 274.631 102.202 274.469C101.868 274.307 101.58 274.045 101.336 273.685C101.093 273.324 100.971 272.833 100.971 272.21C100.971 271.669 101.102 271.196 101.363 270.79C101.634 270.385 102.008 270.074 102.486 269.857C102.964 269.641 103.509 269.533 104.122 269.533C105.123 269.533 105.971 269.717 106.665 270.087V271.872C106.277 271.638 105.858 271.453 105.407 271.318C104.965 271.183 104.573 271.115 104.23 271.115C103.762 271.115 103.401 271.21 103.148 271.399C102.896 271.588 102.77 271.836 102.77 272.143C102.77 272.422 102.842 272.648 102.986 272.819C103.139 272.99 103.324 273.126 103.541 273.225C103.757 273.315 104.073 273.423 104.487 273.549C105.028 273.712 105.47 273.879 105.813 274.05C106.155 274.212 106.449 274.474 106.692 274.834C106.935 275.195 107.057 275.677 107.057 276.281C107.057 277.174 106.773 277.873 106.205 278.378C105.646 278.883 104.857 279.135 103.838 279.135ZM114.508 279.135C113.606 279.135 112.777 278.923 112.019 278.5C111.271 278.076 110.676 277.499 110.234 276.768C109.801 276.038 109.585 275.227 109.585 274.334C109.585 273.441 109.801 272.63 110.234 271.899C110.676 271.169 111.271 270.592 112.019 270.168C112.777 269.744 113.606 269.533 114.508 269.533C115.031 269.533 115.536 269.6 116.023 269.735C116.509 269.871 116.866 270.006 117.091 270.141V271.953C116.721 271.746 116.334 271.575 115.928 271.44C115.531 271.295 115.053 271.223 114.494 271.223C113.935 271.223 113.417 271.354 112.939 271.615C112.47 271.877 112.096 272.247 111.816 272.724C111.546 273.193 111.411 273.73 111.411 274.334C111.411 274.938 111.546 275.479 111.816 275.957C112.096 276.426 112.47 276.791 112.939 277.052C113.417 277.314 113.935 277.445 114.494 277.445C115.053 277.445 115.531 277.377 115.928 277.242C116.334 277.097 116.721 276.922 117.091 276.714V278.527C116.866 278.662 116.509 278.797 116.023 278.932C115.536 279.068 115.031 279.135 114.508 279.135ZM122.233 276.904L121.543 279H119.703L122.611 271.074H121.529V269.668H124.694C124.847 269.668 124.951 269.686 125.005 269.722C125.068 269.758 125.118 269.83 125.154 269.938L128.4 279H126.534L125.83 276.904H122.233ZM125.303 275.308L124.031 271.575L122.787 275.308H125.303ZM131.135 269.668H133.232L136.018 274.618L138.777 269.668H140.9V279H139.142V272.116L136.762 276.593H135.315L132.894 272.102V279H131.135V269.668Z" fill="#293972"/>
<circle cx="77.3542" cy="274.328" r="7.32787" fill="#FF5300"/>
<defs>
<clipPath id="clip0_5373_12945">
<rect width="264.877" height="242.914" fill="white" transform="translate(92.3545 27)"/>
</clipPath>
</defs>
</svg>
