<svg width="408" height="300" viewBox="0 0 408 300" fill="none" xmlns="http://www.w3.org/2000/svg">
<path d="M39.9312 147.119C39.9312 149.227 41.6401 150.936 43.7482 150.936C45.8563 150.936 47.5653 149.227 47.5653 147.119C47.5653 145.011 45.8563 143.302 43.7482 143.302C41.6401 143.302 39.9312 145.011 39.9312 147.119ZM71.9002 146.403L43.7482 146.403L43.7482 147.834L71.9002 147.834L71.9002 146.403Z" fill="#293972"/>
<path d="M372.847 97.4966C372.847 95.3885 371.138 93.6795 369.03 93.6795C366.921 93.6795 365.212 95.3885 365.212 97.4966C365.212 99.6047 366.921 101.314 369.03 101.314C371.138 101.314 372.847 99.6047 372.847 97.4966ZM320.092 98.2122L369.03 98.2123L369.03 96.7809L320.092 96.7808L320.092 98.2122Z" fill="#293972"/>
<path d="M383.945 199.019H384.661V198.303L383.945 198.303L383.945 199.019ZM387.762 223.751C387.762 221.643 386.053 219.934 383.945 219.934C381.837 219.934 380.128 221.643 380.128 223.751C380.128 225.859 381.837 227.568 383.945 227.568C386.053 227.568 387.762 225.859 387.762 223.751ZM331.43 199.734L383.945 199.734L383.945 198.303L331.43 198.303L331.43 199.734ZM383.23 199.019L383.23 223.751H384.661L384.661 199.019H383.23Z" fill="#293972"/>
<path d="M25.0001 97.6623L24.2844 97.6623L24.2844 98.378L25.0001 98.378L25.0001 97.6623ZM21.183 71.9526C21.183 74.0607 22.892 75.7697 25.0001 75.7697C27.1082 75.7697 28.8172 74.0607 28.8172 71.9526C28.8172 69.8445 27.1082 68.1356 25.0001 68.1356C22.892 68.1356 21.183 69.8445 21.183 71.9526ZM84.1101 96.9466L25.0001 96.9466L25.0001 98.378L84.1101 98.378L84.1101 96.9466ZM25.7158 97.6623L25.7158 71.9526L24.2844 71.9526L24.2844 97.6623L25.7158 97.6623Z" fill="#293972"/>
<path d="M72.025 50.2651C72.025 52.3732 73.7339 54.0822 75.842 54.0822C77.9501 54.0822 79.6591 52.3732 79.6591 50.2651C79.6591 48.157 77.9501 46.4481 75.842 46.4481C73.7339 46.4481 72.025 48.157 72.025 50.2651ZM125.686 49.5494L75.842 49.5494L75.842 50.9808L125.686 50.9808L125.686 49.5494Z" fill="#293972"/>
<path d="M72.025 248.752C72.025 250.861 73.7339 252.57 75.842 252.57C77.9501 252.57 79.6591 250.861 79.6591 248.752C79.6591 246.644 77.9501 244.935 75.842 244.935C73.7339 244.935 72.025 246.644 72.025 248.752ZM125.686 248.037L75.842 248.037L75.842 249.468L125.686 249.468L125.686 248.037Z" fill="#293972"/>
<path d="M309.748 16.8245C307.64 16.8245 305.931 18.5335 305.931 20.6416C305.931 22.7497 307.64 24.4587 309.748 24.4587C311.856 24.4587 313.565 22.7497 313.565 20.6416C313.565 18.5335 311.856 16.8245 309.748 16.8245ZM310.464 75.1872L310.464 20.6416L309.033 20.6416L309.033 75.1872L310.464 75.1872Z" fill="#293972"/>
<circle cx="208.481" cy="149.544" r="136.544" fill="#EAEBF1"/>
<mask id="mask0_5257_58916" style="mask-type:alpha" maskUnits="userSpaceOnUse" x="71" y="13" width="275" height="274">
<circle cx="208.481" cy="149.544" r="136.544" fill="white"/>
</mask>
<g mask="url(#mask0_5257_58916)">
<path d="M195.21 224.485C195.076 224.619 195 224.801 195 224.991V231.37V237.453L188.83 243.619C188.696 243.753 188.62 243.935 188.62 244.125V256.881C188.62 257.071 188.696 257.253 188.83 257.387L207.756 276.312V301.232L201.587 307.399C201.452 307.533 201.377 307.715 201.377 307.905V339.795V358.929C201.377 359.119 201.452 359.301 201.586 359.435L207.966 365.815C208.1 365.949 208.282 366.024 208.472 366.024H214.852C215.247 366.024 215.568 365.704 215.568 365.309V358.929C215.568 358.74 215.492 358.557 215.358 358.423L209.485 352.55L215.358 346.68C215.492 346.546 215.568 346.364 215.568 346.174V333.715L227.905 321.376H233.985C234.38 321.376 234.701 321.056 234.701 320.66V314.581L240.871 308.411L240.871 308.411L247.25 302.035C247.385 301.901 247.46 301.719 247.46 301.529V295.446L253.418 289.486H259.501C259.691 289.486 259.873 289.411 260.007 289.277L266.383 282.9C266.518 282.766 266.593 282.584 266.593 282.394V269.936L272.763 263.766C272.897 263.632 272.973 263.45 272.973 263.26V250.505C272.973 250.109 272.652 249.789 272.257 249.789H266.174L260.007 243.619C259.873 243.485 259.691 243.41 259.501 243.41H247.46V237.749C247.46 237.559 247.385 237.377 247.25 237.243L240.871 230.864C240.736 230.73 240.554 230.654 240.365 230.654H234.281L228.114 224.485C227.98 224.351 227.798 224.275 227.608 224.275H215.148L208.978 218.109C208.844 217.974 208.662 217.899 208.472 217.899H202.092C201.903 217.899 201.721 217.974 201.586 218.109L195.21 224.485Z" fill="#293972" stroke="#F0F9FD" stroke-width="1.4314" stroke-linejoin="round"/>
<path d="M380.691 179.631C380.501 179.631 380.319 179.706 380.185 179.841L374.314 185.714L362.273 173.671V167.591C362.273 167.196 361.953 166.876 361.558 166.876H348.798C348.609 166.876 348.427 166.951 348.292 167.085L342.125 173.252H329.665C329.476 173.252 329.294 173.327 329.159 173.461L322.78 179.841L310.023 192.596C309.889 192.73 309.814 192.912 309.814 193.102V211.94L303.643 218.11C303.509 218.244 303.434 218.426 303.434 218.616C303.434 218.806 303.509 218.988 303.644 219.122L310.023 225.498L310.023 225.498L316.4 231.877L316.4 231.877L322.78 238.256C323.059 238.536 323.512 238.536 323.792 238.256L329.962 232.087H336.042H354.462V244.126C354.462 244.316 354.538 244.498 354.672 244.632L360.842 250.802V256.882C360.842 257.071 360.917 257.253 361.052 257.388L366.922 263.261L361.052 269.134C360.917 269.268 360.842 269.45 360.842 269.64V282.395C360.842 282.585 360.918 282.767 361.052 282.901L367.219 289.068V301.53C367.219 301.72 367.294 301.902 367.428 302.036L373.598 308.202V314.285C373.598 314.68 373.919 315.001 374.314 315.001H387.071C387.26 315.001 387.442 314.925 387.577 314.791L400.333 302.036C400.467 301.902 400.543 301.72 400.543 301.53V295.447L406.713 289.278C406.847 289.143 406.922 288.961 406.922 288.771V282.692L413.089 276.522L413.089 276.522L419.469 270.146C419.603 270.012 419.679 269.83 419.679 269.64C419.679 269.45 419.603 269.268 419.469 269.134L413.299 262.964V250.802L419.469 244.632L419.469 244.632L425.849 238.256L425.849 238.256L432.226 231.877C432.36 231.743 432.435 231.561 432.435 231.371V224.992V218.616C432.435 218.22 432.115 217.9 431.719 217.9H419.259L413.089 211.73L406.922 205.564V199.481C406.922 199.291 406.847 199.109 406.713 198.975L400.543 192.805V186.726V180.347C400.543 179.951 400.222 179.631 399.827 179.631H387.071H380.691Z" fill="#293972" stroke="#F0F9FD" stroke-width="1.4314" stroke-linejoin="round"/>
<mask id="path-12-outside-1_5257_58916" maskUnits="userSpaceOnUse" x="27.8738" y="31.6514" width="208" height="202" fill="black">
<rect fill="white" x="27.8738" y="31.6514" width="208" height="202"/>
<path d="M195.716 224.99H189.336L182.959 218.614V212.235H176.58V205.859H170.2H163.823L157.444 199.48V186.724H170.2H182.959L189.336 193.101V180.345L195.716 173.966V167.59L202.092 161.211L208.472 154.835L214.852 148.455H221.228V142.076L214.852 135.7H221.228H227.608L233.985 129.321V122.945L221.228 110.186V103.81H214.852H208.472V97.431L202.092 91.0549H195.716V103.81V110.186L189.336 116.566L195.716 122.945L189.336 129.321L182.959 122.945L176.58 116.566L170.2 110.186L163.823 103.81V97.431L170.2 91.0549L176.58 84.6757V78.2965L182.959 71.9204H189.336V65.5412H182.959H176.58L170.2 59.1651L163.823 52.7859V40.0306L170.2 33.6514H151.067V40.0306L157.444 46.4067V52.7859L163.823 59.1651V65.5412H157.444H138.308V71.9204H131.931L125.551 65.5412L119.175 59.1651H106.415L100.038 52.7859L93.6587 59.1651H87.279V65.5412L80.9024 59.1651H68.146L61.7663 52.7859H42.6302L29.8738 65.5412L36.2536 71.9204L29.8738 78.2965V84.6757H36.2536V91.0549L29.8738 97.431L42.6302 110.186H49.0099L55.3865 103.81H61.7663L68.146 97.431L80.9024 110.186H87.279L100.038 122.945V129.321L106.415 135.7V161.211L119.175 173.966L144.687 199.48V205.859L151.067 212.235H157.444H163.823L170.2 218.614H176.58L182.959 224.99L189.336 231.37H195.716V224.99Z"/>
</mask>
<path d="M195.716 224.99H189.336L182.959 218.614V212.235H176.58V205.859H170.2H163.823L157.444 199.48V186.724H170.2H182.959L189.336 193.101V180.345L195.716 173.966V167.59L202.092 161.211L208.472 154.835L214.852 148.455H221.228V142.076L214.852 135.7H221.228H227.608L233.985 129.321V122.945L221.228 110.186V103.81H214.852H208.472V97.431L202.092 91.0549H195.716V103.81V110.186L189.336 116.566L195.716 122.945L189.336 129.321L182.959 122.945L176.58 116.566L170.2 110.186L163.823 103.81V97.431L170.2 91.0549L176.58 84.6757V78.2965L182.959 71.9204H189.336V65.5412H182.959H176.58L170.2 59.1651L163.823 52.7859V40.0306L170.2 33.6514H151.067V40.0306L157.444 46.4067V52.7859L163.823 59.1651V65.5412H157.444H138.308V71.9204H131.931L125.551 65.5412L119.175 59.1651H106.415L100.038 52.7859L93.6587 59.1651H87.279V65.5412L80.9024 59.1651H68.146L61.7663 52.7859H42.6302L29.8738 65.5412L36.2536 71.9204L29.8738 78.2965V84.6757H36.2536V91.0549L29.8738 97.431L42.6302 110.186H49.0099L55.3865 103.81H61.7663L68.146 97.431L80.9024 110.186H87.279L100.038 122.945V129.321L106.415 135.7V161.211L119.175 173.966L144.687 199.48V205.859L151.067 212.235H157.444H163.823L170.2 218.614H176.58L182.959 224.99L189.336 231.37H195.716V224.99Z" fill="#293972"/>
<path d="M195.716 224.99H189.336L182.959 218.614V212.235H176.58V205.859H170.2H163.823L157.444 199.48V186.724H170.2H182.959L189.336 193.101V180.345L195.716 173.966V167.59L202.092 161.211L208.472 154.835L214.852 148.455H221.228V142.076L214.852 135.7H221.228H227.608L233.985 129.321V122.945L221.228 110.186V103.81H214.852H208.472V97.431L202.092 91.0549H195.716V103.81V110.186L189.336 116.566L195.716 122.945L189.336 129.321L182.959 122.945L176.58 116.566L170.2 110.186L163.823 103.81V97.431L170.2 91.0549L176.58 84.6757V78.2965L182.959 71.9204H189.336V65.5412H182.959H176.58L170.2 59.1651L163.823 52.7859V40.0306L170.2 33.6514H151.067V40.0306L157.444 46.4067V52.7859L163.823 59.1651V65.5412H157.444H138.308V71.9204H131.931L125.551 65.5412L119.175 59.1651H106.415L100.038 52.7859L93.6587 59.1651H87.279V65.5412L80.9024 59.1651H68.146L61.7663 52.7859H42.6302L29.8738 65.5412L36.2536 71.9204L29.8738 78.2965V84.6757H36.2536V91.0549L29.8738 97.431L42.6302 110.186H49.0099L55.3865 103.81H61.7663L68.146 97.431L80.9024 110.186H87.279L100.038 122.945V129.321L106.415 135.7V161.211L119.175 173.966L144.687 199.48V205.859L151.067 212.235H157.444H163.823L170.2 218.614H176.58L182.959 224.99L189.336 231.37H195.716V224.99Z" stroke="#F0F9FD" stroke-width="2.8628" stroke-linejoin="round" mask="url(#path-12-outside-1_5257_58916)"/>
<path d="M253.122 98.1473C253.311 98.1473 253.493 98.072 253.627 97.9378L260.007 91.5617L260.007 91.5615L266.384 85.1823C266.518 85.048 266.594 84.8661 266.594 84.6763V79.0128H272.258C272.447 79.0128 272.629 78.9374 272.764 78.8033L279.143 72.4272C279.278 72.293 279.353 72.1109 279.353 71.921V66.2575H291.394C291.789 66.2575 292.109 65.937 292.109 65.5418V59.8814H297.773C298.169 59.8814 298.489 59.5609 298.489 59.1657V46.4072V40.3275L304.656 34.1579C304.79 34.0237 304.866 33.8417 304.866 33.6519V14.5174C304.866 14.3276 304.79 14.1455 304.656 14.0113L298.489 7.84484V1.76209V-4.32065L304.656 -10.4871C304.79 -10.6213 304.866 -10.8034 304.866 -10.9932V-17.076L317.412 -29.6216C317.547 -29.7559 317.622 -29.9379 317.622 -30.1277V-36.507C317.622 -36.9022 317.302 -37.2227 316.906 -37.2227H304.15H297.773H291.394H285.73V-42.1674H291.394C291.583 -42.1674 291.766 -42.2428 291.9 -42.377L298.279 -48.7562C298.414 -48.8904 298.489 -49.0725 298.489 -49.2624C298.489 -49.4522 298.414 -49.6343 298.279 -49.7685L291.9 -56.1445L291.9 -56.1446L285.52 -62.5237C285.386 -62.6579 285.204 -62.7333 285.014 -62.7333H265.878C265.688 -62.7333 265.506 -62.6578 265.372 -62.5236L259.205 -56.3541H253.122C252.726 -56.3541 252.406 -56.0336 252.406 -55.6384V-49.978H246.745C246.555 -49.978 246.373 -49.9026 246.239 -49.7684L240.069 -43.5988H227.609C227.214 -43.5988 226.893 -43.2783 226.893 -42.8831V-36.8034L220.723 -30.6338L220.723 -30.6337L214.346 -24.2545C214.212 -24.1203 214.137 -23.9383 214.137 -23.7485V-17.3724V-11.2898L207.967 -5.12334L207.967 -5.12321L201.587 1.256C201.453 1.39022 201.377 1.57227 201.377 1.76209C201.377 1.95192 201.453 2.13396 201.587 2.26819L207.757 8.43777V14.5174C207.757 14.7072 207.832 14.8893 207.967 15.0235L214.346 21.4027C214.481 21.5369 214.663 21.6123 214.853 21.6123C215.042 21.6123 215.224 21.5368 215.359 21.4026L221.229 15.5297L233.27 27.5722V40.0311C233.27 40.221 233.345 40.4031 233.479 40.5373L246.029 53.083V58.8691L239.859 65.0355C239.725 65.1698 239.649 65.3519 239.649 65.5418V84.6763C239.649 84.8661 239.725 85.0482 239.859 85.1824L246.029 91.352V97.4316C246.029 97.8269 246.35 98.1473 246.745 98.1473H253.122Z" fill="#293972" stroke="#F0F9FD" stroke-width="1.4314" stroke-linejoin="round"/>
<path d="M183.466 77.7914C183.262 77.5866 182.954 77.5254 182.686 77.6361C182.419 77.7469 182.245 78.0079 182.245 78.2974V91.0558C182.245 91.451 182.565 91.7715 182.96 91.7715H189.337C189.732 91.7715 190.053 91.451 190.053 91.0558V84.6766C190.053 84.4868 189.977 84.3048 189.843 84.1706L183.466 77.7914Z" fill="#293972" stroke="#F0F9FD" stroke-width="1.4314" stroke-linejoin="round"/>
<path d="M207.46 71.9203L201.796 77.5808H189.336C189.047 77.5808 188.786 77.7552 188.675 78.0226C188.564 78.2901 188.625 78.5979 188.83 78.8026L195.21 85.1818C195.344 85.316 195.526 85.3914 195.716 85.3914H201.796L207.966 91.561C208.1 91.6952 208.282 91.7706 208.472 91.7706H214.852C215.247 91.7706 215.568 91.4502 215.568 91.0549V79.0122H221.229C221.624 79.0122 221.944 78.6918 221.944 78.2965V71.9204C221.944 71.7306 221.869 71.5486 221.735 71.4144L215.568 65.2448V59.1651C215.568 58.9753 215.492 58.7932 215.358 58.659L189.842 33.1453C189.708 33.0111 189.526 32.9357 189.336 32.9357H176.58C176.39 32.9357 176.208 33.0111 176.074 33.1453L169.694 39.5245C169.56 39.6587 169.484 39.8408 169.484 40.0306V46.4067C169.484 46.5965 169.56 46.7786 169.694 46.9128L175.864 53.0824V59.1651C175.864 59.5604 176.184 59.8808 176.58 59.8808H195.419L207.46 71.9203Z" fill="#293972" stroke="#F0F9FD" stroke-width="1.4314" stroke-linejoin="round"/>
<path d="M105.699 46.4068C105.699 46.8021 106.019 47.1225 106.414 47.1225H112.498L118.668 53.2921C118.802 53.4263 118.984 53.5017 119.174 53.5017H124.835V59.1652C124.835 59.3551 124.91 59.5372 125.044 59.6714L131.424 66.0475C131.704 66.3269 132.157 66.3268 132.436 66.0474L138.603 59.8809H151.066C151.356 59.8809 151.617 59.7065 151.727 59.4391C151.838 59.1716 151.777 58.8638 151.572 58.6591L145.402 52.4895V33.6515C145.402 33.2562 145.082 32.9358 144.686 32.9358H138.307C137.911 32.9358 137.591 33.2562 137.591 33.6515V39.315H125.847L119.68 33.1455L119.68 33.1453L113.3 26.7692C113.021 26.4899 112.568 26.4899 112.288 26.7692L105.908 33.1453C105.774 33.2795 105.699 33.4616 105.699 33.6515V46.4068Z" fill="#293972" stroke="#F0F9FD" stroke-width="1.4314" stroke-linejoin="round"/>
<path d="M195.716 64.8268C195.321 64.8268 195.001 65.1472 195.001 65.5425V71.9217C195.001 72.2112 195.175 72.4722 195.443 72.5829C195.71 72.6937 196.018 72.6324 196.223 72.4277L202.599 66.0485C202.804 65.8437 202.865 65.5359 202.754 65.2685C202.643 65.0011 202.382 64.8268 202.093 64.8268H195.716Z" fill="#293972" stroke="#F0F9FD" stroke-width="1.4314" stroke-linejoin="round"/>
<path d="M189.336 27.9912C189.732 27.9912 190.052 27.6708 190.052 27.2755V20.8963C190.052 20.501 189.732 20.1806 189.336 20.1806H176.876L171.928 15.2328H189.336C189.526 15.2328 189.708 15.1574 189.842 15.0233L196.222 8.6472C196.356 8.51297 196.432 8.33086 196.432 8.14098V2.05814L202.599 -4.11147C202.878 -4.39099 202.878 -4.84408 202.599 -5.12354L196.728 -10.9937L202.389 -16.6571H208.472C208.868 -16.6571 209.188 -16.9775 209.188 -17.3728V-23.4524L215.358 -29.622C215.492 -29.7562 215.568 -29.9382 215.568 -30.1281V-36.2108L221.735 -42.3773C221.869 -42.5115 221.944 -42.6935 221.944 -42.8834V-49.2626C221.944 -49.4524 221.869 -49.6344 221.735 -49.7687L215.358 -56.1448C215.224 -56.279 215.042 -56.3544 214.852 -56.3544H195.716C195.526 -56.3544 195.344 -56.279 195.21 -56.1449L188.83 -49.7688L188.83 -49.7685L182.663 -43.5991H176.58C176.39 -43.5991 176.208 -43.5237 176.074 -43.3896L169.694 -37.0135C169.56 -36.8793 169.484 -36.6972 169.484 -36.5073V-30.1281C169.484 -29.9382 169.56 -29.7562 169.694 -29.622L176.074 -23.2428C176.208 -23.1085 176.39 -23.0331 176.58 -23.0331H187.608L182.663 -18.0885H176.876L164.33 -30.6342C164.05 -30.9136 163.597 -30.9136 163.317 -30.6342L156.938 -24.2549C156.803 -24.1207 156.728 -23.9387 156.728 -23.7488V-17.3728C156.728 -17.1829 156.803 -17.0009 156.938 -16.8667L163.108 -10.6971V-4.61744C163.108 -4.42767 163.183 -4.24568 163.317 -4.11147L169.694 2.26774C169.828 2.40202 170.01 2.47747 170.2 2.47747H175.864V7.42528H170.2C170.01 7.42528 169.828 7.50068 169.694 7.63488L163.317 14.011C163.183 14.1452 163.108 14.3273 163.108 14.5171V20.8963C163.108 21.086 163.183 21.268 163.317 21.4023L169.694 27.7815C169.828 27.9157 170.01 27.9912 170.2 27.9912H189.336Z" fill="#293972" stroke="#F0F9FD" stroke-width="1.4314" stroke-linejoin="round"/>
<path d="M157.444 27.9907C157.84 27.9907 158.16 27.6703 158.16 27.275V14.5166C158.16 14.1213 157.84 13.8009 157.444 13.8009H151.068H144.688C144.398 13.8009 144.137 13.9753 144.027 14.2427C143.916 14.5102 143.977 14.818 144.182 15.0227L150.352 21.1923V27.275C150.352 27.6703 150.672 27.9907 151.068 27.9907H157.444Z" fill="#293972" stroke="#F0F9FD" stroke-width="1.4314" stroke-linejoin="round"/>
<path d="M145.195 21.4019C145.329 21.2677 145.405 21.0856 145.405 20.8958C145.405 20.706 145.329 20.5239 145.195 20.3897L138.815 14.0105C138.681 13.8763 138.499 13.8009 138.309 13.8009H131.933C131.643 13.8009 131.382 13.9752 131.271 14.2426C131.161 14.5101 131.222 14.8179 131.426 15.0226L136.582 20.1801H132.229L126.059 14.0105C125.925 13.8763 125.743 13.8009 125.553 13.8009C125.363 13.8009 125.181 13.8764 125.047 14.0106L118.67 20.3898C118.391 20.6693 118.391 21.1223 118.67 21.4018L125.047 27.781C125.181 27.9153 125.363 27.9907 125.553 27.9907H138.309C138.499 27.9907 138.681 27.9153 138.815 27.7811L145.195 21.4019Z" fill="#293972" stroke="#F0F9FD" stroke-width="1.4314" stroke-linejoin="round"/>
<path d="M112.078 20.8959C112.078 21.1854 112.253 21.4464 112.52 21.5571C112.787 21.6679 113.095 21.6067 113.3 21.402L126.056 8.64672C126.261 8.44204 126.322 8.1342 126.212 7.86675C126.101 7.59931 125.84 7.42493 125.55 7.42493H119.174C118.984 7.42493 118.802 7.50027 118.668 7.6344L112.288 14.0105C112.154 14.1447 112.078 14.3268 112.078 14.5167V20.8959Z" fill="#293972" stroke="#F0F9FD" stroke-width="1.4314" stroke-linejoin="round"/>
<path d="M163.824 27.9914C164.219 27.9914 164.539 27.671 164.539 27.2757V20.8965C164.539 20.607 164.365 20.346 164.097 20.2353C163.83 20.1245 163.522 20.1857 163.317 20.3904L156.938 26.7696C156.733 26.9743 156.672 27.2821 156.783 27.5496C156.893 27.817 157.154 27.9914 157.444 27.9914H163.824Z" fill="#293972" stroke="#F0F9FD" stroke-width="1.4314" stroke-linejoin="round"/>
<path d="M227.103 141.571C226.898 141.775 226.837 142.083 226.948 142.351C227.059 142.618 227.32 142.792 227.609 142.792H240.365C240.761 142.792 241.081 142.472 241.081 142.077V135.701C241.081 135.305 240.761 134.985 240.365 134.985H233.986C233.796 134.985 233.614 135.06 233.48 135.195L227.103 141.571Z" fill="#293972" stroke="#F0F9FD" stroke-width="1.4314" stroke-linejoin="round"/>
<path d="M297.773 77.5818C297.378 77.5818 297.058 77.9022 297.058 78.2975V84.6767C297.058 85.072 297.378 85.3924 297.773 85.3924H304.15H310.53C310.72 85.3924 310.902 85.317 311.036 85.1827L317.412 78.8035C317.692 78.5239 317.692 78.0708 317.412 77.7914L311.036 71.4153C310.756 71.1359 310.303 71.1358 310.024 71.4152L303.854 77.5818H297.773Z" fill="#293972" stroke="#F0F9FD" stroke-width="1.4314" stroke-linejoin="round"/>
<path d="M419.468 154.329C419.188 154.049 418.735 154.049 418.456 154.329L412.582 160.199L406.711 154.329C406.577 154.195 406.395 154.119 406.205 154.119H399.826H394.165V148.752L400.122 142.792H412.582C412.977 142.792 413.298 142.472 413.298 142.076V135.7C413.298 135.511 413.222 135.329 413.088 135.194L406.712 128.815C406.577 128.681 406.395 128.605 406.205 128.605H400.541V122.945C400.541 122.755 400.466 122.573 400.332 122.439L394.165 116.269V103.811C394.165 103.415 393.844 103.095 393.449 103.095H387.069C386.88 103.095 386.698 103.17 386.563 103.304L380.184 109.68C380.049 109.815 379.974 109.997 379.974 110.187V115.85H374.313C374.123 115.85 373.941 115.926 373.807 116.06L367.637 122.229H355.177C354.987 122.229 354.805 122.305 354.671 122.439L342.124 134.985H336.041C335.645 134.985 335.325 135.305 335.325 135.7V142.076V154.119H323.284C323.095 154.119 322.913 154.195 322.778 154.329L316.399 160.705C316.264 160.839 316.189 161.021 316.189 161.211C316.189 161.401 316.264 161.583 316.399 161.717L322.778 168.096C322.913 168.23 323.095 168.306 323.284 168.306H336.041C336.231 168.306 336.413 168.23 336.547 168.096L342.927 161.717C343.061 161.583 343.136 161.401 343.136 161.211V155.551H348.797C348.987 155.551 349.169 155.475 349.303 155.341L355.177 149.468L361.05 155.341L367.217 161.507V167.59C367.217 167.88 367.392 168.141 367.659 168.251C367.927 168.362 368.235 168.301 368.439 168.096L374.313 162.223L380.183 168.096C380.318 168.23 380.5 168.306 380.689 168.306C380.879 168.306 381.061 168.231 381.196 168.096L387.069 162.223L392.943 168.096C393.077 168.23 393.259 168.306 393.449 168.306H399.529L405.699 174.473C405.834 174.607 406.016 174.682 406.205 174.682H412.582C412.772 174.682 412.954 174.607 413.088 174.473L419.468 168.096L419.468 168.096L425.848 161.717C425.982 161.583 426.057 161.401 426.057 161.211C426.057 161.021 425.982 160.839 425.847 160.705L419.468 154.329ZM373.597 159.484L368.439 154.329L368.439 154.329L363.284 149.171H367.637L373.597 155.131V159.484ZM387.785 155.551H391.72L387.785 159.484V155.551Z" fill="#293972" stroke="#F0F9FD" stroke-width="1.4314" stroke-linejoin="round"/>
<path d="M335.536 136.206C335.67 136.341 335.852 136.416 336.042 136.416C336.232 136.416 336.414 136.341 336.548 136.206L342.928 129.827C343.062 129.693 343.137 129.511 343.137 129.321V122.945C343.137 122.755 343.062 122.573 342.928 122.439L336.758 116.269V110.187C336.758 109.997 336.682 109.815 336.548 109.681L330.171 103.304C329.967 103.1 329.659 103.039 329.391 103.149C329.124 103.26 328.95 103.521 328.95 103.811V116.566C328.95 116.756 329.025 116.938 329.159 117.072L335.03 122.945L329.159 128.815C328.88 129.095 328.88 129.548 329.159 129.827L335.536 136.206Z" fill="#293972" stroke="#F0F9FD" stroke-width="1.4314" stroke-linejoin="round"/>
<path d="M322.57 129.321C322.57 129.611 322.744 129.872 323.012 129.982C323.279 130.093 323.587 130.032 323.792 129.827L330.171 123.451C330.306 123.317 330.381 123.135 330.381 122.945C330.381 122.755 330.306 122.573 330.171 122.439L323.792 116.06C323.587 115.855 323.279 115.794 323.012 115.905C322.744 116.015 322.57 116.276 322.57 116.566V122.945V129.321Z" fill="#293972" stroke="#F0F9FD" stroke-width="1.4314" stroke-linejoin="round"/>
<path d="M-240.505 -236.901V532.934M-190.914 -236.902V532.934M-138.962 -236.903V532.934M-91.7321 -236.902V532.934M-42.1413 -236.903V532.934M9.8111 -236.903V532.934M57.0405 -236.903V532.934M106.631 -236.903V532.934M158.584 -236.904V532.934M208.175 -236.904V532.934M257.766 -236.904V532.934M309.718 -236.905V532.934M359.309 -236.905V532.934M408.9 -236.905V532.934M460.852 -236.906V532.934M505.72 -236.904V532.934M555.311 -236.904V532.934M604.902 -236.904V532.934M656.854 -236.905V532.934M706.445 -236.905V532.934" stroke="white" stroke-width="1.4314"/>
<path d="M750.506 -200.054L-287.664 -200.054M750.506 -150.463L-287.664 -150.463M750.507 -98.5105L-287.664 -98.5105M750.507 -51.281L-287.664 -51.2811M750.507 -1.69016L-287.664 -1.6902M750.508 50.2622L-287.664 50.2622M750.508 97.4917L-287.664 97.4916M750.508 147.083L-287.664 147.082M750.509 199.035L-287.664 199.035M750.509 248.626L-287.664 248.626M750.51 298.217L-287.664 298.217M750.511 350.169L-287.664 350.169M750.51 399.76L-287.664 399.76M750.51 449.351L-287.664 449.351M750.511 501.303L-287.664 501.303" stroke="white" stroke-width="1.4314"/>
<circle cx="158.66" cy="146.681" r="26.2423" fill="#C1E2D2"/>
<g clip-path="url(#clip0_5257_58916)">
<rect width="27.7673" height="31.6888" transform="translate(145.291 130.341)" fill="#C1E2D2"/>
<path d="M169.077 161.04L171.058 160.05L172.048 158.069L171.058 147.176L170.067 145.195L161.155 143.215V140.244H162.145L164.126 138.263V133.312L162.145 131.332H156.203L154.223 133.312V138.263L156.203 140.244H157.194V143.215L148.281 145.195L147.291 147.176L146.301 158.069L147.291 160.05L149.272 161.04" stroke="#293972" stroke-width="1.90853" stroke-miterlimit="10"/>
<path d="M151.252 161.04H167.097" stroke="#293972" stroke-width="1.90853" stroke-miterlimit="10"/>
<path d="M151.252 150.147L152.242 158.069V159.059" stroke="#293972" stroke-width="1.90853" stroke-miterlimit="10"/>
<path d="M167.097 150.147L166.106 158.069V159.059" stroke="#293972" stroke-width="1.90853" stroke-miterlimit="10"/>
<path d="M152.242 149.156H166.106" stroke="#293972" stroke-width="1.90853" stroke-miterlimit="10"/>
<path d="M151.252 150.147C151.252 149.602 151.698 149.156 152.242 149.156" stroke="#293972" stroke-width="1.90853" stroke-miterlimit="10"/>
<path d="M167.097 150.147C167.097 149.602 166.651 149.156 166.106 149.156" stroke="#293972" stroke-width="1.90853" stroke-miterlimit="10"/>
</g>
<circle cx="208.481" cy="247.306" r="26.2423" fill="#C1E2D2"/>
<g clip-path="url(#clip1_5257_58916)">
<rect width="27.7673" height="31.6888" transform="translate(195.113 230.967)" fill="#C1E2D2"/>
<path d="M218.899 261.665L220.88 260.675L221.87 258.694L220.88 247.801L219.889 245.821L210.977 243.84V240.87H211.967L213.948 238.889V233.938L211.967 231.957H206.025L204.045 233.938V238.889L206.025 240.87H207.016V243.84L198.103 245.821L197.113 247.801L196.123 258.694L197.113 260.675L199.094 261.665" stroke="#293972" stroke-width="1.90853" stroke-miterlimit="10"/>
<path d="M201.074 261.666H216.919" stroke="#293972" stroke-width="1.90853" stroke-miterlimit="10"/>
<path d="M201.074 250.772L202.064 258.695V259.685" stroke="#293972" stroke-width="1.90853" stroke-miterlimit="10"/>
<path d="M216.918 250.772L215.928 258.695V259.685" stroke="#293972" stroke-width="1.90853" stroke-miterlimit="10"/>
<path d="M202.064 249.782H215.928" stroke="#293972" stroke-width="1.90853" stroke-miterlimit="10"/>
<path d="M201.074 250.772C201.074 250.227 201.52 249.782 202.064 249.782" stroke="#293972" stroke-width="1.90853" stroke-miterlimit="10"/>
<path d="M216.918 250.772C216.918 250.227 216.473 249.782 215.928 249.782" stroke="#293972" stroke-width="1.90853" stroke-miterlimit="10"/>
</g>
<circle cx="257.149" cy="94.1959" r="26.2423" fill="#C1E2D2"/>
<g clip-path="url(#clip2_5257_58916)">
<rect width="27.7673" height="31.6888" transform="translate(243.78 77.8564)" fill="#C1E2D2"/>
<path d="M267.567 108.555L269.547 107.565L270.537 105.584L269.547 94.6911L268.557 92.7105L259.644 90.73V87.7592H260.635L262.615 85.7786V80.8272L260.635 78.8467H254.693L252.712 80.8272V85.7786L254.693 87.7592H255.683V90.73L246.771 92.7105L245.781 94.6911L244.79 105.584L245.781 107.565L247.761 108.555" stroke="#293972" stroke-width="1.90853" stroke-miterlimit="10"/>
<path d="M249.742 108.555H265.586" stroke="#293972" stroke-width="1.90853" stroke-miterlimit="10"/>
<path d="M249.742 97.6621L250.732 105.584V106.575" stroke="#293972" stroke-width="1.90853" stroke-miterlimit="10"/>
<path d="M265.586 97.6621L264.596 105.584V106.575" stroke="#293972" stroke-width="1.90853" stroke-miterlimit="10"/>
<path d="M250.732 96.6714H264.596" stroke="#293972" stroke-width="1.90853" stroke-miterlimit="10"/>
<path d="M249.742 97.6617C249.742 97.117 250.187 96.6714 250.732 96.6714" stroke="#293972" stroke-width="1.90853" stroke-miterlimit="10"/>
<path d="M265.586 97.6617C265.586 97.117 265.14 96.6714 264.596 96.6714" stroke="#293972" stroke-width="1.90853" stroke-miterlimit="10"/>
</g>
</g>
<defs>
<clipPath id="clip0_5257_58916">
<rect width="27.7673" height="31.6888" fill="white" transform="translate(145.291 130.341)"/>
</clipPath>
<clipPath id="clip1_5257_58916">
<rect width="27.7673" height="31.6888" fill="white" transform="translate(195.113 230.967)"/>
</clipPath>
<clipPath id="clip2_5257_58916">
<rect width="27.7673" height="31.6888" fill="white" transform="translate(243.78 77.8564)"/>
</clipPath>
</defs>
</svg>
