<svg width="33" height="33" viewBox="0 0 33 33" fill="none" xmlns="http://www.w3.org/2000/svg">
<g clip-path="url(#clip0_5374_13428)">
<path d="M21.78 5.05032V1.05032H9.78003V31.0503H21.78H31.78V5.05032H21.78Z" stroke="#293972" stroke-width="2" stroke-miterlimit="10"/>
<path d="M28.78 9.05032H24.78" stroke="#293972" stroke-width="2" stroke-miterlimit="10"/>
<path d="M28.78 13.0503H24.78" stroke="#293972" stroke-width="2" stroke-miterlimit="10"/>
<path d="M28.78 17.0503H24.78" stroke="#293972" stroke-width="2" stroke-miterlimit="10"/>
<path d="M13.78 8.05032V4.05032" stroke="#293972" stroke-width="2" stroke-miterlimit="10"/>
<path d="M17.78 8.05032V4.05032" stroke="#293972" stroke-width="2" stroke-miterlimit="10"/>
<path d="M13.78 14.0503V10.0503" stroke="#293972" stroke-width="2" stroke-miterlimit="10"/>
<path d="M17.78 14.0503V10.0503" stroke="#293972" stroke-width="2" stroke-miterlimit="10"/>
<path d="M13.78 20.0503V16.0503" stroke="#293972" stroke-width="2" stroke-miterlimit="10"/>
<path d="M17.78 20.0503V16.0503" stroke="#293972" stroke-width="2" stroke-miterlimit="10"/>
<path d="M30.78 30.0503C30.78 28.3903 29.44 27.0503 27.78 27.0503C27.78 25.3903 26.44 24.0503 24.78 24.0503C24.78 22.3903 23.44 21.0503 21.78 21.0503C20.12 21.0503 18.78 22.3903 18.78 24.0503H16.78C15.12 24.0503 13.78 25.3903 13.78 27.0503C12.12 27.0503 10.78 28.3903 10.78 30.0503" stroke="#293972" stroke-width="2" stroke-miterlimit="10"/>
<path d="M21.78 5.05032V21.0503" stroke="#293972" stroke-width="2" stroke-miterlimit="10"/>
<path d="M9.78003 11.0503H1.78003V32.0503" stroke="#293972" stroke-width="2" stroke-miterlimit="10"/>
<path d="M9.78003 15.0503H1.78003" stroke="#293972" stroke-width="2" stroke-miterlimit="10"/>
<path d="M9.78003 19.0503H1.78003" stroke="#293972" stroke-width="2" stroke-miterlimit="10"/>
<path d="M9.78003 23.0503H1.78003" stroke="#293972" stroke-width="2" stroke-miterlimit="10"/>
<path d="M9.78003 27.0503H1.78003" stroke="#293972" stroke-width="2" stroke-miterlimit="10"/>
<path d="M9.78003 31.0503H1.78003" stroke="#293972" stroke-width="2" stroke-miterlimit="10"/>
</g>
<defs>
<clipPath id="clip0_5374_13428">
<rect width="32" height="32" fill="white" transform="translate(0.780029 0.0503235)"/>
</clipPath>
</defs>
</svg>
