<svg width="37" height="30" viewBox="0 0 37 30" fill="none" xmlns="http://www.w3.org/2000/svg">
<g clip-path="url(#clip0_5185_15957)">
<path d="M23.9201 28.8103C30.4261 28.8103 35.7001 23.5363 35.7001 17.0303C35.7001 10.5244 30.4261 5.25034 23.9201 5.25034C17.4142 5.25034 12.1401 10.5244 12.1401 17.0303C12.1401 23.5363 17.4142 28.8103 23.9201 28.8103Z" stroke="#293972" stroke-width="2" stroke-miterlimit="10"/>
<path d="M23.92 19.6503C25.367 19.6503 26.54 18.4773 26.54 17.0303C26.54 15.5833 25.367 14.4103 23.92 14.4103C22.4731 14.4103 21.3 15.5833 21.3 17.0303C21.3 18.4773 22.4731 19.6503 23.92 19.6503Z" stroke="#293972" stroke-width="2" stroke-miterlimit="10"/>
<path d="M23.9199 9.18033V14.4203" stroke="#293972" stroke-width="2" stroke-miterlimit="10"/>
<path d="M23.9199 1.33032V5.26032" stroke="#293972" stroke-width="2" stroke-miterlimit="10"/>
<path d="M26.54 1.33032H21.3" stroke="#293972" stroke-width="2" stroke-miterlimit="10"/>
<path d="M12.8201 5.93033L15.5901 8.70033" stroke="#293972" stroke-width="2" stroke-miterlimit="10"/>
<path d="M14.67 4.08032L10.97 7.78032" stroke="#293972" stroke-width="2" stroke-miterlimit="10"/>
<path d="M0.0400391 17.0303H8.22004" stroke="#293972" stroke-width="2" stroke-miterlimit="10"/>
<path d="M4.29004 11.8003H9.53004" stroke="#293972" stroke-width="2" stroke-miterlimit="10"/>
<path d="M4.29004 22.2703H9.53004" stroke="#293972" stroke-width="2" stroke-miterlimit="10"/>
<path d="M8.55005 27.5003H12.8" stroke="#293972" stroke-width="2" stroke-miterlimit="10"/>
</g>
<defs>
<clipPath id="clip0_5185_15957">
<rect width="36.66" height="29.48" fill="white" transform="translate(0.0400391 0.330322)"/>
</clipPath>
</defs>
</svg>
