<svg width="33" height="33" viewBox="0 0 33 33" fill="none" xmlns="http://www.w3.org/2000/svg">
<g clip-path="url(#clip0_5373_13408)">
<path d="M16.78 21.0503C22.3029 21.0503 26.78 16.5732 26.78 11.0503C26.78 5.52748 22.3029 1.05032 16.78 1.05032C11.2572 1.05032 6.78003 5.52748 6.78003 11.0503C6.78003 16.5732 11.2572 21.0503 16.78 21.0503Z" stroke="#293972" stroke-width="2" stroke-miterlimit="10"/>
<path d="M16.78 21.0503C18.9892 21.0503 20.78 16.5732 20.78 11.0503C20.78 5.52748 18.9892 1.05032 16.78 1.05032C14.5709 1.05032 12.78 5.52748 12.78 11.0503C12.78 16.5732 14.5709 21.0503 16.78 21.0503Z" stroke="#293972" stroke-width="2" stroke-miterlimit="10"/>
<path d="M26.78 11.0503H6.78003" stroke="#293972" stroke-width="2" stroke-miterlimit="10"/>
<path d="M18.78 27.0503H14.78V31.0503H18.78V27.0503Z" stroke="#293972" stroke-width="2" stroke-miterlimit="10"/>
<path d="M16.78 25.0503V23.0503" stroke="#293972" stroke-width="2" stroke-miterlimit="10"/>
<path d="M18.78 29.0503H32.78" stroke="#293972" stroke-width="2" stroke-miterlimit="10"/>
<path d="M14.78 29.0503H0.780029" stroke="#293972" stroke-width="2" stroke-miterlimit="10"/>
</g>
<defs>
<clipPath id="clip0_5373_13408">
<rect width="32" height="32" fill="white" transform="translate(0.780029 0.0503235)"/>
</clipPath>
</defs>
</svg>
