<svg width="25" height="33" viewBox="0 0 25 33" fill="none" xmlns="http://www.w3.org/2000/svg">
<g clip-path="url(#clip0_5185_17421)">
<path d="M8.78003 19.0503C10.4369 19.0503 11.78 17.7072 11.78 16.0503C11.78 14.3935 10.4369 13.0503 8.78003 13.0503C7.12318 13.0503 5.78003 14.3935 5.78003 16.0503C5.78003 17.7072 7.12318 19.0503 8.78003 19.0503Z" stroke="#293972" stroke-width="2" stroke-miterlimit="10"/>
<path d="M20.78 31.0503C22.4369 31.0503 23.78 29.7072 23.78 28.0503C23.78 26.3935 22.4369 25.0503 20.78 25.0503C19.1232 25.0503 17.78 26.3935 17.78 28.0503C17.78 29.7072 19.1232 31.0503 20.78 31.0503Z" stroke="#293972" stroke-width="2" stroke-miterlimit="10"/>
<path d="M20.78 7.05032C22.4369 7.05032 23.78 5.70718 23.78 4.05032C23.78 2.39347 22.4369 1.05032 20.78 1.05032C19.1232 1.05032 17.78 2.39347 17.78 4.05032C17.78 5.70718 19.1232 7.05032 20.78 7.05032Z" stroke="#293972" stroke-width="2" stroke-miterlimit="10"/>
<path d="M3.83028 21.0001C6.56395 23.7337 10.9961 23.7337 13.7298 21.0001C16.4634 18.2664 16.4634 13.8342 13.7298 11.1006C10.9961 8.3669 6.56395 8.3669 3.83028 11.1006C1.09661 13.8342 1.09661 18.2664 3.83028 21.0001Z" stroke="#293972" stroke-width="2" stroke-miterlimit="10" stroke-dasharray="2 2"/>
<path d="M18.78 26.0503L13.78 21.0503" stroke="#293972" stroke-width="2" stroke-miterlimit="10"/>
<path d="M18.78 6.05032L13.78 11.0503" stroke="#293972" stroke-width="2" stroke-miterlimit="10"/>
</g>
<defs>
<clipPath id="clip0_5185_17421">
<rect width="24" height="32" fill="white" transform="translate(0.780029 0.0503235)"/>
</clipPath>
</defs>
</svg>
