<svg width="96" height="30" viewBox="0 0 96 30" fill="none" xmlns="http://www.w3.org/2000/svg">
<g clip-path="url(#clip0_10198_32068)">
<path d="M95.8068 11.0816C95.253 9 90.9453 4.22449 87.8068 0.367347C87.7453 0.306122 87.5606 0 87.1914 0C86.8837 0 86.6376 0.306122 86.7607 0.55102C86.8837 0.795918 89.8991 7.04082 89.3453 9.06122C88.7914 11.1429 86.0222 10.7143 85.5914 10.7143C85.3453 10.7143 85.5299 10.898 85.776 11.1429C87.3145 12.4898 88.2991 14.3878 88.2991 16.8367V18.6735C88.2991 18.7347 88.2991 18.7347 88.3607 18.7347C91.8683 18.4286 97.2222 16.2857 95.8068 11.0816ZM82.2068 23.1429C82.2068 24.9184 79.8068 25.898 78.2683 25.898C76.6068 25.898 74.2683 24.9184 74.2683 23.1429V16.898C74.2683 15.1224 76.6068 14.3265 78.2683 14.3265C79.8068 14.3265 82.2068 15.1837 82.2068 16.898V23.1429ZM78.2683 10.4082C74.576 10.4694 70.2683 12.551 70.2683 16.8367V23.3878C70.2683 27.7347 74.576 29.8163 78.2683 29.8163C81.8991 29.7551 86.2068 27.7347 86.2068 23.3878V16.898C86.2068 12.6122 81.8991 10.4694 78.2683 10.4082ZM54.3914 23.1429C54.3914 24.9184 51.9914 25.898 50.453 25.898C48.7914 25.898 46.453 24.9184 46.453 23.1429V16.898C46.453 15.1224 48.7914 14.3265 50.453 14.3265C51.9914 14.3265 54.3914 15.1837 54.3914 16.898V23.1429ZM50.3914 10.4082C46.6991 10.4694 42.3914 12.551 42.3914 16.8367V23.3878C42.3914 27.7347 46.6991 29.8163 50.3914 29.8163C54.0222 29.7551 58.3299 27.7347 58.3299 23.3878V16.898C58.3299 12.6122 54.0222 10.4694 50.3914 10.4082ZM10.2683 11.1429C10.5145 10.898 10.6991 10.7143 10.453 10.7143C10.0222 10.7143 7.25296 11.1429 6.69911 9.06122C6.14527 6.97959 9.16065 0.795918 9.28373 0.55102C9.34527 0.306122 9.16065 0 8.79142 0C8.48373 0 8.23757 0.367347 8.17604 0.367347C5.09911 4.22449 0.729881 9 0.176035 11.0816C-1.23935 16.2857 4.23757 18.4286 7.68373 18.7959C7.74527 18.7959 7.74527 18.7347 7.74527 18.7347V16.898C7.8068 14.3878 8.72988 12.4898 10.2683 11.1429ZM42.1453 11.8776C39.1914 11.0816 37.0376 10.7755 33.8376 10.7755C30.6991 10.7755 28.4837 11.0816 25.5299 11.8776C25.4068 11.9388 25.3453 12.0612 25.4068 12.1224C26.3914 12.9796 26.8222 14.0816 27.0068 15.3061C28.6068 14.9388 30.0837 14.6939 31.8068 14.5714V29.6939C31.8068 29.7551 31.8683 29.7551 31.9299 29.7551H35.7453C35.8068 29.7551 35.8683 29.7551 35.8683 29.6939V14.5714C37.5299 14.6939 38.8837 14.8776 40.4837 15.3061C40.7299 14.0816 41.2222 12.9184 42.2683 12.1224C42.2683 12 42.2068 11.8776 42.1453 11.8776ZM70.3914 10.5918C70.0837 10.5306 69.2837 10.4082 68.5453 10.4694C64.9145 10.5918 60.7914 12.7347 60.7914 16.898V29.8163C60.7914 29.8776 60.853 29.8776 60.9145 29.8776H64.7299C64.7914 29.8776 64.853 29.8776 64.853 29.8163V16.898C64.853 15.4898 66.576 14.6939 67.9914 14.3878C68.4222 13.0408 69.2222 12 70.453 11.0204C70.6376 10.8367 70.576 10.5918 70.3914 10.5918ZM21.2837 18C21.2837 18.0612 21.2837 18.0612 21.2222 18.1224C21.2222 18.1837 21.1607 18.1837 21.0991 18.1837H13.8376V16.898C13.8376 15.1224 15.9914 14.2653 17.653 14.2653C19.253 14.2653 21.2837 15.1224 21.2837 16.898V18ZM17.653 10.2857C13.8991 10.3469 9.77603 12.4898 9.77603 16.8367V23.449C9.77603 27.8571 13.8991 29.9388 17.653 30C20.3607 30 23.376 28.898 24.853 26.5102C24.9145 26.449 24.853 26.3265 24.7914 26.2653C23.4991 25.5306 22.7607 25.102 21.4683 24.4286C21.4068 24.4286 21.4068 24.4286 21.3453 24.4898C20.6683 25.6531 18.8837 26.2653 17.653 26.2653C15.9914 26.2653 13.8376 25.2245 13.8376 23.449V21.4898H24.2376C24.7914 21.4898 25.2222 21.0612 25.2222 20.5102V16.898C25.2222 12.4898 21.3453 10.3469 17.653 10.2857Z" fill="#939CB7"/>
</g>
<defs>
<clipPath id="clip0_10198_32068">
<rect width="96" height="30" fill="white" transform="translate(-0.00878906)"/>
</clipPath>
</defs>
</svg>
