<svg width="115" height="20" viewBox="0 0 115 20" fill="none" xmlns="http://www.w3.org/2000/svg">
<g clip-path="url(#clip0_10198_32064)">
<path d="M100.033 18.6451V1.88708H102.864V4.03535C103.8 2.40768 105.763 1.39941 107.983 1.39941C111.619 1.39941 114.259 3.35135 114.259 8.39521V18.6451H111.361V8.81828C111.361 5.69468 109.849 4.16581 107.34 4.16581C104.508 4.16581 102.93 6.11648 102.93 8.91581V18.6438H100.034L100.033 18.6451ZM90.0572 19.1327C84.9397 19.1327 81.6888 15.6507 81.6888 10.185C81.6901 4.94608 85.0049 1.39941 89.8004 1.39941C94.5633 1.39941 97.9094 4.65348 97.9094 9.30595C97.9094 10.6397 97.9094 10.9336 97.8468 11.2262H84.713C84.9059 14.5119 86.9341 16.5297 90.0873 16.5297C92.3084 16.5297 93.853 15.5544 94.6247 13.7633H97.6188C96.7494 17.1149 93.9495 19.1327 90.0572 19.1327ZM84.7142 8.81828H94.8514C94.7224 5.82515 92.7919 3.96948 89.7991 3.96948C86.9353 3.96948 85.0362 5.75928 84.7142 8.81828ZM56.1766 19.1327C52.8293 19.1327 50.3839 17.31 50.3839 14.1547C50.3839 10.9982 52.6051 9.56688 55.2108 9.07795L59.2659 8.29768C60.6502 8.03675 61.4545 7.67955 61.4545 6.41035C61.4545 4.94608 60.2318 3.96948 57.7852 3.96948C55.7908 3.96948 54.052 4.78395 53.8265 6.63835H50.8362C51.0278 3.35008 53.9881 1.39941 57.8177 1.39941C62.4529 1.39941 64.3508 3.74275 64.3508 6.50788V15.0984C64.3508 15.8787 64.7041 16.2701 65.348 16.2701C65.8955 16.2701 66.2174 16.1396 66.5068 15.9445V18.3195C66.0558 18.7097 65.2841 18.9706 64.3508 18.9706C62.9978 18.9706 61.8403 18.0915 61.5509 16.6602C60.778 17.766 59.1694 19.1327 56.1766 19.1327ZM53.3767 14.0572C53.3767 15.7482 54.7923 16.5627 56.6915 16.5627C59.3624 16.5627 61.4545 15.0325 61.4545 12.6575V9.95701C61.1325 10.3155 60.1353 10.6081 58.944 10.8361L56.2405 11.3554C54.3113 11.7139 53.3767 12.56 53.3767 14.0572ZM41.6836 18.6451V1.88708H44.5148V4.68641C45.3203 2.70155 46.7685 1.52988 49.0535 1.52988C49.5358 1.52988 50.0181 1.62741 50.2762 1.69201V4.68641C49.8326 4.58153 49.3788 4.52673 48.9232 4.52301C46.092 4.52301 44.58 6.76881 44.58 10.3471V18.6438H41.6836V18.6451ZM36.6087 1.88708H40.3419L33.6472 8.52441L40.6952 18.6451H37.3165L31.6842 10.5422L28.9169 13.2111V18.6451H26.0205V1.88708H28.9169V9.56688L36.6087 1.88708Z" fill="#939CB7"/>
<path d="M78.4353 1.88708H82.1685L75.475 8.52441L82.523 18.6451H79.1443L73.5107 10.5422L70.7434 13.2111V18.6451H67.8483V1.88708H70.7447V9.56688L78.4353 1.88708ZM11.4183 1.39941C5.33371 1.39941 0.400391 6.45341 0.400391 12.6854V17.5215C0.400391 18.412 1.10443 19.1327 1.97384 19.1327C2.842 19.1327 3.5523 18.4107 3.5523 17.5215V12.6854C3.5523 11.7937 4.25384 11.0729 5.1245 11.0729C5.99391 11.0729 6.6967 11.7937 6.6967 12.6854V17.5215C6.6967 18.412 7.40074 19.1327 8.27015 19.1327C9.14206 19.1327 9.84611 18.4107 9.84611 17.5215V12.6854C9.84611 11.7937 10.5501 11.0729 11.4183 11.0729C12.2902 11.0729 12.9968 11.7937 12.9968 12.6854V17.5215C12.9968 18.412 13.7008 19.1327 14.569 19.1327C15.4384 19.1327 16.1424 18.4107 16.1424 17.5215V12.6854C16.1424 11.7937 16.8465 11.0729 17.7209 11.0729C18.589 11.0729 19.2931 11.7937 19.2931 12.6854V17.5215C19.2931 18.412 19.9971 19.1327 20.869 19.1327C21.7384 19.1327 22.4425 18.4107 22.4425 17.5215V12.6854C22.4425 6.45341 17.5067 1.39941 11.4183 1.39941Z" fill="#939CB7"/>
</g>
<defs>
<clipPath id="clip0_10198_32064">
<rect width="114" height="19" fill="white" transform="translate(0.400391 0.892578)"/>
</clipPath>
</defs>
</svg>
