<svg xmlns="http://www.w3.org/2000/svg" width="628" height="461" viewBox="0 0 628 461" fill="none">
<rect width="628" height="460" transform="translate(0 0.785156)" fill="#F4F6FA"/>
<g filter="url(#filter0_d_10299_35724)">
<g clip-path="url(#clip0_10299_35724)">
<rect x="47" y="88.7852" width="535" height="68" rx="34" fill="white"/>
<path d="M73.0354 128.785V127.073H75.6274V119.233H76.6194L73.2914 121.217V119.265L76.2194 117.505H77.6914V127.073H80.1234V128.785H73.0354ZM82.2511 128.785V117.505H84.3151V127.041H89.6271V128.785H82.2511ZM92.1869 131.777C92.0055 131.777 91.7869 131.766 91.5309 131.745C91.2855 131.724 91.0349 131.686 90.7789 131.633V130.001C90.9815 130.044 91.1735 130.076 91.3549 130.097C91.5469 130.118 91.7069 130.129 91.8349 130.129C92.3255 130.129 92.6775 129.985 92.8909 129.697C93.1149 129.409 93.2269 128.95 93.2269 128.321V117.505H95.2909V128.321C95.2909 129.089 95.1842 129.729 94.9709 130.241C94.7575 130.753 94.4215 131.137 93.9629 131.393C93.5149 131.649 92.9229 131.777 92.1869 131.777ZM101.494 128.945C100.171 128.945 99.1364 128.662 98.3897 128.097C97.6537 127.532 97.2857 126.748 97.2857 125.745C97.2857 124.956 97.5257 124.3 98.0057 123.777C98.4857 123.254 99.1097 122.945 99.8777 122.849V123.185C99.1844 123.036 98.6244 122.71 98.1977 122.209C97.7817 121.708 97.5737 121.1 97.5737 120.385C97.5737 119.436 97.9204 118.694 98.6137 118.161C99.3177 117.617 100.278 117.345 101.494 117.345C102.72 117.345 103.68 117.617 104.374 118.161C105.078 118.694 105.43 119.436 105.43 120.385C105.43 121.1 105.227 121.713 104.822 122.225C104.427 122.737 103.888 123.052 103.206 123.169V122.849C103.963 122.956 104.571 123.27 105.03 123.793C105.488 124.305 105.718 124.956 105.718 125.745C105.718 126.748 105.344 127.532 104.598 128.097C103.862 128.662 102.827 128.945 101.494 128.945ZM101.494 127.345C102.272 127.345 102.854 127.201 103.238 126.913C103.622 126.614 103.814 126.177 103.814 125.601C103.814 125.025 103.622 124.593 103.238 124.305C102.854 124.017 102.272 123.873 101.494 123.873C100.726 123.873 100.144 124.017 99.7497 124.305C99.3657 124.593 99.1737 125.025 99.1737 125.601C99.1737 126.177 99.3657 126.614 99.7497 126.913C100.144 127.201 100.726 127.345 101.494 127.345ZM101.494 122.273C102.155 122.273 102.656 122.124 102.998 121.825C103.35 121.526 103.526 121.116 103.526 120.593C103.526 120.081 103.35 119.681 102.998 119.393C102.656 119.094 102.155 118.945 101.494 118.945C100.843 118.945 100.342 119.094 99.9897 119.393C99.6484 119.681 99.4777 120.081 99.4777 120.593C99.4777 121.116 99.6484 121.526 99.9897 121.825C100.342 122.124 100.843 122.273 101.494 122.273ZM113.269 132.241V127.121H113.461C113.291 127.676 112.944 128.118 112.421 128.449C111.899 128.78 111.307 128.945 110.645 128.945C109.941 128.945 109.323 128.78 108.789 128.449C108.256 128.108 107.84 127.622 107.541 126.993C107.243 126.364 107.093 125.612 107.093 124.737C107.093 123.862 107.243 123.116 107.541 122.497C107.84 121.868 108.256 121.388 108.789 121.057C109.323 120.716 109.941 120.545 110.645 120.545C111.328 120.545 111.925 120.716 112.437 121.057C112.96 121.388 113.307 121.836 113.477 122.401H113.301L113.477 120.705H115.397C115.365 121.036 115.333 121.372 115.301 121.713C115.28 122.054 115.269 122.39 115.269 122.721V132.241H113.269ZM111.205 127.409C111.835 127.409 112.341 127.19 112.725 126.753C113.109 126.305 113.301 125.633 113.301 124.737C113.301 123.841 113.109 123.174 112.725 122.737C112.341 122.3 111.835 122.081 111.205 122.081C110.576 122.081 110.069 122.3 109.685 122.737C109.301 123.174 109.109 123.841 109.109 124.737C109.109 125.633 109.296 126.305 109.669 126.753C110.053 127.19 110.565 127.409 111.205 127.409ZM118.285 128.785V127.073H120.877V119.233H121.869L118.541 121.217V119.265L121.469 117.505H122.941V127.073H125.373V128.785H118.285ZM131.053 128.945C129.73 128.945 128.696 128.662 127.949 128.097C127.213 127.532 126.845 126.748 126.845 125.745C126.845 124.956 127.085 124.3 127.565 123.777C128.045 123.254 128.669 122.945 129.437 122.849V123.185C128.744 123.036 128.184 122.71 127.757 122.209C127.341 121.708 127.133 121.1 127.133 120.385C127.133 119.436 127.48 118.694 128.173 118.161C128.877 117.617 129.837 117.345 131.053 117.345C132.28 117.345 133.24 117.617 133.933 118.161C134.637 118.694 134.989 119.436 134.989 120.385C134.989 121.1 134.786 121.713 134.381 122.225C133.986 122.737 133.448 123.052 132.765 123.169V122.849C133.522 122.956 134.13 123.27 134.589 123.793C135.048 124.305 135.277 124.956 135.277 125.745C135.277 126.748 134.904 127.532 134.157 128.097C133.421 128.662 132.386 128.945 131.053 128.945ZM131.053 127.345C131.832 127.345 132.413 127.201 132.797 126.913C133.181 126.614 133.373 126.177 133.373 125.601C133.373 125.025 133.181 124.593 132.797 124.305C132.413 124.017 131.832 123.873 131.053 123.873C130.285 123.873 129.704 124.017 129.309 124.305C128.925 124.593 128.733 125.025 128.733 125.601C128.733 126.177 128.925 126.614 129.309 126.913C129.704 127.201 130.285 127.345 131.053 127.345ZM131.053 122.273C131.714 122.273 132.216 122.124 132.557 121.825C132.909 121.526 133.085 121.116 133.085 120.593C133.085 120.081 132.909 119.681 132.557 119.393C132.216 119.094 131.714 118.945 131.053 118.945C130.402 118.945 129.901 119.094 129.549 119.393C129.208 119.681 129.037 120.081 129.037 120.593C129.037 121.116 129.208 121.526 129.549 121.825C129.901 122.124 130.402 122.273 131.053 122.273ZM137.245 128.785V117.505H142.173C143.41 117.505 144.365 117.798 145.037 118.385C145.72 118.972 146.061 119.788 146.061 120.833C146.061 121.526 145.906 122.118 145.597 122.609C145.298 123.1 144.866 123.478 144.301 123.745C143.736 124.001 143.069 124.129 142.301 124.129L142.525 123.825H143.069C143.517 123.825 143.917 123.942 144.269 124.177C144.621 124.412 144.909 124.769 145.133 125.249L146.781 128.785H144.509L142.845 125.121C142.696 124.748 142.466 124.502 142.157 124.385C141.858 124.268 141.496 124.209 141.069 124.209H139.309V128.785H137.245ZM139.309 122.689H141.837C142.562 122.689 143.112 122.54 143.485 122.241C143.869 121.932 144.061 121.484 144.061 120.897C144.061 120.31 143.869 119.868 143.485 119.569C143.112 119.27 142.562 119.121 141.837 119.121H139.309V122.689ZM147.669 132.337C147.467 132.337 147.248 132.321 147.013 132.289C146.768 132.257 146.555 132.204 146.373 132.129V130.545C146.512 130.588 146.661 130.625 146.821 130.657C146.981 130.689 147.136 130.705 147.285 130.705C147.669 130.705 147.968 130.588 148.181 130.353C148.405 130.118 148.517 129.724 148.517 129.169V120.705H150.517V129.281C150.517 130.284 150.288 131.041 149.829 131.553C149.371 132.076 148.651 132.337 147.669 132.337ZM148.389 119.185V117.233H150.613V119.185H148.389ZM152.951 128.785V117.505H154.503L161.047 125.969H160.631V117.505H162.551V128.785H160.999L154.471 120.321H154.871V128.785H152.951ZM168.139 128.945C167.435 128.945 166.817 128.78 166.283 128.449C165.75 128.108 165.334 127.622 165.035 126.993C164.737 126.364 164.587 125.612 164.587 124.737C164.587 123.862 164.737 123.116 165.035 122.497C165.334 121.868 165.75 121.388 166.283 121.057C166.817 120.716 167.435 120.545 168.139 120.545C168.822 120.545 169.419 120.716 169.931 121.057C170.454 121.388 170.801 121.836 170.971 122.401H170.795L170.971 120.705H172.891C172.859 121.036 172.827 121.372 172.795 121.713C172.774 122.054 172.763 122.39 172.763 122.721V128.785H170.779L170.763 127.121H170.955C170.785 127.676 170.438 128.118 169.915 128.449C169.393 128.78 168.801 128.945 168.139 128.945ZM168.699 127.409C169.329 127.409 169.835 127.19 170.219 126.753C170.603 126.305 170.795 125.633 170.795 124.737C170.795 123.841 170.603 123.174 170.219 122.737C169.835 122.3 169.329 122.081 168.699 122.081C168.07 122.081 167.563 122.3 167.179 122.737C166.795 123.174 166.603 123.841 166.603 124.737C166.603 125.633 166.79 126.305 167.163 126.753C167.547 127.19 168.059 127.409 168.699 127.409ZM177.971 128.945C177.278 128.945 176.638 128.865 176.051 128.705C175.475 128.534 174.99 128.3 174.595 128.001L175.155 126.657C175.56 126.934 176.008 127.148 176.499 127.297C176.99 127.446 177.486 127.521 177.987 127.521C178.52 127.521 178.915 127.43 179.171 127.249C179.438 127.068 179.571 126.822 179.571 126.513C179.571 126.268 179.486 126.076 179.315 125.937C179.155 125.788 178.894 125.676 178.531 125.601L176.931 125.297C176.248 125.148 175.726 124.892 175.363 124.529C175.011 124.166 174.835 123.692 174.835 123.105C174.835 122.604 174.968 122.161 175.235 121.777C175.512 121.393 175.902 121.094 176.403 120.881C176.915 120.657 177.512 120.545 178.195 120.545C178.792 120.545 179.352 120.625 179.875 120.785C180.408 120.945 180.856 121.185 181.219 121.505L180.643 122.801C180.312 122.534 179.934 122.326 179.507 122.177C179.08 122.028 178.664 121.953 178.259 121.953C177.704 121.953 177.299 122.054 177.043 122.257C176.787 122.449 176.659 122.7 176.659 123.009C176.659 123.244 176.734 123.441 176.883 123.601C177.043 123.75 177.288 123.862 177.619 123.937L179.219 124.241C179.934 124.38 180.472 124.625 180.835 124.977C181.208 125.318 181.395 125.788 181.395 126.385C181.395 126.918 181.251 127.377 180.963 127.761C180.675 128.145 180.275 128.438 179.763 128.641C179.251 128.844 178.654 128.945 177.971 128.945ZM186.073 128.785V119.201H182.345V117.505H191.865V119.201H188.137V128.785H186.073ZM190.815 128.785L194.575 124.161V125.073L191.023 120.705H193.391L195.711 123.697H194.991L197.311 120.705H199.663L196.143 125.073V124.161L199.887 128.785H197.503L194.991 125.569H195.711L193.183 128.785H190.815ZM200.978 128.785V122.769C200.978 122.428 200.968 122.081 200.946 121.729C200.936 121.377 200.909 121.036 200.866 120.705H202.802L203.026 122.913H202.706C202.813 122.38 202.989 121.937 203.234 121.585C203.49 121.233 203.8 120.972 204.162 120.801C204.525 120.63 204.92 120.545 205.346 120.545C205.538 120.545 205.693 120.556 205.81 120.577C205.928 120.588 206.045 120.614 206.162 120.657L206.146 122.417C205.944 122.332 205.768 122.278 205.618 122.257C205.48 122.236 205.304 122.225 205.09 122.225C204.632 122.225 204.242 122.321 203.922 122.513C203.613 122.705 203.378 122.972 203.218 123.313C203.069 123.654 202.994 124.044 202.994 124.481V128.785H200.978ZM211.137 128.945C209.815 128.945 208.78 128.662 208.033 128.097C207.297 127.532 206.929 126.748 206.929 125.745C206.929 124.956 207.169 124.3 207.649 123.777C208.129 123.254 208.753 122.945 209.521 122.849V123.185C208.828 123.036 208.268 122.71 207.841 122.209C207.425 121.708 207.217 121.1 207.217 120.385C207.217 119.436 207.564 118.694 208.257 118.161C208.961 117.617 209.921 117.345 211.137 117.345C212.364 117.345 213.324 117.617 214.017 118.161C214.721 118.694 215.073 119.436 215.073 120.385C215.073 121.1 214.871 121.713 214.465 122.225C214.071 122.737 213.532 123.052 212.849 123.169V122.849C213.607 122.956 214.215 123.27 214.673 123.793C215.132 124.305 215.361 124.956 215.361 125.745C215.361 126.748 214.988 127.532 214.241 128.097C213.505 128.662 212.471 128.945 211.137 128.945ZM211.137 127.345C211.916 127.345 212.497 127.201 212.881 126.913C213.265 126.614 213.457 126.177 213.457 125.601C213.457 125.025 213.265 124.593 212.881 124.305C212.497 124.017 211.916 123.873 211.137 123.873C210.369 123.873 209.788 124.017 209.393 124.305C209.009 124.593 208.817 125.025 208.817 125.601C208.817 126.177 209.009 126.614 209.393 126.913C209.788 127.201 210.369 127.345 211.137 127.345ZM211.137 122.273C211.799 122.273 212.3 122.124 212.641 121.825C212.993 121.526 213.169 121.116 213.169 120.593C213.169 120.081 212.993 119.681 212.641 119.393C212.3 119.094 211.799 118.945 211.137 118.945C210.487 118.945 209.985 119.094 209.633 119.393C209.292 119.681 209.121 120.081 209.121 120.593C209.121 121.116 209.292 121.526 209.633 121.825C209.985 122.124 210.487 122.273 211.137 122.273ZM220.881 128.945C220.049 128.945 219.319 128.774 218.689 128.433C218.071 128.092 217.591 127.606 217.249 126.977C216.908 126.337 216.737 125.58 216.737 124.705C216.737 123.83 216.908 123.084 217.249 122.465C217.601 121.846 218.087 121.372 218.705 121.041C219.324 120.71 220.049 120.545 220.881 120.545C221.415 120.545 221.932 120.63 222.433 120.801C222.945 120.961 223.361 121.196 223.681 121.505L223.073 122.897C222.785 122.63 222.46 122.433 222.097 122.305C221.745 122.166 221.399 122.097 221.057 122.097C220.343 122.097 219.783 122.321 219.377 122.769C218.983 123.217 218.785 123.868 218.785 124.721C218.785 125.574 218.983 126.23 219.377 126.689C219.783 127.148 220.343 127.377 221.057 127.377C221.388 127.377 221.729 127.313 222.081 127.185C222.444 127.057 222.775 126.86 223.073 126.593L223.681 127.969C223.351 128.278 222.929 128.518 222.417 128.689C221.916 128.86 221.404 128.945 220.881 128.945ZM225.734 131.777C225.552 131.777 225.334 131.766 225.078 131.745C224.832 131.724 224.582 131.686 224.326 131.633V130.001C224.528 130.044 224.72 130.076 224.902 130.097C225.094 130.118 225.254 130.129 225.382 130.129C225.872 130.129 226.224 129.985 226.438 129.697C226.662 129.409 226.774 128.95 226.774 128.321V117.505H228.838V128.321C228.838 129.089 228.731 129.729 228.518 130.241C228.304 130.753 227.968 131.137 227.51 131.393C227.062 131.649 226.47 131.777 225.734 131.777ZM235.425 128.945C234.518 128.945 233.681 128.833 232.913 128.609C232.155 128.374 231.505 128.054 230.961 127.649L231.601 126.033C231.963 126.289 232.342 126.508 232.737 126.689C233.131 126.86 233.553 126.993 234.001 127.089C234.449 127.174 234.923 127.217 235.425 127.217C236.267 127.217 236.875 127.078 237.249 126.801C237.622 126.524 237.809 126.161 237.809 125.713C237.809 125.318 237.681 125.02 237.425 124.817C237.169 124.604 236.71 124.428 236.049 124.289L234.241 123.921C233.206 123.708 232.433 123.35 231.921 122.849C231.409 122.348 231.153 121.676 231.153 120.833C231.153 120.129 231.339 119.516 231.713 118.993C232.086 118.47 232.609 118.065 233.281 117.777C233.953 117.489 234.737 117.345 235.633 117.345C236.433 117.345 237.174 117.462 237.857 117.697C238.539 117.921 239.11 118.246 239.569 118.673L238.929 120.209C238.47 119.825 237.969 119.542 237.425 119.361C236.881 119.169 236.273 119.073 235.601 119.073C234.843 119.073 234.251 119.222 233.825 119.521C233.409 119.809 233.201 120.209 233.201 120.721C233.201 121.116 233.329 121.43 233.585 121.665C233.851 121.9 234.299 122.081 234.929 122.209L236.721 122.561C237.787 122.774 238.577 123.126 239.089 123.617C239.601 124.097 239.857 124.748 239.857 125.569C239.857 126.241 239.675 126.833 239.313 127.345C238.95 127.846 238.438 128.241 237.777 128.529C237.115 128.806 236.331 128.945 235.425 128.945ZM244.373 128.785V119.201H240.645V117.505H250.165V119.201H246.437V128.785H244.373ZM250.363 132.241V122.721C250.363 122.39 250.352 122.054 250.331 121.713C250.31 121.372 250.278 121.036 250.235 120.705H252.171L252.347 122.401H252.171C252.331 121.836 252.667 121.388 253.179 121.057C253.702 120.716 254.304 120.545 254.987 120.545C255.702 120.545 256.326 120.716 256.859 121.057C257.392 121.388 257.808 121.868 258.107 122.497C258.406 123.116 258.555 123.862 258.555 124.737C258.555 125.612 258.406 126.364 258.107 126.993C257.808 127.622 257.392 128.108 256.859 128.449C256.326 128.78 255.702 128.945 254.987 128.945C254.315 128.945 253.723 128.78 253.211 128.449C252.699 128.118 252.358 127.676 252.187 127.121H252.363V132.241H250.363ZM254.427 127.409C255.067 127.409 255.579 127.19 255.963 126.753C256.347 126.305 256.539 125.633 256.539 124.737C256.539 123.841 256.347 123.174 255.963 122.737C255.579 122.3 255.067 122.081 254.427 122.081C253.798 122.081 253.291 122.3 252.907 122.737C252.523 123.174 252.331 123.841 252.331 124.737C252.331 125.633 252.523 126.305 252.907 126.753C253.291 127.19 253.798 127.409 254.427 127.409ZM263.898 128.785V126.561H266.138V128.785H263.898ZM267.866 128.785V126.561H270.106V128.785H267.866ZM259.914 128.785V126.561H262.154V128.785H259.914ZM272.37 128.785V117.505H277.378C278.615 117.505 279.559 117.804 280.21 118.401C280.861 118.998 281.186 119.82 281.186 120.865C281.186 121.9 280.861 122.721 280.21 123.329C279.559 123.937 278.615 124.241 277.378 124.241H274.434V128.785H272.37ZM274.434 122.609H277.138C277.821 122.609 278.333 122.46 278.674 122.161C279.015 121.852 279.186 121.42 279.186 120.865C279.186 120.31 279.015 119.884 278.674 119.585C278.333 119.276 277.821 119.121 277.138 119.121H274.434V122.609ZM282.844 128.785V122.769C282.844 122.428 282.833 122.081 282.812 121.729C282.801 121.377 282.775 121.036 282.732 120.705H284.668L284.892 122.913H284.572C284.679 122.38 284.855 121.937 285.1 121.585C285.356 121.233 285.665 120.972 286.028 120.801C286.391 120.63 286.785 120.545 287.212 120.545C287.404 120.545 287.559 120.556 287.676 120.577C287.793 120.588 287.911 120.614 288.028 120.657L288.012 122.417C287.809 122.332 287.633 122.278 287.484 122.257C287.345 122.236 287.169 122.225 286.956 122.225C286.497 122.225 286.108 122.321 285.788 122.513C285.479 122.705 285.244 122.972 285.084 123.313C284.935 123.654 284.86 124.044 284.86 124.481V128.785H282.844ZM292.302 128.945C291.598 128.945 290.974 128.78 290.43 128.449C289.897 128.108 289.481 127.622 289.182 126.993C288.883 126.364 288.734 125.612 288.734 124.737C288.734 123.862 288.883 123.116 289.182 122.497C289.481 121.868 289.897 121.388 290.43 121.057C290.974 120.716 291.598 120.545 292.302 120.545C292.974 120.545 293.566 120.71 294.078 121.041C294.601 121.361 294.947 121.798 295.118 122.353H294.91V117.009H296.91V128.785H294.942V127.073H295.134C294.963 127.649 294.617 128.108 294.094 128.449C293.582 128.78 292.985 128.945 292.302 128.945ZM292.862 127.409C293.491 127.409 293.998 127.19 294.382 126.753C294.766 126.305 294.958 125.633 294.958 124.737C294.958 123.841 294.766 123.174 294.382 122.737C293.998 122.3 293.491 122.081 292.862 122.081C292.233 122.081 291.721 122.3 291.326 122.737C290.942 123.174 290.75 123.841 290.75 124.737C290.75 125.633 290.942 126.305 291.326 126.753C291.721 127.19 292.233 127.409 292.862 127.409Z" fill="#282828"/>
<rect x="352.5" y="89.2852" width="229" height="67" rx="33.5" fill="#F7F7F7"/>
<rect x="352.5" y="89.2852" width="229" height="67" rx="33.5" stroke="#D1D3E0"/>
<rect x="376.5" y="115.285" width="15" height="15" rx="7.5" fill="#8B1B1B" stroke="#8B1B1B"/>
<path d="M410.06 129.785V117.095H415.604C416.996 117.095 418.07 117.425 418.826 118.085C419.594 118.745 419.978 119.663 419.978 120.839C419.978 121.619 419.804 122.285 419.456 122.837C419.12 123.389 418.634 123.815 417.998 124.115C417.362 124.403 416.612 124.547 415.748 124.547L416 124.205H416.612C417.116 124.205 417.566 124.337 417.962 124.601C418.358 124.865 418.682 125.267 418.934 125.807L420.788 129.785H418.232L416.36 125.663C416.192 125.243 415.934 124.967 415.586 124.835C415.25 124.703 414.842 124.637 414.362 124.637H412.382V129.785H410.06ZM412.382 122.927H415.226C416.042 122.927 416.66 122.759 417.08 122.423C417.512 122.075 417.728 121.571 417.728 120.911C417.728 120.251 417.512 119.753 417.08 119.417C416.66 119.081 416.042 118.913 415.226 118.913H412.382V122.927ZM426.091 129.965C425.299 129.965 424.603 129.779 424.003 129.407C423.403 129.023 422.935 128.477 422.599 127.769C422.263 127.061 422.095 126.215 422.095 125.231C422.095 124.247 422.263 123.407 422.599 122.711C422.935 122.003 423.403 121.463 424.003 121.091C424.603 120.707 425.299 120.515 426.091 120.515C426.859 120.515 427.531 120.707 428.107 121.091C428.695 121.463 429.085 121.967 429.277 122.603H429.079L429.277 120.695H431.437C431.401 121.067 431.365 121.445 431.329 121.829C431.305 122.213 431.293 122.591 431.293 122.963V129.785H429.061L429.043 127.913H429.259C429.067 128.537 428.677 129.035 428.089 129.407C427.501 129.779 426.835 129.965 426.091 129.965ZM426.721 128.237C427.429 128.237 427.999 127.991 428.431 127.499C428.863 126.995 429.079 126.239 429.079 125.231C429.079 124.223 428.863 123.473 428.431 122.981C427.999 122.489 427.429 122.243 426.721 122.243C426.013 122.243 425.443 122.489 425.011 122.981C424.579 123.473 424.363 124.223 424.363 125.231C424.363 126.239 424.573 126.995 424.993 127.499C425.425 127.991 426.001 128.237 426.721 128.237ZM433.893 129.785V122.963C433.893 122.591 433.881 122.213 433.857 121.829C433.833 121.445 433.797 121.067 433.749 120.695H435.927L436.107 122.495H435.891C436.179 121.859 436.605 121.373 437.169 121.037C437.733 120.689 438.387 120.515 439.131 120.515C440.199 120.515 441.003 120.815 441.543 121.415C442.083 122.015 442.353 122.951 442.353 124.223V129.785H440.103V124.331C440.103 123.599 439.959 123.077 439.671 122.765C439.395 122.441 438.975 122.279 438.411 122.279C437.715 122.279 437.163 122.495 436.755 122.927C436.347 123.359 436.143 123.935 436.143 124.655V129.785H433.893ZM448.128 129.965C447.348 129.965 446.628 129.875 445.968 129.695C445.32 129.503 444.774 129.239 444.33 128.903L444.96 127.391C445.416 127.703 445.92 127.943 446.472 128.111C447.024 128.279 447.582 128.363 448.146 128.363C448.746 128.363 449.19 128.261 449.478 128.057C449.778 127.853 449.928 127.577 449.928 127.229C449.928 126.953 449.832 126.737 449.64 126.581C449.46 126.413 449.166 126.287 448.758 126.203L446.958 125.861C446.19 125.693 445.602 125.405 445.194 124.997C444.798 124.589 444.6 124.055 444.6 123.395C444.6 122.831 444.75 122.333 445.05 121.901C445.362 121.469 445.8 121.133 446.364 120.893C446.94 120.641 447.612 120.515 448.38 120.515C449.052 120.515 449.682 120.605 450.27 120.785C450.87 120.965 451.374 121.235 451.782 121.595L451.134 123.053C450.762 122.753 450.336 122.519 449.856 122.351C449.376 122.183 448.908 122.099 448.452 122.099C447.828 122.099 447.372 122.213 447.084 122.441C446.796 122.657 446.652 122.939 446.652 123.287C446.652 123.551 446.736 123.773 446.904 123.953C447.084 124.121 447.36 124.247 447.732 124.331L449.532 124.673C450.336 124.829 450.942 125.105 451.35 125.501C451.77 125.885 451.98 126.413 451.98 127.085C451.98 127.685 451.818 128.201 451.494 128.633C451.17 129.065 450.72 129.395 450.144 129.623C449.568 129.851 448.896 129.965 448.128 129.965ZM458.16 129.965C457.224 129.965 456.414 129.773 455.73 129.389C455.046 129.005 454.512 128.459 454.128 127.751C453.756 127.043 453.57 126.203 453.57 125.231C453.57 124.259 453.756 123.425 454.128 122.729C454.512 122.021 455.046 121.475 455.73 121.091C456.414 120.707 457.224 120.515 458.16 120.515C459.096 120.515 459.906 120.707 460.59 121.091C461.286 121.475 461.82 122.021 462.192 122.729C462.576 123.425 462.768 124.259 462.768 125.231C462.768 126.203 462.576 127.043 462.192 127.751C461.82 128.459 461.286 129.005 460.59 129.389C459.906 129.773 459.096 129.965 458.16 129.965ZM458.16 128.237C458.868 128.237 459.432 127.991 459.852 127.499C460.272 126.995 460.482 126.239 460.482 125.231C460.482 124.223 460.272 123.473 459.852 122.981C459.432 122.489 458.868 122.243 458.16 122.243C457.452 122.243 456.888 122.489 456.468 122.981C456.048 123.473 455.838 124.223 455.838 125.231C455.838 126.239 456.048 126.995 456.468 127.499C456.888 127.991 457.452 128.237 458.16 128.237ZM464.858 129.785V122.963C464.858 122.591 464.846 122.213 464.822 121.829C464.798 121.445 464.762 121.067 464.714 120.695H466.892L467.072 122.495H466.856C467.108 121.871 467.492 121.385 468.008 121.037C468.536 120.689 469.16 120.515 469.88 120.515C470.6 120.515 471.194 120.689 471.662 121.037C472.142 121.373 472.478 121.901 472.67 122.621H472.382C472.634 121.973 473.048 121.463 473.624 121.091C474.2 120.707 474.86 120.515 475.604 120.515C476.624 120.515 477.386 120.815 477.89 121.415C478.394 122.015 478.646 122.951 478.646 124.223V129.785H476.396V124.313C476.396 123.593 476.276 123.077 476.036 122.765C475.796 122.441 475.412 122.279 474.884 122.279C474.26 122.279 473.768 122.501 473.408 122.945C473.048 123.377 472.868 123.965 472.868 124.709V129.785H470.618V124.313C470.618 123.593 470.498 123.077 470.258 122.765C470.018 122.441 469.634 122.279 469.106 122.279C468.482 122.279 467.99 122.501 467.63 122.945C467.282 123.377 467.108 123.965 467.108 124.709V129.785H464.858ZM483.63 129.785L480.084 120.695H482.406L484.962 127.769H484.494L487.086 120.695H488.688L491.262 127.769H490.848L493.386 120.695H495.582L492.036 129.785H490.056L487.338 122.549H488.292L485.628 129.785H483.63ZM500.485 129.965C499.693 129.965 498.997 129.779 498.397 129.407C497.797 129.023 497.329 128.477 496.993 127.769C496.657 127.061 496.489 126.215 496.489 125.231C496.489 124.247 496.657 123.407 496.993 122.711C497.329 122.003 497.797 121.463 498.397 121.091C498.997 120.707 499.693 120.515 500.485 120.515C501.253 120.515 501.925 120.707 502.501 121.091C503.089 121.463 503.479 121.967 503.671 122.603H503.473L503.671 120.695H505.831C505.795 121.067 505.759 121.445 505.723 121.829C505.699 122.213 505.687 122.591 505.687 122.963V129.785H503.455L503.437 127.913H503.653C503.461 128.537 503.071 129.035 502.483 129.407C501.895 129.779 501.229 129.965 500.485 129.965ZM501.115 128.237C501.823 128.237 502.393 127.991 502.825 127.499C503.257 126.995 503.473 126.239 503.473 125.231C503.473 124.223 503.257 123.473 502.825 122.981C502.393 122.489 501.823 122.243 501.115 122.243C500.407 122.243 499.837 122.489 499.405 122.981C498.973 123.473 498.757 124.223 498.757 125.231C498.757 126.239 498.967 126.995 499.387 127.499C499.819 127.991 500.395 128.237 501.115 128.237ZM508.269 129.785V123.017C508.269 122.633 508.257 122.243 508.233 121.847C508.221 121.451 508.191 121.067 508.143 120.695H510.321L510.573 123.179H510.213C510.333 122.579 510.531 122.081 510.807 121.685C511.095 121.289 511.443 120.995 511.851 120.803C512.259 120.611 512.703 120.515 513.183 120.515C513.399 120.515 513.573 120.527 513.705 120.551C513.837 120.563 513.969 120.593 514.101 120.641L514.083 122.621C513.855 122.525 513.657 122.465 513.489 122.441C513.333 122.417 513.135 122.405 512.895 122.405C512.379 122.405 511.941 122.513 511.581 122.729C511.233 122.945 510.969 123.245 510.789 123.629C510.621 124.013 510.537 124.451 510.537 124.943V129.785H508.269ZM519.755 129.965C518.231 129.965 517.037 129.545 516.173 128.705C515.309 127.865 514.877 126.713 514.877 125.249C514.877 124.301 515.063 123.473 515.435 122.765C515.807 122.057 516.323 121.505 516.983 121.109C517.655 120.713 518.435 120.515 519.323 120.515C520.199 120.515 520.931 120.701 521.519 121.073C522.107 121.445 522.551 121.967 522.851 122.639C523.163 123.311 523.319 124.097 523.319 124.997V125.591H516.695V124.403H521.717L521.411 124.655C521.411 123.815 521.231 123.173 520.871 122.729C520.523 122.285 520.013 122.063 519.341 122.063C518.597 122.063 518.021 122.327 517.613 122.855C517.217 123.383 517.019 124.121 517.019 125.069V125.303C517.019 126.287 517.259 127.025 517.739 127.517C518.231 127.997 518.921 128.237 519.809 128.237C520.325 128.237 520.805 128.171 521.249 128.039C521.705 127.895 522.137 127.667 522.545 127.355L523.211 128.867C522.779 129.215 522.263 129.485 521.663 129.677C521.063 129.869 520.427 129.965 519.755 129.965Z" fill="#282828"/>
</g>
</g>
<g filter="url(#filter1_d_10299_35724)">
<g clip-path="url(#clip1_10299_35724)">
<rect x="47" y="196.785" width="535" height="68" rx="34" fill="white"/>
<path d="M76.3688 236.945C75.0461 236.945 74.0274 236.444 73.3128 235.441C72.5981 234.428 72.2408 232.988 72.2408 231.121C72.2408 229.233 72.5981 227.798 73.3128 226.817C74.0274 225.836 75.0461 225.345 76.3688 225.345C77.7021 225.345 78.7208 225.836 79.4248 226.817C80.1394 227.798 80.4968 229.228 80.4968 231.105C80.4968 232.982 80.1394 234.428 79.4248 235.441C78.7208 236.444 77.7021 236.945 76.3688 236.945ZM76.3688 235.249C77.0941 235.249 77.6328 234.918 77.9848 234.257C78.3368 233.585 78.5128 232.534 78.5128 231.105C78.5128 229.676 78.3368 228.641 77.9848 228.001C77.6328 227.35 77.0941 227.025 76.3688 227.025C75.6541 227.025 75.1154 227.35 74.7528 228.001C74.4008 228.641 74.2248 229.676 74.2248 231.105C74.2248 232.534 74.4008 233.585 74.7528 234.257C75.1154 234.918 75.6541 235.249 76.3688 235.249ZM81.1525 236.785L84.9125 232.161V233.073L81.3605 228.705H83.7285L86.0485 231.697H85.3285L87.6485 228.705H90.0005L86.4805 233.073V232.161L90.2245 236.785H87.8405L85.3285 233.569H86.0485L83.5205 236.785H81.1525ZM94.4049 236.945C93.7009 236.945 93.0822 236.78 92.5489 236.449C92.0155 236.108 91.5995 235.622 91.3009 234.993C91.0022 234.364 90.8529 233.612 90.8529 232.737C90.8529 231.862 91.0022 231.116 91.3009 230.497C91.5995 229.868 92.0155 229.388 92.5489 229.057C93.0822 228.716 93.7009 228.545 94.4049 228.545C95.0875 228.545 95.6849 228.716 96.1969 229.057C96.7195 229.388 97.0662 229.836 97.2369 230.401H97.0609L97.2369 228.705H99.1569C99.1249 229.036 99.0929 229.372 99.0609 229.713C99.0395 230.054 99.0289 230.39 99.0289 230.721V236.785H97.0449L97.0289 235.121H97.2209C97.0502 235.676 96.7035 236.118 96.1809 236.449C95.6582 236.78 95.0662 236.945 94.4049 236.945ZM94.9649 235.409C95.5942 235.409 96.1009 235.19 96.4849 234.753C96.8689 234.305 97.0609 233.633 97.0609 232.737C97.0609 231.841 96.8689 231.174 96.4849 230.737C96.1009 230.3 95.5942 230.081 94.9649 230.081C94.3355 230.081 93.8289 230.3 93.4449 230.737C93.0609 231.174 92.8689 231.841 92.8689 232.737C92.8689 233.633 93.0555 234.305 93.4289 234.753C93.8129 235.19 94.3249 235.409 94.9649 235.409ZM100.269 236.785L105.373 225.505H107.101L112.269 236.785H110.173L108.797 233.617L109.629 234.177H102.861L103.725 233.617L102.349 236.785H100.269ZM106.221 227.713L103.965 233.057L103.549 232.561H108.925L108.589 233.057L106.285 227.713H106.221ZM118.115 236.785V234.577H113.075V233.137L118.435 225.505H120.099V233.009H121.715V234.577H120.099V236.785H118.115ZM118.115 233.009V227.937H118.499L114.611 233.489V233.009H118.115ZM123.411 236.785V235.265L127.155 231.361C127.624 230.87 127.971 230.417 128.195 230.001C128.419 229.585 128.531 229.158 128.531 228.721C128.531 228.177 128.36 227.766 128.019 227.489C127.677 227.212 127.181 227.073 126.531 227.073C126.008 227.073 125.507 227.169 125.027 227.361C124.547 227.542 124.077 227.83 123.619 228.225L122.947 226.689C123.405 226.284 123.971 225.958 124.643 225.713C125.325 225.468 126.04 225.345 126.787 225.345C128.003 225.345 128.936 225.617 129.587 226.161C130.237 226.705 130.563 227.484 130.563 228.497C130.563 229.201 130.397 229.873 130.067 230.513C129.736 231.142 129.224 231.804 128.531 232.497L125.411 235.617V235.073H131.011V236.785H123.411ZM133.154 236.785V225.505H137.25C138.541 225.505 139.629 225.729 140.514 226.177C141.41 226.614 142.088 227.254 142.546 228.097C143.005 228.929 143.234 229.942 143.234 231.137C143.234 232.321 143.005 233.334 142.546 234.177C142.088 235.02 141.41 235.665 140.514 236.113C139.629 236.561 138.541 236.785 137.25 236.785H133.154ZM135.218 235.073H137.122C138.488 235.073 139.501 234.748 140.162 234.097C140.824 233.446 141.154 232.46 141.154 231.137C141.154 229.804 140.824 228.817 140.162 228.177C139.501 227.526 138.488 227.201 137.122 227.201H135.218V235.073ZM148.196 236.945C147.588 236.945 146.985 236.833 146.388 236.609C145.79 236.374 145.278 236.06 144.852 235.665L145.54 234.129C145.934 234.492 146.361 234.764 146.82 234.945C147.278 235.126 147.742 235.217 148.212 235.217C149.161 235.217 149.886 234.892 150.388 234.241C150.9 233.59 151.156 232.62 151.156 231.329V230.129H151.348C151.273 230.662 151.092 231.126 150.804 231.521C150.516 231.916 150.153 232.22 149.716 232.433C149.289 232.636 148.809 232.737 148.276 232.737C147.625 232.737 147.038 232.582 146.516 232.273C146.004 231.964 145.598 231.537 145.3 230.993C145.012 230.438 144.868 229.814 144.868 229.121C144.868 228.385 145.028 227.734 145.348 227.169C145.678 226.604 146.126 226.161 146.692 225.841C147.257 225.51 147.908 225.345 148.644 225.345C150.073 225.345 151.172 225.836 151.94 226.817C152.718 227.788 153.108 229.164 153.108 230.945C153.108 232.214 152.91 233.297 152.516 234.193C152.132 235.089 151.572 235.772 150.836 236.241C150.1 236.71 149.22 236.945 148.196 236.945ZM148.772 231.105C149.166 231.105 149.513 231.02 149.812 230.849C150.11 230.678 150.345 230.438 150.516 230.129C150.686 229.809 150.772 229.446 150.772 229.041C150.772 228.625 150.686 228.262 150.516 227.953C150.345 227.644 150.11 227.404 149.812 227.233C149.513 227.052 149.166 226.961 148.772 226.961C148.377 226.961 148.03 227.052 147.732 227.233C147.433 227.404 147.198 227.644 147.028 227.953C146.868 228.262 146.788 228.625 146.788 229.041C146.788 229.446 146.868 229.809 147.028 230.129C147.198 230.438 147.433 230.678 147.732 230.849C148.03 231.02 148.377 231.105 148.772 231.105ZM155.764 236.785V235.073H158.356V227.233H159.348L156.02 229.217V227.265L158.948 225.505H160.42V235.073H162.852V236.785H155.764ZM165.107 236.785L170.579 226.513V227.233H164.595V225.505H172.483V227.041L167.363 236.785H165.107ZM174.723 236.785V225.505H179.667C180.894 225.505 181.838 225.766 182.499 226.289C183.16 226.801 183.491 227.516 183.491 228.433C183.491 229.116 183.288 229.692 182.883 230.161C182.478 230.63 181.918 230.945 181.203 231.105V230.865C182.024 230.982 182.659 231.281 183.107 231.761C183.566 232.23 183.795 232.854 183.795 233.633C183.795 234.636 183.448 235.414 182.755 235.969C182.062 236.513 181.096 236.785 179.859 236.785H174.723ZM176.707 235.217H179.619C180.312 235.217 180.851 235.089 181.235 234.833C181.619 234.566 181.811 234.134 181.811 233.537C181.811 232.929 181.619 232.497 181.235 232.241C180.851 231.974 180.312 231.841 179.619 231.841H176.707V235.217ZM176.707 230.289H179.315C180.051 230.289 180.595 230.156 180.947 229.889C181.31 229.612 181.491 229.206 181.491 228.673C181.491 228.14 181.31 227.74 180.947 227.473C180.595 227.196 180.051 227.057 179.315 227.057H176.707V230.289ZM184.594 236.785L189.698 225.505H191.426L196.594 236.785H194.498L193.122 233.617L193.954 234.177H187.186L188.05 233.617L186.674 236.785H184.594ZM190.546 227.713L188.29 233.057L187.874 232.561H193.25L192.914 233.057L190.61 227.713H190.546ZM201.944 236.945C200.525 236.945 199.426 236.454 198.648 235.473C197.88 234.492 197.496 233.116 197.496 231.345C197.496 230.065 197.693 228.982 198.088 228.097C198.482 227.201 199.042 226.518 199.768 226.049C200.504 225.58 201.384 225.345 202.408 225.345C203.016 225.345 203.618 225.457 204.216 225.681C204.813 225.894 205.325 226.204 205.752 226.609L205.064 228.145C204.669 227.782 204.242 227.516 203.784 227.345C203.325 227.164 202.861 227.073 202.392 227.073C201.432 227.073 200.701 227.398 200.2 228.049C199.698 228.7 199.448 229.67 199.448 230.961V232.161H199.256C199.341 231.617 199.522 231.153 199.8 230.769C200.077 230.374 200.434 230.076 200.872 229.873C201.309 229.66 201.794 229.553 202.328 229.553C202.989 229.553 203.576 229.708 204.088 230.017C204.6 230.326 205 230.753 205.288 231.297C205.586 231.841 205.736 232.465 205.736 233.169C205.736 233.894 205.57 234.545 205.24 235.121C204.92 235.686 204.477 236.134 203.912 236.465C203.346 236.785 202.69 236.945 201.944 236.945ZM201.832 235.313C202.226 235.313 202.573 235.228 202.872 235.057C203.17 234.886 203.4 234.646 203.56 234.337C203.73 234.017 203.816 233.654 203.816 233.249C203.816 232.833 203.73 232.47 203.56 232.161C203.4 231.852 203.17 231.612 202.872 231.441C202.573 231.26 202.226 231.169 201.832 231.169C201.437 231.169 201.09 231.26 200.792 231.441C200.493 231.612 200.258 231.852 200.088 232.161C199.917 232.47 199.832 232.833 199.832 233.249C199.832 233.654 199.917 234.017 200.088 234.337C200.258 234.646 200.493 234.886 200.792 235.057C201.09 235.228 201.437 235.313 201.832 235.313ZM211.288 236.945C209.965 236.945 208.946 236.444 208.232 235.441C207.517 234.428 207.16 232.988 207.16 231.121C207.16 229.233 207.517 227.798 208.232 226.817C208.946 225.836 209.965 225.345 211.288 225.345C212.621 225.345 213.64 225.836 214.344 226.817C215.058 227.798 215.416 229.228 215.416 231.105C215.416 232.982 215.058 234.428 214.344 235.441C213.64 236.444 212.621 236.945 211.288 236.945ZM211.288 235.249C212.013 235.249 212.552 234.918 212.904 234.257C213.256 233.585 213.432 232.534 213.432 231.105C213.432 229.676 213.256 228.641 212.904 228.001C212.552 227.35 212.013 227.025 211.288 227.025C210.573 227.025 210.034 227.35 209.672 228.001C209.32 228.641 209.144 229.676 209.144 231.105C209.144 232.534 209.32 233.585 209.672 234.257C210.034 234.918 210.573 235.249 211.288 235.249ZM220.439 236.945C219.735 236.945 219.117 236.78 218.583 236.449C218.05 236.108 217.634 235.622 217.335 234.993C217.037 234.364 216.887 233.612 216.887 232.737C216.887 231.862 217.037 231.116 217.335 230.497C217.634 229.868 218.05 229.388 218.583 229.057C219.117 228.716 219.735 228.545 220.439 228.545C221.122 228.545 221.719 228.716 222.231 229.057C222.754 229.388 223.101 229.836 223.271 230.401H223.095L223.271 228.705H225.191C225.159 229.036 225.127 229.372 225.095 229.713C225.074 230.054 225.063 230.39 225.063 230.721V236.785H223.079L223.063 235.121H223.255C223.085 235.676 222.738 236.118 222.215 236.449C221.693 236.78 221.101 236.945 220.439 236.945ZM220.999 235.409C221.629 235.409 222.135 235.19 222.519 234.753C222.903 234.305 223.095 233.633 223.095 232.737C223.095 231.841 222.903 231.174 222.519 230.737C222.135 230.3 221.629 230.081 220.999 230.081C220.37 230.081 219.863 230.3 219.479 230.737C219.095 231.174 218.903 231.841 218.903 232.737C218.903 233.633 219.09 234.305 219.463 234.753C219.847 235.19 220.359 235.409 220.999 235.409ZM227.551 236.785V235.265L231.295 231.361C231.764 230.87 232.111 230.417 232.335 230.001C232.559 229.585 232.671 229.158 232.671 228.721C232.671 228.177 232.5 227.766 232.159 227.489C231.818 227.212 231.322 227.073 230.671 227.073C230.148 227.073 229.647 227.169 229.167 227.361C228.687 227.542 228.218 227.83 227.759 228.225L227.087 226.689C227.546 226.284 228.111 225.958 228.783 225.713C229.466 225.468 230.18 225.345 230.927 225.345C232.143 225.345 233.076 225.617 233.727 226.161C234.378 226.705 234.703 227.484 234.703 228.497C234.703 229.201 234.538 229.873 234.207 230.513C233.876 231.142 233.364 231.804 232.671 232.497L229.551 235.617V235.073H235.151V236.785H227.551ZM240.847 236.945C239.524 236.945 238.506 236.444 237.791 235.441C237.076 234.428 236.719 232.988 236.719 231.121C236.719 229.233 237.076 227.798 237.791 226.817C238.506 225.836 239.524 225.345 240.847 225.345C242.18 225.345 243.199 225.836 243.903 226.817C244.618 227.798 244.975 229.228 244.975 231.105C244.975 232.982 244.618 234.428 243.903 235.441C243.199 236.444 242.18 236.945 240.847 236.945ZM240.847 235.249C241.572 235.249 242.111 234.918 242.463 234.257C242.815 233.585 242.991 232.534 242.991 231.105C242.991 229.676 242.815 228.641 242.463 228.001C242.111 227.35 241.572 227.025 240.847 227.025C240.132 227.025 239.594 227.35 239.231 228.001C238.879 228.641 238.703 229.676 238.703 231.105C238.703 232.534 238.879 233.585 239.231 234.257C239.594 234.918 240.132 235.249 240.847 235.249ZM247.039 236.785V225.505H251.135C252.425 225.505 253.513 225.729 254.399 226.177C255.295 226.614 255.972 227.254 256.431 228.097C256.889 228.929 257.119 229.942 257.119 231.137C257.119 232.321 256.889 233.334 256.431 234.177C255.972 235.02 255.295 235.665 254.399 236.113C253.513 236.561 252.425 236.785 251.135 236.785H247.039ZM249.103 235.073H251.007C252.372 235.073 253.385 234.748 254.047 234.097C254.708 233.446 255.039 232.46 255.039 231.137C255.039 229.804 254.708 228.817 254.047 228.177C253.385 227.526 252.372 227.201 251.007 227.201H249.103V235.073ZM262.367 236.785V234.561H264.607V236.785H262.367ZM266.335 236.785V234.561H268.575V236.785H266.335ZM258.383 236.785V234.561H260.623V236.785H258.383ZM274.391 236.945C273.068 236.945 272.033 236.662 271.287 236.097C270.551 235.532 270.183 234.748 270.183 233.745C270.183 232.956 270.423 232.3 270.903 231.777C271.383 231.254 272.007 230.945 272.775 230.849V231.185C272.081 231.036 271.521 230.71 271.095 230.209C270.679 229.708 270.471 229.1 270.471 228.385C270.471 227.436 270.817 226.694 271.511 226.161C272.215 225.617 273.175 225.345 274.391 225.345C275.617 225.345 276.577 225.617 277.271 226.161C277.975 226.694 278.327 227.436 278.327 228.385C278.327 229.1 278.124 229.713 277.719 230.225C277.324 230.737 276.785 231.052 276.103 231.169V230.849C276.86 230.956 277.468 231.27 277.927 231.793C278.385 232.305 278.615 232.956 278.615 233.745C278.615 234.748 278.241 235.532 277.495 236.097C276.759 236.662 275.724 236.945 274.391 236.945ZM274.391 235.345C275.169 235.345 275.751 235.201 276.135 234.913C276.519 234.614 276.711 234.177 276.711 233.601C276.711 233.025 276.519 232.593 276.135 232.305C275.751 232.017 275.169 231.873 274.391 231.873C273.623 231.873 273.041 232.017 272.647 232.305C272.263 232.593 272.071 233.025 272.071 233.601C272.071 234.177 272.263 234.614 272.647 234.913C273.041 235.201 273.623 235.345 274.391 235.345ZM274.391 230.273C275.052 230.273 275.553 230.124 275.895 229.825C276.247 229.526 276.423 229.116 276.423 228.593C276.423 228.081 276.247 227.681 275.895 227.393C275.553 227.094 275.052 226.945 274.391 226.945C273.74 226.945 273.239 227.094 272.887 227.393C272.545 227.681 272.375 228.081 272.375 228.593C272.375 229.116 272.545 229.526 272.887 229.825C273.239 230.124 273.74 230.273 274.391 230.273ZM280.582 236.785V235.265L284.326 231.361C284.796 230.87 285.142 230.417 285.366 230.001C285.59 229.585 285.702 229.158 285.702 228.721C285.702 228.177 285.532 227.766 285.19 227.489C284.849 227.212 284.353 227.073 283.702 227.073C283.18 227.073 282.678 227.169 282.198 227.361C281.718 227.542 281.249 227.83 280.79 228.225L280.118 226.689C280.577 226.284 281.142 225.958 281.814 225.713C282.497 225.468 283.212 225.345 283.958 225.345C285.174 225.345 286.108 225.617 286.758 226.161C287.409 226.705 287.734 227.484 287.734 228.497C287.734 229.201 287.569 229.873 287.238 230.513C286.908 231.142 286.396 231.804 285.702 232.497L282.582 235.617V235.073H288.182V236.785H280.582ZM293.302 236.945C292.598 236.945 291.974 236.78 291.43 236.449C290.897 236.108 290.481 235.622 290.182 234.993C289.883 234.364 289.734 233.612 289.734 232.737C289.734 231.862 289.883 231.116 290.182 230.497C290.481 229.868 290.897 229.388 291.43 229.057C291.974 228.716 292.598 228.545 293.302 228.545C293.974 228.545 294.566 228.71 295.078 229.041C295.601 229.361 295.947 229.798 296.118 230.353H295.91V225.009H297.91V236.785H295.942V235.073H296.134C295.963 235.649 295.617 236.108 295.094 236.449C294.582 236.78 293.985 236.945 293.302 236.945ZM293.862 235.409C294.491 235.409 294.998 235.19 295.382 234.753C295.766 234.305 295.958 233.633 295.958 232.737C295.958 231.841 295.766 231.174 295.382 230.737C294.998 230.3 294.491 230.081 293.862 230.081C293.233 230.081 292.721 230.3 292.326 230.737C291.942 231.174 291.75 231.841 291.75 232.737C291.75 233.633 291.942 234.305 292.326 234.753C292.721 235.19 293.233 235.409 293.862 235.409Z" fill="#282828"/>
<rect x="352.5" y="197.285" width="229" height="67" rx="33.5" fill="#F7F7F7"/>
<rect x="352.5" y="197.285" width="229" height="67" rx="33.5" stroke="#D1D3E0"/>
<rect x="376.5" y="223.285" width="15" height="15" rx="7.5" fill="#E43B38" stroke="#E43B38"/>
<path d="M409.858 237.785V225.095H414.466C415.918 225.095 417.142 225.347 418.138 225.851C419.146 226.343 419.908 227.063 420.424 228.011C420.94 228.947 421.198 230.087 421.198 231.431C421.198 232.763 420.94 233.903 420.424 234.851C419.908 235.799 419.146 236.525 418.138 237.029C417.142 237.533 415.918 237.785 414.466 237.785H409.858ZM412.18 235.859H414.322C415.858 235.859 416.998 235.493 417.742 234.761C418.486 234.029 418.858 232.919 418.858 231.431C418.858 229.931 418.486 228.821 417.742 228.101C416.998 227.369 415.858 227.003 414.322 227.003H412.18V235.859ZM427.049 237.965C426.257 237.965 425.561 237.779 424.961 237.407C424.361 237.023 423.893 236.477 423.557 235.769C423.221 235.061 423.053 234.215 423.053 233.231C423.053 232.247 423.221 231.407 423.557 230.711C423.893 230.003 424.361 229.463 424.961 229.091C425.561 228.707 426.257 228.515 427.049 228.515C427.817 228.515 428.489 228.707 429.065 229.091C429.653 229.463 430.043 229.967 430.235 230.603H430.037L430.235 228.695H432.395C432.359 229.067 432.323 229.445 432.287 229.829C432.263 230.213 432.251 230.591 432.251 230.963V237.785H430.019L430.001 235.913H430.217C430.025 236.537 429.635 237.035 429.047 237.407C428.459 237.779 427.793 237.965 427.049 237.965ZM427.679 236.237C428.387 236.237 428.957 235.991 429.389 235.499C429.821 234.995 430.037 234.239 430.037 233.231C430.037 232.223 429.821 231.473 429.389 230.981C428.957 230.489 428.387 230.243 427.679 230.243C426.971 230.243 426.401 230.489 425.969 230.981C425.537 231.473 425.321 232.223 425.321 233.231C425.321 234.239 425.531 234.995 425.951 235.499C426.383 235.991 426.959 236.237 427.679 236.237ZM434.833 237.785V231.017C434.833 230.633 434.821 230.243 434.797 229.847C434.785 229.451 434.755 229.067 434.707 228.695H436.885L437.137 231.179H436.777C436.897 230.579 437.095 230.081 437.371 229.685C437.659 229.289 438.007 228.995 438.415 228.803C438.823 228.611 439.267 228.515 439.747 228.515C439.963 228.515 440.137 228.527 440.269 228.551C440.401 228.563 440.533 228.593 440.665 228.641L440.647 230.621C440.419 230.525 440.221 230.465 440.053 230.441C439.897 230.417 439.699 230.405 439.459 230.405C438.943 230.405 438.505 230.513 438.145 230.729C437.797 230.945 437.533 231.245 437.353 231.629C437.185 232.013 437.101 232.451 437.101 232.943V237.785H434.833ZM442.068 237.785V224.537H444.318V232.565H444.354L448.044 228.695H450.762L446.172 233.501L446.19 232.601L451.086 237.785H448.296L444.354 233.717H444.318V237.785H442.068ZM452.149 237.785V230.963C452.149 230.591 452.137 230.213 452.113 229.829C452.089 229.445 452.053 229.067 452.005 228.695H454.183L454.363 230.495H454.147C454.435 229.859 454.861 229.373 455.425 229.037C455.989 228.689 456.643 228.515 457.387 228.515C458.455 228.515 459.259 228.815 459.799 229.415C460.339 230.015 460.609 230.951 460.609 232.223V237.785H458.359V232.331C458.359 231.599 458.215 231.077 457.927 230.765C457.651 230.441 457.231 230.279 456.667 230.279C455.971 230.279 455.419 230.495 455.011 230.927C454.603 231.359 454.399 231.935 454.399 232.655V237.785H452.149ZM467.537 237.965C466.013 237.965 464.819 237.545 463.955 236.705C463.091 235.865 462.659 234.713 462.659 233.249C462.659 232.301 462.845 231.473 463.217 230.765C463.589 230.057 464.105 229.505 464.765 229.109C465.437 228.713 466.217 228.515 467.105 228.515C467.981 228.515 468.713 228.701 469.301 229.073C469.889 229.445 470.333 229.967 470.633 230.639C470.945 231.311 471.101 232.097 471.101 232.997V233.591H464.477V232.403H469.499L469.193 232.655C469.193 231.815 469.013 231.173 468.653 230.729C468.305 230.285 467.795 230.063 467.123 230.063C466.379 230.063 465.803 230.327 465.395 230.855C464.999 231.383 464.801 232.121 464.801 233.069V233.303C464.801 234.287 465.041 235.025 465.521 235.517C466.013 235.997 466.703 236.237 467.591 236.237C468.107 236.237 468.587 236.171 469.031 236.039C469.487 235.895 469.919 235.667 470.327 235.355L470.993 236.867C470.561 237.215 470.045 237.485 469.445 237.677C468.845 237.869 468.209 237.965 467.537 237.965ZM477.009 237.965C475.929 237.965 475.113 237.683 474.561 237.119C474.009 236.555 473.733 235.709 473.733 234.581V230.387H471.987V228.695H473.733V226.373L475.983 225.797V228.695H478.413V230.387H475.983V234.437C475.983 235.061 476.103 235.499 476.343 235.751C476.583 236.003 476.913 236.129 477.333 236.129C477.561 236.129 477.753 236.111 477.909 236.075C478.077 236.039 478.239 235.991 478.395 235.931V237.713C478.191 237.797 477.963 237.857 477.711 237.893C477.471 237.941 477.237 237.965 477.009 237.965ZM485.379 237.785V225.095H487.413L492.075 235.589H491.517L496.179 225.095H498.195V237.785H496.089V228.371H496.737L492.471 237.785H491.085L486.819 228.371H487.485V237.785H485.379ZM504.503 237.965C503.711 237.965 503.015 237.779 502.415 237.407C501.815 237.023 501.347 236.477 501.011 235.769C500.675 235.061 500.507 234.215 500.507 233.231C500.507 232.247 500.675 231.407 501.011 230.711C501.347 230.003 501.815 229.463 502.415 229.091C503.015 228.707 503.711 228.515 504.503 228.515C505.271 228.515 505.943 228.707 506.519 229.091C507.107 229.463 507.497 229.967 507.689 230.603H507.491L507.689 228.695H509.849C509.813 229.067 509.777 229.445 509.741 229.829C509.717 230.213 509.705 230.591 509.705 230.963V237.785H507.473L507.455 235.913H507.671C507.479 236.537 507.089 237.035 506.501 237.407C505.913 237.779 505.247 237.965 504.503 237.965ZM505.133 236.237C505.841 236.237 506.411 235.991 506.843 235.499C507.275 234.995 507.491 234.239 507.491 233.231C507.491 232.223 507.275 231.473 506.843 230.981C506.411 230.489 505.841 230.243 505.133 230.243C504.425 230.243 503.855 230.489 503.423 230.981C502.991 231.473 502.775 232.223 502.775 233.231C502.775 234.239 502.985 234.995 503.405 235.499C503.837 235.991 504.413 236.237 505.133 236.237ZM512.287 237.785V231.017C512.287 230.633 512.275 230.243 512.251 229.847C512.239 229.451 512.209 229.067 512.161 228.695H514.339L514.591 231.179H514.231C514.351 230.579 514.549 230.081 514.825 229.685C515.113 229.289 515.461 228.995 515.869 228.803C516.277 228.611 516.721 228.515 517.201 228.515C517.417 228.515 517.591 228.527 517.723 228.551C517.855 228.563 517.987 228.593 518.119 228.641L518.101 230.621C517.873 230.525 517.675 230.465 517.507 230.441C517.351 230.417 517.153 230.405 516.913 230.405C516.397 230.405 515.959 230.513 515.599 230.729C515.251 230.945 514.987 231.245 514.807 231.629C514.639 232.013 514.555 232.451 514.555 232.943V237.785H512.287ZM519.522 237.785V224.537H521.772V232.565H521.808L525.498 228.695H528.216L523.626 233.501L523.644 232.601L528.54 237.785H525.75L521.808 233.717H521.772V237.785H519.522ZM533.82 237.965C532.296 237.965 531.102 237.545 530.238 236.705C529.374 235.865 528.942 234.713 528.942 233.249C528.942 232.301 529.128 231.473 529.5 230.765C529.872 230.057 530.388 229.505 531.048 229.109C531.72 228.713 532.5 228.515 533.388 228.515C534.264 228.515 534.996 228.701 535.584 229.073C536.172 229.445 536.616 229.967 536.916 230.639C537.228 231.311 537.384 232.097 537.384 232.997V233.591H530.76V232.403H535.782L535.476 232.655C535.476 231.815 535.296 231.173 534.936 230.729C534.588 230.285 534.078 230.063 533.406 230.063C532.662 230.063 532.086 230.327 531.678 230.855C531.282 231.383 531.084 232.121 531.084 233.069V233.303C531.084 234.287 531.324 235.025 531.804 235.517C532.296 235.997 532.986 236.237 533.874 236.237C534.39 236.237 534.87 236.171 535.314 236.039C535.77 235.895 536.202 235.667 536.61 235.355L537.276 236.867C536.844 237.215 536.328 237.485 535.728 237.677C535.128 237.869 534.492 237.965 533.82 237.965ZM543.292 237.965C542.212 237.965 541.396 237.683 540.844 237.119C540.292 236.555 540.016 235.709 540.016 234.581V230.387H538.27V228.695H540.016V226.373L542.266 225.797V228.695H544.696V230.387H542.266V234.437C542.266 235.061 542.386 235.499 542.626 235.751C542.866 236.003 543.196 236.129 543.616 236.129C543.844 236.129 544.036 236.111 544.192 236.075C544.36 236.039 544.522 235.991 544.678 235.931V237.713C544.474 237.797 544.246 237.857 543.994 237.893C543.754 237.941 543.52 237.965 543.292 237.965Z" fill="#282828"/>
</g>
</g>
<g filter="url(#filter2_d_10299_35724)">
<g clip-path="url(#clip2_10299_35724)">
<rect x="47" y="304.785" width="535" height="68" rx="34" fill="white"/>
<path d="M77.0276 344.945C76.345 344.945 75.7476 344.78 75.2356 344.449C74.7236 344.108 74.3823 343.649 74.2116 343.073H74.3876V344.785H72.4036V333.009H74.4036V338.353H74.2116C74.393 337.798 74.7396 337.361 75.2516 337.041C75.7636 336.71 76.3556 336.545 77.0276 336.545C77.7423 336.545 78.3663 336.716 78.8996 337.057C79.433 337.398 79.849 337.884 80.1476 338.513C80.4463 339.132 80.5956 339.878 80.5956 340.753C80.5956 341.628 80.4463 342.38 80.1476 343.009C79.849 343.628 79.4276 344.108 78.8836 344.449C78.3503 344.78 77.7316 344.945 77.0276 344.945ZM76.4676 343.409C77.097 343.409 77.6036 343.19 77.9876 342.753C78.3823 342.316 78.5796 341.649 78.5796 340.753C78.5796 339.857 78.3823 339.19 77.9876 338.753C77.6036 338.305 77.097 338.081 76.4676 338.081C75.8383 338.081 75.3316 338.3 74.9476 338.737C74.5636 339.174 74.3716 339.841 74.3716 340.737C74.3716 341.633 74.5636 342.305 74.9476 342.753C75.3316 343.19 75.8383 343.409 76.4676 343.409ZM86.1875 344.945C85.3555 344.945 84.6248 344.774 83.9955 344.433C83.3768 344.092 82.8968 343.606 82.5555 342.977C82.2142 342.337 82.0435 341.58 82.0435 340.705C82.0435 339.83 82.2142 339.084 82.5555 338.465C82.9075 337.846 83.3928 337.372 84.0115 337.041C84.6302 336.71 85.3555 336.545 86.1875 336.545C86.7208 336.545 87.2382 336.63 87.7395 336.801C88.2515 336.961 88.6675 337.196 88.9875 337.505L88.3795 338.897C88.0915 338.63 87.7662 338.433 87.4035 338.305C87.0515 338.166 86.7048 338.097 86.3635 338.097C85.6488 338.097 85.0888 338.321 84.6835 338.769C84.2888 339.217 84.0915 339.868 84.0915 340.721C84.0915 341.574 84.2888 342.23 84.6835 342.689C85.0888 343.148 85.6488 343.377 86.3635 343.377C86.6942 343.377 87.0355 343.313 87.3875 343.185C87.7502 343.057 88.0808 342.86 88.3795 342.593L88.9875 343.969C88.6568 344.278 88.2355 344.518 87.7235 344.689C87.2222 344.86 86.7102 344.945 86.1875 344.945ZM91.376 344.785V343.073H93.968V335.233H94.96L91.632 337.217V335.265L94.56 333.505H96.032V343.073H98.464V344.785H91.376ZM106.176 348.241V343.121H106.368C106.197 343.676 105.85 344.118 105.328 344.449C104.805 344.78 104.213 344.945 103.552 344.945C102.848 344.945 102.229 344.78 101.696 344.449C101.162 344.108 100.746 343.622 100.448 342.993C100.149 342.364 99.9998 341.612 99.9998 340.737C99.9998 339.862 100.149 339.116 100.448 338.497C100.746 337.868 101.162 337.388 101.696 337.057C102.229 336.716 102.848 336.545 103.552 336.545C104.234 336.545 104.832 336.716 105.344 337.057C105.866 337.388 106.213 337.836 106.384 338.401H106.208L106.384 336.705H108.304C108.272 337.036 108.24 337.372 108.208 337.713C108.186 338.054 108.176 338.39 108.176 338.721V348.241H106.176ZM104.112 343.409C104.741 343.409 105.248 343.19 105.632 342.753C106.016 342.305 106.208 341.633 106.208 340.737C106.208 339.841 106.016 339.174 105.632 338.737C105.248 338.3 104.741 338.081 104.112 338.081C103.482 338.081 102.976 338.3 102.592 338.737C102.208 339.174 102.016 339.841 102.016 340.737C102.016 341.633 102.202 342.305 102.576 342.753C102.96 343.19 103.472 343.409 104.112 343.409ZM114.216 344.945C112.893 344.945 111.858 344.662 111.112 344.097C110.376 343.532 110.008 342.748 110.008 341.745C110.008 340.956 110.248 340.3 110.728 339.777C111.208 339.254 111.832 338.945 112.6 338.849V339.185C111.906 339.036 111.346 338.71 110.92 338.209C110.504 337.708 110.296 337.1 110.296 336.385C110.296 335.436 110.642 334.694 111.336 334.161C112.04 333.617 113 333.345 114.216 333.345C115.442 333.345 116.402 333.617 117.096 334.161C117.8 334.694 118.152 335.436 118.152 336.385C118.152 337.1 117.949 337.713 117.544 338.225C117.149 338.737 116.61 339.052 115.928 339.169V338.849C116.685 338.956 117.293 339.27 117.752 339.793C118.21 340.305 118.44 340.956 118.44 341.745C118.44 342.748 118.066 343.532 117.32 344.097C116.584 344.662 115.549 344.945 114.216 344.945ZM114.216 343.345C114.994 343.345 115.576 343.201 115.96 342.913C116.344 342.614 116.536 342.177 116.536 341.601C116.536 341.025 116.344 340.593 115.96 340.305C115.576 340.017 114.994 339.873 114.216 339.873C113.448 339.873 112.866 340.017 112.472 340.305C112.088 340.593 111.896 341.025 111.896 341.601C111.896 342.177 112.088 342.614 112.472 342.913C112.866 343.201 113.448 343.345 114.216 343.345ZM114.216 338.273C114.877 338.273 115.378 338.124 115.72 337.825C116.072 337.526 116.248 337.116 116.248 336.593C116.248 336.081 116.072 335.681 115.72 335.393C115.378 335.094 114.877 334.945 114.216 334.945C113.565 334.945 113.064 335.094 112.712 335.393C112.37 335.681 112.2 336.081 112.2 336.593C112.2 337.116 112.37 337.526 112.712 337.825C113.064 338.124 113.565 338.273 114.216 338.273ZM123.959 344.945C122.637 344.945 121.602 344.662 120.855 344.097C120.119 343.532 119.751 342.748 119.751 341.745C119.751 340.956 119.991 340.3 120.471 339.777C120.951 339.254 121.575 338.945 122.343 338.849V339.185C121.65 339.036 121.09 338.71 120.663 338.209C120.247 337.708 120.039 337.1 120.039 336.385C120.039 335.436 120.386 334.694 121.079 334.161C121.783 333.617 122.743 333.345 123.959 333.345C125.186 333.345 126.146 333.617 126.839 334.161C127.543 334.694 127.895 335.436 127.895 336.385C127.895 337.1 127.693 337.713 127.287 338.225C126.893 338.737 126.354 339.052 125.671 339.169V338.849C126.429 338.956 127.037 339.27 127.495 339.793C127.954 340.305 128.183 340.956 128.183 341.745C128.183 342.748 127.81 343.532 127.063 344.097C126.327 344.662 125.293 344.945 123.959 344.945ZM123.959 343.345C124.738 343.345 125.319 343.201 125.703 342.913C126.087 342.614 126.279 342.177 126.279 341.601C126.279 341.025 126.087 340.593 125.703 340.305C125.319 340.017 124.738 339.873 123.959 339.873C123.191 339.873 122.61 340.017 122.215 340.305C121.831 340.593 121.639 341.025 121.639 341.601C121.639 342.177 121.831 342.614 122.215 342.913C122.61 343.201 123.191 343.345 123.959 343.345ZM123.959 338.273C124.621 338.273 125.122 338.124 125.463 337.825C125.815 337.526 125.991 337.116 125.991 336.593C125.991 336.081 125.815 335.681 125.463 335.393C125.122 335.094 124.621 334.945 123.959 334.945C123.309 334.945 122.807 335.094 122.455 335.393C122.114 335.681 121.943 336.081 121.943 336.593C121.943 337.116 122.114 337.526 122.455 337.825C122.807 338.124 123.309 338.273 123.959 338.273ZM133.703 344.945C132.38 344.945 131.346 344.662 130.599 344.097C129.863 343.532 129.495 342.748 129.495 341.745C129.495 340.956 129.735 340.3 130.215 339.777C130.695 339.254 131.319 338.945 132.087 338.849V339.185C131.394 339.036 130.834 338.71 130.407 338.209C129.991 337.708 129.783 337.1 129.783 336.385C129.783 335.436 130.13 334.694 130.823 334.161C131.527 333.617 132.487 333.345 133.703 333.345C134.93 333.345 135.89 333.617 136.583 334.161C137.287 334.694 137.639 335.436 137.639 336.385C137.639 337.1 137.436 337.713 137.031 338.225C136.636 338.737 136.098 339.052 135.415 339.169V338.849C136.172 338.956 136.78 339.27 137.239 339.793C137.698 340.305 137.927 340.956 137.927 341.745C137.927 342.748 137.554 343.532 136.807 344.097C136.071 344.662 135.036 344.945 133.703 344.945ZM133.703 343.345C134.482 343.345 135.063 343.201 135.447 342.913C135.831 342.614 136.023 342.177 136.023 341.601C136.023 341.025 135.831 340.593 135.447 340.305C135.063 340.017 134.482 339.873 133.703 339.873C132.935 339.873 132.354 340.017 131.959 340.305C131.575 340.593 131.383 341.025 131.383 341.601C131.383 342.177 131.575 342.614 131.959 342.913C132.354 343.201 132.935 343.345 133.703 343.345ZM133.703 338.273C134.364 338.273 134.866 338.124 135.207 337.825C135.559 337.526 135.735 337.116 135.735 336.593C135.735 336.081 135.559 335.681 135.207 335.393C134.866 335.094 134.364 334.945 133.703 334.945C133.052 334.945 132.551 335.094 132.199 335.393C131.858 335.681 131.687 336.081 131.687 336.593C131.687 337.116 131.858 337.526 132.199 337.825C132.551 338.124 133.052 338.273 133.703 338.273ZM143.527 344.945C143.036 344.945 142.546 344.892 142.055 344.785C141.575 344.678 141.122 344.529 140.695 344.337C140.279 344.145 139.922 343.916 139.623 343.649L140.295 342.097C140.796 342.47 141.308 342.753 141.831 342.945C142.364 343.126 142.919 343.217 143.495 343.217C144.188 343.217 144.727 343.046 145.111 342.705C145.506 342.353 145.703 341.884 145.703 341.297C145.703 340.7 145.516 340.22 145.143 339.857C144.77 339.484 144.258 339.297 143.607 339.297C143.148 339.297 142.727 339.388 142.343 339.569C141.97 339.74 141.634 340.006 141.335 340.369H139.975V333.505H146.983V335.201H141.927V338.785H141.431C141.708 338.412 142.076 338.124 142.535 337.921C143.004 337.718 143.527 337.617 144.103 337.617C144.828 337.617 145.458 337.766 145.991 338.065C146.524 338.364 146.94 338.785 147.239 339.329C147.538 339.862 147.687 340.492 147.687 341.217C147.687 341.953 147.516 342.604 147.175 343.169C146.844 343.724 146.364 344.161 145.735 344.481C145.116 344.79 144.38 344.945 143.527 344.945ZM154.087 344.785V342.577H149.047V341.137L154.407 333.505H156.071V341.009H157.687V342.577H156.071V344.785H154.087ZM154.087 341.009V335.937H154.471L150.583 341.489V341.009H154.087ZM159.222 344.785V338.721C159.222 338.39 159.212 338.054 159.19 337.713C159.169 337.372 159.137 337.036 159.094 336.705H161.03L161.19 338.305H160.998C161.254 337.74 161.633 337.308 162.134 337.009C162.636 336.7 163.217 336.545 163.878 336.545C164.828 336.545 165.542 336.812 166.022 337.345C166.502 337.878 166.742 338.71 166.742 339.841V344.785H164.742V339.937C164.742 339.286 164.614 338.822 164.358 338.545C164.113 338.257 163.74 338.113 163.238 338.113C162.62 338.113 162.129 338.305 161.766 338.689C161.404 339.073 161.222 339.585 161.222 340.225V344.785H159.222ZM171.877 344.945C171.269 344.945 170.666 344.833 170.069 344.609C169.472 344.374 168.96 344.06 168.533 343.665L169.221 342.129C169.616 342.492 170.042 342.764 170.501 342.945C170.96 343.126 171.424 343.217 171.893 343.217C172.842 343.217 173.568 342.892 174.069 342.241C174.581 341.59 174.837 340.62 174.837 339.329V338.129H175.029C174.954 338.662 174.773 339.126 174.485 339.521C174.197 339.916 173.834 340.22 173.397 340.433C172.97 340.636 172.49 340.737 171.957 340.737C171.306 340.737 170.72 340.582 170.197 340.273C169.685 339.964 169.28 339.537 168.981 338.993C168.693 338.438 168.549 337.814 168.549 337.121C168.549 336.385 168.709 335.734 169.029 335.169C169.36 334.604 169.808 334.161 170.373 333.841C170.938 333.51 171.589 333.345 172.325 333.345C173.754 333.345 174.853 333.836 175.621 334.817C176.4 335.788 176.789 337.164 176.789 338.945C176.789 340.214 176.592 341.297 176.197 342.193C175.813 343.089 175.253 343.772 174.517 344.241C173.781 344.71 172.901 344.945 171.877 344.945ZM172.453 339.105C172.848 339.105 173.194 339.02 173.493 338.849C173.792 338.678 174.026 338.438 174.197 338.129C174.368 337.809 174.453 337.446 174.453 337.041C174.453 336.625 174.368 336.262 174.197 335.953C174.026 335.644 173.792 335.404 173.493 335.233C173.194 335.052 172.848 334.961 172.453 334.961C172.058 334.961 171.712 335.052 171.413 335.233C171.114 335.404 170.88 335.644 170.709 335.953C170.549 336.262 170.469 336.625 170.469 337.041C170.469 337.446 170.549 337.809 170.709 338.129C170.88 338.438 171.114 338.678 171.413 338.849C171.712 339.02 172.058 339.105 172.453 339.105ZM178.437 344.785V343.473L183.493 337.729V338.209H178.437V336.705H185.301V338.017L180.197 343.809L180.181 343.281H185.477V344.785H178.437ZM190.241 344.945C189.249 344.945 188.507 344.673 188.017 344.129C187.526 343.585 187.281 342.753 187.281 341.633V336.705H189.281V341.617C189.281 342.214 189.403 342.657 189.649 342.945C189.894 343.222 190.267 343.361 190.769 343.361C191.334 343.361 191.793 343.169 192.145 342.785C192.507 342.401 192.689 341.894 192.689 341.265V336.705H194.689V344.785H192.737V343.137H192.961C192.726 343.713 192.369 344.161 191.889 344.481C191.419 344.79 190.87 344.945 190.241 344.945ZM197.01 344.785V338.721C197.01 338.39 196.999 338.054 196.978 337.713C196.957 337.372 196.925 337.036 196.882 336.705H198.818L198.978 338.305H198.786C199.01 337.75 199.351 337.318 199.81 337.009C200.279 336.7 200.834 336.545 201.474 336.545C202.114 336.545 202.642 336.7 203.058 337.009C203.485 337.308 203.783 337.777 203.954 338.417H203.698C203.922 337.841 204.29 337.388 204.802 337.057C205.314 336.716 205.901 336.545 206.562 336.545C207.469 336.545 208.146 336.812 208.594 337.345C209.042 337.878 209.266 338.71 209.266 339.841V344.785H207.266V339.921C207.266 339.281 207.159 338.822 206.946 338.545C206.733 338.257 206.391 338.113 205.922 338.113C205.367 338.113 204.93 338.31 204.61 338.705C204.29 339.089 204.13 339.612 204.13 340.273V344.785H202.13V339.921C202.13 339.281 202.023 338.822 201.81 338.545C201.597 338.257 201.255 338.113 200.786 338.113C200.231 338.113 199.794 338.31 199.474 338.705C199.165 339.089 199.01 339.612 199.01 340.273V344.785H197.01ZM213.84 344.785L210.352 336.705H212.48L215.008 343.025H214.512L217.104 336.705H219.104L215.6 344.785H213.84ZM224.118 344.945C223.627 344.945 223.136 344.892 222.646 344.785C222.166 344.678 221.712 344.529 221.286 344.337C220.87 344.145 220.512 343.916 220.214 343.649L220.886 342.097C221.387 342.47 221.899 342.753 222.422 342.945C222.955 343.126 223.51 343.217 224.086 343.217C224.779 343.217 225.318 343.046 225.702 342.705C226.096 342.353 226.294 341.884 226.294 341.297C226.294 340.7 226.107 340.22 225.734 339.857C225.36 339.484 224.848 339.297 224.198 339.297C223.739 339.297 223.318 339.388 222.934 339.569C222.56 339.74 222.224 340.006 221.926 340.369H220.566V333.505H227.574V335.201H222.518V338.785H222.022C222.299 338.412 222.667 338.124 223.126 337.921C223.595 337.718 224.118 337.617 224.694 337.617C225.419 337.617 226.048 337.766 226.582 338.065C227.115 338.364 227.531 338.785 227.83 339.329C228.128 339.862 228.278 340.492 228.278 341.217C228.278 341.953 228.107 342.604 227.766 343.169C227.435 343.724 226.955 344.161 226.326 344.481C225.707 344.79 224.971 344.945 224.118 344.945ZM230.069 344.785V333.009H232.069V344.785H230.069ZM234.375 344.785V338.769C234.375 338.428 234.364 338.081 234.343 337.729C234.332 337.377 234.306 337.036 234.263 336.705H236.199L236.423 338.913H236.103C236.21 338.38 236.386 337.937 236.631 337.585C236.887 337.233 237.196 336.972 237.559 336.801C237.922 336.63 238.316 336.545 238.743 336.545C238.935 336.545 239.09 336.556 239.207 336.577C239.324 336.588 239.442 336.614 239.559 336.657L239.543 338.417C239.34 338.332 239.164 338.278 239.015 338.257C238.876 338.236 238.7 338.225 238.487 338.225C238.028 338.225 237.639 338.321 237.319 338.513C237.01 338.705 236.775 338.972 236.615 339.313C236.466 339.654 236.391 340.044 236.391 340.481V344.785H234.375ZM244.534 344.945C243.212 344.945 242.177 344.662 241.43 344.097C240.694 343.532 240.326 342.748 240.326 341.745C240.326 340.956 240.566 340.3 241.046 339.777C241.526 339.254 242.15 338.945 242.918 338.849V339.185C242.225 339.036 241.665 338.71 241.238 338.209C240.822 337.708 240.614 337.1 240.614 336.385C240.614 335.436 240.961 334.694 241.654 334.161C242.358 333.617 243.318 333.345 244.534 333.345C245.761 333.345 246.721 333.617 247.414 334.161C248.118 334.694 248.47 335.436 248.47 336.385C248.47 337.1 248.268 337.713 247.862 338.225C247.468 338.737 246.929 339.052 246.246 339.169V338.849C247.004 338.956 247.612 339.27 248.07 339.793C248.529 340.305 248.758 340.956 248.758 341.745C248.758 342.748 248.385 343.532 247.638 344.097C246.902 344.662 245.868 344.945 244.534 344.945ZM244.534 343.345C245.313 343.345 245.894 343.201 246.278 342.913C246.662 342.614 246.854 342.177 246.854 341.601C246.854 341.025 246.662 340.593 246.278 340.305C245.894 340.017 245.313 339.873 244.534 339.873C243.766 339.873 243.185 340.017 242.79 340.305C242.406 340.593 242.214 341.025 242.214 341.601C242.214 342.177 242.406 342.614 242.79 342.913C243.185 343.201 243.766 343.345 244.534 343.345ZM244.534 338.273C245.196 338.273 245.697 338.124 246.038 337.825C246.39 337.526 246.566 337.116 246.566 336.593C246.566 336.081 246.39 335.681 246.038 335.393C245.697 335.094 245.196 334.945 244.534 334.945C243.884 334.945 243.382 335.094 243.03 335.393C242.689 335.681 242.518 336.081 242.518 336.593C242.518 337.116 242.689 337.526 243.03 337.825C243.382 338.124 243.884 338.273 244.534 338.273ZM250.566 344.785V333.009H252.566V344.785H250.566ZM258.648 344.785V342.561H260.888V344.785H258.648ZM262.616 344.785V342.561H264.856V344.785H262.616ZM254.664 344.785V342.561H256.904V344.785H254.664ZM269.887 344.945C269.193 344.945 268.553 344.865 267.967 344.705C267.391 344.534 266.905 344.3 266.511 344.001L267.071 342.657C267.476 342.934 267.924 343.148 268.415 343.297C268.905 343.446 269.401 343.521 269.903 343.521C270.436 343.521 270.831 343.43 271.087 343.249C271.353 343.068 271.487 342.822 271.487 342.513C271.487 342.268 271.401 342.076 271.231 341.937C271.071 341.788 270.809 341.676 270.447 341.601L268.847 341.297C268.164 341.148 267.641 340.892 267.279 340.529C266.927 340.166 266.751 339.692 266.751 339.105C266.751 338.604 266.884 338.161 267.151 337.777C267.428 337.393 267.817 337.094 268.319 336.881C268.831 336.657 269.428 336.545 270.111 336.545C270.708 336.545 271.268 336.625 271.791 336.785C272.324 336.945 272.772 337.185 273.135 337.505L272.559 338.801C272.228 338.534 271.849 338.326 271.423 338.177C270.996 338.028 270.58 337.953 270.175 337.953C269.62 337.953 269.215 338.054 268.959 338.257C268.703 338.449 268.575 338.7 268.575 339.009C268.575 339.244 268.649 339.441 268.799 339.601C268.959 339.75 269.204 339.862 269.535 339.937L271.135 340.241C271.849 340.38 272.388 340.625 272.751 340.977C273.124 341.318 273.311 341.788 273.311 342.385C273.311 342.918 273.167 343.377 272.879 343.761C272.591 344.145 272.191 344.438 271.679 344.641C271.167 344.844 270.569 344.945 269.887 344.945ZM277.256 344.785L274.104 336.705H276.168L278.44 342.993H278.024L280.328 336.705H281.752L284.04 342.993H283.672L285.928 336.705H287.88L284.728 344.785H282.968L280.552 338.353H281.4L279.032 344.785H277.256ZM292.879 348.369C292.132 348.369 291.455 348.289 290.847 348.129C290.25 347.969 289.716 347.724 289.247 347.393L289.679 345.953C289.988 346.156 290.308 346.321 290.639 346.449C290.97 346.577 291.311 346.673 291.663 346.737C292.015 346.801 292.372 346.833 292.735 346.833C293.482 346.833 294.036 346.646 294.399 346.273C294.772 345.91 294.959 345.388 294.959 344.705V342.769H295.119C294.948 343.324 294.602 343.766 294.079 344.097C293.567 344.428 292.975 344.593 292.303 344.593C291.578 344.593 290.943 344.433 290.399 344.113C289.866 343.782 289.45 343.313 289.151 342.705C288.852 342.097 288.703 341.382 288.703 340.561C288.703 339.74 288.852 339.03 289.151 338.433C289.45 337.825 289.866 337.361 290.399 337.041C290.943 336.71 291.578 336.545 292.303 336.545C292.986 336.545 293.578 336.71 294.079 337.041C294.591 337.361 294.932 337.798 295.103 338.353L294.959 338.257L295.119 336.705H297.055C297.012 337.036 296.98 337.372 296.959 337.713C296.938 338.054 296.927 338.39 296.927 338.721V344.465C296.927 345.734 296.58 346.7 295.887 347.361C295.204 348.033 294.202 348.369 292.879 348.369ZM292.847 343.057C293.487 343.057 293.994 342.844 294.367 342.417C294.751 341.98 294.943 341.361 294.943 340.561C294.943 339.761 294.751 339.148 294.367 338.721C293.994 338.294 293.487 338.081 292.847 338.081C292.196 338.081 291.679 338.294 291.295 338.721C290.911 339.148 290.719 339.761 290.719 340.561C290.719 341.361 290.911 341.98 291.295 342.417C291.679 342.844 292.196 343.057 292.847 343.057Z" fill="#282828"/>
<rect x="352.5" y="305.285" width="229" height="67" rx="33.5" fill="#F7F7F7"/>
<rect x="352.5" y="305.285" width="229" height="67" rx="33.5" stroke="#D1D3E0"/>
<rect x="376.5" y="331.285" width="15" height="15" rx="7.5" fill="url(#paint0_linear_10299_35724)" stroke="#4F3731"/>
<path d="M414.745 345.965C413.725 345.965 412.783 345.839 411.919 345.587C411.067 345.323 410.335 344.963 409.723 344.507L410.443 342.689C410.851 342.977 411.277 343.223 411.721 343.427C412.165 343.619 412.639 343.769 413.143 343.877C413.647 343.973 414.181 344.021 414.745 344.021C415.693 344.021 416.377 343.865 416.797 343.553C417.217 343.241 417.427 342.833 417.427 342.329C417.427 341.885 417.283 341.549 416.995 341.321C416.707 341.081 416.191 340.883 415.447 340.727L413.413 340.313C412.249 340.073 411.379 339.671 410.803 339.107C410.227 338.543 409.939 337.787 409.939 336.839C409.939 336.047 410.149 335.357 410.569 334.769C410.989 334.181 411.577 333.725 412.333 333.401C413.089 333.077 413.971 332.915 414.979 332.915C415.879 332.915 416.713 333.047 417.481 333.311C418.249 333.563 418.891 333.929 419.407 334.409L418.687 336.137C418.171 335.705 417.607 335.387 416.995 335.183C416.383 334.967 415.699 334.859 414.943 334.859C414.091 334.859 413.425 335.027 412.945 335.363C412.477 335.687 412.243 336.137 412.243 336.713C412.243 337.157 412.387 337.511 412.675 337.775C412.975 338.039 413.479 338.243 414.187 338.387L416.203 338.783C417.403 339.023 418.291 339.419 418.867 339.971C419.443 340.511 419.731 341.243 419.731 342.167C419.731 342.923 419.527 343.589 419.119 344.165C418.711 344.729 418.135 345.173 417.391 345.497C416.647 345.809 415.765 345.965 414.745 345.965ZM425.165 345.965C424.049 345.965 423.215 345.659 422.663 345.047C422.111 344.435 421.835 343.499 421.835 342.239V336.695H424.085V342.221C424.085 342.893 424.223 343.391 424.499 343.715C424.775 344.027 425.195 344.183 425.759 344.183C426.395 344.183 426.911 343.967 427.307 343.535C427.715 343.103 427.919 342.533 427.919 341.825V336.695H430.169V345.785H427.973V343.931H428.225C427.961 344.579 427.559 345.083 427.019 345.443C426.491 345.791 425.873 345.965 425.165 345.965ZM436.002 345.965C435.222 345.965 434.502 345.875 433.842 345.695C433.194 345.503 432.648 345.239 432.204 344.903L432.834 343.391C433.29 343.703 433.794 343.943 434.346 344.111C434.898 344.279 435.456 344.363 436.02 344.363C436.62 344.363 437.064 344.261 437.352 344.057C437.652 343.853 437.802 343.577 437.802 343.229C437.802 342.953 437.706 342.737 437.514 342.581C437.334 342.413 437.04 342.287 436.632 342.203L434.832 341.861C434.064 341.693 433.476 341.405 433.068 340.997C432.672 340.589 432.474 340.055 432.474 339.395C432.474 338.831 432.624 338.333 432.924 337.901C433.236 337.469 433.674 337.133 434.238 336.893C434.814 336.641 435.486 336.515 436.254 336.515C436.926 336.515 437.556 336.605 438.144 336.785C438.744 336.965 439.248 337.235 439.656 337.595L439.008 339.053C438.636 338.753 438.21 338.519 437.73 338.351C437.25 338.183 436.782 338.099 436.326 338.099C435.702 338.099 435.246 338.213 434.958 338.441C434.67 338.657 434.526 338.939 434.526 339.287C434.526 339.551 434.61 339.773 434.778 339.953C434.958 340.121 435.234 340.247 435.606 340.331L437.406 340.673C438.21 340.829 438.816 341.105 439.224 341.501C439.644 341.885 439.854 342.413 439.854 343.085C439.854 343.685 439.692 344.201 439.368 344.633C439.044 345.065 438.594 345.395 438.018 345.623C437.442 345.851 436.77 345.965 436.002 345.965ZM441.929 349.673V338.963C441.929 338.591 441.917 338.213 441.893 337.829C441.869 337.445 441.833 337.067 441.785 336.695H443.963L444.161 338.603H443.963C444.143 337.967 444.521 337.463 445.097 337.091C445.685 336.707 446.363 336.515 447.131 336.515C447.935 336.515 448.637 336.707 449.237 337.091C449.837 337.463 450.305 338.003 450.641 338.711C450.977 339.407 451.145 340.247 451.145 341.231C451.145 342.215 450.977 343.061 450.641 343.769C450.305 344.477 449.837 345.023 449.237 345.407C448.637 345.779 447.935 345.965 447.131 345.965C446.375 345.965 445.709 345.779 445.133 345.407C444.557 345.035 444.173 344.537 443.981 343.913H444.179V349.673H441.929ZM446.501 344.237C447.221 344.237 447.797 343.991 448.229 343.499C448.661 342.995 448.877 342.239 448.877 341.231C448.877 340.223 448.661 339.473 448.229 338.981C447.797 338.489 447.221 338.243 446.501 338.243C445.793 338.243 445.223 338.489 444.791 338.981C444.359 339.473 444.143 340.223 444.143 341.231C444.143 342.239 444.359 342.995 444.791 343.499C445.223 343.991 445.793 344.237 446.501 344.237ZM457.633 345.965C456.109 345.965 454.915 345.545 454.051 344.705C453.187 343.865 452.755 342.713 452.755 341.249C452.755 340.301 452.941 339.473 453.313 338.765C453.685 338.057 454.201 337.505 454.861 337.109C455.533 336.713 456.313 336.515 457.201 336.515C458.077 336.515 458.809 336.701 459.397 337.073C459.985 337.445 460.429 337.967 460.729 338.639C461.041 339.311 461.197 340.097 461.197 340.997V341.591H454.573V340.403H459.595L459.289 340.655C459.289 339.815 459.109 339.173 458.749 338.729C458.401 338.285 457.891 338.063 457.219 338.063C456.475 338.063 455.899 338.327 455.491 338.855C455.095 339.383 454.897 340.121 454.897 341.069V341.303C454.897 342.287 455.137 343.025 455.617 343.517C456.109 343.997 456.799 344.237 457.687 344.237C458.203 344.237 458.683 344.171 459.127 344.039C459.583 343.895 460.015 343.667 460.423 343.355L461.089 344.867C460.657 345.215 460.141 345.485 459.541 345.677C458.941 345.869 458.305 345.965 457.633 345.965ZM467.429 345.965C466.493 345.965 465.671 345.773 464.963 345.389C464.267 345.005 463.727 344.459 463.343 343.751C462.959 343.031 462.767 342.179 462.767 341.195C462.767 340.211 462.959 339.371 463.343 338.675C463.739 337.979 464.285 337.445 464.981 337.073C465.677 336.701 466.493 336.515 467.429 336.515C468.029 336.515 468.611 336.611 469.175 336.803C469.751 336.983 470.219 337.247 470.579 337.595L469.895 339.161C469.571 338.861 469.205 338.639 468.797 338.495C468.401 338.339 468.011 338.261 467.627 338.261C466.823 338.261 466.193 338.513 465.737 339.017C465.293 339.521 465.071 340.253 465.071 341.213C465.071 342.173 465.293 342.911 465.737 343.427C466.193 343.943 466.823 344.201 467.627 344.201C467.999 344.201 468.383 344.129 468.779 343.985C469.187 343.841 469.559 343.619 469.895 343.319L470.579 344.867C470.207 345.215 469.733 345.485 469.157 345.677C468.593 345.869 468.017 345.965 467.429 345.965ZM476.396 345.965C475.316 345.965 474.5 345.683 473.948 345.119C473.396 344.555 473.12 343.709 473.12 342.581V338.387H471.374V336.695H473.12V334.373L475.37 333.797V336.695H477.8V338.387H475.37V342.437C475.37 343.061 475.49 343.499 475.73 343.751C475.97 344.003 476.3 344.129 476.72 344.129C476.948 344.129 477.14 344.111 477.296 344.075C477.464 344.039 477.626 343.991 477.782 343.931V345.713C477.578 345.797 477.35 345.857 477.098 345.893C476.858 345.941 476.624 345.965 476.396 345.965ZM483.782 345.965C482.258 345.965 481.064 345.545 480.2 344.705C479.336 343.865 478.904 342.713 478.904 341.249C478.904 340.301 479.09 339.473 479.462 338.765C479.834 338.057 480.35 337.505 481.01 337.109C481.682 336.713 482.462 336.515 483.35 336.515C484.226 336.515 484.958 336.701 485.546 337.073C486.134 337.445 486.578 337.967 486.878 338.639C487.19 339.311 487.346 340.097 487.346 340.997V341.591H480.722V340.403H485.744L485.438 340.655C485.438 339.815 485.258 339.173 484.898 338.729C484.55 338.285 484.04 338.063 483.368 338.063C482.624 338.063 482.048 338.327 481.64 338.855C481.244 339.383 481.046 340.121 481.046 341.069V341.303C481.046 342.287 481.286 343.025 481.766 343.517C482.258 343.997 482.948 344.237 483.836 344.237C484.352 344.237 484.832 344.171 485.276 344.039C485.732 343.895 486.164 343.667 486.572 343.355L487.238 344.867C486.806 345.215 486.29 345.485 485.69 345.677C485.09 345.869 484.454 345.965 483.782 345.965ZM492.93 345.965C492.138 345.965 491.436 345.779 490.824 345.407C490.224 345.023 489.756 344.477 489.42 343.769C489.084 343.061 488.916 342.215 488.916 341.231C488.916 340.247 489.084 339.407 489.42 338.711C489.756 338.003 490.224 337.463 490.824 337.091C491.436 336.707 492.138 336.515 492.93 336.515C493.686 336.515 494.352 336.701 494.928 337.073C495.516 337.433 495.906 337.925 496.098 338.549H495.864V332.537H498.114V345.785H495.9V343.859H496.116C495.924 344.507 495.534 345.023 494.946 345.407C494.37 345.779 493.698 345.965 492.93 345.965ZM493.56 344.237C494.268 344.237 494.838 343.991 495.27 343.499C495.702 342.995 495.918 342.239 495.918 341.231C495.918 340.223 495.702 339.473 495.27 338.981C494.838 338.489 494.268 338.243 493.56 338.243C492.852 338.243 492.276 338.489 491.832 338.981C491.4 339.473 491.184 340.223 491.184 341.231C491.184 342.239 491.4 342.995 491.832 343.499C492.276 343.991 492.852 344.237 493.56 344.237ZM510.411 345.965C509.391 345.965 508.449 345.839 507.585 345.587C506.733 345.323 506.001 344.963 505.389 344.507L506.109 342.689C506.517 342.977 506.943 343.223 507.387 343.427C507.831 343.619 508.305 343.769 508.809 343.877C509.313 343.973 509.847 344.021 510.411 344.021C511.359 344.021 512.043 343.865 512.463 343.553C512.883 343.241 513.093 342.833 513.093 342.329C513.093 341.885 512.949 341.549 512.661 341.321C512.373 341.081 511.857 340.883 511.113 340.727L509.079 340.313C507.915 340.073 507.045 339.671 506.469 339.107C505.893 338.543 505.605 337.787 505.605 336.839C505.605 336.047 505.815 335.357 506.235 334.769C506.655 334.181 507.243 333.725 507.999 333.401C508.755 333.077 509.637 332.915 510.645 332.915C511.545 332.915 512.379 333.047 513.147 333.311C513.915 333.563 514.557 333.929 515.073 334.409L514.353 336.137C513.837 335.705 513.273 335.387 512.661 335.183C512.049 334.967 511.365 334.859 510.609 334.859C509.757 334.859 509.091 335.027 508.611 335.363C508.143 335.687 507.909 336.137 507.909 336.713C507.909 337.157 508.053 337.511 508.341 337.775C508.641 338.039 509.145 338.243 509.853 338.387L511.869 338.783C513.069 339.023 513.957 339.419 514.533 339.971C515.109 340.511 515.397 341.243 515.397 342.167C515.397 342.923 515.193 343.589 514.785 344.165C514.377 344.729 513.801 345.173 513.057 345.497C512.313 345.809 511.431 345.965 510.411 345.965ZM521.731 345.965C520.795 345.965 519.973 345.773 519.265 345.389C518.569 345.005 518.029 344.459 517.645 343.751C517.261 343.031 517.069 342.179 517.069 341.195C517.069 340.211 517.261 339.371 517.645 338.675C518.041 337.979 518.587 337.445 519.283 337.073C519.979 336.701 520.795 336.515 521.731 336.515C522.331 336.515 522.913 336.611 523.477 336.803C524.053 336.983 524.521 337.247 524.881 337.595L524.197 339.161C523.873 338.861 523.507 338.639 523.099 338.495C522.703 338.339 522.313 338.261 521.929 338.261C521.125 338.261 520.495 338.513 520.039 339.017C519.595 339.521 519.373 340.253 519.373 341.213C519.373 342.173 519.595 342.911 520.039 343.427C520.495 343.943 521.125 344.201 521.929 344.201C522.301 344.201 522.685 344.129 523.081 343.985C523.489 343.841 523.861 343.619 524.197 343.319L524.881 344.867C524.509 345.215 524.035 345.485 523.459 345.677C522.895 345.869 522.319 345.965 521.731 345.965ZM530.232 345.965C529.44 345.965 528.744 345.779 528.144 345.407C527.544 345.023 527.076 344.477 526.74 343.769C526.404 343.061 526.236 342.215 526.236 341.231C526.236 340.247 526.404 339.407 526.74 338.711C527.076 338.003 527.544 337.463 528.144 337.091C528.744 336.707 529.44 336.515 530.232 336.515C531 336.515 531.672 336.707 532.248 337.091C532.836 337.463 533.226 337.967 533.418 338.603H533.22L533.418 336.695H535.578C535.542 337.067 535.506 337.445 535.47 337.829C535.446 338.213 535.434 338.591 535.434 338.963V345.785H533.202L533.184 343.913H533.4C533.208 344.537 532.818 345.035 532.23 345.407C531.642 345.779 530.976 345.965 530.232 345.965ZM530.862 344.237C531.57 344.237 532.14 343.991 532.572 343.499C533.004 342.995 533.22 342.239 533.22 341.231C533.22 340.223 533.004 339.473 532.572 338.981C532.14 338.489 531.57 338.243 530.862 338.243C530.154 338.243 529.584 338.489 529.152 338.981C528.72 339.473 528.504 340.223 528.504 341.231C528.504 342.239 528.714 342.995 529.134 343.499C529.566 343.991 530.142 344.237 530.862 344.237ZM538.035 345.785V338.963C538.035 338.591 538.023 338.213 537.999 337.829C537.975 337.445 537.939 337.067 537.891 336.695H540.069L540.249 338.495H540.033C540.285 337.871 540.669 337.385 541.185 337.037C541.713 336.689 542.337 336.515 543.057 336.515C543.777 336.515 544.371 336.689 544.839 337.037C545.319 337.373 545.655 337.901 545.847 338.621H545.559C545.811 337.973 546.225 337.463 546.801 337.091C547.377 336.707 548.037 336.515 548.781 336.515C549.801 336.515 550.563 336.815 551.067 337.415C551.571 338.015 551.823 338.951 551.823 340.223V345.785H549.573V340.313C549.573 339.593 549.453 339.077 549.213 338.765C548.973 338.441 548.589 338.279 548.061 338.279C547.437 338.279 546.945 338.501 546.585 338.945C546.225 339.377 546.045 339.965 546.045 340.709V345.785H543.795V340.313C543.795 339.593 543.675 339.077 543.435 338.765C543.195 338.441 542.811 338.279 542.283 338.279C541.659 338.279 541.167 338.501 540.807 338.945C540.459 339.377 540.285 339.965 540.285 340.709V345.785H538.035Z" fill="#282828"/>
</g>
</g>
<defs>
<filter id="filter0_d_10299_35724" x="36" y="81.7852" width="557" height="90" filterUnits="userSpaceOnUse" color-interpolation-filters="sRGB">
<feFlood flood-opacity="0" result="BackgroundImageFix"/>
<feColorMatrix in="SourceAlpha" type="matrix" values="0 0 0 0 0 0 0 0 0 0 0 0 0 0 0 0 0 0 127 0" result="hardAlpha"/>
<feMorphology radius="1" operator="dilate" in="SourceAlpha" result="effect1_dropShadow_10299_35724"/>
<feOffset dy="4"/>
<feGaussianBlur stdDeviation="5"/>
<feColorMatrix type="matrix" values="0 0 0 0 0.160784 0 0 0 0 0.223529 0 0 0 0 0.447059 0 0 0 0.14 0"/>
<feBlend mode="normal" in2="BackgroundImageFix" result="effect1_dropShadow_10299_35724"/>
<feBlend mode="normal" in="SourceGraphic" in2="effect1_dropShadow_10299_35724" result="shape"/>
</filter>
<filter id="filter1_d_10299_35724" x="36" y="189.785" width="557" height="90" filterUnits="userSpaceOnUse" color-interpolation-filters="sRGB">
<feFlood flood-opacity="0" result="BackgroundImageFix"/>
<feColorMatrix in="SourceAlpha" type="matrix" values="0 0 0 0 0 0 0 0 0 0 0 0 0 0 0 0 0 0 127 0" result="hardAlpha"/>
<feMorphology radius="1" operator="dilate" in="SourceAlpha" result="effect1_dropShadow_10299_35724"/>
<feOffset dy="4"/>
<feGaussianBlur stdDeviation="5"/>
<feColorMatrix type="matrix" values="0 0 0 0 0.160784 0 0 0 0 0.223529 0 0 0 0 0.447059 0 0 0 0.14 0"/>
<feBlend mode="normal" in2="BackgroundImageFix" result="effect1_dropShadow_10299_35724"/>
<feBlend mode="normal" in="SourceGraphic" in2="effect1_dropShadow_10299_35724" result="shape"/>
</filter>
<filter id="filter2_d_10299_35724" x="36" y="297.785" width="557" height="90" filterUnits="userSpaceOnUse" color-interpolation-filters="sRGB">
<feFlood flood-opacity="0" result="BackgroundImageFix"/>
<feColorMatrix in="SourceAlpha" type="matrix" values="0 0 0 0 0 0 0 0 0 0 0 0 0 0 0 0 0 0 127 0" result="hardAlpha"/>
<feMorphology radius="1" operator="dilate" in="SourceAlpha" result="effect1_dropShadow_10299_35724"/>
<feOffset dy="4"/>
<feGaussianBlur stdDeviation="5"/>
<feColorMatrix type="matrix" values="0 0 0 0 0.160784 0 0 0 0 0.223529 0 0 0 0 0.447059 0 0 0 0.14 0"/>
<feBlend mode="normal" in2="BackgroundImageFix" result="effect1_dropShadow_10299_35724"/>
<feBlend mode="normal" in="SourceGraphic" in2="effect1_dropShadow_10299_35724" result="shape"/>
</filter>
<linearGradient id="paint0_linear_10299_35724" x1="376" y1="338.785" x2="392" y2="338.785" gradientUnits="userSpaceOnUse">
<stop offset="0.5" stop-color="#4F3731"/>
<stop offset="0.5" stop-color="white"/>
</linearGradient>
<clipPath id="clip0_10299_35724">
<rect x="47" y="88.7852" width="535" height="68" rx="34" fill="white"/>
</clipPath>
<clipPath id="clip1_10299_35724">
<rect x="47" y="196.785" width="535" height="68" rx="34" fill="white"/>
</clipPath>
<clipPath id="clip2_10299_35724">
<rect x="47" y="304.785" width="535" height="68" rx="34" fill="white"/>
</clipPath>
</defs>
</svg>