<svg width="628" height="460" viewBox="0 0 628 460" fill="none" xmlns="http://www.w3.org/2000/svg">
<g clip-path="url(#clip0_10391_25305)">
<g opacity="0.5" clip-path="url(#clip1_10391_25305)">
<path d="M57.6777 82.2792V193.784" stroke="#BCCBED" stroke-width="1.77669" stroke-linecap="round" stroke-linejoin="round"/>
<path d="M250.822 193.784V82.2792" stroke="#BCCBED" stroke-width="1.77669" stroke-linecap="round" stroke-linejoin="round"/>
<path d="M154.241 26.5268L250.822 82.2794L154.241 138.032L57.6777 82.2794L154.241 26.5268Z" fill="white"/>
<path d="M82.7656 96.7598V179.305L154.242 220.577V138.032L82.7656 96.7598Z" fill="white"/>
<path d="M82.7656 179.305L154.242 220.577" stroke="#BCCBED" stroke-width="1.77669" stroke-linecap="round" stroke-linejoin="round"/>
<path d="M82.7656 96.7598V179.305" stroke="#BCCBED" stroke-width="1.77669" stroke-linecap="round" stroke-linejoin="round"/>
<path d="M154.244 220.577L225.72 179.305" stroke="#BCCBED" stroke-width="1.77669" stroke-linecap="round" stroke-linejoin="round"/>
<path d="M154.242 55.5049L82.7656 96.7597" stroke="#BCCBED" stroke-width="1.77669" stroke-linecap="round" stroke-linejoin="round"/>
<path d="M225.717 179.305V96.7598" stroke="#BCCBED" stroke-width="1.77669" stroke-linecap="round" stroke-linejoin="round"/>
<path d="M225.72 96.7597L154.244 55.5049" stroke="#BCCBED" stroke-width="1.77669" stroke-linecap="round" stroke-linejoin="round"/>
<path d="M154.244 220.577V138.032" stroke="#BCCBED" stroke-width="1.77669" stroke-linecap="round" stroke-linejoin="round"/>
<path d="M225.72 96.7598L154.244 138.032" stroke="#BCCBED" stroke-width="1.77669" stroke-linecap="round" stroke-linejoin="round"/>
<path d="M82.7656 96.7598L154.242 138.032" stroke="#BCCBED" stroke-width="1.77669" stroke-linecap="round" stroke-linejoin="round"/>
<path d="M57.6777 193.785L154.241 249.556" stroke="#BCCBED" stroke-width="1.77669" stroke-linecap="round" stroke-linejoin="round"/>
<path d="M154.24 249.556L250.821 193.785" stroke="#BCCBED" stroke-width="1.77669" stroke-linecap="round" stroke-linejoin="round"/>
<path d="M154.241 26.5268L57.6777 82.2794" stroke="#BCCBED" stroke-width="1.77669" stroke-linecap="round" stroke-linejoin="round"/>
<path d="M250.821 82.2794L154.24 26.5268" stroke="#BCCBED" stroke-width="1.77669" stroke-linecap="round" stroke-linejoin="round"/>
<path d="M129.152 123.552L32.571 179.304L-63.9922 123.552V12.0289L32.571 -43.7237L129.152 12.0289V123.552Z" fill="white" stroke="#BCCBED" stroke-width="1.77669" stroke-linecap="round" stroke-linejoin="round"/>
<path d="M32.571 -43.7237L129.152 12.0289L32.571 67.7992L-63.9922 12.0289L32.571 -43.7237Z" fill="#F4F6FA"/>
<path d="M-38.9043 26.5268V109.054L32.572 150.327V67.7993L-38.9043 26.5268Z" fill="#E8EDFF"/>
<path d="M-38.9043 109.054L32.572 150.327" stroke="#BCCBED" stroke-width="1.77669" stroke-linecap="round" stroke-linejoin="round"/>
<path d="M32.5703 150.327L104.047 109.054" stroke="#BCCBED" stroke-width="1.77669" stroke-linecap="round" stroke-linejoin="round"/>
<path d="M104.047 109.054V26.5268" stroke="#BCCBED" stroke-width="1.77669" stroke-linecap="round" stroke-linejoin="round"/>
<path d="M32.5703 150.327V67.7992" stroke="#BCCBED" stroke-width="1.77669" stroke-linecap="round" stroke-linejoin="round"/>
<path d="M32.572 67.7993L104.048 26.5267L32.572 -14.7458L-38.9043 26.5267L32.572 67.7993Z" fill="white" stroke="#BCCBED" stroke-width="1.77669" stroke-linecap="round" stroke-linejoin="round"/>
<path d="M-63.9922 123.552L32.571 179.304" stroke="#BCCBED" stroke-width="1.77669" stroke-linecap="round" stroke-linejoin="round"/>
<path d="M32.5703 179.304L129.151 123.552" stroke="#BCCBED" stroke-width="1.77669" stroke-linecap="round" stroke-linejoin="round"/>
<path d="M32.571 -43.7237L-63.9922 12.0289" stroke="#BCCBED" stroke-width="1.77669" stroke-linecap="round" stroke-linejoin="round"/>
<path d="M129.151 12.0289L32.5703 -43.7237" stroke="#BCCBED" stroke-width="1.77669" stroke-linecap="round" stroke-linejoin="round"/>
<path d="M104.047 26.5268V109.054L32.5703 150.327V67.7993L104.047 26.5268Z" fill="#6178BB" stroke="#6178BB" stroke-width="1.77669" stroke-miterlimit="10"/>
<path d="M250.824 193.785L154.243 249.555L57.6797 193.785V82.2796L154.243 26.527L250.824 82.2796V193.785Z" fill="white" stroke="#BCCBED" stroke-width="1.77669" stroke-linecap="round" stroke-linejoin="round"/>
<path d="M154.243 26.527L250.824 82.2796L154.243 138.032L57.6797 82.2796L154.243 26.527Z" fill="#F4F6FA"/>
<path d="M82.7656 96.7598V179.305L154.242 220.577V138.032L82.7656 96.7598Z" fill="#E8EDFF"/>
<path d="M82.7656 179.305L154.242 220.577" stroke="#BCCBED" stroke-width="1.77669" stroke-linecap="round" stroke-linejoin="round"/>
<path d="M82.7656 96.7598V179.305" stroke="#BCCBED" stroke-width="1.77669" stroke-linecap="round" stroke-linejoin="round"/>
<path d="M154.242 220.577L225.719 179.305" stroke="#BCCBED" stroke-width="1.77669" stroke-linecap="round" stroke-linejoin="round"/>
<path d="M225.719 179.305V96.7598" stroke="#BCCBED" stroke-width="1.77669" stroke-linecap="round" stroke-linejoin="round"/>
<path d="M154.242 220.577V138.032" stroke="#BCCBED" stroke-width="1.77669" stroke-linecap="round" stroke-linejoin="round"/>
<path d="M154.242 138.032L225.718 96.7597L154.242 55.5049L82.7656 96.7597L154.242 138.032Z" fill="white" stroke="#BCCBED" stroke-width="1.77669" stroke-linecap="round" stroke-linejoin="round"/>
<path d="M57.6797 193.785L154.243 249.555" stroke="#BCCBED" stroke-width="1.77669" stroke-linecap="round" stroke-linejoin="round"/>
<path d="M154.242 249.555L250.823 193.785" stroke="#BCCBED" stroke-width="1.77669" stroke-linecap="round" stroke-linejoin="round"/>
<path d="M154.243 26.527L57.6797 82.2796" stroke="#BCCBED" stroke-width="1.77669" stroke-linecap="round" stroke-linejoin="round"/>
<path d="M250.823 82.2796L154.242 26.527" stroke="#BCCBED" stroke-width="1.77669" stroke-linecap="round" stroke-linejoin="round"/>
<path d="M225.719 96.7598V179.305L154.242 220.577V138.032L225.719 96.7598Z" fill="#6178BB" stroke="#6178BB" stroke-width="1.77669" stroke-miterlimit="10"/>
<path d="M370.73 263.022L274.167 318.775L177.586 263.022V151.517L274.167 95.7643L370.73 151.517V263.022Z" fill="white" stroke="#BCCBED" stroke-width="1.77669" stroke-linecap="round" stroke-linejoin="round"/>
<path d="M274.167 95.7643L370.73 151.517L274.167 207.27L177.586 151.517L274.167 95.7643Z" fill="#F4F6FA"/>
<path d="M202.691 165.997V248.542L274.168 289.814V207.269L202.691 165.997Z" fill="#E8EDFF"/>
<path d="M202.691 248.542L274.168 289.815" stroke="#BCCBED" stroke-width="1.77669" stroke-linecap="round" stroke-linejoin="round"/>
<path d="M202.691 165.997V248.542" stroke="#BCCBED" stroke-width="1.77669" stroke-linecap="round" stroke-linejoin="round"/>
<path d="M274.168 289.815L345.644 248.542" stroke="#BCCBED" stroke-width="1.77669" stroke-linecap="round" stroke-linejoin="round"/>
<path d="M345.645 248.542V165.997" stroke="#BCCBED" stroke-width="1.77669" stroke-linecap="round" stroke-linejoin="round"/>
<path d="M274.168 289.815V207.27" stroke="#BCCBED" stroke-width="1.77669" stroke-linecap="round" stroke-linejoin="round"/>
<path d="M274.168 207.27L345.644 165.997L274.168 124.742L202.691 165.997L274.168 207.27Z" fill="white" stroke="#BCCBED" stroke-width="1.77669" stroke-linecap="round" stroke-linejoin="round"/>
<path d="M177.586 263.022L274.167 318.775" stroke="#BCCBED" stroke-width="1.77669" stroke-linecap="round" stroke-linejoin="round"/>
<path d="M274.168 318.775L370.731 263.022" stroke="#BCCBED" stroke-width="1.77669" stroke-linecap="round" stroke-linejoin="round"/>
<path d="M274.167 95.7643L177.586 151.517" stroke="#BCCBED" stroke-width="1.77669" stroke-linecap="round" stroke-linejoin="round"/>
<path d="M370.731 151.517L274.168 95.7645" stroke="#BCCBED" stroke-width="1.77669" stroke-linecap="round" stroke-linejoin="round"/>
<path d="M345.644 165.997V248.542L274.168 289.814V207.269L345.644 165.997Z" fill="#6178BB" stroke="#6178BB" stroke-width="1.77669" stroke-miterlimit="10"/>
<path d="M372.125 -55.2366H-38.877V332.473H372.125V-55.2366Z" fill="url(#paint0_linear_10391_25305)"/>
</g>
<path d="M259.752 338.061L428.5 -42.6841L597.248 338.06C597.249 338.062 597.25 338.063 597.25 338.064C600.008 344.538 601.467 351.255 601.467 358.154C601.467 383.221 582.263 406.042 550.933 422.627C519.626 439.2 476.34 449.467 428.5 449.467C380.66 449.467 337.374 439.2 306.067 422.627C274.737 406.042 255.533 383.221 255.533 358.154C255.533 351.254 256.993 344.527 259.75 338.064C259.751 338.062 259.751 338.062 259.752 338.061Z" fill="url(#paint1_linear_10391_25305)" stroke="url(#paint2_linear_10391_25305)" stroke-width="1.06637"/>
<path d="M322.207 218.375V341.73" stroke="#BCCBED" stroke-width="1.77669" stroke-linecap="round" stroke-linejoin="round"/>
<path d="M535.857 341.73V218.375" stroke="#BCCBED" stroke-width="1.77669" stroke-linecap="round" stroke-linejoin="round"/>
<path opacity="0.3" d="M429.04 156.705L535.854 218.374L429.04 280.043L322.207 218.374L429.04 156.705Z" fill="#BCCBED"/>
<path d="M349.959 234.401V325.705L429.04 371.348V280.044L349.959 234.401Z" fill="white"/>
<path d="M349.959 325.705L429.04 371.348" stroke="#BCCBED" stroke-width="1.77669" stroke-linecap="round" stroke-linejoin="round"/>
<path d="M349.959 234.401V325.705" stroke="#BCCBED" stroke-width="1.77669" stroke-linecap="round" stroke-linejoin="round"/>
<path d="M429.039 371.348L508.102 325.705" stroke="#BCCBED" stroke-width="1.77669" stroke-linecap="round" stroke-linejoin="round"/>
<path d="M429.04 188.757L349.959 234.4" stroke="#BCCBED" stroke-width="1.77669" stroke-linecap="round" stroke-linejoin="round"/>
<path d="M508.102 325.705V234.401" stroke="#BCCBED" stroke-width="1.77669" stroke-linecap="round" stroke-linejoin="round"/>
<path d="M508.102 234.4L429.039 188.757" stroke="#BCCBED" stroke-width="1.77669" stroke-linecap="round" stroke-linejoin="round"/>
<path d="M429.039 371.348V280.044" stroke="#BCCBED" stroke-width="1.77669" stroke-linecap="round" stroke-linejoin="round"/>
<path d="M508.102 234.401L429.039 280.044" stroke="#BCCBED" stroke-width="1.77669" stroke-linecap="round" stroke-linejoin="round"/>
<path d="M349.959 234.401L429.04 280.044" stroke="#BCCBED" stroke-width="1.77669" stroke-linecap="round" stroke-linejoin="round"/>
<path d="M322.207 341.731L429.04 403.4" stroke="#BCCBED" stroke-width="1.77669" stroke-linecap="round" stroke-linejoin="round"/>
<path d="M429.039 403.4L535.854 341.731" stroke="#BCCBED" stroke-width="1.77669" stroke-linecap="round" stroke-linejoin="round"/>
<path d="M429.04 156.705L322.207 218.374" stroke="#BCCBED" stroke-width="1.77669" stroke-linecap="round" stroke-linejoin="round"/>
<path d="M535.854 218.374L429.039 156.705" stroke="#BCCBED" stroke-width="1.77669" stroke-linecap="round" stroke-linejoin="round"/>
<path d="M508.102 234.401V325.705L429.039 371.348V280.044L508.102 234.401Z" fill="#3E569B" stroke="#3E569B" stroke-width="1.77669" stroke-miterlimit="10"/>
<path d="M456.083 412.283L429.041 427.9L401.982 412.283" stroke="#122149" stroke-width="5.33008" stroke-linecap="square" stroke-linejoin="round"/>
<path d="M401.982 147.822L429.041 132.205L456.083 147.822" stroke="#122149" stroke-width="5.33008" stroke-linecap="square" stroke-linejoin="round"/>
<path d="M557.071 322.755V353.971L530.029 369.588" stroke="#122149" stroke-width="5.33008" stroke-linecap="square" stroke-linejoin="round"/>
<path d="M300.994 237.349V206.132L328.035 190.515" stroke="#122149" stroke-width="5.33008" stroke-linecap="square" stroke-linejoin="round"/>
<path d="M530.029 190.515L557.071 206.132V237.349" stroke="#122149" stroke-width="5.33008" stroke-linecap="square" stroke-linejoin="round"/>
<path d="M328.035 369.588L300.994 353.971V322.755" stroke="#122149" stroke-width="5.33008" stroke-linecap="square" stroke-linejoin="round"/>
<path d="M400.469 35.0633C400.469 31.7146 403.183 29 406.532 29H613.027C616.376 29 619.09 31.7146 619.09 35.0633V77.1249C619.09 80.4736 616.376 83.1882 613.027 83.1882H406.532C403.183 83.1882 400.469 80.4736 400.469 77.1249V35.0633Z" fill="white"/>
<path d="M400.469 35.0633C400.469 31.7146 403.183 29 406.532 29H613.027C616.376 29 619.09 31.7146 619.09 35.0633V77.1249C619.09 80.4736 616.376 83.1882 613.027 83.1882H406.532C403.183 83.1882 400.469 80.4736 400.469 77.1249V35.0633Z" stroke="#B33300" stroke-width="1.86856"/>
<circle cx="440.405" cy="53.7584" r="9.80993" transform="rotate(-9.30241 440.405 53.7584)" fill="white" stroke="#B33300" stroke-width="1.86856" stroke-linecap="round" stroke-dasharray="1.87 5.61"/>
<path d="M439.003 47.6855L456.755 50.4884V66.3711H437.135L439.003 47.6855Z" fill="white"/>
<path fill-rule="evenodd" clip-rule="evenodd" d="M442.18 62.7975V66.3712H444.563V64.6895H446.151V66.3712H447.739V64.6895H449.328V66.3712H451.71V62.7975C452.226 62.5593 452.68 62.2405 453.07 61.8411C453.461 61.4417 453.791 60.9897 454.063 60.4852C454.334 59.9807 454.539 59.4412 454.678 58.8666C454.817 58.292 454.887 57.7104 454.887 57.1218C454.887 54.9076 454.145 53.0927 452.663 51.6773C451.181 50.2619 449.275 49.5541 446.945 49.5541C444.616 49.5541 442.71 50.2619 441.227 51.6773C439.745 53.0927 439.004 54.9076 439.004 57.1218C439.004 57.7104 439.073 58.292 439.212 58.8666C439.351 59.4412 439.556 59.9807 439.828 60.4852C440.099 60.9897 440.43 61.4417 440.82 61.8411C441.211 62.2405 441.664 62.5593 442.18 62.7975ZM446.945 58.5933L448.136 61.1158H445.754L446.945 58.5933ZM445.288 58.3095C444.976 58.6388 444.603 58.8035 444.166 58.8035C443.729 58.8035 443.355 58.6388 443.044 58.3095C442.733 57.9802 442.578 57.5843 442.578 57.1218C442.578 56.6593 442.733 56.2634 443.044 55.9341C443.355 55.6048 443.729 55.4401 444.166 55.4401C444.603 55.4401 444.976 55.6048 445.288 55.9341C445.599 56.2634 445.754 56.6593 445.754 57.1218C445.754 57.5843 445.599 57.9802 445.288 58.3095ZM450.846 58.3095C450.535 58.6388 450.162 58.8035 449.725 58.8035C449.288 58.8035 448.914 58.6388 448.603 58.3095C448.292 57.9802 448.136 57.5843 448.136 57.1218C448.136 56.6593 448.292 56.2634 448.603 55.9341C448.914 55.6048 449.288 55.4401 449.725 55.4401C450.162 55.4401 450.535 55.6048 450.846 55.9341C451.158 56.2634 451.313 56.6593 451.313 57.1218C451.313 57.5843 451.158 57.9802 450.846 58.3095Z" fill="#B33300"/>
<path d="M464.539 62.0941V50.8141H471.739V51.9021H465.835V55.8221H471.387V56.9261H465.835V60.9901H471.739V62.0941H464.539ZM472.862 62.0941L476.462 57.6301V58.2701L473.054 54.0621H474.622L477.198 57.3421H476.734L479.294 54.0621H480.846L477.486 58.2541V57.6621L481.054 62.0941H479.47L476.718 58.5901H477.198L474.414 62.0941H472.862ZM482.661 65.5501V55.9181C482.661 55.6194 482.645 55.3154 482.613 55.0061C482.592 54.6861 482.565 54.3714 482.533 54.0621H483.781L483.957 55.9661H483.765C483.936 55.3368 484.283 54.8408 484.805 54.4781C485.328 54.1048 485.952 53.9181 486.677 53.9181C487.403 53.9181 488.027 54.0834 488.549 54.4141C489.083 54.7448 489.499 55.2194 489.797 55.8381C490.096 56.4568 490.245 57.2034 490.245 58.0781C490.245 58.9421 490.096 59.6834 489.797 60.3021C489.509 60.9208 489.099 61.4008 488.565 61.7421C488.032 62.0728 487.403 62.2381 486.677 62.2381C485.963 62.2381 485.344 62.0568 484.821 61.6941C484.299 61.3314 483.952 60.8354 483.781 60.2061H483.957V65.5501H482.661ZM486.421 61.1821C487.189 61.1821 487.797 60.9208 488.245 60.3981C488.704 59.8648 488.933 59.0914 488.933 58.0781C488.933 57.0541 488.704 56.2808 488.245 55.7581C487.797 55.2248 487.189 54.9581 486.421 54.9581C485.664 54.9581 485.056 55.2248 484.597 55.7581C484.149 56.2808 483.925 57.0541 483.925 58.0781C483.925 59.0914 484.149 59.8648 484.597 60.3981C485.056 60.9208 485.664 61.1821 486.421 61.1821ZM492.404 62.0941V50.3181H493.7V62.0941H492.404ZM499.661 62.2381C498.893 62.2381 498.221 62.0728 497.645 61.7421C497.08 61.4008 496.643 60.9208 496.333 60.3021C496.024 59.6728 495.869 58.9314 495.869 58.0781C495.869 57.2141 496.024 56.4728 496.333 55.8541C496.643 55.2354 497.08 54.7608 497.645 54.4301C498.221 54.0888 498.893 53.9181 499.661 53.9181C500.44 53.9181 501.112 54.0888 501.677 54.4301C502.253 54.7608 502.696 55.2354 503.005 55.8541C503.325 56.4728 503.485 57.2141 503.485 58.0781C503.485 58.9314 503.325 59.6728 503.005 60.3021C502.696 60.9208 502.253 61.4008 501.677 61.7421C501.112 62.0728 500.44 62.2381 499.661 62.2381ZM499.661 61.1821C500.429 61.1821 501.037 60.9208 501.485 60.3981C501.933 59.8648 502.157 59.0914 502.157 58.0781C502.157 57.0541 501.928 56.2808 501.469 55.7581C501.021 55.2248 500.419 54.9581 499.661 54.9581C498.904 54.9581 498.301 55.2248 497.853 55.7581C497.405 56.2808 497.181 57.0541 497.181 58.0781C497.181 59.0914 497.405 59.8648 497.853 60.3981C498.301 60.9208 498.904 61.1821 499.661 61.1821ZM505.655 62.0941V54.0621H506.951V62.0941H505.655ZM505.495 52.2381V50.7821H507.095V52.2381H505.495ZM512.464 62.2381C511.675 62.2381 511.072 62.0141 510.656 61.5661C510.24 61.1074 510.032 60.4194 510.032 59.5021V55.0701H508.464V54.0621H510.032V51.8701L511.328 51.5021V54.0621H513.632V55.0701H511.328V59.3581C511.328 59.9981 511.435 60.4568 511.648 60.7341C511.872 61.0008 512.203 61.1341 512.64 61.1341C512.843 61.1341 513.024 61.1181 513.184 61.0861C513.344 61.0434 513.488 60.9954 513.616 60.9421V62.0301C513.467 62.0941 513.286 62.1421 513.072 62.1741C512.87 62.2168 512.667 62.2381 512.464 62.2381ZM522.72 62.2381C522.016 62.2381 521.397 62.0728 520.864 61.7421C520.33 61.4008 519.914 60.9208 519.616 60.3021C519.328 59.6834 519.184 58.9421 519.184 58.0781C519.184 57.2034 519.328 56.4568 519.616 55.8381C519.914 55.2194 520.33 54.7448 520.864 54.4141C521.397 54.0834 522.016 53.9181 522.72 53.9181C523.445 53.9181 524.069 54.0994 524.592 54.4621C525.125 54.8248 525.482 55.3154 525.664 55.9341H525.472V50.3181H526.768V62.0941H525.488V60.1741H525.664C525.493 60.8141 525.141 61.3208 524.608 61.6941C524.074 62.0568 523.445 62.2381 522.72 62.2381ZM522.992 61.1821C523.749 61.1821 524.357 60.9208 524.816 60.3981C525.274 59.8648 525.504 59.0914 525.504 58.0781C525.504 57.0541 525.274 56.2808 524.816 55.7581C524.357 55.2248 523.749 54.9581 522.992 54.9581C522.234 54.9581 521.626 55.2248 521.168 55.7581C520.72 56.2808 520.496 57.0541 520.496 58.0781C520.496 59.0914 520.72 59.8648 521.168 60.3981C521.626 60.9208 522.234 61.1821 522.992 61.1821ZM532.99 62.2381C531.732 62.2381 530.74 61.8754 530.014 61.1501C529.289 60.4141 528.926 59.3954 528.926 58.0941C528.926 57.2514 529.086 56.5208 529.406 55.9021C529.726 55.2728 530.174 54.7874 530.75 54.4461C531.326 54.0941 531.988 53.9181 532.734 53.9181C533.47 53.9181 534.089 54.0728 534.59 54.3821C535.092 54.6914 535.476 55.1341 535.742 55.7101C536.009 56.2754 536.142 56.9474 536.142 57.7261V58.2061H529.918V57.3901H535.294L535.022 57.5981C535.022 56.7448 534.83 56.0781 534.446 55.5981C534.062 55.1181 533.492 54.8781 532.734 54.8781C531.934 54.8781 531.31 55.1608 530.862 55.7261C530.414 56.2808 530.19 57.0328 530.19 57.9821V58.1261C530.19 59.1288 530.436 59.8914 530.926 60.4141C531.428 60.9261 532.126 61.1821 533.022 61.1821C533.502 61.1821 533.95 61.1128 534.366 60.9741C534.793 60.8248 535.198 60.5848 535.582 60.2541L536.03 61.1661C535.678 61.5074 535.23 61.7741 534.686 61.9661C534.153 62.1474 533.588 62.2381 532.99 62.2381ZM541.122 62.2381C540.333 62.2381 539.73 62.0141 539.314 61.5661C538.898 61.1074 538.69 60.4194 538.69 59.5021V55.0701H537.122V54.0621H538.69V51.8701L539.986 51.5021V54.0621H542.29V55.0701H539.986V59.3581C539.986 59.9981 540.093 60.4568 540.306 60.7341C540.53 61.0008 540.861 61.1341 541.298 61.1341C541.501 61.1341 541.682 61.1181 541.842 61.0861C542.002 61.0434 542.146 60.9954 542.274 60.9421V62.0301C542.125 62.0941 541.944 62.1421 541.73 62.1741C541.528 62.2168 541.325 62.2381 541.122 62.2381ZM547.507 62.2381C546.248 62.2381 545.256 61.8754 544.531 61.1501C543.806 60.4141 543.443 59.3954 543.443 58.0941C543.443 57.2514 543.603 56.5208 543.923 55.9021C544.243 55.2728 544.691 54.7874 545.267 54.4461C545.843 54.0941 546.504 53.9181 547.251 53.9181C547.987 53.9181 548.606 54.0728 549.107 54.3821C549.608 54.6914 549.992 55.1341 550.259 55.7101C550.526 56.2754 550.659 56.9474 550.659 57.7261V58.2061H544.435V57.3901H549.811L549.539 57.5981C549.539 56.7448 549.347 56.0781 548.963 55.5981C548.579 55.1181 548.008 54.8781 547.251 54.8781C546.451 54.8781 545.827 55.1608 545.379 55.7261C544.931 56.2808 544.707 57.0328 544.707 57.9821V58.1261C544.707 59.1288 544.952 59.8914 545.443 60.4141C545.944 60.9261 546.643 61.1821 547.539 61.1821C548.019 61.1821 548.467 61.1128 548.883 60.9741C549.31 60.8248 549.715 60.5848 550.099 60.2541L550.547 61.1661C550.195 61.5074 549.747 61.7741 549.203 61.9661C548.67 62.1474 548.104 62.2381 547.507 62.2381ZM556.167 62.2381C555.378 62.2381 554.69 62.0674 554.103 61.7261C553.527 61.3848 553.079 60.8994 552.759 60.2701C552.45 59.6408 552.295 58.8941 552.295 58.0301C552.295 57.1554 552.455 56.4141 552.775 55.8061C553.095 55.1874 553.543 54.7181 554.119 54.3981C554.706 54.0781 555.388 53.9181 556.167 53.9181C556.679 53.9181 557.175 54.0088 557.655 54.1901C558.146 54.3714 558.551 54.6274 558.871 54.9581L558.407 55.8861C558.087 55.5768 557.735 55.3474 557.351 55.1981C556.978 55.0488 556.61 54.9741 556.247 54.9741C555.415 54.9741 554.77 55.2354 554.311 55.7581C553.852 56.2808 553.623 57.0434 553.623 58.0461C553.623 59.0381 553.852 59.8061 554.311 60.3501C554.77 60.8941 555.415 61.1661 556.247 61.1661C556.599 61.1661 556.962 61.0968 557.335 60.9581C557.719 60.8194 558.076 60.5901 558.407 60.2701L558.871 61.1821C558.54 61.5234 558.13 61.7848 557.639 61.9661C557.148 62.1474 556.658 62.2381 556.167 62.2381ZM563.71 62.2381C562.92 62.2381 562.318 62.0141 561.902 61.5661C561.486 61.1074 561.278 60.4194 561.278 59.5021V55.0701H559.71V54.0621H561.278V51.8701L562.574 51.5021V54.0621H564.878V55.0701H562.574V59.3581C562.574 59.9981 562.68 60.4568 562.894 60.7341C563.118 61.0008 563.448 61.1341 563.886 61.1341C564.088 61.1341 564.27 61.1181 564.43 61.0861C564.59 61.0434 564.734 60.9954 564.862 60.9421V62.0301C564.712 62.0941 564.531 62.1421 564.318 62.1741C564.115 62.2168 563.912 62.2381 563.71 62.2381ZM570.094 62.2381C568.836 62.2381 567.844 61.8754 567.118 61.1501C566.393 60.4141 566.03 59.3954 566.03 58.0941C566.03 57.2514 566.19 56.5208 566.51 55.9021C566.83 55.2728 567.278 54.7874 567.854 54.4461C568.43 54.0941 569.092 53.9181 569.838 53.9181C570.574 53.9181 571.193 54.0728 571.694 54.3821C572.196 54.6914 572.58 55.1341 572.846 55.7101C573.113 56.2754 573.246 56.9474 573.246 57.7261V58.2061H567.022V57.3901H572.398L572.126 57.5981C572.126 56.7448 571.934 56.0781 571.55 55.5981C571.166 55.1181 570.596 54.8781 569.838 54.8781C569.038 54.8781 568.414 55.1608 567.966 55.7261C567.518 56.2808 567.294 57.0328 567.294 57.9821V58.1261C567.294 59.1288 567.54 59.8914 568.03 60.4141C568.532 60.9261 569.23 61.1821 570.126 61.1821C570.606 61.1821 571.054 61.1128 571.47 60.9741C571.897 60.8248 572.302 60.5848 572.686 60.2541L573.134 61.1661C572.782 61.5074 572.334 61.7741 571.79 61.9661C571.257 62.1474 570.692 62.2381 570.094 62.2381ZM578.418 62.2381C577.714 62.2381 577.096 62.0728 576.562 61.7421C576.029 61.4008 575.613 60.9208 575.314 60.3021C575.026 59.6834 574.882 58.9421 574.882 58.0781C574.882 57.2034 575.026 56.4568 575.314 55.8381C575.613 55.2194 576.029 54.7448 576.562 54.4141C577.096 54.0834 577.714 53.9181 578.418 53.9181C579.144 53.9181 579.768 54.0994 580.29 54.4621C580.824 54.8248 581.181 55.3154 581.362 55.9341H581.17V50.3181H582.466V62.0941H581.186V60.1741H581.362C581.192 60.8141 580.84 61.3208 580.306 61.6941C579.773 62.0568 579.144 62.2381 578.418 62.2381ZM578.69 61.1821C579.448 61.1821 580.056 60.9208 580.514 60.3981C580.973 59.8648 581.202 59.0914 581.202 58.0781C581.202 57.0541 580.973 56.2808 580.514 55.7581C580.056 55.2248 579.448 54.9581 578.69 54.9581C577.933 54.9581 577.325 55.2248 576.866 55.7581C576.418 56.2808 576.194 57.0541 576.194 58.0781C576.194 59.0914 576.418 59.8648 576.866 60.3981C577.325 60.9208 577.933 61.1821 578.69 61.1821Z" fill="#B33300"/>
</g>
<defs>
<linearGradient id="paint0_linear_10391_25305" x1="-35.8033" y1="15.458" x2="357.45" y2="254.725" gradientUnits="userSpaceOnUse">
<stop offset="0.18" stop-color="white"/>
<stop offset="0.83" stop-color="white" stop-opacity="0"/>
</linearGradient>
<linearGradient id="paint1_linear_10391_25305" x1="428.5" y1="-38.6701" x2="428.5" y2="449.006" gradientUnits="userSpaceOnUse">
<stop offset="0.385" stop-color="#F6E0E1" stop-opacity="0"/>
<stop offset="0.595" stop-color="#B3000C" stop-opacity="0.2"/>
<stop offset="0.71" stop-color="#B3000C" stop-opacity="0.1"/>
<stop offset="0.92" stop-color="#B3000C" stop-opacity="0"/>
</linearGradient>
<linearGradient id="paint2_linear_10391_25305" x1="414.174" y1="-6.65615" x2="613.267" y2="359.502" gradientUnits="userSpaceOnUse">
<stop stop-color="#B3000C" stop-opacity="0"/>
<stop offset="0.5" stop-color="#B3000C" stop-opacity="0.2"/>
<stop offset="1" stop-color="#B3000C" stop-opacity="0"/>
</linearGradient>
<clipPath id="clip0_10391_25305">
<rect width="628" height="460" rx="12" fill="white"/>
</clipPath>
<clipPath id="clip1_10391_25305">
<rect width="444.617" height="387.71" fill="white" transform="translate(-73 -55.2366)"/>
</clipPath>
</defs>
</svg>
