<svg width="802" height="587" viewBox="0 0 802 587" fill="none" xmlns="http://www.w3.org/2000/svg">
<g clip-path="url(#clip0_11724_27481)">
<rect x="-170.639" y="450.058" width="444.564" height="111.723" rx="12.7979" fill="#F4F6FA"/>
<path d="M-22.6419 517.92V493.86H-19.468V504.371H-5.47564V493.86H-2.26764V517.92H-5.47564V507.068H-19.468V517.92H-22.6419ZM10.4476 518.227C8.76394 518.227 7.30783 517.875 6.07923 517.169C4.85064 516.441 3.89506 515.417 3.21251 514.098C2.52996 512.756 2.18868 511.163 2.18868 509.32C2.18868 507.5 2.52996 505.93 3.21251 504.61C3.89506 503.268 4.85064 502.244 6.07923 501.539C7.30783 500.811 8.76394 500.447 10.4476 500.447C12.1312 500.447 13.5873 500.811 14.8159 501.539C16.0673 502.244 17.0228 503.268 17.6826 504.61C18.3652 505.93 18.7065 507.5 18.7065 509.32C18.7065 511.163 18.3652 512.756 17.6826 514.098C17.0228 515.417 16.0673 516.441 14.8159 517.169C13.5873 517.875 12.1312 518.227 10.4476 518.227ZM10.4476 515.77C11.9947 515.77 13.2347 515.224 14.1675 514.132C15.1003 513.04 15.5667 511.436 15.5667 509.32C15.5667 507.204 15.1003 505.611 14.1675 504.542C13.2347 503.473 11.9947 502.938 10.4476 502.938C8.8777 502.938 7.62635 503.473 6.69353 504.542C5.78346 505.611 5.32843 507.204 5.32843 509.32C5.32843 511.436 5.78346 513.04 6.69353 514.132C7.62635 515.224 8.8777 515.77 10.4476 515.77ZM28.6776 518.227C27.2897 518.227 25.9929 518.045 24.7871 517.681C23.604 517.317 22.6256 516.794 21.8521 516.111L22.8418 513.961C23.6836 514.598 24.605 515.088 25.6061 515.429C26.6299 515.747 27.6765 515.907 28.7459 515.907C30.0427 515.907 31.021 515.668 31.6808 515.19C32.3634 514.712 32.7047 514.075 32.7047 513.279C32.7047 512.642 32.4885 512.13 32.0562 511.743C31.624 511.356 30.9414 511.072 30.0086 510.89L26.7665 510.241C25.3103 509.9 24.2069 509.354 23.4561 508.603C22.728 507.83 22.364 506.84 22.364 505.634C22.364 504.633 22.637 503.746 23.1831 502.972C23.7291 502.176 24.5027 501.562 25.5037 501.129C26.5276 500.674 27.722 500.447 29.0871 500.447C30.3385 500.447 31.4988 500.629 32.5682 500.993C33.6602 501.357 34.5589 501.892 35.2642 502.597L34.2404 504.679C33.5351 504.064 32.7388 503.598 31.8515 503.279C30.9869 502.938 30.0996 502.767 29.1895 502.767C27.8699 502.767 26.8916 503.029 26.2545 503.552C25.6175 504.053 25.299 504.713 25.299 505.532C25.299 506.146 25.4924 506.658 25.8791 507.068C26.2659 507.454 26.8916 507.75 27.7562 507.955L30.9983 508.603C32.5227 508.922 33.6716 509.445 34.4452 510.173C35.2187 510.901 35.6055 511.868 35.6055 513.074C35.6055 514.143 35.3098 515.065 34.7182 515.838C34.1494 516.612 33.3417 517.203 32.2951 517.613C31.2713 518.023 30.0655 518.227 28.6776 518.227ZM46.0891 518.227C44.2917 518.227 42.9266 517.738 41.9938 516.76C41.0837 515.759 40.6287 514.257 40.6287 512.255V503.143H37.2842V500.754H40.6287V496.147L43.7343 495.294V500.754H48.5804V503.143H43.7343V511.982C43.7343 513.302 43.9618 514.246 44.4169 514.815C44.8946 515.361 45.5772 515.634 46.4645 515.634C46.9196 515.634 47.3063 515.599 47.6249 515.531C47.9661 515.44 48.2733 515.338 48.5463 515.224V517.784C48.205 517.92 47.8069 518.023 47.3518 518.091C46.9196 518.182 46.4986 518.227 46.0891 518.227ZM59.4864 518.227C56.7561 518.227 54.5947 517.442 53.0021 515.873C51.4322 514.303 50.6473 512.141 50.6473 509.388C50.6473 507.568 50.9886 505.998 51.6711 504.679C52.3764 503.336 53.3434 502.301 54.572 501.573C55.8006 500.822 57.2339 500.447 58.8721 500.447C60.4419 500.447 61.7729 500.788 62.865 501.471C63.9571 502.13 64.7875 503.075 65.3563 504.303C65.9251 505.532 66.2095 506.988 66.2095 508.672V509.695H53.0704V507.853H64.0936L63.5134 508.296C63.5134 506.522 63.1153 505.145 62.3189 504.167C61.5454 503.188 60.3964 502.699 58.8721 502.699C57.2112 502.699 55.9257 503.279 55.0156 504.44C54.1056 505.577 53.6505 507.136 53.6505 509.115V509.422C53.6505 511.516 54.1624 513.097 55.1863 514.166C56.2328 515.235 57.6776 515.77 59.5205 515.77C60.5443 515.77 61.4999 515.622 62.3872 515.326C63.2745 515.031 64.1277 514.542 64.9468 513.859L65.9706 516.009C65.197 516.714 64.2301 517.26 63.0698 517.647C61.9322 518.034 60.7377 518.227 59.4864 518.227ZM76.8205 518.227C75.3189 518.227 73.9993 517.875 72.8617 517.169C71.7241 516.464 70.8368 515.44 70.1998 514.098C69.5627 512.756 69.2442 511.163 69.2442 509.32C69.2442 507.477 69.5627 505.896 70.1998 504.576C70.8368 503.234 71.7241 502.21 72.8617 501.505C73.9993 500.799 75.3189 500.447 76.8205 500.447C78.3222 500.447 79.6304 500.822 80.7452 501.573C81.8828 502.324 82.645 503.359 83.0318 504.679H82.6222V492.802H85.7279V517.92H82.6564V513.927H83.0318C82.6677 515.27 81.9169 516.328 80.7793 517.101C79.6645 517.852 78.3449 518.227 76.8205 518.227ZM77.5372 515.77C79.0843 515.77 80.3243 515.224 81.2571 514.132C82.2127 513.04 82.6905 511.436 82.6905 509.32C82.6905 507.204 82.2127 505.611 81.2571 504.542C80.3243 503.473 79.0843 502.938 77.5372 502.938C75.9901 502.938 74.7387 503.473 73.7832 504.542C72.8504 505.611 72.3839 507.204 72.3839 509.32C72.3839 511.436 72.8504 513.04 73.7832 514.132C74.7387 515.224 75.9901 515.77 77.5372 515.77ZM106.858 517.92L98.4281 493.86H101.773L108.905 515.088H107.677L115.253 493.86H117.744L124.843 515.088H123.751L131.122 493.86H134.262L125.764 517.92H123L116.072 497.614H116.789L109.588 517.92H106.858ZM142.543 518.227C141.041 518.227 139.722 517.875 138.584 517.169C137.447 516.464 136.559 515.44 135.922 514.098C135.285 512.756 134.967 511.163 134.967 509.32C134.967 507.477 135.285 505.896 135.922 504.576C136.559 503.234 137.447 502.21 138.584 501.505C139.722 500.799 141.041 500.447 142.543 500.447C144.067 500.447 145.387 500.834 146.502 501.607C147.639 502.358 148.39 503.393 148.754 504.713H148.345L148.72 500.754H151.723C151.655 501.437 151.587 502.119 151.519 502.802C151.473 503.484 151.45 504.155 151.45 504.815V517.92H148.345V513.995H148.72C148.356 515.292 147.605 516.328 146.468 517.101C145.353 517.852 144.045 518.227 142.543 518.227ZM143.26 515.77C144.807 515.77 146.047 515.224 146.98 514.132C147.912 513.04 148.379 511.436 148.379 509.32C148.379 507.204 147.912 505.611 146.98 504.542C146.047 503.473 144.807 502.938 143.26 502.938C141.713 502.938 140.461 503.473 139.506 504.542C138.573 505.611 138.106 507.204 138.106 509.32C138.106 511.436 138.573 513.04 139.506 514.132C140.438 515.224 141.69 515.77 143.26 515.77ZM156.654 517.92V492.802H159.759V517.92H156.654ZM164.952 517.92V492.802H168.058V517.92H164.952ZM181.066 518.227C178.336 518.227 176.175 517.442 174.582 515.873C173.012 514.303 172.227 512.141 172.227 509.388C172.227 507.568 172.568 505.998 173.251 504.679C173.956 503.336 174.923 502.301 176.152 501.573C177.38 500.822 178.814 500.447 180.452 500.447C182.022 500.447 183.353 500.788 184.445 501.471C185.537 502.13 186.367 503.075 186.936 504.303C187.505 505.532 187.789 506.988 187.789 508.672V509.695H174.65V507.853H185.673L185.093 508.296C185.093 506.522 184.695 505.145 183.899 504.167C183.125 503.188 181.976 502.699 180.452 502.699C178.791 502.699 177.505 503.279 176.595 504.44C175.685 505.577 175.23 507.136 175.23 509.115V509.422C175.23 511.516 175.742 513.097 176.766 514.166C177.813 515.235 179.257 515.77 181.1 515.77C182.124 515.77 183.08 515.622 183.967 515.326C184.854 515.031 185.707 514.542 186.527 513.859L187.55 516.009C186.777 516.714 185.81 517.26 184.65 517.647C183.512 518.034 182.317 518.227 181.066 518.227ZM198.23 518.227C196.433 518.227 195.068 517.738 194.135 516.76C193.225 515.759 192.77 514.257 192.77 512.255V503.143H189.426V500.754H192.77V496.147L195.876 495.294V500.754H200.722V503.143H195.876V511.982C195.876 513.302 196.103 514.246 196.558 514.815C197.036 515.361 197.719 515.634 198.606 515.634C199.061 515.634 199.448 515.599 199.766 515.531C200.108 515.44 200.415 515.338 200.688 515.224V517.784C200.346 517.92 199.948 518.023 199.493 518.091C199.061 518.182 198.64 518.227 198.23 518.227Z" fill="#535353"/>
<rect x="309.281" y="450.058" width="423.564" height="111.723" rx="12.7979" fill="#F4F6FA"/>
<path d="M396.811 501.741V498.722C397.146 498.874 397.444 499.057 397.703 499.271C397.962 499.484 398.092 499.804 398.092 500.231C398.092 500.719 397.97 501.062 397.726 501.261C397.482 501.459 397.177 501.619 396.811 501.741Z" fill="#79564A"/>
<path d="M395.439 496.297C395.103 496.145 394.798 495.962 394.524 495.749C394.249 495.535 394.112 495.215 394.112 494.788C394.112 494.361 394.249 494.048 394.524 493.85C394.798 493.652 395.103 493.522 395.439 493.461V496.297Z" fill="#79564A"/>
<path fill-rule="evenodd" clip-rule="evenodd" d="M395.925 486.897C398.875 486.897 401.39 487.936 403.47 490.016C404.985 491.531 405.949 493.278 406.36 495.255H413.423C413.991 495.255 414.542 495.362 415.076 495.575C415.609 495.789 416.071 496.091 416.462 496.482L422.861 502.827C423.821 503.787 424.994 504.534 426.38 505.067C427.767 505.6 429.26 505.885 430.86 505.92V510.186C428.656 510.186 426.656 509.848 424.861 509.173C423.065 508.498 421.475 507.484 420.088 506.133L417.955 503.894L413.263 508.586L418.062 513.386L404.091 521.438L401.958 517.758L411.13 512.479L407.504 508.853L393.319 522.984L390.333 519.998L410.81 499.521H406.426C406.058 501.642 405.073 503.504 403.47 505.107C401.39 507.187 398.875 508.226 395.925 508.226C392.974 508.226 390.459 507.187 388.379 505.107C386.3 503.027 385.26 500.512 385.26 497.561C385.26 494.611 386.3 492.096 388.379 490.016C390.459 487.936 392.974 486.897 395.925 486.897ZM395.439 504.943H396.765V503.479C397.619 503.357 398.343 503.006 398.938 502.427C399.533 501.848 399.83 501.1 399.83 500.186C399.83 499.393 399.525 498.729 398.915 498.196C398.305 497.662 397.604 497.228 396.811 496.892V493.507C397.116 493.599 397.368 493.751 397.566 493.965C397.764 494.178 397.909 494.437 398 494.742L399.647 494.056C399.434 493.416 399.068 492.905 398.549 492.524C398.031 492.142 397.451 491.891 396.811 491.769V490.305H395.439V491.723C394.585 491.815 393.861 492.127 393.266 492.661C392.671 493.194 392.374 493.904 392.374 494.788C392.374 495.611 392.686 496.297 393.312 496.846C393.937 497.395 394.646 497.837 395.439 498.173V501.787C394.951 501.634 394.539 501.375 394.204 501.009C393.868 500.643 393.639 500.216 393.517 499.728L391.916 500.414C392.16 501.268 392.587 501.97 393.197 502.519C393.807 503.067 394.554 503.403 395.439 503.525V504.943Z" fill="#79564A"/>
<path d="M420.301 496.135C421.155 496.971 422.168 497.388 423.341 497.388C424.514 497.388 425.527 496.971 426.38 496.135C427.234 495.3 427.66 494.295 427.66 493.122C427.66 491.949 427.234 490.945 426.38 490.109C425.527 489.274 424.514 488.856 423.341 488.856C422.168 488.856 421.155 489.274 420.301 490.109C419.448 490.945 419.022 491.949 419.022 493.122C419.022 494.295 419.448 495.3 420.301 496.135Z" fill="#79564A"/>
<path d="M465.478 518.227C463.544 518.227 461.804 517.977 460.256 517.477C458.709 516.976 457.367 516.271 456.229 515.361L457.322 512.835C458.118 513.427 458.926 513.927 459.745 514.337C460.564 514.724 461.44 515.019 462.372 515.224C463.328 515.406 464.363 515.497 465.478 515.497C467.457 515.497 468.914 515.144 469.846 514.439C470.802 513.711 471.28 512.756 471.28 511.572C471.28 510.549 470.95 509.764 470.29 509.218C469.63 508.672 468.481 508.239 466.843 507.921L463.191 507.17C460.985 506.715 459.335 505.975 458.243 504.952C457.174 503.905 456.639 502.494 456.639 500.72C456.639 499.286 457.014 498.035 457.765 496.966C458.539 495.874 459.597 495.032 460.939 494.44C462.304 493.849 463.897 493.553 465.717 493.553C467.401 493.553 468.959 493.803 470.392 494.304C471.826 494.804 473.032 495.544 474.01 496.522L472.918 498.945C471.894 498.012 470.791 497.341 469.607 496.932C468.447 496.499 467.128 496.283 465.649 496.283C463.851 496.283 462.429 496.67 461.383 497.444C460.336 498.217 459.813 499.264 459.813 500.583C459.813 501.63 460.143 502.46 460.803 503.075C461.462 503.666 462.554 504.121 464.079 504.44L467.73 505.156C470.051 505.611 471.746 506.328 472.815 507.306C473.908 508.285 474.454 509.639 474.454 511.368C474.454 512.733 474.09 513.939 473.362 514.985C472.633 516.009 471.598 516.805 470.256 517.374C468.914 517.943 467.321 518.227 465.478 518.227ZM484.931 518.227C483.133 518.227 481.768 517.738 480.835 516.76C479.925 515.759 479.47 514.257 479.47 512.255V503.143H476.126V500.754H479.47V496.147L482.576 495.294V500.754H487.422V503.143H482.576V511.982C482.576 513.302 482.803 514.246 483.259 514.815C483.736 515.361 484.419 515.634 485.306 515.634C485.761 515.634 486.148 515.599 486.467 515.531C486.808 515.44 487.115 515.338 487.388 515.224V517.784C487.047 517.92 486.649 518.023 486.194 518.091C485.761 518.182 485.34 518.227 484.931 518.227ZM497.748 518.227C496.064 518.227 494.608 517.875 493.38 517.169C492.151 516.441 491.195 515.417 490.513 514.098C489.83 512.756 489.489 511.163 489.489 509.32C489.489 507.5 489.83 505.93 490.513 504.61C491.195 503.268 492.151 502.244 493.38 501.539C494.608 500.811 496.064 500.447 497.748 500.447C499.431 500.447 500.888 500.811 502.116 501.539C503.368 502.244 504.323 503.268 504.983 504.61C505.665 505.93 506.007 507.5 506.007 509.32C506.007 511.163 505.665 512.756 504.983 514.098C504.323 515.417 503.368 516.441 502.116 517.169C500.888 517.875 499.431 518.227 497.748 518.227ZM497.748 515.77C499.295 515.77 500.535 515.224 501.468 514.132C502.401 513.04 502.867 511.436 502.867 509.32C502.867 507.204 502.401 505.611 501.468 504.542C500.535 503.473 499.295 502.938 497.748 502.938C496.178 502.938 494.927 503.473 493.994 504.542C493.084 505.611 492.629 507.204 492.629 509.32C492.629 511.436 493.084 513.04 493.994 514.132C494.927 515.224 496.178 515.77 497.748 515.77ZM510.176 517.92V492.802H513.282V517.92H510.176ZM526.29 518.227C523.56 518.227 521.398 517.442 519.806 515.873C518.236 514.303 517.451 512.141 517.451 509.388C517.451 507.568 517.792 505.998 518.475 504.679C519.18 503.336 520.147 502.301 521.376 501.573C522.604 500.822 524.038 500.447 525.676 500.447C527.246 500.447 528.577 500.788 529.669 501.471C530.761 502.13 531.591 503.075 532.16 504.303C532.729 505.532 533.013 506.988 533.013 508.672V509.695H519.874V507.853H530.897L530.317 508.296C530.317 506.522 529.919 505.145 529.123 504.167C528.349 503.188 527.2 502.699 525.676 502.699C524.015 502.699 522.729 503.279 521.819 504.44C520.909 505.577 520.454 507.136 520.454 509.115V509.422C520.454 511.516 520.966 513.097 521.99 514.166C523.037 515.235 524.481 515.77 526.324 515.77C527.348 515.77 528.304 515.622 529.191 515.326C530.078 515.031 530.931 514.542 531.75 513.859L532.774 516.009C532.001 516.714 531.034 517.26 529.873 517.647C528.736 518.034 527.541 518.227 526.29 518.227ZM537.072 517.92V504.815C537.072 504.155 537.049 503.484 537.003 502.802C536.958 502.119 536.89 501.437 536.799 500.754H539.802L540.143 504.44H539.734C540.257 503.143 541.065 502.153 542.157 501.471C543.249 500.788 544.523 500.447 545.979 500.447C548.004 500.447 549.528 501.004 550.552 502.119C551.576 503.211 552.088 504.918 552.088 507.238V517.92H548.982V507.409C548.982 505.839 548.675 504.713 548.061 504.03C547.447 503.325 546.491 502.972 545.194 502.972C543.647 502.972 542.418 503.439 541.508 504.371C540.621 505.304 540.177 506.567 540.177 508.16V517.92H537.072ZM566.508 517.92V493.86H581.729V496.454H569.682V504.508H580.944V507.102H569.682V517.92H566.508ZM591.173 518.227C589.102 518.227 587.544 517.67 586.497 516.555C585.473 515.44 584.961 513.722 584.961 511.402V500.754H588.067V511.334C588.067 512.835 588.374 513.939 588.988 514.644C589.603 515.349 590.558 515.702 591.855 515.702C593.266 515.702 594.403 515.235 595.268 514.303C596.155 513.347 596.599 512.084 596.599 510.514V500.754H599.704V517.92H596.701V514.132H597.145C596.667 515.429 595.905 516.441 594.858 517.169C593.812 517.875 592.583 518.227 591.173 518.227ZM604.927 517.92V504.815C604.927 504.155 604.904 503.484 604.859 502.802C604.813 502.119 604.745 501.437 604.654 500.754H607.657L607.999 504.44H607.589C608.112 503.143 608.92 502.153 610.012 501.471C611.104 500.788 612.378 500.447 613.834 500.447C615.859 500.447 617.384 501.004 618.408 502.119C619.431 503.211 619.943 504.918 619.943 507.238V517.92H616.838V507.409C616.838 505.839 616.531 504.713 615.916 504.03C615.302 503.325 614.346 502.972 613.049 502.972C611.502 502.972 610.274 503.439 609.364 504.371C608.476 505.304 608.033 506.567 608.033 508.16V517.92H604.927ZM631.576 518.227C630.075 518.227 628.755 517.875 627.617 517.169C626.48 516.464 625.593 515.44 624.956 514.098C624.318 512.756 624 511.163 624 509.32C624 507.477 624.318 505.896 624.956 504.576C625.593 503.234 626.48 502.21 627.617 501.505C628.755 500.799 630.075 500.447 631.576 500.447C633.078 500.447 634.386 500.822 635.501 501.573C636.639 502.324 637.401 503.359 637.788 504.679H637.378V492.802H640.484V517.92H637.412V513.927H637.788C637.423 515.27 636.673 516.328 635.535 517.101C634.42 517.852 633.101 518.227 631.576 518.227ZM632.293 515.77C633.84 515.77 635.08 515.224 636.013 514.132C636.968 513.04 637.446 511.436 637.446 509.32C637.446 507.204 636.968 505.611 636.013 504.542C635.08 503.473 633.84 502.938 632.293 502.938C630.746 502.938 629.494 503.473 628.539 504.542C627.606 505.611 627.14 507.204 627.14 509.32C627.14 511.436 627.606 513.04 628.539 514.132C629.494 515.224 630.746 515.77 632.293 515.77ZM651.489 518.227C650.101 518.227 648.804 518.045 647.598 517.681C646.415 517.317 645.437 516.794 644.663 516.111L645.653 513.961C646.495 514.598 647.416 515.088 648.417 515.429C649.441 515.747 650.488 515.907 651.557 515.907C652.854 515.907 653.832 515.668 654.492 515.19C655.174 514.712 655.516 514.075 655.516 513.279C655.516 512.642 655.3 512.13 654.867 511.743C654.435 511.356 653.752 511.072 652.82 510.89L649.578 510.241C648.121 509.9 647.018 509.354 646.267 508.603C645.539 507.83 645.175 506.84 645.175 505.634C645.175 504.633 645.448 503.746 645.994 502.972C646.54 502.176 647.314 501.562 648.315 501.129C649.339 500.674 650.533 500.447 651.898 500.447C653.15 500.447 654.31 500.629 655.379 500.993C656.471 501.357 657.37 501.892 658.075 502.597L657.052 504.679C656.346 504.064 655.55 503.598 654.663 503.279C653.798 502.938 652.911 502.767 652.001 502.767C650.681 502.767 649.703 503.029 649.066 503.552C648.429 504.053 648.11 504.713 648.11 505.532C648.11 506.146 648.303 506.658 648.69 507.068C649.077 507.454 649.703 507.75 650.567 507.955L653.809 508.603C655.334 508.922 656.483 509.445 657.256 510.173C658.03 510.901 658.417 511.868 658.417 513.074C658.417 514.143 658.121 515.065 657.529 515.838C656.96 516.612 656.153 517.203 655.106 517.613C654.082 518.023 652.877 518.227 651.489 518.227Z" fill="#535353"/>
<rect x="767.873" y="450.058" width="429.564" height="111.723" rx="12.7979" fill="#F4F6FA"/>
<rect x="-81.0508" y="14.931" width="276.564" height="111.723" rx="12.7979" fill="#F4F6FA"/>
<path d="M14.7045 89.298V72.2875C12.4293 72.2875 10.243 71.852 8.14555 70.9811C6.04812 70.1101 4.19953 68.8748 2.5998 67.275C1.00007 65.6753 -0.226396 63.8267 -1.07959 61.7293C-1.93278 59.6319 -2.35938 57.4456 -2.35938 55.1704V50.9044H1.90658C4.14621 50.9044 6.31474 51.3399 8.41217 52.2109C10.5096 53.0818 12.3582 54.3172 13.9579 55.9169C15.06 57.019 15.9754 58.2276 16.7041 59.543C17.4329 60.8583 17.9928 62.2625 18.3838 63.7556C18.5616 63.5068 18.7571 63.2668 18.9704 63.0357C19.1837 62.8047 19.4148 62.5647 19.6636 62.3159C21.2634 60.7161 23.1119 59.4808 25.2094 58.6098C27.3068 57.7388 29.4931 57.3034 31.7683 57.3034H36.0342V61.5693C36.0342 63.8445 35.5988 66.0308 34.7278 68.1282C33.8568 70.2257 32.6215 72.0742 31.0217 73.674C29.422 75.2737 27.5823 76.5002 25.5027 77.3534C23.423 78.2065 21.2456 78.6331 18.9704 78.6331V89.298H14.7045ZM14.7045 67.9682C14.7045 66.2619 14.3756 64.6355 13.718 63.0891C13.0603 61.5427 12.1271 60.1651 10.9184 58.9564C9.70973 57.7477 8.33218 56.8145 6.78577 56.1569C5.23936 55.4992 3.61297 55.1704 1.90658 55.1704C1.90658 56.8768 2.22653 58.512 2.86642 60.0762C3.50632 61.6404 4.43061 63.0268 5.6393 64.2355C6.84798 65.4442 8.23442 66.3685 9.7986 67.0084C11.3628 67.6483 12.9981 67.9682 14.7045 67.9682ZM18.9704 74.3672C19.2932 74.3672 19.6132 74.3557 19.9303 74.3328C20.9391 74.26 21.919 74.0712 22.8699 73.7665C23.2 73.6607 23.5265 73.541 23.8496 73.4073C25.396 72.7675 26.7736 71.8432 27.9822 70.6345C29.1909 69.4258 30.1241 68.0393 30.7818 66.4752C31.4395 64.911 31.7683 63.2757 31.7683 61.5693C30.0619 61.5693 28.4266 61.8981 26.8624 62.5558C25.2982 63.2135 23.9118 64.1467 22.7031 65.3553C21.4944 66.564 20.5701 67.9416 19.9303 69.488C19.2904 71.0344 18.9704 72.6608 18.9704 74.3672Z" fill="#4A6AF6" fill-opacity="0.5"/>
<path d="M67.3653 82.7927V58.7327H70.5392V82.7927H67.3653ZM86.9775 83.0999C84.5658 83.0999 82.4954 82.5993 80.7663 81.5983C79.0599 80.5972 77.7517 79.1752 76.8416 77.3323C75.9316 75.4667 75.4765 73.2711 75.4765 70.7457C75.4765 68.2202 75.9316 66.036 76.8416 64.1931C77.7517 62.3503 79.0599 60.9283 80.7663 59.9272C82.4954 58.9261 84.5658 58.4256 86.9775 58.4256C88.7067 58.4256 90.2424 58.6872 91.5848 59.2105C92.9271 59.7111 94.0988 60.4505 95.0999 61.4288L93.9396 63.9884C92.8475 63.0328 91.7668 62.3503 90.6975 61.9407C89.6509 61.5084 88.4337 61.2923 87.0458 61.2923C84.3838 61.2923 82.3476 62.1114 80.9369 63.7495C79.5263 65.3876 78.821 67.7197 78.821 70.7457C78.821 73.7716 79.5263 76.1151 80.9369 77.776C82.3476 79.4141 84.3838 80.2332 87.0458 80.2332C88.4337 80.2332 89.6509 80.0284 90.6975 79.6189C91.7668 79.1866 92.8475 78.4926 93.9396 77.5371L95.0999 80.0625C94.0988 81.0408 92.9158 81.7916 91.5506 82.3149C90.2083 82.8382 88.6839 83.0999 86.9775 83.0999ZM98.1061 70.7457C98.1061 68.2202 98.5497 66.036 99.4371 64.1931C100.324 62.3503 101.598 60.9283 103.259 59.9272C104.943 58.9261 106.945 58.4256 109.266 58.4256C111.564 58.4256 113.543 58.9261 115.204 59.9272C116.888 60.9283 118.185 62.3503 119.095 64.1931C120.005 66.036 120.46 68.2088 120.46 70.7115C120.46 73.237 120.005 75.4325 119.095 77.2982C118.185 79.1411 116.888 80.5744 115.204 81.5983C113.543 82.5993 111.564 83.0999 109.266 83.0999C106.945 83.0999 104.954 82.5993 103.293 81.5983C101.633 80.5744 100.347 79.1411 99.4371 77.2982C98.5497 75.4325 98.1061 73.2484 98.1061 70.7457ZM101.451 70.7457C101.451 73.7489 102.11 76.0923 103.43 77.776C104.75 79.4596 106.695 80.3014 109.266 80.3014C111.746 80.3014 113.668 79.471 115.033 77.8101C116.421 76.1265 117.115 73.7716 117.115 70.7457C117.115 67.7197 116.433 65.3762 115.068 63.7154C113.702 62.0545 111.769 61.224 109.266 61.224C106.695 61.224 104.75 62.0545 103.43 63.7154C102.11 65.3762 101.451 67.7197 101.451 70.7457Z" fill="#535353"/>
<rect x="695.354" y="14.931" width="474.564" height="111.723" rx="12.7979" fill="#F4F6FA"/>
<path d="M793.47 92.1226C788.529 90.8783 784.449 88.0433 781.232 83.6173C778.015 79.1914 776.406 74.2767 776.406 68.8731V55.8619L793.47 49.463L810.534 55.8619V68.8731C810.534 74.2767 808.925 79.1914 805.708 83.6173C802.491 88.0433 798.411 90.8783 793.47 92.1226ZM793.47 87.6433C797.167 86.4702 800.225 84.1239 802.642 80.6045C805.059 77.0851 806.268 73.1746 806.268 68.8731V58.7948L793.47 53.9956L780.672 58.7948V68.8731C780.672 73.1746 781.881 77.0851 784.298 80.6045C786.716 84.1239 789.773 86.4702 793.47 87.6433ZM789.204 79.3247H797.736C798.34 79.3247 798.847 79.1203 799.256 78.7115C799.665 78.3027 799.869 77.7961 799.869 77.1917V70.7928C799.869 70.1885 799.665 69.6819 799.256 69.2731C798.847 68.8642 798.34 68.6598 797.736 68.6598V66.5268C797.736 65.3537 797.318 64.3494 796.483 63.514C795.647 62.6786 794.643 62.2609 793.47 62.2609C792.297 62.2609 791.293 62.6786 790.457 63.514C789.622 64.3494 789.204 65.3537 789.204 66.5268V68.6598C788.6 68.6598 788.093 68.8642 787.684 69.2731C787.276 69.6819 787.071 70.1885 787.071 70.7928V77.1917C787.071 77.7961 787.276 78.3027 787.684 78.7115C788.093 79.1203 788.6 79.3247 789.204 79.3247ZM791.337 68.6598V66.5268C791.337 65.9225 791.542 65.4159 791.95 65.0071C792.359 64.5983 792.866 64.3939 793.47 64.3939C794.074 64.3939 794.581 64.5983 794.99 65.0071C795.399 65.4159 795.603 65.9225 795.603 66.5268V68.6598H791.337Z" fill="#E82463"/>
<rect x="230.363" y="14.931" width="430.564" height="111.723" rx="12.7979" fill="#F4F6FA"/>
<path fill-rule="evenodd" clip-rule="evenodd" d="M322.615 75.2946C322.97 75.6501 323.397 75.8279 323.895 75.8279H333.066C333.564 75.8279 333.991 75.6501 334.346 75.2946C334.702 74.9392 334.879 74.5126 334.879 74.0149V66.976C334.879 66.4783 334.702 66.0517 334.346 65.6962C333.991 65.3407 333.564 65.163 333.066 65.163H332.746V63.03C332.746 61.8569 332.329 60.8526 331.493 60.0172C330.658 59.1818 329.654 58.7641 328.481 58.7641C327.307 58.7641 326.303 59.1818 325.468 60.0172C324.632 60.8526 324.215 61.8569 324.215 63.03V65.163H323.895C323.397 65.163 322.97 65.3407 322.615 65.6962C322.259 66.0517 322.082 66.4783 322.082 66.976V74.0149C322.082 74.5126 322.259 74.9392 322.615 75.2946ZM330.613 63.03V65.163H326.348V63.03C326.348 62.4257 326.552 61.9191 326.961 61.5103C327.37 61.1015 327.876 60.897 328.481 60.897C329.085 60.897 329.591 61.1015 330 61.5103C330.409 61.9191 330.613 62.4257 330.613 63.03Z" fill="#8B1B1B"/>
<path fill-rule="evenodd" clip-rule="evenodd" d="M302.885 84.6572V88.9231H354.076V84.6572H349.81V56.9284C349.81 54.5724 347.9 52.6625 345.544 52.6625H311.417C309.061 52.6625 307.151 54.5724 307.151 56.9284V84.6572H302.885ZM332.746 82.8309V84.6572H324.215V82.8309H332.746ZM345.544 78.2582H311.417V56.9284H345.544V78.2582Z" fill="#8B1B1B"/>
<path d="M378.809 82.7927V58.7327H388.774C391.345 58.7327 393.324 59.3356 394.712 60.5415C396.123 61.7473 396.828 63.431 396.828 65.5924C396.828 67.0257 396.51 68.243 395.873 69.244C395.236 70.2451 394.337 71.0073 393.177 71.5306C392.039 72.0539 390.708 72.3155 389.184 72.3155L389.764 71.8377H390.583C391.516 71.8377 392.346 72.0766 393.074 72.5544C393.802 73.0095 394.405 73.7603 394.883 74.8069L398.296 82.7927H394.781L391.47 74.8751C391.083 73.8968 390.515 73.2597 389.764 72.964C389.036 72.6682 388.114 72.5203 386.999 72.5203H381.983V82.7927H378.809ZM381.983 70.0631H388.296C390.048 70.0631 391.379 69.6877 392.289 68.9369C393.222 68.1861 393.689 67.094 393.689 65.6606C393.689 64.25 393.222 63.1807 392.289 62.4526C391.379 61.7018 390.048 61.3264 388.296 61.3264H381.983V70.0631ZM408.649 83.0999C407.148 83.0999 405.828 82.7472 404.691 82.0419C403.553 81.3366 402.666 80.3128 402.029 78.9704C401.392 77.6281 401.073 76.0354 401.073 74.1926C401.073 72.3497 401.392 70.7684 402.029 69.4488C402.666 68.1065 403.553 67.0826 404.691 66.3773C405.828 65.672 407.148 65.3194 408.649 65.3194C410.174 65.3194 411.493 65.7061 412.608 66.4797C413.746 67.2305 414.497 68.2657 414.861 69.5853H414.451L414.827 65.6265H417.83C417.762 66.3091 417.693 66.9916 417.625 67.6742C417.58 68.3567 417.557 69.0279 417.557 69.6877V82.7927H414.451V78.868H414.827C414.463 80.1649 413.712 81.2001 412.574 81.9737C411.459 82.7245 410.151 83.0999 408.649 83.0999ZM409.366 80.6427C410.913 80.6427 412.153 80.0966 413.086 79.0046C414.019 77.9125 414.485 76.3085 414.485 74.1926C414.485 72.0766 414.019 70.484 413.086 69.4147C412.153 68.3453 410.913 67.8107 409.366 67.8107C407.819 67.8107 406.568 68.3453 405.612 69.4147C404.679 70.484 404.213 72.0766 404.213 74.1926C404.213 76.3085 404.679 77.9125 405.612 79.0046C406.545 80.0966 407.796 80.6427 409.366 80.6427ZM422.76 82.7927V69.6877C422.76 69.0279 422.737 68.3567 422.692 67.6742C422.646 66.9916 422.578 66.3091 422.487 65.6265H425.49L425.832 69.3123H425.422C425.945 68.0154 426.753 67.0257 427.845 66.3432C428.937 65.6606 430.211 65.3194 431.668 65.3194C433.692 65.3194 435.217 65.8768 436.241 66.9916C437.264 68.0837 437.776 69.7901 437.776 72.1108V82.7927H434.671V72.2814C434.671 70.7115 434.364 69.5853 433.749 68.9028C433.135 68.1975 432.179 67.8448 430.883 67.8448C429.335 67.8448 428.107 68.3112 427.197 69.244C426.309 70.1769 425.866 71.4396 425.866 73.0322V82.7927H422.76ZM448.659 83.0999C447.271 83.0999 445.974 82.9179 444.768 82.5538C443.585 82.1898 442.607 81.6665 441.833 80.984L442.823 78.8339C443.665 79.471 444.586 79.9601 445.587 80.3014C446.611 80.6199 447.658 80.7792 448.727 80.7792C450.024 80.7792 451.002 80.5403 451.662 80.0625C452.344 79.5847 452.686 78.9477 452.686 78.1514C452.686 77.5143 452.47 77.0024 452.037 76.6156C451.605 76.2288 450.922 75.9444 449.99 75.7624L446.747 75.114C445.291 74.7727 444.188 74.2267 443.437 73.4759C442.709 72.7023 442.345 71.7126 442.345 70.5068C442.345 69.5057 442.618 68.6184 443.164 67.8448C443.71 67.0485 444.484 66.4342 445.485 66.0019C446.509 65.5469 447.703 65.3194 449.068 65.3194C450.319 65.3194 451.48 65.5014 452.549 65.8654C453.641 66.2294 454.54 66.7641 455.245 67.4694L454.221 69.5512C453.516 68.9369 452.72 68.4705 451.832 68.152C450.968 67.8107 450.081 67.64 449.17 67.64C447.851 67.64 446.873 67.9017 446.236 68.425C445.598 68.9255 445.28 69.5853 445.28 70.4044C445.28 71.0187 445.473 71.5306 445.86 71.9401C446.247 72.3269 446.873 72.6227 447.737 72.8274L450.979 73.4759C452.504 73.7944 453.653 74.3177 454.426 75.0457C455.2 75.7738 455.586 76.7408 455.586 77.9466C455.586 79.0159 455.291 79.9374 454.699 80.7109C454.13 81.4845 453.323 82.076 452.276 82.4856C451.252 82.8951 450.046 83.0999 448.659 83.0999ZM467.056 83.0999C465.372 83.0999 463.916 82.7472 462.687 82.0419C461.459 81.3139 460.503 80.29 459.821 78.9704C459.138 77.6281 458.797 76.0354 458.797 74.1926C458.797 72.3724 459.138 70.8025 459.821 69.4829C460.503 68.1406 461.459 67.1168 462.687 66.4114C463.916 65.6834 465.372 65.3194 467.056 65.3194C468.739 65.3194 470.196 65.6834 471.424 66.4114C472.675 67.1168 473.631 68.1406 474.291 69.4829C474.973 70.8025 475.315 72.3724 475.315 74.1926C475.315 76.0354 474.973 77.6281 474.291 78.9704C473.631 80.29 472.675 81.3139 471.424 82.0419C470.196 82.7472 468.739 83.0999 467.056 83.0999ZM467.056 80.6427C468.603 80.6427 469.843 80.0966 470.776 79.0046C471.709 77.9125 472.175 76.3085 472.175 74.1926C472.175 72.0766 471.709 70.484 470.776 69.4147C469.843 68.3453 468.603 67.8107 467.056 67.8107C465.486 67.8107 464.235 68.3453 463.302 69.4147C462.392 70.484 461.937 72.0766 461.937 74.1926C461.937 76.3085 462.392 77.9125 463.302 79.0046C464.235 80.0966 465.486 80.6427 467.056 80.6427ZM479.484 82.7927V69.6877C479.484 69.0279 479.461 68.3567 479.416 67.6742C479.37 66.9916 479.302 66.3091 479.211 65.6265H482.214L482.556 69.3123H482.146C482.601 68.0382 483.329 67.0599 484.33 66.3773C485.331 65.672 486.526 65.3194 487.914 65.3194C489.324 65.3194 490.485 65.6606 491.395 66.3432C492.305 67.003 492.919 68.0496 493.238 69.4829H492.726C493.158 68.2088 493.92 67.1964 495.012 66.4456C496.104 65.6948 497.378 65.3194 498.835 65.3194C500.723 65.3194 502.145 65.8768 503.1 66.9916C504.056 68.0837 504.534 69.7901 504.534 72.1108V82.7927H501.428V72.2814C501.428 70.7115 501.155 69.5853 500.609 68.9028C500.063 68.1975 499.199 67.8448 498.015 67.8448C496.628 67.8448 495.535 68.3226 494.739 69.2782C493.943 70.211 493.545 71.4851 493.545 73.1005V82.7927H490.439V72.2814C490.439 70.7115 490.166 69.5853 489.62 68.9028C489.097 68.1975 488.232 67.8448 487.026 67.8448C485.638 67.8448 484.546 68.3226 483.75 69.2782C482.977 70.211 482.59 71.4851 482.59 73.1005V82.7927H479.484ZM514.087 82.7927L507.671 65.6265H510.913L516.101 80.3355H515.213L520.537 65.6265H523.063L528.353 80.3355H527.499L532.721 65.6265H535.826L529.376 82.7927H526.441L520.981 67.8448H522.483L517.056 82.7927H514.087ZM545.427 83.0999C543.925 83.0999 542.606 82.7472 541.468 82.0419C540.33 81.3366 539.443 80.3128 538.806 78.9704C538.169 77.6281 537.85 76.0354 537.85 74.1926C537.85 72.3497 538.169 70.7684 538.806 69.4488C539.443 68.1065 540.33 67.0826 541.468 66.3773C542.606 65.672 543.925 65.3194 545.427 65.3194C546.951 65.3194 548.271 65.7061 549.386 66.4797C550.523 67.2305 551.274 68.2657 551.638 69.5853H551.228L551.604 65.6265H554.607C554.539 66.3091 554.471 66.9916 554.402 67.6742C554.357 68.3567 554.334 69.0279 554.334 69.6877V82.7927H551.228V78.868H551.604C551.24 80.1649 550.489 81.2001 549.351 81.9737C548.237 82.7245 546.928 83.0999 545.427 83.0999ZM546.143 80.6427C547.691 80.6427 548.931 80.0966 549.863 79.0046C550.796 77.9125 551.263 76.3085 551.263 74.1926C551.263 72.0766 550.796 70.484 549.863 69.4147C548.931 68.3453 547.691 67.8107 546.143 67.8107C544.596 67.8107 543.345 68.3453 542.389 69.4147C541.457 70.484 540.99 72.0766 540.99 74.1926C540.99 76.3085 541.457 77.9125 542.389 79.0046C543.322 80.0966 544.574 80.6427 546.143 80.6427ZM559.503 82.7927V69.8242C559.503 69.1417 559.481 68.4477 559.435 67.7424C559.412 67.0144 559.355 66.3091 559.264 65.6265H562.268L562.643 69.9266L562.131 69.9607C562.359 68.9141 562.745 68.0496 563.292 67.367C563.86 66.6617 564.531 66.1498 565.305 65.8313C566.101 65.49 566.92 65.3194 567.762 65.3194C568.126 65.3194 568.433 65.3307 568.684 65.3535C568.934 65.3762 569.184 65.4331 569.434 65.5241L569.366 68.2885C569.025 68.152 568.706 68.0723 568.411 68.0496C568.138 68.0041 567.796 67.9813 567.387 67.9813C566.386 67.9813 565.521 68.2088 564.793 68.6639C564.088 69.1189 563.542 69.7218 563.155 70.4726C562.791 71.2234 562.609 72.0311 562.609 72.8957V82.7927H559.503ZM579.751 83.0999C577.02 83.0999 574.859 82.3149 573.266 80.7451C571.697 79.1752 570.912 77.0138 570.912 74.2608C570.912 72.4407 571.253 70.8708 571.935 69.5512C572.641 68.2088 573.608 67.1736 574.836 66.4456C576.065 65.6948 577.498 65.3194 579.136 65.3194C580.706 65.3194 582.037 65.6606 583.129 66.3432C584.221 67.003 585.052 67.9472 585.621 69.1758C586.189 70.4044 586.474 71.8605 586.474 73.5441V74.568H573.335V72.7251H584.358L583.778 73.1687C583.778 71.3941 583.38 70.0176 582.583 69.0393C581.81 68.061 580.661 67.5718 579.136 67.5718C577.475 67.5718 576.19 68.152 575.28 69.3123C574.37 70.4499 573.915 72.0084 573.915 73.9878V74.2949C573.915 76.3881 574.427 77.9693 575.451 79.0387C576.497 80.108 577.942 80.6427 579.785 80.6427C580.809 80.6427 581.764 80.4948 582.651 80.199C583.539 79.9032 584.392 79.4141 585.211 78.7315L586.235 80.8816C585.461 81.5869 584.494 82.1329 583.334 82.5197C582.196 82.9065 581.002 83.0999 579.751 83.0999Z" fill="#535353"/>
<rect x="-46.9219" y="159.973" width="371.564" height="111.723" rx="12.7979" fill="#F4F6FA"/>
<path d="M41.5965 228.633C42.4852 228.633 43.2406 228.322 43.8627 227.7C44.4849 227.078 44.7959 226.322 44.7959 225.434C44.7959 224.545 44.4849 223.789 43.8627 223.167C43.2406 222.545 42.4852 222.234 41.5965 222.234C40.7077 222.234 39.9523 222.545 39.3302 223.167C38.708 223.789 38.397 224.545 38.397 225.434C38.397 226.322 38.708 227.078 39.3302 227.7C39.9523 228.322 40.7077 228.633 41.5965 228.633ZM41.5965 209.436C42.4852 209.436 43.2406 209.125 43.8627 208.503C44.4849 207.881 44.7959 207.125 44.7959 206.237C44.7959 205.348 44.4849 204.593 43.8627 203.97C43.2406 203.348 42.4852 203.037 41.5965 203.037C40.7077 203.037 39.9523 203.348 39.3302 203.97C38.708 204.593 38.397 205.348 38.397 206.237C38.397 207.125 38.708 207.881 39.3302 208.503C39.9523 209.125 40.7077 209.436 41.5965 209.436ZM51.1949 219.035C52.0836 219.035 52.839 218.724 53.4611 218.101C54.0833 217.479 54.3943 216.724 54.3943 215.835C54.3943 214.946 54.0833 214.191 53.4611 213.569C52.839 212.947 52.0836 212.636 51.1949 212.636C50.3061 212.636 49.5507 212.947 48.9286 213.569C48.3064 214.191 47.9954 214.946 47.9954 215.835C47.9954 216.724 48.3064 217.479 48.9286 218.101C49.5507 218.724 50.3061 219.035 51.1949 219.035ZM60.7933 228.633C61.682 228.633 62.4374 228.322 63.0595 227.7C63.6817 227.078 63.9927 226.322 63.9927 225.434C63.9927 224.545 63.6817 223.789 63.0595 223.167C62.4374 222.545 61.682 222.234 60.7933 222.234C59.9045 222.234 59.1491 222.545 58.527 223.167C57.9049 223.789 57.5938 224.545 57.5938 225.434C57.5938 226.322 57.9049 227.078 58.527 227.7C59.1491 228.322 59.9045 228.633 60.7933 228.633ZM60.7933 209.436C61.682 209.436 62.4374 209.125 63.0595 208.503C63.6817 207.881 63.9927 207.125 63.9927 206.237C63.9927 205.348 63.6817 204.593 63.0595 203.97C62.4374 203.348 61.682 203.037 60.7933 203.037C59.9045 203.037 59.1491 203.348 58.527 203.97C57.9049 204.593 57.5938 205.348 57.5938 206.237C57.5938 207.125 57.9049 207.881 58.527 208.503C59.1491 209.125 59.9045 209.436 60.7933 209.436ZM36.264 235.032C35.0909 235.032 34.0866 234.614 33.2512 233.779C32.4158 232.943 31.998 231.939 31.998 230.766V200.904C31.998 199.731 32.4158 198.727 33.2512 197.891C34.0866 197.056 35.0909 196.638 36.264 196.638H66.1257C67.2988 196.638 68.3031 197.056 69.1385 197.891C69.974 198.727 70.3917 199.731 70.3917 200.904V230.766C70.3917 231.939 69.974 232.943 69.1385 233.779C68.3031 234.614 67.2988 235.032 66.1257 235.032H36.264ZM36.264 230.766H66.1257V200.904H36.264V230.766Z" fill="#FF5827"/>
<path d="M112.245 228.142C109.606 228.142 107.388 227.653 105.59 226.675C103.793 225.674 102.439 224.252 101.529 222.409C100.642 220.566 100.198 218.37 100.198 215.822C100.198 213.274 100.676 211.078 101.632 209.236C102.587 207.393 103.952 205.971 105.727 204.97C107.524 203.968 109.674 203.468 112.177 203.468C113.929 203.468 115.453 203.718 116.75 204.219C118.047 204.719 119.207 205.447 120.231 206.403L119.037 208.928C118.309 208.291 117.603 207.779 116.921 207.393C116.238 207.006 115.522 206.733 114.771 206.574C114.043 206.392 113.178 206.301 112.177 206.301C109.379 206.301 107.24 207.131 105.761 208.792C104.282 210.453 103.543 212.808 103.543 215.856C103.543 218.951 104.259 221.305 105.693 222.921C107.126 224.536 109.356 225.344 112.382 225.344C113.451 225.344 114.498 225.241 115.522 225.037C116.545 224.832 117.524 224.536 118.457 224.149L117.808 225.753V217.597H111.767V215.14H120.538V226.402C119.514 226.925 118.252 227.346 116.75 227.664C115.249 227.983 113.747 228.142 112.245 228.142ZM132.326 228.142C130.824 228.142 129.505 227.79 128.367 227.084C127.23 226.379 126.342 225.355 125.705 224.013C125.068 222.67 124.75 221.078 124.75 219.235C124.75 217.392 125.068 215.811 125.705 214.491C126.342 213.149 127.23 212.125 128.367 211.42C129.505 210.714 130.824 210.362 132.326 210.362C133.85 210.362 135.17 210.749 136.285 211.522C137.422 212.273 138.173 213.308 138.537 214.628H138.128L138.503 210.669H141.506C141.438 211.351 141.37 212.034 141.302 212.717C141.256 213.399 141.233 214.07 141.233 214.73V227.835H138.128V223.91H138.503C138.139 225.207 137.388 226.242 136.251 227.016C135.136 227.767 133.828 228.142 132.326 228.142ZM133.043 225.685C134.59 225.685 135.83 225.139 136.763 224.047C137.695 222.955 138.162 221.351 138.162 219.235C138.162 217.119 137.695 215.526 136.763 214.457C135.83 213.388 134.59 212.853 133.043 212.853C131.496 212.853 130.244 213.388 129.289 214.457C128.356 215.526 127.889 217.119 127.889 219.235C127.889 221.351 128.356 222.955 129.289 224.047C130.221 225.139 131.473 225.685 133.043 225.685ZM146.437 227.835V214.73C146.437 214.07 146.414 213.399 146.368 212.717C146.323 212.034 146.255 211.351 146.164 210.669H149.167L149.508 214.355H149.099C149.554 213.081 150.282 212.102 151.283 211.42C152.284 210.714 153.478 210.362 154.866 210.362C156.277 210.362 157.437 210.703 158.347 211.386C159.257 212.045 159.872 213.092 160.19 214.525H159.678C160.11 213.251 160.873 212.239 161.965 211.488C163.057 210.737 164.331 210.362 165.787 210.362C167.675 210.362 169.097 210.919 170.053 212.034C171.009 213.126 171.486 214.832 171.486 217.153V227.835H168.381V217.324C168.381 215.754 168.108 214.628 167.562 213.945C167.016 213.24 166.151 212.887 164.968 212.887C163.58 212.887 162.488 213.365 161.692 214.321C160.895 215.253 160.497 216.527 160.497 218.143V227.835H157.392V217.324C157.392 215.754 157.119 214.628 156.573 213.945C156.049 213.24 155.185 212.887 153.979 212.887C152.591 212.887 151.499 213.365 150.703 214.321C149.929 215.253 149.542 216.527 149.542 218.143V227.835H146.437ZM185.472 228.142C183.948 228.142 182.628 227.767 181.513 227.016C180.399 226.242 179.659 225.185 179.295 223.842H179.671V227.835H176.565V202.717H179.671V214.594H179.295C179.682 213.274 180.421 212.239 181.513 211.488C182.628 210.737 183.948 210.362 185.472 210.362C186.997 210.362 188.328 210.726 189.465 211.454C190.603 212.159 191.479 213.172 192.093 214.491C192.73 215.811 193.049 217.403 193.049 219.269C193.049 221.112 192.73 222.705 192.093 224.047C191.479 225.367 190.591 226.379 189.431 227.084C188.294 227.79 186.974 228.142 185.472 228.142ZM184.756 225.685C186.303 225.685 187.543 225.15 188.476 224.081C189.431 222.989 189.909 221.385 189.909 219.269C189.909 217.153 189.431 215.561 188.476 214.491C187.543 213.399 186.303 212.853 184.756 212.853C183.186 212.853 181.934 213.388 181.002 214.457C180.092 215.526 179.636 217.119 179.636 219.235C179.636 221.351 180.092 222.955 181.002 224.047C181.934 225.139 183.186 225.685 184.756 225.685ZM197.228 227.835V202.717H200.334V227.835H197.228ZM205.527 227.835V210.669H208.632V227.835H205.527ZM205.254 206.915V203.57H208.94V206.915H205.254ZM213.825 227.835V214.73C213.825 214.07 213.803 213.399 213.757 212.717C213.712 212.034 213.643 211.351 213.552 210.669H216.556L216.897 214.355H216.487C217.011 213.058 217.818 212.068 218.91 211.386C220.003 210.703 221.277 210.362 222.733 210.362C224.758 210.362 226.282 210.919 227.306 212.034C228.33 213.126 228.842 214.832 228.842 217.153V227.835H225.736V217.324C225.736 215.754 225.429 214.628 224.815 213.945C224.2 213.24 223.245 212.887 221.948 212.887C220.401 212.887 219.172 213.354 218.262 214.286C217.375 215.219 216.931 216.482 216.931 218.075V227.835H213.825ZM241.567 235.48C240.065 235.48 238.689 235.298 237.437 234.934C236.186 234.57 235.06 234.012 234.059 233.261L234.878 230.975C235.583 231.453 236.277 231.839 236.959 232.135C237.642 232.431 238.347 232.647 239.075 232.784C239.826 232.92 240.6 232.988 241.396 232.988C243.08 232.988 244.342 232.556 245.184 231.692C246.026 230.827 246.447 229.598 246.447 228.006V223.194H246.788C246.424 224.491 245.673 225.526 244.536 226.299C243.421 227.05 242.101 227.426 240.577 227.426C239.03 227.426 237.676 227.084 236.516 226.402C235.378 225.696 234.491 224.707 233.854 223.433C233.217 222.136 232.898 220.623 232.898 218.894C232.898 217.142 233.217 215.629 233.854 214.355C234.491 213.081 235.378 212.102 236.516 211.42C237.676 210.714 239.03 210.362 240.577 210.362C242.101 210.362 243.421 210.737 244.536 211.488C245.651 212.239 246.39 213.274 246.754 214.594L246.447 214.286L246.754 210.669H249.757C249.689 211.351 249.621 212.034 249.553 212.717C249.507 213.399 249.484 214.07 249.484 214.73V227.63C249.484 230.179 248.813 232.124 247.471 233.466C246.151 234.809 244.183 235.48 241.567 235.48ZM241.26 224.968C242.829 224.968 244.081 224.434 245.014 223.364C245.946 222.295 246.413 220.805 246.413 218.894C246.413 216.96 245.946 215.469 245.014 214.423C244.081 213.376 242.829 212.853 241.26 212.853C239.667 212.853 238.393 213.376 237.437 214.423C236.504 215.469 236.038 216.96 236.038 218.894C236.038 220.805 236.504 222.295 237.437 223.364C238.393 224.434 239.667 224.968 241.26 224.968Z" fill="#535353"/>
<rect x="360.477" y="159.973" width="461.564" height="111.723" rx="12.7979" fill="#F4F6FA"/>
<path d="M445.795 237.165C444.018 237.165 442.507 236.543 441.263 235.299C440.019 234.054 439.396 232.543 439.396 230.766V224.367H445.795V194.505H477.79V230.766C477.79 232.543 477.168 234.054 475.924 235.299C474.68 236.543 473.169 237.165 471.391 237.165H445.795ZM471.391 232.899C471.996 232.899 472.502 232.695 472.911 232.286C473.32 231.877 473.524 231.37 473.524 230.766V198.771H450.061V224.367H469.258V230.766C469.258 231.37 469.463 231.877 469.871 232.286C470.28 232.695 470.787 232.899 471.391 232.899ZM452.194 209.436V205.17H471.391V209.436H452.194ZM452.194 215.835V211.569H471.391V215.835H452.194ZM445.795 232.899H464.992V228.633H443.662V230.766C443.662 231.37 443.867 231.877 444.276 232.286C444.684 232.695 445.191 232.899 445.795 232.899ZM445.795 232.899H443.662H464.992H445.795Z" fill="#AA6AD8"/>
<path d="M516.743 228.142C514.809 228.142 513.069 227.892 511.522 227.391C509.975 226.891 508.632 226.186 507.495 225.276L508.587 222.75C509.383 223.342 510.191 223.842 511.01 224.252C511.829 224.638 512.705 224.934 513.638 225.139C514.593 225.321 515.628 225.412 516.743 225.412C518.723 225.412 520.179 225.059 521.111 224.354C522.067 223.626 522.545 222.67 522.545 221.487C522.545 220.464 522.215 219.679 521.555 219.133C520.895 218.586 519.746 218.154 518.108 217.836L514.457 217.085C512.25 216.63 510.6 215.89 509.508 214.867C508.439 213.82 507.904 212.409 507.904 210.635C507.904 209.201 508.279 207.95 509.03 206.881C509.804 205.789 510.862 204.947 512.204 204.355C513.569 203.764 515.162 203.468 516.982 203.468C518.666 203.468 520.224 203.718 521.658 204.219C523.091 204.719 524.297 205.459 525.275 206.437L524.183 208.86C523.159 207.927 522.056 207.256 520.873 206.847C519.712 206.414 518.393 206.198 516.914 206.198C515.116 206.198 513.694 206.585 512.648 207.358C511.601 208.132 511.078 209.179 511.078 210.498C511.078 211.545 511.408 212.375 512.068 212.99C512.727 213.581 513.82 214.036 515.344 214.355L518.996 215.071C521.316 215.526 523.011 216.243 524.081 217.221C525.173 218.2 525.719 219.553 525.719 221.283C525.719 222.648 525.355 223.854 524.627 224.9C523.899 225.924 522.863 226.72 521.521 227.289C520.179 227.858 518.586 228.142 516.743 228.142ZM529.88 227.835V214.73C529.88 214.07 529.857 213.399 529.812 212.717C529.766 212.034 529.698 211.351 529.607 210.669H532.61L532.951 214.355H532.542C532.997 213.081 533.725 212.102 534.726 211.42C535.727 210.714 536.922 210.362 538.309 210.362C539.72 210.362 540.88 210.703 541.79 211.386C542.701 212.045 543.315 213.092 543.633 214.525H543.121C543.554 213.251 544.316 212.239 545.408 211.488C546.5 210.737 547.774 210.362 549.23 210.362C551.119 210.362 552.541 210.919 553.496 212.034C554.452 213.126 554.93 214.832 554.93 217.153V227.835H551.824V217.324C551.824 215.754 551.551 214.628 551.005 213.945C550.459 213.24 549.594 212.887 548.411 212.887C547.023 212.887 545.931 213.365 545.135 214.321C544.339 215.253 543.94 216.527 543.94 218.143V227.835H540.835V217.324C540.835 215.754 540.562 214.628 540.016 213.945C539.493 213.24 538.628 212.887 537.422 212.887C536.034 212.887 534.942 213.365 534.146 214.321C533.372 215.253 532.986 216.527 532.986 218.143V227.835H529.88ZM566.561 228.142C565.059 228.142 563.74 227.79 562.602 227.084C561.464 226.379 560.577 225.355 559.94 224.013C559.303 222.67 558.984 221.078 558.984 219.235C558.984 217.392 559.303 215.811 559.94 214.491C560.577 213.149 561.464 212.125 562.602 211.42C563.74 210.714 565.059 210.362 566.561 210.362C568.085 210.362 569.405 210.749 570.52 211.522C571.657 212.273 572.408 213.308 572.772 214.628H572.362L572.738 210.669H575.741C575.673 211.351 575.605 212.034 575.536 212.717C575.491 213.399 575.468 214.07 575.468 214.73V227.835H572.362V223.91H572.738C572.374 225.207 571.623 226.242 570.485 227.016C569.371 227.767 568.062 228.142 566.561 228.142ZM567.277 225.685C568.825 225.685 570.065 225.139 570.997 224.047C571.93 222.955 572.397 221.351 572.397 219.235C572.397 217.119 571.93 215.526 570.997 214.457C570.065 213.388 568.825 212.853 567.277 212.853C565.73 212.853 564.479 213.388 563.523 214.457C562.591 215.526 562.124 217.119 562.124 219.235C562.124 221.351 562.591 222.955 563.523 224.047C564.456 225.139 565.708 225.685 567.277 225.685ZM580.637 227.835V214.867C580.637 214.184 580.615 213.49 580.569 212.785C580.546 212.057 580.489 211.351 580.398 210.669H583.402L583.777 214.969L583.265 215.003C583.493 213.957 583.879 213.092 584.426 212.409C584.994 211.704 585.665 211.192 586.439 210.874C587.235 210.532 588.054 210.362 588.896 210.362C589.26 210.362 589.567 210.373 589.818 210.396C590.068 210.419 590.318 210.475 590.568 210.566L590.5 213.331C590.159 213.194 589.84 213.115 589.545 213.092C589.272 213.046 588.93 213.024 588.521 213.024C587.52 213.024 586.655 213.251 585.927 213.706C585.222 214.161 584.676 214.764 584.289 215.515C583.925 216.266 583.743 217.073 583.743 217.938V227.835H580.637ZM600.652 228.142C598.854 228.142 597.489 227.653 596.557 226.675C595.646 225.674 595.191 224.172 595.191 222.17V213.058H591.847V210.669H595.191V206.062L598.297 205.208V210.669H603.143V213.058H598.297V221.897C598.297 223.216 598.525 224.161 598.98 224.729C599.457 225.276 600.14 225.549 601.027 225.549C601.482 225.549 601.869 225.514 602.188 225.446C602.529 225.355 602.836 225.253 603.109 225.139V227.699C602.768 227.835 602.37 227.937 601.915 228.006C601.482 228.097 601.061 228.142 600.652 228.142ZM626.354 228.142C623.942 228.142 621.872 227.642 620.143 226.641C618.436 225.64 617.128 224.218 616.218 222.375C615.308 220.509 614.853 218.313 614.853 215.788C614.853 213.263 615.308 211.078 616.218 209.236C617.128 207.393 618.436 205.971 620.143 204.97C621.872 203.968 623.942 203.468 626.354 203.468C628.083 203.468 629.619 203.73 630.961 204.253C632.304 204.753 633.475 205.493 634.476 206.471L633.316 209.031C632.224 208.075 631.143 207.393 630.074 206.983C629.027 206.551 627.81 206.335 626.422 206.335C623.76 206.335 621.724 207.154 620.313 208.792C618.903 210.43 618.197 212.762 618.197 215.788C618.197 218.814 618.903 221.157 620.313 222.818C621.724 224.456 623.76 225.276 626.422 225.276C627.81 225.276 629.027 225.071 630.074 224.661C631.143 224.229 632.224 223.535 633.316 222.579L634.476 225.105C633.475 226.083 632.292 226.834 630.927 227.357C629.585 227.881 628.06 228.142 626.354 228.142ZM644.797 228.142C643.113 228.142 641.657 227.79 640.429 227.084C639.2 226.356 638.245 225.332 637.562 224.013C636.879 222.67 636.538 221.078 636.538 219.235C636.538 217.415 636.879 215.845 637.562 214.525C638.245 213.183 639.2 212.159 640.429 211.454C641.657 210.726 643.113 210.362 644.797 210.362C646.481 210.362 647.937 210.726 649.165 211.454C650.417 212.159 651.372 213.183 652.032 214.525C652.715 215.845 653.056 217.415 653.056 219.235C653.056 221.078 652.715 222.67 652.032 224.013C651.372 225.332 650.417 226.356 649.165 227.084C647.937 227.79 646.481 228.142 644.797 228.142ZM644.797 225.685C646.344 225.685 647.584 225.139 648.517 224.047C649.45 222.955 649.916 221.351 649.916 219.235C649.916 217.119 649.45 215.526 648.517 214.457C647.584 213.388 646.344 212.853 644.797 212.853C643.227 212.853 641.976 213.388 641.043 214.457C640.133 215.526 639.678 217.119 639.678 219.235C639.678 221.351 640.133 222.955 641.043 224.047C641.976 225.139 643.227 225.685 644.797 225.685ZM657.225 227.835V214.73C657.225 214.07 657.203 213.399 657.157 212.717C657.112 212.034 657.043 211.351 656.952 210.669H659.956L660.297 214.355H659.887C660.411 213.058 661.218 212.068 662.31 211.386C663.403 210.703 664.677 210.362 666.133 210.362C668.158 210.362 669.682 210.919 670.706 212.034C671.73 213.126 672.242 214.832 672.242 217.153V227.835H669.136V217.324C669.136 215.754 668.829 214.628 668.215 213.945C667.6 213.24 666.645 212.887 665.348 212.887C663.801 212.887 662.572 213.354 661.662 214.286C660.775 215.219 660.331 216.482 660.331 218.075V227.835H657.225ZM683.738 228.142C681.941 228.142 680.576 227.653 679.643 226.675C678.733 225.674 678.278 224.172 678.278 222.17V213.058H674.933V210.669H678.278V206.062L681.383 205.208V210.669H686.229V213.058H681.383V221.897C681.383 223.216 681.611 224.161 682.066 224.729C682.544 225.276 683.226 225.549 684.113 225.549C684.568 225.549 684.955 225.514 685.274 225.446C685.615 225.355 685.922 225.253 686.195 225.139V227.699C685.854 227.835 685.456 227.937 685.001 228.006C684.568 228.097 684.148 228.142 683.738 228.142ZM689.453 227.835V214.867C689.453 214.184 689.43 213.49 689.384 212.785C689.362 212.057 689.305 211.351 689.214 210.669H692.217L692.592 214.969L692.08 215.003C692.308 213.957 692.695 213.092 693.241 212.409C693.81 211.704 694.481 211.192 695.254 210.874C696.051 210.532 696.87 210.362 697.711 210.362C698.075 210.362 698.383 210.373 698.633 210.396C698.883 210.419 699.133 210.475 699.384 210.566L699.315 213.331C698.974 213.194 698.656 213.115 698.36 213.092C698.087 213.046 697.746 213.024 697.336 213.024C696.335 213.024 695.47 213.251 694.742 213.706C694.037 214.161 693.491 214.764 693.104 215.515C692.74 216.266 692.558 217.073 692.558 217.938V227.835H689.453ZM708.504 228.142C707.002 228.142 705.683 227.79 704.545 227.084C703.407 226.379 702.52 225.355 701.883 224.013C701.246 222.67 700.927 221.078 700.927 219.235C700.927 217.392 701.246 215.811 701.883 214.491C702.52 213.149 703.407 212.125 704.545 211.42C705.683 210.714 707.002 210.362 708.504 210.362C710.028 210.362 711.348 210.749 712.463 211.522C713.6 212.273 714.351 213.308 714.715 214.628H714.306L714.681 210.669H717.684C717.616 211.351 717.548 212.034 717.479 212.717C717.434 213.399 717.411 214.07 717.411 214.73V227.835H714.306V223.91H714.681C714.317 225.207 713.566 226.242 712.428 227.016C711.314 227.767 710.005 228.142 708.504 228.142ZM709.22 225.685C710.768 225.685 712.008 225.139 712.94 224.047C713.873 222.955 714.34 221.351 714.34 219.235C714.34 217.119 713.873 215.526 712.94 214.457C712.008 213.388 710.768 212.853 709.22 212.853C707.673 212.853 706.422 213.388 705.466 214.457C704.534 215.526 704.067 217.119 704.067 219.235C704.067 221.351 704.534 222.955 705.466 224.047C706.399 225.139 707.651 225.685 709.22 225.685ZM729.986 228.142C728.28 228.142 726.801 227.79 725.549 227.084C724.298 226.356 723.32 225.321 722.615 223.979C721.932 222.614 721.591 220.998 721.591 219.133C721.591 217.29 721.943 215.72 722.649 214.423C723.354 213.103 724.332 212.102 725.584 211.42C726.835 210.714 728.302 210.362 729.986 210.362C731.101 210.362 732.182 210.555 733.228 210.942C734.275 211.306 735.128 211.841 735.788 212.546L734.73 214.73C734.07 214.093 733.342 213.627 732.546 213.331C731.749 213.012 730.964 212.853 730.191 212.853C728.507 212.853 727.188 213.399 726.232 214.491C725.276 215.561 724.799 217.119 724.799 219.167C724.799 221.237 725.276 222.83 726.232 223.945C727.188 225.059 728.507 225.617 730.191 225.617C730.942 225.617 731.715 225.469 732.512 225.173C733.308 224.877 734.047 224.411 734.73 223.774L735.788 225.924C735.105 226.652 734.229 227.209 733.16 227.596C732.113 227.96 731.055 228.142 729.986 228.142ZM746.028 228.142C744.23 228.142 742.865 227.653 741.932 226.675C741.022 225.674 740.567 224.172 740.567 222.17V213.058H737.223V210.669H740.567V206.062L743.673 205.208V210.669H748.519V213.058H743.673V221.897C743.673 223.216 743.9 224.161 744.355 224.729C744.833 225.276 745.516 225.549 746.403 225.549C746.858 225.549 747.245 225.514 747.563 225.446C747.905 225.355 748.212 225.253 748.485 225.139V227.699C748.144 227.835 747.745 227.937 747.29 228.006C746.858 228.097 746.437 228.142 746.028 228.142Z" fill="#535353"/>
<rect x="-390.332" y="305.016" width="429.564" height="111.723" rx="12.7979" fill="#F4F6FA"/>
<rect x="74.6582" y="305.016" width="403.564" height="111.723" rx="12.7979" fill="#F4F6FA"/>
<path d="M156.353 383.274C156.069 383.274 155.793 383.22 155.527 383.114C155.26 383.007 155.02 382.847 154.807 382.634L150.327 378.154C150.114 377.941 149.954 377.701 149.847 377.435C149.741 377.168 149.688 376.892 149.688 376.608C149.688 376.324 149.741 376.057 149.847 375.808C149.954 375.559 150.114 375.328 150.327 375.115L161.632 363.81H166.165L167.978 361.997L170.964 359.011L177.15 352.825L174.857 350.532L176.339 349.05C177.17 348.219 177.172 346.872 176.344 346.038L169.151 338.801V338.801C171.654 336.298 175.713 336.298 178.216 338.801L179.389 339.974L182.375 343.014L189.894 350.586L191.284 351.922L193.998 354.636C194.602 355.24 195.064 355.925 195.384 356.689C195.704 357.453 195.864 358.262 195.864 359.115C195.864 359.968 195.704 360.786 195.384 361.568C195.064 362.35 194.602 363.044 193.998 363.648L190.212 359.862L186.923 356.573C186.09 355.74 184.74 355.74 183.907 356.573L182.429 358.051L180.189 355.812L169.151 366.85V371.329L157.846 382.634C157.633 382.847 157.402 383.007 157.153 383.114C156.904 383.22 156.637 383.274 156.353 383.274ZM156.353 378.154L165.418 369.089V367.543H163.872L154.807 376.608L156.353 378.154ZM156.353 378.154L154.807 376.608L155.607 377.355L156.353 378.154Z" fill="#4EAD51"/>
<path d="M223.052 372.877V348.817H225.85L235.338 370.181H234.314L243.801 348.817H246.566V372.877H243.665V353.049H244.723L235.815 372.877H233.802L224.894 353.049H225.952V372.877H223.052ZM252.105 372.877V355.711H255.211V372.877H252.105ZM251.832 351.957V348.613H255.518V351.957H251.832ZM260.404 372.877V359.772C260.404 359.113 260.381 358.441 260.336 357.759C260.29 357.076 260.222 356.394 260.131 355.711H263.134L263.475 359.397H263.066C263.589 358.1 264.397 357.11 265.489 356.428C266.581 355.745 267.855 355.404 269.311 355.404C271.336 355.404 272.861 355.961 273.884 357.076C274.908 358.168 275.42 359.875 275.42 362.195V372.877H272.315V362.366C272.315 360.796 272.007 359.67 271.393 358.987C270.779 358.282 269.823 357.93 268.526 357.93C266.979 357.93 265.751 358.396 264.841 359.329C263.953 360.262 263.51 361.524 263.51 363.117V372.877H260.404ZM280.501 372.877V355.711H283.606V372.877H280.501ZM280.228 351.957V348.613H283.913V351.957H280.228ZM288.799 372.877V359.772C288.799 359.113 288.777 358.441 288.731 357.759C288.686 357.076 288.617 356.394 288.526 355.711H291.529L291.871 359.397H291.461C291.985 358.1 292.792 357.11 293.884 356.428C294.976 355.745 296.25 355.404 297.707 355.404C299.732 355.404 301.256 355.961 302.28 357.076C303.304 358.168 303.815 359.875 303.815 362.195V372.877H300.71V362.366C300.71 360.796 300.403 359.67 299.788 358.987C299.174 358.282 298.219 357.93 296.922 357.93C295.375 357.93 294.146 358.396 293.236 359.329C292.349 360.262 291.905 361.524 291.905 363.117V372.877H288.799ZM316.541 380.522C315.039 380.522 313.662 380.34 312.411 379.976C311.16 379.612 310.034 379.055 309.032 378.304L309.852 376.017C310.557 376.495 311.251 376.882 311.933 377.178C312.616 377.473 313.321 377.689 314.049 377.826C314.8 377.962 315.574 378.031 316.37 378.031C318.054 378.031 319.316 377.598 320.158 376.734C321 375.869 321.421 374.641 321.421 373.048V368.236H321.762C321.398 369.533 320.647 370.568 319.51 371.342C318.395 372.093 317.075 372.468 315.551 372.468C314.004 372.468 312.65 372.127 311.49 371.444C310.352 370.739 309.465 369.749 308.828 368.475C308.191 367.178 307.872 365.665 307.872 363.936C307.872 362.184 308.191 360.671 308.828 359.397C309.465 358.123 310.352 357.145 311.49 356.462C312.65 355.757 314.004 355.404 315.551 355.404C317.075 355.404 318.395 355.779 319.51 356.53C320.624 357.281 321.364 358.316 321.728 359.636L321.421 359.329L321.728 355.711H324.731C324.663 356.394 324.595 357.076 324.526 357.759C324.481 358.441 324.458 359.113 324.458 359.772V372.673C324.458 375.221 323.787 377.166 322.445 378.509C321.125 379.851 319.157 380.522 316.541 380.522ZM316.233 370.011C317.803 370.011 319.055 369.476 319.987 368.407C320.92 367.337 321.387 365.847 321.387 363.936C321.387 362.002 320.92 360.512 319.987 359.465C319.055 358.419 317.803 357.895 316.233 357.895C314.641 357.895 313.367 358.419 312.411 359.465C311.478 360.512 311.012 362.002 311.012 363.936C311.012 365.847 311.478 367.337 312.411 368.407C313.367 369.476 314.641 370.011 316.233 370.011ZM338.999 372.877V348.817H348.964C351.535 348.817 353.503 349.432 354.868 350.66C356.233 351.889 356.916 353.584 356.916 355.745C356.916 357.907 356.233 359.613 354.868 360.865C353.503 362.093 351.535 362.707 348.964 362.707H342.173V372.877H338.999ZM342.173 360.114H348.657C350.341 360.114 351.615 359.738 352.479 358.987C353.344 358.214 353.776 357.133 353.776 355.745C353.776 354.357 353.344 353.288 352.479 352.537C351.615 351.787 350.341 351.411 348.657 351.411H342.173V360.114ZM367.489 373.185C365.806 373.185 364.349 372.832 363.121 372.127C361.892 371.399 360.937 370.375 360.254 369.055C359.572 367.713 359.23 366.12 359.23 364.277C359.23 362.457 359.572 360.887 360.254 359.568C360.937 358.225 361.892 357.201 363.121 356.496C364.349 355.768 365.806 355.404 367.489 355.404C369.173 355.404 370.629 355.768 371.857 356.496C373.109 357.201 374.064 358.225 374.724 359.568C375.407 360.887 375.748 362.457 375.748 364.277C375.748 366.12 375.407 367.713 374.724 369.055C374.064 370.375 373.109 371.399 371.857 372.127C370.629 372.832 369.173 373.185 367.489 373.185ZM367.489 370.727C369.036 370.727 370.276 370.181 371.209 369.089C372.142 367.997 372.608 366.393 372.608 364.277C372.608 362.161 372.142 360.569 371.209 359.499C370.276 358.43 369.036 357.895 367.489 357.895C365.919 357.895 364.668 358.43 363.735 359.499C362.825 360.569 362.37 362.161 362.37 364.277C362.37 366.393 362.825 367.997 363.735 369.089C364.668 370.181 365.919 370.727 367.489 370.727ZM387.153 373.185C385.469 373.185 384.013 372.832 382.784 372.127C381.556 371.399 380.6 370.375 379.917 369.055C379.235 367.713 378.894 366.12 378.894 364.277C378.894 362.457 379.235 360.887 379.917 359.568C380.6 358.225 381.556 357.201 382.784 356.496C384.013 355.768 385.469 355.404 387.153 355.404C388.836 355.404 390.292 355.768 391.521 356.496C392.772 357.201 393.728 358.225 394.388 359.568C395.07 360.887 395.411 362.457 395.411 364.277C395.411 366.12 395.07 367.713 394.388 369.055C393.728 370.375 392.772 371.399 391.521 372.127C390.292 372.832 388.836 373.185 387.153 373.185ZM387.153 370.727C388.7 370.727 389.94 370.181 390.872 369.089C391.805 367.997 392.272 366.393 392.272 364.277C392.272 362.161 391.805 360.569 390.872 359.499C389.94 358.43 388.7 357.895 387.153 357.895C385.583 357.895 384.331 358.43 383.398 359.499C382.488 360.569 382.033 362.161 382.033 364.277C382.033 366.393 382.488 367.997 383.398 369.089C384.331 370.181 385.583 370.727 387.153 370.727ZM399.581 372.877V347.759H402.686V372.877H399.581Z" fill="#535353"/>
<rect x="511.918" y="305.016" width="490.564" height="111.723" rx="12.7979" fill="#F4F6FA"/>
<path d="M602.836 380.074C599.494 380.074 596.659 378.91 594.331 376.582C592.002 374.253 590.838 371.418 590.838 368.076C590.838 366.477 591.14 364.948 591.744 363.49C592.349 362.033 593.22 360.735 594.357 359.598L608.755 345.2C609.893 344.062 611.19 343.192 612.648 342.587C614.105 341.983 615.634 341.681 617.234 341.681C620.575 341.681 623.41 342.845 625.739 345.173C628.067 347.502 629.232 350.337 629.232 353.679C629.232 355.278 628.929 356.807 628.325 358.265C627.721 359.722 626.85 361.02 625.712 362.157L611.314 376.555C610.177 377.692 608.879 378.563 607.422 379.168C605.964 379.772 604.436 380.074 602.836 380.074ZM617.02 364.823L622.726 359.171C623.437 358.46 623.988 357.625 624.379 356.665C624.77 355.705 624.966 354.71 624.966 353.679C624.966 351.546 624.21 349.724 622.699 348.213C621.188 346.702 619.366 345.947 617.234 345.947C616.203 345.947 615.207 346.142 614.247 346.533C613.287 346.924 612.452 347.475 611.741 348.186L606.089 353.892L617.02 364.823ZM602.836 375.808C603.867 375.808 604.862 375.613 605.822 375.222C606.782 374.831 607.617 374.28 608.328 373.569L613.981 367.863L603.049 356.931L597.343 362.584C596.632 363.295 596.081 364.13 595.69 365.09C595.299 366.05 595.104 367.045 595.104 368.076C595.104 370.209 595.859 372.031 597.37 373.542C598.881 375.053 600.703 375.808 602.836 375.808Z" fill="#FF8987"/>
<path d="M659.115 360.83C659.115 358.305 659.558 356.121 660.446 354.278C661.333 352.435 662.607 351.013 664.268 350.012C665.952 349.011 667.954 348.51 670.274 348.51C672.572 348.51 674.552 349.011 676.213 350.012C677.896 351.013 679.193 352.435 680.103 354.278C681.013 356.121 681.468 358.294 681.468 360.796C681.468 363.322 681.013 365.517 680.103 367.383C679.193 369.226 677.896 370.659 676.213 371.683C674.552 372.684 672.572 373.185 670.274 373.185C667.954 373.185 665.963 372.684 664.302 371.683C662.641 370.659 661.356 369.226 660.446 367.383C659.558 365.517 659.115 363.333 659.115 360.83ZM662.459 360.83C662.459 363.834 663.119 366.177 664.439 367.861C665.758 369.544 667.703 370.386 670.274 370.386C672.754 370.386 674.677 369.556 676.042 367.895C677.43 366.211 678.124 363.856 678.124 360.83C678.124 357.804 677.441 355.461 676.076 353.8C674.711 352.139 672.777 351.309 670.274 351.309C667.703 351.309 665.758 352.139 664.439 353.8C663.119 355.461 662.459 357.804 662.459 360.83ZM686.156 372.877V359.772C686.156 359.113 686.134 358.441 686.088 357.759C686.042 357.076 685.974 356.394 685.883 355.711H688.886L689.228 359.397H688.818C689.342 358.1 690.149 357.11 691.241 356.428C692.333 355.745 693.607 355.404 695.064 355.404C697.088 355.404 698.613 355.961 699.637 357.076C700.661 358.168 701.172 359.875 701.172 362.195V372.877H698.067V362.366C698.067 360.796 697.76 359.67 697.145 358.987C696.531 358.282 695.575 357.93 694.279 357.93C692.732 357.93 691.503 358.396 690.593 359.329C689.706 360.262 689.262 361.524 689.262 363.117V372.877H686.156ZM706.253 372.877V347.759H709.359V372.877H706.253ZM714.552 372.877V355.711H717.657V372.877H714.552ZM714.279 351.957V348.613H717.964V351.957H714.279ZM722.85 372.877V359.772C722.85 359.113 722.827 358.441 722.782 357.759C722.736 357.076 722.668 356.394 722.577 355.711H725.58L725.922 359.397H725.512C726.035 358.1 726.843 357.11 727.935 356.428C729.027 355.745 730.301 355.404 731.757 355.404C733.782 355.404 735.307 355.961 736.331 357.076C737.354 358.168 737.866 359.875 737.866 362.195V372.877H734.761V362.366C734.761 360.796 734.454 359.67 733.839 358.987C733.225 358.282 732.269 357.93 730.973 357.93C729.425 357.93 728.197 358.396 727.287 359.329C726.399 360.262 725.956 361.524 725.956 363.117V372.877H722.85ZM750.762 373.185C748.032 373.185 745.87 372.4 744.278 370.83C742.708 369.26 741.923 367.098 741.923 364.346C741.923 362.525 742.264 360.956 742.947 359.636C743.652 358.294 744.619 357.258 745.848 356.53C747.076 355.779 748.51 355.404 750.148 355.404C751.718 355.404 753.049 355.745 754.141 356.428C755.233 357.088 756.063 358.032 756.632 359.261C757.201 360.489 757.485 361.945 757.485 363.629V364.653H744.346V362.81H755.369L754.789 363.253C754.789 361.479 754.391 360.102 753.595 359.124C752.821 358.146 751.672 357.657 750.148 357.657C748.487 357.657 747.201 358.237 746.291 359.397C745.381 360.535 744.926 362.093 744.926 364.073V364.38C744.926 366.473 745.438 368.054 746.462 369.123C747.509 370.193 748.953 370.727 750.796 370.727C751.82 370.727 752.776 370.58 753.663 370.284C754.55 369.988 755.403 369.499 756.222 368.816L757.246 370.966C756.473 371.672 755.506 372.218 754.345 372.604C753.208 372.991 752.013 373.185 750.762 373.185ZM770.883 372.877V348.817H780.849C783.42 348.817 785.388 349.432 786.753 350.66C788.118 351.889 788.801 353.584 788.801 355.745C788.801 357.907 788.118 359.613 786.753 360.865C785.388 362.093 783.42 362.707 780.849 362.707H774.057V372.877H770.883ZM774.057 360.114H780.542C782.225 360.114 783.499 359.738 784.364 358.987C785.228 358.214 785.661 357.133 785.661 355.745C785.661 354.357 785.228 353.288 784.364 352.537C783.499 351.787 782.225 351.411 780.542 351.411H774.057V360.114ZM792.905 372.877V347.759H796.011V359.431H795.567C796.068 358.112 796.875 357.11 797.99 356.428C799.105 355.745 800.39 355.404 801.847 355.404C803.917 355.404 805.441 355.961 806.42 357.076C807.421 358.191 807.921 359.875 807.921 362.127V372.877H804.816V362.298C804.816 360.773 804.52 359.67 803.928 358.987C803.337 358.282 802.37 357.93 801.028 357.93C799.526 357.93 798.309 358.396 797.376 359.329C796.466 360.262 796.011 361.502 796.011 363.049V372.877H792.905ZM819.554 373.185C818.053 373.185 816.733 372.832 815.596 372.127C814.458 371.421 813.571 370.397 812.934 369.055C812.297 367.713 811.978 366.12 811.978 364.277C811.978 362.434 812.297 360.853 812.934 359.534C813.571 358.191 814.458 357.167 815.596 356.462C816.733 355.757 818.053 355.404 819.554 355.404C821.079 355.404 822.398 355.791 823.513 356.564C824.651 357.315 825.402 358.35 825.766 359.67H825.356L825.731 355.711H828.735C828.666 356.394 828.598 357.076 828.53 357.759C828.484 358.441 828.462 359.113 828.462 359.772V372.877H825.356V368.953H825.731C825.367 370.25 824.617 371.285 823.479 372.058C822.364 372.809 821.056 373.185 819.554 373.185ZM820.271 370.727C821.818 370.727 823.058 370.181 823.991 369.089C824.924 367.997 825.39 366.393 825.39 364.277C825.39 362.161 824.924 360.569 823.991 359.499C823.058 358.43 821.818 357.895 820.271 357.895C818.724 357.895 817.473 358.43 816.517 359.499C815.584 360.569 815.118 362.161 815.118 364.277C815.118 366.393 815.584 367.997 816.517 369.089C817.45 370.181 818.701 370.727 820.271 370.727ZM833.631 372.877V359.909C833.631 359.226 833.608 358.532 833.563 357.827C833.54 357.099 833.483 356.394 833.392 355.711H836.395L836.771 360.011L836.259 360.045C836.486 358.999 836.873 358.134 837.419 357.452C837.988 356.746 838.659 356.235 839.433 355.916C840.229 355.575 841.048 355.404 841.89 355.404C842.254 355.404 842.561 355.415 842.811 355.438C843.062 355.461 843.312 355.518 843.562 355.609L843.494 358.373C843.153 358.237 842.834 358.157 842.538 358.134C842.265 358.089 841.924 358.066 841.514 358.066C840.513 358.066 839.649 358.294 838.921 358.749C838.215 359.204 837.669 359.807 837.283 360.557C836.919 361.308 836.737 362.116 836.737 362.98V372.877H833.631ZM846.296 372.877V359.772C846.296 359.113 846.274 358.441 846.228 357.759C846.183 357.076 846.114 356.394 846.023 355.711H849.027L849.368 359.397H848.958C849.413 358.123 850.141 357.145 851.142 356.462C852.143 355.757 853.338 355.404 854.726 355.404C856.136 355.404 857.297 355.745 858.207 356.428C859.117 357.088 859.731 358.134 860.05 359.568H859.538C859.97 358.294 860.732 357.281 861.824 356.53C862.916 355.779 864.191 355.404 865.647 355.404C867.535 355.404 868.957 355.961 869.913 357.076C870.868 358.168 871.346 359.875 871.346 362.195V372.877H868.24V362.366C868.24 360.796 867.967 359.67 867.421 358.987C866.875 358.282 866.011 357.93 864.828 357.93C863.44 357.93 862.348 358.407 861.551 359.363C860.755 360.296 860.357 361.57 860.357 363.185V372.877H857.251V362.366C857.251 360.796 856.978 359.67 856.432 358.987C855.909 358.282 855.044 357.93 853.839 357.93C852.451 357.93 851.359 358.407 850.562 359.363C849.789 360.296 849.402 361.57 849.402 363.185V372.877H846.296ZM882.977 373.185C881.476 373.185 880.156 372.832 879.018 372.127C877.881 371.421 876.993 370.397 876.356 369.055C875.719 367.713 875.401 366.12 875.401 364.277C875.401 362.434 875.719 360.853 876.356 359.534C876.993 358.191 877.881 357.167 879.018 356.462C880.156 355.757 881.476 355.404 882.977 355.404C884.501 355.404 885.821 355.791 886.936 356.564C888.074 357.315 888.824 358.35 889.188 359.67H888.779L889.154 355.711H892.157C892.089 356.394 892.021 357.076 891.953 357.759C891.907 358.441 891.884 359.113 891.884 359.772V372.877H888.779V368.953H889.154C888.79 370.25 888.039 371.285 886.902 372.058C885.787 372.809 884.479 373.185 882.977 373.185ZM883.694 370.727C885.241 370.727 886.481 370.181 887.414 369.089C888.347 367.997 888.813 366.393 888.813 364.277C888.813 362.161 888.347 360.569 887.414 359.499C886.481 358.43 885.241 357.895 883.694 357.895C882.147 357.895 880.895 358.43 879.94 359.499C879.007 360.569 878.541 362.161 878.541 364.277C878.541 366.393 879.007 367.997 879.94 369.089C880.873 370.181 882.124 370.727 883.694 370.727ZM904.459 373.185C902.753 373.185 901.274 372.832 900.023 372.127C898.771 371.399 897.793 370.363 897.088 369.021C896.405 367.656 896.064 366.041 896.064 364.175C896.064 362.332 896.417 360.762 897.122 359.465C897.827 358.146 898.806 357.145 900.057 356.462C901.308 355.757 902.776 355.404 904.459 355.404C905.574 355.404 906.655 355.597 907.702 355.984C908.748 356.348 909.601 356.883 910.261 357.588L909.203 359.772C908.543 359.135 907.815 358.669 907.019 358.373C906.223 358.055 905.438 357.895 904.664 357.895C902.981 357.895 901.661 358.441 900.705 359.534C899.75 360.603 899.272 362.161 899.272 364.209C899.272 366.279 899.75 367.872 900.705 368.987C901.661 370.102 902.981 370.659 904.664 370.659C905.415 370.659 906.189 370.511 906.985 370.215C907.781 369.92 908.521 369.453 909.203 368.816L910.261 370.966C909.579 371.694 908.703 372.252 907.633 372.639C906.587 373.003 905.529 373.185 904.459 373.185ZM913.638 380.624L912.921 378.099C913.991 377.849 914.878 377.553 915.583 377.212C916.289 376.893 916.88 376.472 917.358 375.949C917.836 375.426 918.257 374.766 918.621 373.97L919.474 371.922L919.406 373.219L911.932 355.711H915.276L921.249 370.42H920.361L926.334 355.711H929.542L921.658 374.208C921.18 375.323 920.657 376.256 920.088 377.007C919.542 377.758 918.939 378.372 918.28 378.85C917.642 379.328 916.937 379.703 916.164 379.976C915.39 380.249 914.548 380.465 913.638 380.624Z" fill="#535353"/>
</g>
<defs>
<clipPath id="clip0_11724_27481">
<rect width="802" height="586.569" fill="white"/>
</clipPath>
</defs>
</svg>
