<svg width="110" height="33" viewBox="0 0 110 33" fill="none" xmlns="http://www.w3.org/2000/svg">
<g clip-path="url(#clip0_10540_216998)">
<mask id="mask0_10540_216998" style="mask-type:luminance" maskUnits="userSpaceOnUse" x="0" y="0" width="110" height="33">
<path d="M109.913 0H0.046875V33H109.913V0Z" fill="white"/>
</mask>
<g mask="url(#mask0_10540_216998)">
<path d="M43.1093 16.0129C43.9359 15.5454 44.5979 14.9634 45.08 14.2772C45.6292 13.4958 45.9083 12.6033 45.9083 11.626C45.9083 9.7964 45.2215 8.36824 43.8681 7.38065C42.5307 6.40452 40.6907 5.91016 38.3975 5.91016H30.105V27.1037H38.7287C41.144 27.1037 43.0778 26.5447 44.476 25.4408C45.8853 24.3277 46.6007 22.769 46.6007 20.8071C46.6007 19.6126 46.2643 18.5849 45.6017 17.7532C45.0069 17.0097 44.17 16.4248 43.1099 16.0129H43.1093ZM34.5925 9.72992H38.0368C39.117 9.72992 39.9326 9.93837 40.4623 10.3486C40.9857 10.7536 41.24 11.2857 41.24 11.9749C41.24 12.664 40.9857 13.2231 40.4623 13.6299C39.9326 14.04 39.117 14.2485 38.0368 14.2485H34.5925V9.72992ZM41.0767 22.5657C40.4797 23.0422 39.568 23.2834 38.3675 23.2834H34.5925V18.097H38.3675C39.5674 18.097 40.4802 18.3301 41.0795 18.7877C41.6737 19.2443 41.9624 19.8469 41.9624 20.6323C41.9624 21.4583 41.6725 22.0908 41.0767 22.5662V22.5657Z" fill="#939CB7"/>
<path d="M52.662 11.2549H48.1445V27.1022H52.662V11.2549Z" fill="#939CB7"/>
<path d="M97.2816 13.6385C96.5669 12.7908 95.6706 12.1263 94.6181 11.6628C93.5666 11.2 92.384 10.9639 91.1048 10.9639C89.5368 10.9639 88.1225 11.3185 86.8996 12.0174C85.6739 12.7185 84.7012 13.6924 84.0075 14.9137C83.3139 16.1338 82.9624 17.55 82.9624 19.1213C82.9624 20.6925 83.3035 22.202 83.9759 23.4411C84.6501 24.6842 85.6193 25.6591 86.8558 26.3414C88.0902 27.0197 89.5402 27.3639 91.1652 27.3639C93.1599 27.3639 94.8533 26.8644 96.1992 25.8785C97.4954 24.93 98.3873 23.5917 98.8728 21.9167H94.3247C94.0854 22.4867 93.7484 22.9719 93.2658 23.3139C92.6952 23.7172 91.9583 23.9217 91.0749 23.9217C90.3087 23.9217 89.6525 23.7361 89.1238 23.3706C88.5929 23.0051 88.1874 22.4649 87.9212 21.7632C87.7612 21.3462 87.6479 20.8667 87.5811 20.3334H98.9518L98.9749 20.1925C99.1772 18.9145 99.1261 17.7034 98.8208 16.5932C98.5135 15.4803 97.9963 14.4863 97.2816 13.6385ZM87.6531 17.3993C87.7226 17.0767 87.8165 16.7411 87.9355 16.4352C88.2127 15.7243 88.613 15.1772 89.1262 14.8117C89.6369 14.4462 90.2725 14.2618 91.0156 14.2618C91.9469 14.2618 92.7113 14.5625 93.2877 15.1543C93.8341 15.7174 94.1441 16.4868 94.2102 17.3993H87.6537H87.6531Z" fill="#939CB7"/>
<path d="M52.7565 5.90918H48.0503V9.72892H52.7565V5.90918Z" fill="#939CB7"/>
<path d="M77.495 13.053C76.9607 12.4138 76.3343 11.9183 75.628 11.5757C74.7847 11.1695 73.7982 10.9639 72.6956 10.9639C71.3457 10.9639 70.1355 11.2956 69.1001 11.9486C68.0659 12.6011 67.2457 13.5234 66.6631 14.688C66.0827 15.8497 65.7876 17.2136 65.7876 18.7437C65.7876 20.2738 66.0977 21.5575 66.7097 22.7273C67.3228 23.9011 68.1729 24.836 69.2358 25.5074C70.3012 26.1804 71.5159 26.5218 72.847 26.5218C73.8518 26.5218 74.7697 26.3053 75.5738 25.8774C76.2106 25.5388 76.7438 25.0908 77.1643 24.5438V26.2692C77.1643 27.3388 76.8819 28.1596 76.3268 28.7067C75.7701 29.2537 74.9234 29.5299 73.8098 29.5299C72.8503 29.5299 72.0957 29.3133 71.5677 28.8855C71.1357 28.5354 70.7584 28.076 70.6704 27.1033H66.3151C66.3553 28.4644 66.7568 29.3815 67.3234 30.1852C67.959 31.0857 68.8528 31.7897 69.9824 32.2761C71.1012 32.7567 72.3994 33.0008 73.8402 33.0008C76.2589 33.0008 78.1847 32.3953 79.5623 31.2026C80.9484 30.003 81.6513 28.3235 81.6513 26.2114V11.2549H77.495V13.053ZM76.6996 20.849C76.4131 21.4378 76.0087 21.8995 75.4962 22.2192C74.9844 22.5388 74.3665 22.7015 73.6591 22.7015C72.6364 22.7015 71.8415 22.355 71.2272 21.6412C70.6152 20.9314 70.3051 19.9565 70.3051 18.7431C70.3051 17.5299 70.6152 16.5549 71.2272 15.844C71.8335 15.14 72.6519 14.7836 73.6591 14.7836C74.6662 14.7836 75.556 15.1451 76.1818 15.86C76.8134 16.5807 77.1338 17.5608 77.1338 18.7712C77.1338 19.5555 76.9877 20.2538 76.6996 20.8484V20.849Z" fill="#939CB7"/>
<path d="M109.913 15.0455V11.2556H106.652V5.90918H102.164V11.2556H99.3794V15.0455H102.164V21.2495C102.164 24.6985 102.847 27.2334 107.099 27.1549L109.769 27.1027V23.5494H108.443C106.553 23.5494 106.658 22.4519 106.658 20.4136L106.652 15.0455H109.912H109.913Z" fill="#939CB7"/>
<path d="M64.6901 15.0455V11.2556H61.4294V5.90918H56.9418V11.2556H54.1567V15.0455H56.9418V21.2495C56.9418 24.6985 57.624 27.2334 61.8763 27.1549L64.5458 27.1027V23.5494H63.2211C61.331 23.5494 61.4363 22.4519 61.4363 20.4136L61.4288 15.0455H64.6896H64.6901Z" fill="#939CB7"/>
<path d="M11.3094 9.72909H18.0856L25.0179 16.589C25.4688 17.0351 25.471 17.7609 25.0225 18.2095L16.1323 27.1081H9.15186L11.2623 25.0648L19.0106 17.3967L11.3606 9.72852" fill="#939CB7"/>
<path d="M14.0945 17.3796H7.3182L0.38604 10.5198C-0.0649071 10.0735 -0.0672078 9.34772 0.381438 8.89918L9.27154 0H16.252L14.1417 2.04334L6.3933 9.7115L14.0433 17.3796" fill="#939CB7"/>
</g>
</g>
<defs>
<clipPath id="clip0_10540_216998">
<rect width="110" height="33" fill="white"/>
</clipPath>
</defs>
</svg>
