<svg width="135" height="21" viewBox="0 0 135 21" fill="none" xmlns="http://www.w3.org/2000/svg">
<g clip-path="url(#clip0_8936_25218)">
<path d="M72.7642 3.85818V8.27258H72.8049C73.5465 7.31418 74.6062 6.83418 75.9839 6.83418C76.5987 6.83418 77.1793 6.93338 77.7275 7.13018C78.2715 7.32465 78.7686 7.62812 79.1873 8.02138C79.611 8.41818 79.9436 8.91418 80.1835 9.50938C80.4242 10.1046 80.5438 10.7918 80.5438 11.5718C80.5438 12.4502 80.3803 13.267 80.0509 14.0214C79.7327 14.7622 79.1976 15.3932 78.5139 15.8342C77.8177 16.2886 76.9549 16.5166 75.9237 16.5166C74.4354 16.5166 73.3749 16.0502 72.7439 15.119H72.7032V16.275H69.8763V3.85818H72.7642ZM61.9154 6.57498C67.4097 6.57498 66.9397 12.375 66.9397 12.375H59.4195C59.7237 13.5294 60.7345 14.2878 62.1277 14.2878C63.8054 14.2878 64.7097 13.2918 64.7097 13.2918L66.307 14.895C65.4848 15.6974 64.3812 16.4302 62.1033 16.4302C58.5819 16.4302 56.7033 14.139 56.7033 11.7102C56.7033 9.28218 58.1118 6.57498 61.9154 6.57498ZM130.324 6.57098C132.688 6.57098 134.19 7.45658 134.19 7.45658L133.22 9.50298C130.074 7.89978 128.649 9.03018 128.649 9.59498C128.649 10.1606 129.213 10.2062 131.404 10.603C133.596 11.0006 134.613 11.9014 134.613 13.3526C134.613 14.803 133.344 16.407 130.246 16.407C127.146 16.407 125.738 15.4294 125.738 15.4294L126.677 13.3974C129.103 14.9102 131.858 14.4214 131.858 13.5206C131.858 12.8446 130.942 12.7014 129.956 12.5886L129.532 12.5406C129.347 12.5196 129.162 12.4948 128.978 12.4662C127.725 12.2678 125.863 11.611 125.863 9.71738C125.863 7.82298 127.961 6.57098 130.324 6.57098ZM116.486 3.21098V10.7102L120.595 6.83018H123.952L119.88 10.6758L124.351 16.4078H121.017L117.96 12.4894L116.486 13.8814V16.4078H113.739V3.21098H116.486ZM106.64 6.51018C108.589 6.51018 110.295 7.46378 111.238 8.89258L108.916 10.235C108.699 9.82478 108.373 9.48069 107.972 9.23998C107.571 8.99926 107.11 8.8711 106.64 8.86938C105.214 8.86938 104.057 10.0294 104.057 11.459C104.057 12.8878 105.214 14.0478 106.64 14.0478C107.088 14.0461 107.527 13.9294 107.915 13.7092C108.303 13.489 108.625 13.1731 108.851 12.7926L111.183 14.1046C110.23 15.4886 108.552 16.4078 106.64 16.4078C103.67 16.4078 101.264 14.1918 101.264 11.459C101.264 8.72538 103.671 6.51018 106.639 6.51018H106.64ZM93.8738 6.51018C96.8422 6.51018 99.2502 8.72618 99.2502 11.4582C99.2502 14.1918 96.843 16.407 93.8738 16.407C90.903 16.407 88.4974 14.191 88.4974 11.4582C88.4974 8.72538 90.903 6.50938 93.873 6.50938L93.8738 6.51018ZM45.0558 6.78458V16.3158H42.0736V6.78458H45.0558ZM39.3956 3.89818V6.27978H32.7277V9.44138H38.6214V11.8014H32.7277V16.315H29.7455V3.89818H39.3956ZM51.4204 7.97578C51.4204 7.97578 52.4776 6.34938 54.6604 6.60138V9.25898C54.6604 9.25898 52.2889 8.66378 51.4204 11.0694V16.3158H48.5797V6.78378H51.2959L51.4204 7.90698V7.97578ZM85.6551 3.16458V16.2478H82.6501V3.16458H85.6551ZM75.1153 8.92858C73.4677 8.92858 72.6438 9.91418 72.6438 11.887C72.6438 12.6342 72.8561 13.2614 73.2806 13.7678C73.7051 14.2742 74.3452 14.5278 75.2007 14.5278C75.7716 14.5278 76.2352 14.3814 76.5914 14.0894C76.9468 13.7958 77.1989 13.4382 77.3477 13.015C77.4946 12.6078 77.5704 12.1791 77.5721 11.747C77.5721 10.9366 77.377 10.2654 76.9858 9.73098C76.5954 9.19498 75.9717 8.92858 75.1153 8.92858ZM93.8746 8.86938C92.4474 8.86938 91.2909 10.0286 91.2909 11.4582C91.2909 12.8886 92.4474 14.0478 93.8746 14.0478C95.3002 14.0478 96.4567 12.8878 96.4567 11.4582C96.4567 10.0286 95.3002 8.86938 93.8746 8.86938ZM61.9634 8.65178C60.5109 8.65178 59.7025 9.53178 59.4301 10.6798H64.2999C64.2755 10.3814 63.7956 8.65178 61.9634 8.65178ZM43.566 2.29418C44.5337 2.29418 45.3185 3.00218 45.3185 3.87498C45.3185 4.74778 44.5329 5.45578 43.566 5.45578C42.5982 5.45578 41.8126 4.74778 41.8126 3.87498C41.8126 3.00218 42.5974 2.29418 43.566 2.29418ZM19.7799 0.0717773C19.9956 0.0717773 20.2025 0.156063 20.355 0.306092C20.5075 0.456121 20.5932 0.659604 20.5932 0.871777V19.2718C20.5932 19.484 20.5075 19.6874 20.355 19.8375C20.2025 19.9875 19.9956 20.0718 19.7799 20.0718H0.813253C0.597565 20.0718 0.390711 19.9875 0.238196 19.8375C0.0856818 19.6874 0 19.484 0 19.2718V0.871777C0 0.659604 0.0856818 0.456121 0.238196 0.306092C0.390711 0.156063 0.597565 0.0717773 0.813253 0.0717773L19.7799 0.0717773ZM10.2966 5.62698L4.57617 14.5166H16.017L10.2958 5.62698H10.2966Z" fill="#939CB7"/>
</g>
<defs>
<clipPath id="clip0_8936_25218">
<rect width="135" height="20" fill="white" transform="translate(0 0.0717773)"/>
</clipPath>
</defs>
</svg>
