<svg width="139" height="44" viewBox="0 0 139 44" fill="none" xmlns="http://www.w3.org/2000/svg">
<path d="M19.9599 40.779C30.111 40.779 38.3402 32.5555 38.3402 22.4112C38.3402 12.267 30.111 4.04346 19.9599 4.04346C9.80873 4.04346 1.57959 12.267 1.57959 22.4112C1.57959 32.5555 9.80873 40.779 19.9599 40.779Z" fill="#939CB7"/>
<path d="M21.9192 24.1062V24.1032C21.7922 24.1121 21.1362 24.1505 19.6764 24.1505C18.5091 24.1505 17.6906 24.118 17.401 24.1032V24.1062C12.9123 23.9083 9.56425 23.1287 9.56425 22.1926C9.56425 21.2595 12.9153 20.4769 17.401 20.2791V23.3295C17.6935 23.3502 18.5357 23.4004 19.6971 23.4004C21.0918 23.4004 21.7892 23.3414 21.9192 23.3295V20.282C26.3991 20.4828 29.7383 21.2624 29.7383 22.1956C29.7383 23.1287 26.3961 23.9083 21.9192 24.1091M21.9192 19.9661V17.2375H28.1691V13.0767H11.1541V17.2375H17.4039V19.9661C12.3242 20.1993 8.50635 21.2034 8.50635 22.4082C8.50635 23.613 12.3272 24.6171 17.4039 24.8533V33.6001H21.9222V24.8533C26.993 24.62 30.805 23.616 30.805 22.4112C30.805 21.2093 26.993 20.2023 21.9222 19.969" fill="white"/>
<path d="M53.9531 14.2137V18.6255H58.2438V21.9358H53.9236V28.648C53.9236 30.1304 54.7421 30.8539 55.9419 30.8539C56.5417 30.8539 57.2362 30.6649 57.8035 30.3814L58.8762 33.6593C57.774 34.0993 56.8579 34.2883 55.6907 34.3208C52.316 34.4477 50.1086 32.5253 50.1086 28.648V21.9358H47.2068V18.6255H50.1086V14.6241L53.9531 14.2137ZM127.926 18.4188L128.21 20.2142C129.41 18.2918 131.017 18.0083 132.595 18.0083C134.203 18.0083 135.748 18.6373 136.599 19.4877L134.865 22.8276C134.076 22.1661 133.352 21.8177 132.09 21.8177C130.072 21.8177 128.21 22.8896 128.21 25.757V33.9516H124.363V18.4128L127.926 18.4188ZM118.497 24.375C118.246 22.3581 116.668 21.3481 114.46 21.3481C112.38 21.3481 110.675 22.3581 110.108 24.375H118.497ZM110.046 27.5584C110.297 29.4808 111.969 30.8687 114.682 30.8687C116.1 30.8687 117.962 30.3312 118.846 29.4188L121.304 31.8461C119.664 33.5471 116.984 34.368 114.617 34.368C109.257 34.368 106.068 31.0577 106.068 26.0789C106.068 21.3511 109.286 17.9463 114.333 17.9463C119.537 17.9463 122.788 21.1621 122.188 27.5584H110.046ZM93.0778 11.8926V20.5272C94.4666 18.7318 96.1687 18.1943 97.9358 18.1943C102.351 18.1943 104.307 21.1887 104.307 25.76V33.9546H100.459V25.7924C100.459 22.9546 98.976 21.7586 96.9252 21.7586C94.6528 21.7586 93.0778 23.681 93.0778 26.0139V33.9575H89.2303V11.8955L93.0778 11.8926ZM82.8592 14.0365V18.4483H87.15V21.7586H82.8297V28.4708C82.8297 29.9533 83.6512 30.6767 84.848 30.6767C85.4479 30.6767 86.1423 30.4877 86.7097 30.2043L87.7823 33.4821C86.6801 33.9221 85.764 34.1111 84.5968 34.1436C81.2222 34.2706 79.0148 32.3452 79.0148 28.4708V21.7586H76.1129V18.4483H79.0148V14.4469L82.8592 14.0365ZM72.23 24.375C71.9788 22.3581 70.4008 21.3481 68.1934 21.3481C66.1131 21.3481 64.408 22.3581 63.8407 24.375H72.23ZM63.7786 27.5584C64.0298 29.4808 65.7023 30.8687 68.4151 30.8687C69.8335 30.8687 71.6951 30.3312 72.5787 29.4188L75.0373 31.8461C73.3972 33.5471 70.717 34.368 68.35 34.368C62.9867 34.368 59.8011 31.0577 59.8011 26.0789C59.8011 21.3511 63.0192 17.9463 68.0634 17.9463C73.2672 17.9463 76.5148 21.1621 75.9179 27.5584H63.7786Z" fill="#939CB7"/>
</svg>
