<svg width="120" height="24" viewBox="0 0 120 24" fill="none" xmlns="http://www.w3.org/2000/svg">
<g clip-path="url(#clip0_11735_25288)">
<path d="M88.5778 2.34488V12.3349C88.5778 15.8249 90.0378 17.1849 92.5578 17.1849C95.0778 17.1849 96.5378 15.7249 96.5378 12.3349V2.34488H100.708V12.4349C100.708 17.7749 97.6978 20.6849 92.5578 20.6849C87.4178 20.6849 84.4078 17.7749 84.4078 12.4349V2.34488H88.5778ZM30.5678 2.34488L38.6178 20.3849H34.2478L32.5978 16.5049H24.2578L22.6078 20.3849H18.3378L26.3978 2.34488H30.5678ZM78.7778 2.34488V5.74488H69.3678V10.4949H77.6178V13.8949H69.3678V20.4949H65.1978V2.34488H78.7778ZM110.598 2.34488V16.9949H120.008V20.3949H106.428V2.34488H110.598ZM7.86781 2.34488C12.6178 2.34488 15.7278 4.77488 15.7278 8.94488C15.7278 13.1149 12.7178 15.4449 7.86781 15.4449H4.17781V20.4849H0.0078125V2.34488H7.86781ZM53.4578 11.9449L59.5678 20.3849H55.5878C55.0078 20.3849 54.4278 20.1949 54.0378 19.7049L53.9378 19.6049L51.7078 16.5049C51.2178 15.7249 51.2178 14.7549 51.7078 13.9849L51.8078 13.7949L53.4578 11.9549V11.9449ZM28.4278 6.51488L25.6178 13.4049H31.3378L28.4278 6.51488ZM7.66781 5.73488H4.17781V12.0449H7.57781C10.1978 12.0449 11.4578 10.8849 11.4578 8.94488C11.4578 7.00488 10.1978 5.74488 7.67781 5.74488L7.66781 5.73488ZM45.5078 2.34488C46.1878 2.34488 46.6678 2.53488 47.0578 3.02488L47.1578 3.12488L48.3178 4.77488C48.8078 5.45488 48.8078 6.42488 48.4178 7.10488L48.3178 7.20488L46.6678 9.53488L41.4278 2.25488L45.4978 2.35488L45.5078 2.34488Z" fill="#939CB7"/>
<path d="M61.2177 0.695312L40.2677 23.2053C40.0777 23.4953 39.5877 23.1053 39.8777 22.8153L55.0077 1.47531C55.3977 0.985312 55.9777 0.695312 56.6577 0.695312H61.2177Z" fill="#939CB7"/>
</g>
<defs>
<clipPath id="clip0_11735_25288">
<rect width="120" height="22.61" fill="white" transform="translate(0.0078125 0.695312)"/>
</clipPath>
</defs>
</svg>
