<svg width="158" height="30" viewBox="0 0 158 30" fill="none" xmlns="http://www.w3.org/2000/svg">
<g clip-path="url(#clip0_10540_216971)">
<path d="M13.5585 0.0175781L0.5 7.50893V22.4916L13.5585 29.983L26.617 22.4916V7.50893L13.5585 0.0175781ZM13.5585 0.0175781L0.5 7.50893V22.4916L13.5585 29.983L26.617 22.4916V7.50893L13.5585 0.0175781Z" fill="white"/>
<path d="M18.7097 24.1397H16.8532L14.63 22.1056V21.0625L16.922 18.8727V15.4152L19.9302 13.4617L23.3681 16.0375L18.7097 24.1397ZM11.0144 18.6711L11.3525 15.4152L10.2065 12.4993H16.8532L15.7531 15.4152L16.0682 18.6711H10.9915H11.0144ZM12.5328 22.1286L10.3096 24.1858H8.42448L3.74314 16.0606L7.1811 13.5078L10.218 15.4325V18.89L12.5099 21.0798L12.5328 22.1286ZM8.39584 6.50048H18.6811L19.913 11.6868H7.19829L8.39584 6.50048ZM13.5528 0.0175781L0.5 7.50893V22.4916L13.5585 29.983L26.617 22.4916V7.50893L13.5528 0.0175781Z" fill="#939CB7"/>
<path d="M41.2683 21.9557C40.4806 21.9704 39.698 21.8259 38.9668 21.5307C38.2357 21.2356 37.5709 20.7958 37.012 20.2374C36.453 19.679 36.0112 19.0134 35.7128 18.2801C35.4144 17.5468 35.2655 16.7607 35.2748 15.9684C35.2664 15.1707 35.4162 14.3792 35.7153 13.6403C36.0145 12.9014 36.4571 12.2299 37.0172 11.665C37.5773 11.1001 38.2438 10.6531 38.9776 10.3501C39.7115 10.0471 40.498 9.89423 41.2913 9.9004C42.1607 9.86123 43.0279 10.0184 43.8291 10.3605C44.6303 10.7025 45.3451 11.2207 45.921 11.877L44.2708 13.6461C43.9062 13.198 43.4472 12.8368 42.927 12.5887C42.4068 12.3405 41.8384 12.2116 41.2626 12.2112C39.3259 12.2112 37.9106 13.8766 37.9106 15.9108C37.9106 17.945 39.3488 19.6622 41.3886 19.6622C41.9614 19.6446 42.5243 19.5081 43.0419 19.2611C43.5596 19.0142 44.0209 18.6622 44.3969 18.2273L45.9955 19.8178C45.4143 20.5072 44.6871 21.057 43.8671 21.4269C43.0472 21.7969 42.1553 21.9775 41.2569 21.9557" fill="#939CB7"/>
<path d="M51.0549 21.9556H48.3848V9.92329H51.0549V12.7354C51.7883 11.0067 53.1234 9.81957 55.1633 9.92329V12.7354H55.0086C52.6822 12.7354 51.0549 14.2452 51.0549 17.3455V21.9556Z" fill="#939CB7"/>
<path d="M69.1101 9.87109L63.2197 25.1823H60.5266L61.8101 21.9552L56.7563 9.87109H59.6099L63.0363 18.8031L66.3368 9.87109H69.1101Z" fill="#939CB7"/>
<path d="M76.9601 12.1876C75.1551 12.1876 73.5851 13.6456 73.5851 15.9103C73.5851 18.175 75.1838 19.6329 76.9601 19.6329C78.7364 19.6329 80.2834 18.198 80.2834 15.9103C80.2834 13.6225 78.765 12.1876 76.9601 12.1876ZM77.5617 21.9264C76.7923 21.9337 76.0328 21.7523 75.3489 21.3979C74.665 21.0434 74.0773 20.5266 73.6367 19.8922V25.1765H70.978V9.87109H73.6482V12.0321C74.0695 11.3695 74.6498 10.8243 75.3358 10.4466C76.0217 10.0689 76.7912 9.87102 77.5732 9.87109C80.3235 9.87109 82.988 12.032 82.988 15.8872C82.988 19.7424 80.335 21.9149 77.5617 21.9149" fill="#939CB7"/>
<path d="M88.8152 12.3956V18.0717C88.787 18.2677 88.8048 18.4677 88.8673 18.6556C88.9298 18.8434 89.0352 19.0139 89.175 19.1534C89.3148 19.2929 89.4852 19.3975 89.6725 19.4588C89.8598 19.5202 90.0588 19.5365 90.2535 19.5066H91.302V21.875H89.4685C87.5318 21.875 86.1451 21.0164 86.1451 18.4866V12.3956H84.6782V10.1308H86.1451V6.93262H88.8152V10.1078H91.302V12.3725L88.8152 12.3956Z" fill="#939CB7"/>
<path d="M99.6965 12.1876C97.5535 12.1876 96.1898 13.853 96.1898 15.8872C96.1682 16.3691 96.2435 16.8505 96.411 17.3026C96.5786 17.7547 96.835 18.1681 97.165 18.5183C97.495 18.8685 97.8918 19.1482 98.3317 19.3406C98.7715 19.5331 99.2455 19.6345 99.7252 19.6386C101.868 19.6386 103.232 17.9732 103.232 15.9391C103.26 15.4555 103.189 14.9713 103.024 14.5163C102.859 14.0613 102.603 13.6452 102.272 13.2936C101.94 12.9421 101.541 12.6626 101.098 12.4723C100.655 12.2821 100.178 12.1852 99.6965 12.1876ZM99.6965 21.9552C98.8991 21.9791 98.105 21.842 97.3611 21.552C96.6172 21.262 95.9387 20.8251 95.3656 20.2669C94.7924 19.7088 94.3363 19.0408 94.0242 18.3024C93.7121 17.564 93.5503 16.7702 93.5483 15.9679C93.5496 15.1572 93.7121 14.355 94.0262 13.6084C94.3403 12.8618 94.7997 12.1859 95.3773 11.6205C95.955 11.0551 96.6393 10.6117 97.3899 10.3162C98.1405 10.0207 98.9423 9.87912 99.7481 9.89987C100.55 9.87282 101.349 10.0082 102.098 10.2981C102.846 10.5879 103.529 11.0263 104.106 11.587C104.683 12.1478 105.142 12.8195 105.455 13.5622C105.769 14.3049 105.93 15.1034 105.931 15.9103C105.926 16.7212 105.76 17.523 105.442 18.2685C105.125 19.014 104.662 19.6881 104.082 20.2513C103.502 20.8145 102.815 21.2553 102.063 21.5479C101.311 21.8405 100.508 21.979 99.7023 21.9552" fill="#939CB7"/>
<path d="M131.383 12.1874C129.24 12.1874 127.876 13.8528 127.876 15.887C127.855 16.3685 127.93 16.8494 128.097 17.3011C128.264 17.7528 128.52 18.166 128.849 18.5161C129.179 18.8661 129.575 19.1459 130.014 19.3388C130.453 19.5316 130.927 19.6335 131.406 19.6384C133.549 19.6384 134.913 17.9731 134.913 15.9389C134.939 15.4557 134.867 14.9722 134.702 14.518C134.536 14.0637 134.28 13.6483 133.949 13.2971C133.618 12.9459 133.219 12.6663 132.777 12.4755C132.335 12.2847 131.858 12.1867 131.377 12.1874M131.377 21.955C130.58 21.9789 129.786 21.8418 129.042 21.5518C128.298 21.2618 127.619 20.8249 127.046 20.2667C126.473 19.7086 126.017 19.0406 125.705 18.3022C125.393 17.5638 125.231 16.77 125.229 15.9677C125.23 15.157 125.393 14.3548 125.707 13.6082C126.021 12.8616 126.48 12.1857 127.058 11.6203C127.636 11.055 128.32 10.6115 129.071 10.316C129.821 10.0205 130.623 9.87893 131.429 9.89968C132.231 9.8734 133.029 10.0096 133.778 10.3001C134.526 10.5907 135.209 11.0297 135.785 11.591C136.362 12.1523 136.82 12.8244 137.132 13.5674C137.445 14.3103 137.606 15.109 137.606 15.9158C137.599 16.7264 137.432 17.5274 137.114 18.2722C136.796 19.017 136.333 19.6905 135.753 20.2533C135.173 20.8162 134.488 21.2571 133.736 21.5503C132.985 21.8435 132.183 21.983 131.377 21.9608" fill="#939CB7"/>
<path d="M153.42 9.87121C155.959 9.87121 157.5 11.4617 157.5 14.2969V21.915H154.83V15.1036C154.83 13.2538 153.965 12.2915 152.475 12.2915C150.985 12.2915 149.988 13.3057 149.988 15.1728V21.9726H147.318V15.1036C147.318 13.3057 146.43 12.2915 144.963 12.2915C143.496 12.2915 142.476 13.3864 142.476 15.1728V21.9438H139.806V9.89427H142.476V11.8708C143.233 10.8566 144.23 9.89427 146.012 9.89427C146.719 9.8635 147.42 10.0392 148.03 10.4001C148.64 10.7611 149.133 11.2919 149.45 11.9285C149.893 11.2886 150.485 10.767 151.174 10.4086C151.863 10.0502 152.628 9.86573 153.403 9.87121" fill="#939CB7"/>
<path d="M108.257 19.3796L109.403 18.7227H109.563L110.738 19.3796L110.818 19.5064V20.8606L110.738 20.9931L109.563 21.6443H109.403L108.257 20.9931L108.177 20.8606V19.5064L108.257 19.3796Z" fill="#939CB7"/>
<path d="M118.903 21.9151C117.914 21.8602 116.954 21.5598 116.108 21.0407C115.262 20.5215 114.558 19.7999 114.057 18.9401C113.556 18.0804 113.275 17.1092 113.238 16.1135C113.202 15.1179 113.411 14.1286 113.847 13.234C114.284 12.3394 114.933 11.5675 115.739 10.987C116.544 10.4065 117.48 10.0357 118.462 9.90753C119.445 9.77939 120.443 9.89794 121.369 10.2526C122.295 10.6073 123.119 11.187 123.768 11.9401L122.095 13.6688C121.737 13.213 121.284 12.8415 120.769 12.5806C120.253 12.3198 119.686 12.1759 119.109 12.1591C117.173 12.1591 115.734 13.7495 115.706 15.8068C115.677 17.864 117.075 19.6101 119.109 19.6101C119.684 19.6083 120.252 19.4841 120.775 19.2458C121.299 19.0074 121.766 18.6602 122.146 18.227L123.716 19.8406C123.121 20.5277 122.379 21.0698 121.545 21.4262C120.711 21.7825 119.808 21.9438 118.903 21.8978" fill="#939CB7"/>
</g>
<defs>
<clipPath id="clip0_10540_216971">
<rect width="157" height="30" fill="white" transform="translate(0.5)"/>
</clipPath>
</defs>
</svg>
