<svg xmlns="http://www.w3.org/2000/svg" width="628" height="461" viewBox="0 0 628 461" fill="none">
<rect width="628" height="460" transform="translate(0 0.785156)" fill="#F4F6FA"/>
<g filter="url(#filter0_d_10484_17946)">
<g clip-path="url(#clip0_10484_17946)">
<rect x="37.5" y="58" width="553" height="331" rx="6" fill="white"/>
<path d="M80.3 107.198C78.716 107.198 77.3667 106.875 76.252 106.23C75.1373 105.585 74.2793 104.668 73.678 103.48C73.0913 102.277 72.798 100.862 72.798 99.234C72.798 97.606 73.0913 96.198 73.678 95.01C74.2793 93.822 75.1373 92.9053 76.252 92.26C77.3667 91.6147 78.716 91.292 80.3 91.292C81.4 91.292 82.3827 91.4533 83.248 91.776C84.1133 92.0987 84.8687 92.568 85.514 93.184L84.722 95.01C84.018 94.4087 83.3287 93.976 82.654 93.712C81.994 93.448 81.224 93.316 80.344 93.316C78.672 93.316 77.396 93.8293 76.516 94.856C75.636 95.8827 75.196 97.342 75.196 99.234C75.196 101.126 75.636 102.593 76.516 103.634C77.396 104.661 78.672 105.174 80.344 105.174C81.224 105.174 81.994 105.042 82.654 104.778C83.3287 104.514 84.018 104.074 84.722 103.458L85.514 105.284C84.8687 105.9 84.1133 106.377 83.248 106.714C82.3827 107.037 81.4 107.198 80.3 107.198ZM92.0693 107.198C91.0866 107.198 90.2286 106.971 89.4953 106.516C88.762 106.061 88.19 105.401 87.7793 104.536C87.3833 103.671 87.1853 102.644 87.1853 101.456C87.1853 100.253 87.3833 99.2267 87.7793 98.376C88.19 97.5253 88.762 96.8727 89.4953 96.418C90.2286 95.9487 91.0866 95.714 92.0693 95.714C93.0373 95.714 93.8806 95.956 94.5993 96.44C95.318 96.924 95.7946 97.584 96.0293 98.42H95.7873L96.0073 95.912H98.1633C98.1193 96.3667 98.0753 96.8213 98.0313 97.276C98.002 97.716 97.9873 98.1487 97.9873 98.574V107H95.7653V104.536H96.0073C95.7726 105.357 95.2886 106.01 94.5553 106.494C93.8366 106.963 93.008 107.198 92.0693 107.198ZM92.6193 105.46C93.5726 105.46 94.3353 105.123 94.9073 104.448C95.494 103.773 95.7873 102.776 95.7873 101.456C95.7873 100.136 95.494 99.146 94.9073 98.486C94.3353 97.8113 93.5726 97.474 92.6193 97.474C91.6513 97.474 90.874 97.8113 90.2873 98.486C89.7153 99.146 89.4293 100.136 89.4293 101.456C89.4293 102.776 89.7153 103.773 90.2873 104.448C90.8593 105.123 91.6366 105.46 92.6193 105.46ZM105.036 107.198C104.112 107.198 103.261 107.081 102.484 106.846C101.706 106.611 101.061 106.281 100.548 105.856L101.23 104.338C101.772 104.749 102.374 105.057 103.034 105.262C103.694 105.467 104.368 105.57 105.058 105.57C105.864 105.57 106.473 105.431 106.884 105.152C107.294 104.859 107.5 104.463 107.5 103.964C107.5 103.583 107.368 103.275 107.104 103.04C106.854 102.805 106.436 102.629 105.85 102.512L103.738 102.094C102.799 101.889 102.088 101.537 101.604 101.038C101.12 100.539 100.878 99.9013 100.878 99.124C100.878 98.464 101.054 97.8773 101.406 97.364C101.772 96.8507 102.286 96.4473 102.946 96.154C103.62 95.8607 104.405 95.714 105.3 95.714C106.121 95.714 106.884 95.8313 107.588 96.066C108.292 96.3007 108.878 96.638 109.348 97.078L108.644 98.552C108.189 98.1707 107.676 97.8773 107.104 97.672C106.532 97.452 105.952 97.342 105.366 97.342C104.544 97.342 103.936 97.496 103.54 97.804C103.144 98.112 102.946 98.5153 102.946 99.014C102.946 99.3953 103.063 99.7107 103.298 99.96C103.547 100.195 103.936 100.378 104.464 100.51L106.576 100.928C107.573 101.133 108.321 101.471 108.82 101.94C109.318 102.409 109.568 103.04 109.568 103.832C109.568 104.521 109.377 105.123 108.996 105.636C108.614 106.149 108.086 106.538 107.412 106.802C106.737 107.066 105.945 107.198 105.036 107.198ZM117.313 107.198C115.523 107.198 114.115 106.692 113.089 105.68C112.062 104.668 111.549 103.267 111.549 101.478C111.549 100.319 111.769 99.3073 112.209 98.442C112.663 97.5767 113.287 96.9093 114.079 96.44C114.885 95.956 115.817 95.714 116.873 95.714C117.914 95.714 118.787 95.934 119.491 96.374C120.195 96.814 120.73 97.4373 121.097 98.244C121.463 99.036 121.647 99.9747 121.647 101.06V101.764H113.287V100.488H120.129L119.755 100.774C119.755 99.674 119.505 98.8233 119.007 98.222C118.523 97.606 117.819 97.298 116.895 97.298C115.868 97.298 115.076 97.6573 114.519 98.376C113.961 99.08 113.683 100.055 113.683 101.302V101.522C113.683 102.827 113.998 103.81 114.629 104.47C115.274 105.13 116.183 105.46 117.357 105.46C118.002 105.46 118.603 105.372 119.161 105.196C119.733 105.005 120.275 104.697 120.789 104.272L121.515 105.79C121.001 106.245 120.378 106.597 119.645 106.846C118.911 107.081 118.134 107.198 117.313 107.198ZM134.308 107.198C133.325 107.198 132.467 106.971 131.734 106.516C131 106.061 130.428 105.401 130.018 104.536C129.622 103.671 129.424 102.644 129.424 101.456C129.424 100.253 129.622 99.2267 130.018 98.376C130.428 97.5253 131 96.8727 131.734 96.418C132.467 95.9487 133.325 95.714 134.308 95.714C135.276 95.714 136.119 95.956 136.838 96.44C137.556 96.924 138.033 97.584 138.268 98.42H138.026L138.246 95.912H140.402C140.358 96.3667 140.314 96.8213 140.27 97.276C140.24 97.716 140.226 98.1487 140.226 98.574V107H138.004V104.536H138.246C138.011 105.357 137.527 106.01 136.794 106.494C136.075 106.963 135.246 107.198 134.308 107.198ZM134.858 105.46C135.811 105.46 136.574 105.123 137.146 104.448C137.732 103.773 138.026 102.776 138.026 101.456C138.026 100.136 137.732 99.146 137.146 98.486C136.574 97.8113 135.811 97.474 134.858 97.474C133.89 97.474 133.112 97.8113 132.526 98.486C131.954 99.146 131.668 100.136 131.668 101.456C131.668 102.776 131.954 103.773 132.526 104.448C133.098 105.123 133.875 105.46 134.858 105.46ZM147.274 107.198C146.35 107.198 145.499 107.081 144.722 106.846C143.945 106.611 143.299 106.281 142.786 105.856L143.468 104.338C144.011 104.749 144.612 105.057 145.272 105.262C145.932 105.467 146.607 105.57 147.296 105.57C148.103 105.57 148.711 105.431 149.122 105.152C149.533 104.859 149.738 104.463 149.738 103.964C149.738 103.583 149.606 103.275 149.342 103.04C149.093 102.805 148.675 102.629 148.088 102.512L145.976 102.094C145.037 101.889 144.326 101.537 143.842 101.038C143.358 100.539 143.116 99.9013 143.116 99.124C143.116 98.464 143.292 97.8773 143.644 97.364C144.011 96.8507 144.524 96.4473 145.184 96.154C145.859 95.8607 146.643 95.714 147.538 95.714C148.359 95.714 149.122 95.8313 149.826 96.066C150.53 96.3007 151.117 96.638 151.586 97.078L150.882 98.552C150.427 98.1707 149.914 97.8773 149.342 97.672C148.77 97.452 148.191 97.342 147.604 97.342C146.783 97.342 146.174 97.496 145.778 97.804C145.382 98.112 145.184 98.5153 145.184 99.014C145.184 99.3953 145.301 99.7107 145.536 99.96C145.785 100.195 146.174 100.378 146.702 100.51L148.814 100.928C149.811 101.133 150.559 101.471 151.058 101.94C151.557 102.409 151.806 103.04 151.806 103.832C151.806 104.521 151.615 105.123 151.234 105.636C150.853 106.149 150.325 106.538 149.65 106.802C148.975 107.066 148.183 107.198 147.274 107.198ZM158.231 107.198C157.307 107.198 156.456 107.081 155.679 106.846C154.902 106.611 154.256 106.281 153.743 105.856L154.425 104.338C154.968 104.749 155.569 105.057 156.229 105.262C156.889 105.467 157.564 105.57 158.253 105.57C159.06 105.57 159.668 105.431 160.079 105.152C160.49 104.859 160.695 104.463 160.695 103.964C160.695 103.583 160.563 103.275 160.299 103.04C160.05 102.805 159.632 102.629 159.045 102.512L156.933 102.094C155.994 101.889 155.283 101.537 154.799 101.038C154.315 100.539 154.073 99.9013 154.073 99.124C154.073 98.464 154.249 97.8773 154.601 97.364C154.968 96.8507 155.481 96.4473 156.141 96.154C156.816 95.8607 157.6 95.714 158.495 95.714C159.316 95.714 160.079 95.8313 160.783 96.066C161.487 96.3007 162.074 96.638 162.543 97.078L161.839 98.552C161.384 98.1707 160.871 97.8773 160.299 97.672C159.727 97.452 159.148 97.342 158.561 97.342C157.74 97.342 157.131 97.496 156.735 97.804C156.339 98.112 156.141 98.5153 156.141 99.014C156.141 99.3953 156.258 99.7107 156.493 99.96C156.742 100.195 157.131 100.378 157.659 100.51L159.771 100.928C160.768 101.133 161.516 101.471 162.015 101.94C162.514 102.409 162.763 103.04 162.763 103.832C162.763 104.521 162.572 105.123 162.191 105.636C161.81 106.149 161.282 106.538 160.607 106.802C159.932 107.066 159.14 107.198 158.231 107.198ZM170.508 107.198C168.719 107.198 167.311 106.692 166.284 105.68C165.257 104.668 164.744 103.267 164.744 101.478C164.744 100.319 164.964 99.3073 165.404 98.442C165.859 97.5767 166.482 96.9093 167.274 96.44C168.081 95.956 169.012 95.714 170.068 95.714C171.109 95.714 171.982 95.934 172.686 96.374C173.39 96.814 173.925 97.4373 174.292 98.244C174.659 99.036 174.842 99.9747 174.842 101.06V101.764H166.482V100.488H173.324L172.95 100.774C172.95 99.674 172.701 98.8233 172.202 98.222C171.718 97.606 171.014 97.298 170.09 97.298C169.063 97.298 168.271 97.6573 167.714 98.376C167.157 99.08 166.878 100.055 166.878 101.302V101.522C166.878 102.827 167.193 103.81 167.824 104.47C168.469 105.13 169.379 105.46 170.552 105.46C171.197 105.46 171.799 105.372 172.356 105.196C172.928 105.005 173.471 104.697 173.984 104.272L174.71 105.79C174.197 106.245 173.573 106.597 172.84 106.846C172.107 107.081 171.329 107.198 170.508 107.198ZM181.198 107.198C180.274 107.198 179.423 107.081 178.646 106.846C177.868 106.611 177.223 106.281 176.71 105.856L177.392 104.338C177.934 104.749 178.536 105.057 179.196 105.262C179.856 105.467 180.53 105.57 181.22 105.57C182.026 105.57 182.635 105.431 183.046 105.152C183.456 104.859 183.662 104.463 183.662 103.964C183.662 103.583 183.53 103.275 183.266 103.04C183.016 102.805 182.598 102.629 182.012 102.512L179.9 102.094C178.961 101.889 178.25 101.537 177.766 101.038C177.282 100.539 177.04 99.9013 177.04 99.124C177.04 98.464 177.216 97.8773 177.568 97.364C177.934 96.8507 178.448 96.4473 179.108 96.154C179.782 95.8607 180.567 95.714 181.462 95.714C182.283 95.714 183.046 95.8313 183.75 96.066C184.454 96.3007 185.04 96.638 185.51 97.078L184.806 98.552C184.351 98.1707 183.838 97.8773 183.266 97.672C182.694 97.452 182.114 97.342 181.528 97.342C180.706 97.342 180.098 97.496 179.702 97.804C179.306 98.112 179.108 98.5153 179.108 99.014C179.108 99.3953 179.225 99.7107 179.46 99.96C179.709 100.195 180.098 100.378 180.626 100.51L182.738 100.928C183.735 101.133 184.483 101.471 184.982 101.94C185.48 102.409 185.73 103.04 185.73 103.832C185.73 104.521 185.539 105.123 185.158 105.636C184.776 106.149 184.248 106.538 183.574 106.802C182.899 107.066 182.107 107.198 181.198 107.198ZM192.155 107.198C191.231 107.198 190.38 107.081 189.603 106.846C188.825 106.611 188.18 106.281 187.667 105.856L188.349 104.338C188.891 104.749 189.493 105.057 190.153 105.262C190.813 105.467 191.487 105.57 192.177 105.57C192.983 105.57 193.592 105.431 194.003 105.152C194.413 104.859 194.619 104.463 194.619 103.964C194.619 103.583 194.487 103.275 194.223 103.04C193.973 102.805 193.555 102.629 192.969 102.512L190.857 102.094C189.918 101.889 189.207 101.537 188.723 101.038C188.239 100.539 187.997 99.9013 187.997 99.124C187.997 98.464 188.173 97.8773 188.525 97.364C188.891 96.8507 189.405 96.4473 190.065 96.154C190.739 95.8607 191.524 95.714 192.419 95.714C193.24 95.714 194.003 95.8313 194.707 96.066C195.411 96.3007 195.997 96.638 196.467 97.078L195.763 98.552C195.308 98.1707 194.795 97.8773 194.223 97.672C193.651 97.452 193.071 97.342 192.485 97.342C191.663 97.342 191.055 97.496 190.659 97.804C190.263 98.112 190.065 98.5153 190.065 99.014C190.065 99.3953 190.182 99.7107 190.417 99.96C190.666 100.195 191.055 100.378 191.583 100.51L193.695 100.928C194.692 101.133 195.44 101.471 195.939 101.94C196.437 102.409 196.687 103.04 196.687 103.832C196.687 104.521 196.496 105.123 196.115 105.636C195.733 106.149 195.205 106.538 194.531 106.802C193.856 107.066 193.064 107.198 192.155 107.198ZM199.306 107V98.574C199.306 98.1487 199.284 97.716 199.24 97.276C199.21 96.8213 199.174 96.3667 199.13 95.912H201.286L201.484 98.244H201.22C201.528 97.4373 201.997 96.814 202.628 96.374C203.273 95.934 204.043 95.714 204.938 95.714C205.847 95.714 206.588 95.934 207.16 96.374C207.746 96.7993 208.15 97.4593 208.37 98.354H208.018C208.311 97.5473 208.81 96.9093 209.514 96.44C210.218 95.956 211.032 95.714 211.956 95.714C213.188 95.714 214.112 96.0733 214.728 96.792C215.344 97.5107 215.652 98.6253 215.652 100.136V107H213.43V100.246C213.43 99.278 213.261 98.5813 212.924 98.156C212.601 97.716 212.073 97.496 211.34 97.496C210.489 97.496 209.814 97.7893 209.316 98.376C208.817 98.9627 208.568 99.7547 208.568 100.752V107H206.346V100.246C206.346 99.278 206.177 98.5813 205.84 98.156C205.517 97.716 204.989 97.496 204.256 97.496C203.405 97.496 202.738 97.7893 202.254 98.376C201.77 98.9627 201.528 99.7547 201.528 100.752V107H199.306ZM223.961 107.198C222.172 107.198 220.764 106.692 219.737 105.68C218.71 104.668 218.197 103.267 218.197 101.478C218.197 100.319 218.417 99.3073 218.857 98.442C219.312 97.5767 219.935 96.9093 220.727 96.44C221.534 95.956 222.465 95.714 223.521 95.714C224.562 95.714 225.435 95.934 226.139 96.374C226.843 96.814 227.378 97.4373 227.745 98.244C228.112 99.036 228.295 99.9747 228.295 101.06V101.764H219.935V100.488H226.777L226.403 100.774C226.403 99.674 226.154 98.8233 225.655 98.222C225.171 97.606 224.467 97.298 223.543 97.298C222.516 97.298 221.724 97.6573 221.167 98.376C220.61 99.08 220.331 100.055 220.331 101.302V101.522C220.331 102.827 220.646 103.81 221.277 104.47C221.922 105.13 222.832 105.46 224.005 105.46C224.65 105.46 225.252 105.372 225.809 105.196C226.381 105.005 226.924 104.697 227.437 104.272L228.163 105.79C227.65 106.245 227.026 106.597 226.293 106.846C225.56 107.081 224.782 107.198 223.961 107.198ZM230.845 107V98.574C230.845 98.1487 230.823 97.716 230.779 97.276C230.749 96.8213 230.713 96.3667 230.669 95.912H232.825L233.023 98.244H232.759C233.096 97.4227 233.617 96.7993 234.321 96.374C235.025 95.934 235.839 95.714 236.763 95.714C238.068 95.714 239.051 96.0733 239.711 96.792C240.385 97.5107 240.723 98.6253 240.723 100.136V107H238.501V100.268C238.501 99.2853 238.303 98.5813 237.907 98.156C237.525 97.716 236.939 97.496 236.147 97.496C235.208 97.496 234.46 97.7893 233.903 98.376C233.345 98.948 233.067 99.7253 233.067 100.708V107H230.845ZM248.198 107.198C246.995 107.198 246.086 106.875 245.47 106.23C244.854 105.57 244.546 104.587 244.546 103.282V97.628H242.39V95.912H244.546V92.986L246.768 92.392V95.912H249.848V97.628H246.768V103.084C246.768 103.905 246.914 104.492 247.208 104.844C247.501 105.196 247.926 105.372 248.484 105.372C248.762 105.372 249.004 105.35 249.21 105.306C249.43 105.247 249.628 105.181 249.804 105.108V106.912C249.584 107 249.327 107.066 249.034 107.11C248.74 107.169 248.462 107.198 248.198 107.198Z" fill="black" fill-opacity="0.88"/>
<path d="M542.926 100.996L544.39 102.46L549.156 97.7046L553.921 102.46L555.385 100.996L549.156 94.7662L542.926 100.996Z" fill="black" fill-opacity="0.54"/>
<path d="M91.4911 144.47L90.176 141.576L87.2826 140.261L90.176 138.946L91.4911 136.053L92.8063 138.946L95.6996 140.261L92.8063 141.576L91.4911 144.47ZM91.4911 159.2L90.176 156.306L87.2826 154.991L90.176 153.676L91.4911 150.783L92.8063 153.676L95.6996 154.991L92.8063 156.306L91.4911 159.2ZM80.9698 156.043L78.3395 150.257L72.5527 147.626L78.3395 144.996L80.9698 139.209L83.6001 144.996L89.3869 147.626L83.6001 150.257L80.9698 156.043Z" fill="#6178BA"/>
<path d="M112.857 153.296C111.508 153.296 110.375 153.047 109.457 152.548C108.539 152.049 107.848 151.341 107.383 150.423C106.918 149.505 106.686 148.417 106.686 147.159C106.686 145.89 106.935 144.796 107.434 143.878C107.933 142.949 108.647 142.235 109.576 141.736C110.517 141.226 111.644 140.971 112.959 140.971C113.832 140.971 114.597 141.09 115.254 141.328C115.911 141.555 116.489 141.889 116.988 142.331L116.257 144.031C115.894 143.748 115.549 143.521 115.22 143.351C114.891 143.181 114.551 143.062 114.2 142.994C113.849 142.915 113.441 142.875 112.976 142.875C111.661 142.875 110.664 143.249 109.984 143.997C109.315 144.734 108.981 145.793 108.981 147.176C108.981 148.559 109.298 149.613 109.933 150.338C110.579 151.063 111.588 151.426 112.959 151.426C113.424 151.426 113.888 151.381 114.353 151.29C114.829 151.199 115.294 151.069 115.747 150.899L115.339 151.817V148.23H112.534V146.632H117.158V152.395C116.603 152.678 115.94 152.899 115.169 153.058C114.398 153.217 113.628 153.296 112.857 153.296ZM124.09 153.296C122.651 153.296 121.523 152.899 120.707 152.106C119.891 151.313 119.483 150.225 119.483 148.842C119.483 147.947 119.659 147.165 120.01 146.496C120.362 145.827 120.849 145.306 121.472 144.932C122.107 144.558 122.844 144.371 123.682 144.371C124.51 144.371 125.201 144.547 125.756 144.898C126.312 145.249 126.731 145.742 127.014 146.377C127.309 147.012 127.456 147.754 127.456 148.604V149.165H121.2V148.043H125.943L125.654 148.281C125.654 147.488 125.484 146.881 125.144 146.462C124.816 146.043 124.334 145.833 123.699 145.833C122.997 145.833 122.453 146.082 122.067 146.581C121.693 147.08 121.506 147.777 121.506 148.672V148.893C121.506 149.822 121.733 150.519 122.186 150.984C122.651 151.437 123.303 151.664 124.141 151.664C124.629 151.664 125.082 151.602 125.501 151.477C125.932 151.341 126.34 151.126 126.725 150.831L127.354 152.259C126.946 152.588 126.459 152.843 125.892 153.024C125.326 153.205 124.725 153.296 124.09 153.296ZM129.707 153.126V146.683C129.707 146.332 129.696 145.975 129.673 145.612C129.65 145.249 129.616 144.892 129.571 144.541H131.628L131.798 146.241H131.594C131.866 145.64 132.268 145.181 132.801 144.864C133.334 144.535 133.951 144.371 134.654 144.371C135.663 144.371 136.422 144.654 136.932 145.221C137.442 145.788 137.697 146.672 137.697 147.873V153.126H135.572V147.975C135.572 147.284 135.436 146.791 135.164 146.496C134.903 146.19 134.507 146.037 133.974 146.037C133.317 146.037 132.795 146.241 132.41 146.649C132.025 147.057 131.832 147.601 131.832 148.281V153.126H129.707ZM144.549 153.296C143.11 153.296 141.982 152.899 141.166 152.106C140.35 151.313 139.942 150.225 139.942 148.842C139.942 147.947 140.118 147.165 140.469 146.496C140.821 145.827 141.308 145.306 141.931 144.932C142.566 144.558 143.303 144.371 144.141 144.371C144.969 144.371 145.66 144.547 146.215 144.898C146.771 145.249 147.19 145.742 147.473 146.377C147.768 147.012 147.915 147.754 147.915 148.604V149.165H141.659V148.043H146.402L146.113 148.281C146.113 147.488 145.943 146.881 145.603 146.462C145.275 146.043 144.793 145.833 144.158 145.833C143.456 145.833 142.912 146.082 142.526 146.581C142.152 147.08 141.965 147.777 141.965 148.672V148.893C141.965 149.822 142.192 150.519 142.645 150.984C143.11 151.437 143.762 151.664 144.6 151.664C145.088 151.664 145.541 151.602 145.96 151.477C146.391 151.341 146.799 151.126 147.184 150.831L147.813 152.259C147.405 152.588 146.918 152.843 146.351 153.024C145.785 153.205 145.184 153.296 144.549 153.296ZM150.149 153.126V146.734C150.149 146.371 150.138 146.003 150.115 145.629C150.104 145.255 150.075 144.892 150.03 144.541H152.087L152.325 146.887H151.985C152.098 146.32 152.285 145.85 152.546 145.476C152.818 145.102 153.147 144.824 153.532 144.643C153.917 144.462 154.337 144.371 154.79 144.371C154.994 144.371 155.158 144.382 155.283 144.405C155.408 144.416 155.532 144.445 155.657 144.49L155.64 146.36C155.425 146.269 155.238 146.213 155.079 146.19C154.932 146.167 154.745 146.156 154.518 146.156C154.031 146.156 153.617 146.258 153.277 146.462C152.948 146.666 152.699 146.949 152.529 147.312C152.37 147.675 152.291 148.088 152.291 148.553V153.126H150.149ZM160.523 153.296C159.775 153.296 159.118 153.12 158.551 152.769C157.984 152.406 157.542 151.891 157.225 151.222C156.908 150.553 156.749 149.754 156.749 148.825C156.749 147.896 156.908 147.102 157.225 146.445C157.542 145.776 157.984 145.266 158.551 144.915C159.118 144.552 159.775 144.371 160.523 144.371C161.248 144.371 161.883 144.552 162.427 144.915C162.982 145.266 163.351 145.742 163.532 146.343H163.345L163.532 144.541H165.572C165.538 144.892 165.504 145.249 165.47 145.612C165.447 145.975 165.436 146.332 165.436 146.683V153.126H163.328L163.311 151.358H163.515C163.334 151.947 162.965 152.418 162.41 152.769C161.855 153.12 161.226 153.296 160.523 153.296ZM161.118 151.664C161.787 151.664 162.325 151.432 162.733 150.967C163.141 150.491 163.345 149.777 163.345 148.825C163.345 147.873 163.141 147.165 162.733 146.7C162.325 146.235 161.787 146.003 161.118 146.003C160.449 146.003 159.911 146.235 159.503 146.7C159.095 147.165 158.891 147.873 158.891 148.825C158.891 149.777 159.089 150.491 159.486 150.967C159.894 151.432 160.438 151.664 161.118 151.664ZM171.873 153.296C170.853 153.296 170.082 153.03 169.561 152.497C169.04 151.964 168.779 151.165 168.779 150.1V146.139H167.13V144.541H168.779V142.348L170.904 141.804V144.541H173.199V146.139H170.904V149.964C170.904 150.553 171.017 150.967 171.244 151.205C171.471 151.443 171.782 151.562 172.179 151.562C172.394 151.562 172.576 151.545 172.723 151.511C172.882 151.477 173.035 151.432 173.182 151.375V153.058C172.989 153.137 172.774 153.194 172.536 153.228C172.309 153.273 172.088 153.296 171.873 153.296ZM179.159 153.296C177.719 153.296 176.592 152.899 175.776 152.106C174.96 151.313 174.552 150.225 174.552 148.842C174.552 147.947 174.727 147.165 175.079 146.496C175.43 145.827 175.917 145.306 176.541 144.932C177.175 144.558 177.912 144.371 178.751 144.371C179.578 144.371 180.269 144.547 180.825 144.898C181.38 145.249 181.799 145.742 182.083 146.377C182.377 147.012 182.525 147.754 182.525 148.604V149.165H176.269V148.043H181.012L180.723 148.281C180.723 147.488 180.553 146.881 180.213 146.462C179.884 146.043 179.402 145.833 178.768 145.833C178.065 145.833 177.521 146.082 177.136 146.581C176.762 147.08 176.575 147.777 176.575 148.672V148.893C176.575 149.822 176.801 150.519 177.255 150.984C177.719 151.437 178.371 151.664 179.21 151.664C179.697 151.664 180.15 151.602 180.57 151.477C181 151.341 181.408 151.126 181.794 150.831L182.423 152.259C182.015 152.588 181.527 152.843 180.961 153.024C180.394 153.205 179.793 153.296 179.159 153.296ZM188.107 153.296C187.359 153.296 186.696 153.12 186.118 152.769C185.552 152.406 185.11 151.891 184.792 151.222C184.475 150.553 184.316 149.754 184.316 148.825C184.316 147.896 184.475 147.102 184.792 146.445C185.11 145.776 185.552 145.266 186.118 144.915C186.696 144.552 187.359 144.371 188.107 144.371C188.821 144.371 189.45 144.547 189.994 144.898C190.55 145.238 190.918 145.703 191.099 146.292H190.878V140.614H193.003V153.126H190.912V151.307H191.116C190.935 151.919 190.567 152.406 190.011 152.769C189.467 153.12 188.833 153.296 188.107 153.296ZM188.702 151.664C189.371 151.664 189.909 151.432 190.317 150.967C190.725 150.491 190.929 149.777 190.929 148.825C190.929 147.873 190.725 147.165 190.317 146.7C189.909 146.235 189.371 146.003 188.702 146.003C188.034 146.003 187.49 146.235 187.07 146.7C186.662 147.165 186.458 147.873 186.458 148.825C186.458 149.777 186.662 150.491 187.07 150.967C187.49 151.432 188.034 151.664 188.702 151.664ZM203.265 153.126L199.916 144.541H202.109L204.523 151.222H204.081L206.529 144.541H208.042L210.473 151.222H210.082L212.479 144.541H214.553L211.204 153.126H209.334L206.767 146.292H207.668L205.152 153.126H203.265ZM216.344 153.126V144.541H218.469V153.126H216.344ZM216.225 142.926V140.852H218.588V142.926H216.225ZM224.9 153.296C223.88 153.296 223.109 153.03 222.588 152.497C222.066 151.964 221.806 151.165 221.806 150.1V146.139H220.157V144.541H221.806V142.348L223.931 141.804V144.541H226.226V146.139H223.931V149.964C223.931 150.553 224.044 150.967 224.271 151.205C224.497 151.443 224.809 151.562 225.206 151.562C225.421 151.562 225.602 151.545 225.75 151.511C225.908 151.477 226.061 151.432 226.209 151.375V153.058C226.016 153.137 225.801 153.194 225.563 153.228C225.336 153.273 225.115 153.296 224.9 153.296ZM228.12 153.126V140.614H230.245V146.258H230.007C230.268 145.646 230.67 145.181 231.214 144.864C231.758 144.535 232.382 144.371 233.084 144.371C234.104 144.371 234.864 144.66 235.362 145.238C235.861 145.805 236.11 146.672 236.11 147.839V153.126H233.985V147.941C233.985 147.272 233.855 146.791 233.594 146.496C233.345 146.19 232.943 146.037 232.387 146.037C231.741 146.037 231.22 146.241 230.823 146.649C230.438 147.046 230.245 147.578 230.245 148.247V153.126H228.12ZM242.775 153.126L248.198 141.141H250.034L255.525 153.126H253.298L251.836 149.76L252.72 150.355H245.529L246.447 149.76L244.985 153.126H242.775ZM249.099 143.487L246.702 149.165L246.26 148.638H251.972L251.615 149.165L249.167 143.487H249.099ZM257.302 153.126V141.141H259.495V153.126H257.302Z" fill="#6178BA"/>
<rect x="81.7596" y="168.817" width="0.519149" height="73.7787" stroke="black" stroke-opacity="0.12" stroke-width="0.519149"/>
<path d="M92.5381 172.711C92.5381 170.417 94.3975 168.558 96.6913 168.558H517.347C519.64 168.558 521.5 170.417 521.5 172.711V185.17C521.5 187.464 519.64 189.324 517.347 189.324H96.6913C94.3975 189.324 92.5381 187.464 92.5381 185.17V172.711Z" fill="url(#paint0_linear_10484_17946)"/>
<path d="M92.5381 199.476C92.5381 197.183 94.3975 195.323 96.6913 195.323H517.347C519.64 195.323 521.5 197.183 521.5 199.476V211.936C521.5 214.23 519.64 216.089 517.347 216.089H96.6913C94.3975 216.089 92.5381 214.23 92.5381 211.936V199.476Z" fill="url(#paint1_linear_10484_17946)"/>
<path d="M92.5381 226.243C92.5381 223.949 94.3975 222.09 96.6913 222.09H438.385C440.679 222.09 442.538 223.949 442.538 226.243V238.703C442.538 240.996 440.679 242.856 438.385 242.856H96.6913C94.3975 242.856 92.5381 240.996 92.5381 238.703V226.243Z" fill="url(#paint2_linear_10484_17946)"/>
<path d="M72.904 283.616V270.926H81.274V272.744H75.226V276.344H80.86V278.162H75.226V283.616H72.904ZM86.228 283.796C85.112 283.796 84.278 283.49 83.726 282.878C83.174 282.266 82.898 281.33 82.898 280.07V274.526H85.148V280.052C85.148 280.724 85.286 281.222 85.562 281.546C85.838 281.858 86.258 282.014 86.822 282.014C87.458 282.014 87.974 281.798 88.37 281.366C88.778 280.934 88.982 280.364 88.982 279.656V274.526H91.232V283.616H89.036V281.762H89.288C89.024 282.41 88.622 282.914 88.082 283.274C87.554 283.622 86.936 283.796 86.228 283.796ZM93.8124 283.616V276.848C93.8124 276.464 93.8004 276.074 93.7764 275.678C93.7644 275.282 93.7344 274.898 93.6864 274.526H95.8644L96.1164 277.01H95.7564C95.8764 276.41 96.0744 275.912 96.3504 275.516C96.6384 275.12 96.9864 274.826 97.3944 274.634C97.8024 274.442 98.2464 274.346 98.7264 274.346C98.9424 274.346 99.1164 274.358 99.2484 274.382C99.3804 274.394 99.5124 274.424 99.6444 274.472L99.6264 276.452C99.3984 276.356 99.2004 276.296 99.0324 276.272C98.8764 276.248 98.6784 276.236 98.4384 276.236C97.9224 276.236 97.4844 276.344 97.1244 276.56C96.7764 276.776 96.5124 277.076 96.3324 277.46C96.1644 277.844 96.0804 278.282 96.0804 278.774V283.616H93.8124ZM105.45 283.796C104.37 283.796 103.554 283.514 103.002 282.95C102.45 282.386 102.174 281.54 102.174 280.412V276.218H100.428V274.526H102.174V272.204L104.424 271.628V274.526H106.854V276.218H104.424V280.268C104.424 280.892 104.544 281.33 104.784 281.582C105.024 281.834 105.354 281.96 105.774 281.96C106.002 281.96 106.194 281.942 106.35 281.906C106.518 281.87 106.68 281.822 106.836 281.762V283.544C106.632 283.628 106.404 283.688 106.152 283.724C105.912 283.772 105.678 283.796 105.45 283.796ZM108.538 283.616V270.368H110.788V276.344H110.536C110.812 275.696 111.238 275.204 111.814 274.868C112.39 274.52 113.05 274.346 113.794 274.346C114.874 274.346 115.678 274.652 116.206 275.264C116.734 275.864 116.998 276.782 116.998 278.018V283.616H114.748V278.126C114.748 277.418 114.61 276.908 114.334 276.596C114.07 276.272 113.644 276.11 113.056 276.11C112.372 276.11 111.82 276.326 111.4 276.758C110.992 277.178 110.788 277.742 110.788 278.45V283.616H108.538ZM123.932 283.796C122.408 283.796 121.214 283.376 120.35 282.536C119.486 281.696 119.054 280.544 119.054 279.08C119.054 278.132 119.24 277.304 119.612 276.596C119.984 275.888 120.5 275.336 121.16 274.94C121.832 274.544 122.612 274.346 123.5 274.346C124.376 274.346 125.108 274.532 125.696 274.904C126.284 275.276 126.728 275.798 127.028 276.47C127.34 277.142 127.496 277.928 127.496 278.828V279.422H120.872V278.234H125.894L125.588 278.486C125.588 277.646 125.408 277.004 125.048 276.56C124.7 276.116 124.19 275.894 123.518 275.894C122.774 275.894 122.198 276.158 121.79 276.686C121.394 277.214 121.196 277.952 121.196 278.9V279.134C121.196 280.118 121.436 280.856 121.916 281.348C122.408 281.828 123.098 282.068 123.986 282.068C124.502 282.068 124.982 282.002 125.426 281.87C125.882 281.726 126.314 281.498 126.722 281.186L127.388 282.698C126.956 283.046 126.44 283.316 125.84 283.508C125.24 283.7 124.604 283.796 123.932 283.796ZM129.539 283.616V276.848C129.539 276.464 129.527 276.074 129.503 275.678C129.491 275.282 129.461 274.898 129.413 274.526H131.591L131.843 277.01H131.483C131.603 276.41 131.801 275.912 132.077 275.516C132.365 275.12 132.713 274.826 133.121 274.634C133.529 274.442 133.973 274.346 134.453 274.346C134.669 274.346 134.843 274.358 134.975 274.382C135.107 274.394 135.239 274.424 135.371 274.472L135.353 276.452C135.125 276.356 134.927 276.296 134.759 276.272C134.603 276.248 134.405 276.236 134.165 276.236C133.649 276.236 133.211 276.344 132.851 276.56C132.503 276.776 132.239 277.076 132.059 277.46C131.891 277.844 131.807 278.282 131.807 278.774V283.616H129.539ZM141.874 283.616V274.526H144.124V283.616H141.874ZM141.748 272.816V270.62H144.25V272.816H141.748ZM146.723 283.616V276.794C146.723 276.422 146.711 276.044 146.687 275.66C146.663 275.276 146.627 274.898 146.579 274.526H148.757L148.937 276.326H148.721C149.009 275.69 149.435 275.204 149.999 274.868C150.563 274.52 151.217 274.346 151.961 274.346C153.029 274.346 153.833 274.646 154.373 275.246C154.913 275.846 155.183 276.782 155.183 278.054V283.616H152.933V278.162C152.933 277.43 152.789 276.908 152.501 276.596C152.225 276.272 151.805 276.11 151.241 276.11C150.545 276.11 149.993 276.326 149.585 276.758C149.177 277.19 148.973 277.766 148.973 278.486V283.616H146.723ZM160.301 283.616L156.377 274.526H158.771L161.615 281.636H161.057L163.973 274.526H166.223L162.281 283.616H160.301ZM171.8 283.796C170.276 283.796 169.082 283.376 168.218 282.536C167.354 281.696 166.922 280.544 166.922 279.08C166.922 278.132 167.108 277.304 167.48 276.596C167.852 275.888 168.368 275.336 169.028 274.94C169.7 274.544 170.48 274.346 171.368 274.346C172.244 274.346 172.976 274.532 173.564 274.904C174.152 275.276 174.596 275.798 174.896 276.47C175.208 277.142 175.364 277.928 175.364 278.828V279.422H168.74V278.234H173.762L173.456 278.486C173.456 277.646 173.276 277.004 172.916 276.56C172.568 276.116 172.058 275.894 171.386 275.894C170.642 275.894 170.066 276.158 169.658 276.686C169.262 277.214 169.064 277.952 169.064 278.9V279.134C169.064 280.118 169.304 280.856 169.784 281.348C170.276 281.828 170.966 282.068 171.854 282.068C172.37 282.068 172.85 282.002 173.294 281.87C173.75 281.726 174.182 281.498 174.59 281.186L175.256 282.698C174.824 283.046 174.308 283.316 173.708 283.508C173.108 283.7 172.472 283.796 171.8 283.796ZM180.665 283.796C179.885 283.796 179.165 283.706 178.505 283.526C177.857 283.334 177.311 283.07 176.867 282.734L177.497 281.222C177.953 281.534 178.457 281.774 179.009 281.942C179.561 282.11 180.119 282.194 180.683 282.194C181.283 282.194 181.727 282.092 182.015 281.888C182.315 281.684 182.465 281.408 182.465 281.06C182.465 280.784 182.369 280.568 182.177 280.412C181.997 280.244 181.703 280.118 181.295 280.034L179.495 279.692C178.727 279.524 178.139 279.236 177.731 278.828C177.335 278.42 177.137 277.886 177.137 277.226C177.137 276.662 177.287 276.164 177.587 275.732C177.899 275.3 178.337 274.964 178.901 274.724C179.477 274.472 180.149 274.346 180.917 274.346C181.589 274.346 182.219 274.436 182.807 274.616C183.407 274.796 183.911 275.066 184.319 275.426L183.671 276.884C183.299 276.584 182.873 276.35 182.393 276.182C181.913 276.014 181.445 275.93 180.989 275.93C180.365 275.93 179.909 276.044 179.621 276.272C179.333 276.488 179.189 276.77 179.189 277.118C179.189 277.382 179.273 277.604 179.441 277.784C179.621 277.952 179.897 278.078 180.269 278.162L182.069 278.504C182.873 278.66 183.479 278.936 183.887 279.332C184.307 279.716 184.517 280.244 184.517 280.916C184.517 281.516 184.355 282.032 184.031 282.464C183.707 282.896 183.257 283.226 182.681 283.454C182.105 283.682 181.433 283.796 180.665 283.796ZM190.398 283.796C189.318 283.796 188.502 283.514 187.95 282.95C187.398 282.386 187.122 281.54 187.122 280.412V276.218H185.376V274.526H187.122V272.204L189.372 271.628V274.526H191.802V276.218H189.372V280.268C189.372 280.892 189.492 281.33 189.732 281.582C189.972 281.834 190.302 281.96 190.722 281.96C190.95 281.96 191.142 281.942 191.298 281.906C191.466 281.87 191.628 281.822 191.784 281.762V283.544C191.58 283.628 191.352 283.688 191.1 283.724C190.86 283.772 190.626 283.796 190.398 283.796ZM193.486 283.616V274.526H195.736V283.616H193.486ZM193.36 272.816V270.62H195.862V272.816H193.36ZM202.548 287.648C201.708 287.648 200.946 287.558 200.262 287.378C199.59 287.198 198.99 286.922 198.462 286.55L198.948 284.93C199.296 285.158 199.656 285.344 200.028 285.488C200.4 285.632 200.784 285.74 201.18 285.812C201.576 285.884 201.978 285.92 202.386 285.92C203.226 285.92 203.85 285.71 204.258 285.29C204.678 284.882 204.888 284.294 204.888 283.526V281.348H205.068C204.876 281.972 204.486 282.47 203.898 282.842C203.322 283.214 202.656 283.4 201.9 283.4C201.084 283.4 200.37 283.22 199.758 282.86C199.158 282.488 198.69 281.96 198.354 281.276C198.018 280.592 197.85 279.788 197.85 278.864C197.85 277.94 198.018 277.142 198.354 276.47C198.69 275.786 199.158 275.264 199.758 274.904C200.37 274.532 201.084 274.346 201.9 274.346C202.668 274.346 203.334 274.532 203.898 274.904C204.474 275.264 204.858 275.756 205.05 276.38L204.888 276.272L205.068 274.526H207.246C207.198 274.898 207.162 275.276 207.138 275.66C207.114 276.044 207.102 276.422 207.102 276.794V283.256C207.102 284.684 206.712 285.77 205.932 286.514C205.164 287.27 204.036 287.648 202.548 287.648ZM202.512 281.672C203.232 281.672 203.802 281.432 204.222 280.952C204.654 280.46 204.87 279.764 204.87 278.864C204.87 277.964 204.654 277.274 204.222 276.794C203.802 276.314 203.232 276.074 202.512 276.074C201.78 276.074 201.198 276.314 200.766 276.794C200.334 277.274 200.118 277.964 200.118 278.864C200.118 279.764 200.334 280.46 200.766 280.952C201.198 281.432 201.78 281.672 202.512 281.672ZM213.199 283.796C212.407 283.796 211.711 283.61 211.111 283.238C210.511 282.854 210.043 282.308 209.707 281.6C209.371 280.892 209.203 280.046 209.203 279.062C209.203 278.078 209.371 277.238 209.707 276.542C210.043 275.834 210.511 275.294 211.111 274.922C211.711 274.538 212.407 274.346 213.199 274.346C213.967 274.346 214.639 274.538 215.215 274.922C215.803 275.294 216.193 275.798 216.385 276.434H216.187L216.385 274.526H218.545C218.509 274.898 218.473 275.276 218.437 275.66C218.413 276.044 218.401 276.422 218.401 276.794V283.616H216.169L216.151 281.744H216.367C216.175 282.368 215.785 282.866 215.197 283.238C214.609 283.61 213.943 283.796 213.199 283.796ZM213.829 282.068C214.537 282.068 215.107 281.822 215.539 281.33C215.971 280.826 216.187 280.07 216.187 279.062C216.187 278.054 215.971 277.304 215.539 276.812C215.107 276.32 214.537 276.074 213.829 276.074C213.121 276.074 212.551 276.32 212.119 276.812C211.687 277.304 211.471 278.054 211.471 279.062C211.471 280.07 211.681 280.826 212.101 281.33C212.533 281.822 213.109 282.068 213.829 282.068ZM224.894 283.796C223.814 283.796 222.998 283.514 222.446 282.95C221.894 282.386 221.618 281.54 221.618 280.412V276.218H219.872V274.526H221.618V272.204L223.868 271.628V274.526H226.298V276.218H223.868V280.268C223.868 280.892 223.988 281.33 224.228 281.582C224.468 281.834 224.798 281.96 225.218 281.96C225.446 281.96 225.638 281.942 225.794 281.906C225.962 281.87 226.124 281.822 226.28 281.762V283.544C226.076 283.628 225.848 283.688 225.596 283.724C225.356 283.772 225.122 283.796 224.894 283.796ZM227.982 283.616V274.526H230.232V283.616H227.982ZM227.856 272.816V270.62H230.358V272.816H227.856ZM236.936 283.796C236 283.796 235.19 283.604 234.506 283.22C233.822 282.836 233.288 282.29 232.904 281.582C232.532 280.874 232.346 280.034 232.346 279.062C232.346 278.09 232.532 277.256 232.904 276.56C233.288 275.852 233.822 275.306 234.506 274.922C235.19 274.538 236 274.346 236.936 274.346C237.872 274.346 238.682 274.538 239.366 274.922C240.062 275.306 240.596 275.852 240.968 276.56C241.352 277.256 241.544 278.09 241.544 279.062C241.544 280.034 241.352 280.874 240.968 281.582C240.596 282.29 240.062 282.836 239.366 283.22C238.682 283.604 237.872 283.796 236.936 283.796ZM236.936 282.068C237.644 282.068 238.208 281.822 238.628 281.33C239.048 280.826 239.258 280.07 239.258 279.062C239.258 278.054 239.048 277.304 238.628 276.812C238.208 276.32 237.644 276.074 236.936 276.074C236.228 276.074 235.664 276.32 235.244 276.812C234.824 277.304 234.614 278.054 234.614 279.062C234.614 280.07 234.824 280.826 235.244 281.33C235.664 281.822 236.228 282.068 236.936 282.068ZM243.64 283.616V276.794C243.64 276.422 243.628 276.044 243.604 275.66C243.58 275.276 243.544 274.898 243.496 274.526H245.674L245.854 276.326H245.638C245.926 275.69 246.352 275.204 246.916 274.868C247.48 274.52 248.134 274.346 248.878 274.346C249.946 274.346 250.75 274.646 251.29 275.246C251.83 275.846 252.1 276.782 252.1 278.054V283.616H249.85V278.162C249.85 277.43 249.706 276.908 249.418 276.596C249.142 276.272 248.722 276.11 248.158 276.11C247.462 276.11 246.91 276.326 246.502 276.758C246.094 277.19 245.89 277.766 245.89 278.486V283.616H243.64Z" fill="black" fill-opacity="0.88"/>
<path d="M71.5 304.229C71.5 301.936 73.3594 300.076 75.6532 300.076H517.347C519.641 300.076 521.5 301.936 521.5 304.229V316.689C521.5 318.983 519.641 320.842 517.347 320.842H75.6532C73.3594 320.842 71.5 318.983 71.5 316.689V304.229Z" fill="#E6E6E6"/>
<path d="M71.5 330.995C71.5 328.701 73.3594 326.842 75.6532 326.842H417.347C419.641 326.842 421.5 328.701 421.5 330.995V343.455C421.5 345.748 419.641 347.608 417.347 347.608H75.6532C73.3595 347.608 71.5 345.748 71.5 343.455V330.995Z" fill="#E6E6E6"/>
</g>
</g>
<g filter="url(#filter1_d_10484_17946)">
<rect x="351.347" y="365" width="211" height="48" rx="6" fill="#4664B3"/>
<path d="M384.531 395.16C383.624 395.16 382.787 395.048 382.019 394.824C381.261 394.589 380.611 394.269 380.067 393.864L380.707 392.248C381.069 392.504 381.448 392.723 381.843 392.904C382.237 393.075 382.659 393.208 383.107 393.304C383.555 393.389 384.029 393.432 384.531 393.432C385.373 393.432 385.981 393.293 386.355 393.016C386.728 392.739 386.915 392.376 386.915 391.928C386.915 391.533 386.787 391.235 386.531 391.032C386.275 390.819 385.816 390.643 385.155 390.504L383.347 390.136C382.312 389.923 381.539 389.565 381.027 389.064C380.515 388.563 380.259 387.891 380.259 387.048C380.259 386.344 380.445 385.731 380.819 385.208C381.192 384.685 381.715 384.28 382.387 383.992C383.059 383.704 383.843 383.56 384.739 383.56C385.539 383.56 386.28 383.677 386.963 383.912C387.645 384.136 388.216 384.461 388.675 384.888L388.035 386.424C387.576 386.04 387.075 385.757 386.531 385.576C385.987 385.384 385.379 385.288 384.707 385.288C383.949 385.288 383.357 385.437 382.931 385.736C382.515 386.024 382.307 386.424 382.307 386.936C382.307 387.331 382.435 387.645 382.691 387.88C382.957 388.115 383.405 388.296 384.035 388.424L385.827 388.776C386.893 388.989 387.683 389.341 388.195 389.832C388.707 390.312 388.963 390.963 388.963 391.784C388.963 392.456 388.781 393.048 388.419 393.56C388.056 394.061 387.544 394.456 386.883 394.744C386.221 395.021 385.437 395.16 384.531 395.16ZM390.747 395V383.224H392.747V388.536H392.523C392.769 387.96 393.147 387.523 393.659 387.224C394.171 386.915 394.758 386.76 395.419 386.76C396.379 386.76 397.094 387.032 397.563 387.576C398.033 388.109 398.267 388.925 398.267 390.024V395H396.267V390.12C396.267 389.491 396.145 389.037 395.899 388.76C395.665 388.472 395.286 388.328 394.763 388.328C394.155 388.328 393.665 388.52 393.291 388.904C392.929 389.277 392.747 389.779 392.747 390.408V395H390.747ZM403.508 395.16C402.804 395.16 402.185 394.995 401.652 394.664C401.118 394.323 400.702 393.837 400.404 393.208C400.105 392.579 399.956 391.827 399.956 390.952C399.956 390.077 400.105 389.331 400.404 388.712C400.702 388.083 401.118 387.603 401.652 387.272C402.185 386.931 402.804 386.76 403.508 386.76C404.19 386.76 404.788 386.931 405.3 387.272C405.822 387.603 406.169 388.051 406.34 388.616H406.164L406.34 386.92H408.26C408.228 387.251 408.196 387.587 408.164 387.928C408.142 388.269 408.132 388.605 408.132 388.936V395H406.148L406.132 393.336H406.324C406.153 393.891 405.806 394.333 405.284 394.664C404.761 394.995 404.169 395.16 403.508 395.16ZM404.068 393.624C404.697 393.624 405.204 393.405 405.588 392.968C405.972 392.52 406.164 391.848 406.164 390.952C406.164 390.056 405.972 389.389 405.588 388.952C405.204 388.515 404.697 388.296 404.068 388.296C403.438 388.296 402.932 388.515 402.548 388.952C402.164 389.389 401.972 390.056 401.972 390.952C401.972 391.848 402.158 392.52 402.532 392.968C402.916 393.405 403.428 393.624 404.068 393.624ZM410.294 395V388.984C410.294 388.643 410.283 388.296 410.262 387.944C410.251 387.592 410.224 387.251 410.182 386.92H412.118L412.342 389.128H412.022C412.128 388.595 412.304 388.152 412.55 387.8C412.806 387.448 413.115 387.187 413.478 387.016C413.84 386.845 414.235 386.76 414.662 386.76C414.854 386.76 415.008 386.771 415.126 386.792C415.243 386.803 415.36 386.829 415.478 386.872L415.462 388.632C415.259 388.547 415.083 388.493 414.934 388.472C414.795 388.451 414.619 388.44 414.406 388.44C413.947 388.44 413.558 388.536 413.238 388.728C412.928 388.92 412.694 389.187 412.534 389.528C412.384 389.869 412.31 390.259 412.31 390.696V395H410.294ZM420.37 395.16C419.015 395.16 417.954 394.787 417.186 394.04C416.418 393.293 416.034 392.269 416.034 390.968C416.034 390.125 416.199 389.389 416.53 388.76C416.861 388.131 417.319 387.64 417.906 387.288C418.503 386.936 419.197 386.76 419.986 386.76C420.765 386.76 421.415 386.925 421.938 387.256C422.461 387.587 422.855 388.051 423.122 388.648C423.399 389.245 423.538 389.944 423.538 390.744V391.272H417.65V390.216H422.114L421.842 390.44C421.842 389.693 421.682 389.123 421.362 388.728C421.053 388.333 420.599 388.136 420.002 388.136C419.341 388.136 418.829 388.371 418.466 388.84C418.114 389.309 417.938 389.965 417.938 390.808V391.016C417.938 391.891 418.151 392.547 418.578 392.984C419.015 393.411 419.629 393.624 420.418 393.624C420.877 393.624 421.303 393.565 421.698 393.448C422.103 393.32 422.487 393.117 422.85 392.84L423.442 394.184C423.058 394.493 422.599 394.733 422.066 394.904C421.533 395.075 420.967 395.16 420.37 395.16ZM432.502 395.16C431.809 395.16 431.169 395.08 430.582 394.92C430.006 394.749 429.521 394.515 429.126 394.216L429.686 392.872C430.092 393.149 430.54 393.363 431.03 393.512C431.521 393.661 432.017 393.736 432.518 393.736C433.052 393.736 433.446 393.645 433.702 393.464C433.969 393.283 434.102 393.037 434.102 392.728C434.102 392.483 434.017 392.291 433.846 392.152C433.686 392.003 433.425 391.891 433.062 391.816L431.462 391.512C430.78 391.363 430.257 391.107 429.894 390.744C429.542 390.381 429.366 389.907 429.366 389.32C429.366 388.819 429.5 388.376 429.766 387.992C430.044 387.608 430.433 387.309 430.934 387.096C431.446 386.872 432.044 386.76 432.726 386.76C433.324 386.76 433.884 386.84 434.406 387C434.94 387.16 435.388 387.4 435.75 387.72L435.174 389.016C434.844 388.749 434.465 388.541 434.038 388.392C433.612 388.243 433.196 388.168 432.79 388.168C432.236 388.168 431.83 388.269 431.574 388.472C431.318 388.664 431.19 388.915 431.19 389.224C431.19 389.459 431.265 389.656 431.414 389.816C431.574 389.965 431.82 390.077 432.15 390.152L433.75 390.456C434.465 390.595 435.004 390.84 435.366 391.192C435.74 391.533 435.926 392.003 435.926 392.6C435.926 393.133 435.782 393.592 435.494 393.976C435.206 394.36 434.806 394.653 434.294 394.856C433.782 395.059 433.185 395.16 432.502 395.16ZM440.55 395.16C439.558 395.16 438.816 394.888 438.326 394.344C437.835 393.8 437.59 392.968 437.59 391.848V386.92H439.59V391.832C439.59 392.429 439.712 392.872 439.958 393.16C440.203 393.437 440.576 393.576 441.078 393.576C441.643 393.576 442.102 393.384 442.454 393C442.816 392.616 442.998 392.109 442.998 391.48V386.92H444.998V395H443.046V393.352H443.27C443.035 393.928 442.678 394.376 442.198 394.696C441.728 395.005 441.179 395.16 440.55 395.16ZM447.169 395V388.936C447.169 388.605 447.158 388.269 447.137 387.928C447.116 387.587 447.084 387.251 447.041 386.92H448.977L449.137 388.52H448.945C449.169 387.965 449.51 387.533 449.969 387.224C450.438 386.915 450.993 386.76 451.633 386.76C452.273 386.76 452.801 386.915 453.217 387.224C453.644 387.523 453.942 387.992 454.113 388.632H453.857C454.081 388.056 454.449 387.603 454.961 387.272C455.473 386.931 456.06 386.76 456.721 386.76C457.628 386.76 458.305 387.027 458.753 387.56C459.201 388.093 459.425 388.925 459.425 390.056V395H457.425V390.136C457.425 389.496 457.318 389.037 457.105 388.76C456.892 388.472 456.55 388.328 456.081 388.328C455.526 388.328 455.089 388.525 454.769 388.92C454.449 389.304 454.289 389.827 454.289 390.488V395H452.289V390.136C452.289 389.496 452.182 389.037 451.969 388.76C451.756 388.472 451.414 388.328 450.945 388.328C450.39 388.328 449.953 388.525 449.633 388.92C449.324 389.304 449.169 389.827 449.169 390.488V395H447.169ZM461.56 395V388.936C461.56 388.605 461.549 388.269 461.528 387.928C461.506 387.587 461.474 387.251 461.432 386.92H463.368L463.528 388.52H463.336C463.56 387.965 463.901 387.533 464.36 387.224C464.829 386.915 465.384 386.76 466.024 386.76C466.664 386.76 467.192 386.915 467.608 387.224C468.034 387.523 468.333 387.992 468.504 388.632H468.248C468.472 388.056 468.84 387.603 469.352 387.272C469.864 386.931 470.45 386.76 471.112 386.76C472.018 386.76 472.696 387.027 473.144 387.56C473.592 388.093 473.816 388.925 473.816 390.056V395H471.816V390.136C471.816 389.496 471.709 389.037 471.496 388.76C471.282 388.472 470.941 388.328 470.472 388.328C469.917 388.328 469.48 388.525 469.16 388.92C468.84 389.304 468.68 389.827 468.68 390.488V395H466.68V390.136C466.68 389.496 466.573 389.037 466.36 388.76C466.146 388.472 465.805 388.328 465.336 388.328C464.781 388.328 464.344 388.525 464.024 388.92C463.714 389.304 463.56 389.827 463.56 390.488V395H461.56ZM479.07 395.16C478.366 395.16 477.748 394.995 477.214 394.664C476.681 394.323 476.265 393.837 475.966 393.208C475.668 392.579 475.518 391.827 475.518 390.952C475.518 390.077 475.668 389.331 475.966 388.712C476.265 388.083 476.681 387.603 477.214 387.272C477.748 386.931 478.366 386.76 479.07 386.76C479.753 386.76 480.35 386.931 480.862 387.272C481.385 387.603 481.732 388.051 481.902 388.616H481.726L481.902 386.92H483.822C483.79 387.251 483.758 387.587 483.726 387.928C483.705 388.269 483.694 388.605 483.694 388.936V395H481.71L481.694 393.336H481.886C481.716 393.891 481.369 394.333 480.846 394.664C480.324 394.995 479.732 395.16 479.07 395.16ZM479.63 393.624C480.26 393.624 480.766 393.405 481.15 392.968C481.534 392.52 481.726 391.848 481.726 390.952C481.726 390.056 481.534 389.389 481.15 388.952C480.766 388.515 480.26 388.296 479.63 388.296C479.001 388.296 478.494 388.515 478.11 388.952C477.726 389.389 477.534 390.056 477.534 390.952C477.534 391.848 477.721 392.52 478.094 392.968C478.478 393.405 478.99 393.624 479.63 393.624ZM485.856 395V388.984C485.856 388.643 485.846 388.296 485.824 387.944C485.814 387.592 485.787 387.251 485.744 386.92H487.68L487.904 389.128H487.584C487.691 388.595 487.867 388.152 488.112 387.8C488.368 387.448 488.678 387.187 489.04 387.016C489.403 386.845 489.798 386.76 490.224 386.76C490.416 386.76 490.571 386.771 490.688 386.792C490.806 386.803 490.923 386.829 491.04 386.872L491.024 388.632C490.822 388.547 490.646 388.493 490.496 388.472C490.358 388.451 490.182 388.44 489.968 388.44C489.51 388.44 489.12 388.536 488.8 388.728C488.491 388.92 488.256 389.187 488.096 389.528C487.947 389.869 487.872 390.259 487.872 390.696V395H485.856ZM492.478 398.632L492.014 397.048C492.515 396.941 492.936 396.819 493.278 396.68C493.619 396.541 493.902 396.36 494.126 396.136C494.35 395.912 494.536 395.624 494.686 395.272L495.086 394.328L495.038 395.112L491.518 386.92H493.646L496.174 393.224H495.71L498.254 386.92H500.27L496.59 395.448C496.344 396.024 496.078 396.499 495.79 396.872C495.502 397.256 495.192 397.56 494.862 397.784C494.531 398.019 494.168 398.2 493.774 398.328C493.379 398.456 492.947 398.557 492.478 398.632Z" fill="white"/>
<path d="M518.347 389.799L536.347 389.799" stroke="white" stroke-width="2"/>
<path d="M528.548 397.597L536.347 389.799L528.548 382" stroke="white" stroke-width="2"/>
</g>
<defs>
<filter id="filter0_d_10484_17946" x="23.419" y="49.0394" width="581.162" height="359.162" filterUnits="userSpaceOnUse" color-interpolation-filters="sRGB">
<feFlood flood-opacity="0" result="BackgroundImageFix"/>
<feColorMatrix in="SourceAlpha" type="matrix" values="0 0 0 0 0 0 0 0 0 0 0 0 0 0 0 0 0 0 127 0" result="hardAlpha"/>
<feMorphology radius="1.28009" operator="dilate" in="SourceAlpha" result="effect1_dropShadow_10484_17946"/>
<feOffset dy="5.12037"/>
<feGaussianBlur stdDeviation="6.40046"/>
<feColorMatrix type="matrix" values="0 0 0 0 0.160784 0 0 0 0 0.223529 0 0 0 0 0.447059 0 0 0 0.1 0"/>
<feBlend mode="normal" in2="BackgroundImageFix" result="effect1_dropShadow_10484_17946"/>
<feBlend mode="normal" in="SourceGraphic" in2="effect1_dropShadow_10484_17946" result="shape"/>
</filter>
<filter id="filter1_d_10484_17946" x="311.347" y="331" width="291" height="128" filterUnits="userSpaceOnUse" color-interpolation-filters="sRGB">
<feFlood flood-opacity="0" result="BackgroundImageFix"/>
<feColorMatrix in="SourceAlpha" type="matrix" values="0 0 0 0 0 0 0 0 0 0 0 0 0 0 0 0 0 0 127 0" result="hardAlpha"/>
<feMorphology radius="10" operator="dilate" in="SourceAlpha" result="effect1_dropShadow_10484_17946"/>
<feOffset dy="6"/>
<feGaussianBlur stdDeviation="15"/>
<feColorMatrix type="matrix" values="0 0 0 0 0.160784 0 0 0 0 0.223529 0 0 0 0 0.447059 0 0 0 0.2 0"/>
<feBlend mode="normal" in2="BackgroundImageFix" result="effect1_dropShadow_10484_17946"/>
<feBlend mode="normal" in="SourceGraphic" in2="effect1_dropShadow_10484_17946" result="shape"/>
</filter>
<linearGradient id="paint0_linear_10484_17946" x1="100.752" y1="178.941" x2="509.525" y2="178.941" gradientUnits="userSpaceOnUse">
<stop stop-color="#E8EDFF"/>
<stop offset="0.17" stop-color="#BED9FF"/>
<stop offset="0.47" stop-color="#BCCBED"/>
<stop offset="0.83" stop-color="#F4F6FA"/>
<stop offset="0.85" stop-color="#F4F6FA"/>
<stop offset="1" stop-color="white"/>
</linearGradient>
<linearGradient id="paint1_linear_10484_17946" x1="100.752" y1="205.706" x2="509.525" y2="205.706" gradientUnits="userSpaceOnUse">
<stop offset="0.01" stop-color="#E8EDFF"/>
<stop offset="0.225" stop-color="#BED9FF"/>
<stop offset="0.585" stop-color="#F4F6FA"/>
<stop offset="0.99" stop-color="white"/>
</linearGradient>
<linearGradient id="paint2_linear_10484_17946" x1="99.2403" y1="232.473" x2="432.768" y2="232.473" gradientUnits="userSpaceOnUse">
<stop offset="0.04" stop-color="#BED9FF"/>
<stop offset="0.185" stop-color="#E8EDFF"/>
<stop offset="0.68386" stop-color="white"/>
</linearGradient>
<clipPath id="clip0_10484_17946">
<rect x="37.5" y="58" width="553" height="331" rx="6" fill="white"/>
</clipPath>
</defs>
</svg>