<svg xmlns="http://www.w3.org/2000/svg" width="628" height="461" viewBox="0 0 628 461" fill="none">
<g clip-path="url(#clip0_10484_17323)">
<rect width="628" height="460" transform="translate(0 0.785156)" fill="#F4F6FA"/>
<g filter="url(#filter0_d_10484_17323)">
<g clip-path="url(#clip1_10484_17323)">
<path d="M84.8135 58.3349C84.8135 48.2088 93.0223 40 103.148 40H524.852C534.978 40 543.187 48.2088 543.187 58.335V2158.41C543.187 2168.54 534.978 2176.75 524.852 2176.75H103.148C93.0223 2176.75 84.8135 2168.54 84.8135 2158.41V58.3349Z" fill="white"/>
<mask id="path-2-inside-1_10484_17323" fill="white">
<path d="M84.8135 40H543.187V104.172H84.8135V40Z"/>
</mask>
<path d="M84.8135 40H543.187V104.172H84.8135V40Z" fill="white"/>
<path d="M543.187 103.026H84.8135V105.318H543.187V103.026Z" fill="black" fill-opacity="0.12" mask="url(#path-2-inside-1_10484_17323)"/>
<path d="M126.064 58.334C126.374 58.334 126.724 58.3725 126.724 58.3725C125.687 59.612 125.062 61.142 124.935 62.7509C122.981 63.0766 121.181 64.0146 119.798 65.4285C118.415 66.8425 117.521 68.6588 117.245 70.6138C115.458 70.8063 113.438 71.6204 112.276 72.7838C112 64.8026 118.139 58.334 126.064 58.334ZM128.052 82.3106C127.686 82.3644 127.317 82.3911 126.948 82.3904C126.31 82.3828 125.673 82.3304 125.043 82.2336C124.55 83.4151 123.9 84.5252 123.111 85.5339C120.633 84.9895 118.354 83.7754 116.524 82.0249C114.694 80.2743 113.383 78.0551 112.737 75.611C113.982 74.1396 116.858 73.2871 118.644 73.2871C122.454 73.2871 124.474 75.3002 125.175 78.4383C122.882 77.8194 121.521 76.5406 120.626 74.6429C120.103 74.4538 119.551 74.3607 118.995 74.3679C118.493 74.3659 117.994 74.4448 117.518 74.6017C118.528 78.4383 122.26 81.304 126.807 81.304C131.006 81.304 132.792 79.1753 132.792 79.1753V75.919C132.792 75.919 130.732 78.0505 128.168 78.4768C127.879 76.4875 126.95 74.6453 125.521 73.2274C124.091 71.8094 122.238 70.8922 120.24 70.6138C120.899 67.3603 123.387 65.5396 126.768 65.5396C130.15 65.5396 132.872 67.9791 132.872 67.9791V64.7641C132.872 64.7641 131.122 63.1359 128.013 62.7894C128.091 61.3593 129.024 59.5743 130.034 58.9143C134.269 60.2317 138.351 63.796 139.516 68.9857C139.516 68.9857 137.65 70.8448 134.153 70.8448C131.276 70.8448 129.46 69.412 128.438 66.8955C127.903 66.7053 127.337 66.6122 126.768 66.6205C126.238 66.6147 125.71 66.708 125.214 66.8955C126.34 70.9246 129.907 73.6336 133.882 73.6336C137.769 73.6336 139.867 71.8542 139.867 71.8542C139.867 79.9096 133.686 85.6824 126.34 85.8364C127.196 85.0113 127.856 83.2017 128.052 82.3106Z" fill="#FF5300"/>
<path d="M454.855 73.9961H454.101L453.833 73.7383C454.881 72.5182 455.414 70.9399 455.323 69.3347C455.231 67.7295 454.521 66.2223 453.342 65.1294C452.162 64.0366 450.605 63.4432 448.998 63.4738C447.39 63.5044 445.857 64.1566 444.72 65.2935C443.583 66.4304 442.931 67.9635 442.901 69.5711C442.87 71.1786 443.463 72.7355 444.556 73.9148C445.649 75.0941 447.156 75.8042 448.761 75.8959C450.367 75.9876 451.945 75.4539 453.165 74.4067L453.423 74.6741V75.4285L458.198 80.2032L459.62 78.7708L454.855 73.9961ZM449.126 73.9961C448.276 73.9961 447.445 73.7441 446.738 73.2719C446.031 72.7997 445.481 72.1286 445.155 71.3433C444.83 70.5581 444.745 69.6941 444.911 68.8605C445.077 68.0269 445.486 67.2612 446.087 66.6602C446.688 66.0592 447.454 65.65 448.287 65.4842C449.121 65.3184 449.985 65.4035 450.77 65.7287C451.555 66.0539 452.226 66.6047 452.699 67.3114C453.171 68.0181 453.423 68.8489 453.423 69.6988C453.424 70.2635 453.314 70.8229 453.098 71.3448C452.883 71.8668 452.566 72.341 452.167 72.7403C451.768 73.1396 451.294 73.456 450.772 73.6716C450.25 73.8871 449.69 73.9974 449.126 73.9961Z" fill="black" fill-opacity="0.54"/>
<g clip-path="url(#clip2_10484_17323)">
<rect x="479.015" y="53.751" width="36.6699" height="36.6699" rx="18.3349" fill="#E6F1FF"/>
<path d="M486.062 77.751L491.067 66.4406H492.367L497.452 77.751H495.912L494.517 74.5424L495.158 74.9274H488.276L488.982 74.5424L487.586 77.751H486.062ZM491.693 68.1091L489.19 74.045L488.805 73.7081H494.629L494.324 74.045L491.757 68.1091H491.693ZM499.29 77.751V66.4406H503.895C505.114 66.4406 506.05 66.6973 506.702 67.2107C507.355 67.7241 507.681 68.446 507.681 69.3765C507.681 70.0824 507.467 70.6706 507.039 71.1412C506.622 71.6118 506.05 71.9273 505.323 72.0878V71.8471C506.157 71.9434 506.804 72.2322 507.264 72.7134C507.734 73.1947 507.97 73.8311 507.97 74.6226C507.97 75.6279 507.633 76.4034 506.959 76.9488C506.285 77.4836 505.333 77.751 504.103 77.751H499.29ZM500.734 76.5638H503.959C504.75 76.5638 505.371 76.4141 505.82 76.1146C506.28 75.8044 506.51 75.2964 506.51 74.5905C506.51 73.8739 506.28 73.3659 505.82 73.0664C505.371 72.7669 504.75 72.6172 503.959 72.6172H500.734V76.5638ZM500.734 71.43H503.686C504.531 71.43 505.162 71.2696 505.579 70.9487C505.996 70.6172 506.205 70.1412 506.205 69.5209C506.205 68.9005 505.996 68.4299 505.579 68.1091C505.162 67.7775 504.531 67.6117 503.686 67.6117H500.734V71.43Z" fill="#30478C"/>
</g>
<rect x="112.148" y="131.755" width="45.8374" height="45.8374" rx="22.9187" fill="#4F3731"/>
<path d="M133.922 164.987C132.012 164.987 130.388 164.318 129.051 162.981C127.714 161.644 127.046 160.021 127.046 158.111V151.235L132.776 156.965L131.171 158.598L129.338 156.765V158.111C129.338 159.372 129.787 160.451 130.684 161.348C131.582 162.246 132.661 162.695 133.922 162.695C135.182 162.695 136.261 162.246 137.159 161.348C138.056 160.451 138.505 159.372 138.505 158.111V154.473C137.818 154.205 137.264 153.78 136.844 153.198C136.423 152.615 136.213 151.961 136.213 151.235C136.213 150.51 136.423 149.856 136.844 149.273C137.264 148.69 137.818 148.266 138.505 147.998V143.214H140.797V147.998C141.485 148.266 142.039 148.69 142.459 149.273C142.879 149.856 143.089 150.51 143.089 151.235C143.089 151.961 142.879 152.62 142.459 153.212C142.039 153.804 141.485 154.224 140.797 154.473V158.111C140.797 160.021 140.129 161.644 138.792 162.981C137.455 164.318 135.831 164.987 133.922 164.987ZM139.651 152.381C139.976 152.381 140.248 152.272 140.468 152.052C140.687 151.832 140.797 151.56 140.797 151.235C140.797 150.911 140.687 150.639 140.468 150.419C140.248 150.199 139.976 150.089 139.651 150.089C139.326 150.089 139.054 150.199 138.835 150.419C138.615 150.639 138.505 150.911 138.505 151.235C138.505 151.56 138.615 151.832 138.835 152.052C139.054 152.272 139.326 152.381 139.651 152.381Z" fill="white"/>
<path d="M175.487 163.949C173.286 163.949 171.6 163.115 170.426 161.446C169.253 159.778 168.666 157.357 168.666 154.185C168.666 151.014 169.253 148.593 170.426 146.925C171.6 145.256 173.286 144.422 175.487 144.422C177.687 144.422 179.374 145.256 180.547 146.925C181.72 148.593 182.307 151.014 182.307 154.185C182.307 157.357 181.72 159.778 180.547 161.446C179.374 163.115 177.687 163.949 175.487 163.949ZM175.487 160.649C176.513 160.649 177.283 160.089 177.797 158.971C178.328 157.834 178.594 156.239 178.594 154.185C178.594 152.132 178.328 150.546 177.797 149.428C177.283 148.291 176.513 147.722 175.487 147.722C174.46 147.722 173.681 148.291 173.149 149.428C172.635 150.546 172.379 152.132 172.379 154.185C172.379 156.239 172.635 157.834 173.149 158.971C173.681 160.089 174.46 160.649 175.487 160.649ZM189.131 156.633L185.06 149.923H188.993L192.019 155.258L195.016 149.923H198.922L194.851 156.633L199.032 163.674H195.071L191.991 158.173L188.938 163.674H185.005L189.131 156.633ZM207.865 144.422C209.075 144.422 210.175 144.706 211.166 145.275C212.156 145.825 212.935 146.586 213.503 147.557C214.072 148.529 214.356 149.611 214.356 150.803C214.356 152.416 213.778 154.14 212.623 155.973L207.783 163.674H203.822L208.415 156.688C208.159 156.817 207.764 156.881 207.233 156.881C206.133 156.881 205.133 156.615 204.235 156.083C203.336 155.533 202.631 154.791 202.117 153.855C201.604 152.92 201.347 151.903 201.347 150.803C201.347 149.611 201.631 148.529 202.2 147.557C202.768 146.586 203.547 145.825 204.537 145.275C205.546 144.706 206.655 144.422 207.865 144.422ZM204.922 150.803C204.922 151.738 205.179 152.499 205.693 153.085C206.224 153.654 206.948 153.938 207.865 153.938C208.764 153.938 209.47 153.654 209.983 153.085C210.515 152.499 210.78 151.738 210.78 150.803C210.78 149.831 210.515 149.052 209.983 148.465C209.47 147.86 208.764 147.557 207.865 147.557C206.948 147.557 206.224 147.86 205.693 148.465C205.179 149.07 204.922 149.849 204.922 150.803ZM230.923 143.597V163.674H227.568V161.226C227.275 161.978 226.78 162.62 226.083 163.151C225.386 163.683 224.396 163.949 223.113 163.949C221.939 163.949 220.885 163.665 219.95 163.096C219.015 162.528 218.272 161.703 217.722 160.621C217.19 159.539 216.925 158.265 216.925 156.798C216.925 155.331 217.19 154.057 217.722 152.975C218.254 151.894 218.996 151.069 219.95 150.5C220.922 149.932 222.031 149.648 223.278 149.648C224.396 149.648 225.304 149.923 226 150.473C226.715 151.004 227.21 151.619 227.485 152.315V143.597H230.923ZM223.938 161.006C225.093 161.006 225.991 160.639 226.633 159.906C227.275 159.154 227.595 158.128 227.595 156.826C227.595 155.542 227.284 154.525 226.66 153.773C226.037 153.021 225.157 152.645 224.02 152.645C222.883 152.645 222.012 153.021 221.407 153.773C220.802 154.506 220.5 155.515 220.5 156.798C220.5 158.063 220.802 159.081 221.407 159.851C222.031 160.621 222.874 161.006 223.938 161.006ZM243.324 153.883C244.13 154.085 244.854 154.571 245.496 155.341C246.156 156.092 246.486 157.092 246.486 158.338C246.486 159.475 246.211 160.465 245.661 161.309C245.111 162.152 244.332 162.803 243.324 163.261C242.333 163.72 241.187 163.949 239.886 163.949C238.749 163.949 237.722 163.811 236.805 163.536C235.889 163.261 235.21 162.95 234.77 162.601V159.081C235.284 159.484 235.99 159.851 236.888 160.181C237.805 160.511 238.767 160.676 239.776 160.676C240.729 160.676 241.481 160.447 242.031 159.989C242.599 159.512 242.883 158.852 242.883 158.008C242.883 157.165 242.59 156.542 242.003 156.138C241.417 155.735 240.582 155.533 239.501 155.533H237.52V152.288H239.473C240.39 152.288 241.114 152.059 241.646 151.6C242.196 151.124 242.471 150.528 242.471 149.813C242.471 149.079 242.214 148.538 241.701 148.19C241.206 147.842 240.509 147.667 239.611 147.667C238.712 147.667 237.86 147.823 237.053 148.135C236.265 148.428 235.659 148.758 235.238 149.125V145.77C235.623 145.421 236.246 145.11 237.108 144.835C237.97 144.56 238.941 144.422 240.023 144.422C241.728 144.422 243.131 144.871 244.231 145.77C245.35 146.65 245.909 147.897 245.909 149.51C245.909 150.647 245.643 151.6 245.111 152.37C244.579 153.14 243.984 153.645 243.324 153.883ZM253.999 159.548V163.674H249.708V159.548H253.999ZM261.892 159.548V163.674H257.601V159.548H261.892ZM269.812 159.548V163.674H265.522V159.548H269.812Z" fill="black" fill-opacity="0.88"/>
<path d="M295.262 164.142C294.737 164.142 294.287 163.955 293.913 163.581C293.539 163.207 293.353 162.757 293.353 162.232V148.863H295.262V162.232H305.767V164.142H295.262ZM299.082 160.322C298.557 160.322 298.108 160.135 297.734 159.762C297.359 159.387 297.172 158.937 297.172 158.412V146.953C297.172 146.428 297.359 145.978 297.734 145.604C298.108 145.23 298.557 145.043 299.082 145.043H307.677C308.202 145.043 308.652 145.23 309.026 145.604C309.4 145.978 309.587 146.428 309.587 146.953V158.412C309.587 158.937 309.4 159.387 309.026 159.762C308.652 160.135 308.202 160.322 307.677 160.322H299.082ZM299.082 158.412H307.677V146.953H299.082V158.412Z" fill="black" fill-opacity="0.54"/>
<rect x="112.148" y="196.009" width="81.346" height="31.0865" rx="15.5432" fill="#EEEEEE"/>
<path d="M127.062 217.188C126.204 217.188 125.433 217.077 124.747 216.855C124.061 216.633 123.466 216.32 122.962 215.917L123.446 214.797C123.799 215.06 124.157 215.282 124.52 215.463C124.883 215.635 125.271 215.766 125.685 215.857C126.109 215.937 126.568 215.978 127.062 215.978C127.939 215.978 128.585 215.821 128.998 215.509C129.422 215.186 129.634 214.762 129.634 214.238C129.634 213.784 129.488 213.436 129.195 213.194C128.903 212.952 128.393 212.76 127.667 212.619L126.048 212.286C125.07 212.084 124.338 211.756 123.854 211.302C123.38 210.838 123.143 210.213 123.143 209.426C123.143 208.791 123.31 208.236 123.642 207.762C123.985 207.278 124.454 206.905 125.049 206.642C125.655 206.38 126.361 206.249 127.168 206.249C127.914 206.249 128.605 206.36 129.24 206.582C129.876 206.804 130.41 207.132 130.844 207.565L130.36 208.64C129.906 208.226 129.417 207.929 128.892 207.747C128.378 207.555 127.793 207.459 127.137 207.459C126.341 207.459 125.71 207.631 125.246 207.974C124.782 208.317 124.55 208.781 124.55 209.366C124.55 209.83 124.696 210.198 124.989 210.47C125.281 210.733 125.766 210.934 126.441 211.076L128.06 211.393C129.089 211.595 129.841 211.913 130.315 212.346C130.799 212.78 131.041 213.38 131.041 214.147C131.041 214.752 130.879 215.287 130.557 215.751C130.234 216.204 129.775 216.558 129.18 216.81C128.585 217.062 127.879 217.188 127.062 217.188ZM136.406 217.188C135.649 217.188 134.994 217.032 134.439 216.719C133.884 216.396 133.45 215.937 133.138 215.342C132.835 214.737 132.684 214.021 132.684 213.194C132.684 212.377 132.84 211.681 133.153 211.106C133.466 210.521 133.899 210.077 134.454 209.774C135.009 209.462 135.659 209.305 136.406 209.305C136.9 209.305 137.379 209.391 137.843 209.563C138.307 209.724 138.685 209.961 138.978 210.274L138.509 211.242C138.216 210.96 137.894 210.753 137.541 210.622C137.188 210.48 136.84 210.41 136.497 210.41C135.75 210.41 135.165 210.652 134.742 211.136C134.318 211.61 134.106 212.301 134.106 213.209C134.106 214.127 134.318 214.833 134.742 215.327C135.165 215.821 135.75 216.068 136.497 216.068C136.829 216.068 137.172 216.003 137.525 215.872C137.878 215.741 138.206 215.534 138.509 215.251L138.978 216.204C138.675 216.527 138.287 216.774 137.813 216.946C137.349 217.107 136.88 217.188 136.406 217.188ZM143.756 217.188C143.091 217.188 142.506 217.032 142.001 216.719C141.497 216.406 141.104 215.952 140.821 215.357C140.539 214.762 140.398 214.056 140.398 213.239C140.398 212.422 140.539 211.721 140.821 211.136C141.104 210.541 141.497 210.087 142.001 209.774C142.506 209.462 143.091 209.305 143.756 209.305C144.432 209.305 145.017 209.477 145.511 209.82C146.016 210.153 146.349 210.612 146.51 211.197H146.328L146.495 209.441H147.826C147.796 209.744 147.766 210.047 147.735 210.349C147.715 210.652 147.705 210.949 147.705 211.242V217.052H146.328V215.312H146.495C146.333 215.887 146.001 216.346 145.496 216.689C145.002 217.021 144.422 217.188 143.756 217.188ZM144.074 216.099C144.76 216.099 145.31 215.857 145.723 215.372C146.137 214.888 146.343 214.177 146.343 213.239C146.343 212.301 146.137 211.595 145.723 211.121C145.31 210.647 144.76 210.41 144.074 210.41C143.388 210.41 142.833 210.647 142.41 211.121C141.996 211.595 141.789 212.301 141.789 213.239C141.789 214.177 141.996 214.888 142.41 215.372C142.823 215.857 143.378 216.099 144.074 216.099ZM150.264 217.052V211.242C150.264 210.949 150.254 210.652 150.234 210.349C150.214 210.047 150.183 209.744 150.143 209.441H151.475L151.626 211.076H151.444C151.646 210.511 151.969 210.077 152.413 209.774C152.856 209.462 153.386 209.305 154.001 209.305C154.627 209.305 155.141 209.457 155.544 209.759C155.948 210.052 156.22 210.516 156.361 211.151H156.134C156.326 210.586 156.664 210.137 157.148 209.805C157.632 209.472 158.197 209.305 158.843 209.305C159.68 209.305 160.31 209.552 160.734 210.047C161.158 210.531 161.369 211.287 161.369 212.316V217.052H159.993V212.392C159.993 211.696 159.872 211.197 159.629 210.894C159.387 210.581 159.004 210.425 158.48 210.425C157.864 210.425 157.38 210.637 157.027 211.06C156.674 211.474 156.498 212.039 156.498 212.755V217.052H155.121V212.392C155.121 211.696 155 211.197 154.758 210.894C154.526 210.581 154.142 210.425 153.608 210.425C152.993 210.425 152.508 210.637 152.155 211.06C151.812 211.474 151.641 212.039 151.641 212.755V217.052H150.264Z" fill="#1A1A1A"/>
<path d="M177.524 207.349H179.205V209.03H177.524V207.349ZM177.524 210.711H179.205V215.755H177.524V210.711ZM178.364 203.146C176.702 203.146 175.077 203.639 173.695 204.563C172.312 205.487 171.235 206.799 170.599 208.335C169.963 209.871 169.796 211.561 170.12 213.192C170.445 214.822 171.245 216.32 172.421 217.495C173.596 218.671 175.094 219.471 176.725 219.796C178.355 220.12 180.045 219.954 181.581 219.317C183.117 218.681 184.43 217.604 185.353 216.222C186.277 214.839 186.77 213.214 186.77 211.552C186.77 210.448 186.552 209.355 186.13 208.335C185.708 207.315 185.088 206.389 184.308 205.608C183.527 204.828 182.601 204.209 181.581 203.786C180.561 203.364 179.468 203.146 178.364 203.146V203.146ZM178.364 218.276C177.034 218.276 175.734 217.882 174.629 217.143C173.523 216.404 172.661 215.354 172.152 214.125C171.643 212.896 171.51 211.544 171.769 210.24C172.029 208.936 172.669 207.737 173.61 206.797C174.55 205.857 175.748 205.216 177.053 204.957C178.357 204.697 179.709 204.83 180.938 205.339C182.166 205.848 183.217 206.71 183.955 207.816C184.694 208.922 185.089 210.222 185.089 211.552C185.089 213.335 184.38 215.046 183.119 216.307C181.858 217.568 180.148 218.276 178.364 218.276V218.276Z" fill="black" fill-opacity="0.6"/>
<rect x="203.581" y="196.009" width="106.173" height="30.2595" rx="10.0865" fill="#FFEAE6"/>
<path d="M214.999 216.639V205.972H216.255V216.639H214.999ZM218.779 216.639V205.503H220.004V216.639H218.779ZM222.384 216.639V205.503H223.609V216.639H222.384ZM225.989 216.639V209.044H227.214V216.639H225.989ZM225.838 207.319V205.942H227.351V207.319H225.838ZM232.786 216.775C232.04 216.775 231.389 216.613 230.835 216.291C230.29 215.968 229.866 215.509 229.564 214.914C229.271 214.319 229.125 213.613 229.125 212.796C229.125 211.969 229.276 211.268 229.579 210.693C229.881 210.108 230.305 209.664 230.85 209.361C231.405 209.059 232.05 208.907 232.786 208.907C233.271 208.907 233.74 208.993 234.193 209.165C234.657 209.336 235.041 209.578 235.343 209.891L234.905 210.768C234.602 210.476 234.269 210.259 233.906 210.118C233.553 209.977 233.205 209.906 232.862 209.906C232.075 209.906 231.465 210.153 231.031 210.647C230.598 211.142 230.381 211.863 230.381 212.811C230.381 213.749 230.598 214.475 231.031 214.99C231.465 215.504 232.075 215.761 232.862 215.761C233.195 215.761 233.538 215.696 233.891 215.564C234.254 215.433 234.592 215.216 234.905 214.914L235.343 215.776C235.031 216.099 234.642 216.346 234.178 216.518C233.714 216.689 233.25 216.775 232.786 216.775ZM237.085 216.639V209.044H238.311V216.639H237.085ZM236.934 207.319V205.942H238.447V207.319H236.934ZM243.383 216.775C242.637 216.775 242.067 216.563 241.674 216.139C241.28 215.706 241.084 215.055 241.084 214.188V209.997H239.601V209.044H241.084V206.971L242.309 206.623V209.044H244.488V209.997H242.309V214.051C242.309 214.657 242.41 215.09 242.612 215.353C242.823 215.605 243.136 215.731 243.55 215.731C243.741 215.731 243.913 215.716 244.064 215.685C244.215 215.645 244.352 215.6 244.473 215.549V216.578C244.331 216.639 244.16 216.684 243.958 216.714C243.767 216.755 243.575 216.775 243.383 216.775ZM252.814 216.775C252.139 216.775 251.549 216.618 251.044 216.306C250.54 215.983 250.147 215.529 249.864 214.944C249.592 214.359 249.456 213.658 249.456 212.841C249.456 212.014 249.592 211.308 249.864 210.723C250.147 210.138 250.54 209.689 251.044 209.376C251.549 209.064 252.139 208.907 252.814 208.907C253.5 208.907 254.09 209.084 254.585 209.437C255.089 209.78 255.422 210.249 255.583 210.844H255.402L255.568 209.044H256.748C256.718 209.336 256.688 209.634 256.657 209.936C256.637 210.229 256.627 210.516 256.627 210.799V216.639H255.402V214.853H255.568C255.407 215.448 255.074 215.917 254.569 216.26C254.065 216.603 253.48 216.775 252.814 216.775ZM253.056 215.776C253.783 215.776 254.358 215.529 254.781 215.035C255.205 214.531 255.417 213.799 255.417 212.841C255.417 211.873 255.205 211.142 254.781 210.647C254.358 210.143 253.783 209.891 253.056 209.891C252.34 209.891 251.765 210.143 251.332 210.647C250.908 211.142 250.696 211.873 250.696 212.841C250.696 213.799 250.908 214.531 251.332 215.035C251.765 215.529 252.34 215.776 253.056 215.776ZM262.189 216.775C261.443 216.775 260.792 216.613 260.237 216.291C259.693 215.968 259.269 215.509 258.966 214.914C258.674 214.319 258.528 213.613 258.528 212.796C258.528 211.969 258.679 211.268 258.981 210.693C259.284 210.108 259.708 209.664 260.252 209.361C260.807 209.059 261.453 208.907 262.189 208.907C262.673 208.907 263.142 208.993 263.596 209.165C264.06 209.336 264.443 209.578 264.746 209.891L264.307 210.768C264.005 210.476 263.672 210.259 263.309 210.118C262.956 209.977 262.608 209.906 262.265 209.906C261.478 209.906 260.868 210.153 260.434 210.647C260 211.142 259.783 211.863 259.783 212.811C259.783 213.749 260 214.475 260.434 214.99C260.868 215.504 261.478 215.761 262.265 215.761C262.597 215.761 262.94 215.696 263.293 215.564C263.657 215.433 263.994 215.216 264.307 214.914L264.746 215.776C264.433 216.099 264.045 216.346 263.581 216.518C263.117 216.689 262.653 216.775 262.189 216.775ZM269.181 216.775C268.434 216.775 267.864 216.563 267.471 216.139C267.078 215.706 266.881 215.055 266.881 214.188V209.997H265.398V209.044H266.881V206.971L268.106 206.623V209.044H270.285V209.997H268.106V214.051C268.106 214.657 268.207 215.09 268.409 215.353C268.621 215.605 268.934 215.731 269.347 215.731C269.539 215.731 269.71 215.716 269.861 215.685C270.013 215.645 270.149 215.6 270.27 215.549V216.578C270.129 216.639 269.957 216.684 269.756 216.714C269.564 216.755 269.372 216.775 269.181 216.775ZM271.777 216.639V209.044H273.003V216.639H271.777ZM271.626 207.319V205.942H273.139V207.319H271.626ZM277.621 216.639L274.369 209.044H275.7L278.423 215.731H278.015L280.768 209.044H282.039L278.786 216.639H277.621ZM283.42 216.639V209.044H284.645V216.639H283.42ZM283.269 207.319V205.942H284.782V207.319H283.269ZM289.718 216.775C288.972 216.775 288.402 216.563 288.008 216.139C287.615 215.706 287.418 215.055 287.418 214.188V209.997H285.936V209.044H287.418V206.971L288.644 206.623V209.044H290.823V209.997H288.644V214.051C288.644 214.657 288.745 215.09 288.946 215.353C289.158 215.605 289.471 215.731 289.885 215.731C290.076 215.731 290.248 215.716 290.399 215.685C290.55 215.645 290.686 215.6 290.807 215.549V216.578C290.666 216.639 290.495 216.684 290.293 216.714C290.101 216.755 289.91 216.775 289.718 216.775ZM292.101 220.073L291.813 219.059C292.287 218.948 292.681 218.817 292.993 218.666C293.316 218.525 293.583 218.333 293.795 218.091C294.007 217.849 294.188 217.546 294.34 217.183L294.733 216.291L294.703 216.805L291.389 209.044H292.721L295.459 215.716H295.066L297.774 209.044H299.06L295.55 217.274C295.348 217.758 295.127 218.162 294.884 218.485C294.642 218.817 294.38 219.085 294.098 219.286C293.825 219.498 293.523 219.665 293.19 219.786C292.857 219.907 292.494 220.003 292.101 220.073Z" fill="#8C000E"/>
<g clip-path="url(#clip3_10484_17323)">
<rect x="112.148" y="245.431" width="403.704" height="355.024" rx="9.16747" fill="white"/>
<path d="M132.309 290.766V275.256H138.887C140.545 275.256 141.813 275.659 142.693 276.466C143.588 277.258 144.035 278.358 144.035 279.766C144.035 281.174 143.588 282.281 142.693 283.088C141.813 283.894 140.545 284.298 138.887 284.298H134.597V290.766H132.309ZM134.597 282.472H138.645C139.687 282.472 140.471 282.237 140.999 281.768C141.527 281.298 141.791 280.631 141.791 279.766C141.791 278.915 141.527 278.255 140.999 277.786C140.471 277.316 139.687 277.082 138.645 277.082H134.597V282.472ZM146.333 290.766V282.428C146.333 281.973 146.318 281.518 146.289 281.064C146.274 280.594 146.245 280.132 146.201 279.678H148.357L148.599 282.538H148.247C148.394 281.848 148.643 281.276 148.995 280.822C149.347 280.367 149.772 280.03 150.271 279.81C150.784 279.59 151.32 279.48 151.877 279.48C152.112 279.48 152.31 279.494 152.471 279.524C152.632 279.538 152.794 279.568 152.955 279.612L152.933 281.592C152.684 281.489 152.464 281.43 152.273 281.416C152.097 281.386 151.877 281.372 151.613 281.372C150.968 281.372 150.418 281.518 149.963 281.812C149.508 282.09 149.164 282.472 148.929 282.956C148.694 283.44 148.577 283.96 148.577 284.518V290.766H146.333ZM159.272 290.964C158.172 290.964 157.218 290.736 156.412 290.282C155.605 289.812 154.982 289.152 154.542 288.302C154.102 287.436 153.882 286.41 153.882 285.222C153.882 284.034 154.102 283.014 154.542 282.164C154.982 281.298 155.605 280.638 156.412 280.184C157.218 279.714 158.172 279.48 159.272 279.48C160.372 279.48 161.325 279.714 162.132 280.184C162.953 280.638 163.584 281.298 164.024 282.164C164.478 283.014 164.706 284.034 164.706 285.222C164.706 286.41 164.478 287.436 164.024 288.302C163.584 289.152 162.953 289.812 162.132 290.282C161.325 290.736 160.372 290.964 159.272 290.964ZM159.272 289.226C160.24 289.226 161.01 288.888 161.582 288.214C162.154 287.539 162.44 286.542 162.44 285.222C162.44 283.902 162.154 282.912 161.582 282.252C161.01 281.577 160.24 281.24 159.272 281.24C158.318 281.24 157.556 281.577 156.984 282.252C156.412 282.912 156.126 283.902 156.126 285.222C156.126 286.542 156.404 287.539 156.962 288.214C157.534 288.888 158.304 289.226 159.272 289.226ZM167.855 290.766V281.394H165.699V279.678H168.471L167.855 280.25V278.49C167.855 277.184 168.185 276.194 168.845 275.52C169.505 274.83 170.473 274.486 171.749 274.486C172.057 274.486 172.38 274.508 172.717 274.552C173.055 274.596 173.333 274.669 173.553 274.772V276.576C173.377 276.502 173.157 276.444 172.893 276.4C172.644 276.341 172.387 276.312 172.123 276.312C171.698 276.312 171.331 276.4 171.023 276.576C170.715 276.737 170.473 276.986 170.297 277.324C170.136 277.661 170.055 278.094 170.055 278.622V280.118L169.725 279.678H173.069V281.394H170.077V290.766H167.855ZM174.93 290.766V279.678H177.152V290.766H174.93ZM174.754 277.368V275.058H177.328V277.368H174.754ZM180.408 290.766V274.574H182.63V290.766H180.408ZM191.013 290.964C189.223 290.964 187.815 290.458 186.789 289.446C185.762 288.434 185.249 287.033 185.249 285.244C185.249 284.085 185.469 283.073 185.909 282.208C186.363 281.342 186.987 280.675 187.779 280.206C188.585 279.722 189.517 279.48 190.573 279.48C191.614 279.48 192.487 279.7 193.191 280.14C193.895 280.58 194.43 281.203 194.797 282.01C195.163 282.802 195.347 283.74 195.347 284.826V285.53H186.987V284.254H193.829L193.455 284.54C193.455 283.44 193.205 282.589 192.707 281.988C192.223 281.372 191.519 281.064 190.595 281.064C189.568 281.064 188.776 281.423 188.219 282.142C187.661 282.846 187.383 283.821 187.383 285.068V285.288C187.383 286.593 187.698 287.576 188.329 288.236C188.974 288.896 189.883 289.226 191.057 289.226C191.702 289.226 192.303 289.138 192.861 288.962C193.433 288.771 193.975 288.463 194.489 288.038L195.215 289.556C194.701 290.01 194.078 290.362 193.345 290.612C192.611 290.846 191.834 290.964 191.013 290.964ZM208.008 290.964C207.04 290.964 206.182 290.736 205.434 290.282C204.7 289.827 204.128 289.167 203.718 288.302C203.322 287.436 203.124 286.41 203.124 285.222C203.124 284.019 203.322 282.992 203.718 282.142C204.128 281.291 204.7 280.638 205.434 280.184C206.182 279.714 207.04 279.48 208.008 279.48C208.961 279.48 209.797 279.722 210.516 280.206C211.249 280.675 211.733 281.32 211.968 282.142H211.704V274.574H213.926V290.766H211.726V288.258H211.99C211.74 289.094 211.256 289.754 210.538 290.238C209.819 290.722 208.976 290.964 208.008 290.964ZM208.558 289.226C209.511 289.226 210.281 288.888 210.868 288.214C211.454 287.539 211.748 286.542 211.748 285.222C211.748 283.902 211.454 282.912 210.868 282.252C210.281 281.577 209.511 281.24 208.558 281.24C207.59 281.24 206.812 281.577 206.226 282.252C205.654 282.912 205.368 283.902 205.368 285.222C205.368 286.542 205.654 287.539 206.226 288.214C206.812 288.888 207.59 289.226 208.558 289.226ZM221.414 290.964C220.431 290.964 219.573 290.736 218.84 290.282C218.107 289.827 217.535 289.167 217.124 288.302C216.728 287.436 216.53 286.41 216.53 285.222C216.53 284.019 216.728 282.992 217.124 282.142C217.535 281.291 218.107 280.638 218.84 280.184C219.573 279.714 220.431 279.48 221.414 279.48C222.382 279.48 223.225 279.722 223.944 280.206C224.663 280.69 225.139 281.35 225.374 282.186H225.132L225.352 279.678H227.508C227.464 280.132 227.42 280.587 227.376 281.042C227.347 281.482 227.332 281.914 227.332 282.34V290.766H225.11V288.302H225.352C225.117 289.123 224.633 289.776 223.9 290.26C223.181 290.729 222.353 290.964 221.414 290.964ZM221.964 289.226C222.917 289.226 223.68 288.888 224.252 288.214C224.839 287.539 225.132 286.542 225.132 285.222C225.132 283.902 224.839 282.912 224.252 282.252C223.68 281.577 222.917 281.24 221.964 281.24C220.996 281.24 220.219 281.577 219.632 282.252C219.06 282.912 218.774 283.902 218.774 285.222C218.774 286.542 219.06 287.539 219.632 288.214C220.204 288.888 220.981 289.226 221.964 289.226ZM234.886 290.964C233.684 290.964 232.774 290.641 232.158 289.996C231.542 289.336 231.234 288.353 231.234 287.048V281.394H229.078V279.678H231.234V276.752L233.456 276.158V279.678H236.536V281.394H233.456V286.85C233.456 287.671 233.603 288.258 233.896 288.61C234.19 288.962 234.615 289.138 235.172 289.138C235.451 289.138 235.693 289.116 235.898 289.072C236.118 289.013 236.316 288.947 236.492 288.874V290.678C236.272 290.766 236.016 290.832 235.722 290.876C235.429 290.934 235.15 290.964 234.886 290.964ZM242.812 290.964C241.83 290.964 240.972 290.736 240.238 290.282C239.505 289.827 238.933 289.167 238.522 288.302C238.126 287.436 237.928 286.41 237.928 285.222C237.928 284.019 238.126 282.992 238.522 282.142C238.933 281.291 239.505 280.638 240.238 280.184C240.972 279.714 241.83 279.48 242.812 279.48C243.78 279.48 244.624 279.722 245.342 280.206C246.061 280.69 246.538 281.35 246.772 282.186H246.53L246.75 279.678H248.906C248.862 280.132 248.818 280.587 248.774 281.042C248.745 281.482 248.73 281.914 248.73 282.34V290.766H246.508V288.302H246.75C246.516 289.123 246.032 289.776 245.298 290.26C244.58 290.729 243.751 290.964 242.812 290.964ZM243.362 289.226C244.316 289.226 245.078 288.888 245.65 288.214C246.237 287.539 246.53 286.542 246.53 285.222C246.53 283.902 246.237 282.912 245.65 282.252C245.078 281.577 244.316 281.24 243.362 281.24C242.394 281.24 241.617 281.577 241.03 282.252C240.458 282.912 240.172 283.902 240.172 285.222C240.172 286.542 240.458 287.539 241.03 288.214C241.602 288.888 242.38 289.226 243.362 289.226Z" fill="black" fill-opacity="0.88"/>
<path d="M481.795 284.731L483.411 286.347L488.671 281.098L493.93 286.347L495.546 284.731L488.671 277.855L481.795 284.731Z" fill="black" fill-opacity="0.54"/>
<rect x="130" y="319.101" width="368" height="23" rx="4.58374" fill="#F4F6FA"/>
<rect x="130" y="346.685" width="368" height="23" rx="4.58374" fill="#F4F6FA"/>
<rect x="130" y="374.268" width="288" height="23" rx="4.58374" fill="#F4F6FA"/>
<path d="M134.368 432.318V422.793H130.633V421.743H139.333V422.793H135.613V432.318H134.368ZM142.669 432.453C141.949 432.453 141.319 432.298 140.779 431.988C140.249 431.668 139.839 431.218 139.549 430.638C139.259 430.048 139.114 429.353 139.114 428.553C139.114 427.743 139.259 427.048 139.549 426.468C139.839 425.888 140.249 425.443 140.779 425.133C141.319 424.813 141.949 424.653 142.669 424.653C143.399 424.653 144.029 424.813 144.559 425.133C145.099 425.443 145.514 425.888 145.804 426.468C146.104 427.048 146.254 427.743 146.254 428.553C146.254 429.353 146.104 430.048 145.804 430.638C145.514 431.218 145.099 431.668 144.559 431.988C144.029 432.298 143.399 432.453 142.669 432.453ZM142.669 431.463C143.389 431.463 143.959 431.218 144.379 430.728C144.799 430.228 145.009 429.503 145.009 428.553C145.009 427.593 144.794 426.868 144.364 426.378C143.944 425.878 143.379 425.628 142.669 425.628C141.959 425.628 141.394 425.878 140.974 426.378C140.554 426.868 140.344 427.593 140.344 428.553C140.344 429.503 140.554 430.228 140.974 430.728C141.394 431.218 141.959 431.463 142.669 431.463ZM150.745 432.453C150.005 432.453 149.44 432.243 149.05 431.823C148.66 431.393 148.465 430.748 148.465 429.888V425.733H146.995V424.788H148.465V422.733L149.68 422.388V424.788H151.84V425.733H149.68V429.753C149.68 430.353 149.78 430.783 149.98 431.043C150.19 431.293 150.5 431.418 150.91 431.418C151.1 431.418 151.27 431.403 151.42 431.373C151.57 431.333 151.705 431.288 151.825 431.238V432.258C151.685 432.318 151.515 432.363 151.315 432.393C151.125 432.433 150.935 432.453 150.745 432.453ZM156.184 432.453C155.514 432.453 154.929 432.298 154.429 431.988C153.929 431.668 153.539 431.218 153.259 430.638C152.989 430.058 152.854 429.363 152.854 428.553C152.854 427.733 152.989 427.033 153.259 426.453C153.539 425.873 153.929 425.428 154.429 425.118C154.929 424.808 155.514 424.653 156.184 424.653C156.864 424.653 157.449 424.828 157.939 425.178C158.439 425.518 158.769 425.983 158.929 426.573H158.749L158.914 424.788H160.084C160.054 425.078 160.024 425.373 159.994 425.673C159.974 425.963 159.964 426.248 159.964 426.528V432.318H158.749V430.548H158.914C158.754 431.138 158.424 431.603 157.924 431.943C157.424 432.283 156.844 432.453 156.184 432.453ZM156.424 431.463C157.144 431.463 157.714 431.218 158.134 430.728C158.554 430.228 158.764 429.503 158.764 428.553C158.764 427.593 158.554 426.868 158.134 426.378C157.714 425.878 157.144 425.628 156.424 425.628C155.714 425.628 155.144 425.878 154.714 426.378C154.294 426.868 154.084 427.593 154.084 428.553C154.084 429.503 154.294 430.228 154.714 430.728C155.144 431.218 155.714 431.463 156.424 431.463ZM162.313 432.318V421.278H163.528V432.318H162.313ZM172.468 432.453C171.728 432.453 171.163 432.243 170.773 431.823C170.383 431.393 170.188 430.748 170.188 429.888V425.733H168.718V424.788H170.188V422.733L171.403 422.388V424.788H173.563V425.733H171.403V429.753C171.403 430.353 171.503 430.783 171.703 431.043C171.913 431.293 172.223 431.418 172.633 431.418C172.823 431.418 172.993 431.403 173.143 431.373C173.293 431.333 173.428 431.288 173.548 431.238V432.258C173.408 432.318 173.238 432.363 173.038 432.393C172.848 432.433 172.658 432.453 172.468 432.453ZM175.012 432.318V426.603C175.012 426.303 175.002 425.998 174.982 425.688C174.972 425.378 174.952 425.078 174.922 424.788H176.092L176.242 426.618L176.032 426.633C176.132 426.183 176.307 425.813 176.557 425.523C176.807 425.233 177.102 425.018 177.442 424.878C177.782 424.728 178.137 424.653 178.507 424.653C178.657 424.653 178.787 424.658 178.897 424.668C179.017 424.678 179.127 424.703 179.227 424.743L179.212 425.823C179.062 425.773 178.922 425.743 178.792 425.733C178.672 425.713 178.532 425.703 178.372 425.703C177.932 425.703 177.547 425.808 177.217 426.018C176.897 426.228 176.652 426.498 176.482 426.828C176.322 427.158 176.242 427.508 176.242 427.878V432.318H175.012ZM183.283 432.453C182.613 432.453 182.028 432.298 181.528 431.988C181.028 431.668 180.638 431.218 180.358 430.638C180.088 430.058 179.953 429.363 179.953 428.553C179.953 427.733 180.088 427.033 180.358 426.453C180.638 425.873 181.028 425.428 181.528 425.118C182.028 424.808 182.613 424.653 183.283 424.653C183.963 424.653 184.548 424.828 185.038 425.178C185.538 425.518 185.868 425.983 186.028 426.573H185.848L186.013 424.788H187.183C187.153 425.078 187.123 425.373 187.093 425.673C187.073 425.963 187.063 426.248 187.063 426.528V432.318H185.848V430.548H186.013C185.853 431.138 185.523 431.603 185.023 431.943C184.523 432.283 183.943 432.453 183.283 432.453ZM183.523 431.463C184.243 431.463 184.813 431.218 185.233 430.728C185.653 430.228 185.863 429.503 185.863 428.553C185.863 427.593 185.653 426.868 185.233 426.378C184.813 425.878 184.243 425.628 183.523 425.628C182.813 425.628 182.243 425.878 181.813 426.378C181.393 426.868 181.183 427.593 181.183 428.553C181.183 429.503 181.393 430.228 181.813 430.728C182.243 431.218 182.813 431.463 183.523 431.463ZM189.413 432.318V426.528C189.413 426.248 189.398 425.963 189.368 425.673C189.348 425.373 189.323 425.078 189.293 424.788H190.463L190.613 426.438H190.433C190.653 425.858 191.003 425.418 191.483 425.118C191.973 424.808 192.538 424.653 193.178 424.653C194.068 424.653 194.738 424.893 195.188 425.373C195.648 425.843 195.878 426.588 195.878 427.608V432.318H194.663V427.683C194.663 426.973 194.518 426.458 194.228 426.138C193.948 425.808 193.508 425.643 192.908 425.643C192.208 425.643 191.653 425.858 191.243 426.288C190.833 426.718 190.628 427.293 190.628 428.013V432.318H189.413ZM200.707 432.453C200.107 432.453 199.547 432.373 199.027 432.213C198.507 432.043 198.077 431.808 197.737 431.508L198.157 430.653C198.527 430.943 198.927 431.158 199.357 431.298C199.797 431.438 200.252 431.508 200.722 431.508C201.322 431.508 201.772 431.403 202.072 431.193C202.382 430.973 202.537 430.673 202.537 430.293C202.537 430.003 202.437 429.773 202.237 429.603C202.047 429.423 201.732 429.283 201.292 429.183L199.897 428.898C199.257 428.758 198.777 428.523 198.457 428.193C198.137 427.853 197.977 427.423 197.977 426.903C197.977 426.463 198.092 426.078 198.322 425.748C198.552 425.408 198.887 425.143 199.327 424.953C199.767 424.753 200.282 424.653 200.872 424.653C201.422 424.653 201.927 424.738 202.387 424.908C202.857 425.068 203.247 425.303 203.557 425.613L203.122 426.453C202.822 426.163 202.477 425.948 202.087 425.808C201.707 425.658 201.312 425.583 200.902 425.583C200.312 425.583 199.867 425.703 199.567 425.943C199.277 426.173 199.132 426.478 199.132 426.858C199.132 427.148 199.222 427.388 199.402 427.578C199.592 427.758 199.882 427.893 200.272 427.983L201.667 428.268C202.347 428.418 202.852 428.653 203.182 428.973C203.522 429.283 203.692 429.703 203.692 430.233C203.692 430.683 203.567 431.078 203.317 431.418C203.067 431.748 202.717 432.003 202.267 432.183C201.827 432.363 201.307 432.453 200.707 432.453ZM208.508 432.453C207.838 432.453 207.253 432.298 206.753 431.988C206.253 431.668 205.863 431.218 205.583 430.638C205.313 430.058 205.178 429.363 205.178 428.553C205.178 427.733 205.313 427.033 205.583 426.453C205.863 425.873 206.253 425.428 206.753 425.118C207.253 424.808 207.838 424.653 208.508 424.653C209.188 424.653 209.773 424.828 210.263 425.178C210.763 425.518 211.093 425.983 211.253 426.573H211.073L211.238 424.788H212.408C212.378 425.078 212.348 425.373 212.318 425.673C212.298 425.963 212.288 426.248 212.288 426.528V432.318H211.073V430.548H211.238C211.078 431.138 210.748 431.603 210.248 431.943C209.748 432.283 209.168 432.453 208.508 432.453ZM208.748 431.463C209.468 431.463 210.038 431.218 210.458 430.728C210.878 430.228 211.088 429.503 211.088 428.553C211.088 427.593 210.878 426.868 210.458 426.378C210.038 425.878 209.468 425.628 208.748 425.628C208.038 425.628 207.468 425.878 207.038 426.378C206.618 426.868 206.408 427.593 206.408 428.553C206.408 429.503 206.618 430.228 207.038 430.728C207.468 431.218 208.038 431.463 208.748 431.463ZM217.802 432.453C217.062 432.453 216.417 432.293 215.867 431.973C215.327 431.653 214.907 431.198 214.607 430.608C214.317 430.018 214.172 429.318 214.172 428.508C214.172 427.688 214.322 426.993 214.622 426.423C214.922 425.843 215.342 425.403 215.882 425.103C216.432 424.803 217.072 424.653 217.802 424.653C218.282 424.653 218.747 424.738 219.197 424.908C219.657 425.078 220.037 425.318 220.337 425.628L219.902 426.498C219.602 426.208 219.272 425.993 218.912 425.853C218.562 425.713 218.217 425.643 217.877 425.643C217.097 425.643 216.492 425.888 216.062 426.378C215.632 426.868 215.417 427.583 215.417 428.523C215.417 429.453 215.632 430.173 216.062 430.683C216.492 431.193 217.097 431.448 217.877 431.448C218.207 431.448 218.547 431.383 218.897 431.253C219.257 431.123 219.592 430.908 219.902 430.608L220.337 431.463C220.027 431.783 219.642 432.028 219.182 432.198C218.722 432.368 218.262 432.453 217.802 432.453ZM224.734 432.453C223.994 432.453 223.429 432.243 223.039 431.823C222.649 431.393 222.454 430.748 222.454 429.888V425.733H220.984V424.788H222.454V422.733L223.669 422.388V424.788H225.829V425.733H223.669V429.753C223.669 430.353 223.769 430.783 223.969 431.043C224.179 431.293 224.489 431.418 224.899 431.418C225.089 431.418 225.259 431.403 225.409 431.373C225.559 431.333 225.694 431.288 225.814 431.238V432.258C225.674 432.318 225.504 432.363 225.304 432.393C225.114 432.433 224.924 432.453 224.734 432.453ZM230.58 432.453C229.4 432.453 228.47 432.113 227.79 431.433C227.11 430.743 226.77 429.788 226.77 428.568C226.77 427.778 226.92 427.093 227.22 426.513C227.52 425.923 227.94 425.468 228.48 425.148C229.02 424.818 229.64 424.653 230.34 424.653C231.03 424.653 231.61 424.798 232.08 425.088C232.55 425.378 232.91 425.793 233.16 426.333C233.41 426.863 233.535 427.493 233.535 428.223V428.673H227.7V427.908H232.74L232.485 428.103C232.485 427.303 232.305 426.678 231.945 426.228C231.585 425.778 231.05 425.553 230.34 425.553C229.59 425.553 229.005 425.818 228.585 426.348C228.165 426.868 227.955 427.573 227.955 428.463V428.598C227.955 429.538 228.185 430.253 228.645 430.743C229.115 431.223 229.77 431.463 230.61 431.463C231.06 431.463 231.48 431.398 231.87 431.268C232.27 431.128 232.65 430.903 233.01 430.593L233.43 431.448C233.1 431.768 232.68 432.018 232.17 432.198C231.67 432.368 231.14 432.453 230.58 432.453ZM238.244 432.453C237.584 432.453 237.004 432.298 236.504 431.988C236.004 431.668 235.614 431.218 235.334 430.638C235.064 430.058 234.929 429.363 234.929 428.553C234.929 427.733 235.064 427.033 235.334 426.453C235.614 425.873 236.004 425.428 236.504 425.118C237.004 424.808 237.584 424.653 238.244 424.653C238.924 424.653 239.509 424.823 239.999 425.163C240.499 425.503 240.834 425.963 241.004 426.543H240.824V421.278H242.039V432.318H240.839V430.518H241.004C240.844 431.118 240.514 431.593 240.014 431.943C239.514 432.283 238.924 432.453 238.244 432.453ZM238.499 431.463C239.209 431.463 239.779 431.218 240.209 430.728C240.639 430.228 240.854 429.503 240.854 428.553C240.854 427.593 240.639 426.868 240.209 426.378C239.779 425.878 239.209 425.628 238.499 425.628C237.789 425.628 237.219 425.878 236.789 426.378C236.369 426.868 236.159 427.593 236.159 428.553C236.159 429.503 236.369 430.228 236.789 430.728C237.219 431.218 237.789 431.463 238.499 431.463Z" fill="black" fill-opacity="0.6"/>
</g>
<rect x="111.575" y="244.858" width="404.85" height="356.17" rx="9.74044" stroke="black" stroke-opacity="0.16" stroke-width="1.14593"/>
</g>
</g>
</g>
<defs>
<filter id="filter0_d_10484_17323" x="72.2082" y="31.9785" width="483.585" height="2161.96" filterUnits="userSpaceOnUse" color-interpolation-filters="sRGB">
<feFlood flood-opacity="0" result="BackgroundImageFix"/>
<feColorMatrix in="SourceAlpha" type="matrix" values="0 0 0 0 0 0 0 0 0 0 0 0 0 0 0 0 0 0 127 0" result="hardAlpha"/>
<feMorphology radius="1.14593" operator="dilate" in="SourceAlpha" result="effect1_dropShadow_10484_17323"/>
<feOffset dy="4.58374"/>
<feGaussianBlur stdDeviation="5.72967"/>
<feColorMatrix type="matrix" values="0 0 0 0 0.160784 0 0 0 0 0.223529 0 0 0 0 0.447059 0 0 0 0.1 0"/>
<feBlend mode="normal" in2="BackgroundImageFix" result="effect1_dropShadow_10484_17323"/>
<feBlend mode="normal" in="SourceGraphic" in2="effect1_dropShadow_10484_17323" result="shape"/>
</filter>
<clipPath id="clip0_10484_17323">
<rect width="628" height="460" fill="white" transform="translate(0 0.785156)"/>
</clipPath>
<clipPath id="clip1_10484_17323">
<path d="M84.8135 58.3349C84.8135 48.2088 93.0223 40 103.148 40H524.852C534.978 40 543.187 48.2088 543.187 58.335V2158.41C543.187 2168.54 534.978 2176.75 524.852 2176.75H103.148C93.0223 2176.75 84.8135 2168.54 84.8135 2158.41V58.3349Z" fill="white"/>
</clipPath>
<clipPath id="clip2_10484_17323">
<rect x="479.015" y="53.751" width="36.6699" height="36.6699" rx="18.3349" fill="white"/>
</clipPath>
<clipPath id="clip3_10484_17323">
<rect x="112.148" y="245.431" width="403.704" height="355.024" rx="9.16747" fill="white"/>
</clipPath>
</defs>
</svg>